<svg width="386" height="184" viewBox="0 0 386 184" fill="none" xmlns="http://www.w3.org/2000/svg">
<path d="M0 38.4C0 24.9587 0 18.2381 2.61584 13.1042C4.9168 8.58834 8.58834 4.9168 13.1042 2.61584C18.2381 0 24.9587 0 38.4 0H347.6C361.041 0 367.762 0 372.896 2.61584C377.412 4.9168 381.083 8.58834 383.384 13.1042C386 18.2381 386 24.9587 386 38.4V145.6C386 159.041 386 165.762 383.384 170.896C381.083 175.412 377.412 179.083 372.896 181.384C367.762 184 361.041 184 347.6 184H38.4C24.9587 184 18.2381 184 13.1042 181.384C8.58834 179.083 4.9168 175.412 2.61584 170.896C0 165.762 0 159.041 0 145.6V38.4Z" fill="white" style="fill:white;fill-opacity:1;"/>
<rect x="16" y="18" width="24" height="24" rx="4" fill="#16B8A4" style="fill:#16B8A4;fill:color(display-p3 0.0863 0.7216 0.6431);fill-opacity:1;"/>
<mask id="mask0_1567_51284" style="mask-type:alpha" maskUnits="userSpaceOnUse" x="16" y="18" width="24" height="24">
<rect x="16" y="18" width="24" height="24" fill="#D9D9D9" style="fill:#D9D9D9;fill:color(display-p3 0.8510 0.8510 0.8510);fill-opacity:1;"/>
</mask>
<g mask="url(#mask0_1567_51284)">
<path d="M26 31.375C25.4333 31.375 24.9583 31.179 24.575 30.787C24.1917 30.3957 24 29.925 24 29.375C24 28.925 24.104 28.5917 24.312 28.375C24.5207 28.1583 24.65 27.875 24.7 27.525C24.6833 27.325 24.646 27.1333 24.588 26.95C24.5293 26.7667 24.5 26.575 24.5 26.375C24.5 25.9417 24.6167 25.5583 24.85 25.225C25.0833 24.8917 25.45 24.625 25.95 24.425C26.2 24.1583 26.475 23.9167 26.775 23.7C27.075 23.4833 27.4833 23.375 28 23.375C28.55 23.375 28.9667 23.4917 29.25 23.725C29.5333 23.9583 29.8 24.1917 30.05 24.425C30.55 24.625 30.9167 24.8917 31.15 25.225C31.3833 25.5583 31.5 25.9417 31.5 26.375C31.5 26.575 31.471 26.7667 31.413 26.95C31.3543 27.1333 31.3167 27.325 31.3 27.525C31.35 27.875 31.4793 28.1583 31.688 28.375C31.896 28.5917 32 28.925 32 29.375C32 29.925 31.8083 30.3957 31.425 30.787C31.0417 31.179 30.5667 31.375 30 31.375H26ZM26 30.375H30C30.2833 30.375 30.521 30.275 30.713 30.075C30.9043 29.875 31 29.6417 31 29.375C31 29.2583 30.9793 29.15 30.938 29.05C30.896 28.95 30.8333 28.85 30.75 28.75C30.5667 28.5333 30.446 28.3207 30.388 28.112C30.3293 27.904 30.3 27.7083 30.3 27.525C30.3 27.2583 30.3333 27.029 30.4 26.837C30.4667 26.6457 30.5 26.4917 30.5 26.375C30.5 26.175 30.4417 25.9917 30.325 25.825C30.2083 25.6583 30.0583 25.5333 29.875 25.45C29.725 25.3833 29.5877 25.3083 29.463 25.225C29.3377 25.1417 29.225 25.0333 29.125 24.9C29.0417 24.8 28.9043 24.6873 28.713 24.562C28.521 24.4373 28.2833 24.375 28 24.375C27.7167 24.375 27.4793 24.4417 27.288 24.575C27.096 24.7083 26.9583 24.825 26.875 24.925C26.775 25.0417 26.6627 25.1417 26.538 25.225C26.4127 25.3083 26.275 25.3833 26.125 25.45C25.9417 25.5333 25.7917 25.6583 25.675 25.825C25.5583 25.9917 25.5 26.175 25.5 26.375C25.5 26.4917 25.5333 26.6457 25.6 26.837C25.6667 27.029 25.7 27.2583 25.7 27.525C25.7 27.7083 25.671 27.904 25.613 28.112C25.5543 28.3207 25.4333 28.5333 25.25 28.75C25.1667 28.85 25.104 28.95 25.062 29.05C25.0207 29.15 25 29.2583 25 29.375C25 29.6417 25.096 29.875 25.288 30.075C25.4793 30.275 25.7167 30.375 26 30.375ZM21 38.625V36.975C21 36.5583 21.121 36.1707 21.363 35.812C21.6043 35.454 21.925 35.175 22.325 34.975C23.275 34.525 24.221 34.1877 25.163 33.963C26.1043 33.7377 27.05 33.625 28 33.625C28.95 33.625 29.896 33.7377 30.838 33.963C31.7793 34.1877 32.725 34.525 33.675 34.975C34.075 35.175 34.396 35.454 34.638 35.812C34.8793 36.1707 35 36.5583 35 36.975V38.625H21ZM22 37.625H34V36.975C34 36.7417 33.9293 36.529 33.788 36.337C33.646 36.1457 33.45 35.9833 33.2 35.85C32.3667 35.45 31.5127 35.146 30.638 34.938C29.7627 34.7293 28.8833 34.625 28 34.625C27.1167 34.625 26.2377 34.7293 25.363 34.938C24.4877 35.146 23.6333 35.45 22.8 35.85C22.55 35.9833 22.3543 36.1457 22.213 36.337C22.071 36.529 22 36.7417 22 36.975V37.625Z" fill="white" style="fill:white;fill-opacity:1;"/>
<path d="M26 30.375H30C30.2833 30.375 30.521 30.275 30.713 30.075C30.9043 29.875 31 29.6417 31 29.375C31 29.2583 30.9793 29.15 30.938 29.05C30.896 28.95 30.8333 28.85 30.75 28.75C30.5667 28.5333 30.446 28.3207 30.388 28.112C30.3293 27.904 30.3 27.7083 30.3 27.525C30.3 27.2583 30.3333 27.029 30.4 26.837C30.4667 26.6457 30.5 26.4917 30.5 26.375C30.5 26.175 30.4417 25.9917 30.325 25.825C30.2083 25.6583 30.0583 25.5333 29.875 25.45C29.725 25.3833 29.5877 25.3083 29.463 25.225C29.3377 25.1417 29.225 25.0333 29.125 24.9C29.0417 24.8 28.9043 24.6873 28.713 24.562C28.521 24.4373 28.2833 24.375 28 24.375C27.7167 24.375 27.4793 24.4417 27.288 24.575C27.096 24.7083 26.9583 24.825 26.875 24.925C26.775 25.0417 26.6627 25.1417 26.538 25.225C26.4127 25.3083 26.275 25.3833 26.125 25.45C25.9417 25.5333 25.7917 25.6583 25.675 25.825C25.5583 25.9917 25.5 26.175 25.5 26.375C25.5 26.4917 25.5333 26.6457 25.6 26.837C25.6667 27.029 25.7 27.2583 25.7 27.525C25.7 27.7083 25.671 27.904 25.613 28.112C25.5543 28.3207 25.4333 28.5333 25.25 28.75C25.1667 28.85 25.104 28.95 25.062 29.05C25.0207 29.15 25 29.2583 25 29.375C25 29.6417 25.096 29.875 25.288 30.075C25.4793 30.275 25.7167 30.375 26 30.375Z" fill="white" style="fill:white;fill-opacity:1;"/>
<path d="M22 37.625H34V36.975C34 36.7417 33.9293 36.529 33.788 36.337C33.646 36.1457 33.45 35.9833 33.2 35.85C32.3667 35.45 31.5127 35.146 30.638 34.938C29.7627 34.7293 28.8833 34.625 28 34.625C27.1167 34.625 26.2377 34.7293 25.363 34.938C24.4877 35.146 23.6333 35.45 22.8 35.85C22.55 35.9833 22.3543 36.1457 22.213 36.337C22.071 36.529 22 36.7417 22 36.975V37.625Z" fill="white" style="fill:white;fill-opacity:1;"/>
</g>
<path d="M48.4283 37V34.7756L48.799 34.7436C49.2763 34.7053 49.6619 34.5241 49.956 34.2003C50.25 33.8722 50.4695 33.3501 50.6143 32.6342C50.7635 31.9141 50.8594 30.9467 50.902 29.7322L51.1193 23.9091H60.0043V37H57.3132V26.1271H53.6889L53.4844 30.6847C53.4162 32.1506 53.2415 33.348 52.9602 34.277C52.6832 35.206 52.2401 35.892 51.6307 36.3352C51.0256 36.7784 50.1967 37 49.1442 37H48.4283ZM73.8366 28.4922H71.0369C70.9858 28.13 70.8814 27.8082 70.7237 27.527C70.5661 27.2415 70.3636 26.9986 70.1165 26.7983C69.8693 26.598 69.5838 26.4446 69.2599 26.3381C68.9403 26.2315 68.593 26.1783 68.218 26.1783C67.5405 26.1783 66.9503 26.3466 66.4474 26.6832C65.9446 27.0156 65.5547 27.5014 65.2777 28.1406C65.0007 28.7756 64.8622 29.5469 64.8622 30.4545C64.8622 31.3878 65.0007 32.1719 65.2777 32.8068C65.5589 33.4418 65.951 33.9212 66.4538 34.245C66.9567 34.5689 67.5384 34.7308 68.1989 34.7308C68.5696 34.7308 68.9126 34.6818 69.228 34.5838C69.5476 34.4858 69.831 34.343 70.0781 34.1555C70.3253 33.9638 70.5298 33.7315 70.6918 33.4588C70.858 33.1861 70.973 32.875 71.0369 32.5256L73.8366 32.5384C73.7642 33.1392 73.5831 33.7188 73.2933 34.277C73.0078 34.831 72.6222 35.3274 72.1364 35.7663C71.6548 36.201 71.0795 36.5462 70.4105 36.8018C69.7457 37.0533 68.9936 37.179 68.1541 37.179C66.9865 37.179 65.9425 36.9148 65.022 36.3864C64.1058 35.858 63.3814 35.093 62.8487 34.0916C62.3203 33.0902 62.0561 31.8778 62.0561 30.4545C62.0561 29.027 62.3246 27.8125 62.8615 26.8111C63.3984 25.8097 64.1271 25.0469 65.0476 24.5227C65.968 23.9943 67.0036 23.7301 68.1541 23.7301C68.9126 23.7301 69.6158 23.8366 70.2635 24.0497C70.9155 24.2628 71.4929 24.5739 71.9957 24.983C72.4986 25.3878 72.9077 25.8842 73.223 26.4723C73.5426 27.0604 73.7472 27.7337 73.8366 28.4922ZM81.8874 29.3743V31.5348H75.9173V29.3743H81.8874ZM89.2063 37.179C88.533 37.1747 87.8832 37.0618 87.2567 36.8402C86.6346 36.6186 86.0763 36.2585 85.582 35.7599C85.0877 35.2614 84.6957 34.6009 84.4059 33.7784C84.1204 32.956 83.9776 31.946 83.9776 30.7486C83.9819 29.6491 84.1076 28.6669 84.3548 27.8018C84.6062 26.9325 84.9641 26.1953 85.4286 25.5902C85.8974 24.9851 86.4577 24.5249 87.1097 24.2095C87.7617 23.8899 88.4925 23.7301 89.3022 23.7301C90.1758 23.7301 90.9471 23.9006 91.6161 24.2415C92.2852 24.5781 92.8221 25.0362 93.2269 25.6158C93.636 26.1953 93.8832 26.8452 93.9684 27.5653H91.239C91.1325 27.1094 90.9087 26.7514 90.5678 26.4915C90.2269 26.2315 89.805 26.1016 89.3022 26.1016C88.4499 26.1016 87.8022 26.4723 87.359 27.2138C86.9201 27.9553 86.6964 28.9631 86.6879 30.2372H86.7773C86.9734 29.8494 87.2376 29.5192 87.57 29.2464C87.9066 28.9695 88.288 28.7585 88.7141 28.6136C89.1445 28.4645 89.5984 28.3899 90.0756 28.3899C90.8512 28.3899 91.5415 28.5732 92.1467 28.9396C92.7518 29.3018 93.229 29.8004 93.5785 30.4354C93.9279 31.0703 94.1026 31.7969 94.1026 32.6151C94.1026 33.5014 93.896 34.2898 93.4826 34.9801C93.0735 35.6705 92.5004 36.2116 91.7631 36.6037C91.0302 36.9915 90.1779 37.1832 89.2063 37.179ZM89.1935 35.0057C89.6197 35.0057 90.0011 34.9034 90.3377 34.6989C90.6744 34.4943 90.9386 34.2173 91.1303 33.8679C91.3221 33.5185 91.418 33.1264 91.418 32.6918C91.418 32.2571 91.3221 31.8672 91.1303 31.522C90.9428 31.1768 90.6829 30.902 90.3505 30.6974C90.0181 30.4929 89.6388 30.3906 89.2127 30.3906C88.8931 30.3906 88.5969 30.4503 88.3242 30.5696C88.0558 30.6889 87.8192 30.8551 87.6147 31.0682C87.4144 31.2812 87.2567 31.5284 87.1417 31.8097C87.0266 32.0866 86.9691 32.3828 86.9691 32.6982C86.9691 33.12 87.065 33.5057 87.2567 33.8551C87.4528 34.2045 87.717 34.4837 88.0494 34.6925C88.386 34.9013 88.7674 35.0057 89.1935 35.0057ZM101.76 23.9091V37H98.9925V26.5362H98.9158L95.918 28.4155V25.9609L99.1587 23.9091H101.76ZM110.599 23.2955L106.38 38.9688H104.034L108.253 23.2955H110.599ZM117.018 37.2876C115.919 37.2834 114.973 37.0128 114.18 36.4759C113.392 35.9389 112.784 35.1612 112.358 34.1428C111.936 33.1243 111.728 31.8991 111.732 30.4673C111.732 29.0398 111.943 27.8232 112.365 26.8175C112.791 25.8118 113.398 25.0469 114.186 24.5227C114.979 23.9943 115.923 23.7301 117.018 23.7301C118.113 23.7301 119.055 23.9943 119.843 24.5227C120.636 25.0511 121.245 25.8182 121.672 26.8239C122.098 27.8253 122.309 29.0398 122.304 30.4673C122.304 31.9034 122.091 33.1307 121.665 34.1491C121.243 35.1676 120.638 35.9453 119.85 36.4822C119.061 37.0192 118.118 37.2876 117.018 37.2876ZM117.018 34.9929C117.768 34.9929 118.367 34.6158 118.814 33.8615C119.262 33.1072 119.483 31.9759 119.479 30.4673C119.479 29.4744 119.377 28.6477 119.172 27.9872C118.972 27.3267 118.686 26.8303 118.316 26.4979C117.949 26.1655 117.517 25.9993 117.018 25.9993C116.272 25.9993 115.676 26.3722 115.228 27.1179C114.781 27.8636 114.555 28.9801 114.551 30.4673C114.551 31.473 114.651 32.3125 114.851 32.9858C115.056 33.6548 115.343 34.1577 115.714 34.4943C116.085 34.8267 116.52 34.9929 117.018 34.9929ZM129.117 37.179C128.162 37.179 127.312 37.0149 126.566 36.6868C125.825 36.3544 125.239 35.8984 124.808 35.3189C124.382 34.7351 124.163 34.0618 124.15 33.299H126.937C126.954 33.6186 127.058 33.8999 127.25 34.1428C127.446 34.3814 127.706 34.5668 128.03 34.6989C128.354 34.831 128.718 34.897 129.123 34.897C129.545 34.897 129.918 34.8224 130.242 34.6733C130.566 34.5241 130.819 34.3175 131.002 34.0533C131.186 33.7891 131.277 33.4844 131.277 33.1392C131.277 32.7898 131.179 32.4808 130.983 32.2124C130.791 31.9396 130.514 31.7266 130.152 31.5732C129.794 31.4197 129.368 31.343 128.874 31.343H127.653V29.3104H128.874C129.291 29.3104 129.66 29.2379 129.98 29.093C130.303 28.9482 130.555 28.7479 130.734 28.4922C130.913 28.2322 131.002 27.9297 131.002 27.5845C131.002 27.2564 130.923 26.9688 130.766 26.7216C130.612 26.4702 130.395 26.2741 130.114 26.1335C129.837 25.9929 129.513 25.9226 129.142 25.9226C128.767 25.9226 128.424 25.9908 128.113 26.1271C127.802 26.2592 127.553 26.4489 127.365 26.696C127.178 26.9432 127.078 27.233 127.065 27.5653H124.412C124.425 26.8111 124.64 26.1463 125.058 25.571C125.475 24.9957 126.038 24.5462 126.745 24.2223C127.457 23.8942 128.26 23.7301 129.155 23.7301C130.058 23.7301 130.849 23.8942 131.526 24.2223C132.204 24.5504 132.73 24.9936 133.105 25.5518C133.485 26.1058 133.672 26.728 133.668 27.4183C133.672 28.1513 133.444 28.7628 132.984 29.2528C132.528 29.7429 131.933 30.054 131.2 30.1861V30.2884C132.164 30.4119 132.896 30.7464 133.399 31.2919C133.906 31.8331 134.158 32.5107 134.154 33.3246C134.158 34.0703 133.943 34.733 133.508 35.3125C133.078 35.892 132.483 36.348 131.725 36.6804C130.966 37.0128 130.097 37.179 129.117 37.179ZM141.167 37.179C140.494 37.1747 139.844 37.0618 139.218 36.8402C138.596 36.6186 138.037 36.2585 137.543 35.7599C137.049 35.2614 136.657 34.6009 136.367 33.7784C136.081 32.956 135.939 31.946 135.939 30.7486C135.943 29.6491 136.069 28.6669 136.316 27.8018C136.567 26.9325 136.925 26.1953 137.39 25.5902C137.858 24.9851 138.419 24.5249 139.071 24.2095C139.723 23.8899 140.453 23.7301 141.263 23.7301C142.137 23.7301 142.908 23.9006 143.577 24.2415C144.246 24.5781 144.783 25.0362 145.188 25.6158C145.597 26.1953 145.844 26.8452 145.929 27.5653H143.2C143.093 27.1094 142.87 26.7514 142.529 26.4915C142.188 26.2315 141.766 26.1016 141.263 26.1016C140.411 26.1016 139.763 26.4723 139.32 27.2138C138.881 27.9553 138.657 28.9631 138.649 30.2372H138.738C138.934 29.8494 139.199 29.5192 139.531 29.2464C139.868 28.9695 140.249 28.7585 140.675 28.6136C141.105 28.4645 141.559 28.3899 142.037 28.3899C142.812 28.3899 143.502 28.5732 144.108 28.9396C144.713 29.3018 145.19 29.8004 145.539 30.4354C145.889 31.0703 146.064 31.7969 146.064 32.6151C146.064 33.5014 145.857 34.2898 145.444 34.9801C145.034 35.6705 144.461 36.2116 143.724 36.6037C142.991 36.9915 142.139 37.1832 141.167 37.179ZM141.154 35.0057C141.581 35.0057 141.962 34.9034 142.299 34.6989C142.635 34.4943 142.9 34.2173 143.091 33.8679C143.283 33.5185 143.379 33.1264 143.379 32.6918C143.379 32.2571 143.283 31.8672 143.091 31.522C142.904 31.1768 142.644 30.902 142.311 30.6974C141.979 30.4929 141.6 30.3906 141.174 30.3906C140.854 30.3906 140.558 30.4503 140.285 30.5696C140.017 30.6889 139.78 30.8551 139.576 31.0682C139.375 31.2812 139.218 31.5284 139.103 31.8097C138.988 32.0866 138.93 32.3828 138.93 32.6982C138.93 33.12 139.026 33.5057 139.218 33.8551C139.414 34.2045 139.678 34.4837 140.01 34.6925C140.347 34.9013 140.728 35.0057 141.154 35.0057ZM154.169 29.3743V31.5348H148.199V29.3743H154.169ZM161.596 37.2876C160.497 37.2834 159.551 37.0128 158.758 36.4759C157.97 35.9389 157.363 35.1612 156.936 34.1428C156.515 33.1243 156.306 31.8991 156.31 30.4673C156.31 29.0398 156.521 27.8232 156.943 26.8175C157.369 25.8118 157.976 25.0469 158.765 24.5227C159.557 23.9943 160.501 23.7301 161.596 23.7301C162.691 23.7301 163.633 23.9943 164.422 24.5227C165.214 25.0511 165.824 25.8182 166.25 26.8239C166.676 27.8253 166.887 29.0398 166.882 30.4673C166.882 31.9034 166.669 33.1307 166.243 34.1491C165.821 35.1676 165.216 35.9453 164.428 36.4822C163.64 37.0192 162.696 37.2876 161.596 37.2876ZM161.596 34.9929C162.346 34.9929 162.945 34.6158 163.392 33.8615C163.84 33.1072 164.061 31.9759 164.057 30.4673C164.057 29.4744 163.955 28.6477 163.75 27.9872C163.55 27.3267 163.265 26.8303 162.894 26.4979C162.527 26.1655 162.095 25.9993 161.596 25.9993C160.85 25.9993 160.254 26.3722 159.806 27.1179C159.359 27.8636 159.133 28.9801 159.129 30.4673C159.129 31.473 159.229 32.3125 159.429 32.9858C159.634 33.6548 159.922 34.1577 160.292 34.4943C160.663 34.8267 161.098 34.9929 161.596 34.9929ZM173.637 37.179C172.734 37.179 171.928 37.0128 171.221 36.6804C170.518 36.348 169.96 35.8899 169.546 35.3061C169.133 34.7223 168.918 34.0533 168.901 33.299H171.585C171.615 33.8061 171.828 34.2173 172.225 34.5327C172.621 34.848 173.092 35.0057 173.637 35.0057C174.072 35.0057 174.455 34.9098 174.788 34.718C175.124 34.522 175.387 34.2514 175.574 33.9062C175.766 33.5568 175.862 33.1562 175.862 32.7045C175.862 32.2443 175.764 31.8395 175.568 31.4901C175.376 31.1406 175.11 30.8679 174.769 30.6719C174.428 30.4759 174.038 30.3757 173.599 30.3714C173.215 30.3714 172.843 30.4503 172.48 30.608C172.122 30.7656 171.843 30.9808 171.643 31.2536L169.182 30.8125L169.802 23.9091H177.805V26.1719H172.084L171.745 29.451H171.822C172.052 29.1271 172.399 28.8587 172.864 28.6456C173.328 28.4325 173.848 28.326 174.423 28.326C175.212 28.326 175.915 28.5114 176.533 28.8821C177.151 29.2528 177.639 29.7621 177.997 30.4098C178.355 31.0533 178.531 31.7947 178.527 32.6342C178.531 33.5163 178.327 34.3004 177.914 34.9865C177.504 35.6683 176.931 36.2053 176.194 36.5973C175.461 36.9851 174.609 37.179 173.637 37.179ZM186.6 29.3743V31.5348H180.63V29.3743H186.6ZM194.028 37.2876C192.928 37.2834 191.982 37.0128 191.19 36.4759C190.401 35.9389 189.794 35.1612 189.368 34.1428C188.946 33.1243 188.737 31.8991 188.742 30.4673C188.742 29.0398 188.953 27.8232 189.374 26.8175C189.801 25.8118 190.408 25.0469 191.196 24.5227C191.989 23.9943 192.933 23.7301 194.028 23.7301C195.123 23.7301 196.065 23.9943 196.853 24.5227C197.646 25.0511 198.255 25.8182 198.681 26.8239C199.107 27.8253 199.318 29.0398 199.314 30.4673C199.314 31.9034 199.101 33.1307 198.675 34.1491C198.253 35.1676 197.648 35.9453 196.86 36.4822C196.071 37.0192 195.127 37.2876 194.028 37.2876ZM194.028 34.9929C194.778 34.9929 195.377 34.6158 195.824 33.8615C196.271 33.1072 196.493 31.9759 196.489 30.4673C196.489 29.4744 196.387 28.6477 196.182 27.9872C195.982 27.3267 195.696 26.8303 195.325 26.4979C194.959 26.1655 194.526 25.9993 194.028 25.9993C193.282 25.9993 192.686 26.3722 192.238 27.1179C191.791 27.8636 191.565 28.9801 191.561 30.4673C191.561 31.473 191.661 32.3125 191.861 32.9858C192.066 33.6548 192.353 34.1577 192.724 34.4943C193.095 34.8267 193.529 34.9929 194.028 34.9929ZM201.288 37V35.0057L205.947 30.6911C206.344 30.3075 206.676 29.9624 206.945 29.6555C207.217 29.3487 207.424 29.0483 207.565 28.7543C207.705 28.456 207.776 28.1342 207.776 27.7891C207.776 27.4055 207.688 27.0753 207.513 26.7983C207.339 26.517 207.1 26.3018 206.798 26.1527C206.495 25.9993 206.152 25.9226 205.768 25.9226C205.368 25.9226 205.018 26.0036 204.72 26.1655C204.422 26.3274 204.192 26.5597 204.03 26.8622C203.868 27.1648 203.787 27.5249 203.787 27.9425H201.16C201.16 27.0859 201.354 26.3423 201.741 25.7116C202.129 25.081 202.673 24.593 203.371 24.2479C204.07 23.9027 204.876 23.7301 205.788 23.7301C206.725 23.7301 207.541 23.8963 208.236 24.2287C208.935 24.5568 209.478 25.0128 209.866 25.5966C210.254 26.1804 210.447 26.8494 210.447 27.6037C210.447 28.098 210.349 28.5859 210.153 29.0675C209.962 29.549 209.619 30.0838 209.124 30.6719C208.63 31.2557 207.933 31.9567 207.034 32.7749L205.123 34.6477V34.7372H210.62V37H201.288ZM218.768 29.3743V31.5348H212.798V29.3743H218.768ZM226.758 23.9091V37H223.991V26.5362H223.914L220.916 28.4155V25.9609L224.157 23.9091H226.758ZM234.753 37.179C233.769 37.179 232.893 37.0192 232.126 36.6996C231.363 36.3757 230.765 35.9347 230.33 35.3764C229.895 34.8182 229.678 34.1854 229.678 33.478C229.678 32.9325 229.801 32.4318 230.049 31.9759C230.3 31.5156 230.641 31.1342 231.071 30.8317C231.502 30.5249 231.983 30.3288 232.516 30.2436V30.1541C231.817 30.0135 231.25 29.6747 230.816 29.1378C230.381 28.5966 230.164 27.968 230.164 27.2521C230.164 26.5746 230.362 25.9716 230.758 25.4432C231.154 24.9105 231.698 24.4929 232.388 24.1903C233.083 23.8835 233.871 23.7301 234.753 23.7301C235.635 23.7301 236.422 23.8835 237.112 24.1903C237.806 24.4972 238.352 24.9169 238.748 25.4496C239.145 25.978 239.345 26.5788 239.349 27.2521C239.345 27.9723 239.123 28.6009 238.684 29.1378C238.245 29.6747 237.683 30.0135 236.997 30.1541V30.2436C237.521 30.3288 237.996 30.5249 238.422 30.8317C238.853 31.1342 239.194 31.5156 239.445 31.9759C239.701 32.4318 239.831 32.9325 239.835 33.478C239.831 34.1854 239.611 34.8182 239.176 35.3764C238.742 35.9347 238.141 36.3757 237.374 36.6996C236.611 37.0192 235.738 37.179 234.753 37.179ZM234.753 35.1463C235.192 35.1463 235.576 35.0675 235.904 34.9098C236.232 34.7479 236.488 34.5263 236.671 34.245C236.858 33.9595 236.952 33.6314 236.952 33.2607C236.952 32.8814 236.856 32.5469 236.664 32.2571C236.473 31.9631 236.213 31.733 235.885 31.5668C235.556 31.3963 235.179 31.3111 234.753 31.3111C234.331 31.3111 233.954 31.3963 233.622 31.5668C233.289 31.733 233.027 31.9631 232.836 32.2571C232.648 32.5469 232.554 32.8814 232.554 33.2607C232.554 33.6314 232.646 33.9595 232.829 34.245C233.012 34.5263 233.27 34.7479 233.603 34.9098C233.935 35.0675 234.319 35.1463 234.753 35.1463ZM234.753 29.2976C235.12 29.2976 235.446 29.223 235.731 29.0739C236.017 28.9247 236.24 28.718 236.402 28.4538C236.564 28.1896 236.645 27.8849 236.645 27.5398C236.645 27.1989 236.564 26.9006 236.402 26.6449C236.24 26.3849 236.019 26.1825 235.738 26.0376C235.456 25.8885 235.128 25.8139 234.753 25.8139C234.382 25.8139 234.054 25.8885 233.769 26.0376C233.483 26.1825 233.26 26.3849 233.098 26.6449C232.94 26.9006 232.861 27.1989 232.861 27.5398C232.861 27.8849 232.942 28.1896 233.104 28.4538C233.266 28.718 233.49 28.9247 233.775 29.0739C234.061 29.223 234.387 29.2976 234.753 29.2976Z" fill="#221E1E" style="fill:#221E1E;fill:color(display-p3 0.1333 0.1183 0.1183);fill-opacity:1;"/>
<mask id="mask1_1567_51284" style="mask-type:alpha" maskUnits="userSpaceOnUse" x="348" y="18" width="24" height="24">
<rect x="348" y="18" width="24" height="24" fill="#D9D9D9" style="fill:#D9D9D9;fill:color(display-p3 0.8510 0.8510 0.8510);fill-opacity:1;"/>
</mask>
<g mask="url(#mask1_1567_51284)">
<path d="M362.1 35.3L361.4 34.6L365.475 30.5H352.6V29.5H365.475L361.4 25.4L362.1 24.7L367.4 30L362.1 35.3Z" fill="black" fill-opacity="0.76" style="fill:black;fill-opacity:0.76;"/>
</g>
<mask id="mask2_1567_51284" style="mask-type:alpha" maskUnits="userSpaceOnUse" x="16" y="66" width="24" height="24">
<rect x="16" y="66" width="24" height="24" fill="#D9D9D9" style="fill:#D9D9D9;fill:color(display-p3 0.8510 0.8510 0.8510);fill-opacity:1;"/>
</mask>
<g mask="url(#mask2_1567_51284)">
<path d="M23.5 86V83.2H21.5V82.2H23.5V79.45H21.5V78.45H23.5V70H29.775C31.0917 70 32.2083 70.4583 33.125 71.375C34.0417 72.2917 34.5 73.4083 34.5 74.725C34.5 76.0417 34.0417 77.1583 33.125 78.075C32.2083 78.9917 31.0917 79.45 29.775 79.45H24.5V82.2H28.5V83.2H24.5V86H23.5ZM24.5 78.45H29.775C30.8083 78.45 31.6877 78.0873 32.413 77.362C33.1377 76.6373 33.5 75.7583 33.5 74.725C33.5 73.6917 33.1377 72.8127 32.413 72.088C31.6877 71.3627 30.8083 71 29.775 71H24.5V78.45Z" fill="black" fill-opacity="0.76" style="fill:black;fill-opacity:0.76;"/>
</g>
<path d="M49.1985 83V72.0909H56.0007V73.5078H50.8445V76.4908H53.2841C54.0938 76.4908 54.7809 76.6222 55.3455 76.8849C55.9137 77.1477 56.3469 77.5188 56.6452 77.9982C56.9471 78.4776 57.098 79.0423 57.098 79.6921C57.098 80.342 56.9471 80.9155 56.6452 81.4126C56.3469 81.9098 55.9137 82.2987 55.3455 82.5792C54.7809 82.8597 54.0938 83 53.2841 83H49.1985ZM50.8445 81.6151H53.2841C53.7528 81.6151 54.1488 81.5227 54.4719 81.3381C54.7987 81.1534 55.0455 80.9137 55.2124 80.619C55.3828 80.3242 55.468 80.0082 55.468 79.6708C55.468 79.1808 55.2798 78.7599 54.9034 78.4084C54.527 78.0533 53.9872 77.8757 53.2841 77.8757H50.8445V81.6151ZM61.1455 83.1811C60.627 83.1811 60.1582 83.0852 59.7392 82.8935C59.3202 82.6982 58.9881 82.4158 58.7431 82.0465C58.5016 81.6772 58.3809 81.2244 58.3809 80.6882C58.3809 80.2266 58.4697 79.8466 58.6472 79.5483C58.8248 79.25 59.0645 79.0138 59.3663 78.8398C59.6682 78.6658 60.0055 78.5344 60.3784 78.4457C60.7513 78.3569 61.1313 78.2894 61.5183 78.2433C62.0084 78.1864 62.4061 78.1403 62.7115 78.1048C63.0169 78.0657 63.2389 78.0036 63.3773 77.9183C63.5158 77.8331 63.5851 77.6946 63.5851 77.5028V77.4656C63.5851 77.0004 63.4537 76.6399 63.1909 76.3842C62.9317 76.1286 62.5446 76.0007 62.0297 76.0007C61.4935 76.0007 61.0709 76.1197 60.7619 76.3576C60.4565 76.592 60.2452 76.853 60.1281 77.1406L58.6313 76.7997C58.8088 76.3026 59.068 75.9013 59.4089 75.5959C59.7534 75.2869 60.1494 75.0632 60.5968 74.9247C61.0442 74.7827 61.5148 74.7116 62.0084 74.7116C62.3351 74.7116 62.6813 74.7507 63.0471 74.8288C63.4164 74.9034 63.7609 75.0419 64.0805 75.2443C64.4036 75.4467 64.6682 75.7362 64.8741 76.1126C65.0801 76.4854 65.1831 76.9702 65.1831 77.5668V83H63.6277V81.8814H63.5638C63.4608 82.0874 63.3063 82.2898 63.1004 82.4886C62.8944 82.6875 62.6298 82.8526 62.3067 82.984C61.9835 83.1154 61.5964 83.1811 61.1455 83.1811ZM61.4917 81.9027C61.932 81.9027 62.3085 81.8157 62.621 81.6417C62.937 81.4677 63.1767 81.2404 63.3401 80.9599C63.507 80.6758 63.5904 80.3722 63.5904 80.049V78.9943C63.5336 79.0511 63.4235 79.1044 63.2602 79.1541C63.1004 79.2003 62.9175 79.2411 62.7115 79.2766C62.5055 79.3086 62.3049 79.3388 62.1096 79.3672C61.9143 79.392 61.7509 79.4134 61.6195 79.4311C61.3106 79.4702 61.0283 79.5359 60.7726 79.6282C60.5205 79.7205 60.318 79.8537 60.1653 80.0277C60.0162 80.1982 59.9416 80.4254 59.9416 80.7095C59.9416 81.1037 60.0872 81.402 60.3784 81.6044C60.6696 81.8033 61.0407 81.9027 61.4917 81.9027ZM66.5099 83L66.5046 81.6204H66.7976C67.0248 81.6204 67.2148 81.5724 67.3675 81.4766C67.5238 81.3771 67.6516 81.2102 67.751 80.9759C67.8505 80.7415 67.9268 80.4183 67.9801 80.0064C68.0334 79.5909 68.0724 79.0689 68.0973 78.4403L68.2411 74.8182H73.9513V83H72.3906V76.1925H69.7166L69.5888 78.973C69.5568 79.6477 69.4876 80.2372 69.381 80.7415C69.278 81.2457 69.1271 81.6665 68.9283 82.0039C68.7294 82.3377 68.4737 82.5881 68.1612 82.755C67.8487 82.9183 67.4687 83 67.0213 83H66.5099ZM78.3064 83.1811C77.7879 83.1811 77.3192 83.0852 76.9001 82.8935C76.4811 82.6982 76.1491 82.4158 75.904 82.0465C75.6626 81.6772 75.5418 81.2244 75.5418 80.6882C75.5418 80.2266 75.6306 79.8466 75.8082 79.5483C75.9857 79.25 76.2254 79.0138 76.5273 78.8398C76.8291 78.6658 77.1665 78.5344 77.5393 78.4457C77.9122 78.3569 78.2922 78.2894 78.6793 78.2433C79.1693 78.1864 79.567 78.1403 79.8724 78.1048C80.1778 78.0657 80.3998 78.0036 80.5383 77.9183C80.6768 77.8331 80.746 77.6946 80.746 77.5028V77.4656C80.746 77.0004 80.6146 76.6399 80.3518 76.3842C80.0926 76.1286 79.7055 76.0007 79.1906 76.0007C78.6544 76.0007 78.2318 76.1197 77.9229 76.3576C77.6175 76.592 77.4062 76.853 77.289 77.1406L75.7922 76.7997C75.9697 76.3026 76.229 75.9013 76.5699 75.5959C76.9143 75.2869 77.3103 75.0632 77.7577 74.9247C78.2052 74.7827 78.6757 74.7116 79.1693 74.7116C79.496 74.7116 79.8423 74.7507 80.208 74.8288C80.5773 74.9034 80.9218 75.0419 81.2414 75.2443C81.5646 75.4467 81.8291 75.7362 82.0351 76.1126C82.2411 76.4854 82.344 76.9702 82.344 77.5668V83H80.7886V81.8814H80.7247C80.6217 82.0874 80.4673 82.2898 80.2613 82.4886C80.0553 82.6875 79.7908 82.8526 79.4676 82.984C79.1445 83.1154 78.7574 83.1811 78.3064 83.1811ZM78.6526 81.9027C79.093 81.9027 79.4694 81.8157 79.7819 81.6417C80.0979 81.4677 80.3376 81.2404 80.501 80.9599C80.6679 80.6758 80.7513 80.3722 80.7513 80.049V78.9943C80.6945 79.0511 80.5844 79.1044 80.4211 79.1541C80.2613 79.2003 80.0784 79.2411 79.8724 79.2766C79.6665 79.3086 79.4658 79.3388 79.2705 79.3672C79.0752 79.392 78.9119 79.4134 78.7805 79.4311C78.4715 79.4702 78.1892 79.5359 77.9335 79.6282C77.6814 79.7205 77.479 79.8537 77.3263 80.0277C77.1771 80.1982 77.1026 80.4254 77.1026 80.7095C77.1026 81.1037 77.2482 81.402 77.5393 81.6044C77.8305 81.8033 78.2016 81.9027 78.6526 81.9027ZM89.8605 78.2219V79.6016H85.4287V78.2219H89.8605ZM85.8761 74.8182V83H84.3154V74.8182H85.8761ZM90.9738 74.8182V83H89.4184V74.8182H90.9738ZM96.4008 83.1651C95.6089 83.1651 94.9271 82.9858 94.3554 82.6271C93.7872 82.2649 93.3504 81.766 93.045 81.1303C92.7396 80.4947 92.5869 79.7667 92.5869 78.9464C92.5869 78.1154 92.7432 77.3821 93.0557 76.7464C93.3682 76.1072 93.8085 75.6083 94.3767 75.2496C94.9449 74.891 95.6143 74.7116 96.3849 74.7116C97.0063 74.7116 97.5603 74.8271 98.0468 75.0579C98.5333 75.2852 98.9257 75.6048 99.224 76.0167C99.5258 76.4286 99.7052 76.9098 99.762 77.4602H98.2119C98.1267 77.0767 97.9314 76.7464 97.626 76.4695C97.3241 76.1925 96.9193 76.054 96.4115 76.054C95.9676 76.054 95.5787 76.1712 95.2449 76.4055C94.9147 76.6364 94.6572 76.9666 94.4726 77.3963C94.2879 77.8224 94.1956 78.3267 94.1956 78.9091C94.1956 79.5057 94.2861 80.0206 94.4672 80.4538C94.6483 80.8871 94.904 81.2227 95.2343 81.4606C95.5681 81.6985 95.9605 81.8175 96.4115 81.8175C96.7133 81.8175 96.9868 81.7624 97.2318 81.6523C97.4804 81.5387 97.6881 81.3771 97.855 81.1676C98.0255 80.9581 98.1444 80.706 98.2119 80.4112H99.762C99.7052 80.9403 99.5329 81.4126 99.2453 81.8281C98.9577 82.2436 98.5724 82.5703 98.0894 82.8082C97.61 83.0462 97.0471 83.1651 96.4008 83.1651Z" fill="#221E1E" style="fill:#221E1E;fill:color(display-p3 0.1333 0.1183 0.1183);fill-opacity:1;"/>
<path d="M109.219 80.342C108.906 80.342 108.622 80.2674 108.366 80.1183C108.111 79.9656 107.907 79.7614 107.754 79.5057C107.605 79.2464 107.53 78.9624 107.53 78.6534C107.53 78.3409 107.605 78.0568 107.754 77.8011C107.907 77.5455 108.111 77.343 108.366 77.1939C108.622 77.0412 108.906 76.9648 109.219 76.9648C109.528 76.9648 109.81 77.0412 110.066 77.1939C110.325 77.343 110.531 77.5455 110.684 77.8011C110.836 78.0568 110.911 78.3409 110.907 78.6534C110.907 78.9624 110.831 79.2464 110.678 79.5057C110.526 79.7614 110.321 79.9656 110.066 80.1183C109.81 80.2674 109.528 80.342 109.219 80.342Z" fill="#918F8F" style="fill:#918F8F;fill:color(display-p3 0.5686 0.5608 0.5608);fill-opacity:1;"/>
<path d="M122.65 83.1491C121.983 83.1491 121.382 83.0213 120.85 82.7656C120.321 82.5064 119.898 82.1513 119.582 81.7003C119.266 81.2493 119.097 80.7344 119.076 80.1555H120.674C120.713 80.6243 120.921 81.0096 121.297 81.3114C121.674 81.6133 122.125 81.7642 122.65 81.7642C123.069 81.7642 123.44 81.6683 123.763 81.4766C124.09 81.2812 124.346 81.0131 124.531 80.6722C124.719 80.3313 124.813 79.9425 124.813 79.5057C124.813 79.0618 124.717 78.6658 124.525 78.3178C124.333 77.9698 124.069 77.6964 123.732 77.4975C123.398 77.2987 123.014 77.1974 122.581 77.1939C122.251 77.1939 121.919 77.2507 121.585 77.3643C121.251 77.478 120.981 77.6271 120.775 77.8118L119.268 77.5881L119.88 72.0909H125.878V73.5025H121.249L120.903 76.5547H120.967C121.18 76.3487 121.462 76.1765 121.814 76.038C122.169 75.8995 122.549 75.8303 122.954 75.8303C123.618 75.8303 124.209 75.9883 124.728 76.3043C125.25 76.6204 125.66 77.0518 125.958 77.5987C126.26 78.142 126.409 78.767 126.406 79.4737C126.409 80.1804 126.249 80.8107 125.926 81.3647C125.607 81.9187 125.163 82.3555 124.594 82.6751C124.03 82.9911 123.382 83.1491 122.65 83.1491ZM127.972 80.8693V79.5376L132.686 72.0909H133.736V74.0511H133.07L129.698 79.3885V79.4737H136.159V80.8693H127.972ZM133.144 83V80.4645L133.155 79.8572V72.0909H134.716V83H133.144ZM141.552 83.1491C140.788 83.1491 140.113 83.0178 139.528 82.755C138.945 82.4922 138.489 82.13 138.159 81.6683C137.828 81.2067 137.665 80.6811 137.668 80.0916C137.665 79.63 137.759 79.2056 137.951 78.8185C138.146 78.4279 138.411 78.103 138.744 77.8438C139.078 77.581 139.451 77.4141 139.863 77.343V77.2791C139.32 77.1477 138.885 76.8565 138.558 76.4055C138.231 75.9545 138.07 75.4361 138.073 74.8501C138.07 74.2926 138.217 73.7955 138.515 73.3587C138.817 72.9183 139.231 72.5721 139.757 72.32C140.282 72.0678 140.88 71.9418 141.552 71.9418C142.216 71.9418 142.809 72.0696 143.331 72.3253C143.856 72.5774 144.27 72.9237 144.572 73.364C144.874 73.8008 145.026 74.2962 145.03 74.8501C145.026 75.4361 144.86 75.9545 144.529 76.4055C144.199 76.8565 143.769 77.1477 143.24 77.2791V77.343C143.649 77.4141 144.016 77.581 144.343 77.8438C144.673 78.103 144.936 78.4279 145.131 78.8185C145.33 79.2056 145.431 79.63 145.435 80.0916C145.431 80.6811 145.264 81.2067 144.934 81.6683C144.604 82.13 144.146 82.4922 143.56 82.755C142.977 83.0178 142.308 83.1491 141.552 83.1491ZM141.552 81.8015C142.003 81.8015 142.393 81.7269 142.724 81.5778C143.054 81.4251 143.309 81.2138 143.491 80.9439C143.672 80.6705 143.764 80.3509 143.768 79.9851C143.764 79.6051 143.665 79.2695 143.469 78.9783C143.278 78.6871 143.016 78.4581 142.686 78.2912C142.356 78.1243 141.978 78.0408 141.552 78.0408C141.122 78.0408 140.74 78.1243 140.406 78.2912C140.073 78.4581 139.81 78.6871 139.618 78.9783C139.426 79.2695 139.332 79.6051 139.336 79.9851C139.332 80.3509 139.419 80.6705 139.597 80.9439C139.778 81.2138 140.035 81.4251 140.369 81.5778C140.703 81.7269 141.097 81.8015 141.552 81.8015ZM141.552 76.7251C141.914 76.7251 142.235 76.6523 142.516 76.5067C142.796 76.3612 143.016 76.1587 143.176 75.8995C143.34 75.6403 143.423 75.3366 143.427 74.9886C143.423 74.6477 143.341 74.3494 143.182 74.0938C143.025 73.8381 142.807 73.641 142.526 73.5025C142.246 73.3604 141.921 73.2894 141.552 73.2894C141.175 73.2894 140.845 73.3604 140.561 73.5025C140.28 73.641 140.062 73.8381 139.906 74.0938C139.749 74.3494 139.673 74.6477 139.677 74.9886C139.673 75.3366 139.751 75.6403 139.911 75.8995C140.071 76.1587 140.291 76.3612 140.572 76.5067C140.856 76.6523 141.182 76.7251 141.552 76.7251ZM156.196 78.728H150.565V77.3324H156.174C156.657 77.3324 157.057 77.2525 157.373 77.0927C157.689 76.9293 157.923 76.7056 158.076 76.4215C158.229 76.1339 158.305 75.8036 158.305 75.4308C158.305 75.0614 158.229 74.7312 158.076 74.44C157.923 74.1488 157.691 73.9197 157.378 73.7528C157.066 73.5824 156.672 73.4972 156.196 73.4972H153.873V83H152.233V72.0909H156.196C157.023 72.0909 157.714 72.2401 158.268 72.5384C158.825 72.8366 159.243 73.2379 159.52 73.7422C159.8 74.2464 159.94 74.8075 159.94 75.4254C159.94 76.0504 159.798 76.6133 159.514 77.114C159.234 77.6112 158.815 78.0053 158.257 78.2965C157.703 78.5842 157.016 78.728 156.196 78.728ZM156.276 79.6442V81.0451H150.565V79.6442H156.276Z" fill="#16B8A4" style="fill:#16B8A4;fill:color(display-p3 0.0863 0.7216 0.6431);fill-opacity:1;"/>
<mask id="mask3_1567_51284" style="mask-type:alpha" maskUnits="userSpaceOnUse" x="16" y="102" width="24" height="24">
<rect x="16" y="102" width="24" height="24" fill="#D9D9D9" style="fill:#D9D9D9;fill:color(display-p3 0.8510 0.8510 0.8510);fill-opacity:1;"/>
</mask>
<g mask="url(#mask3_1567_51284)">
<path d="M32 112.775C32.2 112.775 32.3793 112.696 32.538 112.537C32.696 112.379 32.775 112.2 32.775 112C32.775 111.8 32.696 111.621 32.538 111.462C32.3793 111.304 32.2 111.225 32 111.225C31.8 111.225 31.621 111.304 31.463 111.462C31.3043 111.621 31.225 111.8 31.225 112C31.225 112.2 31.3043 112.379 31.463 112.537C31.621 112.696 31.8 112.775 32 112.775ZM24 110.5H29V109.5H24V110.5ZM21.25 122C20.7667 120.267 20.3793 118.846 20.088 117.737C19.796 116.629 19.571 115.696 19.413 114.938C19.2543 114.179 19.146 113.546 19.088 113.037C19.0293 112.529 19 112.017 19 111.5C19 110.25 19.4373 109.187 20.312 108.312C21.1873 107.437 22.25 107 23.5 107H29C29.45 106.4 29.9793 105.917 30.588 105.55C31.196 105.183 31.8333 105 32.5 105C32.6333 105 32.75 105.05 32.85 105.15C32.95 105.25 33 105.367 33 105.5C33 105.533 32.996 105.567 32.988 105.6C32.9793 105.633 32.9667 105.667 32.95 105.7C32.8667 105.917 32.7873 106.162 32.712 106.437C32.6373 106.712 32.5583 107.092 32.475 107.575L35.4 110.5H37V115.75L34.375 116.6L32.75 122H29V120H25V122H21.25ZM22 121H24V119H30V121H32L33.55 115.85L36 115.025V111.5H35L31.5 108C31.5 107.7 31.525 107.379 31.575 107.037C31.625 106.696 31.7 106.392 31.8 106.125C31.35 106.242 30.9333 106.479 30.55 106.837C30.1667 107.196 29.875 107.583 29.675 108H23.5C22.5333 108 21.7083 108.342 21.025 109.025C20.3417 109.708 20 110.533 20 111.5C20 112.183 20.175 113.354 20.525 115.012C20.875 116.671 21.3667 118.667 22 121Z" fill="black" fill-opacity="0.76" style="fill:black;fill-opacity:0.76;"/>
</g>
<path d="M57.7266 108.091V119H56.0859V109.497H50.951V119H49.3104V108.091H57.7266ZM59.3211 119L59.3157 117.62H59.6087C59.836 117.62 60.026 117.572 60.1787 117.477C60.3349 117.377 60.4627 117.21 60.5622 116.976C60.6616 116.741 60.738 116.418 60.7912 116.006C60.8445 115.591 60.8836 115.069 60.9084 114.44L61.0522 110.818H66.7625V119H65.2017V112.192H62.5277L62.3999 114.973C62.3679 115.648 62.2987 116.237 62.1922 116.741C62.0892 117.246 61.9382 117.667 61.7394 118.004C61.5405 118.338 61.2848 118.588 60.9723 118.755C60.6598 118.918 60.2799 119 59.8324 119H59.3211ZM71.1175 119.181C70.5991 119.181 70.1303 119.085 69.7113 118.893C69.2922 118.698 68.9602 118.416 68.7152 118.047C68.4737 117.677 68.353 117.224 68.353 116.688C68.353 116.227 68.4417 115.847 68.6193 115.548C68.7969 115.25 69.0366 115.014 69.3384 114.84C69.6403 114.666 69.9776 114.534 70.3505 114.446C70.7233 114.357 71.1033 114.289 71.4904 114.243C71.9805 114.186 72.3782 114.14 72.6836 114.105C72.989 114.066 73.2109 114.004 73.3494 113.918C73.4879 113.833 73.5572 113.695 73.5572 113.503V113.466C73.5572 113 73.4258 112.64 73.163 112.384C72.9037 112.129 72.5167 112.001 72.0018 112.001C71.4655 112.001 71.043 112.12 70.734 112.358C70.4286 112.592 70.2173 112.853 70.1001 113.141L68.6033 112.8C68.7809 112.303 69.0401 111.901 69.381 111.596C69.7255 111.287 70.1214 111.063 70.5689 110.925C71.0163 110.783 71.4868 110.712 71.9805 110.712C72.3072 110.712 72.6534 110.751 73.0192 110.829C73.3885 110.903 73.7329 111.042 74.0525 111.244C74.3757 111.447 74.6403 111.736 74.8462 112.113C75.0522 112.485 75.1552 112.97 75.1552 113.567V119H73.5998V117.881H73.5358C73.4329 118.087 73.2784 118.29 73.0724 118.489C72.8665 118.687 72.6019 118.853 72.2787 118.984C71.9556 119.115 71.5685 119.181 71.1175 119.181ZM71.4638 117.903C71.9041 117.903 72.2805 117.816 72.593 117.642C72.9091 117.468 73.1488 117.24 73.3121 116.96C73.479 116.676 73.5625 116.372 73.5625 116.049V114.994C73.5057 115.051 73.3956 115.104 73.2322 115.154C73.0724 115.2 72.8895 115.241 72.6836 115.277C72.4776 115.309 72.277 115.339 72.0817 115.367C71.8863 115.392 71.723 115.413 71.5916 115.431C71.2827 115.47 71.0003 115.536 70.7447 115.628C70.4925 115.721 70.2901 115.854 70.1374 116.028C69.9883 116.198 69.9137 116.425 69.9137 116.71C69.9137 117.104 70.0593 117.402 70.3505 117.604C70.6417 117.803 71.0128 117.903 71.4638 117.903ZM76.1118 112.192V110.818H83.0152V112.192H80.3465V119H78.7911V112.192H76.1118ZM87.6952 119.165C86.8891 119.165 86.1948 118.993 85.6124 118.648C85.0336 118.3 84.5862 117.812 84.2701 117.184C83.9576 116.551 83.8014 115.811 83.8014 114.962C83.8014 114.124 83.9576 113.386 84.2701 112.746C84.5862 112.107 85.0265 111.608 85.5911 111.25C86.1593 110.891 86.8234 110.712 87.5833 110.712C88.045 110.712 88.4924 110.788 88.9257 110.941C89.3589 111.093 89.7477 111.333 90.0922 111.66C90.4367 111.987 90.7083 112.411 90.9072 112.933C91.1061 113.451 91.2055 114.082 91.2055 114.824V115.388H84.7016V114.195H89.6448C89.6448 113.776 89.5595 113.405 89.3891 113.082C89.2186 112.755 88.9789 112.498 88.67 112.31C88.3646 112.121 88.0059 112.027 87.594 112.027C87.1465 112.027 86.7559 112.137 86.4221 112.358C86.0919 112.574 85.8362 112.858 85.6551 113.21C85.4775 113.558 85.3887 113.936 85.3887 114.344V115.277C85.3887 115.824 85.4846 116.289 85.6764 116.672C85.8717 117.056 86.1433 117.349 86.4914 117.551C86.8394 117.75 87.246 117.849 87.7112 117.849C88.013 117.849 88.2882 117.807 88.5368 117.722C88.7854 117.633 89.0002 117.501 89.1813 117.327C89.3624 117.153 89.5009 116.939 89.5968 116.683L91.1043 116.955C90.9835 117.398 90.7669 117.787 90.4544 118.121C90.1455 118.451 89.7566 118.709 89.2879 118.893C88.8227 119.075 88.2918 119.165 87.6952 119.165ZM92.1102 119L95.2796 114.813L92.1475 110.818H94.0012L96.5313 114.217H97.1013V110.818H98.694V114.217H99.248L101.778 110.818H103.632L100.516 114.813L103.669 119H101.778L99.2267 115.591H98.694V119H97.1013V115.591H96.5686L94.0012 119H92.1102Z" fill="#221E1E" style="fill:#221E1E;fill:color(display-p3 0.1333 0.1183 0.1183);fill-opacity:1;"/>
<path d="M113.219 116.342C112.906 116.342 112.622 116.267 112.366 116.118C112.111 115.966 111.907 115.761 111.754 115.506C111.605 115.246 111.53 114.962 111.53 114.653C111.53 114.341 111.605 114.057 111.754 113.801C111.907 113.545 112.111 113.343 112.366 113.194C112.622 113.041 112.906 112.965 113.219 112.965C113.528 112.965 113.81 113.041 114.066 113.194C114.325 113.343 114.531 113.545 114.684 113.801C114.836 114.057 114.911 114.341 114.907 114.653C114.907 114.962 114.831 115.246 114.678 115.506C114.526 115.761 114.321 115.966 114.066 116.118C113.81 116.267 113.528 116.342 113.219 116.342Z" fill="#918F8F" style="fill:#918F8F;fill:color(display-p3 0.5686 0.5608 0.5608);fill-opacity:1;"/>
<path d="M126.847 119.149C126.116 119.149 125.462 119.023 124.887 118.771C124.315 118.519 123.863 118.169 123.529 117.722C123.199 117.271 123.021 116.749 122.996 116.156H124.669C124.69 116.479 124.798 116.759 124.994 116.997C125.192 117.232 125.452 117.413 125.771 117.54C126.091 117.668 126.446 117.732 126.837 117.732C127.266 117.732 127.646 117.658 127.977 117.509C128.31 117.359 128.571 117.152 128.76 116.885C128.948 116.615 129.042 116.305 129.042 115.953C129.042 115.587 128.948 115.266 128.76 114.989C128.575 114.708 128.303 114.488 127.945 114.328C127.589 114.169 127.16 114.089 126.656 114.089H125.734V112.746H126.656C127.06 112.746 127.415 112.674 127.721 112.528C128.03 112.382 128.271 112.18 128.445 111.921C128.619 111.658 128.706 111.351 128.706 110.999C128.706 110.662 128.63 110.369 128.477 110.12C128.328 109.868 128.115 109.671 127.838 109.529C127.565 109.387 127.241 109.316 126.869 109.316C126.513 109.316 126.181 109.382 125.873 109.513C125.567 109.641 125.319 109.826 125.127 110.067C124.935 110.305 124.832 110.591 124.818 110.925H123.225C123.243 110.335 123.417 109.817 123.747 109.369C124.081 108.922 124.521 108.572 125.068 108.32C125.615 108.068 126.222 107.942 126.89 107.942C127.589 107.942 128.193 108.078 128.701 108.352C129.212 108.622 129.607 108.982 129.884 109.433C130.164 109.884 130.303 110.378 130.299 110.914C130.303 111.525 130.132 112.043 129.788 112.469C129.447 112.896 128.992 113.181 128.424 113.327V113.412C129.148 113.522 129.71 113.81 130.107 114.275C130.509 114.74 130.707 115.317 130.704 116.006C130.707 116.607 130.54 117.145 130.203 117.62C129.869 118.096 129.413 118.471 128.834 118.744C128.255 119.014 127.593 119.149 126.847 119.149ZM136.168 119.149C135.501 119.149 134.9 119.021 134.368 118.766C133.839 118.506 133.416 118.151 133.1 117.7C132.784 117.249 132.615 116.734 132.594 116.156H134.192C134.231 116.624 134.439 117.01 134.815 117.311C135.192 117.613 135.643 117.764 136.168 117.764C136.587 117.764 136.958 117.668 137.281 117.477C137.608 117.281 137.864 117.013 138.049 116.672C138.237 116.331 138.331 115.942 138.331 115.506C138.331 115.062 138.235 114.666 138.043 114.318C137.851 113.97 137.587 113.696 137.25 113.498C136.916 113.299 136.532 113.197 136.099 113.194C135.769 113.194 135.437 113.251 135.103 113.364C134.769 113.478 134.499 113.627 134.293 113.812L132.786 113.588L133.398 108.091H139.396V109.502H134.767L134.421 112.555H134.485C134.698 112.349 134.98 112.176 135.332 112.038C135.687 111.9 136.067 111.83 136.472 111.83C137.136 111.83 137.727 111.988 138.246 112.304C138.768 112.62 139.178 113.052 139.476 113.599C139.778 114.142 139.927 114.767 139.924 115.474C139.927 116.18 139.767 116.811 139.444 117.365C139.125 117.919 138.681 118.355 138.112 118.675C137.548 118.991 136.9 119.149 136.168 119.149ZM145.517 119.181C144.675 119.178 143.956 118.956 143.36 118.515C142.763 118.075 142.307 117.434 141.991 116.592C141.675 115.751 141.517 114.737 141.517 113.551C141.517 112.368 141.675 111.358 141.991 110.52C142.31 109.682 142.768 109.043 143.365 108.602C143.965 108.162 144.683 107.942 145.517 107.942C146.352 107.942 147.067 108.164 147.664 108.608C148.26 109.048 148.717 109.687 149.033 110.525C149.352 111.36 149.512 112.368 149.512 113.551C149.512 114.74 149.354 115.756 149.038 116.598C148.722 117.436 148.266 118.077 147.669 118.521C147.072 118.961 146.355 119.181 145.517 119.181ZM145.517 117.759C146.256 117.759 146.833 117.398 147.248 116.678C147.667 115.957 147.877 114.914 147.877 113.551C147.877 112.645 147.781 111.88 147.589 111.255C147.401 110.626 147.129 110.151 146.774 109.827C146.423 109.501 146.004 109.337 145.517 109.337C144.782 109.337 144.205 109.7 143.786 110.424C143.367 111.148 143.156 112.191 143.152 113.551C143.152 114.46 143.246 115.229 143.434 115.857C143.626 116.482 143.898 116.956 144.249 117.279C144.601 117.599 145.023 117.759 145.517 117.759ZM160.254 114.728H154.624V113.332H160.233C160.716 113.332 161.115 113.252 161.432 113.093C161.748 112.929 161.982 112.706 162.135 112.422C162.287 112.134 162.364 111.804 162.364 111.431C162.364 111.061 162.287 110.731 162.135 110.44C161.982 110.149 161.749 109.92 161.437 109.753C161.124 109.582 160.73 109.497 160.254 109.497H157.932V119H156.291V108.091H160.254C161.082 108.091 161.772 108.24 162.326 108.538C162.884 108.837 163.301 109.238 163.578 109.742C163.859 110.246 163.999 110.808 163.999 111.425C163.999 112.05 163.857 112.613 163.573 113.114C163.292 113.611 162.873 114.005 162.316 114.297C161.762 114.584 161.075 114.728 160.254 114.728ZM160.334 115.644V117.045H154.624V115.644H160.334Z" fill="black" fill-opacity="0.51" style="fill:black;fill-opacity:0.51;"/>
<path d="M173.219 116.342C172.906 116.342 172.622 116.267 172.366 116.118C172.111 115.966 171.907 115.761 171.754 115.506C171.605 115.246 171.53 114.962 171.53 114.653C171.53 114.341 171.605 114.057 171.754 113.801C171.907 113.545 172.111 113.343 172.366 113.194C172.622 113.041 172.906 112.965 173.219 112.965C173.528 112.965 173.81 113.041 174.066 113.194C174.325 113.343 174.531 113.545 174.684 113.801C174.836 114.057 174.911 114.341 174.907 114.653C174.907 114.962 174.831 115.246 174.678 115.506C174.526 115.761 174.321 115.966 174.066 116.118C173.81 116.267 173.528 116.342 173.219 116.342Z" fill="#918F8F" style="fill:#918F8F;fill:color(display-p3 0.5686 0.5608 0.5608);fill-opacity:1;"/>
<path d="M183.049 119V117.807L186.741 113.982C187.135 113.567 187.46 113.203 187.716 112.89C187.975 112.574 188.168 112.274 188.296 111.99C188.424 111.706 188.488 111.404 188.488 111.085C188.488 110.722 188.403 110.41 188.232 110.147C188.062 109.881 187.829 109.676 187.534 109.534C187.24 109.389 186.908 109.316 186.538 109.316C186.148 109.316 185.807 109.396 185.516 109.556C185.224 109.716 185.001 109.941 184.844 110.232C184.688 110.523 184.61 110.864 184.61 111.255H183.039C183.039 110.591 183.191 110.01 183.497 109.513C183.802 109.016 184.221 108.631 184.754 108.357C185.287 108.08 185.892 107.942 186.57 107.942C187.256 107.942 187.859 108.078 188.381 108.352C188.907 108.622 189.317 108.991 189.612 109.46C189.907 109.925 190.054 110.451 190.054 111.037C190.054 111.441 189.978 111.837 189.825 112.224C189.676 112.612 189.415 113.043 189.042 113.519C188.669 113.991 188.151 114.565 187.487 115.239L185.319 117.509V117.588H190.23V119H183.049ZM195.785 119.149C195.021 119.149 194.346 119.018 193.761 118.755C193.178 118.492 192.722 118.13 192.392 117.668C192.061 117.207 191.898 116.681 191.901 116.092C191.898 115.63 191.992 115.206 192.184 114.819C192.379 114.428 192.644 114.103 192.977 113.844C193.311 113.581 193.684 113.414 194.096 113.343V113.279C193.553 113.148 193.118 112.857 192.791 112.406C192.464 111.955 192.303 111.436 192.306 110.85C192.303 110.293 192.45 109.795 192.748 109.359C193.05 108.918 193.464 108.572 193.99 108.32C194.515 108.068 195.113 107.942 195.785 107.942C196.449 107.942 197.042 108.07 197.564 108.325C198.089 108.577 198.503 108.924 198.805 109.364C199.107 109.801 199.259 110.296 199.263 110.85C199.259 111.436 199.093 111.955 198.762 112.406C198.432 112.857 198.002 113.148 197.473 113.279V113.343C197.882 113.414 198.249 113.581 198.576 113.844C198.906 114.103 199.169 114.428 199.364 114.819C199.563 115.206 199.664 115.63 199.668 116.092C199.664 116.681 199.497 117.207 199.167 117.668C198.837 118.13 198.379 118.492 197.793 118.755C197.21 119.018 196.541 119.149 195.785 119.149ZM195.785 117.801C196.236 117.801 196.626 117.727 196.957 117.578C197.287 117.425 197.542 117.214 197.724 116.944C197.905 116.67 197.997 116.351 198.001 115.985C197.997 115.605 197.898 115.27 197.702 114.978C197.511 114.687 197.25 114.458 196.919 114.291C196.589 114.124 196.211 114.041 195.785 114.041C195.355 114.041 194.973 114.124 194.639 114.291C194.306 114.458 194.043 114.687 193.851 114.978C193.659 115.27 193.565 115.605 193.569 115.985C193.565 116.351 193.652 116.67 193.83 116.944C194.011 117.214 194.268 117.425 194.602 117.578C194.936 117.727 195.33 117.801 195.785 117.801ZM195.785 112.725C196.147 112.725 196.468 112.652 196.749 112.507C197.029 112.361 197.25 112.159 197.409 111.9C197.573 111.64 197.656 111.337 197.66 110.989C197.656 110.648 197.574 110.349 197.415 110.094C197.258 109.838 197.04 109.641 196.759 109.502C196.479 109.36 196.154 109.289 195.785 109.289C195.408 109.289 195.078 109.36 194.794 109.502C194.513 109.641 194.295 109.838 194.139 110.094C193.982 110.349 193.906 110.648 193.91 110.989C193.906 111.337 193.984 111.64 194.144 111.9C194.304 112.159 194.524 112.361 194.805 112.507C195.089 112.652 195.415 112.725 195.785 112.725ZM202.175 119.101C201.883 119.101 201.633 118.998 201.423 118.792C201.214 118.583 201.109 118.331 201.109 118.036C201.109 117.745 201.214 117.496 201.423 117.29C201.633 117.081 201.883 116.976 202.175 116.976C202.466 116.976 202.716 117.081 202.926 117.29C203.135 117.496 203.24 117.745 203.24 118.036C203.24 118.231 203.19 118.411 203.091 118.574C202.995 118.734 202.867 118.862 202.707 118.957C202.547 119.053 202.37 119.101 202.175 119.101ZM208.022 108.091V119H206.371V109.742H206.307L203.697 111.447V109.87L206.419 108.091H208.022ZM210.823 119V117.807L214.515 113.982C214.909 113.567 215.234 113.203 215.49 112.89C215.749 112.574 215.942 112.274 216.07 111.99C216.198 111.706 216.262 111.404 216.262 111.085C216.262 110.722 216.177 110.41 216.006 110.147C215.836 109.881 215.603 109.676 215.308 109.534C215.014 109.389 214.682 109.316 214.312 109.316C213.922 109.316 213.581 109.396 213.29 109.556C212.998 109.716 212.775 109.941 212.618 110.232C212.462 110.523 212.384 110.864 212.384 111.255H210.813C210.813 110.591 210.965 110.01 211.271 109.513C211.576 109.016 211.995 108.631 212.528 108.357C213.061 108.08 213.666 107.942 214.344 107.942C215.03 107.942 215.633 108.078 216.155 108.352C216.681 108.622 217.091 108.991 217.386 109.46C217.681 109.925 217.828 110.451 217.828 111.037C217.828 111.441 217.752 111.837 217.599 112.224C217.45 112.612 217.189 113.043 216.816 113.519C216.443 113.991 215.925 114.565 215.261 115.239L213.093 117.509V117.588H218.004V119H210.823ZM220.943 119.101C220.652 119.101 220.402 118.998 220.192 118.792C219.983 118.583 219.878 118.331 219.878 118.036C219.878 117.745 219.983 117.496 220.192 117.29C220.402 117.081 220.652 116.976 220.943 116.976C221.234 116.976 221.485 117.081 221.694 117.29C221.904 117.496 222.009 117.745 222.009 118.036C222.009 118.231 221.959 118.411 221.859 118.574C221.764 118.734 221.636 118.862 221.476 118.957C221.316 119.053 221.139 119.101 220.943 119.101ZM223.971 119V117.807L227.662 113.982C228.056 113.567 228.381 113.203 228.637 112.89C228.896 112.574 229.09 112.274 229.217 111.99C229.345 111.706 229.409 111.404 229.409 111.085C229.409 110.722 229.324 110.41 229.154 110.147C228.983 109.881 228.75 109.676 228.456 109.534C228.161 109.389 227.829 109.316 227.46 109.316C227.069 109.316 226.728 109.396 226.437 109.556C226.146 109.716 225.922 109.941 225.766 110.232C225.609 110.523 225.531 110.864 225.531 111.255H223.96C223.96 110.591 224.113 110.01 224.418 109.513C224.723 109.016 225.143 108.631 225.675 108.357C226.208 108.08 226.813 107.942 227.492 107.942C228.177 107.942 228.781 108.078 229.303 108.352C229.828 108.622 230.238 108.991 230.533 109.46C230.828 109.925 230.975 110.451 230.975 111.037C230.975 111.441 230.899 111.837 230.746 112.224C230.597 112.612 230.336 113.043 229.963 113.519C229.59 113.991 229.072 114.565 228.408 115.239L226.24 117.509V117.588H231.151V119H223.971ZM236.818 119.181C235.976 119.178 235.257 118.956 234.66 118.515C234.064 118.075 233.608 117.434 233.292 116.592C232.975 115.751 232.817 114.737 232.817 113.551C232.817 112.368 232.975 111.358 233.292 110.52C233.611 109.682 234.069 109.043 234.666 108.602C235.266 108.162 235.983 107.942 236.818 107.942C237.652 107.942 238.368 108.164 238.964 108.608C239.561 109.048 240.017 109.687 240.333 110.525C240.653 111.36 240.813 112.368 240.813 113.551C240.813 114.74 240.655 115.756 240.339 116.598C240.023 117.436 239.566 118.077 238.97 118.521C238.373 118.961 237.656 119.181 236.818 119.181ZM236.818 117.759C237.556 117.759 238.134 117.398 238.549 116.678C238.968 115.957 239.178 114.914 239.178 113.551C239.178 112.645 239.082 111.88 238.89 111.255C238.702 110.626 238.43 110.151 238.075 109.827C237.723 109.501 237.304 109.337 236.818 109.337C236.083 109.337 235.506 109.7 235.087 110.424C234.668 111.148 234.456 112.191 234.453 113.551C234.453 114.46 234.547 115.229 234.735 115.857C234.927 116.482 235.198 116.956 235.55 117.279C235.902 117.599 236.324 117.759 236.818 117.759ZM242.552 119V117.807L246.244 113.982C246.638 113.567 246.963 113.203 247.219 112.89C247.478 112.574 247.671 112.274 247.799 111.99C247.927 111.706 247.991 111.404 247.991 111.085C247.991 110.722 247.906 110.41 247.735 110.147C247.565 109.881 247.332 109.676 247.038 109.534C246.743 109.389 246.411 109.316 246.041 109.316C245.651 109.316 245.31 109.396 245.019 109.556C244.728 109.716 244.504 109.941 244.348 110.232C244.191 110.523 244.113 110.864 244.113 111.255H242.542C242.542 110.591 242.695 110.01 243 109.513C243.305 109.016 243.724 108.631 244.257 108.357C244.79 108.08 245.395 107.942 246.073 107.942C246.759 107.942 247.362 108.078 247.885 108.352C248.41 108.622 248.82 108.991 249.115 109.46C249.41 109.925 249.557 110.451 249.557 111.037C249.557 111.441 249.481 111.837 249.328 112.224C249.179 112.612 248.918 113.043 248.545 113.519C248.172 113.991 247.654 114.565 246.99 115.239L244.822 117.509V117.588H249.733V119H242.552ZM255.203 119.149C254.535 119.149 253.935 119.021 253.402 118.766C252.873 118.506 252.45 118.151 252.134 117.7C251.818 117.249 251.65 116.734 251.628 116.156H253.226C253.265 116.624 253.473 117.01 253.85 117.311C254.226 117.613 254.677 117.764 255.203 117.764C255.622 117.764 255.993 117.668 256.316 117.477C256.643 117.281 256.898 117.013 257.083 116.672C257.271 116.331 257.365 115.942 257.365 115.506C257.365 115.062 257.269 114.666 257.078 114.318C256.886 113.97 256.621 113.696 256.284 113.498C255.95 113.299 255.567 113.197 255.133 113.194C254.803 113.194 254.471 113.251 254.137 113.364C253.803 113.478 253.534 113.627 253.328 113.812L251.82 113.588L252.433 108.091H258.431V109.502H253.802L253.455 112.555H253.519C253.732 112.349 254.015 112.176 254.366 112.038C254.721 111.9 255.101 111.83 255.506 111.83C256.17 111.83 256.762 111.988 257.28 112.304C257.802 112.62 258.212 113.052 258.51 113.599C258.812 114.142 258.961 114.767 258.958 115.474C258.961 116.18 258.802 116.811 258.478 117.365C258.159 117.919 257.715 118.355 257.147 118.675C256.582 118.991 255.934 119.149 255.203 119.149Z" fill="black" fill-opacity="0.51" style="fill:black;fill-opacity:0.51;"/>
<mask id="mask4_1567_51284" style="mask-type:alpha" maskUnits="userSpaceOnUse" x="16" y="138" width="24" height="24">
<rect x="16" y="138" width="24" height="24" fill="#D9D9D9" style="fill:#D9D9D9;fill:color(display-p3 0.8510 0.8510 0.8510);fill-opacity:1;"/>
</mask>
<g mask="url(#mask4_1567_51284)">
<path d="M20.625 158C20.1583 158 19.771 157.846 19.463 157.538C19.1543 157.229 19 156.842 19 156.375V146.625C19 146.158 19.1543 145.771 19.463 145.463C19.771 145.154 20.1583 145 20.625 145H25V143.625C25 143.158 25.1543 142.771 25.463 142.463C25.771 142.154 26.1583 142 26.625 142H29.375C29.8417 142 30.2293 142.154 30.538 142.463C30.846 142.771 31 143.158 31 143.625V145H35.375C35.8417 145 36.2293 145.154 36.538 145.463C36.846 145.771 37 146.158 37 146.625V156.375C37 156.842 36.846 157.229 36.538 157.538C36.2293 157.846 35.8417 158 35.375 158H20.625ZM20.625 157H35.375C35.5417 157 35.6873 156.937 35.812 156.812C35.9373 156.687 36 156.542 36 156.375V146.625C36 146.458 35.9373 146.313 35.812 146.188C35.6873 146.063 35.5417 146 35.375 146H20.625C20.4583 146 20.3127 146.063 20.188 146.188C20.0627 146.313 20 146.458 20 146.625V156.375C20 156.542 20.0627 156.687 20.188 156.812C20.3127 156.937 20.4583 157 20.625 157ZM26 145H30V143.625C30 143.458 29.9373 143.313 29.812 143.188C29.6873 143.063 29.5417 143 29.375 143H26.625C26.4583 143 26.3127 143.063 26.188 143.188C26.0627 143.313 26 143.458 26 143.625V145Z" fill="black" fill-opacity="0.76" style="fill:black;fill-opacity:0.76;"/>
</g>
<path d="M49.1985 144.091H50.8285V152.102H50.9297L56.4801 144.091H58.0036V155H56.3576V146.999H56.2564L50.7166 155H49.1985V144.091ZM65.6718 150.222V151.602H61.24V150.222H65.6718ZM61.6874 146.818V155H60.1267V146.818H61.6874ZM66.7851 146.818V155H65.2297V146.818H66.7851ZM72.2867 157.786V144.091H73.8794V157.786H72.2867ZM72.2867 155.165C71.7079 155.165 71.1806 155.066 70.7047 154.867C70.2289 154.664 69.8187 154.377 69.4742 154.004C69.1298 153.631 68.8634 153.185 68.6752 152.667C68.4906 152.148 68.3982 151.575 68.3982 150.946C68.3982 150.311 68.4906 149.734 68.6752 149.215C68.8634 148.697 69.1298 148.251 69.4742 147.878C69.8187 147.505 70.2289 147.218 70.7047 147.015C71.1806 146.813 71.7079 146.712 72.2867 146.712H72.6809V155.165H72.2867ZM72.2867 153.823H72.5105V148.054H72.2867C71.9032 148.054 71.5694 148.132 71.2853 148.288C71.0012 148.441 70.7651 148.652 70.5769 148.922C70.3887 149.189 70.2466 149.496 70.1507 149.844C70.0584 150.192 70.0122 150.559 70.0122 150.946C70.0122 151.465 70.0957 151.942 70.2626 152.379C70.4295 152.812 70.6816 153.162 71.019 153.429C71.3563 153.691 71.7789 153.823 72.2867 153.823ZM73.8794 155.165H73.4799V146.712H73.8794C74.4583 146.712 74.9856 146.813 75.4615 147.015C75.9373 147.218 76.3457 147.505 76.6866 147.878C77.0311 148.251 77.2956 148.697 77.4803 149.215C77.6685 149.734 77.7626 150.311 77.7626 150.946C77.7626 151.575 77.6685 152.148 77.4803 152.667C77.2956 153.185 77.0311 153.631 76.6866 154.004C76.3457 154.377 75.9373 154.664 75.4615 154.867C74.9856 155.066 74.4583 155.165 73.8794 155.165ZM73.8794 153.823C74.2629 153.823 74.5968 153.748 74.8808 153.599C75.1649 153.446 75.4011 153.237 75.5893 152.971C75.7775 152.701 75.9178 152.393 76.0101 152.049C76.1024 151.701 76.1486 151.333 76.1486 150.946C76.1486 150.431 76.0651 149.956 75.8982 149.519C75.7349 149.078 75.4845 148.725 75.1472 148.459C74.8098 148.189 74.3872 148.054 73.8794 148.054H73.6504V153.823H73.8794ZM82.8288 155.165C82.0617 155.165 81.3923 154.989 80.8206 154.638C80.2489 154.286 79.805 153.794 79.4889 153.162C79.1729 152.53 79.0148 151.792 79.0148 150.946C79.0148 150.098 79.1729 149.355 79.4889 148.72C79.805 148.084 80.2489 147.591 80.8206 147.239C81.3923 146.887 82.0617 146.712 82.8288 146.712C83.5958 146.712 84.2652 146.887 84.8369 147.239C85.4087 147.591 85.8526 148.084 86.1686 148.72C86.4847 149.355 86.6427 150.098 86.6427 150.946C86.6427 151.792 86.4847 152.53 86.1686 153.162C85.8526 153.794 85.4087 154.286 84.8369 154.638C84.2652 154.989 83.5958 155.165 82.8288 155.165ZM82.8341 153.828C83.3312 153.828 83.7432 153.697 84.0699 153.434C84.3966 153.171 84.6381 152.821 84.7943 152.385C84.9541 151.948 85.034 151.467 85.034 150.941C85.034 150.419 84.9541 149.94 84.7943 149.503C84.6381 149.062 84.3966 148.709 84.0699 148.443C83.7432 148.176 83.3312 148.043 82.8341 148.043C82.3334 148.043 81.9179 148.176 81.5876 148.443C81.2609 148.709 81.0177 149.062 80.8579 149.503C80.7016 149.94 80.6235 150.419 80.6235 150.941C80.6235 151.467 80.7016 151.948 80.8579 152.385C81.0177 152.821 81.2609 153.171 81.5876 153.434C81.9179 153.697 82.3334 153.828 82.8341 153.828ZM88.2705 158.068V146.818H89.8259V148.145H89.959C90.0514 147.974 90.1845 147.777 90.3585 147.553C90.5325 147.33 90.774 147.134 91.083 146.967C91.3919 146.797 91.8003 146.712 92.3081 146.712C92.9686 146.712 93.5581 146.879 94.0766 147.212C94.595 147.546 95.0017 148.027 95.2964 148.656C95.5947 149.284 95.7438 150.041 95.7438 150.925C95.7438 151.809 95.5965 152.567 95.3017 153.2C95.007 153.828 94.6022 154.313 94.0872 154.654C93.5723 154.991 92.9846 155.16 92.3241 155.16C91.8269 155.16 91.4203 155.076 91.1043 154.909C90.7918 154.743 90.5468 154.547 90.3692 154.324C90.1916 154.1 90.0549 153.901 89.959 153.727H89.8632V158.068H88.2705ZM89.8312 150.909C89.8312 151.484 89.9147 151.989 90.0816 152.422C90.2485 152.855 90.4899 153.194 90.806 153.439C91.122 153.681 91.5091 153.801 91.9672 153.801C92.4431 153.801 92.8408 153.675 93.1604 153.423C93.48 153.168 93.7215 152.821 93.8848 152.385C94.0517 151.948 94.1352 151.456 94.1352 150.909C94.1352 150.369 94.0535 149.885 93.8901 149.455C93.7303 149.025 93.4889 148.686 93.1657 148.438C92.8461 148.189 92.4466 148.065 91.9672 148.065C91.5056 148.065 91.1149 148.184 90.7953 148.422C90.4793 148.659 90.2396 148.991 90.0762 149.418C89.9129 149.844 89.8312 150.341 89.8312 150.909ZM101.97 153.029L104.612 146.818H105.986L102.561 155H101.379L98.0228 146.818H99.3811L101.97 153.029ZM98.939 146.818V155H97.3783V146.818H98.939ZM105.043 155V146.818H106.593V155H105.043ZM110.947 155.181C110.429 155.181 109.96 155.085 109.541 154.893C109.122 154.698 108.79 154.416 108.545 154.047C108.303 153.677 108.183 153.224 108.183 152.688C108.183 152.227 108.271 151.847 108.449 151.548C108.627 151.25 108.866 151.014 109.168 150.84C109.47 150.666 109.807 150.534 110.18 150.446C110.553 150.357 110.933 150.289 111.32 150.243C111.81 150.186 112.208 150.14 112.513 150.105C112.819 150.066 113.041 150.004 113.179 149.918C113.318 149.833 113.387 149.695 113.387 149.503V149.466C113.387 149 113.255 148.64 112.993 148.384C112.733 148.129 112.346 148.001 111.831 148.001C111.295 148.001 110.873 148.12 110.564 148.358C110.258 148.592 110.047 148.853 109.93 149.141L108.433 148.8C108.611 148.303 108.87 147.901 109.211 147.596C109.555 147.287 109.951 147.063 110.399 146.925C110.846 146.783 111.317 146.712 111.81 146.712C112.137 146.712 112.483 146.751 112.849 146.829C113.218 146.903 113.563 147.042 113.882 147.244C114.205 147.447 114.47 147.736 114.676 148.113C114.882 148.485 114.985 148.97 114.985 149.567V155H113.429V153.881H113.366C113.263 154.087 113.108 154.29 112.902 154.489C112.696 154.687 112.432 154.853 112.108 154.984C111.785 155.115 111.398 155.181 110.947 155.181ZM111.293 153.903C111.734 153.903 112.11 153.816 112.423 153.642C112.739 153.468 112.978 153.24 113.142 152.96C113.309 152.676 113.392 152.372 113.392 152.049V150.994C113.335 151.051 113.225 151.104 113.062 151.154C112.902 151.2 112.719 151.241 112.513 151.277C112.307 151.309 112.107 151.339 111.911 151.367C111.716 151.392 111.553 151.413 111.421 151.431C111.112 151.47 110.83 151.536 110.574 151.628C110.322 151.721 110.12 151.854 109.967 152.028C109.818 152.198 109.743 152.425 109.743 152.71C109.743 153.104 109.889 153.402 110.18 153.604C110.471 153.803 110.842 153.903 111.293 153.903ZM123.631 146.818V153.695H124.829V157.637H123.258V155H116.956V146.818H118.517V153.626H122.075V146.818H123.631ZM128.006 152.768L131.612 146.818H133.327V155H131.766V149.045L128.176 155H126.445V146.818H128.006V152.768ZM140.198 155V148.176H138.237C137.772 148.176 137.41 148.285 137.151 148.501C136.891 148.718 136.762 149.002 136.762 149.354C136.762 149.702 136.881 149.982 137.119 150.195C137.36 150.405 137.698 150.51 138.131 150.51H140.661V151.799H138.131C137.527 151.799 137.005 151.699 136.565 151.5C136.128 151.298 135.791 151.012 135.553 150.643C135.318 150.273 135.201 149.837 135.201 149.332C135.201 148.817 135.322 148.374 135.563 148.001C135.808 147.624 136.158 147.333 136.613 147.127C137.071 146.921 137.612 146.818 138.237 146.818H141.694V155H140.198ZM134.828 155L137.135 150.866H138.765L136.458 155H134.828ZM147.484 155V146.818H150.877C151.801 146.818 152.532 147.015 153.072 147.409C153.612 147.8 153.882 148.331 153.882 149.002C153.882 149.482 153.729 149.862 153.423 150.142C153.118 150.423 152.713 150.611 152.209 150.707C152.575 150.749 152.91 150.859 153.216 151.037C153.521 151.211 153.766 151.445 153.951 151.74C154.139 152.035 154.233 152.386 154.233 152.795C154.233 153.228 154.121 153.612 153.897 153.945C153.674 154.276 153.349 154.535 152.923 154.723C152.5 154.908 151.991 155 151.394 155H147.484ZM148.981 153.668H151.394C151.788 153.668 152.097 153.574 152.321 153.386C152.545 153.198 152.656 152.942 152.656 152.619C152.656 152.239 152.545 151.941 152.321 151.724C152.097 151.504 151.788 151.394 151.394 151.394H148.981V153.668ZM148.981 150.227H150.893C151.192 150.227 151.447 150.185 151.66 150.099C151.877 150.014 152.042 149.893 152.156 149.737C152.273 149.577 152.331 149.389 152.331 149.173C152.331 148.857 152.202 148.61 151.943 148.432C151.683 148.255 151.328 148.166 150.877 148.166H148.981V150.227ZM165.962 143.771L166.623 144.778C166.378 145.002 166.099 145.162 165.786 145.257C165.477 145.35 165.12 145.408 164.716 145.433C164.311 145.455 163.847 145.474 163.325 145.492C162.736 145.51 162.251 145.637 161.871 145.875C161.491 146.11 161.198 146.458 160.992 146.919C160.79 147.377 160.658 147.953 160.598 148.645H160.699C160.966 148.137 161.335 147.757 161.807 147.505C162.283 147.253 162.818 147.127 163.411 147.127C164.071 147.127 164.659 147.278 165.174 147.58C165.689 147.882 166.094 148.324 166.388 148.906C166.687 149.485 166.836 150.194 166.836 151.032C166.836 151.88 166.679 152.614 166.367 153.232C166.058 153.849 165.621 154.327 165.057 154.664C164.495 154.998 163.833 155.165 163.07 155.165C162.306 155.165 161.64 154.993 161.072 154.648C160.508 154.3 160.069 153.786 159.757 153.104C159.448 152.422 159.293 151.58 159.293 150.579V149.769C159.293 147.898 159.627 146.49 160.294 145.545C160.962 144.6 161.96 144.116 163.288 144.091C163.718 144.08 164.101 144.078 164.439 144.086C164.776 144.089 165.071 144.073 165.323 144.038C165.579 143.999 165.792 143.91 165.962 143.771ZM163.075 153.828C163.519 153.828 163.901 153.716 164.22 153.493C164.543 153.265 164.792 152.944 164.966 152.528C165.14 152.113 165.227 151.623 165.227 151.058C165.227 150.504 165.14 150.034 164.966 149.647C164.792 149.26 164.543 148.965 164.22 148.762C163.897 148.556 163.51 148.453 163.059 148.453C162.725 148.453 162.427 148.512 162.164 148.629C161.901 148.743 161.676 148.912 161.488 149.135C161.303 149.359 161.159 149.632 161.056 149.956C160.957 150.275 160.904 150.643 160.896 151.058C160.896 151.903 161.09 152.576 161.477 153.077C161.868 153.578 162.4 153.828 163.075 153.828ZM170.026 152.768L173.632 146.818H175.347V155H173.786V149.045L170.196 155H168.465V146.818H170.026V152.768ZM176.694 155L176.688 153.62H176.981C177.209 153.62 177.399 153.572 177.551 153.477C177.708 153.377 177.835 153.21 177.935 152.976C178.034 152.741 178.111 152.418 178.164 152.006C178.217 151.591 178.256 151.069 178.281 150.44L178.425 146.818H184.135V155H182.574V148.192H179.9L179.773 150.973C179.741 151.648 179.671 152.237 179.565 152.741C179.462 153.246 179.311 153.667 179.112 154.004C178.913 154.338 178.657 154.588 178.345 154.755C178.032 154.918 177.653 155 177.205 155H176.694ZM185.465 155L185.459 153.62H185.752C185.98 153.62 186.17 153.572 186.322 153.477C186.478 153.377 186.606 153.21 186.706 152.976C186.805 152.741 186.882 152.418 186.935 152.006C186.988 151.591 187.027 151.069 187.052 150.44L187.196 146.818H192.906V155H191.345V148.192H188.671L188.543 150.973C188.511 151.648 188.442 152.237 188.336 152.741C188.233 153.246 188.082 153.667 187.883 154.004C187.684 154.338 187.428 154.588 187.116 154.755C186.803 154.918 186.423 155 185.976 155H185.465ZM196.441 152.768L200.047 146.818H201.762V155H200.201V149.045L196.611 155H194.88V146.818H196.441V152.768ZM209.299 150.222V151.602H204.867V150.222H209.299ZM205.314 146.818V155H203.753V146.818H205.314ZM210.412 146.818V155H208.856V146.818H210.412ZM217.623 146.818V148.192H213.964V155H212.393V146.818H217.623ZM222.302 155.165C221.496 155.165 220.802 154.993 220.219 154.648C219.64 154.3 219.193 153.812 218.877 153.184C218.564 152.551 218.408 151.811 218.408 150.962C218.408 150.124 218.564 149.386 218.877 148.746C219.193 148.107 219.633 147.608 220.198 147.25C220.766 146.891 221.43 146.712 222.19 146.712C222.652 146.712 223.099 146.788 223.532 146.941C223.966 147.093 224.355 147.333 224.699 147.66C225.044 147.987 225.315 148.411 225.514 148.933C225.713 149.451 225.812 150.082 225.812 150.824V151.388H219.308V150.195H224.252C224.252 149.776 224.166 149.405 223.996 149.082C223.825 148.755 223.586 148.498 223.277 148.31C222.971 148.121 222.613 148.027 222.201 148.027C221.753 148.027 221.363 148.137 221.029 148.358C220.699 148.574 220.443 148.858 220.262 149.21C220.084 149.558 219.996 149.936 219.996 150.344V151.277C219.996 151.824 220.091 152.289 220.283 152.672C220.479 153.056 220.75 153.349 221.098 153.551C221.446 153.75 221.853 153.849 222.318 153.849C222.62 153.849 222.895 153.807 223.144 153.722C223.392 153.633 223.607 153.501 223.788 153.327C223.969 153.153 224.108 152.939 224.204 152.683L225.711 152.955C225.59 153.398 225.374 153.787 225.061 154.121C224.752 154.451 224.363 154.709 223.895 154.893C223.43 155.075 222.899 155.165 222.302 155.165Z" fill="#221E1E" style="fill:#221E1E;fill:color(display-p3 0.1333 0.1183 0.1183);fill-opacity:1;"/>
<mask id="mask5_1567_51284" style="mask-type:alpha" maskUnits="userSpaceOnUse" x="352" y="138" width="24" height="24">
<rect x="352" y="138" width="24" height="24" fill="#D9D9D9" style="fill:#D9D9D9;fill:color(display-p3 0.8510 0.8510 0.8510);fill-opacity:1;"/>
</mask>
<g mask="url(#mask5_1567_51284)">
<path d="M366.792 148L366 147.208L370.075 143.132H366.34V142H372V147.66H370.868V143.925L366.792 148Z" fill="black" fill-opacity="0.76" style="fill:black;fill-opacity:0.76;"/>
<path d="M356 158V152.34H357.132V156.075L361.208 152L362 152.792L357.925 156.868H361.66V158H356Z" fill="black" fill-opacity="0.76" style="fill:black;fill-opacity:0.76;"/>
</g>
</svg>
