<svg width="386" height="62" viewBox="0 0 386 62" fill="none" xmlns="http://www.w3.org/2000/svg">
<path d="M37.8819 24.1364V36.5H36.0105V26.0078H35.938L32.9799 27.9396V26.1527L36.0648 24.1364H37.8819ZM46.3375 23.9673C46.8889 23.9714 47.4322 24.072 47.9675 24.2692C48.5028 24.4664 48.9857 24.7884 49.4164 25.2351C49.851 25.6818 50.1971 26.2855 50.4547 27.0462C50.7163 27.8028 50.8491 28.7446 50.8532 29.8714C50.8532 30.9541 50.7445 31.918 50.5272 32.7631C50.3098 33.6043 49.9979 34.3146 49.5914 34.8942C49.189 35.4737 48.7 35.9144 48.1245 36.2163C47.5489 36.5181 46.901 36.669 46.1806 36.669C45.4441 36.669 44.7901 36.5241 44.2186 36.2344C43.6471 35.9446 43.1822 35.5442 42.824 35.033C42.4658 34.5179 42.2425 33.9263 42.1539 33.2582H43.9952C44.1159 33.7894 44.3614 34.2201 44.7317 34.5501C45.106 34.8761 45.589 35.0391 46.1806 35.0391C47.0861 35.0391 47.7924 34.6446 48.2995 33.8558C48.8066 33.063 49.0622 31.9562 49.0662 30.5355H48.9696C48.7604 30.8816 48.4988 31.1795 48.1848 31.429C47.8749 31.6785 47.5268 31.8717 47.1404 32.0085C46.7541 32.1454 46.3416 32.2138 45.9029 32.2138C45.1905 32.2138 44.5426 32.0387 43.959 31.6886C43.3754 31.3384 42.9106 30.8575 42.5645 30.2457C42.2183 29.634 42.0453 28.9357 42.0453 28.1509C42.0453 27.3701 42.2224 26.6618 42.5765 26.0259C42.9347 25.39 43.4338 24.887 44.0737 24.5167C44.7176 24.1424 45.4722 23.9593 46.3375 23.9673ZM46.3436 25.5369C45.8727 25.5369 45.4481 25.6536 45.0698 25.8871C44.6955 26.1165 44.3997 26.4284 44.1824 26.8228C43.965 27.2132 43.8564 27.6478 43.8564 28.1268C43.8564 28.6057 43.961 29.0404 44.1703 29.4308C44.3836 29.8171 44.6734 30.125 45.0396 30.3544C45.4099 30.5798 45.8324 30.6925 46.3074 30.6925C46.6615 30.6925 46.9915 30.6241 47.2974 30.4872C47.6033 30.3504 47.8709 30.1612 48.1003 29.9197C48.3297 29.6742 48.5088 29.3965 48.6376 29.0866C48.7664 28.7768 48.8308 28.4508 48.8308 28.1087C48.8308 27.6539 48.7221 27.2313 48.5048 26.8409C48.2915 26.4505 47.9977 26.1366 47.6234 25.8991C47.2491 25.6577 46.8225 25.5369 46.3436 25.5369ZM55.2474 34.9666C54.9174 34.9666 54.6337 34.8499 54.3962 34.6165C54.1588 34.379 54.04 34.0933 54.04 33.7592C54.04 33.4292 54.1588 33.1475 54.3962 32.9141C54.6337 32.6766 54.9174 32.5579 55.2474 32.5579C55.5774 32.5579 55.8612 32.6766 56.0986 32.9141C56.3361 33.1475 56.4548 33.4292 56.4548 33.7592C56.4548 33.9806 56.3985 34.1838 56.2858 34.369C56.1771 34.5501 56.0322 34.695 55.8511 34.8036C55.67 34.9123 55.4688 34.9666 55.2474 34.9666ZM55.2474 28.7727C54.9174 28.7727 54.6337 28.656 54.3962 28.4226C54.1588 28.1851 54.04 27.8994 54.04 27.5653C54.04 27.2353 54.1588 26.9536 54.3962 26.7202C54.6337 26.4827 54.9174 26.364 55.2474 26.364C55.5774 26.364 55.8612 26.4827 56.0986 26.7202C56.3361 26.9536 56.4548 27.2353 56.4548 27.5653C56.4548 27.7867 56.3985 27.9899 56.2858 28.1751C56.1771 28.3562 56.0322 28.5011 55.8511 28.6097C55.67 28.7184 55.4688 28.7727 55.2474 28.7727ZM59.5889 34.0852V32.576L64.9316 24.1364H66.1208V26.358H65.3662L61.5448 32.407V32.5036H68.8676V34.0852H59.5889ZM65.4507 36.5V33.6264L65.4628 32.9382V24.1364H67.2316V36.5H65.4507ZM76.4962 24.1364V36.5H74.6247V26.0078H74.5523L71.5942 27.9396V26.1527L74.6791 24.1364H76.4962Z" fill="black" style="fill:black;fill-opacity:1;"/>
<rect x="333.801" y="25.3629" width="21.7613" height="9.2687" rx="2.2737" fill="black" style="fill:black;fill-opacity:1;"/>
<path d="M359.186 27.5112V32.3471C359.186 32.3471 360.999 31.4241 360.999 29.9292C360.999 28.4342 359.186 27.5112 359.186 27.5112Z" fill="white" fill-opacity="0.36" style="fill:white;fill-opacity:0.36;"/>
<path d="M335.72 23.0482H353.639C355.147 23.0482 355.695 23.2053 356.246 23.5004C356.798 23.7954 357.231 24.2283 357.526 24.78C357.821 25.3316 357.978 25.8788 357.978 27.3877V32.6118C357.978 34.1207 357.821 34.6679 357.526 35.2195C357.231 35.7712 356.798 36.2041 356.246 36.4991C355.695 36.7942 355.147 36.9513 353.639 36.9513H335.72C334.211 36.9513 333.664 36.7942 333.113 36.4991C332.561 36.2041 332.128 35.7712 331.833 35.2195C331.538 34.6679 331.381 34.1207 331.381 32.6118V27.3877C331.381 25.8788 331.538 25.3316 331.833 24.78C332.128 24.2283 332.561 23.7954 333.113 23.5004C333.664 23.2053 334.211 23.0482 335.72 23.0482Z" fill="white" fill-opacity="0.36" style="fill:white;fill-opacity:0.36;"/>
<rect x="280.004" y="31.1001" width="3.62688" height="4.83585" rx="1.70527" fill="black" style="fill:black;fill-opacity:1;"/>
<rect x="285.631" y="28.6821" width="3.62688" height="7.25377" rx="1.70527" fill="black" style="fill:black;fill-opacity:1;"/>
<rect opacity="0.2" x="291.258" y="25.9015" width="3.62688" height="10.0344" rx="1.70527" fill="black" style="fill:black;fill-opacity:1;"/>
<rect opacity="0.2" x="296.885" y="23" width="3.62688" height="12.9359" rx="1.70527" fill="black" style="fill:black;fill-opacity:1;"/>
<path opacity="0.2" fill-rule="evenodd" clip-rule="evenodd" d="M316.028 26.1134C318.73 26.1135 321.328 27.1514 323.285 29.0127C323.433 29.1564 323.668 29.1546 323.814 29.0086L325.223 27.5864C325.296 27.5124 325.337 27.4121 325.337 27.3078C325.336 27.2035 325.294 27.1037 325.22 27.0305C320.081 22.106 311.975 22.106 306.836 27.0305C306.762 27.1036 306.719 27.2034 306.719 27.3077C306.718 27.412 306.759 27.5123 306.832 27.5864L308.242 29.0086C308.387 29.1548 308.623 29.1566 308.77 29.0127C310.728 27.1513 313.327 26.1134 316.028 26.1134V26.1134Z" fill="black" style="fill:black;fill-opacity:1;"/>
<path fill-rule="evenodd" clip-rule="evenodd" d="M316.03 30.7408C317.514 30.7407 318.945 31.2924 320.045 32.2886C320.194 32.43 320.428 32.427 320.573 32.2817L321.981 30.8595C322.055 30.7849 322.096 30.6837 322.095 30.5785C322.094 30.4734 322.051 30.373 321.975 30.2999C318.625 27.1835 313.437 27.1835 310.087 30.2999C310.011 30.373 309.968 30.4734 309.967 30.5786C309.966 30.6838 310.007 30.785 310.081 30.8595L311.489 32.2817C311.634 32.427 311.868 32.43 312.017 32.2886C313.116 31.2931 314.546 30.7415 316.03 30.7408V30.7408Z" fill="black" style="fill:black;fill-opacity:1;"/>
<path fill-rule="evenodd" clip-rule="evenodd" d="M318.736 34.1339C318.811 34.06 318.853 33.9583 318.851 33.8529C318.848 33.7474 318.803 33.6475 318.725 33.5768C317.17 32.2615 314.892 32.2615 313.337 33.5768C313.259 33.6474 313.213 33.7473 313.211 33.8528C313.209 33.9582 313.25 34.0599 313.325 34.1339L315.761 36.5911C315.832 36.6633 315.929 36.704 316.031 36.704C316.132 36.704 316.23 36.6633 316.301 36.5911L318.736 34.1339Z" fill="black" style="fill:black;fill-opacity:1;"/>
<rect x="179.027" y="15.0481" width="26.8717" height="26.8717" rx="13.4358" fill="black" style="fill:black;fill-opacity:1;"/>
</svg>
