<svg width="552" height="91" viewBox="0 0 552 91" fill="none" xmlns="http://www.w3.org/2000/svg">
<rect y="46.6316" width="43.5789" height="43.5789" rx="21.7895" fill="url(#paint0_linear_1259_47328)" style=""/>
<path d="M27.648 66.171H25.2364C25.1676 65.7756 25.0408 65.4252 24.8559 65.12C24.6711 64.8105 24.4411 64.5483 24.166 64.3333C23.8909 64.1184 23.5771 63.9572 23.2246 63.8497C22.8764 63.738 22.5002 63.6821 22.0962 63.6821C21.3783 63.6821 20.742 63.8626 20.1875 64.2237C19.633 64.5805 19.1988 65.105 18.885 65.7971C18.5712 66.4849 18.4143 67.3253 18.4143 68.3183C18.4143 69.3285 18.5712 70.1796 18.885 70.8717C19.2031 71.5595 19.6373 72.0797 20.1875 72.4322C20.742 72.7804 21.3761 72.9545 22.0897 72.9545C22.4852 72.9545 22.8549 72.9029 23.1988 72.7997C23.547 72.6922 23.8586 72.5353 24.1338 72.329C24.4132 72.1227 24.6475 71.869 24.8366 71.5681C25.03 71.2672 25.1633 70.9233 25.2364 70.5364L27.648 70.5493C27.5577 71.1769 27.3621 71.7659 27.0612 72.3161C26.7646 72.8663 26.3756 73.3521 25.8941 73.7734C25.4126 74.1904 24.8495 74.5171 24.2047 74.7535C23.5599 74.9856 22.8441 75.1017 22.0575 75.1017C20.8968 75.1017 19.8608 74.833 18.9495 74.2957C18.0381 73.7583 17.3202 72.9824 16.7958 71.9679C16.2714 70.9534 16.0091 69.7369 16.0091 68.3183C16.0091 66.8954 16.2735 65.6788 16.8023 64.6686C17.331 63.6541 18.051 62.8782 18.9624 62.3409C19.8737 61.8035 20.9054 61.5349 22.0575 61.5349C22.7926 61.5349 23.4761 61.638 24.108 61.8444C24.7399 62.0507 25.303 62.3538 25.7974 62.7535C26.2917 63.149 26.698 63.6348 27.0161 64.2108C27.3385 64.7826 27.5491 65.436 27.648 66.171Z" fill="white" style="fill:white;fill-opacity:1;"/>
<path d="M56.8947 90.2106V75.6843C56.8947 82.3831 52.3604 88.0229 46.1935 89.7018C46.08 89.7326 46 89.8352 46 89.9528C46 90.0952 46.1154 90.2106 46.2578 90.2106H56.8947Z" fill="#1B2532" style="fill:#1B2532;fill:color(display-p3 0.1059 0.1451 0.1961);fill-opacity:1;"/>
<path d="M56.8945 34.8632C56.8945 22.6599 56.8945 16.5583 59.2694 11.8973C61.3585 7.79731 64.6918 4.46394 68.7918 2.37491C73.4528 0 79.5544 0 91.7577 0H517.137C529.34 0 535.442 0 540.103 2.37491C544.203 4.46394 547.536 7.79731 549.625 11.8973C552 16.5583 552 22.6599 552 34.8632V55.3474C552 67.5506 552 73.6522 549.625 78.3133C547.536 82.4132 544.203 85.7466 540.103 87.8356C535.442 90.2105 529.34 90.2105 517.137 90.2105H56.8945V34.8632Z" fill="#1B2532" style="fill:#1B2532;fill:color(display-p3 0.1059 0.1451 0.1961);fill-opacity:1;"/>
<path d="M83.1866 19.9385H80.9357C80.8715 19.5694 80.7532 19.2424 80.5807 18.9575C80.4081 18.6686 80.1935 18.4239 79.9367 18.2233C79.6799 18.0227 79.387 17.8722 79.058 17.7719C78.7331 17.6676 78.382 17.6154 78.0049 17.6154C77.3348 17.6154 76.741 17.7839 76.2235 18.121C75.7059 18.454 75.3007 18.9435 75.0078 19.5894C74.7149 20.2314 74.5684 21.0157 74.5684 21.9425C74.5684 22.8854 74.7149 23.6798 75.0078 24.3258C75.3047 24.9677 75.7099 25.4532 76.2235 25.7822C76.741 26.1072 77.3328 26.2697 77.9988 26.2697C78.368 26.2697 78.713 26.2215 79.034 26.1252C79.359 26.0249 79.6498 25.8785 79.9066 25.6859C80.1674 25.4933 80.3861 25.2566 80.5626 24.9757C80.7432 24.6949 80.8675 24.3739 80.9357 24.0128L83.1866 24.0249C83.1023 24.6106 82.9198 25.1603 82.6389 25.6739C82.3621 26.1874 81.999 26.6408 81.5496 27.034C81.1002 27.4232 80.5746 27.7281 79.9728 27.9488C79.371 28.1654 78.703 28.2737 77.9687 28.2737C76.8855 28.2737 75.9185 28.023 75.068 27.5215C74.2174 27.0199 73.5473 26.2957 73.0579 25.3489C72.5684 24.402 72.3236 23.2666 72.3236 21.9425C72.3236 20.6145 72.5704 19.4791 73.0639 18.5362C73.5574 17.5894 74.2294 16.8652 75.08 16.3636C75.9306 15.8621 76.8935 15.6114 77.9687 15.6114C78.6548 15.6114 79.2928 15.7076 79.8825 15.9002C80.4723 16.0928 80.9979 16.3757 81.4593 16.7488C81.9207 17.1179 82.2999 17.5713 82.5968 18.1089C82.8977 18.6425 83.0943 19.2524 83.1866 19.9385ZM87.6256 28.2918C87.0398 28.2918 86.5122 28.1875 86.0428 27.9788C85.5773 27.7662 85.2082 27.4532 84.9354 27.04C84.6666 26.6267 84.5322 26.1172 84.5322 25.5114C84.5322 24.9898 84.6285 24.5585 84.8211 24.2174C85.0136 23.8764 85.2764 23.6036 85.6094 23.399C85.9425 23.1943 86.3176 23.0399 86.7349 22.9356C87.1561 22.8272 87.5915 22.749 88.0408 22.7008C88.5825 22.6447 89.0218 22.5945 89.3588 22.5504C89.6958 22.5022 89.9406 22.43 90.093 22.3337C90.2495 22.2334 90.3277 22.079 90.3277 21.8703V21.8342C90.3277 21.3808 90.1933 21.0298 89.9245 20.781C89.6557 20.5323 89.2685 20.4079 88.763 20.4079C88.2294 20.4079 87.8061 20.5242 87.4932 20.757C87.1842 20.9897 86.9756 21.2645 86.8673 21.5815L84.8331 21.2926C84.9936 20.7309 85.2584 20.2614 85.6275 19.8843C85.9966 19.5032 86.448 19.2183 86.9816 19.0297C87.5152 18.8371 88.105 18.7408 88.751 18.7408C89.1963 18.7408 89.6397 18.793 90.081 18.8973C90.5223 19.0016 90.9256 19.1742 91.2907 19.4149C91.6558 19.6516 91.9487 19.9746 92.1693 20.3838C92.394 20.7931 92.5064 21.3046 92.5064 21.9185V28.1052H90.412V26.8354H90.3398C90.2074 27.0922 90.0208 27.3329 89.7801 27.5576C89.5434 27.7782 89.2445 27.9568 88.8834 28.0932C88.5263 28.2256 88.107 28.2918 87.6256 28.2918ZM88.1913 26.6909C88.6286 26.6909 89.0077 26.6047 89.3287 26.4322C89.6497 26.2556 89.8964 26.0229 90.069 25.734C90.2455 25.4452 90.3338 25.1302 90.3338 24.7892V23.6999C90.2656 23.756 90.1492 23.8082 89.9847 23.8563C89.8242 23.9045 89.6437 23.9466 89.4431 23.9827C89.2425 24.0188 89.0439 24.0509 88.8473 24.079C88.6507 24.1071 88.4801 24.1312 88.3357 24.1512C88.0107 24.1954 87.7198 24.2676 87.4631 24.3679C87.2063 24.4682 87.0037 24.6086 86.8552 24.7892C86.7068 24.9657 86.6325 25.1944 86.6325 25.4753C86.6325 25.8765 86.779 26.1794 87.0719 26.384C87.3648 26.5886 87.7379 26.6909 88.1913 26.6909ZM93.8896 28.1052L93.8775 26.3118H94.1965C94.4372 26.3118 94.6399 26.2576 94.8044 26.1493C94.9689 26.041 95.1053 25.8604 95.2136 25.6077C95.3219 25.3509 95.4062 25.0058 95.4664 24.5725C95.5265 24.1392 95.5687 23.5996 95.5927 22.9536L95.7552 18.8612H102.496V28.1052H100.389V20.6486H97.7352L97.5908 23.6277C97.5547 24.398 97.4684 25.066 97.332 25.6317C97.1996 26.1934 97.011 26.6568 96.7663 27.0219C96.5256 27.387 96.2227 27.6599 95.8575 27.8404C95.4924 28.017 95.0611 28.1052 94.5636 28.1052H93.8896ZM109.84 25.5715L112.584 18.8612H114.342L110.604 28.1052H109.082L105.429 18.8612H107.168L109.84 25.5715ZM106.62 18.8612V28.1052H104.52V18.8612H106.62ZM113.15 28.1052V18.8612H115.232V28.1052H113.15ZM119.92 28.2918C119.334 28.2918 118.806 28.1875 118.337 27.9788C117.871 27.7662 117.502 27.4532 117.229 27.04C116.961 26.6267 116.826 26.1172 116.826 25.5114C116.826 24.9898 116.922 24.5585 117.115 24.2174C117.308 23.8764 117.57 23.6036 117.903 23.399C118.236 23.1943 118.612 23.0399 119.029 22.9356C119.45 22.8272 119.885 22.749 120.335 22.7008C120.876 22.6447 121.316 22.5945 121.653 22.5504C121.99 22.5022 122.235 22.43 122.387 22.3337C122.544 22.2334 122.622 22.079 122.622 21.8703V21.8342C122.622 21.3808 122.487 21.0298 122.219 20.781C121.95 20.5323 121.563 20.4079 121.057 20.4079C120.523 20.4079 120.1 20.5242 119.787 20.757C119.478 20.9897 119.27 21.2645 119.161 21.5815L117.127 21.2926C117.288 20.7309 117.552 20.2614 117.922 19.8843C118.291 19.5032 118.742 19.2183 119.276 19.0297C119.809 18.8371 120.399 18.7408 121.045 18.7408C121.49 18.7408 121.934 18.793 122.375 18.8973C122.816 19.0016 123.22 19.1742 123.585 19.4149C123.95 19.6516 124.243 19.9746 124.463 20.3838C124.688 20.7931 124.8 21.3046 124.8 21.9185V28.1052H122.706V26.8354H122.634C122.501 27.0922 122.315 27.3329 122.074 27.5576C121.837 27.7782 121.538 27.9568 121.177 28.0932C120.82 28.2256 120.401 28.2918 119.92 28.2918ZM120.485 26.6909C120.923 26.6909 121.302 26.6047 121.623 26.4322C121.944 26.2556 122.19 26.0229 122.363 25.734C122.54 25.4452 122.628 25.1302 122.628 24.7892V23.6999C122.56 23.756 122.443 23.8082 122.279 23.8563C122.118 23.9045 121.938 23.9466 121.737 23.9827C121.536 24.0188 121.338 24.0509 121.141 24.079C120.945 24.1071 120.774 24.1312 120.63 24.1512C120.305 24.1954 120.014 24.2676 119.757 24.3679C119.5 24.4682 119.298 24.6086 119.149 24.7892C119.001 24.9657 118.927 25.1944 118.927 25.4753C118.927 25.8765 119.073 26.1794 119.366 26.384C119.659 26.5886 120.032 26.6909 120.485 26.6909ZM133.171 22.5805V24.3679H128.248V22.5805H133.171ZM128.922 18.8612V28.1052H126.822V18.8612H128.922ZM134.597 18.8612V28.1052H132.503V18.8612H134.597ZM140.664 28.2858C139.761 28.2858 138.979 28.0872 138.317 27.69C137.655 27.2928 137.141 26.7371 136.776 26.0229C136.415 25.3087 136.235 24.4742 136.235 23.5193C136.235 22.5644 136.415 21.7279 136.776 21.0097C137.141 20.2915 137.655 19.7339 138.317 19.3366C138.979 18.9394 139.761 18.7408 140.664 18.7408C141.567 18.7408 142.349 18.9394 143.011 19.3366C143.673 19.7339 144.185 20.2915 144.546 21.0097C144.911 21.7279 145.093 22.5644 145.093 23.5193C145.093 24.4742 144.911 25.3087 144.546 26.0229C144.185 26.7371 143.673 27.2928 143.011 27.69C142.349 28.0872 141.567 28.2858 140.664 28.2858ZM140.676 26.5405C141.166 26.5405 141.575 26.4061 141.904 26.1373C142.233 25.8644 142.478 25.4993 142.638 25.0419C142.803 24.5846 142.885 24.075 142.885 23.5133C142.885 22.9476 142.803 22.436 142.638 21.9787C142.478 21.5173 142.233 21.1501 141.904 20.8773C141.575 20.6045 141.166 20.4681 140.676 20.4681C140.175 20.4681 139.757 20.6045 139.424 20.8773C139.095 21.1501 138.849 21.5173 138.684 21.9787C138.524 22.436 138.443 22.9476 138.443 23.5133C138.443 24.075 138.524 24.5846 138.684 25.0419C138.849 25.4993 139.095 25.8644 139.424 26.1373C139.757 26.4061 140.175 26.5405 140.676 26.5405ZM146.773 28.1052V18.8612H150.655C151.75 18.8612 152.615 19.0799 153.249 19.5172C153.887 19.9545 154.206 20.5644 154.206 21.3467C154.206 21.8643 154.025 22.2876 153.664 22.6166C153.307 22.9416 152.819 23.1602 152.202 23.2726C152.687 23.3127 153.112 23.4351 153.477 23.6397C153.847 23.8443 154.135 24.1131 154.344 24.4461C154.553 24.7791 154.657 25.1623 154.657 25.5956C154.657 26.1052 154.523 26.5485 154.254 26.9256C153.989 27.2988 153.602 27.5897 153.092 27.7983C152.587 28.0029 151.973 28.1052 151.251 28.1052H146.773ZM148.813 26.39H151.251C151.652 26.39 151.967 26.2957 152.196 26.1072C152.424 25.9146 152.539 25.6538 152.539 25.3248C152.539 24.9436 152.424 24.6447 152.196 24.4281C151.967 24.2074 151.652 24.0971 151.251 24.0971H148.813V26.39ZM148.813 22.6888H150.697C150.994 22.6888 151.249 22.6467 151.461 22.5624C151.674 22.4742 151.836 22.3518 151.949 22.1953C152.061 22.0348 152.117 21.8442 152.117 21.6236C152.117 21.3066 151.987 21.0579 151.726 20.8773C151.469 20.6968 151.112 20.6065 150.655 20.6065H148.813V22.6888ZM160.416 28.1052V15.7799H165.038C165.985 15.7799 166.779 15.9564 167.421 16.3095C168.067 16.6625 168.555 17.148 168.884 17.7659C169.217 18.3797 169.383 19.0779 169.383 19.8602C169.383 20.6506 169.217 21.3528 168.884 21.9666C168.551 22.5805 168.059 23.0639 167.409 23.417C166.759 23.7661 165.959 23.9406 165.008 23.9406H161.945V22.105H164.707C165.261 22.105 165.714 22.0087 166.067 21.8162C166.42 21.6236 166.681 21.3588 166.85 21.0218C167.022 20.6847 167.108 20.2976 167.108 19.8602C167.108 19.4229 167.022 19.0377 166.85 18.7047C166.681 18.3717 166.418 18.1129 166.061 17.9284C165.708 17.7398 165.253 17.6455 164.695 17.6455H162.649V28.1052H160.416ZM171.82 28.2376C171.455 28.2376 171.142 28.1092 170.881 27.8525C170.62 27.5957 170.492 27.2827 170.496 26.9136C170.492 26.5525 170.62 26.2436 170.881 25.9868C171.142 25.73 171.455 25.6016 171.82 25.6016C172.173 25.6016 172.48 25.73 172.74 25.9868C173.005 26.2436 173.14 26.5525 173.144 26.9136C173.14 27.1584 173.075 27.381 172.951 27.5816C172.831 27.7822 172.67 27.9427 172.47 28.0631C172.273 28.1794 172.056 28.2376 171.82 28.2376ZM175.32 28.1052V15.7799H180.038C180.929 15.7799 181.669 15.9203 182.259 16.2011C182.853 16.478 183.296 16.8571 183.589 17.3386C183.886 17.82 184.034 18.3657 184.034 18.9756C184.034 19.4771 183.938 19.9064 183.745 20.2635C183.553 20.6165 183.294 20.9034 182.969 21.1241C182.644 21.3447 182.281 21.5032 181.88 21.5995V21.7199C182.317 21.7439 182.736 21.8784 183.137 22.1231C183.543 22.3638 183.874 22.7049 184.13 23.1462C184.387 23.5875 184.516 24.1211 184.516 24.747C184.516 25.385 184.361 25.9587 184.052 26.4683C183.743 26.9738 183.278 27.373 182.656 27.6659C182.034 27.9588 181.252 28.1052 180.309 28.1052H175.32ZM177.553 26.2396H179.954C180.764 26.2396 181.348 26.0851 181.705 25.7762C182.066 25.4632 182.247 25.062 182.247 24.5725C182.247 24.2074 182.156 23.8784 181.976 23.5855C181.795 23.2886 181.539 23.0559 181.206 22.8874C180.873 22.7149 180.475 22.6286 180.014 22.6286H177.553V26.2396ZM177.553 21.0218H179.761C180.146 21.0218 180.493 20.9515 180.802 20.8111C181.111 20.6667 181.354 20.4641 181.531 20.2033C181.711 19.9385 181.801 19.6255 181.801 19.2644C181.801 18.787 181.633 18.3938 181.296 18.0849C180.963 17.7759 180.467 17.6214 179.809 17.6214H177.553V21.0218ZM187.534 28.2376C187.169 28.2376 186.856 28.1092 186.595 27.8525C186.335 27.5957 186.206 27.2827 186.21 26.9136C186.206 26.5525 186.335 26.2436 186.595 25.9868C186.856 25.73 187.169 25.6016 187.534 25.6016C187.887 25.6016 188.194 25.73 188.455 25.9868C188.72 26.2436 188.854 26.5525 188.858 26.9136C188.854 27.1584 188.79 27.381 188.666 27.5816C188.545 27.7822 188.385 27.9427 188.184 28.0631C187.988 28.1794 187.771 28.2376 187.534 28.2376Z" fill="#A4CF71" style="fill:#A4CF71;fill:color(display-p3 0.6431 0.8118 0.4431);fill-opacity:1;"/>
<path d="M72.7208 53.5717V40.8612H74.093V42.3297H74.2615C74.3658 42.1692 74.5103 41.9645 74.6948 41.7158C74.8834 41.463 75.1522 41.2383 75.5013 41.0418C75.8543 40.8411 76.3318 40.7408 76.9336 40.7408C77.712 40.7408 78.398 40.9354 78.9918 41.3246C79.5856 41.7138 80.0491 42.2655 80.3821 42.9796C80.7151 43.6938 80.8816 44.5363 80.8816 45.5073C80.8816 46.4863 80.7151 47.3348 80.3821 48.053C80.0491 48.7672 79.5877 49.3208 78.9979 49.714C78.4081 50.1032 77.728 50.2978 76.9577 50.2978C76.3639 50.2978 75.8884 50.1995 75.5314 50.0029C75.1743 49.8023 74.8994 49.5756 74.7069 49.3229C74.5143 49.0661 74.3658 48.8534 74.2615 48.6849H74.1411V53.5717H72.7208ZM74.1171 45.4832C74.1171 46.1813 74.2194 46.7972 74.424 47.3308C74.6286 47.8604 74.9275 48.2757 75.3207 48.5766C75.7139 48.8735 76.1954 49.0219 76.7651 49.0219C77.3589 49.0219 77.8544 48.8655 78.2516 48.5525C78.6528 48.2356 78.9537 47.8103 79.1543 47.2767C79.359 46.739 79.4613 46.1412 79.4613 45.4832C79.4613 44.8332 79.361 44.2475 79.1604 43.7259C78.9638 43.2003 78.6649 42.785 78.2636 42.4801C77.8664 42.1712 77.3669 42.0167 76.7651 42.0167C76.1873 42.0167 75.7019 42.1632 75.3087 42.456C74.9155 42.7449 74.6186 43.1501 74.418 43.6717C74.2174 44.1893 74.1171 44.7931 74.1171 45.4832ZM85.4294 50.3219C84.8437 50.3219 84.3121 50.2115 83.8346 49.9909C83.3572 49.7662 82.978 49.4432 82.6972 49.0219C82.4163 48.5967 82.2759 48.0831 82.2759 47.4813C82.2759 46.9517 82.3802 46.5224 82.5888 46.1934C82.7975 45.8604 83.0763 45.5996 83.4254 45.411C83.7744 45.2224 84.1596 45.082 84.5809 44.9897C85.0062 44.8934 85.4335 44.8172 85.8628 44.761C86.4245 44.6888 86.8798 44.6346 87.2289 44.5985C87.582 44.5584 87.8387 44.4922 87.9992 44.3999C88.1637 44.3077 88.246 44.1472 88.246 43.9185V43.8703C88.246 43.2765 88.0835 42.8151 87.7585 42.4861C87.4375 42.1571 86.95 41.9926 86.2961 41.9926C85.618 41.9926 85.0864 42.1411 84.7012 42.438C84.3161 42.7349 84.0452 43.0518 83.8888 43.3889L82.5407 42.9074C82.7814 42.3457 83.1024 41.9084 83.5036 41.5954C83.9088 41.2785 84.3502 41.0578 84.8276 40.9334C85.3091 40.805 85.7825 40.7408 86.2479 40.7408C86.5448 40.7408 86.8859 40.7769 87.271 40.8492C87.6602 40.9174 88.0353 41.0598 88.3964 41.2765C88.7615 41.4931 89.0645 41.8201 89.3052 42.2574C89.5459 42.6948 89.6663 43.2805 89.6663 44.0148V50.1052H88.246V48.8534H88.1738C88.0775 49.054 87.917 49.2687 87.6923 49.4974C87.4676 49.7261 87.1687 49.9207 86.7956 50.0812C86.4224 50.2416 85.9671 50.3219 85.4294 50.3219ZM85.6461 49.046C86.2078 49.046 86.6812 48.9357 87.0664 48.715C87.4556 48.4943 87.7485 48.2095 87.9451 47.8604C88.1457 47.5114 88.246 47.1442 88.246 46.7591V45.4591C88.1858 45.5314 88.0534 45.5976 87.8488 45.6577C87.6482 45.7139 87.4155 45.7641 87.1507 45.8082C86.8899 45.8483 86.6351 45.8844 86.3863 45.9165C86.1416 45.9446 85.943 45.9687 85.7905 45.9887C85.4214 46.0369 85.0764 46.1151 84.7554 46.2235C84.4384 46.3278 84.1817 46.4863 83.9851 46.6989C83.7925 46.9075 83.6962 47.1924 83.6962 47.5535C83.6962 48.047 83.8787 48.4201 84.2438 48.6729C84.613 48.9216 85.0804 49.046 85.6461 49.046ZM98.1064 44.8332V46.1573H93.003V44.8332H98.1064ZM93.34 40.8612V50.1052H91.9197V40.8612H93.34ZM99.1897 40.8612V50.1052H97.7694V40.8612H99.1897ZM102.672 44.2073H105.32C106.404 44.2073 107.232 44.4822 107.806 45.0318C108.38 45.5815 108.667 46.2776 108.667 47.1202C108.667 47.6739 108.538 48.1774 108.281 48.6308C108.025 49.0801 107.647 49.4392 107.15 49.708C106.652 49.9728 106.043 50.1052 105.32 50.1052H101.445V40.8612H102.865V48.7812H105.32C105.882 48.7812 106.343 48.6328 106.705 48.3359C107.066 48.039 107.246 47.6578 107.246 47.1924C107.246 46.7029 107.066 46.3037 106.705 45.9948C106.343 45.6858 105.882 45.5314 105.32 45.5314H102.672V44.2073ZM110.49 40.8612H111.91V48.7812H115.401V40.8612H116.821V48.7812H120.311V40.8612H121.732V50.1052H110.49V40.8612ZM127.862 50.2978C126.972 50.2978 126.203 50.1012 125.557 49.708C124.915 49.3108 124.42 48.7571 124.071 48.047C123.726 47.3328 123.553 46.5023 123.553 45.5554C123.553 44.6086 123.726 43.774 124.071 43.0518C124.42 42.3256 124.905 41.7599 125.527 41.3547C126.153 40.9455 126.883 40.7408 127.718 40.7408C128.199 40.7408 128.675 40.8211 129.144 40.9816C129.614 41.1421 130.041 41.4028 130.426 41.7639C130.811 42.121 131.118 42.5945 131.347 43.1842C131.576 43.774 131.69 44.5002 131.69 45.3628V45.9647H124.564V44.737H130.246C130.246 44.2154 130.141 43.75 129.933 43.3407C129.728 42.9315 129.435 42.6085 129.054 42.3718C128.677 42.1351 128.231 42.0167 127.718 42.0167C127.152 42.0167 126.663 42.1571 126.249 42.438C125.84 42.7148 125.525 43.0759 125.305 43.5213C125.084 43.9666 124.974 44.4441 124.974 44.9536V45.7721C124.974 46.4702 125.094 47.062 125.335 47.5475C125.579 48.0289 125.918 48.396 126.352 48.6488C126.785 48.8976 127.289 49.0219 127.862 49.0219C128.236 49.0219 128.573 48.9698 128.873 48.8655C129.178 48.7571 129.441 48.5967 129.662 48.384C129.882 48.1674 130.053 47.8985 130.173 47.5776L131.546 47.9627C131.401 48.4281 131.158 48.8374 130.817 49.1905C130.476 49.5395 130.055 49.8123 129.554 50.0089C129.052 50.2015 128.488 50.2978 127.862 50.2978ZM137.939 50.1052V40.8612H141.719C142.714 40.8612 143.504 41.0859 144.09 41.5352C144.675 41.9846 144.968 42.5784 144.968 43.3166C144.968 43.8784 144.802 44.3137 144.469 44.6226C144.136 44.9275 143.709 45.1342 143.187 45.2425C143.528 45.2906 143.859 45.411 144.18 45.6036C144.505 45.7962 144.774 46.061 144.986 46.398C145.199 46.731 145.305 47.1402 145.305 47.6257C145.305 48.0991 145.185 48.5224 144.944 48.8956C144.704 49.2687 144.359 49.5636 143.909 49.7802C143.46 49.9969 142.922 50.1052 142.296 50.1052H137.939ZM139.287 48.8053H142.296C142.786 48.8053 143.169 48.6889 143.446 48.4562C143.723 48.2235 143.861 47.9066 143.861 47.5053C143.861 47.0279 143.723 46.6528 143.446 46.3799C143.169 46.1031 142.786 45.9647 142.296 45.9647H139.287V48.8053ZM139.287 44.737H141.719C142.1 44.737 142.427 44.6848 142.7 44.5805C142.972 44.4722 143.181 44.3197 143.325 44.1231C143.474 43.9225 143.548 43.6858 143.548 43.4129C143.548 43.0238 143.386 42.7188 143.061 42.4982C142.736 42.2735 142.288 42.1611 141.719 42.1611H139.287V44.737ZM148.537 48.0109L152.99 40.8612H154.627V50.1052H153.207V42.9556L148.778 50.1052H147.116V40.8612H148.537V48.0109ZM155.903 52.7533V48.7812H156.673C156.862 48.5846 157.024 48.372 157.16 48.1433C157.297 47.9146 157.415 47.6438 157.516 47.3308C157.62 47.0139 157.708 46.6287 157.78 46.1753C157.853 45.7179 157.917 45.1663 157.973 44.5203L158.286 40.8612H164.16V48.7812H165.58V52.7533H164.16V50.1052H157.323V52.7533H155.903ZM158.286 48.7812H162.739V42.1852H159.61L159.369 44.5203C159.269 45.4872 159.145 46.3318 158.996 47.054C158.848 47.7762 158.611 48.3519 158.286 48.7812ZM171.002 50.2978C170.111 50.2978 169.343 50.1012 168.697 49.708C168.055 49.3108 167.56 48.7571 167.211 48.047C166.865 47.3328 166.693 46.5023 166.693 45.5554C166.693 44.6086 166.865 43.774 167.211 43.0518C167.56 42.3256 168.045 41.7599 168.667 41.3547C169.293 40.9455 170.023 40.7408 170.858 40.7408C171.339 40.7408 171.814 40.8211 172.284 40.9816C172.753 41.1421 173.181 41.4028 173.566 41.7639C173.951 42.121 174.258 42.5945 174.487 43.1842C174.715 43.774 174.83 44.5002 174.83 45.3628V45.9647H167.704V44.737H173.385C173.385 44.2154 173.281 43.75 173.072 43.3407C172.868 42.9315 172.575 42.6085 172.194 42.3718C171.817 42.1351 171.371 42.0167 170.858 42.0167C170.292 42.0167 169.802 42.1571 169.389 42.438C168.98 42.7148 168.665 43.0759 168.444 43.5213C168.224 43.9666 168.113 44.4441 168.113 44.9536V45.7721C168.113 46.4702 168.234 47.062 168.474 47.5475C168.719 48.0289 169.058 48.396 169.491 48.6488C169.925 48.8976 170.428 49.0219 171.002 49.0219C171.375 49.0219 171.712 48.9698 172.013 48.8655C172.318 48.7571 172.581 48.5967 172.801 48.384C173.022 48.1674 173.193 47.8985 173.313 47.5776L174.685 47.9627C174.541 48.4281 174.298 48.8374 173.957 49.1905C173.616 49.5395 173.195 49.8123 172.693 50.0089C172.192 50.2015 171.628 50.2978 171.002 50.2978ZM175.833 50.1052V48.7812H176.17C176.447 48.7812 176.677 48.727 176.862 48.6187C177.046 48.5064 177.195 48.3118 177.307 48.0349C177.424 47.7541 177.512 47.3649 177.572 46.8674C177.636 46.3659 177.682 45.728 177.71 44.9536L177.879 40.8612H184.042V50.1052H182.621V42.1852H179.227L179.083 45.4832C179.051 46.2415 178.982 46.9095 178.878 47.4873C178.778 48.061 178.623 48.5425 178.415 48.9317C178.21 49.3208 177.937 49.6137 177.596 49.8103C177.255 50.0069 176.828 50.1052 176.314 50.1052H175.833ZM194.491 50.2978C193.625 50.2978 192.879 50.0932 192.253 49.6839C191.627 49.2747 191.145 48.711 190.808 47.9928C190.471 47.2746 190.303 46.4542 190.303 45.5314C190.303 44.5925 190.475 43.764 190.82 43.0458C191.169 42.3236 191.655 41.7599 192.277 41.3547C192.903 40.9455 193.633 40.7408 194.467 40.7408C195.117 40.7408 195.703 40.8612 196.225 41.1019C196.746 41.3427 197.174 41.6797 197.507 42.113C197.84 42.5463 198.046 43.0518 198.126 43.6296H196.706C196.598 43.2083 196.357 42.8352 195.984 42.5102C195.615 42.1812 195.117 42.0167 194.491 42.0167C193.938 42.0167 193.452 42.1611 193.035 42.45C192.622 42.7349 192.299 43.1381 192.066 43.6597C191.837 44.1773 191.723 44.7851 191.723 45.4832C191.723 46.1974 191.835 46.8193 192.06 47.3489C192.289 47.8785 192.61 48.2897 193.023 48.5826C193.44 48.8755 193.93 49.0219 194.491 49.0219C194.861 49.0219 195.196 48.9577 195.497 48.8294C195.797 48.701 196.052 48.5164 196.261 48.2757C196.469 48.0349 196.618 47.7461 196.706 47.4091H198.126C198.046 47.9547 197.848 48.4462 197.531 48.8835C197.218 49.3168 196.802 49.6619 196.285 49.9187C195.771 50.1714 195.174 50.2978 194.491 50.2978ZM199.864 53.5717V40.8612H201.236V42.3297H201.405C201.509 42.1692 201.653 41.9645 201.838 41.7158C202.026 41.463 202.295 41.2383 202.644 41.0418C202.997 40.8411 203.475 40.7408 204.077 40.7408C204.855 40.7408 205.541 40.9354 206.135 41.3246C206.729 41.7138 207.192 42.2655 207.525 42.9796C207.858 43.6938 208.025 44.5363 208.025 45.5073C208.025 46.4863 207.858 47.3348 207.525 48.053C207.192 48.7672 206.731 49.3208 206.141 49.714C205.551 50.1032 204.871 50.2978 204.101 50.2978C203.507 50.2978 203.031 50.1995 202.674 50.0029C202.317 49.8023 202.042 49.5756 201.85 49.3229C201.657 49.0661 201.509 48.8534 201.405 48.6849H201.284V53.5717H199.864ZM201.26 45.4832C201.26 46.1813 201.362 46.7972 201.567 47.3308C201.772 47.8604 202.071 48.2757 202.464 48.5766C202.857 48.8735 203.338 49.0219 203.908 49.0219C204.502 49.0219 204.997 48.8655 205.395 48.5525C205.796 48.2356 206.097 47.8103 206.297 47.2767C206.502 46.739 206.604 46.1412 206.604 45.4832C206.604 44.8332 206.504 44.2475 206.303 43.7259C206.107 43.2003 205.808 42.785 205.407 42.4801C205.009 42.1712 204.51 42.0167 203.908 42.0167C203.33 42.0167 202.845 42.1632 202.452 42.456C202.058 42.7449 201.762 43.1501 201.561 43.6717C201.36 44.1893 201.26 44.7931 201.26 45.4832ZM212.572 50.3219C211.987 50.3219 211.455 50.2115 210.978 49.9909C210.5 49.7662 210.121 49.4432 209.84 49.0219C209.559 48.5967 209.419 48.0831 209.419 47.4813C209.419 46.9517 209.523 46.5224 209.732 46.1934C209.94 45.8604 210.219 45.5996 210.568 45.411C210.917 45.2224 211.303 45.082 211.724 44.9897C212.149 44.8934 212.576 44.8172 213.006 44.761C213.567 44.6888 214.023 44.6346 214.372 44.5985C214.725 44.5584 214.982 44.4922 215.142 44.3999C215.307 44.3077 215.389 44.1472 215.389 43.9185V43.8703C215.389 43.2765 215.226 42.8151 214.901 42.4861C214.581 42.1571 214.093 41.9926 213.439 41.9926C212.761 41.9926 212.229 42.1411 211.844 42.438C211.459 42.7349 211.188 43.0518 211.032 43.3889L209.684 42.9074C209.924 42.3457 210.245 41.9084 210.647 41.5954C211.052 41.2785 211.493 41.0578 211.971 40.9334C212.452 40.805 212.926 40.7408 213.391 40.7408C213.688 40.7408 214.029 40.7769 214.414 40.8492C214.803 40.9174 215.178 41.0598 215.539 41.2765C215.905 41.4931 216.207 41.8201 216.448 42.2574C216.689 42.6948 216.809 43.2805 216.809 44.0148V50.1052H215.389V48.8534H215.317C215.22 49.054 215.06 49.2687 214.835 49.4974C214.611 49.7261 214.312 49.9207 213.939 50.0812C213.565 50.2416 213.11 50.3219 212.572 50.3219ZM212.789 49.046C213.351 49.046 213.824 48.9357 214.209 48.715C214.599 48.4943 214.891 48.2095 215.088 47.8604C215.289 47.5114 215.389 47.1442 215.389 46.7591V45.4591C215.329 45.5314 215.196 45.5976 214.992 45.6577C214.791 45.7139 214.558 45.7641 214.294 45.8082C214.033 45.8483 213.778 45.8844 213.529 45.9165C213.285 45.9446 213.086 45.9687 212.934 45.9887C212.564 46.0369 212.219 46.1151 211.898 46.2235C211.581 46.3278 211.325 46.4863 211.128 46.6989C210.935 46.9075 210.839 47.1924 210.839 47.5535C210.839 48.047 211.022 48.4201 211.387 48.6729C211.756 48.9216 212.223 49.046 212.789 49.046ZM218.485 47.7461H220.002C220.034 48.1633 220.222 48.4803 220.567 48.697C220.916 48.9136 221.37 49.0219 221.927 49.0219C222.497 49.0219 222.985 48.9056 223.39 48.6729C223.795 48.4362 223.998 48.055 223.998 47.5294C223.998 47.2205 223.921 46.9517 223.769 46.723C223.616 46.4903 223.402 46.3097 223.125 46.1813C222.848 46.0529 222.521 45.9887 222.144 45.9887H220.555V44.7129H222.144C222.71 44.7129 223.127 44.5845 223.396 44.3277C223.669 44.0709 223.805 43.75 223.805 43.3648C223.805 42.9515 223.659 42.6205 223.366 42.3718C223.073 42.119 222.658 41.9926 222.12 41.9926C221.578 41.9926 221.127 42.115 220.766 42.3597C220.405 42.6005 220.214 42.9114 220.194 43.2926H218.702C218.718 42.7951 218.87 42.3557 219.159 41.9746C219.448 41.5894 219.841 41.2885 220.339 41.0718C220.836 40.8512 221.406 40.7408 222.048 40.7408C222.698 40.7408 223.261 40.8552 223.739 41.0839C224.22 41.3086 224.591 41.6155 224.852 42.0047C225.117 42.3898 225.249 42.8272 225.249 43.3166C225.249 43.8382 225.103 44.2595 224.81 44.5805C224.517 44.9015 224.15 45.1301 223.709 45.2666V45.3628C224.058 45.3869 224.361 45.4993 224.618 45.6999C224.878 45.8965 225.081 46.1553 225.225 46.4762C225.37 46.7932 225.442 47.1442 225.442 47.5294C225.442 48.0911 225.292 48.5806 224.991 48.9979C224.69 49.4111 224.277 49.7321 223.751 49.9608C223.225 50.1855 222.625 50.2978 221.951 50.2978C221.297 50.2978 220.712 50.1915 220.194 49.9788C219.677 49.7622 219.265 49.4633 218.96 49.0821C218.659 48.697 218.501 48.2516 218.485 47.7461ZM228.013 53.5717C227.772 53.5717 227.558 53.5517 227.369 53.5115C227.18 53.4754 227.05 53.4393 226.978 53.4032L227.339 52.1514C227.684 52.2397 227.989 52.2718 228.254 52.2477C228.518 52.2236 228.753 52.1053 228.958 51.8926C229.166 51.684 229.357 51.345 229.529 50.8756L229.794 50.1534L226.376 40.8612H227.917L230.468 48.2275H230.565L233.116 40.8612H234.657L230.733 51.4533C230.557 51.9308 230.338 52.326 230.077 52.6389C229.816 52.9559 229.513 53.1906 229.168 53.343C228.827 53.4955 228.442 53.5717 228.013 53.5717ZM240.62 50.1052V40.8612H244.4C245.395 40.8612 246.185 41.0859 246.771 41.5352C247.357 41.9846 247.65 42.5784 247.65 43.3166C247.65 43.8784 247.483 44.3137 247.15 44.6226C246.817 44.9275 246.39 45.1342 245.868 45.2425C246.209 45.2906 246.54 45.411 246.861 45.6036C247.186 45.7962 247.455 46.061 247.668 46.398C247.88 46.731 247.987 47.1402 247.987 47.6257C247.987 48.0991 247.866 48.5224 247.626 48.8956C247.385 49.2687 247.04 49.5636 246.59 49.7802C246.141 49.9969 245.603 50.1052 244.977 50.1052H240.62ZM241.968 48.8053H244.977C245.467 48.8053 245.85 48.6889 246.127 48.4562C246.404 48.2235 246.542 47.9066 246.542 47.5053C246.542 47.0279 246.404 46.6528 246.127 46.3799C245.85 46.1031 245.467 45.9647 244.977 45.9647H241.968V48.8053ZM241.968 44.737H244.4C244.781 44.737 245.108 44.6848 245.381 44.5805C245.654 44.4722 245.862 44.3197 246.007 44.1231C246.155 43.9225 246.229 43.6858 246.229 43.4129C246.229 43.0238 246.067 42.7188 245.742 42.4982C245.417 42.2735 244.969 42.1611 244.4 42.1611H241.968V44.737ZM253.673 50.2978C252.783 50.2978 252.014 50.1012 251.368 49.708C250.726 49.3108 250.231 48.7571 249.882 48.047C249.537 47.3328 249.364 46.5023 249.364 45.5554C249.364 44.6086 249.537 43.774 249.882 43.0518C250.231 42.3256 250.716 41.7599 251.338 41.3547C251.964 40.9455 252.694 40.7408 253.529 40.7408C254.01 40.7408 254.486 40.8211 254.955 40.9816C255.425 41.1421 255.852 41.4028 256.237 41.7639C256.622 42.121 256.929 42.5945 257.158 43.1842C257.387 43.774 257.501 44.5002 257.501 45.3628V45.9647H250.375V44.737H256.057C256.057 44.2154 255.952 43.75 255.744 43.3407C255.539 42.9315 255.246 42.6085 254.865 42.3718C254.488 42.1351 254.043 42.0167 253.529 42.0167C252.963 42.0167 252.474 42.1571 252.061 42.438C251.651 42.7148 251.336 43.0759 251.116 43.5213C250.895 43.9666 250.785 44.4441 250.785 44.9536V45.7721C250.785 46.4702 250.905 47.062 251.146 47.5475C251.39 48.0289 251.73 48.396 252.163 48.6488C252.596 48.8976 253.1 49.0219 253.673 49.0219C254.047 49.0219 254.384 48.9698 254.684 48.8655C254.989 48.7571 255.252 48.5967 255.473 48.384C255.694 48.1674 255.864 47.8985 255.984 47.5776L257.357 47.9627C257.212 48.4281 256.969 48.8374 256.628 49.1905C256.287 49.5395 255.866 49.8123 255.365 50.0089C254.863 50.2015 254.299 50.2978 253.673 50.2978ZM263.078 50.2978C262.211 50.2978 261.465 50.0932 260.839 49.6839C260.213 49.2747 259.732 48.711 259.395 47.9928C259.058 47.2746 258.889 46.4542 258.889 45.5314C258.889 44.5925 259.062 43.764 259.407 43.0458C259.756 42.3236 260.241 41.7599 260.863 41.3547C261.489 40.9455 262.219 40.7408 263.054 40.7408C263.704 40.7408 264.29 40.8612 264.811 41.1019C265.333 41.3427 265.76 41.6797 266.093 42.113C266.426 42.5463 266.633 43.0518 266.713 43.6296H265.293C265.184 43.2083 264.944 42.8352 264.571 42.5102C264.201 42.1812 263.704 42.0167 263.078 42.0167C262.524 42.0167 262.039 42.1611 261.622 42.45C261.208 42.7349 260.885 43.1381 260.653 43.6597C260.424 44.1773 260.31 44.7851 260.31 45.4832C260.31 46.1974 260.422 46.8193 260.647 47.3489C260.875 47.8785 261.196 48.2897 261.61 48.5826C262.027 48.8755 262.516 49.0219 263.078 49.0219C263.447 49.0219 263.782 48.9577 264.083 48.8294C264.384 48.701 264.639 48.5164 264.847 48.2757C265.056 48.0349 265.204 47.7461 265.293 47.4091H266.713C266.633 47.9547 266.434 48.4462 266.117 48.8835C265.804 49.3168 265.389 49.6619 264.871 49.9187C264.358 50.1714 263.76 50.2978 263.078 50.2978ZM269.678 44.2073H272.326C273.409 44.2073 274.238 44.4822 274.812 45.0318C275.385 45.5815 275.672 46.2776 275.672 47.1202C275.672 47.6739 275.544 48.1774 275.287 48.6308C275.03 49.0801 274.653 49.4392 274.156 49.708C273.658 49.9728 273.048 50.1052 272.326 50.1052H268.45V40.8612H269.871V48.7812H272.326C272.888 48.7812 273.349 48.6328 273.71 48.3359C274.071 48.039 274.252 47.6578 274.252 47.1924C274.252 46.7029 274.071 46.3037 273.71 45.9948C273.349 45.6858 272.888 45.5314 272.326 45.5314H269.678V44.2073ZM281.923 53.5717V40.8612H283.295V42.3297H283.464C283.568 42.1692 283.712 41.9645 283.897 41.7158C284.085 41.463 284.354 41.2383 284.703 41.0418C285.056 40.8411 285.534 40.7408 286.136 40.7408C286.914 40.7408 287.6 40.9354 288.194 41.3246C288.788 41.7138 289.251 42.2655 289.584 42.9796C289.917 43.6938 290.084 44.5363 290.084 45.5073C290.084 46.4863 289.917 47.3348 289.584 48.053C289.251 48.7672 288.79 49.3208 288.2 49.714C287.61 50.1032 286.93 50.2978 286.16 50.2978C285.566 50.2978 285.09 50.1995 284.733 50.0029C284.376 49.8023 284.101 49.5756 283.909 49.3229C283.716 49.0661 283.568 48.8534 283.464 48.6849H283.343V53.5717H281.923ZM283.319 45.4832C283.319 46.1813 283.421 46.7972 283.626 47.3308C283.831 47.8604 284.13 48.2757 284.523 48.5766C284.916 48.8735 285.397 49.0219 285.967 49.0219C286.561 49.0219 287.056 48.8655 287.454 48.5525C287.855 48.2356 288.156 47.8103 288.356 47.2767C288.561 46.739 288.663 46.1412 288.663 45.4832C288.663 44.8332 288.563 44.2475 288.362 43.7259C288.166 43.2003 287.867 42.785 287.466 42.4801C287.068 42.1712 286.569 42.0167 285.967 42.0167C285.389 42.0167 284.904 42.1632 284.511 42.456C284.118 42.7449 283.821 43.1501 283.62 43.6717C283.419 44.1893 283.319 44.7931 283.319 45.4832ZM297.472 50.1052V42.1611H295.017C294.463 42.1611 294.028 42.2895 293.711 42.5463C293.394 42.8031 293.235 43.1562 293.235 43.6055C293.235 44.0469 293.378 44.3939 293.663 44.6467C293.951 44.8994 294.347 45.0258 294.848 45.0258H297.833V46.3498H294.848C294.222 46.3498 293.683 46.2395 293.229 46.0188C292.776 45.7982 292.427 45.4832 292.182 45.074C291.937 44.6607 291.815 44.1712 291.815 43.6055C291.815 43.0358 291.943 42.5463 292.2 42.1371C292.457 41.7278 292.824 41.4129 293.301 41.1922C293.783 40.9715 294.355 40.8612 295.017 40.8612H298.82V50.1052H297.472ZM291.309 50.1052L293.933 45.5073H295.474L292.85 50.1052H291.309ZM300.102 52.7533V48.7812H300.872C301.061 48.5846 301.223 48.372 301.359 48.1433C301.496 47.9146 301.614 47.6438 301.715 47.3308C301.819 47.0139 301.907 46.6287 301.979 46.1753C302.052 45.7179 302.116 45.1663 302.172 44.5203L302.485 40.8612H308.359V48.7812H309.779V52.7533H308.359V50.1052H301.522V52.7533H300.102ZM302.485 48.7812H306.938V42.1852H303.809L303.568 44.5203C303.468 45.4872 303.343 46.3318 303.195 47.054C303.047 47.7762 302.81 48.3519 302.485 48.7812ZM315.753 50.1052V40.8612H323.023V50.1052H321.602V42.1852H317.173V50.1052H315.753ZM329.033 50.2978C328.199 50.2978 327.466 50.0992 326.836 49.702C326.211 49.3048 325.721 48.7491 325.368 48.0349C325.019 47.3208 324.844 46.4863 324.844 45.5314C324.844 44.5684 325.019 43.7279 325.368 43.0097C325.721 42.2915 326.211 41.7339 326.836 41.3366C327.466 40.9394 328.199 40.7408 329.033 40.7408C329.868 40.7408 330.598 40.9394 331.224 41.3366C331.854 41.7339 332.343 42.2915 332.692 43.0097C333.045 43.7279 333.222 44.5684 333.222 45.5314C333.222 46.4863 333.045 47.3208 332.692 48.0349C332.343 48.7491 331.854 49.3048 331.224 49.702C330.598 50.0992 329.868 50.2978 329.033 50.2978ZM329.033 49.0219C329.667 49.0219 330.189 48.8594 330.598 48.5345C331.007 48.2095 331.31 47.7822 331.507 47.2526C331.703 46.723 331.801 46.1492 331.801 45.5314C331.801 44.9135 331.703 44.3377 331.507 43.8041C331.31 43.2705 331.007 42.8392 330.598 42.5102C330.189 42.1812 329.667 42.0167 329.033 42.0167C328.399 42.0167 327.878 42.1812 327.468 42.5102C327.059 42.8392 326.756 43.2705 326.56 43.8041C326.363 44.3377 326.265 44.9135 326.265 45.5314C326.265 46.1492 326.363 46.723 326.56 47.2526C326.756 47.7822 327.059 48.2095 327.468 48.5345C327.878 48.8594 328.399 49.0219 329.033 49.0219ZM335.051 53.5717V40.8612H336.423V42.3297H336.592C336.696 42.1692 336.84 41.9645 337.025 41.7158C337.213 41.463 337.482 41.2383 337.831 41.0418C338.184 40.8411 338.662 40.7408 339.264 40.7408C340.042 40.7408 340.728 40.9354 341.322 41.3246C341.916 41.7138 342.379 42.2655 342.712 42.9796C343.045 43.6938 343.212 44.5363 343.212 45.5073C343.212 46.4863 343.045 47.3348 342.712 48.053C342.379 48.7672 341.918 49.3208 341.328 49.714C340.738 50.1032 340.058 50.2978 339.288 50.2978C338.694 50.2978 338.218 50.1995 337.861 50.0029C337.504 49.8023 337.229 49.5756 337.037 49.3229C336.844 49.0661 336.696 48.8534 336.592 48.6849H336.471V53.5717H335.051ZM336.447 45.4832C336.447 46.1813 336.549 46.7972 336.754 47.3308C336.959 47.8604 337.258 48.2757 337.651 48.5766C338.044 48.8735 338.525 49.0219 339.095 49.0219C339.689 49.0219 340.184 48.8655 340.582 48.5525C340.983 48.2356 341.284 47.8103 341.484 47.2767C341.689 46.739 341.791 46.1412 341.791 45.4832C341.791 44.8332 341.691 44.2475 341.49 43.7259C341.294 43.2003 340.995 42.785 340.594 42.4801C340.196 42.1712 339.697 42.0167 339.095 42.0167C338.517 42.0167 338.032 42.1632 337.639 42.456C337.246 42.7449 336.949 43.1501 336.748 43.6717C336.547 44.1893 336.447 44.7931 336.447 45.4832ZM343.831 42.1852V40.8612H351.342V42.1852H348.309V50.1052H346.888V42.1852H343.831ZM356.35 50.2978C355.516 50.2978 354.783 50.0992 354.153 49.702C353.528 49.3048 353.038 48.7491 352.685 48.0349C352.336 47.3208 352.161 46.4863 352.161 45.5314C352.161 44.5684 352.336 43.7279 352.685 43.0097C353.038 42.2915 353.528 41.7339 354.153 41.3366C354.783 40.9394 355.516 40.7408 356.35 40.7408C357.185 40.7408 357.915 40.9394 358.541 41.3366C359.171 41.7339 359.66 42.2915 360.009 43.0097C360.362 43.7279 360.539 44.5684 360.539 45.5314C360.539 46.4863 360.362 47.3208 360.009 48.0349C359.66 48.7491 359.171 49.3048 358.541 49.702C357.915 50.0992 357.185 50.2978 356.35 50.2978ZM356.35 49.0219C356.984 49.0219 357.506 48.8594 357.915 48.5345C358.324 48.2095 358.627 47.7822 358.824 47.2526C359.02 46.723 359.118 46.1492 359.118 45.5314C359.118 44.9135 359.02 44.3377 358.824 43.8041C358.627 43.2705 358.324 42.8392 357.915 42.5102C357.506 42.1812 356.984 42.0167 356.35 42.0167C355.716 42.0167 355.195 42.1812 354.785 42.5102C354.376 42.8392 354.073 43.2705 353.877 43.8041C353.68 44.3377 353.582 44.9135 353.582 45.5314C353.582 46.1492 353.68 46.723 353.877 47.2526C354.073 47.7822 354.376 48.2095 354.785 48.5345C355.195 48.8594 355.716 49.0219 356.35 49.0219ZM362.368 50.1052V40.8612H366.147C367.142 40.8612 367.933 41.0859 368.519 41.5352C369.104 41.9846 369.397 42.5784 369.397 43.3166C369.397 43.8784 369.231 44.3137 368.898 44.6226C368.565 44.9275 368.137 45.1342 367.616 45.2425C367.957 45.2906 368.288 45.411 368.609 45.6036C368.934 45.7962 369.203 46.061 369.415 46.398C369.628 46.731 369.734 47.1402 369.734 47.6257C369.734 48.0991 369.614 48.5224 369.373 48.8956C369.132 49.2687 368.787 49.5636 368.338 49.7802C367.889 49.9969 367.351 50.1052 366.725 50.1052H362.368ZM363.716 48.8053H366.725C367.215 48.8053 367.598 48.6889 367.875 48.4562C368.151 48.2235 368.29 47.9066 368.29 47.5053C368.29 47.0279 368.151 46.6528 367.875 46.3799C367.598 46.1031 367.215 45.9647 366.725 45.9647H363.716V48.8053ZM363.716 44.737H366.147C366.529 44.737 366.856 44.6848 367.128 44.5805C367.401 44.4722 367.61 44.3197 367.754 44.1231C367.903 43.9225 367.977 43.6858 367.977 43.4129C367.977 43.0238 367.814 42.7188 367.489 42.4982C367.164 42.2735 366.717 42.1611 366.147 42.1611H363.716V44.737ZM373.664 48.4201L373.567 49.0701C373.499 49.5275 373.395 50.017 373.254 50.5385C373.118 51.0601 372.976 51.5516 372.827 52.013C372.679 52.4744 372.556 52.8415 372.46 53.1143H371.377C371.429 52.8576 371.497 52.5185 371.581 52.0973C371.666 51.676 371.75 51.2046 371.834 50.683C371.922 50.1654 371.995 49.6358 372.051 49.0942L372.123 48.4201H373.664ZM384.139 50.2978C383.273 50.2978 382.526 50.0932 381.9 49.6839C381.274 49.2747 380.793 48.711 380.456 47.9928C380.119 47.2746 379.95 46.4542 379.95 45.5314C379.95 44.5925 380.123 43.764 380.468 43.0458C380.817 42.3236 381.303 41.7599 381.924 41.3547C382.55 40.9455 383.281 40.7408 384.115 40.7408C384.765 40.7408 385.351 40.8612 385.872 41.1019C386.394 41.3427 386.821 41.6797 387.154 42.113C387.487 42.5463 387.694 43.0518 387.774 43.6296H386.354C386.246 43.2083 386.005 42.8352 385.632 42.5102C385.263 42.1812 384.765 42.0167 384.139 42.0167C383.585 42.0167 383.1 42.1611 382.683 42.45C382.269 42.7349 381.947 43.1381 381.714 43.6597C381.485 44.1773 381.371 44.7851 381.371 45.4832C381.371 46.1974 381.483 46.8193 381.708 47.3489C381.936 47.8785 382.257 48.2897 382.671 48.5826C383.088 48.8755 383.577 49.0219 384.139 49.0219C384.508 49.0219 384.843 48.9577 385.144 48.8294C385.445 48.701 385.7 48.5164 385.909 48.2757C386.117 48.0349 386.266 47.7461 386.354 47.4091H387.774C387.694 47.9547 387.495 48.4462 387.178 48.8835C386.865 49.3168 386.45 49.6619 385.933 49.9187C385.419 50.1714 384.821 50.2978 384.139 50.2978ZM393.387 50.2978C392.497 50.2978 391.728 50.1012 391.082 49.708C390.44 49.3108 389.945 48.7571 389.596 48.047C389.251 47.3328 389.078 46.5023 389.078 45.5554C389.078 44.6086 389.251 43.774 389.596 43.0518C389.945 42.3256 390.43 41.7599 391.052 41.3547C391.678 40.9455 392.408 40.7408 393.243 40.7408C393.724 40.7408 394.2 40.8211 394.669 40.9816C395.139 41.1421 395.566 41.4028 395.951 41.7639C396.336 42.121 396.643 42.5945 396.872 43.1842C397.101 43.774 397.215 44.5002 397.215 45.3628V45.9647H390.089V44.737H395.77C395.77 44.2154 395.666 43.75 395.458 43.3407C395.253 42.9315 394.96 42.6085 394.579 42.3718C394.202 42.1351 393.756 42.0167 393.243 42.0167C392.677 42.0167 392.188 42.1571 391.774 42.438C391.365 42.7148 391.05 43.0759 390.83 43.5213C390.609 43.9666 390.499 44.4441 390.499 44.9536V45.7721C390.499 46.4702 390.619 47.062 390.86 47.5475C391.104 48.0289 391.443 48.396 391.877 48.6488C392.31 48.8976 392.814 49.0219 393.387 49.0219C393.76 49.0219 394.097 48.9698 394.398 48.8655C394.703 48.7571 394.966 48.5967 395.187 48.384C395.407 48.1674 395.578 47.8985 395.698 47.5776L397.07 47.9627C396.926 48.4281 396.683 48.8374 396.342 49.1905C396.001 49.5395 395.58 49.8123 395.078 50.0089C394.577 50.2015 394.013 50.2978 393.387 50.2978ZM400.457 48.0109L404.91 40.8612H406.547V50.1052H405.127V42.9556L400.697 50.1052H399.036V40.8612H400.457V48.0109ZM403.971 37.7799H405.295C405.295 38.4298 405.071 38.9614 404.621 39.3747C404.172 39.788 403.562 39.9946 402.792 39.9946C402.034 39.9946 401.43 39.788 400.98 39.3747C400.535 38.9614 400.312 38.4298 400.312 37.7799H401.636C401.636 38.0928 401.723 38.3676 401.895 38.6044C402.072 38.8411 402.371 38.9594 402.792 38.9594C403.213 38.9594 403.514 38.8411 403.695 38.6044C403.879 38.3676 403.971 38.0928 403.971 37.7799ZM415.935 40.8612V50.1052H414.515V40.8612H415.935ZM415.382 45.2666V46.5906C415.061 46.7109 414.742 46.8173 414.425 46.9095C414.108 46.9978 413.775 47.068 413.426 47.1202C413.077 47.1683 412.693 47.1924 412.276 47.1924C411.229 47.1924 410.388 46.9095 409.755 46.3438C409.125 45.7781 408.81 44.9295 408.81 43.7981V40.8371H410.23V43.7981C410.23 44.2715 410.32 44.6607 410.501 44.9656C410.681 45.2706 410.926 45.4973 411.235 45.6457C411.544 45.7942 411.891 45.8684 412.276 45.8684C412.878 45.8684 413.422 45.8142 413.907 45.7059C414.397 45.5935 414.888 45.4471 415.382 45.2666ZM420.922 50.3219C420.337 50.3219 419.805 50.2115 419.328 49.9909C418.85 49.7662 418.471 49.4432 418.19 49.0219C417.909 48.5967 417.769 48.0831 417.769 47.4813C417.769 46.9517 417.873 46.5224 418.082 46.1934C418.29 45.8604 418.569 45.5996 418.918 45.411C419.267 45.2224 419.653 45.082 420.074 44.9897C420.499 44.8934 420.926 44.8172 421.356 44.761C421.917 44.6888 422.373 44.6346 422.722 44.5985C423.075 44.5584 423.332 44.4922 423.492 44.3999C423.657 44.3077 423.739 44.1472 423.739 43.9185V43.8703C423.739 43.2765 423.577 42.8151 423.252 42.4861C422.931 42.1571 422.443 41.9926 421.789 41.9926C421.111 41.9926 420.579 42.1411 420.194 42.438C419.809 42.7349 419.538 43.0518 419.382 43.3889L418.034 42.9074C418.274 42.3457 418.595 41.9084 418.997 41.5954C419.402 41.2785 419.843 41.0578 420.321 40.9334C420.802 40.805 421.276 40.7408 421.741 40.7408C422.038 40.7408 422.379 40.7769 422.764 40.8492C423.153 40.9174 423.528 41.0598 423.889 41.2765C424.255 41.4931 424.557 41.8201 424.798 42.2574C425.039 42.6948 425.159 43.2805 425.159 44.0148V50.1052H423.739V48.8534H423.667C423.57 49.054 423.41 49.2687 423.185 49.4974C422.961 49.7261 422.662 49.9207 422.289 50.0812C421.915 50.2416 421.46 50.3219 420.922 50.3219ZM421.139 49.046C421.701 49.046 422.174 48.9357 422.559 48.715C422.949 48.4943 423.241 48.2095 423.438 47.8604C423.639 47.5114 423.739 47.1442 423.739 46.7591V45.4591C423.679 45.5314 423.546 45.5976 423.342 45.6577C423.141 45.7139 422.908 45.7641 422.644 45.8082C422.383 45.8483 422.128 45.8844 421.879 45.9165C421.635 45.9446 421.436 45.9687 421.284 45.9887C420.914 46.0369 420.569 46.1151 420.248 46.2235C419.931 46.3278 419.675 46.4863 419.478 46.6989C419.286 46.9075 419.189 47.1924 419.189 47.5535C419.189 48.047 419.372 48.4201 419.737 48.6729C420.106 48.9216 420.573 49.046 421.139 49.046ZM431.168 50.2978C430.301 50.2978 429.555 50.0932 428.929 49.6839C428.303 49.2747 427.822 48.711 427.485 47.9928C427.148 47.2746 426.979 46.4542 426.979 45.5314C426.979 44.5925 427.152 43.764 427.497 43.0458C427.846 42.3236 428.331 41.7599 428.953 41.3547C429.579 40.9455 430.309 40.7408 431.144 40.7408C431.794 40.7408 432.38 40.8612 432.901 41.1019C433.423 41.3427 433.85 41.6797 434.183 42.113C434.516 42.5463 434.723 43.0518 434.803 43.6296H433.383C433.274 43.2083 433.034 42.8352 432.661 42.5102C432.291 42.1812 431.794 42.0167 431.168 42.0167C430.614 42.0167 430.129 42.1611 429.712 42.45C429.298 42.7349 428.975 43.1381 428.743 43.6597C428.514 44.1773 428.4 44.7851 428.4 45.4832C428.4 46.1974 428.512 46.8193 428.737 47.3489C428.965 47.8785 429.286 48.2897 429.7 48.5826C430.117 48.8755 430.606 49.0219 431.168 49.0219C431.537 49.0219 431.872 48.9577 432.173 48.8294C432.474 48.701 432.729 48.5164 432.937 48.2757C433.146 48.0349 433.295 47.7461 433.383 47.4091H434.803C434.723 47.9547 434.524 48.4462 434.207 48.8835C433.894 49.3168 433.479 49.6619 432.962 49.9187C432.448 50.1714 431.85 50.2978 431.168 50.2978ZM440.968 50.1052V40.8612H448.238V50.1052H446.818V42.1852H442.388V50.1052H440.968ZM454.248 50.2978C453.414 50.2978 452.682 50.0992 452.052 49.702C451.426 49.3048 450.936 48.7491 450.583 48.0349C450.234 47.3208 450.06 46.4863 450.06 45.5314C450.06 44.5684 450.234 43.7279 450.583 43.0097C450.936 42.2915 451.426 41.7339 452.052 41.3366C452.682 40.9394 453.414 40.7408 454.248 40.7408C455.083 40.7408 455.813 40.9394 456.439 41.3366C457.069 41.7339 457.558 42.2915 457.907 43.0097C458.26 43.7279 458.437 44.5684 458.437 45.5314C458.437 46.4863 458.26 47.3208 457.907 48.0349C457.558 48.7491 457.069 49.3048 456.439 49.702C455.813 50.0992 455.083 50.2978 454.248 50.2978ZM454.248 49.0219C454.882 49.0219 455.404 48.8594 455.813 48.5345C456.222 48.2095 456.525 47.7822 456.722 47.2526C456.918 46.723 457.017 46.1492 457.017 45.5314C457.017 44.9135 456.918 44.3377 456.722 43.8041C456.525 43.2705 456.222 42.8392 455.813 42.5102C455.404 42.1812 454.882 42.0167 454.248 42.0167C453.614 42.0167 453.093 42.1812 452.684 42.5102C452.274 42.8392 451.971 43.2705 451.775 43.8041C451.578 44.3377 451.48 44.9135 451.48 45.5314C451.48 46.1492 451.578 46.723 451.775 47.2526C451.971 47.7822 452.274 48.2095 452.684 48.5345C453.093 48.8594 453.614 49.0219 454.248 49.0219ZM459.448 50.1052V48.7812H459.785C460.062 48.7812 460.292 48.727 460.477 48.6187C460.661 48.5064 460.81 48.3118 460.922 48.0349C461.038 47.7541 461.127 47.3649 461.187 46.8674C461.251 46.3659 461.297 45.728 461.325 44.9536L461.494 40.8612H467.657V50.1052H466.236V42.1852H462.842L462.697 45.4832C462.665 46.2415 462.597 46.9095 462.493 47.4873C462.393 48.061 462.238 48.5425 462.029 48.9317C461.825 49.3208 461.552 49.6137 461.211 49.8103C460.87 50.0069 460.443 50.1052 459.929 50.1052H459.448ZM473.679 50.2978C472.844 50.2978 472.112 50.0992 471.482 49.702C470.856 49.3048 470.367 48.7491 470.014 48.0349C469.665 47.3208 469.49 46.4863 469.49 45.5314C469.49 44.5684 469.665 43.7279 470.014 43.0097C470.367 42.2915 470.856 41.7339 471.482 41.3366C472.112 40.9394 472.844 40.7408 473.679 40.7408C474.513 40.7408 475.244 40.9394 475.869 41.3366C476.499 41.7339 476.989 42.2915 477.338 43.0097C477.691 43.7279 477.868 44.5684 477.868 45.5314C477.868 46.4863 477.691 47.3208 477.338 48.0349C476.989 48.7491 476.499 49.3048 475.869 49.702C475.244 50.0992 474.513 50.2978 473.679 50.2978ZM473.679 49.0219C474.313 49.0219 474.834 48.8594 475.244 48.5345C475.653 48.2095 475.956 47.7822 476.152 47.2526C476.349 46.723 476.447 46.1492 476.447 45.5314C476.447 44.9135 476.349 44.3377 476.152 43.8041C475.956 43.2705 475.653 42.8392 475.244 42.5102C474.834 42.1812 474.313 42.0167 473.679 42.0167C473.045 42.0167 472.523 42.1812 472.114 42.5102C471.705 42.8392 471.402 43.2705 471.205 43.8041C471.009 44.3377 470.91 44.9135 470.91 45.5314C470.91 46.1492 471.009 46.723 471.205 47.2526C471.402 47.7822 471.705 48.2095 472.114 48.5345C472.523 48.8594 473.045 49.0219 473.679 49.0219ZM479.697 50.1052V40.8612H483.476C484.471 40.8612 485.262 41.0859 485.847 41.5352C486.433 41.9846 486.726 42.5784 486.726 43.3166C486.726 43.8784 486.559 44.3137 486.226 44.6226C485.893 44.9275 485.466 45.1342 484.945 45.2425C485.286 45.2906 485.617 45.411 485.938 45.6036C486.263 45.7962 486.531 46.061 486.744 46.398C486.957 46.731 487.063 47.1402 487.063 47.6257C487.063 48.0991 486.943 48.5224 486.702 48.8956C486.461 49.2687 486.116 49.5636 485.667 49.7802C485.217 49.9969 484.68 50.1052 484.054 50.1052H479.697ZM481.045 48.8053H484.054C484.543 48.8053 484.927 48.6889 485.203 48.4562C485.48 48.2235 485.619 47.9066 485.619 47.5053C485.619 47.0279 485.48 46.6528 485.203 46.3799C484.927 46.1031 484.543 45.9647 484.054 45.9647H481.045V48.8053ZM481.045 44.737H483.476C483.857 44.737 484.184 44.6848 484.457 44.5805C484.73 44.4722 484.939 44.3197 485.083 44.1231C485.231 43.9225 485.306 43.6858 485.306 43.4129C485.306 43.0238 485.143 42.7188 484.818 42.4982C484.493 42.2735 484.046 42.1611 483.476 42.1611H481.045V44.737ZM490.294 48.0109L494.748 40.8612H496.385V50.1052H494.965V42.9556L490.535 50.1052H488.874V40.8612H490.294V48.0109ZM504.834 44.8332V46.1573H499.731V44.8332H504.834ZM500.068 40.8612V50.1052H498.647V40.8612H500.068ZM505.917 40.8612V50.1052H504.497V40.8612H505.917ZM510.892 50.3219C510.307 50.3219 509.775 50.2115 509.298 49.9909C508.82 49.7662 508.441 49.4432 508.16 49.0219C507.879 48.5967 507.739 48.0831 507.739 47.4813C507.739 46.9517 507.843 46.5224 508.052 46.1934C508.26 45.8604 508.539 45.5996 508.888 45.411C509.237 45.2224 509.623 45.082 510.044 44.9897C510.469 44.8934 510.896 44.8172 511.326 44.761C511.887 44.6888 512.343 44.6346 512.692 44.5985C513.045 44.5584 513.302 44.4922 513.462 44.3999C513.627 44.3077 513.709 44.1472 513.709 43.9185V43.8703C513.709 43.2765 513.547 42.8151 513.222 42.4861C512.901 42.1571 512.413 41.9926 511.759 41.9926C511.081 41.9926 510.549 42.1411 510.164 42.438C509.779 42.7349 509.508 43.0518 509.352 43.3889L508.004 42.9074C508.244 42.3457 508.565 41.9084 508.967 41.5954C509.372 41.2785 509.813 41.0578 510.291 40.9334C510.772 40.805 511.246 40.7408 511.711 40.7408C512.008 40.7408 512.349 40.7769 512.734 40.8492C513.123 40.9174 513.498 41.0598 513.859 41.2765C514.225 41.4931 514.527 41.8201 514.768 42.2574C515.009 42.6948 515.129 43.2805 515.129 44.0148V50.1052H513.709V48.8534H513.637C513.54 49.054 513.38 49.2687 513.155 49.4974C512.931 49.7261 512.632 49.9207 512.259 50.0812C511.885 50.2416 511.43 50.3219 510.892 50.3219ZM511.109 49.046C511.671 49.046 512.144 48.9357 512.529 48.715C512.919 48.4943 513.211 48.2095 513.408 47.8604C513.609 47.5114 513.709 47.1442 513.709 46.7591V45.4591C513.649 45.5314 513.516 45.5976 513.312 45.6577C513.111 45.7139 512.878 45.7641 512.614 45.8082C512.353 45.8483 512.098 45.8844 511.849 45.9165C511.605 45.9446 511.406 45.9687 511.254 45.9887C510.884 46.0369 510.539 46.1151 510.218 46.2235C509.901 46.3278 509.645 46.4863 509.448 46.6989C509.256 46.9075 509.159 47.1924 509.159 47.5535C509.159 48.047 509.342 48.4201 509.707 48.6729C510.076 48.9216 510.543 49.046 511.109 49.046ZM75.7781 65.0649C75.4571 65.0689 75.1342 65.1511 74.8092 65.3116C74.4882 65.4721 74.2194 65.6847 74.0027 65.9495C73.7901 66.2103 73.6838 66.5012 73.6838 66.8222H72.2875C72.2875 66.421 72.3838 66.0358 72.5764 65.6667C72.769 65.2976 73.0278 64.9686 73.3528 64.6797C73.6818 64.3908 74.0549 64.1621 74.4721 63.9936C74.8934 63.8251 75.3287 63.7408 75.7781 63.7408C76.6207 63.7408 77.3348 63.9535 77.9206 64.3788C78.5104 64.8041 78.9577 65.3658 79.2627 66.0639C79.5716 66.762 79.7261 67.5203 79.7261 68.3388V68.6758C79.7261 69.4903 79.5716 70.2486 79.2627 70.9507C78.9577 71.6488 78.5104 72.2105 77.9206 72.6358C77.3348 73.0611 76.6207 73.2737 75.7781 73.2737C75.1041 73.2737 74.5042 73.1253 73.9787 72.8284C73.4531 72.5275 73.0398 72.1263 72.7389 71.6247C72.438 71.1232 72.2875 70.5655 72.2875 69.9517H73.6838C73.6838 70.3007 73.7821 70.6277 73.9787 70.9326C74.1793 71.2336 74.438 71.4783 74.755 71.6669C75.076 71.8514 75.417 71.9457 75.7781 71.9497C76.3157 71.9457 76.7731 71.7772 77.1503 71.4442C77.5274 71.1112 77.8143 70.6939 78.0109 70.1924C78.2075 69.6909 78.3058 69.1853 78.3058 68.6758V68.3388C78.3058 67.8172 78.2075 67.3077 78.0109 66.8101C77.8183 66.3086 77.5334 65.8934 77.1563 65.5644C76.7832 65.2354 76.3238 65.0689 75.7781 65.0649ZM78.8835 67.7851V69.1091H74.8393V67.7851H78.8835ZM81.5507 73.1052V63.8612H82.971V67.8814H83.9098L87.2319 63.8612H89.0614L85.3301 68.3147L89.1096 73.1052H87.28L84.2469 69.2054H82.971V73.1052H81.5507ZM90.3143 76.5717V63.8612H91.6865V65.3297H91.855C91.9593 65.1692 92.1037 64.9645 92.2883 64.7158C92.4769 64.463 92.7457 64.2383 93.0948 64.0418C93.4478 63.8411 93.9253 63.7408 94.5271 63.7408C95.3055 63.7408 95.9915 63.9354 96.5853 64.3246C97.1791 64.7138 97.6425 65.2655 97.9755 65.9796C98.3086 66.6938 98.4751 67.5363 98.4751 68.5073C98.4751 69.4863 98.3086 70.3348 97.9755 71.053C97.6425 71.7672 97.1811 72.3208 96.5914 72.714C96.0016 73.1032 95.3215 73.2978 94.5512 73.2978C93.9574 73.2978 93.4819 73.1995 93.1248 73.0029C92.7678 72.8023 92.4929 72.5756 92.3003 72.3229C92.1078 72.0661 91.9593 71.8534 91.855 71.6849H91.7346V76.5717H90.3143ZM91.7106 68.4832C91.7106 69.1813 91.8129 69.7972 92.0175 70.3308C92.2221 70.8604 92.521 71.2757 92.9142 71.5766C93.3074 71.8735 93.7889 72.0219 94.3586 72.0219C94.9524 72.0219 95.4479 71.8655 95.8451 71.5525C96.2463 71.2356 96.5472 70.8103 96.7478 70.2767C96.9524 69.739 97.0548 69.1412 97.0548 68.4832C97.0548 67.8332 96.9545 67.2475 96.7538 66.7259C96.5572 66.2003 96.2583 65.785 95.8571 65.4801C95.4599 65.1712 94.9604 65.0167 94.3586 65.0167C93.7808 65.0167 93.2954 65.1632 92.9022 65.456C92.509 65.7449 92.2121 66.1501 92.0115 66.6717C91.8109 67.1893 91.7106 67.7931 91.7106 68.4832ZM103.023 73.3219C102.437 73.3219 101.906 73.2115 101.428 72.9909C100.951 72.7662 100.571 72.4432 100.291 72.0219C100.01 71.5967 99.8694 71.0831 99.8694 70.4813C99.8694 69.9517 99.9737 69.5224 100.182 69.1934C100.391 68.8604 100.67 68.5996 101.019 68.411C101.368 68.2224 101.753 68.082 102.174 67.9897C102.6 67.8934 103.027 67.8172 103.456 67.761C104.018 67.6888 104.473 67.6346 104.822 67.5985C105.175 67.5584 105.432 67.4922 105.593 67.3999C105.757 67.3077 105.839 67.1472 105.839 66.9185V66.8703C105.839 66.2765 105.677 65.8151 105.352 65.4861C105.031 65.1571 104.544 64.9926 103.89 64.9926C103.211 64.9926 102.68 65.1411 102.295 65.438C101.91 65.7349 101.639 66.0518 101.482 66.3889L100.134 65.9074C100.375 65.3457 100.696 64.9084 101.097 64.5954C101.502 64.2785 101.944 64.0578 102.421 63.9334C102.903 63.805 103.376 63.7408 103.841 63.7408C104.138 63.7408 104.479 63.7769 104.865 63.8492C105.254 63.9174 105.629 64.0598 105.99 64.2765C106.355 64.4931 106.658 64.8201 106.899 65.2574C107.139 65.6948 107.26 66.2805 107.26 67.0148V73.1052H105.839V71.8534H105.767C105.671 72.054 105.51 72.2687 105.286 72.4974C105.061 72.7261 104.762 72.9207 104.389 73.0812C104.016 73.2416 103.561 73.3219 103.023 73.3219ZM103.24 72.046C103.801 72.046 104.275 71.9357 104.66 71.715C105.049 71.4943 105.342 71.2095 105.539 70.8604C105.739 70.5114 105.839 70.1442 105.839 69.7591V68.4591C105.779 68.5314 105.647 68.5976 105.442 68.6577C105.242 68.7139 105.009 68.7641 104.744 68.8082C104.483 68.8483 104.229 68.8844 103.98 68.9165C103.735 68.9446 103.536 68.9687 103.384 68.9887C103.015 69.0369 102.67 69.1151 102.349 69.2235C102.032 69.3278 101.775 69.4863 101.579 69.6989C101.386 69.9075 101.29 70.1924 101.29 70.5535C101.29 71.047 101.472 71.4201 101.837 71.6729C102.206 71.9216 102.674 72.046 103.24 72.046ZM115.7 67.8332V69.1573H110.596V67.8332H115.7ZM110.933 63.8612V73.1052H109.513V63.8612H110.933ZM116.783 63.8612V73.1052H115.363V63.8612H116.783ZM121.758 73.3219C121.173 73.3219 120.641 73.2115 120.164 72.9909C119.686 72.7662 119.307 72.4432 119.026 72.0219C118.745 71.5967 118.605 71.0831 118.605 70.4813C118.605 69.9517 118.709 69.5224 118.918 69.1934C119.126 68.8604 119.405 68.5996 119.754 68.411C120.103 68.2224 120.489 68.082 120.91 67.9897C121.335 67.8934 121.762 67.8172 122.192 67.761C122.753 67.6888 123.209 67.6346 123.558 67.5985C123.911 67.5584 124.168 67.4922 124.328 67.3999C124.493 67.3077 124.575 67.1472 124.575 66.9185V66.8703C124.575 66.2765 124.412 65.8151 124.087 65.4861C123.766 65.1571 123.279 64.9926 122.625 64.9926C121.947 64.9926 121.415 65.1411 121.03 65.438C120.645 65.7349 120.374 66.0518 120.218 66.3889L118.87 65.9074C119.11 65.3457 119.431 64.9084 119.833 64.5954C120.238 64.2785 120.679 64.0578 121.157 63.9334C121.638 63.805 122.111 63.7408 122.577 63.7408C122.874 63.7408 123.215 63.7769 123.6 63.8492C123.989 63.9174 124.364 64.0598 124.725 64.2765C125.09 64.4931 125.393 64.8201 125.634 65.2574C125.875 65.6948 125.995 66.2805 125.995 67.0148V73.1052H124.575V71.8534H124.503C124.406 72.054 124.246 72.2687 124.021 72.4974C123.797 72.7261 123.498 72.9207 123.125 73.0812C122.751 73.2416 122.296 73.3219 121.758 73.3219ZM121.975 72.046C122.537 72.046 123.01 71.9357 123.395 71.715C123.785 71.4943 124.077 71.2095 124.274 70.8604C124.475 70.5114 124.575 70.1442 124.575 69.7591V68.4591C124.515 68.5314 124.382 68.5976 124.178 68.6577C123.977 68.7139 123.744 68.7641 123.48 68.8082C123.219 68.8483 122.964 68.8844 122.715 68.9165C122.471 68.9446 122.272 68.9687 122.119 68.9887C121.75 69.0369 121.405 69.1151 121.084 69.2235C120.767 69.3278 120.511 69.4863 120.314 69.6989C120.121 69.9075 120.025 70.1924 120.025 70.5535C120.025 71.047 120.208 71.4201 120.573 71.6729C120.942 71.9216 121.409 72.046 121.975 72.046ZM132.676 73.1052V63.8612H136.456C137.451 63.8612 138.241 64.0859 138.827 64.5352C139.413 64.9846 139.705 65.5784 139.705 66.3166C139.705 66.8784 139.539 67.3137 139.206 67.6226C138.873 67.9275 138.446 68.1342 137.924 68.2425C138.265 68.2906 138.596 68.411 138.917 68.6036C139.242 68.7962 139.511 69.061 139.723 69.398C139.936 69.731 140.042 70.1402 140.042 70.6257C140.042 71.0991 139.922 71.5224 139.681 71.8956C139.441 72.2687 139.096 72.5636 138.646 72.7802C138.197 72.9969 137.659 73.1052 137.033 73.1052H132.676ZM134.024 71.8053H137.033C137.523 71.8053 137.906 71.6889 138.183 71.4562C138.46 71.2235 138.598 70.9066 138.598 70.5053C138.598 70.0279 138.46 69.6528 138.183 69.3799C137.906 69.1031 137.523 68.9647 137.033 68.9647H134.024V71.8053ZM134.024 67.737H136.456C136.837 67.737 137.164 67.6848 137.437 67.5805C137.709 67.4722 137.918 67.3197 138.062 67.1231C138.211 66.9225 138.285 66.6858 138.285 66.4129C138.285 66.0238 138.123 65.7188 137.798 65.4982C137.473 65.2735 137.025 65.1611 136.456 65.1611H134.024V67.737ZM145.609 73.2978C144.774 73.2978 144.042 73.0992 143.412 72.702C142.786 72.3048 142.297 71.7491 141.944 71.0349C141.595 70.3208 141.42 69.4863 141.42 68.5314C141.42 67.5684 141.595 66.7279 141.944 66.0097C142.297 65.2915 142.786 64.7339 143.412 64.3366C144.042 63.9394 144.774 63.7408 145.609 63.7408C146.443 63.7408 147.174 63.9394 147.8 64.3366C148.429 64.7339 148.919 65.2915 149.268 66.0097C149.621 66.7279 149.798 67.5684 149.798 68.5314C149.798 69.4863 149.621 70.3208 149.268 71.0349C148.919 71.7491 148.429 72.3048 147.8 72.702C147.174 73.0992 146.443 73.2978 145.609 73.2978ZM145.609 72.0219C146.243 72.0219 146.764 71.8594 147.174 71.5345C147.583 71.2095 147.886 70.7822 148.082 70.2526C148.279 69.723 148.377 69.1492 148.377 68.5314C148.377 67.9135 148.279 67.3377 148.082 66.8041C147.886 66.2705 147.583 65.8392 147.174 65.5102C146.764 65.1812 146.243 65.0167 145.609 65.0167C144.975 65.0167 144.453 65.1812 144.044 65.5102C143.635 65.8392 143.332 66.2705 143.135 66.8041C142.939 67.3377 142.841 67.9135 142.841 68.5314C142.841 69.1492 142.939 69.723 143.135 70.2526C143.332 70.7822 143.635 71.2095 144.044 71.5345C144.453 71.8594 144.975 72.0219 145.609 72.0219ZM151.049 70.7461H152.566C152.598 71.1633 152.786 71.4803 153.131 71.697C153.48 71.9136 153.934 72.0219 154.491 72.0219C155.061 72.0219 155.549 71.9056 155.954 71.6729C156.359 71.4362 156.562 71.055 156.562 70.5294C156.562 70.2205 156.485 69.9517 156.333 69.723C156.181 69.4903 155.966 69.3097 155.689 69.1813C155.412 69.0529 155.085 68.9887 154.708 68.9887H153.119V67.7129H154.708C155.274 67.7129 155.691 67.5845 155.96 67.3277C156.233 67.0709 156.369 66.75 156.369 66.3648C156.369 65.9515 156.223 65.6205 155.93 65.3718C155.637 65.119 155.222 64.9926 154.684 64.9926C154.142 64.9926 153.691 65.115 153.33 65.3597C152.969 65.6005 152.778 65.9114 152.758 66.2926H151.266C151.282 65.7951 151.434 65.3557 151.723 64.9746C152.012 64.5894 152.405 64.2885 152.903 64.0718C153.4 63.8512 153.97 63.7408 154.612 63.7408C155.262 63.7408 155.825 63.8552 156.303 64.0839C156.784 64.3086 157.155 64.6155 157.416 65.0047C157.681 65.3898 157.813 65.8272 157.813 66.3166C157.813 66.8382 157.667 67.2595 157.374 67.5805C157.081 67.9015 156.714 68.1301 156.273 68.2666V68.3628C156.622 68.3869 156.925 68.4993 157.182 68.6999C157.442 68.8965 157.645 69.1553 157.789 69.4762C157.934 69.7932 158.006 70.1442 158.006 70.5294C158.006 71.0911 157.856 71.5806 157.555 71.9979C157.254 72.4111 156.841 72.7321 156.315 72.9608C155.789 73.1855 155.19 73.2978 154.515 73.2978C153.862 73.2978 153.276 73.1915 152.758 72.9788C152.241 72.7622 151.829 72.4633 151.524 72.0821C151.224 71.697 151.065 71.2516 151.049 70.7461ZM158.675 75.7533V71.7812H159.446C159.634 71.5846 159.797 71.372 159.933 71.1433C160.069 70.9146 160.188 70.6438 160.288 70.3308C160.392 70.0139 160.481 69.6287 160.553 69.1753C160.625 68.7179 160.689 68.1663 160.745 67.5203L161.058 63.8612H166.932V71.7812H168.353V75.7533H166.932V73.1052H160.095V75.7533H158.675ZM161.058 71.7812H165.512V65.1852H162.382L162.142 67.5203C162.041 68.4872 161.917 69.3318 161.769 70.054C161.62 70.7762 161.383 71.3519 161.058 71.7812ZM170.814 76.5717C170.573 76.5717 170.358 76.5517 170.17 76.5115C169.981 76.4754 169.851 76.4393 169.778 76.4032L170.14 75.1514C170.485 75.2397 170.789 75.2718 171.054 75.2477C171.319 75.2236 171.554 75.1053 171.758 74.8926C171.967 74.684 172.158 74.345 172.33 73.8756L172.595 73.1534L169.177 63.8612H170.717L173.269 71.2275H173.365L175.917 63.8612H177.458L173.534 74.4533C173.357 74.9308 173.139 75.326 172.878 75.6389C172.617 75.9559 172.314 76.1906 171.969 76.343C171.628 76.4955 171.243 76.5717 170.814 76.5717ZM180.053 63.8612L182.267 67.6407L184.482 63.8612H186.119L183.134 68.4832L186.119 73.1052H184.482L182.267 69.5184L180.053 73.1052H178.416L181.353 68.4832L178.416 63.8612H180.053ZM192.234 73.1052V63.8612H193.655V67.8814H194.593L197.915 63.8612H199.745L196.014 68.3147L199.793 73.1052H197.964L194.93 69.2054H193.655V73.1052H192.234ZM203.718 73.3219C203.132 73.3219 202.601 73.2115 202.123 72.9909C201.646 72.7662 201.267 72.4432 200.986 72.0219C200.705 71.5967 200.565 71.0831 200.565 70.4813C200.565 69.9517 200.669 69.5224 200.877 69.1934C201.086 68.8604 201.365 68.5996 201.714 68.411C202.063 68.2224 202.448 68.082 202.87 67.9897C203.295 67.8934 203.722 67.8172 204.151 67.761C204.713 67.6888 205.168 67.6346 205.518 67.5985C205.871 67.5584 206.127 67.4922 206.288 67.3999C206.452 67.3077 206.535 67.1472 206.535 66.9185V66.8703C206.535 66.2765 206.372 65.8151 206.047 65.4861C205.726 65.1571 205.239 64.9926 204.585 64.9926C203.907 64.9926 203.375 65.1411 202.99 65.438C202.605 65.7349 202.334 66.0518 202.177 66.3889L200.829 65.9074C201.07 65.3457 201.391 64.9084 201.792 64.5954C202.197 64.2785 202.639 64.0578 203.116 63.9334C203.598 63.805 204.071 63.7408 204.537 63.7408C204.833 63.7408 205.175 63.7769 205.56 63.8492C205.949 63.9174 206.324 64.0598 206.685 64.2765C207.05 64.4931 207.353 64.8201 207.594 65.2574C207.835 65.6948 207.955 66.2805 207.955 67.0148V73.1052H206.535V71.8534H206.462C206.366 72.054 206.206 72.2687 205.981 72.4974C205.756 72.7261 205.457 72.9207 205.084 73.0812C204.711 73.2416 204.256 73.3219 203.718 73.3219ZM203.935 72.046C204.496 72.046 204.97 71.9357 205.355 71.715C205.744 71.4943 206.037 71.2095 206.234 70.8604C206.434 70.5114 206.535 70.1442 206.535 69.7591V68.4591C206.474 68.5314 206.342 68.5976 206.137 68.6577C205.937 68.7139 205.704 68.7641 205.439 68.8082C205.179 68.8483 204.924 68.8844 204.675 68.9165C204.43 68.9446 204.232 68.9687 204.079 68.9887C203.71 69.0369 203.365 69.1151 203.044 69.2235C202.727 69.3278 202.47 69.4863 202.274 69.6989C202.081 69.9075 201.985 70.1924 201.985 70.5535C201.985 71.047 202.167 71.4201 202.532 71.6729C202.902 71.9216 203.369 72.046 203.935 72.046ZM210.208 73.1052V63.8612H211.629V67.8814H212.568L215.89 63.8612H217.719L213.988 68.3147L217.767 73.1052H215.938L212.905 69.2054H211.629V73.1052H210.208ZM222.347 73.2978C221.512 73.2978 220.78 73.0992 220.15 72.702C219.524 72.3048 219.035 71.7491 218.682 71.0349C218.333 70.3208 218.158 69.4863 218.158 68.5314C218.158 67.5684 218.333 66.7279 218.682 66.0097C219.035 65.2915 219.524 64.7339 220.15 64.3366C220.78 63.9394 221.512 63.7408 222.347 63.7408C223.181 63.7408 223.911 63.9394 224.537 64.3366C225.167 64.7339 225.657 65.2915 226.006 66.0097C226.359 66.7279 226.535 67.5684 226.535 68.5314C226.535 69.4863 226.359 70.3208 226.006 71.0349C225.657 71.7491 225.167 72.3048 224.537 72.702C223.911 73.0992 223.181 73.2978 222.347 73.2978ZM222.347 72.0219C222.981 72.0219 223.502 71.8594 223.911 71.5345C224.321 71.2095 224.624 70.7822 224.82 70.2526C225.017 69.723 225.115 69.1492 225.115 68.5314C225.115 67.9135 225.017 67.3377 224.82 66.8041C224.624 66.2705 224.321 65.8392 223.911 65.5102C223.502 65.1812 222.981 65.0167 222.347 65.0167C221.713 65.0167 221.191 65.1812 220.782 65.5102C220.373 65.8392 220.07 66.2705 219.873 66.8041C219.677 67.3377 219.578 67.9135 219.578 68.5314C219.578 69.1492 219.677 69.723 219.873 70.2526C220.07 70.7822 220.373 71.2095 220.782 71.5345C221.191 71.8594 221.713 72.0219 222.347 72.0219ZM229.785 71.0109L234.238 63.8612H235.875V73.1052H234.455V65.9556L230.026 73.1052H228.365V63.8612H229.785V71.0109ZM233.3 60.7799H234.624C234.624 61.4298 234.399 61.9614 233.949 62.3747C233.5 62.788 232.89 62.9946 232.12 62.9946C231.362 62.9946 230.758 62.788 230.308 62.3747C229.863 61.9614 229.64 61.4298 229.64 60.7799H230.964C230.964 61.0928 231.051 61.3676 231.223 61.6044C231.4 61.8411 231.699 61.9594 232.12 61.9594C232.541 61.9594 232.842 61.8411 233.023 61.6044C233.207 61.3676 233.3 61.0928 233.3 60.7799ZM243.434 67.1592V68.4832H238.041V67.1592H243.434ZM244.584 65.1852V63.8612H252.095V65.1852H249.062V73.1052H247.642V65.1852H244.584ZM257.103 73.2978C256.269 73.2978 255.537 73.0992 254.907 72.702C254.281 72.3048 253.791 71.7491 253.438 71.0349C253.089 70.3208 252.915 69.4863 252.915 68.5314C252.915 67.5684 253.089 66.7279 253.438 66.0097C253.791 65.2915 254.281 64.7339 254.907 64.3366C255.537 63.9394 256.269 63.7408 257.103 63.7408C257.938 63.7408 258.668 63.9394 259.294 64.3366C259.924 64.7339 260.413 65.2915 260.762 66.0097C261.116 66.7279 261.292 67.5684 261.292 68.5314C261.292 69.4863 261.116 70.3208 260.762 71.0349C260.413 71.7491 259.924 72.3048 259.294 72.702C258.668 73.0992 257.938 73.2978 257.103 73.2978ZM257.103 72.0219C257.737 72.0219 258.259 71.8594 258.668 71.5345C259.077 71.2095 259.38 70.7822 259.577 70.2526C259.773 69.723 259.872 69.1492 259.872 68.5314C259.872 67.9135 259.773 67.3377 259.577 66.8041C259.38 66.2705 259.077 65.8392 258.668 65.5102C258.259 65.1812 257.737 65.0167 257.103 65.0167C256.469 65.0167 255.948 65.1812 255.539 65.5102C255.129 65.8392 254.826 66.2705 254.63 66.8041C254.433 67.3377 254.335 67.9135 254.335 68.5314C254.335 69.1492 254.433 69.723 254.63 70.2526C254.826 70.7822 255.129 71.2095 255.539 71.5345C255.948 71.8594 256.469 72.0219 257.103 72.0219Z" fill="#F5F5F5" style="fill:#F5F5F5;fill:color(display-p3 0.9625 0.9625 0.9625);fill-opacity:1;"/>
<path d="M504.398 67.8326V80.158H502.906V69.3973H502.833L499.824 71.3954V69.8788L502.906 67.8326H504.398ZM510.946 80.3265C510.039 80.3265 509.267 80.0797 508.629 79.5862C507.991 79.0887 507.504 78.3685 507.167 77.4257C506.83 76.4788 506.661 75.3353 506.661 73.9953C506.661 72.6632 506.83 71.5258 507.167 70.5829C507.508 69.6361 507.997 68.9139 508.635 68.4164C509.277 67.9148 510.047 67.6641 510.946 67.6641C511.845 67.6641 512.613 67.9148 513.251 68.4164C513.893 68.9139 514.383 69.6361 514.72 70.5829C515.061 71.5258 515.231 72.6632 515.231 73.9953C515.231 75.3353 515.063 76.4788 514.726 77.4257C514.389 78.3685 513.901 79.0887 513.263 79.5862C512.625 80.0797 511.853 80.3265 510.946 80.3265ZM510.946 79.0025C511.845 79.0025 512.543 78.5691 513.04 77.7025C513.538 76.8359 513.787 75.6001 513.787 73.9953C513.787 72.928 513.672 72.0193 513.444 71.269C513.219 70.5187 512.894 69.947 512.469 69.5538C512.047 69.1606 511.54 68.964 510.946 68.964C510.055 68.964 509.359 69.4034 508.858 70.282C508.356 71.1567 508.106 72.3944 508.106 73.9953C508.106 75.0625 508.218 75.9693 508.443 76.7155C508.667 77.4618 508.99 78.0295 509.411 78.4187C509.837 78.8079 510.348 79.0025 510.946 79.0025ZM517.56 78.5812C517.264 78.5812 517.009 78.4749 516.796 78.2622C516.583 78.0496 516.477 77.7948 516.477 77.4979C516.477 77.201 516.583 76.9462 516.796 76.7336C517.009 76.5209 517.264 76.4146 517.56 76.4146C517.857 76.4146 518.112 76.5209 518.325 76.7336C518.537 76.9462 518.644 77.201 518.644 77.4979C518.644 77.6945 518.594 77.875 518.493 78.0395C518.397 78.204 518.267 78.3364 518.102 78.4367C517.942 78.533 517.761 78.5812 517.56 78.5812ZM517.56 72.3463C517.264 72.3463 517.009 72.24 516.796 72.0273C516.583 71.8147 516.477 71.5599 516.477 71.263C516.477 70.9661 516.583 70.7113 516.796 70.4987C517.009 70.286 517.264 70.1797 517.56 70.1797C517.857 70.1797 518.112 70.286 518.325 70.4987C518.537 70.7113 518.644 70.9661 518.644 71.263C518.644 71.4596 518.594 71.6401 518.493 71.8046C518.397 71.9691 518.267 72.1015 518.102 72.2018C517.942 72.2981 517.761 72.3463 517.56 72.3463ZM524.316 80.3265C523.522 80.3265 522.814 80.1901 522.192 79.9172C521.574 79.6444 521.082 79.2653 520.717 78.7798C520.356 78.2903 520.16 77.7226 520.127 77.0766H521.644C521.676 77.4738 521.813 77.8169 522.053 78.1057C522.294 78.3906 522.609 78.6113 522.998 78.7677C523.387 78.9242 523.819 79.0025 524.292 79.0025C524.822 79.0025 525.291 78.9102 525.7 78.7256C526.11 78.5411 526.431 78.2843 526.663 77.9553C526.896 77.6263 527.012 77.2451 527.012 76.8118C527.012 76.3584 526.9 75.9592 526.675 75.6142C526.451 75.2651 526.122 74.9923 525.688 74.7957C525.255 74.5991 524.725 74.5008 524.099 74.5008H523.113V73.1768H524.099C524.589 73.1768 525.018 73.0885 525.387 72.912C525.761 72.7355 526.051 72.4867 526.26 72.1657C526.473 71.8448 526.579 71.4676 526.579 71.0343C526.579 70.617 526.487 70.2539 526.302 69.945C526.118 69.6361 525.857 69.3953 525.52 69.2228C525.187 69.0503 524.794 68.964 524.34 68.964C523.915 68.964 523.514 69.0423 523.137 69.1987C522.763 69.3512 522.459 69.5739 522.222 69.8668C521.985 70.1556 521.857 70.5047 521.837 70.9139H520.392C520.416 70.268 520.611 69.7023 520.976 69.2168C521.341 68.7273 521.819 68.3462 522.408 68.0733C523.002 67.8005 523.654 67.6641 524.364 67.6641C525.127 67.6641 525.781 67.8186 526.326 68.1275C526.872 68.4324 527.291 68.8356 527.584 69.3372C527.877 69.8387 528.023 70.3803 528.023 70.9621C528.023 71.6562 527.841 72.248 527.476 72.7375C527.115 73.227 526.623 73.566 526.001 73.7545V73.8508C526.78 73.9792 527.387 74.3102 527.825 74.8439C528.262 75.3735 528.481 76.0294 528.481 76.8118C528.481 77.4818 528.298 78.0837 527.933 78.6173C527.572 79.1469 527.079 79.5642 526.453 79.8691C525.827 80.174 525.115 80.3265 524.316 80.3265ZM529.637 77.6303V76.4026L535.053 67.8326H535.944V69.7344H535.342L531.249 76.21V76.3063H538.544V77.6303H529.637ZM535.438 80.158V77.2572V76.6854V67.8326H536.858V80.158H535.438Z" fill="#707E8D" style="fill:#707E8D;fill:color(display-p3 0.4392 0.4941 0.5529);fill-opacity:1;"/>
<defs>
<linearGradient id="paint0_linear_1259_47328" x1="21.7895" y1="46.6316" x2="21.7895" y2="90.2105" gradientUnits="userSpaceOnUse">
<stop stop-color="#A4CF71" style="stop-color:#A4CF71;stop-color:color(display-p3 0.6431 0.8118 0.4431);stop-opacity:1;"/>
<stop offset="1" stop-color="#6BB955" style="stop-color:#6BB955;stop-color:color(display-p3 0.4196 0.7255 0.3333);stop-opacity:1;"/>
</linearGradient>
</defs>
</svg>
