<svg width="552" height="91" viewBox="0 0 552 91" fill="none" xmlns="http://www.w3.org/2000/svg">
<rect y="46.6316" width="43.5789" height="43.5789" rx="21.7895" fill="url(#paint0_linear_1259_47327)" style=""/>
<path d="M27.0483 61.7154V74.9211H24.6754V63.7014H18.8979V74.9211H16.525V61.7154H27.0483Z" fill="white" style="fill:white;fill-opacity:1;"/>
<path d="M56.8947 90.2106V75.6843C56.8947 82.3831 52.3604 88.0229 46.1935 89.7018C46.08 89.7326 46 89.8352 46 89.9528C46 90.0952 46.1154 90.2106 46.2578 90.2106H56.8947Z" fill="#1B2532" style="fill:#1B2532;fill:color(display-p3 0.1059 0.1451 0.1961);fill-opacity:1;"/>
<path d="M56.8945 34.8632C56.8945 22.6599 56.8945 16.5583 59.2694 11.8973C61.3585 7.79731 64.6918 4.46394 68.7918 2.37491C73.4528 0 79.5544 0 91.7577 0H517.137C529.34 0 535.442 0 540.103 2.37491C544.203 4.46394 547.536 7.79731 549.625 11.8973C552 16.5583 552 22.6599 552 34.8632V55.3474C552 67.5506 552 73.6522 549.625 78.3133C547.536 82.4132 544.203 85.7466 540.103 87.8356C535.442 90.2105 529.34 90.2105 517.137 90.2105H56.8945V34.8632Z" fill="#1B2532" style="fill:#1B2532;fill:color(display-p3 0.1059 0.1451 0.1961);fill-opacity:1;"/>
<path d="M82.6931 15.7799V28.1052H80.4784V17.6335H75.086V28.1052H72.8713V15.7799H82.6931ZM87.758 28.2918C87.1722 28.2918 86.6446 28.1875 86.1752 27.9788C85.7097 27.7662 85.3406 27.4532 85.0678 27.04C84.799 26.6267 84.6646 26.1172 84.6646 25.5114C84.6646 24.9898 84.7609 24.5585 84.9535 24.2174C85.146 23.8764 85.4088 23.6036 85.7418 23.399C86.0749 23.1943 86.45 23.0399 86.8673 22.9356C87.2885 22.8272 87.7239 22.749 88.1732 22.7008C88.7149 22.6447 89.1542 22.5945 89.4912 22.5504C89.8282 22.5022 90.073 22.43 90.2254 22.3337C90.3819 22.2334 90.4601 22.079 90.4601 21.8703V21.8342C90.4601 21.3808 90.3257 21.0298 90.0569 20.781C89.7881 20.5323 89.4009 20.4079 88.8954 20.4079C88.3618 20.4079 87.9385 20.5242 87.6256 20.757C87.3166 20.9897 87.108 21.2645 86.9997 21.5815L84.9655 21.2926C85.126 20.7309 85.3908 20.2614 85.7599 19.8843C86.129 19.5032 86.5804 19.2183 87.114 19.0297C87.6476 18.8371 88.2374 18.7408 88.8834 18.7408C89.3287 18.7408 89.7721 18.793 90.2134 18.8973C90.6547 19.0016 91.058 19.1742 91.4231 19.4149C91.7882 19.6516 92.0811 19.9746 92.3017 20.3838C92.5264 20.7931 92.6388 21.3046 92.6388 21.9185V28.1052H90.5444V26.8354H90.4722C90.3398 27.0922 90.1532 27.3329 89.9125 27.5576C89.6758 27.7782 89.3769 27.9568 89.0158 28.0932C88.6587 28.2256 88.2394 28.2918 87.758 28.2918ZM88.3237 26.6909C88.761 26.6909 89.1401 26.6047 89.4611 26.4322C89.7821 26.2556 90.0288 26.0229 90.2014 25.734C90.3779 25.4452 90.4662 25.1302 90.4662 24.7892V23.6999C90.398 23.756 90.2816 23.8082 90.1171 23.8563C89.9566 23.9045 89.7761 23.9466 89.5755 23.9827C89.3749 24.0188 89.1763 24.0509 88.9797 24.079C88.7831 24.1071 88.6125 24.1312 88.4681 24.1512C88.1431 24.1954 87.8522 24.2676 87.5955 24.3679C87.3387 24.4682 87.1361 24.6086 86.9876 24.7892C86.8392 24.9657 86.7649 25.1944 86.7649 25.4753C86.7649 25.8765 86.9114 26.1794 87.2043 26.384C87.4972 26.5886 87.8703 26.6909 88.3237 26.6909ZM101.009 22.5805V24.3679H96.0862V22.5805H101.009ZM96.7603 18.8612V28.1052H94.6599V18.8612H96.7603ZM102.435 18.8612V28.1052H100.341V18.8612H102.435ZM108.665 31.2467V15.7799H110.85V31.2467H108.665ZM108.665 28.2858C107.987 28.2858 107.367 28.1714 106.805 27.9427C106.244 27.714 105.758 27.3891 105.349 26.9678C104.944 26.5465 104.629 26.045 104.404 25.4632C104.183 24.8774 104.073 24.2295 104.073 23.5193C104.073 22.8092 104.183 22.1612 104.404 21.5754C104.629 20.9897 104.944 20.4861 105.349 20.0649C105.758 19.6396 106.244 19.3126 106.805 19.0839C107.367 18.8552 107.987 18.7408 108.665 18.7408H109.128V28.2858H108.665ZM108.665 26.5284H108.936V20.4982H108.665C108.28 20.4982 107.939 20.5784 107.642 20.7389C107.349 20.8954 107.102 21.114 106.902 21.3949C106.705 21.6717 106.555 21.9927 106.45 22.3578C106.35 22.7189 106.3 23.1061 106.3 23.5193C106.3 24.069 106.39 24.5725 106.571 25.0299C106.751 25.4833 107.016 25.8464 107.365 26.1192C107.718 26.392 108.151 26.5284 108.665 26.5284ZM110.85 28.2858H110.386V18.7408H110.85C111.528 18.7408 112.147 18.8552 112.709 19.0839C113.271 19.3126 113.754 19.6396 114.16 20.0649C114.569 20.4861 114.884 20.9897 115.104 21.5754C115.329 22.1612 115.441 22.8092 115.441 23.5193C115.441 24.2295 115.329 24.8774 115.104 25.4632C114.884 26.045 114.569 26.5465 114.16 26.9678C113.754 27.3891 113.271 27.714 112.709 27.9427C112.147 28.1714 111.528 28.2858 110.85 28.2858ZM110.85 26.5284C111.239 26.5284 111.58 26.4502 111.873 26.2937C112.166 26.1373 112.41 25.9206 112.607 25.6438C112.807 25.3669 112.958 25.048 113.058 24.6869C113.159 24.3218 113.209 23.9326 113.209 23.5193C113.209 22.9697 113.12 22.4661 112.944 22.0087C112.767 21.5514 112.503 21.1863 112.149 20.9134C111.8 20.6366 111.367 20.4982 110.85 20.4982H110.579V26.5284H110.85ZM119.211 25.1563L122.912 18.8612H125.151V28.1052H123.045V21.8041L119.355 28.1052H117.111V18.8612H119.211V25.1563ZM126.581 28.1052L126.569 26.3118H126.888C127.128 26.3118 127.331 26.2576 127.496 26.1493C127.66 26.041 127.796 25.8604 127.905 25.6077C128.013 25.3509 128.097 25.0058 128.158 24.5725C128.218 24.1392 128.26 23.5996 128.284 22.9536L128.446 18.8612H135.187V28.1052H133.08V20.6486H130.426L130.282 23.6277C130.246 24.398 130.16 25.066 130.023 25.6317C129.891 26.1934 129.702 26.6568 129.458 27.0219C129.217 27.387 128.914 27.6599 128.549 27.8404C128.184 28.017 127.752 28.1052 127.255 28.1052H126.581ZM141.243 28.2858C140.341 28.2858 139.558 28.0872 138.896 27.69C138.234 27.2928 137.721 26.7371 137.355 26.0229C136.994 25.3087 136.814 24.4742 136.814 23.5193C136.814 22.5644 136.994 21.7279 137.355 21.0097C137.721 20.2915 138.234 19.7339 138.896 19.3366C139.558 18.9394 140.341 18.7408 141.243 18.7408C142.146 18.7408 142.928 18.9394 143.59 19.3366C144.252 19.7339 144.764 20.2915 145.125 21.0097C145.49 21.7279 145.673 22.5644 145.673 23.5193C145.673 24.4742 145.49 25.3087 145.125 26.0229C144.764 26.7371 144.252 27.2928 143.59 27.69C142.928 28.0872 142.146 28.2858 141.243 28.2858ZM141.255 26.5405C141.745 26.5405 142.154 26.4061 142.483 26.1373C142.812 25.8644 143.057 25.4993 143.217 25.0419C143.382 24.5846 143.464 24.075 143.464 23.5133C143.464 22.9476 143.382 22.436 143.217 21.9787C143.057 21.5173 142.812 21.1501 142.483 20.8773C142.154 20.6045 141.745 20.4681 141.255 20.4681C140.754 20.4681 140.337 20.6045 140.004 20.8773C139.675 21.1501 139.428 21.5173 139.263 21.9787C139.103 22.436 139.023 22.9476 139.023 23.5133C139.023 24.075 139.103 24.5846 139.263 25.0419C139.428 25.4993 139.675 25.8644 140.004 26.1373C140.337 26.4061 140.754 26.5405 141.255 26.5405ZM147.352 28.1052V18.8612H151.234C152.329 18.8612 153.194 19.0799 153.828 19.5172C154.466 19.9545 154.785 20.5644 154.785 21.3467C154.785 21.8643 154.604 22.2876 154.243 22.6166C153.886 22.9416 153.399 23.1602 152.781 23.2726C153.266 23.3127 153.692 23.4351 154.057 23.6397C154.426 23.8443 154.715 24.1131 154.923 24.4461C155.132 24.7791 155.236 25.1623 155.236 25.5956C155.236 26.1052 155.102 26.5485 154.833 26.9256C154.568 27.2988 154.181 27.5897 153.671 27.7983C153.166 28.0029 152.552 28.1052 151.83 28.1052H147.352ZM149.393 26.39H151.83C152.231 26.39 152.546 26.2957 152.775 26.1072C153.003 25.9146 153.118 25.6538 153.118 25.3248C153.118 24.9436 153.003 24.6447 152.775 24.4281C152.546 24.2074 152.231 24.0971 151.83 24.0971H149.393V26.39ZM149.393 22.6888H151.276C151.573 22.6888 151.828 22.6467 152.041 22.5624C152.253 22.4742 152.416 22.3518 152.528 22.1953C152.64 22.0348 152.697 21.8442 152.697 21.6236C152.697 21.3066 152.566 21.0579 152.305 20.8773C152.049 20.6968 151.691 20.6065 151.234 20.6065H149.393V22.6888ZM160.995 15.7799H163.728L167.387 24.7109H167.531L171.19 15.7799H173.922V28.1052H171.78V19.6376H171.666L168.259 28.0691H166.658L163.252 19.6195H163.138V28.1052H160.995V15.7799ZM177.43 28.2376C177.065 28.2376 176.752 28.1092 176.491 27.8525C176.23 27.5957 176.102 27.2827 176.106 26.9136C176.102 26.5525 176.23 26.2436 176.491 25.9868C176.752 25.73 177.065 25.6016 177.43 25.6016C177.783 25.6016 178.09 25.73 178.351 25.9868C178.616 26.2436 178.75 26.5525 178.754 26.9136C178.75 27.1584 178.686 27.381 178.562 27.5816C178.441 27.7822 178.281 27.9427 178.08 28.0631C177.883 28.1794 177.667 28.2376 177.43 28.2376Z" fill="#70ACF3" style="fill:#70ACF3;fill:color(display-p3 0.4392 0.6745 0.9529);fill-opacity:1;"/>
<path d="M78.9076 44.8332V46.1573H73.8041V44.8332H78.9076ZM74.1411 40.8612V50.1052H72.7208V40.8612H74.1411ZM79.9909 40.8612V50.1052H78.5706V40.8612H79.9909ZM86.0012 50.2978C85.1666 50.2978 84.4344 50.0992 83.8045 49.702C83.1786 49.3048 82.6891 48.7491 82.3361 48.0349C81.987 47.3208 81.8125 46.4863 81.8125 45.5314C81.8125 44.5684 81.987 43.7279 82.3361 43.0097C82.6891 42.2915 83.1786 41.7339 83.8045 41.3366C84.4344 40.9394 85.1666 40.7408 86.0012 40.7408C86.8357 40.7408 87.5659 40.9394 88.1918 41.3366C88.8217 41.7339 89.3112 42.2915 89.6603 43.0097C90.0133 43.7279 90.1899 44.5684 90.1899 45.5314C90.1899 46.4863 90.0133 47.3208 89.6603 48.0349C89.3112 48.7491 88.8217 49.3048 88.1918 49.702C87.5659 50.0992 86.8357 50.2978 86.0012 50.2978ZM86.0012 49.0219C86.6351 49.0219 87.1567 48.8594 87.5659 48.5345C87.9752 48.2095 88.2781 47.7822 88.4747 47.2526C88.6713 46.723 88.7696 46.1492 88.7696 45.5314C88.7696 44.9135 88.6713 44.3377 88.4747 43.8041C88.2781 43.2705 87.9752 42.8392 87.5659 42.5102C87.1567 42.1812 86.6351 42.0167 86.0012 42.0167C85.3673 42.0167 84.8457 42.1812 84.4364 42.5102C84.0272 42.8392 83.7243 43.2705 83.5277 43.8041C83.3311 44.3377 83.2328 44.9135 83.2328 45.5314C83.2328 46.1492 83.3311 46.723 83.5277 47.2526C83.7243 47.7822 84.0272 48.2095 84.4364 48.5345C84.8457 48.8594 85.3673 49.0219 86.0012 49.0219ZM92.019 50.1052V40.8612H95.7984C96.7935 40.8612 97.5839 41.0859 98.1696 41.5352C98.7554 41.9846 99.0483 42.5784 99.0483 43.3166C99.0483 43.8784 98.8818 44.3137 98.5488 44.6226C98.2158 44.9275 97.7885 45.1342 97.2669 45.2425C97.6079 45.2906 97.9389 45.411 98.2599 45.6036C98.5849 45.7962 98.8537 46.061 99.0664 46.398C99.279 46.731 99.3853 47.1402 99.3853 47.6257C99.3853 48.0991 99.265 48.5224 99.0242 48.8956C98.7835 49.2687 98.4384 49.5636 97.9891 49.7802C97.5397 49.9969 97.0021 50.1052 96.3762 50.1052H92.019ZM93.3671 48.8053H96.3762C96.8657 48.8053 97.2488 48.6889 97.5257 48.4562C97.8025 48.2235 97.9409 47.9066 97.9409 47.5053C97.9409 47.0279 97.8025 46.6528 97.5257 46.3799C97.2488 46.1031 96.8657 45.9647 96.3762 45.9647H93.3671V48.8053ZM93.3671 44.737H95.7984C96.1796 44.737 96.5066 44.6848 96.7794 44.5805C97.0522 44.4722 97.2609 44.3197 97.4053 44.1231C97.5538 43.9225 97.628 43.6858 97.628 43.4129C97.628 43.0238 97.4655 42.7188 97.1405 42.4982C96.8155 42.2735 96.3682 42.1611 95.7984 42.1611H93.3671V44.737ZM103.917 50.3219C103.331 50.3219 102.799 50.2115 102.322 49.9909C101.844 49.7662 101.465 49.4432 101.184 49.0219C100.904 48.5967 100.763 48.0831 100.763 47.4813C100.763 46.9517 100.867 46.5224 101.076 46.1934C101.285 45.8604 101.564 45.5996 101.913 45.411C102.262 45.2224 102.647 45.082 103.068 44.9897C103.493 44.8934 103.921 44.8172 104.35 44.761C104.912 44.6888 105.367 44.6346 105.716 44.5985C106.069 44.5584 106.326 44.4922 106.486 44.3999C106.651 44.3077 106.733 44.1472 106.733 43.9185V43.8703C106.733 43.2765 106.571 42.8151 106.246 42.4861C105.925 42.1571 105.437 41.9926 104.783 41.9926C104.105 41.9926 103.574 42.1411 103.188 42.438C102.803 42.7349 102.532 43.0518 102.376 43.3889L101.028 42.9074C101.269 42.3457 101.59 41.9084 101.991 41.5954C102.396 41.2785 102.837 41.0578 103.315 40.9334C103.796 40.805 104.27 40.7408 104.735 40.7408C105.032 40.7408 105.373 40.7769 105.758 40.8492C106.147 40.9174 106.523 41.0598 106.884 41.2765C107.249 41.4931 107.552 41.8201 107.792 42.2574C108.033 42.6948 108.153 43.2805 108.153 44.0148V50.1052H106.733V48.8534H106.661C106.565 49.054 106.404 49.2687 106.179 49.4974C105.955 49.7261 105.656 49.9207 105.283 50.0812C104.91 50.2416 104.454 50.3219 103.917 50.3219ZM104.133 49.046C104.695 49.046 105.168 48.9357 105.554 48.715C105.943 48.4943 106.236 48.2095 106.432 47.8604C106.633 47.5114 106.733 47.1442 106.733 46.7591V45.4591C106.673 45.5314 106.541 45.5976 106.336 45.6577C106.135 45.7139 105.903 45.7641 105.638 45.8082C105.377 45.8483 105.122 45.8844 104.874 45.9165C104.629 45.9446 104.43 45.9687 104.278 45.9887C103.909 46.0369 103.564 46.1151 103.243 46.2235C102.926 46.3278 102.669 46.4863 102.472 46.6989C102.28 46.9075 102.183 47.1924 102.183 47.5535C102.183 48.047 102.366 48.4201 102.731 48.6729C103.1 48.9216 103.568 49.046 104.133 49.046ZM115.968 50.1052V42.1611H113.512C112.959 42.1611 112.523 42.2895 112.206 42.5463C111.889 42.8031 111.731 43.1562 111.731 43.6055C111.731 44.0469 111.873 44.3939 112.158 44.6467C112.447 44.8994 112.842 45.0258 113.344 45.0258H116.329V46.3498H113.344C112.718 46.3498 112.178 46.2395 111.725 46.0188C111.272 45.7982 110.922 45.4832 110.678 45.074C110.433 44.6607 110.311 44.1712 110.311 43.6055C110.311 43.0358 110.439 42.5463 110.696 42.1371C110.953 41.7278 111.32 41.4129 111.797 41.1922C112.279 40.9715 112.85 40.8612 113.512 40.8612H117.316V50.1052H115.968ZM109.805 50.1052L112.429 45.5073H113.97L111.346 50.1052H109.805ZM127.767 50.2978C126.901 50.2978 126.154 50.0932 125.528 49.6839C124.902 49.2747 124.421 48.711 124.084 47.9928C123.747 47.2746 123.578 46.4542 123.578 45.5314C123.578 44.5925 123.751 43.764 124.096 43.0458C124.445 42.3236 124.931 41.7599 125.552 41.3547C126.178 40.9455 126.909 40.7408 127.743 40.7408C128.393 40.7408 128.979 40.8612 129.5 41.1019C130.022 41.3427 130.449 41.6797 130.782 42.113C131.115 42.5463 131.322 43.0518 131.402 43.6296H129.982C129.874 43.2083 129.633 42.8352 129.26 42.5102C128.891 42.1812 128.393 42.0167 127.767 42.0167C127.213 42.0167 126.728 42.1611 126.311 42.45C125.898 42.7349 125.575 43.1381 125.342 43.6597C125.113 44.1773 124.999 44.7851 124.999 45.4832C124.999 46.1974 125.111 46.8193 125.336 47.3489C125.564 47.8785 125.885 48.2897 126.299 48.5826C126.716 48.8755 127.205 49.0219 127.767 49.0219C128.136 49.0219 128.471 48.9577 128.772 48.8294C129.073 48.701 129.328 48.5164 129.537 48.2757C129.745 48.0349 129.894 47.7461 129.982 47.4091H131.402C131.322 47.9547 131.123 48.4462 130.806 48.8835C130.493 49.3168 130.078 49.6619 129.561 49.9187C129.047 50.1714 128.449 50.2978 127.767 50.2978ZM134.099 40.8612L136.314 44.6407L138.529 40.8612H140.166L137.181 45.4832L140.166 50.1052H138.529L136.314 46.5184L134.099 50.1052H132.462L135.399 45.4832L132.462 40.8612H134.099ZM145.349 50.2978C144.458 50.2978 143.69 50.1012 143.044 49.708C142.402 49.3108 141.906 48.7571 141.557 48.047C141.212 47.3328 141.04 46.5023 141.04 45.5554C141.04 44.6086 141.212 43.774 141.557 43.0518C141.906 42.3256 142.392 41.7599 143.014 41.3547C143.639 40.9455 144.37 40.7408 145.204 40.7408C145.686 40.7408 146.161 40.8211 146.631 40.9816C147.1 41.1421 147.527 41.4028 147.912 41.7639C148.298 42.121 148.604 42.5945 148.833 43.1842C149.062 43.774 149.176 44.5002 149.176 45.3628V45.9647H142.051V44.737H147.732C147.732 44.2154 147.628 43.75 147.419 43.3407C147.214 42.9315 146.921 42.6085 146.54 42.3718C146.163 42.1351 145.718 42.0167 145.204 42.0167C144.638 42.0167 144.149 42.1571 143.736 42.438C143.326 42.7148 143.012 43.0759 142.791 43.5213C142.57 43.9666 142.46 44.4441 142.46 44.9536V45.7721C142.46 46.4702 142.58 47.062 142.821 47.5475C143.066 48.0289 143.405 48.396 143.838 48.6488C144.271 48.8976 144.775 49.0219 145.349 49.0219C145.722 49.0219 146.059 48.9698 146.36 48.8655C146.665 48.7571 146.927 48.5967 147.148 48.384C147.369 48.1674 147.539 47.8985 147.66 47.5776L149.032 47.9627C148.887 48.4281 148.645 48.8374 148.304 49.1905C147.963 49.5395 147.541 49.8123 147.04 50.0089C146.538 50.2015 145.975 50.2978 145.349 50.2978ZM156.053 48.1794L159.279 40.8612H160.627L156.631 50.1052H155.475L151.552 40.8612H152.876L156.053 48.1794ZM152.418 40.8612V50.1052H150.998V40.8612H152.418ZM159.688 50.1052V40.8612H161.108V50.1052H159.688ZM166.09 50.3219C165.504 50.3219 164.972 50.2115 164.495 49.9909C164.017 49.7662 163.638 49.4432 163.357 49.0219C163.077 48.5967 162.936 48.0831 162.936 47.4813C162.936 46.9517 163.04 46.5224 163.249 46.1934C163.458 45.8604 163.737 45.5996 164.086 45.411C164.435 45.2224 164.82 45.082 165.241 44.9897C165.666 44.8934 166.094 44.8172 166.523 44.761C167.085 44.6888 167.54 44.6346 167.889 44.5985C168.242 44.5584 168.499 44.4922 168.659 44.3999C168.824 44.3077 168.906 44.1472 168.906 43.9185V43.8703C168.906 43.2765 168.744 42.8151 168.419 42.4861C168.098 42.1571 167.61 41.9926 166.956 41.9926C166.278 41.9926 165.747 42.1411 165.361 42.438C164.976 42.7349 164.705 43.0518 164.549 43.3889L163.201 42.9074C163.442 42.3457 163.763 41.9084 164.164 41.5954C164.569 41.2785 165.01 41.0578 165.488 40.9334C165.969 40.805 166.443 40.7408 166.908 40.7408C167.205 40.7408 167.546 40.7769 167.931 40.8492C168.32 40.9174 168.696 41.0598 169.057 41.2765C169.422 41.4931 169.725 41.8201 169.965 42.2574C170.206 42.6948 170.326 43.2805 170.326 44.0148V50.1052H168.906V48.8534H168.834C168.738 49.054 168.577 49.2687 168.353 49.4974C168.128 49.7261 167.829 49.9207 167.456 50.0812C167.083 50.2416 166.627 50.3219 166.09 50.3219ZM166.306 49.046C166.868 49.046 167.341 48.9357 167.727 48.715C168.116 48.4943 168.409 48.2095 168.605 47.8604C168.806 47.5114 168.906 47.1442 168.906 46.7591V45.4591C168.846 45.5314 168.714 45.5976 168.509 45.6577C168.308 45.7139 168.076 45.7641 167.811 45.8082C167.55 45.8483 167.295 45.8844 167.047 45.9165C166.802 45.9446 166.603 45.9687 166.451 45.9887C166.082 46.0369 165.737 46.1151 165.416 46.2235C165.099 46.3278 164.842 46.4863 164.645 46.6989C164.453 46.9075 164.356 47.1924 164.356 47.5535C164.356 48.047 164.539 48.4201 164.904 48.6729C165.273 48.9216 165.741 49.046 166.306 49.046ZM177.007 50.1052V40.8612H178.428V44.8814H179.367L182.689 40.8612H184.518L180.787 45.3147L184.566 50.1052H182.737L179.704 46.2054H178.428V50.1052H177.007ZM185.771 53.5717V40.8612H187.143V42.3297H187.312C187.416 42.1692 187.56 41.9645 187.745 41.7158C187.934 41.463 188.202 41.2383 188.551 41.0418C188.905 40.8411 189.382 40.7408 189.984 40.7408C190.762 40.7408 191.448 40.9354 192.042 41.3246C192.636 41.7138 193.099 42.2655 193.432 42.9796C193.765 43.6938 193.932 44.5363 193.932 45.5073C193.932 46.4863 193.765 47.3348 193.432 48.053C193.099 48.7672 192.638 49.3208 192.048 49.714C191.458 50.1032 190.778 50.2978 190.008 50.2978C189.414 50.2978 188.939 50.1995 188.582 50.0029C188.224 49.8023 187.95 49.5756 187.757 49.3229C187.564 49.0661 187.416 48.8534 187.312 48.6849H187.191V53.5717H185.771ZM187.167 45.4832C187.167 46.1813 187.27 46.7972 187.474 47.3308C187.679 47.8604 187.978 48.2757 188.371 48.5766C188.764 48.8735 189.246 49.0219 189.815 49.0219C190.409 49.0219 190.905 48.8655 191.302 48.5525C191.703 48.2356 192.004 47.8103 192.205 47.2767C192.409 46.739 192.511 46.1412 192.511 45.4832C192.511 44.8332 192.411 44.2475 192.211 43.7259C192.014 43.2003 191.715 42.785 191.314 42.4801C190.917 42.1712 190.417 42.0167 189.815 42.0167C189.238 42.0167 188.752 42.1632 188.359 42.456C187.966 42.7449 187.669 43.1501 187.468 43.6717C187.268 44.1893 187.167 44.7931 187.167 45.4832ZM198.48 50.3219C197.894 50.3219 197.362 50.2115 196.885 49.9909C196.407 49.7662 196.028 49.4432 195.747 49.0219C195.467 48.5967 195.326 48.0831 195.326 47.4813C195.326 46.9517 195.43 46.5224 195.639 46.1934C195.848 45.8604 196.127 45.5996 196.476 45.411C196.825 45.2224 197.21 45.082 197.631 44.9897C198.056 44.8934 198.484 44.8172 198.913 44.761C199.475 44.6888 199.93 44.6346 200.279 44.5985C200.632 44.5584 200.889 44.4922 201.049 44.3999C201.214 44.3077 201.296 44.1472 201.296 43.9185V43.8703C201.296 43.2765 201.134 42.8151 200.809 42.4861C200.488 42.1571 200 41.9926 199.346 41.9926C198.668 41.9926 198.137 42.1411 197.751 42.438C197.366 42.7349 197.095 43.0518 196.939 43.3889L195.591 42.9074C195.832 42.3457 196.153 41.9084 196.554 41.5954C196.959 41.2785 197.4 41.0578 197.878 40.9334C198.359 40.805 198.833 40.7408 199.298 40.7408C199.595 40.7408 199.936 40.7769 200.321 40.8492C200.71 40.9174 201.086 41.0598 201.447 41.2765C201.812 41.4931 202.115 41.8201 202.355 42.2574C202.596 42.6948 202.716 43.2805 202.716 44.0148V50.1052H201.296V48.8534H201.224C201.128 49.054 200.967 49.2687 200.743 49.4974C200.518 49.7261 200.219 49.9207 199.846 50.0812C199.473 50.2416 199.017 50.3219 198.48 50.3219ZM198.696 49.046C199.258 49.046 199.731 48.9357 200.117 48.715C200.506 48.4943 200.799 48.2095 200.995 47.8604C201.196 47.5114 201.296 47.1442 201.296 46.7591V45.4591C201.236 45.5314 201.104 45.5976 200.899 45.6577C200.698 45.7139 200.466 45.7641 200.201 45.8082C199.94 45.8483 199.685 45.8844 199.437 45.9165C199.192 45.9446 198.993 45.9687 198.841 45.9887C198.472 46.0369 198.127 46.1151 197.806 46.2235C197.489 46.3278 197.232 46.4863 197.035 46.6989C196.843 46.9075 196.746 47.1924 196.746 47.5535C196.746 48.047 196.929 48.4201 197.294 48.6729C197.663 48.9216 198.131 49.046 198.696 49.046ZM208.725 50.2978C207.859 50.2978 207.112 50.0932 206.486 49.6839C205.861 49.2747 205.379 48.711 205.042 47.9928C204.705 47.2746 204.537 46.4542 204.537 45.5314C204.537 44.5925 204.709 43.764 205.054 43.0458C205.403 42.3236 205.889 41.7599 206.511 41.3547C207.136 40.9455 207.867 40.7408 208.701 40.7408C209.351 40.7408 209.937 40.8612 210.459 41.1019C210.98 41.3427 211.407 41.6797 211.74 42.113C212.073 42.5463 212.28 43.0518 212.36 43.6296H210.94C210.832 43.2083 210.591 42.8352 210.218 42.5102C209.849 42.1812 209.351 42.0167 208.725 42.0167C208.172 42.0167 207.686 42.1611 207.269 42.45C206.856 42.7349 206.533 43.1381 206.3 43.6597C206.071 44.1773 205.957 44.7851 205.957 45.4832C205.957 46.1974 206.069 46.8193 206.294 47.3489C206.523 47.8785 206.844 48.2897 207.257 48.5826C207.674 48.8755 208.164 49.0219 208.725 49.0219C209.094 49.0219 209.429 48.9577 209.73 48.8294C210.031 48.701 210.286 48.5164 210.495 48.2757C210.703 48.0349 210.852 47.7461 210.94 47.4091H212.36C212.28 47.9547 212.081 48.4462 211.764 48.8835C211.452 49.3168 211.036 49.6619 210.519 49.9187C210.005 50.1714 209.407 50.2978 208.725 50.2978ZM215.518 48.0109L219.971 40.8612H221.608V50.1052H220.188V42.9556L215.759 50.1052H214.098V40.8612H215.518V48.0109ZM223.871 50.1052V40.8612H227.65C228.645 40.8612 229.436 41.0859 230.021 41.5352C230.607 41.9846 230.9 42.5784 230.9 43.3166C230.9 43.8784 230.734 44.3137 230.401 44.6226C230.068 44.9275 229.64 45.1342 229.119 45.2425C229.46 45.2906 229.791 45.411 230.112 45.6036C230.437 45.7962 230.706 46.061 230.918 46.398C231.131 46.731 231.237 47.1402 231.237 47.6257C231.237 48.0991 231.117 48.5224 230.876 48.8956C230.635 49.2687 230.29 49.5636 229.841 49.7802C229.392 49.9969 228.854 50.1052 228.228 50.1052H223.871ZM225.219 48.8053H228.228C228.718 48.8053 229.101 48.6889 229.378 48.4562C229.654 48.2235 229.793 47.9066 229.793 47.5053C229.793 47.0279 229.654 46.6528 229.378 46.3799C229.101 46.1031 228.718 45.9647 228.228 45.9647H225.219V48.8053ZM225.219 44.737H227.65C228.031 44.737 228.358 44.6848 228.631 44.5805C228.904 44.4722 229.113 44.3197 229.257 44.1231C229.406 43.9225 229.48 43.6858 229.48 43.4129C229.48 43.0238 229.317 42.7188 228.992 42.4982C228.667 42.2735 228.22 42.1611 227.65 42.1611H225.219V44.737ZM235.768 50.3219C235.183 50.3219 234.651 50.2115 234.174 49.9909C233.696 49.7662 233.317 49.4432 233.036 49.0219C232.755 48.5967 232.615 48.0831 232.615 47.4813C232.615 46.9517 232.719 46.5224 232.928 46.1934C233.137 45.8604 233.415 45.5996 233.764 45.411C234.113 45.2224 234.499 45.082 234.92 44.9897C235.345 44.8934 235.773 44.8172 236.202 44.761C236.764 44.6888 237.219 44.6346 237.568 44.5985C237.921 44.5584 238.178 44.4922 238.338 44.3999C238.503 44.3077 238.585 44.1472 238.585 43.9185V43.8703C238.585 43.2765 238.423 42.8151 238.098 42.4861C237.777 42.1571 237.289 41.9926 236.635 41.9926C235.957 41.9926 235.425 42.1411 235.04 42.438C234.655 42.7349 234.384 43.0518 234.228 43.3889L232.88 42.9074C233.12 42.3457 233.441 41.9084 233.843 41.5954C234.248 41.2785 234.689 41.0578 235.167 40.9334C235.648 40.805 236.122 40.7408 236.587 40.7408C236.884 40.7408 237.225 40.7769 237.61 40.8492C237.999 40.9174 238.374 41.0598 238.735 41.2765C239.101 41.4931 239.404 41.8201 239.644 42.2574C239.885 42.6948 240.005 43.2805 240.005 44.0148V50.1052H238.585V48.8534H238.513C238.417 49.054 238.256 49.2687 238.031 49.4974C237.807 49.7261 237.508 49.9207 237.135 50.0812C236.762 50.2416 236.306 50.3219 235.768 50.3219ZM235.985 49.046C236.547 49.046 237.02 48.9357 237.405 48.715C237.795 48.4943 238.088 48.2095 238.284 47.8604C238.485 47.5114 238.585 47.1442 238.585 46.7591V45.4591C238.525 45.5314 238.392 45.5976 238.188 45.6577C237.987 45.7139 237.755 45.7641 237.49 45.8082C237.229 45.8483 236.974 45.8844 236.725 45.9165C236.481 45.9446 236.282 45.9687 236.13 45.9887C235.76 46.0369 235.415 46.1151 235.094 46.2235C234.777 46.3278 234.521 46.4863 234.324 46.6989C234.132 46.9075 234.035 47.1924 234.035 47.5535C234.035 48.047 234.218 48.4201 234.583 48.6729C234.952 48.9216 235.419 49.046 235.985 49.046ZM247.82 50.1052V42.1611H245.364C244.81 42.1611 244.375 42.2895 244.058 42.5463C243.741 42.8031 243.583 43.1562 243.583 43.6055C243.583 44.0469 243.725 44.3939 244.01 44.6467C244.299 44.8994 244.694 45.0258 245.196 45.0258H248.181V46.3498H245.196C244.57 46.3498 244.03 46.2395 243.577 46.0188C243.123 45.7982 242.774 45.4832 242.53 45.074C242.285 44.6607 242.162 44.1712 242.162 43.6055C242.162 43.0358 242.291 42.5463 242.548 42.1371C242.804 41.7278 243.172 41.4129 243.649 41.1922C244.13 40.9715 244.702 40.8612 245.364 40.8612H249.168V50.1052H247.82ZM241.657 50.1052L244.281 45.5073H245.822L243.198 50.1052H241.657ZM255.864 50.1052V40.8612H257.284V44.8814H258.223L261.545 40.8612H263.374L259.643 45.3147L263.423 50.1052H261.593L258.56 46.2054H257.284V50.1052H255.864ZM268.002 50.2978C267.167 50.2978 266.435 50.0992 265.805 49.702C265.179 49.3048 264.69 48.7491 264.337 48.0349C263.988 47.3208 263.813 46.4863 263.813 45.5314C263.813 44.5684 263.988 43.7279 264.337 43.0097C264.69 42.2915 265.179 41.7339 265.805 41.3366C266.435 40.9394 267.167 40.7408 268.002 40.7408C268.837 40.7408 269.567 40.9394 270.193 41.3366C270.823 41.7339 271.312 42.2915 271.661 43.0097C272.014 43.7279 272.191 44.5684 272.191 45.5314C272.191 46.4863 272.014 47.3208 271.661 48.0349C271.312 48.7491 270.823 49.3048 270.193 49.702C269.567 50.0992 268.837 50.2978 268.002 50.2978ZM268.002 49.0219C268.636 49.0219 269.158 48.8594 269.567 48.5345C269.976 48.2095 270.279 47.7822 270.476 47.2526C270.672 46.723 270.77 46.1492 270.77 45.5314C270.77 44.9135 270.672 44.3377 270.476 43.8041C270.279 43.2705 269.976 42.8392 269.567 42.5102C269.158 42.1812 268.636 42.0167 268.002 42.0167C267.368 42.0167 266.847 42.1812 266.437 42.5102C266.028 42.8392 265.725 43.2705 265.529 43.8041C265.332 44.3377 265.234 44.9135 265.234 45.5314C265.234 46.1492 265.332 46.723 265.529 47.2526C265.725 47.7822 266.028 48.2095 266.437 48.5345C266.847 48.8594 267.368 49.0219 268.002 49.0219ZM280.207 44.8332V46.1573H275.103V44.8332H280.207ZM275.44 40.8612V50.1052H274.02V40.8612H275.44ZM281.29 40.8612V50.1052H279.87V40.8612H281.29ZM287.421 50.2978C286.53 50.2978 285.762 50.1012 285.116 49.708C284.474 49.3108 283.978 48.7571 283.629 48.047C283.284 47.3328 283.111 46.5023 283.111 45.5554C283.111 44.6086 283.284 43.774 283.629 43.0518C283.978 42.3256 284.464 41.7599 285.085 41.3547C285.711 40.9455 286.442 40.7408 287.276 40.7408C287.758 40.7408 288.233 40.8211 288.702 40.9816C289.172 41.1421 289.599 41.4028 289.984 41.7639C290.369 42.121 290.676 42.5945 290.905 43.1842C291.134 43.774 291.248 44.5002 291.248 45.3628V45.9647H284.123V44.737H289.804C289.804 44.2154 289.699 43.75 289.491 43.3407C289.286 42.9315 288.993 42.6085 288.612 42.3718C288.235 42.1351 287.79 42.0167 287.276 42.0167C286.71 42.0167 286.221 42.1571 285.808 42.438C285.398 42.7148 285.083 43.0759 284.863 43.5213C284.642 43.9666 284.532 44.4441 284.532 44.9536V45.7721C284.532 46.4702 284.652 47.062 284.893 47.5475C285.138 48.0289 285.477 48.396 285.91 48.6488C286.343 48.8976 286.847 49.0219 287.421 49.0219C287.794 49.0219 288.131 48.9698 288.432 48.8655C288.737 48.7571 288.999 48.5967 289.22 48.384C289.441 48.1674 289.611 47.8985 289.732 47.5776L291.104 47.9627C290.959 48.4281 290.717 48.8374 290.375 49.1905C290.034 49.5395 289.613 49.8123 289.112 50.0089C288.61 50.2015 288.046 50.2978 287.421 50.2978ZM300.195 40.8612V50.1052H298.775V40.8612H300.195ZM299.642 45.2666V46.5906C299.321 46.7109 299.002 46.8173 298.685 46.9095C298.368 46.9978 298.035 47.068 297.686 47.1202C297.337 47.1683 296.954 47.1924 296.536 47.1924C295.489 47.1924 294.649 46.9095 294.015 46.3438C293.385 45.7781 293.07 44.9295 293.07 43.7981V40.8371H294.49V43.7981C294.49 44.2715 294.58 44.6607 294.761 44.9656C294.941 45.2706 295.186 45.4973 295.495 45.6457C295.804 45.7942 296.151 45.8684 296.536 45.8684C297.138 45.8684 297.682 45.8142 298.167 45.7059C298.657 45.5935 299.148 45.4471 299.642 45.2666ZM308.649 44.8332V46.1573H303.546V44.8332H308.649ZM303.883 40.8612V50.1052H302.462V40.8612H303.883ZM309.732 40.8612V50.1052H308.312V40.8612H309.732ZM315.743 50.2978C314.908 50.2978 314.176 50.0992 313.546 49.702C312.92 49.3048 312.431 48.7491 312.078 48.0349C311.728 47.3208 311.554 46.4863 311.554 45.5314C311.554 44.5684 311.728 43.7279 312.078 43.0097C312.431 42.2915 312.92 41.7339 313.546 41.3366C314.176 40.9394 314.908 40.7408 315.743 40.7408C316.577 40.7408 317.307 40.9394 317.933 41.3366C318.563 41.7339 319.053 42.2915 319.402 43.0097C319.755 43.7279 319.931 44.5684 319.931 45.5314C319.931 46.4863 319.755 47.3208 319.402 48.0349C319.053 48.7491 318.563 49.3048 317.933 49.702C317.307 50.0992 316.577 50.2978 315.743 50.2978ZM315.743 49.0219C316.377 49.0219 316.898 48.8594 317.307 48.5345C317.717 48.2095 318.02 47.7822 318.216 47.2526C318.413 46.723 318.511 46.1492 318.511 45.5314C318.511 44.9135 318.413 44.3377 318.216 43.8041C318.02 43.2705 317.717 42.8392 317.307 42.5102C316.898 42.1812 316.377 42.0167 315.743 42.0167C315.109 42.0167 314.587 42.1812 314.178 42.5102C313.769 42.8392 313.466 43.2705 313.269 43.8041C313.073 44.3377 312.974 44.9135 312.974 45.5314C312.974 46.1492 313.073 46.723 313.269 47.2526C313.466 47.7822 313.769 48.2095 314.178 48.5345C314.587 48.8594 315.109 49.0219 315.743 49.0219ZM322.796 50.2015C322.499 50.2015 322.244 50.0952 322.031 49.8825C321.819 49.6699 321.712 49.4151 321.712 49.1182C321.712 48.8213 321.819 48.5666 322.031 48.3539C322.244 48.1413 322.499 48.0349 322.796 48.0349C323.092 48.0349 323.347 48.1413 323.56 48.3539C323.773 48.5666 323.879 48.8213 323.879 49.1182C323.879 49.3148 323.829 49.4954 323.728 49.6599C323.632 49.8244 323.502 49.9568 323.337 50.0571C323.177 50.1534 322.996 50.2015 322.796 50.2015ZM327.418 50.2015C327.121 50.2015 326.866 50.0952 326.653 49.8825C326.441 49.6699 326.334 49.4151 326.334 49.1182C326.334 48.8213 326.441 48.5666 326.653 48.3539C326.866 48.1413 327.121 48.0349 327.418 48.0349C327.714 48.0349 327.969 48.1413 328.182 48.3539C328.395 48.5666 328.501 48.8213 328.501 49.1182C328.501 49.3148 328.451 49.4954 328.35 49.6599C328.254 49.8244 328.124 49.9568 327.959 50.0571C327.799 50.1534 327.618 50.2015 327.418 50.2015ZM332.04 50.2015C331.743 50.2015 331.488 50.0952 331.275 49.8825C331.063 49.6699 330.956 49.4151 330.956 49.1182C330.956 48.8213 331.063 48.5666 331.275 48.3539C331.488 48.1413 331.743 48.0349 332.04 48.0349C332.336 48.0349 332.591 48.1413 332.804 48.3539C333.017 48.5666 333.123 48.8213 333.123 49.1182C333.123 49.3148 333.073 49.4954 332.972 49.6599C332.876 49.8244 332.746 49.9568 332.581 50.0571C332.421 50.1534 332.24 50.2015 332.04 50.2015ZM345.954 44.8332V46.1573H340.851V44.8332H345.954ZM341.188 40.8612V50.1052H339.768V40.8612H341.188ZM347.038 40.8612V50.1052H345.617V40.8612H347.038ZM353.048 50.2978C352.213 50.2978 351.481 50.0992 350.851 49.702C350.225 49.3048 349.736 48.7491 349.383 48.0349C349.034 47.3208 348.859 46.4863 348.859 45.5314C348.859 44.5684 349.034 43.7279 349.383 43.0097C349.736 42.2915 350.225 41.7339 350.851 41.3366C351.481 40.9394 352.213 40.7408 353.048 40.7408C353.883 40.7408 354.613 40.9394 355.239 41.3366C355.869 41.7339 356.358 42.2915 356.707 43.0097C357.06 43.7279 357.237 44.5684 357.237 45.5314C357.237 46.4863 357.06 47.3208 356.707 48.0349C356.358 48.7491 355.869 49.3048 355.239 49.702C354.613 50.0992 353.883 50.2978 353.048 50.2978ZM353.048 49.0219C353.682 49.0219 354.204 48.8594 354.613 48.5345C355.022 48.2095 355.325 47.7822 355.521 47.2526C355.718 46.723 355.816 46.1492 355.816 45.5314C355.816 44.9135 355.718 44.3377 355.521 43.8041C355.325 43.2705 355.022 42.8392 354.613 42.5102C354.204 42.1812 353.682 42.0167 353.048 42.0167C352.414 42.0167 351.892 42.1812 351.483 42.5102C351.074 42.8392 350.771 43.2705 350.575 43.8041C350.378 44.3377 350.28 44.9135 350.28 45.5314C350.28 46.1492 350.378 46.723 350.575 47.2526C350.771 47.7822 351.074 48.2095 351.483 48.5345C351.892 48.8594 352.414 49.0219 353.048 49.0219ZM363.493 50.1052V40.8612H370.763V50.1052H369.343V42.1852H364.914V50.1052H363.493ZM376.774 50.2978C375.939 50.2978 375.207 50.0992 374.577 49.702C373.951 49.3048 373.462 48.7491 373.109 48.0349C372.76 47.3208 372.585 46.4863 372.585 45.5314C372.585 44.5684 372.76 43.7279 373.109 43.0097C373.462 42.2915 373.951 41.7339 374.577 41.3366C375.207 40.9394 375.939 40.7408 376.774 40.7408C377.608 40.7408 378.338 40.9394 378.964 41.3366C379.594 41.7339 380.084 42.2915 380.433 43.0097C380.786 43.7279 380.962 44.5684 380.962 45.5314C380.962 46.4863 380.786 47.3208 380.433 48.0349C380.084 48.7491 379.594 49.3048 378.964 49.702C378.338 50.0992 377.608 50.2978 376.774 50.2978ZM376.774 49.0219C377.408 49.0219 377.929 48.8594 378.338 48.5345C378.748 48.2095 379.051 47.7822 379.247 47.2526C379.444 46.723 379.542 46.1492 379.542 45.5314C379.542 44.9135 379.444 44.3377 379.247 43.8041C379.051 43.2705 378.748 42.8392 378.338 42.5102C377.929 42.1812 377.408 42.0167 376.774 42.0167C376.14 42.0167 375.618 42.1812 375.209 42.5102C374.8 42.8392 374.497 43.2705 374.3 43.8041C374.104 44.3377 374.005 44.9135 374.005 45.5314C374.005 46.1492 374.104 46.723 374.3 47.2526C374.497 47.7822 374.8 48.2095 375.209 48.5345C375.618 48.8594 376.14 49.0219 376.774 49.0219ZM381.973 50.1052V48.7812H382.31C382.587 48.7812 382.818 48.727 383.002 48.6187C383.187 48.5064 383.335 48.3118 383.447 48.0349C383.564 47.7541 383.652 47.3649 383.712 46.8674C383.776 46.3659 383.823 45.728 383.851 44.9536L384.019 40.8612H390.182V50.1052H388.762V42.1852H385.367L385.223 45.4832C385.191 46.2415 385.123 46.9095 385.018 47.4873C384.918 48.061 384.763 48.5425 384.555 48.9317C384.35 49.3208 384.077 49.6137 383.736 49.8103C383.395 50.0069 382.968 50.1052 382.454 50.1052H381.973ZM393.677 44.2073H396.325C397.408 44.2073 398.236 44.4822 398.81 45.0318C399.384 45.5815 399.671 46.2776 399.671 47.1202C399.671 47.6739 399.542 48.1774 399.286 48.6308C399.029 49.0801 398.652 49.4392 398.154 49.708C397.657 49.9728 397.047 50.1052 396.325 50.1052H392.449V40.8612H393.869V48.7812H396.325C396.886 48.7812 397.348 48.6328 397.709 48.3359C398.07 48.039 398.25 47.6578 398.25 47.1924C398.25 46.7029 398.07 46.3037 397.709 45.9948C397.348 45.6858 396.886 45.5314 396.325 45.5314H393.677V44.2073ZM400.916 47.7461H402.433C402.465 48.1633 402.653 48.4803 402.998 48.697C403.347 48.9136 403.801 49.0219 404.359 49.0219C404.928 49.0219 405.416 48.9056 405.821 48.6729C406.226 48.4362 406.429 48.055 406.429 47.5294C406.429 47.2205 406.353 46.9517 406.2 46.723C406.048 46.4903 405.833 46.3097 405.556 46.1813C405.279 46.0529 404.952 45.9887 404.575 45.9887H402.986V44.7129H404.575C405.141 44.7129 405.558 44.5845 405.827 44.3277C406.1 44.0709 406.236 43.75 406.236 43.3648C406.236 42.9515 406.09 42.6205 405.797 42.3718C405.504 42.119 405.089 41.9926 404.551 41.9926C404.009 41.9926 403.558 42.115 403.197 42.3597C402.836 42.6005 402.645 42.9114 402.625 43.2926H401.133C401.149 42.7951 401.301 42.3557 401.59 41.9746C401.879 41.5894 402.272 41.2885 402.77 41.0718C403.267 40.8512 403.837 40.7408 404.479 40.7408C405.129 40.7408 405.693 40.8552 406.17 41.0839C406.651 41.3086 407.023 41.6155 407.283 42.0047C407.548 42.3898 407.681 42.8272 407.681 43.3166C407.681 43.8382 407.534 44.2595 407.241 44.5805C406.948 44.9015 406.581 45.1301 406.14 45.2666V45.3628C406.489 45.3869 406.792 45.4993 407.049 45.6999C407.309 45.8965 407.512 46.1553 407.657 46.4762C407.801 46.7932 407.873 47.1442 407.873 47.5294C407.873 48.0911 407.723 48.5806 407.422 48.9979C407.121 49.4111 406.708 49.7321 406.182 49.9608C405.656 50.1855 405.057 50.2978 404.383 50.2978C403.729 50.2978 403.143 50.1915 402.625 49.9788C402.108 49.7622 401.696 49.4633 401.392 49.0821C401.091 48.697 400.932 48.2516 400.916 47.7461ZM413.285 50.2978C412.45 50.2978 411.718 50.0992 411.088 49.702C410.462 49.3048 409.973 48.7491 409.62 48.0349C409.27 47.3208 409.096 46.4863 409.096 45.5314C409.096 44.5684 409.27 43.7279 409.62 43.0097C409.973 42.2915 410.462 41.7339 411.088 41.3366C411.718 40.9394 412.45 40.7408 413.285 40.7408C414.119 40.7408 414.849 40.9394 415.475 41.3366C416.105 41.7339 416.595 42.2915 416.944 43.0097C417.297 43.7279 417.473 44.5684 417.473 45.5314C417.473 46.4863 417.297 47.3208 416.944 48.0349C416.595 48.7491 416.105 49.3048 415.475 49.702C414.849 50.0992 414.119 50.2978 413.285 50.2978ZM413.285 49.0219C413.919 49.0219 414.44 48.8594 414.849 48.5345C415.259 48.2095 415.562 47.7822 415.758 47.2526C415.955 46.723 416.053 46.1492 416.053 45.5314C416.053 44.9135 415.955 44.3377 415.758 43.8041C415.562 43.2705 415.259 42.8392 414.849 42.5102C414.44 42.1812 413.919 42.0167 413.285 42.0167C412.651 42.0167 412.129 42.1812 411.72 42.5102C411.311 42.8392 411.008 43.2705 410.811 43.8041C410.615 44.3377 410.516 44.9135 410.516 45.5314C410.516 46.1492 410.615 46.723 410.811 47.2526C411.008 47.7822 411.311 48.2095 411.72 48.5345C412.129 48.8594 412.651 49.0219 413.285 49.0219ZM419.302 50.1052V40.8612H423.082C424.077 40.8612 424.867 41.0859 425.453 41.5352C426.039 41.9846 426.332 42.5784 426.332 43.3166C426.332 43.8784 426.165 44.3137 425.832 44.6226C425.499 44.9275 425.072 45.1342 424.55 45.2425C424.891 45.2906 425.222 45.411 425.543 45.6036C425.868 45.7962 426.137 46.061 426.35 46.398C426.562 46.731 426.669 47.1402 426.669 47.6257C426.669 48.0991 426.548 48.5224 426.308 48.8956C426.067 49.2687 425.722 49.5636 425.273 49.7802C424.823 49.9969 424.286 50.1052 423.66 50.1052H419.302ZM420.651 48.8053H423.66C424.149 48.8053 424.532 48.6889 424.809 48.4562C425.086 48.2235 425.224 47.9066 425.224 47.5053C425.224 47.0279 425.086 46.6528 424.809 46.3799C424.532 46.1031 424.149 45.9647 423.66 45.9647H420.651V48.8053ZM420.651 44.737H423.082C423.463 44.737 423.79 44.6848 424.063 44.5805C424.336 44.4722 424.544 44.3197 424.689 44.1231C424.837 43.9225 424.911 43.6858 424.911 43.4129C424.911 43.0238 424.749 42.7188 424.424 42.4982C424.099 42.2735 423.652 42.1611 423.082 42.1611H420.651V44.737ZM431.2 50.3219C430.614 50.3219 430.083 50.2115 429.605 49.9909C429.128 49.7662 428.749 49.4432 428.468 49.0219C428.187 48.5967 428.047 48.0831 428.047 47.4813C428.047 46.9517 428.151 46.5224 428.36 46.1934C428.568 45.8604 428.847 45.5996 429.196 45.411C429.545 45.2224 429.93 45.082 430.352 44.9897C430.777 44.8934 431.204 44.8172 431.633 44.761C432.195 44.6888 432.651 44.6346 433 44.5985C433.353 44.5584 433.609 44.4922 433.77 44.3999C433.934 44.3077 434.017 44.1472 434.017 43.9185V43.8703C434.017 43.2765 433.854 42.8151 433.529 42.4861C433.208 42.1571 432.721 41.9926 432.067 41.9926C431.389 41.9926 430.857 42.1411 430.472 42.438C430.087 42.7349 429.816 43.0518 429.659 43.3889L428.311 42.9074C428.552 42.3457 428.873 41.9084 429.274 41.5954C429.68 41.2785 430.121 41.0578 430.598 40.9334C431.08 40.805 431.553 40.7408 432.019 40.7408C432.315 40.7408 432.657 40.7769 433.042 40.8492C433.431 40.9174 433.806 41.0598 434.167 41.2765C434.532 41.4931 434.835 41.8201 435.076 42.2574C435.317 42.6948 435.437 43.2805 435.437 44.0148V50.1052H434.017V48.8534H433.944C433.848 49.054 433.688 49.2687 433.463 49.4974C433.238 49.7261 432.939 49.9207 432.566 50.0812C432.193 50.2416 431.738 50.3219 431.2 50.3219ZM431.417 49.046C431.978 49.046 432.452 48.9357 432.837 48.715C433.226 48.4943 433.519 48.2095 433.716 47.8604C433.916 47.5114 434.017 47.1442 434.017 46.7591V45.4591C433.956 45.5314 433.824 45.5976 433.619 45.6577C433.419 45.7139 433.186 45.7641 432.921 45.8082C432.661 45.8483 432.406 45.8844 432.157 45.9165C431.912 45.9446 431.714 45.9687 431.561 45.9887C431.192 46.0369 430.847 46.1151 430.526 46.2235C430.209 46.3278 429.952 46.4863 429.756 46.6989C429.563 46.9075 429.467 47.1924 429.467 47.5535C429.467 48.047 429.649 48.4201 430.015 48.6729C430.384 48.9216 430.851 49.046 431.417 49.046ZM436.433 42.1852V40.8612H443.943V42.1852H440.91V50.1052H439.49V42.1852H436.433ZM446.904 44.2073H449.552C450.635 44.2073 451.464 44.4822 452.037 45.0318C452.611 45.5815 452.898 46.2776 452.898 47.1202C452.898 47.6739 452.77 48.1774 452.513 48.6308C452.256 49.0801 451.879 49.4392 451.381 49.708C450.884 49.9728 450.274 50.1052 449.552 50.1052H445.676V40.8612H447.096V48.7812H449.552C450.114 48.7812 450.575 48.6328 450.936 48.3359C451.297 48.039 451.478 47.6578 451.478 47.1924C451.478 46.7029 451.297 46.3037 450.936 45.9948C450.575 45.6858 450.114 45.5314 449.552 45.5314H446.904V44.2073ZM458.477 50.2978C457.61 50.2978 456.864 50.0932 456.238 49.6839C455.612 49.2747 455.13 48.711 454.793 47.9928C454.456 47.2746 454.288 46.4542 454.288 45.5314C454.288 44.5925 454.46 43.764 454.805 43.0458C455.154 42.3236 455.64 41.7599 456.262 41.3547C456.888 40.9455 457.618 40.7408 458.452 40.7408C459.102 40.7408 459.688 40.8612 460.21 41.1019C460.731 41.3427 461.159 41.6797 461.492 42.113C461.825 42.5463 462.031 43.0518 462.112 43.6296H460.691C460.583 43.2083 460.342 42.8352 459.969 42.5102C459.6 42.1812 459.102 42.0167 458.477 42.0167C457.923 42.0167 457.437 42.1611 457.02 42.45C456.607 42.7349 456.284 43.1381 456.051 43.6597C455.822 44.1773 455.708 44.7851 455.708 45.4832C455.708 46.1974 455.82 46.8193 456.045 47.3489C456.274 47.8785 456.595 48.2897 457.008 48.5826C457.425 48.8755 457.915 49.0219 458.477 49.0219C458.846 49.0219 459.181 48.9577 459.482 48.8294C459.782 48.701 460.037 48.5164 460.246 48.2757C460.455 48.0349 460.603 47.7461 460.691 47.4091H462.112C462.031 47.9547 461.833 48.4462 461.516 48.8835C461.203 49.3168 460.788 49.6619 460.27 49.9187C459.756 50.1714 459.159 50.2978 458.477 50.2978ZM469.41 50.1052V42.1611H466.954C466.401 42.1611 465.965 42.2895 465.648 42.5463C465.331 42.8031 465.173 43.1562 465.173 43.6055C465.173 44.0469 465.315 44.3939 465.6 44.6467C465.889 44.8994 466.284 45.0258 466.786 45.0258H469.771V46.3498H466.786C466.16 46.3498 465.62 46.2395 465.167 46.0188C464.714 45.7982 464.364 45.4832 464.12 45.074C463.875 44.6607 463.753 44.1712 463.753 43.6055C463.753 43.0358 463.881 42.5463 464.138 42.1371C464.395 41.7278 464.762 41.4129 465.239 41.1922C465.721 40.9715 466.292 40.8612 466.954 40.8612H470.758V50.1052H469.41ZM463.247 50.1052L465.871 45.5073H467.412L464.788 50.1052H463.247ZM78.9076 67.8332V69.1573H73.8041V67.8332H78.9076ZM74.1411 63.8612V73.1052H72.7208V63.8612H74.1411ZM79.9909 63.8612V73.1052H78.5706V63.8612H79.9909ZM86.1215 73.2978C85.2308 73.2978 84.4625 73.1012 83.8166 72.708C83.1746 72.3108 82.6791 71.7571 82.33 71.047C81.985 70.3328 81.8125 69.5023 81.8125 68.5554C81.8125 67.6086 81.985 66.774 82.33 66.0518C82.6791 65.3256 83.1646 64.7599 83.7865 64.3547C84.4124 63.9455 85.1426 63.7408 85.9771 63.7408C86.4586 63.7408 86.934 63.8211 87.4034 63.9816C87.8728 64.1421 88.3001 64.4028 88.6853 64.7639C89.0705 65.121 89.3774 65.5945 89.6061 66.1842C89.8348 66.774 89.9491 67.5002 89.9491 68.3628V68.9647H82.8235V67.737H88.5048C88.5048 67.2154 88.4004 66.75 88.1918 66.3407C87.9872 65.9315 87.6943 65.6085 87.3131 65.3718C86.936 65.1351 86.4907 65.0167 85.9771 65.0167C85.4114 65.0167 84.9219 65.1571 84.5086 65.438C84.0994 65.7148 83.7845 66.0759 83.5638 66.5213C83.3431 66.9666 83.2328 67.4441 83.2328 67.9536V68.7721C83.2328 69.4702 83.3531 70.062 83.5939 70.5475C83.8386 71.0289 84.1776 71.396 84.611 71.6488C85.0443 71.8976 85.5478 72.0219 86.1215 72.0219C86.4947 72.0219 86.8317 71.9698 87.1326 71.8655C87.4375 71.7571 87.7003 71.5967 87.921 71.384C88.1417 71.1674 88.3122 70.8985 88.4325 70.5776L89.8047 70.9627C89.6603 71.4281 89.4175 71.8374 89.0765 72.1905C88.7355 72.5395 88.3142 72.8123 87.8127 73.0089C87.3111 73.2015 86.7474 73.2978 86.1215 73.2978ZM92.4042 76.5717C92.1634 76.5717 91.9488 76.5517 91.7602 76.5115C91.5716 76.4754 91.4412 76.4393 91.369 76.4032L91.7301 75.1514C92.0752 75.2397 92.3801 75.2718 92.6449 75.2477C92.9097 75.2236 93.1444 75.1053 93.349 74.8926C93.5577 74.684 93.7482 74.345 93.9208 73.8756L94.1856 73.1534L90.7672 63.8612H92.3079L94.8596 71.2275H94.9559L97.5076 63.8612H99.0483L95.1244 74.4533C94.9479 74.9308 94.7292 75.326 94.4684 75.6389C94.2076 75.9559 93.9047 76.1906 93.5597 76.343C93.2186 76.4955 92.8335 76.5717 92.4042 76.5717ZM98.8192 75.7533V71.7812H99.5895C99.7781 71.5846 99.9406 71.372 100.077 71.1433C100.213 70.9146 100.332 70.6438 100.432 70.3308C100.536 70.0139 100.625 69.6287 100.697 69.1753C100.769 68.7179 100.833 68.1663 100.889 67.5203L101.202 63.8612H107.076V71.7812H108.497V75.7533H107.076V73.1052H100.239V75.7533H98.8192ZM101.202 71.7812H105.656V65.1852H102.526L102.286 67.5203C102.185 68.4872 102.061 69.3318 101.913 70.054C101.764 70.7762 101.527 71.3519 101.202 71.7812ZM113.798 73.2978C112.964 73.2978 112.231 73.0992 111.602 72.702C110.976 72.3048 110.486 71.7491 110.133 71.0349C109.784 70.3208 109.609 69.4863 109.609 68.5314C109.609 67.5684 109.784 66.7279 110.133 66.0097C110.486 65.2915 110.976 64.7339 111.602 64.3366C112.231 63.9394 112.964 63.7408 113.798 63.7408C114.633 63.7408 115.363 63.9394 115.989 64.3366C116.619 64.7339 117.108 65.2915 117.457 66.0097C117.81 66.7279 117.987 67.5684 117.987 68.5314C117.987 69.4863 117.81 70.3208 117.457 71.0349C117.108 71.7491 116.619 72.3048 115.989 72.702C115.363 73.0992 114.633 73.2978 113.798 73.2978ZM113.798 72.0219C114.432 72.0219 114.954 71.8594 115.363 71.5345C115.772 71.2095 116.075 70.7822 116.272 70.2526C116.468 69.723 116.567 69.1492 116.567 68.5314C116.567 67.9135 116.468 67.3377 116.272 66.8041C116.075 66.2705 115.772 65.8392 115.363 65.5102C114.954 65.1812 114.432 65.0167 113.798 65.0167C113.164 65.0167 112.643 65.1812 112.233 65.5102C111.824 65.8392 111.521 66.2705 111.325 66.8041C111.128 67.3377 111.03 67.9135 111.03 68.5314C111.03 69.1492 111.128 69.723 111.325 70.2526C111.521 70.7822 111.824 71.2095 112.233 71.5345C112.643 71.8594 113.164 72.0219 113.798 72.0219ZM126.677 60.3947L127.399 61.2613C127.118 61.5342 126.793 61.7247 126.424 61.8331C126.055 61.9414 125.638 62.0076 125.172 62.0317C124.707 62.0557 124.189 62.0798 123.62 62.1039C122.978 62.128 122.446 62.2844 122.025 62.5733C121.603 62.8622 121.278 63.2794 121.05 63.8251C120.821 64.3707 120.675 65.0408 120.61 65.8352H120.731C121.044 65.2574 121.477 64.8321 122.031 64.5593C122.584 64.2865 123.178 64.1501 123.812 64.1501C124.534 64.1501 125.184 64.3186 125.762 64.6556C126.34 64.9926 126.797 65.4921 127.134 66.1542C127.471 66.8162 127.64 67.6326 127.64 68.6036C127.64 69.5705 127.467 70.405 127.122 71.1072C126.781 71.8093 126.302 72.3509 125.684 72.7321C125.07 73.1092 124.35 73.2978 123.523 73.2978C122.697 73.2978 121.973 73.1032 121.351 72.714C120.729 72.3208 120.245 71.7391 119.9 70.9687C119.555 70.1944 119.383 69.2375 119.383 68.098V67.1111C119.383 65.0528 119.732 63.4921 120.43 62.4289C121.132 61.3656 122.187 60.816 123.595 60.7799C124.093 60.7638 124.536 60.7598 124.925 60.7678C125.315 60.7759 125.654 60.7578 125.943 60.7137C126.231 60.6695 126.476 60.5632 126.677 60.3947ZM123.523 72.0219C124.081 72.0219 124.56 71.8815 124.962 71.6007C125.367 71.3198 125.678 70.9246 125.894 70.4151C126.111 69.9015 126.219 69.2977 126.219 68.6036C126.219 67.9295 126.109 67.3558 125.888 66.8824C125.672 66.4089 125.361 66.0478 124.956 65.7991C124.55 65.5503 124.065 65.4259 123.499 65.4259C123.086 65.4259 122.715 65.4962 122.386 65.6366C122.057 65.777 121.776 65.9836 121.543 66.2565C121.311 66.5293 121.13 66.8623 121.002 67.2555C120.877 67.6487 120.811 68.098 120.803 68.6036C120.803 69.6387 121.046 70.4672 121.531 71.0891C122.017 71.711 122.681 72.0219 123.523 72.0219ZM135.66 67.8332V69.1573H130.557V67.8332H135.66ZM130.894 63.8612V73.1052H129.473V63.8612H130.894ZM136.743 63.8612V73.1052H135.323V63.8612H136.743ZM142.754 73.2978C141.919 73.2978 141.187 73.0992 140.557 72.702C139.931 72.3048 139.442 71.7491 139.089 71.0349C138.74 70.3208 138.565 69.4863 138.565 68.5314C138.565 67.5684 138.74 66.7279 139.089 66.0097C139.442 65.2915 139.931 64.7339 140.557 64.3366C141.187 63.9394 141.919 63.7408 142.754 63.7408C143.588 63.7408 144.318 63.9394 144.944 64.3366C145.574 64.7339 146.064 65.2915 146.413 66.0097C146.766 66.7279 146.942 67.5684 146.942 68.5314C146.942 69.4863 146.766 70.3208 146.413 71.0349C146.064 71.7491 145.574 72.3048 144.944 72.702C144.318 73.0992 143.588 73.2978 142.754 73.2978ZM142.754 72.0219C143.388 72.0219 143.909 71.8594 144.318 71.5345C144.728 71.2095 145.031 70.7822 145.227 70.2526C145.424 69.723 145.522 69.1492 145.522 68.5314C145.522 67.9135 145.424 67.3377 145.227 66.8041C145.031 66.2705 144.728 65.8392 144.318 65.5102C143.909 65.1812 143.388 65.0167 142.754 65.0167C142.12 65.0167 141.598 65.1812 141.189 65.5102C140.78 65.8392 140.477 66.2705 140.28 66.8041C140.084 67.3377 139.985 67.9135 139.985 68.5314C139.985 69.1492 140.084 69.723 140.28 70.2526C140.477 70.7822 140.78 71.2095 141.189 71.5345C141.598 71.8594 142.12 72.0219 142.754 72.0219ZM153.199 73.1052V63.8612H160.469V73.1052H159.049V65.1852H154.619V73.1052H153.199ZM164.144 71.0109L168.598 63.8612H170.235V73.1052H168.814V65.9556L164.385 73.1052H162.724V63.8612H164.144V71.0109ZM172.497 73.1052V63.8612H179.767V73.1052H178.347V65.1852H173.917V73.1052H172.497ZM185.898 73.2978C185.007 73.2978 184.239 73.1012 183.593 72.708C182.951 72.3108 182.455 71.7571 182.106 71.047C181.761 70.3328 181.589 69.5023 181.589 68.5554C181.589 67.6086 181.761 66.774 182.106 66.0518C182.455 65.3256 182.941 64.7599 183.563 64.3547C184.189 63.9455 184.919 63.7408 185.753 63.7408C186.235 63.7408 186.71 63.8211 187.18 63.9816C187.649 64.1421 188.076 64.4028 188.462 64.7639C188.847 65.121 189.154 65.5945 189.382 66.1842C189.611 66.774 189.725 67.5002 189.725 68.3628V68.9647H182.6V67.737H188.281C188.281 67.2154 188.177 66.75 187.968 66.3407C187.764 65.9315 187.471 65.6085 187.089 65.3718C186.712 65.1351 186.267 65.0167 185.753 65.0167C185.188 65.0167 184.698 65.1571 184.285 65.438C183.876 65.7148 183.561 66.0759 183.34 66.5213C183.119 66.9666 183.009 67.4441 183.009 67.9536V68.7721C183.009 69.4702 183.129 70.062 183.37 70.5475C183.615 71.0289 183.954 71.396 184.387 71.6488C184.821 71.8976 185.324 72.0219 185.898 72.0219C186.271 72.0219 186.608 71.9698 186.909 71.8655C187.214 71.7571 187.477 71.5967 187.697 71.384C187.918 71.1674 188.088 70.8985 188.209 70.5776L189.581 70.9627C189.437 71.4281 189.194 71.8374 188.853 72.1905C188.512 72.5395 188.09 72.8123 187.589 73.0089C187.087 73.2015 186.524 73.2978 185.898 73.2978ZM198.817 63.8612V71.7812H200.117V76.0903H198.697V73.1052H191.547V63.8612H192.967V71.7812H197.397V63.8612H198.817Z" fill="#F5F5F5" style="fill:#F5F5F5;fill:color(display-p3 0.9625 0.9625 0.9625);fill-opacity:1;"/>
<path d="M507.398 67.8326V80.158H505.906V69.3973H505.833L502.824 71.3954V69.8788L505.906 67.8326H507.398ZM513.946 80.3265C513.039 80.3265 512.267 80.0797 511.629 79.5862C510.991 79.0887 510.504 78.3685 510.167 77.4257C509.83 76.4788 509.661 75.3353 509.661 73.9953C509.661 72.6632 509.83 71.5258 510.167 70.5829C510.508 69.6361 510.997 68.9139 511.635 68.4164C512.277 67.9148 513.047 67.6641 513.946 67.6641C514.845 67.6641 515.613 67.9148 516.251 68.4164C516.893 68.9139 517.383 69.6361 517.72 70.5829C518.061 71.5258 518.231 72.6632 518.231 73.9953C518.231 75.3353 518.063 76.4788 517.726 77.4257C517.389 78.3685 516.901 79.0887 516.263 79.5862C515.625 80.0797 514.853 80.3265 513.946 80.3265ZM513.946 79.0025C514.845 79.0025 515.543 78.5691 516.04 77.7025C516.538 76.8359 516.787 75.6001 516.787 73.9953C516.787 72.928 516.672 72.0193 516.444 71.269C516.219 70.5187 515.894 69.947 515.469 69.5538C515.047 69.1606 514.54 68.964 513.946 68.964C513.055 68.964 512.359 69.4034 511.858 70.282C511.356 71.1567 511.106 72.3944 511.106 73.9953C511.106 75.0625 511.218 75.9693 511.443 76.7155C511.667 77.4618 511.99 78.0295 512.411 78.4187C512.837 78.8079 513.348 79.0025 513.946 79.0025ZM520.56 78.5812C520.264 78.5812 520.009 78.4749 519.796 78.2622C519.583 78.0496 519.477 77.7948 519.477 77.4979C519.477 77.201 519.583 76.9462 519.796 76.7336C520.009 76.5209 520.264 76.4146 520.56 76.4146C520.857 76.4146 521.112 76.5209 521.325 76.7336C521.537 76.9462 521.644 77.201 521.644 77.4979C521.644 77.6945 521.594 77.875 521.493 78.0395C521.397 78.204 521.267 78.3364 521.102 78.4367C520.942 78.533 520.761 78.5812 520.56 78.5812ZM520.56 72.3463C520.264 72.3463 520.009 72.24 519.796 72.0273C519.583 71.8147 519.477 71.5599 519.477 71.263C519.477 70.9661 519.583 70.7113 519.796 70.4987C520.009 70.286 520.264 70.1797 520.56 70.1797C520.857 70.1797 521.112 70.286 521.325 70.4987C521.537 70.7113 521.644 70.9661 521.644 71.263C521.644 71.4596 521.594 71.6401 521.493 71.8046C521.397 71.9691 521.267 72.1015 521.102 72.2018C520.942 72.2981 520.761 72.3463 520.56 72.3463ZM527.485 67.8326V80.158H525.992V69.3973H525.92L522.911 71.3954V69.8788L525.992 67.8326H527.485ZM529.724 77.6303V76.4026L535.14 67.8326H536.031V69.7344H535.429L531.337 76.21V76.3063H538.631V77.6303H529.724ZM535.525 80.158V77.2572V76.6854V67.8326H536.946V80.158H535.525Z" fill="#707E8D" style="fill:#707E8D;fill:color(display-p3 0.4392 0.4941 0.5529);fill-opacity:1;"/>
<defs>
<linearGradient id="paint0_linear_1259_47327" x1="21.7895" y1="46.6316" x2="21.7895" y2="90.2105" gradientUnits="userSpaceOnUse">
<stop stop-color="#70ACF3" style="stop-color:#70ACF3;stop-color:color(display-p3 0.4392 0.6745 0.9529);stop-opacity:1;"/>
<stop offset="1" stop-color="#5489CB" style="stop-color:#5489CB;stop-color:color(display-p3 0.3294 0.5373 0.7961);stop-opacity:1;"/>
</linearGradient>
</defs>
</svg>
