<svg width="552" height="86" viewBox="0 0 552 86" fill="none" xmlns="http://www.w3.org/2000/svg">
<rect y="45.0583" width="40.3686" height="40.3686" rx="20.1843" fill="url(#paint0_linear_1255_47018)" style=""/>
<path d="M22.9382 71.7427L18.9123 66.3968H17.8252V71.7427H15.6092V59.5098H17.8252V64.5391H18.3807L22.7291 59.5098H25.4588L20.6266 65.0886L25.6679 71.7427H22.9382Z" fill="white" style="fill:white;fill-opacity:1;"/>
<path d="M52.7035 85.4269V71.9707C52.7035 78.176 48.5032 83.4003 42.7906 84.9555C42.6855 84.9841 42.6113 85.0791 42.6113 85.1881C42.6113 85.32 42.7182 85.4269 42.8501 85.4269H52.7035Z" fill="#1B2532" style="fill:#1B2532;fill:color(display-p3 0.1059 0.1451 0.1961);fill-opacity:1;"/>
<path d="M52.7031 32.2948C52.7031 20.9906 52.7031 15.3385 54.9031 11.0208C56.8382 7.22289 59.926 4.13509 63.7239 2.19996C68.0416 0 73.6937 0 84.998 0H519.705C531.009 0 536.661 0 540.979 2.19996C544.777 4.13509 547.865 7.22289 549.8 11.0208C552 15.3385 552 20.9906 552 32.2948V53.1321C552 64.4364 552 70.0885 549.8 74.4062C547.865 78.2041 544.777 81.2919 540.979 83.227C536.661 85.427 531.009 85.427 519.705 85.427H52.7031V32.2948Z" fill="#1B2532" style="fill:#1B2532;fill:color(display-p3 0.1059 0.1451 0.1961);fill-opacity:1;"/>
<path d="M74.1257 26.2134L70.3682 21.2239H69.3536V26.2134H67.2853V14.796H69.3536V19.4901H69.8721L73.9306 14.796H76.4783L71.9682 20.003L76.6734 26.2134H74.1257ZM78.4579 29.4245C78.1829 29.4245 77.9283 29.4022 77.6941 29.3576C77.4637 29.3167 77.2797 29.2684 77.1422 29.2127L77.6105 27.6406C77.9041 27.726 78.1661 27.7669 78.3966 27.7632C78.627 27.7595 78.8295 27.687 79.0042 27.5458C79.1826 27.4083 79.3331 27.1778 79.4558 26.8545L79.6286 26.3918L76.5234 17.6503H78.6642L80.6377 24.1172H80.7269L82.706 17.6503H84.8523L81.4237 27.2503C81.2639 27.7037 81.0521 28.0921 80.7882 28.4155C80.5243 28.7425 80.201 28.9915 79.8182 29.1625C79.4391 29.3372 78.9856 29.4245 78.4579 29.4245ZM85.6179 23.8664H87.6193C87.6379 24.186 87.781 24.4331 88.0486 24.6078C88.3162 24.7825 88.6637 24.8698 89.0911 24.8698C89.5259 24.8698 89.892 24.7751 90.1893 24.5855C90.4904 24.3922 90.6409 24.1005 90.6409 23.7103C90.6409 23.4798 90.5833 23.2773 90.4681 23.1026C90.3529 22.9242 90.1912 22.7867 89.9831 22.69C89.7749 22.5934 89.5297 22.5451 89.2472 22.5451H87.9371V21.1124H89.2472C89.6672 21.1124 89.9849 21.0157 90.2005 20.8225C90.4198 20.6292 90.5294 20.3858 90.5294 20.0922C90.5294 19.7762 90.4142 19.5198 90.1838 19.3228C89.9571 19.1258 89.643 19.0273 89.2416 19.0273C88.8402 19.0273 88.5057 19.1184 88.2381 19.3005C87.9743 19.4826 87.8367 19.7168 87.8256 20.003H85.8354C85.8428 19.5049 85.9915 19.0719 86.2813 18.704C86.575 18.3361 86.9689 18.0499 87.4632 17.8455C87.9612 17.6411 88.5225 17.5389 89.1468 17.5389C89.8158 17.5389 90.3938 17.6392 90.8806 17.8399C91.3675 18.0406 91.7429 18.3212 92.0068 18.6817C92.2706 19.0385 92.4026 19.4585 92.4026 19.9416C92.4026 20.4062 92.2576 20.7909 91.9677 21.0956C91.6778 21.3967 91.2876 21.6122 90.797 21.7423V21.8315C91.1352 21.8501 91.44 21.9467 91.7113 22.1214C91.9826 22.2924 92.1982 22.5247 92.358 22.8183C92.5178 23.1119 92.5977 23.452 92.5977 23.8385C92.5977 24.3625 92.4472 24.8159 92.1461 25.1987C91.8451 25.5778 91.4307 25.8696 90.9029 26.074C90.3789 26.2784 89.7787 26.3806 89.1022 26.3806C88.4444 26.3806 87.8553 26.2821 87.335 26.0852C86.8184 25.8845 86.4077 25.5964 86.103 25.221C85.7982 24.8457 85.6365 24.3941 85.6179 23.8664ZM99.9111 21.0956V22.7514H95.3508V21.0956H99.9111ZM95.9752 17.6503V26.2134H94.0296V17.6503H95.9752ZM101.232 17.6503V26.2134H99.2922V17.6503H101.232ZM106.908 26.3806C106.05 26.3806 105.308 26.2022 104.684 25.8454C104.063 25.4849 103.585 24.9758 103.251 24.3179C102.916 23.6564 102.749 22.8777 102.749 21.982C102.749 21.1012 102.916 20.3282 103.251 19.6629C103.589 18.9939 104.061 18.4736 104.667 18.1019C105.273 17.7265 105.984 17.5389 106.802 17.5389C107.33 17.5389 107.828 17.6243 108.296 17.7953C108.768 17.9625 109.184 18.2227 109.545 18.5758C109.909 18.9289 110.195 19.3786 110.404 19.9249C110.612 20.4675 110.716 21.1142 110.716 21.865V22.4838H103.697V21.1235H108.781C108.777 20.737 108.694 20.3932 108.53 20.0922C108.367 19.7874 108.138 19.5477 107.845 19.373C107.555 19.1983 107.217 19.111 106.83 19.111C106.417 19.111 106.055 19.2113 105.743 19.412C105.431 19.609 105.187 19.8692 105.013 20.1925C104.842 20.5121 104.754 20.8633 104.751 21.2462V22.4336C104.751 22.9316 104.842 23.359 105.024 23.7158C105.206 24.0689 105.46 24.3402 105.787 24.5298C106.115 24.7156 106.497 24.8085 106.936 24.8085C107.23 24.8085 107.495 24.7676 107.733 24.6859C107.971 24.6004 108.177 24.4759 108.352 24.3123C108.527 24.1488 108.659 23.9463 108.748 23.7047L110.632 23.9165C110.513 24.4145 110.286 24.8494 109.952 25.221C109.621 25.589 109.197 25.8752 108.681 26.0796C108.164 26.2803 107.573 26.3806 106.908 26.3806ZM119.497 17.6503V24.7082H120.807V28.9674H118.833V26.2134H112.266V17.6503H114.212V24.5576H117.568V17.6503H119.497ZM125.947 26.3806C125.111 26.3806 124.386 26.1967 123.773 25.8287C123.16 25.4608 122.684 24.946 122.346 24.2845C122.011 23.6229 121.844 22.8499 121.844 21.9653C121.844 21.0808 122.011 20.3059 122.346 19.6406C122.684 18.9753 123.16 18.4587 123.773 18.0908C124.386 17.7228 125.111 17.5389 125.947 17.5389C126.784 17.5389 127.508 17.7228 128.122 18.0908C128.735 18.4587 129.209 18.9753 129.543 19.6406C129.881 20.3059 130.05 21.0808 130.05 21.9653C130.05 22.8499 129.881 23.6229 129.543 24.2845C129.209 24.946 128.735 25.4608 128.122 25.8287C127.508 26.1967 126.784 26.3806 125.947 26.3806ZM125.958 24.7639C126.412 24.7639 126.791 24.6394 127.096 24.3904C127.4 24.1377 127.627 23.7995 127.776 23.3758C127.928 22.9521 128.004 22.4801 128.004 21.9597C128.004 21.4357 127.928 20.9618 127.776 20.5381C127.627 20.1107 127.4 19.7707 127.096 19.5179C126.791 19.2652 126.412 19.1388 125.958 19.1388C125.494 19.1388 125.107 19.2652 124.799 19.5179C124.494 19.7707 124.266 20.1107 124.113 20.5381C123.964 20.9618 123.89 21.4357 123.89 21.9597C123.89 22.4801 123.964 22.9521 124.113 23.3758C124.266 23.7995 124.494 24.1377 124.799 24.3904C125.107 24.6394 125.494 24.7639 125.958 24.7639ZM131.606 26.2134V17.6503H135.202C136.217 17.6503 137.018 17.8529 137.605 18.258C138.196 18.6631 138.491 19.228 138.491 19.9528C138.491 20.4322 138.324 20.8243 137.99 21.1291C137.659 21.4301 137.207 21.6327 136.635 21.7367C137.085 21.7739 137.479 21.8873 137.817 22.0768C138.159 22.2664 138.426 22.5154 138.62 22.8238C138.813 23.1323 138.909 23.4873 138.909 23.8887C138.909 24.3607 138.785 24.7713 138.536 25.1207C138.291 25.4663 137.932 25.7358 137.46 25.9291C136.992 26.1186 136.423 26.2134 135.754 26.2134H131.606ZM133.496 24.6245H135.754C136.126 24.6245 136.417 24.5372 136.629 24.3625C136.841 24.1841 136.947 23.9425 136.947 23.6378C136.947 23.2847 136.841 23.0078 136.629 22.8071C136.417 22.6027 136.126 22.5005 135.754 22.5005H133.496V24.6245ZM133.496 21.196H135.241C135.516 21.196 135.752 21.157 135.949 21.0789C136.146 20.9971 136.297 20.8838 136.401 20.7388C136.505 20.5902 136.557 20.4136 136.557 20.2092C136.557 19.9156 136.436 19.6852 136.194 19.5179C135.957 19.3507 135.626 19.2671 135.202 19.2671H133.496V21.196ZM145.71 26.2134H143.503L147.522 14.796H150.076L154.101 26.2134H151.893L148.843 17.1375H148.754L145.71 26.2134ZM145.783 21.7367H151.804V23.3981H145.783V21.7367ZM156.601 26.336C156.263 26.336 155.973 26.2171 155.732 25.9792C155.49 25.7414 155.371 25.4515 155.375 25.1096C155.371 24.7751 155.49 24.4889 155.732 24.251C155.973 24.0132 156.263 23.8942 156.601 23.8942C156.928 23.8942 157.213 24.0132 157.454 24.251C157.7 24.4889 157.824 24.7751 157.828 25.1096C157.824 25.3363 157.765 25.5425 157.65 25.7284C157.538 25.9142 157.389 26.0629 157.204 26.1744C157.021 26.2821 156.821 26.336 156.601 26.336ZM159.844 26.2134V14.796H164.214C165.04 14.796 165.725 14.9261 166.272 15.1862C166.822 15.4427 167.232 15.7939 167.504 16.2399C167.779 16.6859 167.916 17.1914 167.916 17.7563C167.916 18.2208 167.827 18.6185 167.649 18.9493C167.47 19.2764 167.23 19.5421 166.929 19.7465C166.628 19.9509 166.292 20.0977 165.92 20.1869V20.2984C166.325 20.3207 166.714 20.4452 167.086 20.6719C167.461 20.8949 167.768 21.2108 168.005 21.6197C168.243 22.0285 168.362 22.5228 168.362 23.1026C168.362 23.6935 168.219 24.225 167.933 24.697C167.647 25.1653 167.216 25.5351 166.64 25.8064C166.063 26.0777 165.339 26.2134 164.465 26.2134H159.844ZM161.912 24.4852H164.136C164.887 24.4852 165.428 24.3421 165.759 24.0559C166.093 23.766 166.26 23.3943 166.26 22.9409C166.26 22.6027 166.177 22.2979 166.01 22.0266C165.842 21.7516 165.604 21.536 165.296 21.38C164.987 21.2201 164.62 21.1402 164.192 21.1402H161.912V24.4852ZM161.912 19.6517H163.958C164.315 19.6517 164.636 19.5867 164.922 19.4566C165.209 19.3228 165.433 19.1351 165.597 18.8936C165.764 18.6483 165.848 18.3584 165.848 18.0239C165.848 17.5816 165.692 17.2174 165.38 16.9312C165.071 16.645 164.612 16.5019 164.003 16.5019H161.912V19.6517ZM171.158 26.336C170.82 26.336 170.53 26.2171 170.289 25.9792C170.047 25.7414 169.928 25.4515 169.932 25.1096C169.928 24.7751 170.047 24.4889 170.289 24.251C170.53 24.0132 170.82 23.8942 171.158 23.8942C171.486 23.8942 171.77 24.0132 172.011 24.251C172.257 24.4889 172.381 24.7751 172.385 25.1096C172.381 25.3363 172.322 25.5425 172.207 25.7284C172.095 25.9142 171.946 26.0629 171.761 26.1744C171.578 26.2821 171.378 26.336 171.158 26.336Z" fill="#AE8DEC" style="fill:#AE8DEC;fill:color(display-p3 0.6824 0.5529 0.9255);fill-opacity:1;"/>
<path d="M68.2107 50.4245C67.9877 50.4245 67.7889 50.4059 67.6142 50.3688C67.4395 50.3353 67.3188 50.3019 67.2519 50.2684L67.5864 49.1088C67.906 49.1906 68.1884 49.2203 68.4337 49.198C68.679 49.1757 68.8965 49.0661 69.086 48.8691C69.2793 48.6759 69.4558 48.3618 69.6156 47.927L69.8609 47.258L66.6944 38.6503H68.1215L70.4853 45.474H70.5745L72.9382 38.6503H74.3654L70.7306 48.4622C70.5671 48.9044 70.3645 49.2705 70.1229 49.5604C69.8813 49.854 69.6007 50.0714 69.2811 50.2127C68.9652 50.3539 68.6084 50.4245 68.2107 50.4245ZM79.8893 47.2134V38.6503H81.205V42.3744H82.0747L85.152 38.6503H86.8468L83.3904 42.7758L86.8914 47.2134H85.1966L82.3869 43.6009H81.205V47.2134H79.8893ZM91.1335 47.3918C90.3605 47.3918 89.6822 47.2078 89.0987 46.8399C88.5189 46.4719 88.0655 45.9572 87.7384 45.2956C87.4151 44.6341 87.2534 43.861 87.2534 42.9765C87.2534 42.0845 87.4151 41.3059 87.7384 40.6406C88.0655 39.9753 88.5189 39.4587 89.0987 39.0908C89.6822 38.7228 90.3605 38.5389 91.1335 38.5389C91.9066 38.5389 92.583 38.7228 93.1628 39.0908C93.7463 39.4587 94.1997 39.9753 94.523 40.6406C94.8501 41.3059 95.0136 42.0845 95.0136 42.9765C95.0136 43.861 94.8501 44.6341 94.523 45.2956C94.1997 45.9572 93.7463 46.4719 93.1628 46.8399C92.583 47.2078 91.9066 47.3918 91.1335 47.3918ZM91.1335 46.2099C91.7207 46.2099 92.2039 46.0594 92.583 45.7583C92.9621 45.4573 93.2427 45.0615 93.4248 44.5709C93.6069 44.0803 93.698 43.5488 93.698 42.9765C93.698 42.4041 93.6069 41.8708 93.4248 41.3765C93.2427 40.8822 92.9621 40.4826 92.583 40.1779C92.2039 39.8731 91.7207 39.7207 91.1335 39.7207C90.5463 39.7207 90.0631 39.8731 89.684 40.1779C89.3049 40.4826 89.0243 40.8822 88.8422 41.3765C88.6601 41.8708 88.5691 42.4041 88.5691 42.9765C88.5691 43.5488 88.6601 44.0803 88.8422 44.5709C89.0243 45.0615 89.3049 45.4573 89.684 45.7583C90.0631 46.0594 90.5463 46.2099 91.1335 46.2099ZM101.993 38.6503V39.8768H98.0237V47.2134H96.708V38.6503H101.993ZM106.634 47.3918C105.861 47.3918 105.182 47.2078 104.599 46.8399C104.019 46.4719 103.566 45.9572 103.239 45.2956C102.915 44.6341 102.754 43.861 102.754 42.9765C102.754 42.0845 102.915 41.3059 103.239 40.6406C103.566 39.9753 104.019 39.4587 104.599 39.0908C105.182 38.7228 105.861 38.5389 106.634 38.5389C107.407 38.5389 108.083 38.7228 108.663 39.0908C109.246 39.4587 109.7 39.9753 110.023 40.6406C110.35 41.3059 110.514 42.0845 110.514 42.9765C110.514 43.861 110.35 44.6341 110.023 45.2956C109.7 45.9572 109.246 46.4719 108.663 46.8399C108.083 47.2078 107.407 47.3918 106.634 47.3918ZM106.634 46.2099C107.221 46.2099 107.704 46.0594 108.083 45.7583C108.462 45.4573 108.743 45.0615 108.925 44.5709C109.107 44.0803 109.198 43.5488 109.198 42.9765C109.198 42.4041 109.107 41.8708 108.925 41.3765C108.743 40.8822 108.462 40.4826 108.083 40.1779C107.704 39.8731 107.221 39.7207 106.634 39.7207C106.046 39.7207 105.563 39.8731 105.184 40.1779C104.805 40.4826 104.525 40.8822 104.342 41.3765C104.16 41.8708 104.069 42.4041 104.069 42.9765C104.069 43.5488 104.16 44.0803 104.342 44.5709C104.525 45.0615 104.805 45.4573 105.184 45.7583C105.563 46.0594 106.046 46.2099 106.634 46.2099ZM117.114 41.7054V42.9319H112.119V41.7054H117.114ZM118.18 39.8768V38.6503H125.137V39.8768H122.328V47.2134H121.012V39.8768H118.18ZM129.777 47.3918C129.004 47.3918 128.325 47.2078 127.742 46.8399C127.162 46.4719 126.709 45.9572 126.382 45.2956C126.058 44.6341 125.897 43.861 125.897 42.9765C125.897 42.0845 126.058 41.3059 126.382 40.6406C126.709 39.9753 127.162 39.4587 127.742 39.0908C128.325 38.7228 129.004 38.5389 129.777 38.5389C130.55 38.5389 131.226 38.7228 131.806 39.0908C132.389 39.4587 132.843 39.9753 133.166 40.6406C133.493 41.3059 133.657 42.0845 133.657 42.9765C133.657 43.861 133.493 44.6341 133.166 45.2956C132.843 45.9572 132.389 46.4719 131.806 46.8399C131.226 47.2078 130.55 47.3918 129.777 47.3918ZM129.777 46.2099C130.364 46.2099 130.847 46.0594 131.226 45.7583C131.605 45.4573 131.886 45.0615 132.068 44.5709C132.25 44.0803 132.341 43.5488 132.341 42.9765C132.341 42.4041 132.25 41.8708 132.068 41.3765C131.886 40.8822 131.605 40.4826 131.226 40.1779C130.847 39.8731 130.364 39.7207 129.777 39.7207C129.189 39.7207 128.706 39.8731 128.327 40.1779C127.948 40.4826 127.668 40.8822 127.485 41.3765C127.303 41.8708 127.212 42.4041 127.212 42.9765C127.212 43.5488 127.303 44.0803 127.485 44.5709C127.668 45.0615 127.948 45.4573 128.327 45.7583C128.706 46.0594 129.189 46.2099 129.777 46.2099ZM139.453 47.2134V38.6503H142.954C143.875 38.6503 144.607 38.8585 145.15 39.2747C145.693 39.691 145.964 40.2411 145.964 40.9249C145.964 41.4452 145.81 41.8485 145.501 42.1347C145.193 42.4171 144.797 42.6085 144.314 42.7089C144.63 42.7535 144.936 42.865 145.234 43.0434C145.535 43.2218 145.784 43.4671 145.981 43.7792C146.178 44.0877 146.276 44.4668 146.276 44.9165C146.276 45.3551 146.165 45.7472 145.942 46.0928C145.719 46.4385 145.399 46.7116 144.983 46.9123C144.567 47.113 144.069 47.2134 143.489 47.2134H139.453ZM140.701 46.0092H143.489C143.942 46.0092 144.297 45.9014 144.554 45.6859C144.81 45.4703 144.938 45.1767 144.938 44.805C144.938 44.3628 144.81 44.0153 144.554 43.7625C144.297 43.5061 143.942 43.3779 143.489 43.3779H140.701V46.0092ZM140.701 42.2406H142.954C143.307 42.2406 143.61 42.1923 143.862 42.0956C144.115 41.9953 144.308 41.8541 144.442 41.6719C144.58 41.4861 144.648 41.2668 144.648 41.0141C144.648 40.6536 144.498 40.3711 144.197 40.1667C143.896 39.9586 143.481 39.8545 142.954 39.8545H140.701V42.2406ZM151.433 47.3918C150.66 47.3918 149.981 47.2078 149.398 46.8399C148.818 46.4719 148.365 45.9572 148.037 45.2956C147.714 44.6341 147.552 43.861 147.552 42.9765C147.552 42.0845 147.714 41.3059 148.037 40.6406C148.365 39.9753 148.818 39.4587 149.398 39.0908C149.981 38.7228 150.66 38.5389 151.433 38.5389C152.206 38.5389 152.882 38.7228 153.462 39.0908C154.045 39.4587 154.499 39.9753 154.822 40.6406C155.149 41.3059 155.313 42.0845 155.313 42.9765C155.313 43.861 155.149 44.6341 154.822 45.2956C154.499 45.9572 154.045 46.4719 153.462 46.8399C152.882 47.2078 152.206 47.3918 151.433 47.3918ZM151.433 46.2099C152.02 46.2099 152.503 46.0594 152.882 45.7583C153.261 45.4573 153.542 45.0615 153.724 44.5709C153.906 44.0803 153.997 43.5488 153.997 42.9765C153.997 42.4041 153.906 41.8708 153.724 41.3765C153.542 40.8822 153.261 40.4826 152.882 40.1779C152.503 39.8731 152.02 39.7207 151.433 39.7207C150.845 39.7207 150.362 39.8731 149.983 40.1779C149.604 40.4826 149.323 40.8822 149.141 41.3765C148.959 41.8708 148.868 42.4041 148.868 42.9765C148.868 43.5488 148.959 44.0803 149.141 44.5709C149.323 45.0615 149.604 45.4573 149.983 45.7583C150.362 46.0594 150.845 46.2099 151.433 46.2099ZM160.486 47.3918C159.713 47.3918 159.034 47.2078 158.451 46.8399C157.871 46.4719 157.418 45.9572 157.091 45.2956C156.767 44.6341 156.606 43.861 156.606 42.9765C156.606 42.0845 156.767 41.3059 157.091 40.6406C157.418 39.9753 157.871 39.4587 158.451 39.0908C159.034 38.7228 159.713 38.5389 160.486 38.5389C161.259 38.5389 161.935 38.7228 162.515 39.0908C163.099 39.4587 163.552 39.9753 163.875 40.6406C164.202 41.3059 164.366 42.0845 164.366 42.9765C164.366 43.861 164.202 44.6341 163.875 45.2956C163.552 45.9572 163.099 46.4719 162.515 46.8399C161.935 47.2078 161.259 47.3918 160.486 47.3918ZM160.486 46.2099C161.073 46.2099 161.556 46.0594 161.935 45.7583C162.314 45.4573 162.595 45.0615 162.777 44.5709C162.959 44.0803 163.05 43.5488 163.05 42.9765C163.05 42.4041 162.959 41.8708 162.777 41.3765C162.595 40.8822 162.314 40.4826 161.935 40.1779C161.556 39.8731 161.073 39.7207 160.486 39.7207C159.899 39.7207 159.415 39.8731 159.036 40.1779C158.657 40.4826 158.377 40.8822 158.195 41.3765C158.012 41.8708 157.921 42.4041 157.921 42.9765C157.921 43.5488 158.012 44.0803 158.195 44.5709C158.377 45.0615 158.657 45.4573 159.036 45.7583C159.415 46.0594 159.899 46.2099 160.486 46.2099ZM172.416 35.4392L173.085 36.242C172.824 36.4947 172.523 36.6713 172.182 36.7716C171.84 36.872 171.453 36.9333 171.022 36.9556C170.591 36.9779 170.111 37.0002 169.584 37.0225C168.989 37.0448 168.497 37.1897 168.106 37.4573C167.716 37.7249 167.415 38.1114 167.203 38.6169C166.991 39.1224 166.856 39.743 166.796 40.4789H166.908C167.198 39.9437 167.599 39.5498 168.112 39.297C168.625 39.0443 169.175 38.9179 169.762 38.9179C170.431 38.9179 171.033 39.074 171.568 39.3862C172.103 39.6984 172.527 40.1611 172.839 40.7744C173.152 41.3876 173.308 42.1439 173.308 43.0434C173.308 43.9391 173.148 44.7121 172.828 45.3625C172.512 46.0129 172.068 46.5147 171.496 46.8677C170.927 47.2171 170.26 47.3918 169.494 47.3918C168.729 47.3918 168.058 47.2115 167.482 46.851C166.906 46.4868 166.458 45.9479 166.138 45.2343C165.819 44.517 165.659 43.6306 165.659 42.5751V41.6608C165.659 39.7542 165.982 38.3084 166.629 37.3235C167.279 36.3386 168.257 35.8295 169.561 35.796C170.022 35.7811 170.433 35.7774 170.793 35.7849C171.154 35.7923 171.468 35.7756 171.736 35.7347C172.003 35.6938 172.23 35.5953 172.416 35.4392ZM169.494 46.2099C170.011 46.2099 170.455 46.0798 170.827 45.8197C171.202 45.5595 171.49 45.1934 171.691 44.7214C171.892 44.2457 171.992 43.6863 171.992 43.0434C171.992 42.419 171.89 41.8875 171.685 41.4489C171.485 41.0104 171.197 40.6759 170.821 40.4455C170.446 40.215 169.996 40.0998 169.472 40.0998C169.089 40.0998 168.746 40.1649 168.441 40.2949C168.136 40.425 167.876 40.6164 167.66 40.8692C167.445 41.1219 167.277 41.4304 167.159 41.7946C167.043 42.1588 166.982 42.5751 166.975 43.0434C166.975 44.0022 167.199 44.7697 167.649 45.3458C168.099 45.9219 168.714 46.2099 169.494 46.2099ZM186.691 45.9869L186.535 49.6663H185.175V47.2134H184.06V45.9869H186.691ZM175.006 38.6503H176.322V45.9869H179.555V38.6503H180.871V45.9869H184.104V38.6503H185.42V47.2134H175.006V38.6503ZM191.789 47.3918C190.964 47.3918 190.252 47.2097 189.654 46.8454C189.059 46.4775 188.6 45.9646 188.277 45.3068C187.957 44.6452 187.797 43.8759 187.797 42.9988C187.797 42.1216 187.957 41.3486 188.277 40.6796C188.6 40.0069 189.05 39.4829 189.626 39.1075C190.206 38.7284 190.882 38.5389 191.655 38.5389C192.101 38.5389 192.542 38.6132 192.976 38.7618C193.411 38.9105 193.807 39.1521 194.164 39.4866C194.521 39.8174 194.805 40.2559 195.017 40.8023C195.229 41.3486 195.335 42.0213 195.335 42.8204V43.3779H188.734V42.2406H193.997C193.997 41.7574 193.9 41.3263 193.707 40.9472C193.517 40.5681 193.246 40.2689 192.893 40.0496C192.543 39.8304 192.131 39.7207 191.655 39.7207C191.131 39.7207 190.678 39.8508 190.295 40.111C189.916 40.3674 189.624 40.7019 189.42 41.1145C189.215 41.527 189.113 41.9693 189.113 42.4413V43.1995C189.113 43.8461 189.225 44.3943 189.448 44.8441C189.674 45.29 189.988 45.6301 190.39 45.8643C190.791 46.0947 191.258 46.2099 191.789 46.2099C192.135 46.2099 192.447 46.1616 192.726 46.065C193.008 45.9646 193.251 45.8159 193.456 45.619C193.66 45.4183 193.818 45.1693 193.93 44.8719L195.201 45.2287C195.067 45.6598 194.842 46.0389 194.526 46.366C194.21 46.6893 193.82 46.9421 193.356 47.1242C192.891 47.3026 192.369 47.3918 191.789 47.3918ZM207.479 35.4392L208.148 36.242C207.888 36.4947 207.587 36.6713 207.245 36.7716C206.903 36.872 206.516 36.9333 206.085 36.9556C205.654 36.9779 205.174 37.0002 204.647 37.0225C204.052 37.0448 203.56 37.1897 203.169 37.4573C202.779 37.7249 202.478 38.1114 202.266 38.6169C202.054 39.1224 201.919 39.743 201.859 40.4789H201.971C202.261 39.9437 202.662 39.5498 203.175 39.297C203.688 39.0443 204.238 38.9179 204.825 38.9179C205.494 38.9179 206.096 39.074 206.631 39.3862C207.167 39.6984 207.59 40.1611 207.902 40.7744C208.215 41.3876 208.371 42.1439 208.371 43.0434C208.371 43.9391 208.211 44.7121 207.891 45.3625C207.575 46.0129 207.131 46.5147 206.559 46.8677C205.99 47.2171 205.323 47.3918 204.558 47.3918C203.792 47.3918 203.121 47.2115 202.545 46.851C201.969 46.4868 201.521 45.9479 201.201 45.2343C200.882 44.517 200.722 43.6306 200.722 42.5751V41.6608C200.722 39.7542 201.045 38.3084 201.692 37.3235C202.342 36.3386 203.32 35.8295 204.624 35.796C205.085 35.7811 205.496 35.7774 205.856 35.7849C206.217 35.7923 206.531 35.7756 206.799 35.7347C207.066 35.6938 207.293 35.5953 207.479 35.4392ZM204.558 46.2099C205.074 46.2099 205.518 46.0798 205.89 45.8197C206.265 45.5595 206.553 45.1934 206.754 44.7214C206.955 44.2457 207.055 43.6863 207.055 43.0434C207.055 42.419 206.953 41.8875 206.748 41.4489C206.548 41.0104 206.26 40.6759 205.884 40.4455C205.509 40.215 205.059 40.0998 204.535 40.0998C204.152 40.0998 203.809 40.1649 203.504 40.2949C203.199 40.425 202.939 40.6164 202.723 40.8692C202.508 41.1219 202.341 41.4304 202.222 41.7946C202.106 42.1588 202.045 42.5751 202.038 43.0434C202.038 44.0022 202.263 44.7697 202.712 45.3458C203.162 45.9219 203.777 46.2099 204.558 46.2099ZM211.207 41.75H213.66C214.663 41.75 215.43 42.0046 215.962 42.5137C216.493 43.0229 216.759 43.6677 216.759 44.4482C216.759 44.9611 216.64 45.4276 216.402 45.8475C216.165 46.2638 215.815 46.5964 215.354 46.8454C214.893 47.0907 214.329 47.2134 213.66 47.2134H210.069V38.6503H211.385V45.9869H213.66C214.18 45.9869 214.607 45.8494 214.942 45.5744C215.276 45.2993 215.443 44.9463 215.443 44.5151C215.443 44.0617 215.276 43.6919 214.942 43.4057C214.607 43.1196 214.18 42.9765 213.66 42.9765H211.207V41.75ZM218.119 47.2134V38.6503H219.435V47.2134H218.119ZM225.008 47.3918C224.205 47.3918 223.514 47.2022 222.934 46.8231C222.355 46.444 221.909 45.9219 221.596 45.2566C221.284 44.5913 221.128 43.8313 221.128 42.9765C221.128 42.1068 221.288 41.3393 221.608 40.674C221.931 40.005 222.381 39.4829 222.957 39.1075C223.536 38.7284 224.213 38.5389 224.986 38.5389C225.588 38.5389 226.131 38.6504 226.614 38.8733C227.097 39.0963 227.493 39.4085 227.801 39.8099C228.11 40.2113 228.301 40.6796 228.375 41.2148H227.06C226.959 40.8246 226.736 40.4789 226.391 40.1779C226.049 39.8731 225.588 39.7207 225.008 39.7207C224.495 39.7207 224.046 39.8545 223.659 40.1221C223.276 40.386 222.977 40.7595 222.762 41.2427C222.55 41.7221 222.444 42.2852 222.444 42.9319C222.444 43.5934 222.548 44.1695 222.756 44.6601C222.968 45.1507 223.265 45.5316 223.648 45.8029C224.034 46.0742 224.488 46.2099 225.008 46.2099C225.35 46.2099 225.66 46.1504 225.939 46.0315C226.218 45.9126 226.454 45.7416 226.647 45.5186C226.84 45.2956 226.978 45.028 227.06 44.7158H228.375C228.301 45.2213 228.117 45.6766 227.824 46.0817C227.534 46.4831 227.149 46.8027 226.67 47.0406C226.194 47.2747 225.64 47.3918 225.008 47.3918ZM229.31 39.8768V38.6503H236.268V39.8768H233.458V47.2134H232.142V39.8768H229.31ZM237.873 50.4245V38.6503H239.144V40.0106H239.3C239.397 39.862 239.53 39.6724 239.701 39.442C239.876 39.2078 240.125 38.9997 240.448 38.8176C240.776 38.6318 241.218 38.5389 241.775 38.5389C242.496 38.5389 243.132 38.7191 243.682 39.0796C244.232 39.4401 244.661 39.9512 244.97 40.6127C245.278 41.2743 245.432 42.0547 245.432 42.9542C245.432 43.861 245.278 44.6471 244.97 45.3123C244.661 45.9739 244.234 46.4868 243.687 46.851C243.141 47.2115 242.511 47.3918 241.798 47.3918C241.248 47.3918 240.807 47.3007 240.476 47.1186C240.146 46.9328 239.891 46.7228 239.713 46.4886C239.534 46.2508 239.397 46.0538 239.3 45.8977H239.189V50.4245H237.873ZM239.166 42.9319C239.166 43.5786 239.261 44.149 239.451 44.6434C239.64 45.1339 239.917 45.5186 240.281 45.7974C240.645 46.0724 241.091 46.2099 241.619 46.2099C242.169 46.2099 242.628 46.065 242.996 45.7751C243.368 45.4814 243.647 45.0875 243.832 44.5932C244.022 44.0952 244.117 43.5414 244.117 42.9319C244.117 42.3298 244.024 41.7872 243.838 41.304C243.656 40.8171 243.379 40.4325 243.007 40.15C242.639 39.8638 242.177 39.7207 241.619 39.7207C241.084 39.7207 240.634 39.8564 240.27 40.1277C239.906 40.3953 239.631 40.7707 239.445 41.2538C239.259 41.7333 239.166 42.2926 239.166 42.9319ZM250.604 47.3918C249.831 47.3918 249.153 47.2078 248.569 46.8399C247.99 46.4719 247.536 45.9572 247.209 45.2956C246.886 44.6341 246.724 43.861 246.724 42.9765C246.724 42.0845 246.886 41.3059 247.209 40.6406C247.536 39.9753 247.99 39.4587 248.569 39.0908C249.153 38.7228 249.831 38.5389 250.604 38.5389C251.377 38.5389 252.054 38.7228 252.633 39.0908C253.217 39.4587 253.67 39.9753 253.994 40.6406C254.321 41.3059 254.484 42.0845 254.484 42.9765C254.484 43.861 254.321 44.6341 253.994 45.2956C253.67 45.9572 253.217 46.4719 252.633 46.8399C252.054 47.2078 251.377 47.3918 250.604 47.3918ZM250.604 46.2099C251.191 46.2099 251.675 46.0594 252.054 45.7583C252.433 45.4573 252.713 45.0615 252.895 44.5709C253.078 44.0803 253.169 43.5488 253.169 42.9765C253.169 42.4041 253.078 41.8708 252.895 41.3765C252.713 40.8822 252.433 40.4826 252.054 40.1779C251.675 39.8731 251.191 39.7207 250.604 39.7207C250.017 39.7207 249.534 39.8731 249.155 40.1779C248.776 40.4826 248.495 40.8822 248.313 41.3765C248.131 41.8708 248.04 42.4041 248.04 42.9765C248.04 43.5488 248.131 44.0803 248.313 44.5709C248.495 45.0615 248.776 45.4573 249.155 45.7583C249.534 46.0594 250.017 46.2099 250.604 46.2099ZM260.28 50.4245V38.6503H261.551V40.0106H261.707C261.804 39.862 261.938 39.6724 262.109 39.442C262.283 39.2078 262.532 38.9997 262.856 38.8176C263.183 38.6318 263.625 38.5389 264.182 38.5389C264.903 38.5389 265.539 38.7191 266.089 39.0796C266.639 39.4401 267.068 39.9512 267.377 40.6127C267.685 41.2743 267.84 42.0547 267.84 42.9542C267.84 43.861 267.685 44.6471 267.377 45.3123C267.068 45.9739 266.641 46.4868 266.095 46.851C265.548 47.2115 264.918 47.3918 264.205 47.3918C263.655 47.3918 263.214 47.3007 262.883 47.1186C262.553 46.9328 262.298 46.7228 262.12 46.4886C261.941 46.2508 261.804 46.0538 261.707 45.8977H261.596V50.4245H260.28ZM261.573 42.9319C261.573 43.5786 261.668 44.149 261.858 44.6434C262.047 45.1339 262.324 45.5186 262.688 45.7974C263.053 46.0724 263.499 46.2099 264.026 46.2099C264.576 46.2099 265.035 46.065 265.403 45.7751C265.775 45.4814 266.054 45.0875 266.24 44.5932C266.429 44.0952 266.524 43.5414 266.524 42.9319C266.524 42.3298 266.431 41.7872 266.245 41.304C266.063 40.8171 265.786 40.4325 265.414 40.15C265.047 39.8638 264.584 39.7207 264.026 39.7207C263.491 39.7207 263.041 39.8564 262.677 40.1277C262.313 40.3953 262.038 40.7707 261.852 41.2538C261.666 41.7333 261.573 42.2926 261.573 42.9319ZM272.052 47.4141C271.51 47.4141 271.017 47.3119 270.575 47.1075C270.133 46.8993 269.782 46.6001 269.521 46.2099C269.261 45.8159 269.131 45.3402 269.131 44.7827C269.131 44.2921 269.228 43.8945 269.421 43.5897C269.614 43.2812 269.873 43.0396 270.196 42.865C270.519 42.6903 270.876 42.5602 271.266 42.4747C271.66 42.3855 272.056 42.3149 272.454 42.2629C272.974 42.196 273.396 42.1458 273.719 42.1124C274.046 42.0752 274.284 42.0139 274.433 41.9284C274.585 41.8429 274.661 41.6942 274.661 41.4824V41.4378C274.661 40.8877 274.511 40.4603 274.21 40.1556C273.913 39.8508 273.461 39.6984 272.855 39.6984C272.227 39.6984 271.735 39.8359 271.378 40.111C271.021 40.386 270.77 40.6796 270.625 40.9918L269.376 40.5458C269.599 40.0255 269.897 39.6204 270.268 39.3305C270.644 39.0369 271.053 38.8325 271.495 38.7172C271.941 38.5983 272.379 38.5389 272.811 38.5389C273.086 38.5389 273.401 38.5723 273.758 38.6392C274.119 38.7024 274.466 38.8343 274.801 39.035C275.139 39.2357 275.42 39.5386 275.643 39.9437C275.866 40.3488 275.977 40.8915 275.977 41.5716V47.2134H274.661V46.0538H274.594C274.505 46.2396 274.357 46.4385 274.149 46.6503C273.94 46.8622 273.663 47.0424 273.318 47.1911C272.972 47.3397 272.55 47.4141 272.052 47.4141ZM272.253 46.2322C272.773 46.2322 273.212 46.13 273.569 45.9256C273.929 45.7212 274.201 45.4573 274.383 45.1339C274.568 44.8106 274.661 44.4705 274.661 44.1137V42.9096C274.606 42.9765 274.483 43.0378 274.293 43.0935C274.108 43.1456 273.892 43.192 273.647 43.2329C273.405 43.2701 273.169 43.3035 272.939 43.3333C272.712 43.3593 272.528 43.3816 272.387 43.4002C272.045 43.4448 271.725 43.5172 271.428 43.6176C271.134 43.7142 270.896 43.861 270.714 44.058C270.536 44.2513 270.447 44.5151 270.447 44.8496C270.447 45.3068 270.616 45.6524 270.954 45.8866C271.296 46.117 271.729 46.2322 272.253 46.2322ZM284.42 35.4392L285.089 36.242C284.829 36.4947 284.528 36.6713 284.186 36.7716C283.844 36.872 283.457 36.9333 283.026 36.9556C282.595 36.9779 282.116 37.0002 281.588 37.0225C280.993 37.0448 280.501 37.1897 280.11 37.4573C279.72 37.7249 279.419 38.1114 279.207 38.6169C278.995 39.1224 278.86 39.743 278.8 40.4789H278.912C279.202 39.9437 279.603 39.5498 280.116 39.297C280.629 39.0443 281.179 38.9179 281.766 38.9179C282.435 38.9179 283.037 39.074 283.572 39.3862C284.108 39.6984 284.531 40.1611 284.844 40.7744C285.156 41.3876 285.312 42.1439 285.312 43.0434C285.312 43.9391 285.152 44.7121 284.832 45.3625C284.516 46.0129 284.072 46.5147 283.5 46.8677C282.931 47.2171 282.264 47.3918 281.499 47.3918C280.733 47.3918 280.062 47.2115 279.486 46.851C278.91 46.4868 278.462 45.9479 278.143 45.2343C277.823 44.517 277.663 43.6306 277.663 42.5751V41.6608C277.663 39.7542 277.986 38.3084 278.633 37.3235C279.284 36.3386 280.261 35.8295 281.566 35.796C282.026 35.7811 282.437 35.7774 282.798 35.7849C283.158 35.7923 283.472 35.7756 283.74 35.7347C284.007 35.6938 284.234 35.5953 284.42 35.4392ZM281.499 46.2099C282.015 46.2099 282.459 46.0798 282.831 45.8197C283.206 45.5595 283.494 45.1934 283.695 44.7214C283.896 44.2457 283.996 43.6863 283.996 43.0434C283.996 42.419 283.894 41.8875 283.69 41.4489C283.489 41.0104 283.201 40.6759 282.825 40.4455C282.45 40.215 282 40.0998 281.476 40.0998C281.094 40.0998 280.75 40.1649 280.445 40.2949C280.14 40.425 279.88 40.6164 279.664 40.8692C279.449 41.1219 279.282 41.4304 279.163 41.7946C279.048 42.1588 278.986 42.5751 278.979 43.0434C278.979 44.0022 279.204 44.7697 279.653 45.3458C280.103 45.9219 280.718 46.2099 281.499 46.2099ZM290.489 47.3918C289.716 47.3918 289.038 47.2078 288.454 46.8399C287.874 46.4719 287.421 45.9572 287.094 45.2956C286.771 44.6341 286.609 43.861 286.609 42.9765C286.609 42.0845 286.771 41.3059 287.094 40.6406C287.421 39.9753 287.874 39.4587 288.454 39.0908C289.038 38.7228 289.716 38.5389 290.489 38.5389C291.262 38.5389 291.939 38.7228 292.518 39.0908C293.102 39.4587 293.555 39.9753 293.879 40.6406C294.206 41.3059 294.369 42.0845 294.369 42.9765C294.369 43.861 294.206 44.6341 293.879 45.2956C293.555 45.9572 293.102 46.4719 292.518 46.8399C291.939 47.2078 291.262 47.3918 290.489 47.3918ZM290.489 46.2099C291.076 46.2099 291.559 46.0594 291.939 45.7583C292.318 45.4573 292.598 45.0615 292.78 44.5709C292.963 44.0803 293.054 43.5488 293.054 42.9765C293.054 42.4041 292.963 41.8708 292.78 41.3765C292.598 40.8822 292.318 40.4826 291.939 40.1779C291.559 39.8731 291.076 39.7207 290.489 39.7207C289.902 39.7207 289.419 39.8731 289.04 40.1779C288.661 40.4826 288.38 40.8822 288.198 41.3765C288.016 41.8708 287.925 42.4041 287.925 42.9765C287.925 43.5488 288.016 44.0803 288.198 44.5709C288.38 45.0615 288.661 45.4573 289.04 45.7583C289.419 46.0594 289.902 46.2099 290.489 46.2099ZM294.944 39.8768V38.6503H301.902V39.8768H299.092V47.2134H297.777V39.8768H294.944ZM305.582 47.4141C305.04 47.4141 304.547 47.3119 304.105 47.1075C303.663 46.8993 303.312 46.6001 303.051 46.2099C302.791 45.8159 302.661 45.3402 302.661 44.7827C302.661 44.2921 302.758 43.8945 302.951 43.5897C303.144 43.2812 303.403 43.0396 303.726 42.865C304.049 42.6903 304.406 42.5602 304.796 42.4747C305.19 42.3855 305.586 42.3149 305.984 42.2629C306.504 42.196 306.926 42.1458 307.249 42.1124C307.576 42.0752 307.814 42.0139 307.963 41.9284C308.115 41.8429 308.191 41.6942 308.191 41.4824V41.4378C308.191 40.8877 308.041 40.4603 307.74 40.1556C307.443 39.8508 306.991 39.6984 306.385 39.6984C305.757 39.6984 305.265 39.8359 304.908 40.111C304.551 40.386 304.3 40.6796 304.155 40.9918L302.906 40.5458C303.129 40.0255 303.427 39.6204 303.798 39.3305C304.174 39.0369 304.583 38.8325 305.025 38.7172C305.471 38.5983 305.909 38.5389 306.341 38.5389C306.616 38.5389 306.931 38.5723 307.288 38.6392C307.649 38.7024 307.996 38.8343 308.331 39.035C308.669 39.2357 308.95 39.5386 309.173 39.9437C309.396 40.3488 309.507 40.8915 309.507 41.5716V47.2134H308.191V46.0538H308.124C308.035 46.2396 307.887 46.4385 307.679 46.6503C307.47 46.8622 307.193 47.0424 306.848 47.1911C306.502 47.3397 306.08 47.4141 305.582 47.4141ZM305.783 46.2322C306.303 46.2322 306.742 46.13 307.099 45.9256C307.459 45.7212 307.731 45.4573 307.913 45.1339C308.098 44.8106 308.191 44.4705 308.191 44.1137V42.9096C308.136 42.9765 308.013 43.0378 307.823 43.0935C307.638 43.1456 307.422 43.192 307.177 43.2329C306.935 43.2701 306.699 43.3035 306.469 43.3333C306.242 43.3593 306.058 43.3816 305.917 43.4002C305.575 43.4448 305.255 43.5172 304.958 43.6176C304.664 43.7142 304.426 43.861 304.244 44.058C304.066 44.2513 303.977 44.5151 303.977 44.8496C303.977 45.3068 304.146 45.6524 304.484 45.8866C304.826 46.117 305.259 46.2322 305.783 46.2322ZM315.185 47.3918C314.36 47.3918 313.648 47.2097 313.05 46.8454C312.455 46.4775 311.996 45.9646 311.673 45.3068C311.353 44.6452 311.193 43.8759 311.193 42.9988C311.193 42.1216 311.353 41.3486 311.673 40.6796C311.996 40.0069 312.446 39.4829 313.022 39.1075C313.601 38.7284 314.278 38.5389 315.051 38.5389C315.497 38.5389 315.937 38.6132 316.372 38.7618C316.807 38.9105 317.203 39.1521 317.56 39.4866C317.916 39.8174 318.201 40.2559 318.413 40.8023C318.624 41.3486 318.73 42.0213 318.73 42.8204V43.3779H312.13V42.2406H317.392C317.392 41.7574 317.296 41.3263 317.102 40.9472C316.913 40.5681 316.642 40.2689 316.289 40.0496C315.939 39.8304 315.527 39.7207 315.051 39.7207C314.527 39.7207 314.073 39.8508 313.691 40.111C313.312 40.3674 313.02 40.7019 312.815 41.1145C312.611 41.527 312.509 41.9693 312.509 42.4413V43.1995C312.509 43.8461 312.62 44.3943 312.843 44.8441C313.07 45.29 313.384 45.6301 313.785 45.8643C314.187 46.0947 314.653 46.2099 315.185 46.2099C315.53 46.2099 315.843 46.1616 316.121 46.065C316.404 45.9646 316.647 45.8159 316.852 45.619C317.056 45.4183 317.214 45.1693 317.325 44.8719L318.597 45.2287C318.463 45.6598 318.238 46.0389 317.922 46.366C317.606 46.6893 317.216 46.9421 316.751 47.1242C316.287 47.3026 315.764 47.3918 315.185 47.3918ZM319.621 39.8768V38.6503H326.578V39.8768H323.768V47.2134H322.453V39.8768H319.621ZM329.9 44.0022V43.9353C329.908 43.2255 329.982 42.6606 330.123 42.2406C330.264 41.8206 330.465 41.4805 330.725 41.2204C330.985 40.9602 331.298 40.7205 331.662 40.5012C331.881 40.3674 332.078 40.2095 332.253 40.0273C332.428 39.8415 332.565 39.6278 332.665 39.3862C332.769 39.1447 332.821 38.8771 332.821 38.5835C332.821 38.2192 332.736 37.9033 332.565 37.6357C332.394 37.3681 332.166 37.1619 331.879 37.0169C331.593 36.872 331.275 36.7995 330.926 36.7995C330.621 36.7995 330.328 36.8627 330.045 36.989C329.763 37.1154 329.527 37.3142 329.337 37.5855C329.148 37.8569 329.038 38.2118 329.008 38.6503H327.603C327.633 38.0185 327.797 37.4778 328.094 37.0281C328.395 36.5783 328.791 36.2346 329.281 35.9967C329.776 35.7588 330.324 35.6399 330.926 35.6399C331.58 35.6399 332.149 35.77 332.632 36.0302C333.119 36.2903 333.494 36.6471 333.758 37.1005C334.026 37.554 334.159 38.0706 334.159 38.6503C334.159 39.0592 334.096 39.429 333.97 39.7598C333.847 40.0905 333.669 40.386 333.435 40.6462C333.204 40.9063 332.926 41.1368 332.598 41.3374C332.271 41.5419 332.009 41.7574 331.812 41.9841C331.615 42.2071 331.472 42.4729 331.383 42.7813C331.294 43.0898 331.246 43.4745 331.238 43.9353V44.0022H329.9ZM330.614 47.3026C330.339 47.3026 330.103 47.2041 329.906 47.0071C329.709 46.8101 329.61 46.5741 329.61 46.2991C329.61 46.0241 329.709 45.7881 329.906 45.5911C330.103 45.3941 330.339 45.2956 330.614 45.2956C330.889 45.2956 331.125 45.3941 331.322 45.5911C331.519 45.7881 331.617 46.0241 331.617 46.2991C331.617 46.4812 331.571 46.6485 331.478 46.8008C331.389 46.9532 331.268 47.0759 331.116 47.1688C330.967 47.258 330.8 47.3026 330.614 47.3026ZM344.61 45.4294L347.598 38.6503H348.847L345.145 47.2134H344.075L340.44 38.6503H341.667L344.61 45.4294ZM341.243 38.6503V47.2134H339.927V38.6503H341.243ZM347.977 47.2134V38.6503H349.293V47.2134H347.977ZM354.866 47.3918C354.093 47.3918 353.415 47.2078 352.831 46.8399C352.252 46.4719 351.798 45.9572 351.471 45.2956C351.148 44.6341 350.986 43.861 350.986 42.9765C350.986 42.0845 351.148 41.3059 351.471 40.6406C351.798 39.9753 352.252 39.4587 352.831 39.0908C353.415 38.7228 354.093 38.5389 354.866 38.5389C355.639 38.5389 356.316 38.7228 356.895 39.0908C357.479 39.4587 357.932 39.9753 358.256 40.6406C358.583 41.3059 358.746 42.0845 358.746 42.9765C358.746 43.861 358.583 44.6341 358.256 45.2956C357.932 45.9572 357.479 46.4719 356.895 46.8399C356.316 47.2078 355.639 47.3918 354.866 47.3918ZM354.866 46.2099C355.453 46.2099 355.937 46.0594 356.316 45.7583C356.695 45.4573 356.975 45.0615 357.157 44.5709C357.34 44.0803 357.431 43.5488 357.431 42.9765C357.431 42.4041 357.34 41.8708 357.157 41.3765C356.975 40.8822 356.695 40.4826 356.316 40.1779C355.937 39.8731 355.453 39.7207 354.866 39.7207C354.279 39.7207 353.796 39.8731 353.417 40.1779C353.038 40.4826 352.757 40.8822 352.575 41.3765C352.393 41.8708 352.302 42.4041 352.302 42.9765C352.302 43.5488 352.393 44.0803 352.575 44.5709C352.757 45.0615 353.038 45.4573 353.417 45.7583C353.796 46.0594 354.279 46.2099 354.866 46.2099ZM359.553 47.2134L363.032 42.865L359.597 38.6503H361.158L364.013 42.3075H364.726V38.6503H366.042V42.3075H366.733L369.588 38.6503H371.149L367.737 42.865L371.193 47.2134H369.61L366.711 43.534H366.042V47.2134H364.726V43.534H364.057L361.136 47.2134H359.553ZM375.997 47.3918C375.172 47.3918 374.46 47.2097 373.862 46.8454C373.267 46.4775 372.808 45.9646 372.485 45.3068C372.165 44.6452 372.005 43.8759 372.005 42.9988C372.005 42.1216 372.165 41.3486 372.485 40.6796C372.808 40.0069 373.258 39.4829 373.834 39.1075C374.414 38.7284 375.09 38.5389 375.863 38.5389C376.309 38.5389 376.75 38.6132 377.184 38.7618C377.619 38.9105 378.015 39.1521 378.372 39.4866C378.729 39.8174 379.013 40.2559 379.225 40.8023C379.437 41.3486 379.543 42.0213 379.543 42.8204V43.3779H372.942V42.2406H378.205C378.205 41.7574 378.108 41.3263 377.915 40.9472C377.725 40.5681 377.454 40.2689 377.101 40.0496C376.752 39.8304 376.339 39.7207 375.863 39.7207C375.339 39.7207 374.886 39.8508 374.503 40.111C374.124 40.3674 373.832 40.7019 373.628 41.1145C373.423 41.527 373.321 41.9693 373.321 42.4413V43.1995C373.321 43.8461 373.433 44.3943 373.656 44.8441C373.882 45.29 374.196 45.6301 374.598 45.8643C374.999 46.0947 375.466 46.2099 375.997 46.2099C376.343 46.2099 376.655 46.1616 376.934 46.065C377.216 45.9646 377.46 45.8159 377.664 45.619C377.868 45.4183 378.026 45.1693 378.138 44.8719L379.409 45.2287C379.275 45.6598 379.05 46.0389 378.734 46.366C378.418 46.6893 378.028 46.9421 377.564 47.1242C377.099 47.3026 376.577 47.3918 375.997 47.3918ZM380.433 39.8768V38.6503H387.39V39.8768H384.581V47.2134H383.265V39.8768H380.433ZM398.248 47.2134V39.8545H395.973C395.461 39.8545 395.057 39.9735 394.764 40.2113C394.47 40.4492 394.323 40.7762 394.323 41.1925C394.323 41.6013 394.455 41.9228 394.719 42.157C394.987 42.3911 395.353 42.5082 395.817 42.5082H398.583V43.7346H395.817C395.238 43.7346 394.738 43.6324 394.318 43.428C393.898 43.2236 393.574 42.9319 393.348 42.5528C393.121 42.17 393.008 41.7165 393.008 41.1925C393.008 40.6647 393.127 40.2113 393.364 39.8322C393.602 39.4531 393.942 39.1614 394.385 38.957C394.831 38.7526 395.36 38.6503 395.973 38.6503H399.497V47.2134H398.248ZM392.539 47.2134L394.97 42.9542H396.397L393.967 47.2134H392.539ZM409.178 47.3918C408.405 47.3918 407.727 47.2078 407.143 46.8399C406.564 46.4719 406.11 45.9572 405.783 45.2956C405.46 44.6341 405.298 43.861 405.298 42.9765C405.298 42.0845 405.46 41.3059 405.783 40.6406C406.11 39.9753 406.564 39.4587 407.143 39.0908C407.727 38.7228 408.405 38.5389 409.178 38.5389C409.951 38.5389 410.628 38.7228 411.207 39.0908C411.791 39.4587 412.244 39.9753 412.568 40.6406C412.895 41.3059 413.058 42.0845 413.058 42.9765C413.058 43.861 412.895 44.6341 412.568 45.2956C412.244 45.9572 411.791 46.4719 411.207 46.8399C410.628 47.2078 409.951 47.3918 409.178 47.3918ZM409.178 46.2099C409.765 46.2099 410.249 46.0594 410.628 45.7583C411.007 45.4573 411.287 45.0615 411.47 44.5709C411.652 44.0803 411.743 43.5488 411.743 42.9765C411.743 42.4041 411.652 41.8708 411.47 41.3765C411.287 40.8822 411.007 40.4826 410.628 40.1779C410.249 39.8731 409.765 39.7207 409.178 39.7207C408.591 39.7207 408.108 39.8731 407.729 40.1779C407.35 40.4826 407.069 40.8822 406.887 41.3765C406.705 41.8708 406.614 42.4041 406.614 42.9765C406.614 43.5488 406.705 44.0803 406.887 44.5709C407.069 45.0615 407.35 45.4573 407.729 45.7583C408.108 46.0594 408.591 46.2099 409.178 46.2099ZM413.838 49.6663V45.9869H414.552C414.727 45.8048 414.877 45.6078 415.004 45.396C415.13 45.1841 415.24 44.9332 415.333 44.6434C415.429 44.3497 415.511 43.993 415.578 43.573C415.645 43.1493 415.704 42.6383 415.756 42.0399L416.046 38.6503H421.487V45.9869H422.803V49.6663H421.487V47.2134H415.154V49.6663H413.838ZM416.046 45.9869H420.172V39.8768H417.273L417.05 42.0399C416.957 42.9356 416.841 43.7179 416.704 44.3869C416.566 45.0559 416.347 45.5892 416.046 45.9869ZM425.551 45.2733L429.676 38.6503H431.193V47.2134H429.877V40.5904L425.774 47.2134H424.235V38.6503H425.551V45.2733ZM439.019 42.3298V43.5563H434.292V42.3298H439.019ZM434.604 38.6503V47.2134H433.288V38.6503H434.604ZM440.023 38.6503V47.2134H438.707V38.6503H440.023ZM70.8421 69.3918C70.0393 69.3918 69.348 69.2022 68.7682 68.8231C68.1884 68.444 67.7424 67.9219 67.4303 67.2566C67.1181 66.5913 66.962 65.8313 66.962 64.9765C66.962 64.1068 67.1218 63.3393 67.4414 62.674C67.7647 62.005 68.2145 61.4829 68.7905 61.1075C69.3703 60.7284 70.0467 60.5389 70.8198 60.5389C71.4219 60.5389 71.9645 60.6504 72.4477 60.8733C72.9308 61.0963 73.3266 61.4085 73.6351 61.8099C73.9436 62.2113 74.135 62.6796 74.2093 63.2148H72.8936C72.7933 62.8246 72.5703 62.4789 72.2247 62.1779C71.8827 61.8731 71.4219 61.7207 70.8421 61.7207C70.3292 61.7207 69.8795 61.8545 69.493 62.1221C69.1102 62.386 68.811 62.7595 68.5954 63.2427C68.3836 63.7221 68.2776 64.2852 68.2776 64.9319C68.2776 65.5934 68.3817 66.1695 68.5898 66.6601C68.8017 67.1507 69.099 67.5316 69.4818 67.8029C69.8683 68.0742 70.3218 68.2099 70.8421 68.2099C71.184 68.2099 71.4943 68.1504 71.7731 68.0315C72.0518 67.9126 72.2878 67.7416 72.4811 67.5186C72.6744 67.2956 72.8119 67.028 72.8936 66.7158H74.2093C74.135 67.2213 73.951 67.6766 73.6574 68.0817C73.3675 68.4831 72.9828 68.8027 72.5034 69.0406C72.0277 69.2747 71.4739 69.3918 70.8421 69.3918ZM75.1441 61.8768V60.6503H82.1016V61.8768H79.2918V69.2134H77.9762V61.8768H75.1441ZM83.7068 72.4245V60.6503H84.9778V62.0106H85.1339C85.2306 61.862 85.3644 61.6724 85.5353 61.442C85.71 61.2078 85.959 60.9997 86.2824 60.8176C86.6094 60.6318 87.0517 60.5389 87.6092 60.5389C88.3302 60.5389 88.9657 60.7191 89.5158 61.0796C90.0658 61.4401 90.4951 61.9512 90.8036 62.6127C91.1121 63.2743 91.2663 64.0547 91.2663 64.9542C91.2663 65.861 91.1121 66.6471 90.8036 67.3123C90.4951 67.9739 90.0677 68.4868 89.5214 68.851C88.975 69.2115 88.3451 69.3918 87.6315 69.3918C87.0814 69.3918 86.641 69.3007 86.3102 69.1186C85.9795 68.9328 85.7249 68.7228 85.5465 68.4886C85.3681 68.2508 85.2306 68.0538 85.1339 67.8977H85.0224V72.4245H83.7068ZM85.0001 64.9319C85.0001 65.5786 85.0949 66.149 85.2844 66.6434C85.474 67.1339 85.7509 67.5186 86.1151 67.7974C86.4793 68.0724 86.9253 68.2099 87.4531 68.2099C88.0031 68.2099 88.4621 68.065 88.8301 67.7751C89.2017 67.4814 89.4805 67.0875 89.6663 66.5932C89.8559 66.0952 89.9506 65.5414 89.9506 64.9319C89.9506 64.3298 89.8577 63.7872 89.6719 63.304C89.4898 62.8171 89.2129 62.4325 88.8412 62.15C88.4733 61.8638 88.0106 61.7207 87.4531 61.7207C86.9179 61.7207 86.4682 61.8564 86.104 62.1277C85.7397 62.3953 85.4647 62.7707 85.2789 63.2538C85.093 63.7333 85.0001 64.2926 85.0001 64.9319ZM95.4791 69.4141C94.9365 69.4141 94.4441 69.3119 94.0018 69.1075C93.5595 68.8993 93.2083 68.6001 92.9481 68.2099C92.688 67.8159 92.5579 67.3402 92.5579 66.7827C92.5579 66.2921 92.6545 65.8945 92.8478 65.5897C93.0411 65.2812 93.2994 65.0396 93.6227 64.865C93.946 64.6903 94.3028 64.5602 94.6931 64.4747C95.087 64.3855 95.4829 64.3149 95.8805 64.2629C96.4009 64.196 96.8227 64.1458 97.146 64.1124C97.4731 64.0752 97.7109 64.0139 97.8596 63.9284C98.012 63.8429 98.0882 63.6942 98.0882 63.4824V63.4378C98.0882 62.8877 97.9377 62.4603 97.6366 62.1556C97.3393 61.8508 96.8877 61.6984 96.2819 61.6984C95.6538 61.6984 95.1614 61.8359 94.8046 62.111C94.4478 62.386 94.1969 62.6796 94.052 62.9918L92.8032 62.5458C93.0262 62.0255 93.3235 61.6204 93.6952 61.3305C94.0705 61.0369 94.4794 60.8325 94.9216 60.7172C95.3676 60.5983 95.8062 60.5389 96.2373 60.5389C96.5123 60.5389 96.8283 60.5723 97.1851 60.6392C97.5456 60.7024 97.8931 60.8343 98.2276 61.035C98.5658 61.2357 98.8464 61.5386 99.0694 61.9437C99.2924 62.3488 99.4039 62.8915 99.4039 63.5716V69.2134H98.0882V68.0538H98.0213C97.9321 68.2396 97.7834 68.4385 97.5753 68.6503C97.3672 68.8622 97.0903 69.0424 96.7446 69.1911C96.399 69.3397 95.9772 69.4141 95.4791 69.4141ZM95.6798 68.2322C96.2002 68.2322 96.6387 68.13 96.9955 67.9256C97.356 67.7212 97.6273 67.4573 97.8094 67.1339C97.9953 66.8106 98.0882 66.4705 98.0882 66.1137V64.9096C98.0324 64.9765 97.9098 65.0378 97.7202 65.0935C97.5344 65.1456 97.3188 65.192 97.0736 65.2329C96.832 65.2701 96.596 65.3035 96.3655 65.3333C96.1388 65.3593 95.9549 65.3816 95.8136 65.4002C95.4717 65.4448 95.1521 65.5172 94.8547 65.6176C94.5611 65.7142 94.3233 65.861 94.1412 66.058C93.9628 66.2513 93.8736 66.5151 93.8736 66.8496C93.8736 67.3068 94.0427 67.6524 94.3809 67.8866C94.7228 68.117 95.1558 68.2322 95.6798 68.2322ZM100.577 71.6663V67.9869H101.291C101.465 67.8048 101.616 67.6078 101.742 67.396C101.868 67.1841 101.978 66.9332 102.071 66.6434C102.168 66.3497 102.249 65.993 102.316 65.573C102.383 65.1493 102.443 64.6383 102.495 64.0399L102.785 60.6503H108.226V67.9869H109.541V71.6663H108.226V69.2134H101.893V71.6663H100.577ZM102.785 67.9869H106.91V61.8768H104.011L103.788 64.0399C103.695 64.9356 103.58 65.7179 103.442 66.3869C103.305 67.0559 103.086 67.5892 102.785 67.9869ZM113.494 69.4141C112.951 69.4141 112.459 69.3119 112.016 69.1075C111.574 68.8993 111.223 68.6001 110.963 68.2099C110.702 67.8159 110.572 67.3402 110.572 66.7827C110.572 66.2921 110.669 65.8945 110.862 65.5897C111.056 65.2812 111.314 65.0396 111.637 64.865C111.961 64.6903 112.317 64.5602 112.708 64.4747C113.102 64.3855 113.497 64.3149 113.895 64.2629C114.415 64.196 114.837 64.1458 115.16 64.1124C115.488 64.0752 115.725 64.0139 115.874 63.9284C116.026 63.8429 116.103 63.6942 116.103 63.4824V63.4378C116.103 62.8877 115.952 62.4603 115.651 62.1556C115.354 61.8508 114.902 61.6984 114.296 61.6984C113.668 61.6984 113.176 61.8359 112.819 62.111C112.462 62.386 112.211 62.6796 112.066 62.9918L110.818 62.5458C111.041 62.0255 111.338 61.6204 111.71 61.3305C112.085 61.0369 112.494 60.8325 112.936 60.7172C113.382 60.5983 113.821 60.5389 114.252 60.5389C114.527 60.5389 114.843 60.5723 115.2 60.6392C115.56 60.7024 115.908 60.8343 116.242 61.035C116.58 61.2357 116.861 61.5386 117.084 61.9437C117.307 62.3488 117.418 62.8915 117.418 63.5716V69.2134H116.103V68.0538H116.036C115.947 68.2396 115.798 68.4385 115.59 68.6503C115.382 68.8622 115.105 69.0424 114.759 69.1911C114.413 69.3397 113.992 69.4141 113.494 69.4141ZM113.694 68.2322C114.215 68.2322 114.653 68.13 115.01 67.9256C115.37 67.7212 115.642 67.4573 115.824 67.1339C116.01 66.8106 116.103 66.4705 116.103 66.1137V64.9096C116.047 64.9765 115.924 65.0378 115.735 65.0935C115.549 65.1456 115.333 65.192 115.088 65.2329C114.846 65.2701 114.61 65.3035 114.38 65.3333C114.153 65.3593 113.969 65.3816 113.828 65.4002C113.486 65.4448 113.167 65.5172 112.869 65.6176C112.576 65.7142 112.338 65.861 112.156 66.058C111.977 66.2513 111.888 66.5151 111.888 66.8496C111.888 67.3068 112.057 67.6524 112.395 67.8866C112.737 68.117 113.17 68.2322 113.694 68.2322ZM123.609 64.3967V65.6232H119.082V64.3967H123.609ZM120.197 60.6503V69.2134H118.881V60.6503H120.197ZM126.24 69.3918C125.467 69.3918 124.789 69.2078 124.205 68.8399C123.626 68.4719 123.172 67.9572 122.845 67.2956C122.522 66.6341 122.36 65.861 122.36 64.9765C122.36 64.0845 122.522 63.3059 122.845 62.6406C123.172 61.9753 123.626 61.4587 124.205 61.0908C124.789 60.7228 125.467 60.5389 126.24 60.5389C127.013 60.5389 127.69 60.7228 128.269 61.0908C128.853 61.4587 129.306 61.9753 129.63 62.6406C129.957 63.3059 130.12 64.0845 130.12 64.9765C130.12 65.861 129.957 66.6341 129.63 67.2956C129.306 67.9572 128.853 68.4719 128.269 68.8399C127.69 69.2078 127.013 69.3918 126.24 69.3918ZM126.24 68.2099C126.827 68.2099 127.311 68.0594 127.69 67.7583C128.069 67.4573 128.349 67.0615 128.531 66.5709C128.714 66.0803 128.805 65.5488 128.805 64.9765C128.805 64.4041 128.714 63.8708 128.531 63.3765C128.349 62.8822 128.069 62.4826 127.69 62.1779C127.311 61.8731 126.827 61.7207 126.24 61.7207C125.653 61.7207 125.17 61.8731 124.791 62.1779C124.412 62.4826 124.131 62.8822 123.949 63.3765C123.767 63.8708 123.676 64.4041 123.676 64.9765C123.676 65.5488 123.767 66.0803 123.949 66.5709C124.131 67.0615 124.412 67.4573 124.791 67.7583C125.17 68.0594 125.653 68.2099 126.24 68.2099Z" fill="#F5F5F5" style="fill:#F5F5F5;fill:color(display-p3 0.9625 0.9625 0.9625);fill-opacity:1;"/>
<path d="M511.685 64.0973V75.5146H510.302V65.5467H510.236L507.448 67.3976V65.9927L510.302 64.0973H511.685ZM514.384 75.5146L519.49 65.413V65.3238H513.603V64.0973H520.917V65.3907L515.833 75.5146H514.384ZM522.498 74.054C522.223 74.054 521.987 73.9555 521.79 73.7586C521.593 73.5616 521.495 73.3256 521.495 73.0505C521.495 72.7755 521.593 72.5395 521.79 72.3425C521.987 72.1456 522.223 72.0471 522.498 72.0471C522.773 72.0471 523.009 72.1456 523.206 72.3425C523.403 72.5395 523.501 72.7755 523.501 73.0505C523.501 73.2327 523.455 73.3999 523.362 73.5523C523.273 73.7047 523.152 73.8273 523 73.9202C522.851 74.0094 522.684 74.054 522.498 74.054ZM522.498 68.2784C522.223 68.2784 521.987 68.18 521.79 67.983C521.593 67.786 521.495 67.55 521.495 67.275C521.495 66.9999 521.593 66.7639 521.79 66.567C521.987 66.37 522.223 66.2715 522.498 66.2715C522.773 66.2715 523.009 66.37 523.206 66.567C523.403 66.7639 523.501 66.9999 523.501 67.275C523.501 67.4571 523.455 67.6243 523.362 67.7767C523.273 67.9291 523.152 68.0517 523 68.1446C522.851 68.2338 522.684 68.2784 522.498 68.2784ZM528.466 75.6707C527.812 75.6707 527.223 75.5407 526.699 75.2805C526.175 75.0203 525.755 74.6635 525.439 74.2101C525.123 73.7567 524.95 73.2401 524.921 72.6603H526.258C526.311 73.1769 526.545 73.6043 526.961 73.9425C527.381 74.277 527.883 74.4443 528.466 74.4443C528.934 74.4443 529.351 74.3346 529.715 74.1154C530.083 73.8961 530.371 73.595 530.579 73.2122C530.791 72.8257 530.897 72.389 530.897 71.9021C530.897 71.4041 530.787 70.96 530.568 70.5697C530.352 70.1758 530.055 69.8654 529.676 69.6387C529.297 69.412 528.864 69.2968 528.377 69.2931C528.028 69.2894 527.669 69.3432 527.301 69.4547C526.933 69.5625 526.63 69.7019 526.392 69.8729L525.099 69.7168L525.79 64.0973H531.722V65.3238H526.95L526.548 68.691H526.615C526.849 68.5052 527.143 68.3509 527.496 68.2283C527.849 68.1056 528.217 68.0443 528.6 68.0443C529.299 68.0443 529.921 68.2115 530.468 68.546C531.018 68.8768 531.449 69.3302 531.761 69.9063C532.077 70.4824 532.235 71.1402 532.235 71.8798C532.235 72.6083 532.071 73.2587 531.744 73.831C531.421 74.3997 530.975 74.8494 530.406 75.1802C529.838 75.5072 529.191 75.6707 528.466 75.6707ZM537.521 64.0973V75.5146H536.139V65.5467H536.072L533.284 67.3976V65.9927L536.139 64.0973H537.521Z" fill="#707E8D" style="fill:#707E8D;fill:color(display-p3 0.4392 0.4941 0.5529);fill-opacity:1;"/>
<defs>
<linearGradient id="paint0_linear_1255_47018" x1="20.1843" y1="45.0583" x2="20.1843" y2="85.4269" gradientUnits="userSpaceOnUse">
<stop stop-color="#AC92EF" style="stop-color:#AC92EF;stop-color:color(display-p3 0.6745 0.5725 0.9373);stop-opacity:1;"/>
<stop offset="1" stop-color="#6860D4" style="stop-color:#6860D4;stop-color:color(display-p3 0.4078 0.3765 0.8314);stop-opacity:1;"/>
</linearGradient>
</defs>
</svg>
