<svg width="552" height="86" viewBox="0 0 552 86" fill="none" xmlns="http://www.w3.org/2000/svg">
<rect y="45.0583" width="40.3686" height="40.3686" rx="20.1843" fill="url(#paint0_linear_1255_47013)" style=""/>
<path d="M15.6995 71.7427V59.5098H17.9155V65.1305H18.0649L22.8374 59.5098H25.5432L20.8125 64.9991L25.585 71.7427H22.921L19.2714 66.4983L17.9155 68.0991V71.7427H15.6995Z" fill="white" style="fill:white;fill-opacity:1;"/>
<path d="M52.7035 85.4269V71.9707C52.7035 78.176 48.5032 83.4003 42.7906 84.9555C42.6855 84.9841 42.6113 85.0791 42.6113 85.1881C42.6113 85.32 42.7182 85.4269 42.8501 85.4269H52.7035Z" fill="#1B2532" style="fill:#1B2532;fill:color(display-p3 0.1059 0.1451 0.1961);fill-opacity:1;"/>
<path d="M52.7031 32.2948C52.7031 20.9906 52.7031 15.3385 54.9031 11.0208C56.8382 7.22289 59.926 4.13509 63.7239 2.19996C68.0416 0 73.6937 0 84.998 0H519.705C531.009 0 536.661 0 540.979 2.19996C544.777 4.13509 547.865 7.22289 549.8 11.0208C552 15.3385 552 20.9906 552 32.2948V53.1321C552 64.4364 552 70.0885 549.8 74.4062C547.865 78.2041 544.777 81.2919 540.979 83.227C536.661 85.427 531.009 85.427 519.705 85.427H52.7031V32.2948Z" fill="#1B2532" style="fill:#1B2532;fill:color(display-p3 0.1059 0.1451 0.1961);fill-opacity:1;"/>
<path d="M74.1257 26.2134L70.3682 21.2239H69.3536V26.2134H67.2853V14.796H69.3536V19.4901H69.8721L73.9306 14.796H76.4783L71.9682 20.003L76.6734 26.2134H74.1257ZM78.4579 29.4245C78.1829 29.4245 77.9283 29.4022 77.6941 29.3576C77.4637 29.3167 77.2797 29.2684 77.1422 29.2127L77.6105 27.6406C77.9041 27.726 78.1661 27.7669 78.3966 27.7632C78.627 27.7595 78.8295 27.687 79.0042 27.5458C79.1826 27.4083 79.3331 27.1778 79.4558 26.8545L79.6286 26.3918L76.5234 17.6503H78.6642L80.6377 24.1172H80.7269L82.706 17.6503H84.8523L81.4237 27.2503C81.2639 27.7037 81.0521 28.0921 80.7882 28.4155C80.5243 28.7425 80.201 28.9915 79.8182 29.1625C79.4391 29.3372 78.9856 29.4245 78.4579 29.4245ZM85.6179 23.8664H87.6193C87.6379 24.186 87.781 24.4331 88.0486 24.6078C88.3162 24.7825 88.6637 24.8698 89.0911 24.8698C89.5259 24.8698 89.892 24.7751 90.1893 24.5855C90.4904 24.3922 90.6409 24.1005 90.6409 23.7103C90.6409 23.4798 90.5833 23.2773 90.4681 23.1026C90.3529 22.9242 90.1912 22.7867 89.9831 22.69C89.7749 22.5934 89.5297 22.5451 89.2472 22.5451H87.9371V21.1124H89.2472C89.6672 21.1124 89.9849 21.0157 90.2005 20.8225C90.4198 20.6292 90.5294 20.3858 90.5294 20.0922C90.5294 19.7762 90.4142 19.5198 90.1838 19.3228C89.9571 19.1258 89.643 19.0273 89.2416 19.0273C88.8402 19.0273 88.5057 19.1184 88.2381 19.3005C87.9743 19.4826 87.8367 19.7168 87.8256 20.003H85.8354C85.8428 19.5049 85.9915 19.0719 86.2813 18.704C86.575 18.3361 86.9689 18.0499 87.4632 17.8455C87.9612 17.6411 88.5225 17.5389 89.1468 17.5389C89.8158 17.5389 90.3938 17.6392 90.8806 17.8399C91.3675 18.0406 91.7429 18.3212 92.0068 18.6817C92.2706 19.0385 92.4026 19.4585 92.4026 19.9416C92.4026 20.4062 92.2576 20.7909 91.9677 21.0956C91.6778 21.3967 91.2876 21.6122 90.797 21.7423V21.8315C91.1352 21.8501 91.44 21.9467 91.7113 22.1214C91.9826 22.2924 92.1982 22.5247 92.358 22.8183C92.5178 23.1119 92.5977 23.452 92.5977 23.8385C92.5977 24.3625 92.4472 24.8159 92.1461 25.1987C91.8451 25.5778 91.4307 25.8696 90.9029 26.074C90.3789 26.2784 89.7787 26.3806 89.1022 26.3806C88.4444 26.3806 87.8553 26.2821 87.335 26.0852C86.8184 25.8845 86.4077 25.5964 86.103 25.221C85.7982 24.8457 85.6365 24.3941 85.6179 23.8664ZM99.9111 21.0956V22.7514H95.3508V21.0956H99.9111ZM95.9752 17.6503V26.2134H94.0296V17.6503H95.9752ZM101.232 17.6503V26.2134H99.2922V17.6503H101.232ZM106.908 26.3806C106.05 26.3806 105.308 26.2022 104.684 25.8454C104.063 25.4849 103.585 24.9758 103.251 24.3179C102.916 23.6564 102.749 22.8777 102.749 21.982C102.749 21.1012 102.916 20.3282 103.251 19.6629C103.589 18.9939 104.061 18.4736 104.667 18.1019C105.273 17.7265 105.984 17.5389 106.802 17.5389C107.33 17.5389 107.828 17.6243 108.296 17.7953C108.768 17.9625 109.184 18.2227 109.545 18.5758C109.909 18.9289 110.195 19.3786 110.404 19.9249C110.612 20.4675 110.716 21.1142 110.716 21.865V22.4838H103.697V21.1235H108.781C108.777 20.737 108.694 20.3932 108.53 20.0922C108.367 19.7874 108.138 19.5477 107.845 19.373C107.555 19.1983 107.217 19.111 106.83 19.111C106.417 19.111 106.055 19.2113 105.743 19.412C105.431 19.609 105.187 19.8692 105.013 20.1925C104.842 20.5121 104.754 20.8633 104.751 21.2462V22.4336C104.751 22.9316 104.842 23.359 105.024 23.7158C105.206 24.0689 105.46 24.3402 105.787 24.5298C106.115 24.7156 106.497 24.8085 106.936 24.8085C107.23 24.8085 107.495 24.7676 107.733 24.6859C107.971 24.6004 108.177 24.4759 108.352 24.3123C108.527 24.1488 108.659 23.9463 108.748 23.7047L110.632 23.9165C110.513 24.4145 110.286 24.8494 109.952 25.221C109.621 25.589 109.197 25.8752 108.681 26.0796C108.164 26.2803 107.573 26.3806 106.908 26.3806ZM119.497 17.6503V24.7082H120.807V28.9674H118.833V26.2134H112.266V17.6503H114.212V24.5576H117.568V17.6503H119.497ZM125.947 26.3806C125.111 26.3806 124.386 26.1967 123.773 25.8287C123.16 25.4608 122.684 24.946 122.346 24.2845C122.011 23.6229 121.844 22.8499 121.844 21.9653C121.844 21.0808 122.011 20.3059 122.346 19.6406C122.684 18.9753 123.16 18.4587 123.773 18.0908C124.386 17.7228 125.111 17.5389 125.947 17.5389C126.784 17.5389 127.508 17.7228 128.122 18.0908C128.735 18.4587 129.209 18.9753 129.543 19.6406C129.881 20.3059 130.05 21.0808 130.05 21.9653C130.05 22.8499 129.881 23.6229 129.543 24.2845C129.209 24.946 128.735 25.4608 128.122 25.8287C127.508 26.1967 126.784 26.3806 125.947 26.3806ZM125.958 24.7639C126.412 24.7639 126.791 24.6394 127.096 24.3904C127.4 24.1377 127.627 23.7995 127.776 23.3758C127.928 22.9521 128.004 22.4801 128.004 21.9597C128.004 21.4357 127.928 20.9618 127.776 20.5381C127.627 20.1107 127.4 19.7707 127.096 19.5179C126.791 19.2652 126.412 19.1388 125.958 19.1388C125.494 19.1388 125.107 19.2652 124.799 19.5179C124.494 19.7707 124.266 20.1107 124.113 20.5381C123.964 20.9618 123.89 21.4357 123.89 21.9597C123.89 22.4801 123.964 22.9521 124.113 23.3758C124.266 23.7995 124.494 24.1377 124.799 24.3904C125.107 24.6394 125.494 24.7639 125.958 24.7639ZM131.606 26.2134V17.6503H135.202C136.217 17.6503 137.018 17.8529 137.605 18.258C138.196 18.6631 138.491 19.228 138.491 19.9528C138.491 20.4322 138.324 20.8243 137.99 21.1291C137.659 21.4301 137.207 21.6327 136.635 21.7367C137.085 21.7739 137.479 21.8873 137.817 22.0768C138.159 22.2664 138.426 22.5154 138.62 22.8238C138.813 23.1323 138.909 23.4873 138.909 23.8887C138.909 24.3607 138.785 24.7713 138.536 25.1207C138.291 25.4663 137.932 25.7358 137.46 25.9291C136.992 26.1186 136.423 26.2134 135.754 26.2134H131.606ZM133.496 24.6245H135.754C136.126 24.6245 136.417 24.5372 136.629 24.3625C136.841 24.1841 136.947 23.9425 136.947 23.6378C136.947 23.2847 136.841 23.0078 136.629 22.8071C136.417 22.6027 136.126 22.5005 135.754 22.5005H133.496V24.6245ZM133.496 21.196H135.241C135.516 21.196 135.752 21.157 135.949 21.0789C136.146 20.9971 136.297 20.8838 136.401 20.7388C136.505 20.5902 136.557 20.4136 136.557 20.2092C136.557 19.9156 136.436 19.6852 136.194 19.5179C135.957 19.3507 135.626 19.2671 135.202 19.2671H133.496V21.196ZM145.71 26.2134H143.503L147.522 14.796H150.076L154.101 26.2134H151.893L148.843 17.1375H148.754L145.71 26.2134ZM145.783 21.7367H151.804V23.3981H145.783V21.7367ZM156.601 26.336C156.263 26.336 155.973 26.2171 155.732 25.9792C155.49 25.7414 155.371 25.4515 155.375 25.1096C155.371 24.7751 155.49 24.4889 155.732 24.251C155.973 24.0132 156.263 23.8942 156.601 23.8942C156.928 23.8942 157.213 24.0132 157.454 24.251C157.7 24.4889 157.824 24.7751 157.828 25.1096C157.824 25.3363 157.765 25.5425 157.65 25.7284C157.538 25.9142 157.389 26.0629 157.204 26.1744C157.021 26.2821 156.821 26.336 156.601 26.336ZM159.844 26.2134V14.796H164.214C165.04 14.796 165.725 14.9261 166.272 15.1862C166.822 15.4427 167.232 15.7939 167.504 16.2399C167.779 16.6859 167.916 17.1914 167.916 17.7563C167.916 18.2208 167.827 18.6185 167.649 18.9493C167.47 19.2764 167.23 19.5421 166.929 19.7465C166.628 19.9509 166.292 20.0977 165.92 20.1869V20.2984C166.325 20.3207 166.714 20.4452 167.086 20.6719C167.461 20.8949 167.768 21.2108 168.005 21.6197C168.243 22.0285 168.362 22.5228 168.362 23.1026C168.362 23.6935 168.219 24.225 167.933 24.697C167.647 25.1653 167.216 25.5351 166.64 25.8064C166.063 26.0777 165.339 26.2134 164.465 26.2134H159.844ZM161.912 24.4852H164.136C164.887 24.4852 165.428 24.3421 165.759 24.0559C166.093 23.766 166.26 23.3943 166.26 22.9409C166.26 22.6027 166.177 22.2979 166.01 22.0266C165.842 21.7516 165.604 21.536 165.296 21.38C164.987 21.2201 164.62 21.1402 164.192 21.1402H161.912V24.4852ZM161.912 19.6517H163.958C164.315 19.6517 164.636 19.5867 164.922 19.4566C165.209 19.3228 165.433 19.1351 165.597 18.8936C165.764 18.6483 165.848 18.3584 165.848 18.0239C165.848 17.5816 165.692 17.2174 165.38 16.9312C165.071 16.645 164.612 16.5019 164.003 16.5019H161.912V19.6517ZM171.158 26.336C170.82 26.336 170.53 26.2171 170.289 25.9792C170.047 25.7414 169.928 25.4515 169.932 25.1096C169.928 24.7751 170.047 24.4889 170.289 24.251C170.53 24.0132 170.82 23.8942 171.158 23.8942C171.486 23.8942 171.77 24.0132 172.011 24.251C172.257 24.4889 172.381 24.7751 172.385 25.1096C172.381 25.3363 172.322 25.5425 172.207 25.7284C172.095 25.9142 171.946 26.0629 171.761 26.1744C171.578 26.2821 171.378 26.336 171.158 26.336Z" fill="#AE8DEC" style="fill:#AE8DEC;fill:color(display-p3 0.6824 0.5529 0.9255);fill-opacity:1;"/>
<path d="M67.3634 47.2134V38.6503H74.0978V47.2134H72.7821V39.8768H68.679V47.2134H67.3634ZM76.1866 50.4245V38.6503H77.4577V40.0106H77.6138C77.7104 39.862 77.8442 39.6724 78.0152 39.442C78.1899 39.2078 78.4389 38.9997 78.7622 38.8176C79.0893 38.6318 79.5316 38.5389 80.089 38.5389C80.8101 38.5389 81.4456 38.7191 81.9957 39.0796C82.5457 39.4401 82.975 39.9512 83.2835 40.6127C83.5919 41.2743 83.7462 42.0547 83.7462 42.9542C83.7462 43.861 83.5919 44.6471 83.2835 45.3123C82.975 45.9739 82.5476 46.4868 82.0012 46.851C81.4549 47.2115 80.8249 47.3918 80.1113 47.3918C79.5613 47.3918 79.1209 47.3007 78.7901 47.1186C78.4593 46.9328 78.2047 46.7228 78.0263 46.4886C77.8479 46.2508 77.7104 46.0538 77.6138 45.8977H77.5023V50.4245H76.1866ZM77.48 42.9319C77.48 43.5786 77.5748 44.149 77.7643 44.6434C77.9539 45.1339 78.2307 45.5186 78.595 45.7974C78.9592 46.0724 79.4052 46.2099 79.9329 46.2099C80.483 46.2099 80.942 46.065 81.3099 45.7751C81.6816 45.4814 81.9603 45.0875 82.1462 44.5932C82.3357 44.0952 82.4305 43.5414 82.4305 42.9319C82.4305 42.3298 82.3376 41.7872 82.1518 41.304C81.9696 40.8171 81.6928 40.4325 81.3211 40.15C80.9532 39.8638 80.4904 39.7207 79.9329 39.7207C79.3978 39.7207 78.948 39.8564 78.5838 40.1277C78.2196 40.3953 77.9446 40.7707 77.7587 41.2538C77.5729 41.7333 77.48 42.2926 77.48 42.9319ZM86.7548 45.2733L90.8802 38.6503H92.3966V47.2134H91.0809V40.5904L86.9778 47.2134H85.4391V38.6503H86.7548V45.2733ZM93.7342 47.2134V45.9869H94.0464C94.3028 45.9869 94.5165 45.9367 94.6875 45.8364C94.8585 45.7323 94.996 45.5521 95.1 45.2956C95.2078 45.0355 95.2896 44.6749 95.3453 44.2141C95.4048 43.7495 95.4475 43.1586 95.4736 42.4413L95.6297 38.6503H101.338V47.2134H100.023V39.8768H96.8784L96.7446 42.9319C96.7149 43.6343 96.6517 44.2531 96.5551 44.7883C96.4622 45.3198 96.3191 45.7658 96.1258 46.1263C95.9363 46.4868 95.6835 46.7581 95.3676 46.9402C95.0517 47.1223 94.6559 47.2134 94.1802 47.2134H93.7342ZM106.917 47.3918C106.144 47.3918 105.466 47.2078 104.882 46.8399C104.302 46.4719 103.849 45.9572 103.522 45.2956C103.199 44.6341 103.037 43.861 103.037 42.9765C103.037 42.0845 103.199 41.3059 103.522 40.6406C103.849 39.9753 104.302 39.4587 104.882 39.0908C105.466 38.7228 106.144 38.5389 106.917 38.5389C107.69 38.5389 108.366 38.7228 108.946 39.0908C109.53 39.4587 109.983 39.9753 110.307 40.6406C110.634 41.3059 110.797 42.0845 110.797 42.9765C110.797 43.861 110.634 44.6341 110.307 45.2956C109.983 45.9572 109.53 46.4719 108.946 46.8399C108.366 47.2078 107.69 47.3918 106.917 47.3918ZM106.917 46.2099C107.504 46.2099 107.987 46.0594 108.366 45.7583C108.746 45.4573 109.026 45.0615 109.208 44.5709C109.39 44.0803 109.481 43.5488 109.481 42.9765C109.481 42.4041 109.39 41.8708 109.208 41.3765C109.026 40.8822 108.746 40.4826 108.366 40.1779C107.987 39.8731 107.504 39.7207 106.917 39.7207C106.33 39.7207 105.847 39.8731 105.468 40.1779C105.088 40.4826 104.808 40.8822 104.626 41.3765C104.444 41.8708 104.353 42.4041 104.353 42.9765C104.353 43.5488 104.444 44.0803 104.626 44.5709C104.808 45.0615 105.088 45.4573 105.468 45.7583C105.847 46.0594 106.33 46.2099 106.917 46.2099ZM111.604 47.2134L115.082 42.865L111.648 38.6503H113.209L116.064 42.3075H116.777V38.6503H118.093V42.3075H118.784L121.639 38.6503H123.199L119.788 42.865L123.244 47.2134H121.661L118.762 43.534H118.093V47.2134H116.777V43.534H116.108L113.187 47.2134H111.604ZM128.048 47.3918C127.223 47.3918 126.511 47.2097 125.913 46.8454C125.318 46.4775 124.859 45.9646 124.536 45.3068C124.216 44.6452 124.056 43.8759 124.056 42.9988C124.056 42.1216 124.216 41.3486 124.536 40.6796C124.859 40.0069 125.309 39.4829 125.885 39.1075C126.465 38.7284 127.141 38.5389 127.914 38.5389C128.36 38.5389 128.8 38.6132 129.235 38.7618C129.67 38.9105 130.066 39.1521 130.423 39.4866C130.78 39.8174 131.064 40.2559 131.276 40.8023C131.488 41.3486 131.593 42.0213 131.593 42.8204V43.3779H124.993V42.2406H130.256C130.256 41.7574 130.159 41.3263 129.966 40.9472C129.776 40.5681 129.505 40.2689 129.152 40.0496C128.802 39.8304 128.39 39.7207 127.914 39.7207C127.39 39.7207 126.937 39.8508 126.554 40.111C126.175 40.3674 125.883 40.7019 125.679 41.1145C125.474 41.527 125.372 41.9693 125.372 42.4413V43.1995C125.372 43.8461 125.483 44.3943 125.706 44.8441C125.933 45.29 126.247 45.6301 126.649 45.8643C127.05 46.0947 127.516 46.2099 128.048 46.2099C128.393 46.2099 128.706 46.1616 128.984 46.065C129.267 45.9646 129.51 45.8159 129.715 45.619C129.919 45.4183 130.077 45.1693 130.189 44.8719L131.46 45.2287C131.326 45.6598 131.101 46.0389 130.785 46.366C130.469 46.6893 130.079 46.9421 129.614 47.1242C129.15 47.3026 128.628 47.3918 128.048 47.3918ZM139.012 42.3298V43.5563H134.284V42.3298H139.012ZM134.597 38.6503V47.2134H133.281V38.6503H134.597ZM140.015 38.6503V47.2134H138.7V38.6503H140.015ZM143.42 45.2733L147.545 38.6503H149.062V47.2134H147.746V40.5904L143.643 47.2134H142.104V38.6503H143.42V45.2733ZM154.748 47.3918C153.923 47.3918 153.211 47.2097 152.612 46.8454C152.018 46.4775 151.559 45.9646 151.235 45.3068C150.916 44.6452 150.756 43.8759 150.756 42.9988C150.756 42.1216 150.916 41.3486 151.235 40.6796C151.559 40.0069 152.008 39.4829 152.585 39.1075C153.164 38.7284 153.841 38.5389 154.614 38.5389C155.06 38.5389 155.5 38.6132 155.935 38.7618C156.37 38.9105 156.766 39.1521 157.123 39.4866C157.479 39.8174 157.764 40.2559 157.975 40.8023C158.187 41.3486 158.293 42.0213 158.293 42.8204V43.3779H151.693V42.2406H156.955C156.955 41.7574 156.859 41.3263 156.665 40.9472C156.476 40.5681 156.205 40.2689 155.851 40.0496C155.502 39.8304 155.09 39.7207 154.614 39.7207C154.09 39.7207 153.636 39.8508 153.254 40.111C152.874 40.3674 152.583 40.7019 152.378 41.1145C152.174 41.527 152.072 41.9693 152.072 42.4413V43.1995C152.072 43.8461 152.183 44.3943 152.406 44.8441C152.633 45.29 152.947 45.6301 153.348 45.8643C153.75 46.0947 154.216 46.2099 154.748 46.2099C155.093 46.2099 155.405 46.1616 155.684 46.065C155.967 45.9646 156.21 45.8159 156.415 45.619C156.619 45.4183 156.777 45.1693 156.888 44.8719L158.159 45.2287C158.026 45.6598 157.801 46.0389 157.485 46.366C157.169 46.6893 156.779 46.9421 156.314 47.1242C155.85 47.3026 155.327 47.3918 154.748 47.3918ZM164.082 47.2134V38.6503H167.583C168.505 38.6503 169.237 38.8585 169.78 39.2747C170.322 39.691 170.593 40.2411 170.593 40.9249C170.593 41.4452 170.439 41.8485 170.131 42.1347C169.822 42.4171 169.426 42.6085 168.943 42.7089C169.259 42.7535 169.566 42.865 169.863 43.0434C170.164 43.2218 170.413 43.4671 170.61 43.7792C170.807 44.0877 170.906 44.4668 170.906 44.9165C170.906 45.3551 170.794 45.7472 170.571 46.0928C170.348 46.4385 170.029 46.7116 169.612 46.9123C169.196 47.113 168.698 47.2134 168.118 47.2134H164.082ZM165.331 46.0092H168.118C168.572 46.0092 168.927 45.9014 169.183 45.6859C169.439 45.4703 169.568 45.1767 169.568 44.805C169.568 44.3628 169.439 44.0153 169.183 43.7625C168.927 43.5061 168.572 43.3779 168.118 43.3779H165.331V46.0092ZM165.331 42.2406H167.583C167.936 42.2406 168.239 42.1923 168.492 42.0956C168.744 41.9953 168.938 41.8541 169.072 41.6719C169.209 41.4861 169.278 41.2668 169.278 41.0141C169.278 40.6536 169.127 40.3711 168.826 40.1667C168.525 39.9586 168.111 39.8545 167.583 39.8545H165.331V42.2406ZM176.062 47.3918C175.289 47.3918 174.611 47.2078 174.027 46.8399C173.447 46.4719 172.994 45.9572 172.667 45.2956C172.344 44.6341 172.182 43.861 172.182 42.9765C172.182 42.0845 172.344 41.3059 172.667 40.6406C172.994 39.9753 173.447 39.4587 174.027 39.0908C174.611 38.7228 175.289 38.5389 176.062 38.5389C176.835 38.5389 177.511 38.7228 178.091 39.0908C178.675 39.4587 179.128 39.9753 179.452 40.6406C179.779 41.3059 179.942 42.0845 179.942 42.9765C179.942 43.861 179.779 44.6341 179.452 45.2956C179.128 45.9572 178.675 46.4719 178.091 46.8399C177.511 47.2078 176.835 47.3918 176.062 47.3918ZM176.062 46.2099C176.649 46.2099 177.132 46.0594 177.511 45.7583C177.891 45.4573 178.171 45.0615 178.353 44.5709C178.535 44.0803 178.626 43.5488 178.626 42.9765C178.626 42.4041 178.535 41.8708 178.353 41.3765C178.171 40.8822 177.891 40.4826 177.511 40.1779C177.132 39.8731 176.649 39.7207 176.062 39.7207C175.475 39.7207 174.992 39.8731 174.613 40.1779C174.233 40.4826 173.953 40.8822 173.771 41.3765C173.589 41.8708 173.498 42.4041 173.498 42.9765C173.498 43.5488 173.589 44.0803 173.771 44.5709C173.953 45.0615 174.233 45.4573 174.613 45.7583C174.992 46.0594 175.475 46.2099 176.062 46.2099ZM185.115 47.3918C184.342 47.3918 183.664 47.2078 183.08 46.8399C182.501 46.4719 182.047 45.9572 181.72 45.2956C181.397 44.6341 181.235 43.861 181.235 42.9765C181.235 42.0845 181.397 41.3059 181.72 40.6406C182.047 39.9753 182.501 39.4587 183.08 39.0908C183.664 38.7228 184.342 38.5389 185.115 38.5389C185.888 38.5389 186.565 38.7228 187.145 39.0908C187.728 39.4587 188.181 39.9753 188.505 40.6406C188.832 41.3059 188.995 42.0845 188.995 42.9765C188.995 43.861 188.832 44.6341 188.505 45.2956C188.181 45.9572 187.728 46.4719 187.145 46.8399C186.565 47.2078 185.888 47.3918 185.115 47.3918ZM185.115 46.2099C185.702 46.2099 186.186 46.0594 186.565 45.7583C186.944 45.4573 187.224 45.0615 187.407 44.5709C187.589 44.0803 187.68 43.5488 187.68 42.9765C187.68 42.4041 187.589 41.8708 187.407 41.3765C187.224 40.8822 186.944 40.4826 186.565 40.1779C186.186 39.8731 185.702 39.7207 185.115 39.7207C184.528 39.7207 184.045 39.8731 183.666 40.1779C183.287 40.4826 183.006 40.8822 182.824 41.3765C182.642 41.8708 182.551 42.4041 182.551 42.9765C182.551 43.5488 182.642 44.0803 182.824 44.5709C183.006 45.0615 183.287 45.4573 183.666 45.7583C184.045 46.0594 184.528 46.2099 185.115 46.2099ZM197.045 35.4392L197.714 36.242C197.454 36.4947 197.153 36.6713 196.811 36.7716C196.469 36.872 196.083 36.9333 195.651 36.9556C195.22 36.9779 194.741 37.0002 194.213 37.0225C193.618 37.0448 193.126 37.1897 192.736 37.4573C192.345 37.7249 192.044 38.1114 191.833 38.6169C191.621 39.1224 191.485 39.743 191.426 40.4789H191.537C191.827 39.9437 192.228 39.5498 192.741 39.297C193.254 39.0443 193.804 38.9179 194.391 38.9179C195.06 38.9179 195.663 39.074 196.198 39.3862C196.733 39.6984 197.157 40.1611 197.469 40.7744C197.781 41.3876 197.937 42.1439 197.937 43.0434C197.937 43.9391 197.777 44.7121 197.458 45.3625C197.142 46.0129 196.698 46.5147 196.125 46.8677C195.557 47.2171 194.89 47.3918 194.124 47.3918C193.358 47.3918 192.687 47.2115 192.111 46.851C191.535 46.4868 191.087 45.9479 190.768 45.2343C190.448 44.517 190.288 43.6306 190.288 42.5751V41.6608C190.288 39.7542 190.612 38.3084 191.258 37.3235C191.909 36.3386 192.886 35.8295 194.191 35.796C194.652 35.7811 195.062 35.7774 195.423 35.7849C195.783 35.7923 196.097 35.7756 196.365 35.7347C196.633 35.6938 196.859 35.5953 197.045 35.4392ZM194.124 46.2099C194.64 46.2099 195.085 46.0798 195.456 45.8197C195.832 45.5595 196.12 45.1934 196.32 44.7214C196.521 44.2457 196.621 43.6863 196.621 43.0434C196.621 42.419 196.519 41.8875 196.315 41.4489C196.114 41.0104 195.826 40.6759 195.451 40.4455C195.075 40.215 194.626 40.0998 194.102 40.0998C193.719 40.0998 193.375 40.1649 193.07 40.2949C192.765 40.425 192.505 40.6164 192.29 40.8692C192.074 41.1219 191.907 41.4304 191.788 41.7946C191.673 42.1588 191.611 42.5751 191.604 43.0434C191.604 44.0022 191.829 44.7697 192.279 45.3458C192.728 45.9219 193.343 46.2099 194.124 46.2099ZM211.321 45.9869L211.165 49.6663H209.804V47.2134H208.689V45.9869H211.321ZM199.636 38.6503H200.951V45.9869H204.185V38.6503H205.5V45.9869H208.734V38.6503H210.05V47.2134H199.636V38.6503ZM216.418 47.3918C215.593 47.3918 214.882 47.2097 214.283 46.8454C213.689 46.4775 213.23 45.9646 212.906 45.3068C212.587 44.6452 212.427 43.8759 212.427 42.9988C212.427 42.1216 212.587 41.3486 212.906 40.6796C213.23 40.0069 213.679 39.4829 214.255 39.1075C214.835 38.7284 215.512 38.5389 216.285 38.5389C216.731 38.5389 217.171 38.6132 217.606 38.7618C218.041 38.9105 218.437 39.1521 218.793 39.4866C219.15 39.8174 219.435 40.2559 219.646 40.8023C219.858 41.3486 219.964 42.0213 219.964 42.8204V43.3779H213.363V42.2406H218.626C218.626 41.7574 218.53 41.3263 218.336 40.9472C218.147 40.5681 217.875 40.2689 217.522 40.0496C217.173 39.8304 216.76 39.7207 216.285 39.7207C215.761 39.7207 215.307 39.8508 214.924 40.111C214.545 40.3674 214.254 40.7019 214.049 41.1145C213.845 41.527 213.743 41.9693 213.743 42.4413V43.1995C213.743 43.8461 213.854 44.3943 214.077 44.8441C214.304 45.29 214.618 45.6301 215.019 45.8643C215.421 46.0947 215.887 46.2099 216.418 46.2099C216.764 46.2099 217.076 46.1616 217.355 46.065C217.638 45.9646 217.881 45.8159 218.085 45.619C218.29 45.4183 218.448 45.1693 218.559 44.8719L219.83 45.2287C219.697 45.6598 219.472 46.0389 219.156 46.366C218.84 46.6893 218.45 46.9421 217.985 47.1242C217.52 47.3026 216.998 47.3918 216.418 47.3918ZM231.484 42.3298V43.5563H226.756V42.3298H231.484ZM227.069 38.6503V47.2134H225.753V38.6503H227.069ZM232.487 38.6503V47.2134H231.172V38.6503H232.487ZM238.166 47.3918C237.341 47.3918 236.63 47.2097 236.031 46.8454C235.437 46.4775 234.978 45.9646 234.654 45.3068C234.335 44.6452 234.175 43.8759 234.175 42.9988C234.175 42.1216 234.335 41.3486 234.654 40.6796C234.978 40.0069 235.427 39.4829 236.003 39.1075C236.583 38.7284 237.259 38.5389 238.033 38.5389C238.479 38.5389 238.919 38.6132 239.354 38.7618C239.789 38.9105 240.184 39.1521 240.541 39.4866C240.898 39.8174 241.182 40.2559 241.394 40.8023C241.606 41.3486 241.712 42.0213 241.712 42.8204V43.3779H235.111V42.2406H240.374C240.374 41.7574 240.277 41.3263 240.084 40.9472C239.895 40.5681 239.623 40.2689 239.27 40.0496C238.921 39.8304 238.508 39.7207 238.033 39.7207C237.509 39.7207 237.055 39.8508 236.672 40.111C236.293 40.3674 236.001 40.7019 235.797 41.1145C235.593 41.527 235.49 41.9693 235.49 42.4413V43.1995C235.49 43.8461 235.602 44.3943 235.825 44.8441C236.052 45.29 236.366 45.6301 236.767 45.8643C237.168 46.0947 237.635 46.2099 238.166 46.2099C238.512 46.2099 238.824 46.1616 239.103 46.065C239.385 45.9646 239.629 45.8159 239.833 45.619C240.038 45.4183 240.196 45.1693 240.307 44.8719L241.578 45.2287C241.444 45.6598 241.22 46.0389 240.904 46.366C240.588 46.6893 240.197 46.9421 239.733 47.1242C239.268 47.3026 238.746 47.3918 238.166 47.3918ZM250.979 47.3918C250.206 47.3918 249.528 47.2078 248.945 46.8399C248.365 46.4719 247.911 45.9572 247.584 45.2956C247.261 44.6341 247.099 43.861 247.099 42.9765C247.099 42.0845 247.261 41.3059 247.584 40.6406C247.911 39.9753 248.365 39.4587 248.945 39.0908C249.528 38.7228 250.206 38.5389 250.979 38.5389C251.752 38.5389 252.429 38.7228 253.009 39.0908C253.592 39.4587 254.046 39.9753 254.369 40.6406C254.696 41.3059 254.86 42.0845 254.86 42.9765C254.86 43.861 254.696 44.6341 254.369 45.2956C254.046 45.9572 253.592 46.4719 253.009 46.8399C252.429 47.2078 251.752 47.3918 250.979 47.3918ZM250.979 46.2099C251.567 46.2099 252.05 46.0594 252.429 45.7583C252.808 45.4573 253.089 45.0615 253.271 44.5709C253.453 44.0803 253.544 43.5488 253.544 42.9765C253.544 42.4041 253.453 41.8708 253.271 41.3765C253.089 40.8822 252.808 40.4826 252.429 40.1779C252.05 39.8731 251.567 39.7207 250.979 39.7207C250.392 39.7207 249.909 39.8731 249.53 40.1779C249.151 40.4826 248.87 40.8822 248.688 41.3765C248.506 41.8708 248.415 42.4041 248.415 42.9765C248.415 43.5488 248.506 44.0803 248.688 44.5709C248.87 45.0615 249.151 45.4573 249.53 45.7583C249.909 46.0594 250.392 46.2099 250.979 46.2099ZM255.435 39.8768V38.6503H262.392V39.8768H259.582V47.2134H258.267V39.8768H255.435ZM263.997 47.2134V38.6503H265.313V42.3744H266.183L269.26 38.6503H270.955L267.498 42.7758L270.999 47.2134H269.305L266.495 43.6009H265.313V47.2134H263.997ZM272.115 50.4245V38.6503H273.387V40.0106H273.543C273.639 39.862 273.773 39.6724 273.944 39.442C274.119 39.2078 274.368 38.9997 274.691 38.8176C275.018 38.6318 275.46 38.5389 276.018 38.5389C276.739 38.5389 277.374 38.7191 277.924 39.0796C278.475 39.4401 278.904 39.9512 279.212 40.6127C279.521 41.2743 279.675 42.0547 279.675 42.9542C279.675 43.861 279.521 44.6471 279.212 45.3123C278.904 45.9739 278.476 46.4868 277.93 46.851C277.384 47.2115 276.754 47.3918 276.04 47.3918C275.49 47.3918 275.05 47.3007 274.719 47.1186C274.388 46.9328 274.134 46.7228 273.955 46.4886C273.777 46.2508 273.639 46.0538 273.543 45.8977H273.431V50.4245H272.115ZM273.409 42.9319C273.409 43.5786 273.504 44.149 273.693 44.6434C273.883 45.1339 274.16 45.5186 274.524 45.7974C274.888 46.0724 275.334 46.2099 275.862 46.2099C276.412 46.2099 276.871 46.065 277.239 45.7751C277.61 45.4814 277.889 45.0875 278.075 44.5932C278.265 44.0952 278.359 43.5414 278.359 42.9319C278.359 42.3298 278.266 41.7872 278.081 41.304C277.898 40.8171 277.622 40.4325 277.25 40.15C276.882 39.8638 276.419 39.7207 275.862 39.7207C275.327 39.7207 274.877 39.8564 274.513 40.1277C274.148 40.3953 273.873 40.7707 273.688 41.2538C273.502 41.7333 273.409 42.2926 273.409 42.9319ZM282.505 41.75H284.958C285.962 41.75 286.729 42.0046 287.261 42.5137C287.792 43.0229 288.058 43.6677 288.058 44.4482C288.058 44.9611 287.939 45.4276 287.701 45.8475C287.463 46.2638 287.114 46.5964 286.653 46.8454C286.192 47.0907 285.627 47.2134 284.958 47.2134H281.368V38.6503H282.684V45.9869H284.958C285.479 45.9869 285.906 45.8494 286.24 45.5744C286.575 45.2993 286.742 44.9463 286.742 44.5151C286.742 44.0617 286.575 43.6919 286.24 43.4057C285.906 43.1196 285.479 42.9765 284.958 42.9765H282.505V41.75ZM289.418 47.2134V38.6503H290.734V47.2134H289.418ZM292.828 47.2134V38.6503H296.329C297.251 38.6503 297.983 38.8585 298.526 39.2747C299.068 39.691 299.34 40.2411 299.34 40.9249C299.34 41.4452 299.185 41.8485 298.877 42.1347C298.568 42.4171 298.173 42.6085 297.689 42.7089C298.005 42.7535 298.312 42.865 298.609 43.0434C298.91 43.2218 299.159 43.4671 299.356 43.7792C299.553 44.0877 299.652 44.4668 299.652 44.9165C299.652 45.3551 299.54 45.7472 299.317 46.0928C299.094 46.4385 298.775 46.7116 298.358 46.9123C297.942 47.113 297.444 47.2134 296.864 47.2134H292.828ZM294.077 46.0092H296.864C297.318 46.0092 297.673 45.9014 297.929 45.6859C298.186 45.4703 298.314 45.1767 298.314 44.805C298.314 44.3628 298.186 44.0153 297.929 43.7625C297.673 43.5061 297.318 43.3779 296.864 43.3779H294.077V46.0092ZM294.077 42.2406H296.329C296.682 42.2406 296.985 42.1923 297.238 42.0956C297.491 41.9953 297.684 41.8541 297.818 41.6719C297.955 41.4861 298.024 41.2668 298.024 41.0141C298.024 40.6536 297.873 40.3711 297.572 40.1667C297.271 39.9586 296.857 39.8545 296.329 39.8545H294.077V42.2406ZM303.849 47.4141C303.307 47.4141 302.814 47.3119 302.372 47.1075C301.93 46.8993 301.579 46.6001 301.318 46.2099C301.058 45.8159 300.928 45.3402 300.928 44.7827C300.928 44.2921 301.025 43.8945 301.218 43.5897C301.411 43.2812 301.67 43.0396 301.993 42.865C302.316 42.6903 302.673 42.5602 303.063 42.4747C303.457 42.3855 303.853 42.3149 304.251 42.2629C304.771 42.196 305.193 42.1458 305.516 42.1124C305.843 42.0752 306.081 42.0139 306.23 41.9284C306.382 41.8429 306.458 41.6942 306.458 41.4824V41.4378C306.458 40.8877 306.308 40.4603 306.007 40.1556C305.71 39.8508 305.258 39.6984 304.652 39.6984C304.024 39.6984 303.532 39.8359 303.175 40.111C302.818 40.386 302.567 40.6796 302.422 40.9918L301.173 40.5458C301.396 40.0255 301.694 39.6204 302.065 39.3305C302.441 39.0369 302.85 38.8325 303.292 38.7172C303.738 38.5983 304.176 38.5389 304.608 38.5389C304.883 38.5389 305.198 38.5723 305.555 38.6392C305.916 38.7024 306.263 38.8343 306.598 39.035C306.936 39.2357 307.217 39.5386 307.44 39.9437C307.663 40.3488 307.774 40.8915 307.774 41.5716V47.2134H306.458V46.0538H306.391C306.302 46.2396 306.154 46.4385 305.946 46.6503C305.737 46.8622 305.46 47.0424 305.115 47.1911C304.769 47.3397 304.347 47.4141 303.849 47.4141ZM304.05 46.2322C304.57 46.2322 305.009 46.13 305.366 45.9256C305.726 45.7212 305.998 45.4573 306.18 45.1339C306.365 44.8106 306.458 44.4705 306.458 44.1137V42.9096C306.403 42.9765 306.28 43.0378 306.09 43.0935C305.905 43.1456 305.689 43.192 305.444 43.2329C305.202 43.2701 304.966 43.3035 304.736 43.3333C304.509 43.3593 304.325 43.3816 304.184 43.4002C303.842 43.4448 303.522 43.5172 303.225 43.6176C302.931 43.7142 302.693 43.861 302.511 44.058C302.333 44.2513 302.244 44.5151 302.244 44.8496C302.244 45.3068 302.413 45.6524 302.751 45.8866C303.093 46.117 303.526 46.2322 304.05 46.2322ZM313.452 47.3918C312.627 47.3918 311.915 47.2097 311.317 46.8454C310.722 46.4775 310.263 45.9646 309.94 45.3068C309.62 44.6452 309.46 43.8759 309.46 42.9988C309.46 42.1216 309.62 41.3486 309.94 40.6796C310.263 40.0069 310.713 39.4829 311.289 39.1075C311.868 38.7284 312.545 38.5389 313.318 38.5389C313.764 38.5389 314.204 38.6132 314.639 38.7618C315.074 38.9105 315.47 39.1521 315.827 39.4866C316.183 39.8174 316.468 40.2559 316.68 40.8023C316.891 41.3486 316.997 42.0213 316.997 42.8204V43.3779H310.397V42.2406H315.659C315.659 41.7574 315.563 41.3263 315.369 40.9472C315.18 40.5681 314.909 40.2689 314.556 40.0496C314.206 39.8304 313.794 39.7207 313.318 39.7207C312.794 39.7207 312.34 39.8508 311.958 40.111C311.579 40.3674 311.287 40.7019 311.082 41.1145C310.878 41.527 310.776 41.9693 310.776 42.4413V43.1995C310.776 43.8461 310.887 44.3943 311.11 44.8441C311.337 45.29 311.651 45.6301 312.052 45.8643C312.454 46.0947 312.92 46.2099 313.452 46.2099C313.797 46.2099 314.11 46.1616 314.388 46.065C314.671 45.9646 314.914 45.8159 315.119 45.619C315.323 45.4183 315.481 45.1693 315.592 44.8719L316.864 45.2287C316.73 45.6598 316.505 46.0389 316.189 46.366C315.873 46.6893 315.483 46.9421 315.018 47.1242C314.554 47.3026 314.031 47.3918 313.452 47.3918ZM317.888 39.8768V38.6503H324.845V39.8768H322.035V47.2134H320.72V39.8768H317.888ZM329.484 47.3918C328.682 47.3918 327.99 47.2022 327.41 46.8231C326.831 46.444 326.385 45.9219 326.072 45.2566C325.76 44.5913 325.604 43.8313 325.604 42.9765C325.604 42.1068 325.764 41.3393 326.084 40.674C326.407 40.005 326.857 39.4829 327.433 39.1075C328.013 38.7284 328.689 38.5389 329.462 38.5389C330.064 38.5389 330.607 38.6504 331.09 38.8733C331.573 39.0963 331.969 39.4085 332.277 39.8099C332.586 40.2113 332.777 40.6796 332.852 41.2148H331.536C331.436 40.8246 331.213 40.4789 330.867 40.1779C330.525 39.8731 330.064 39.7207 329.484 39.7207C328.971 39.7207 328.522 39.8545 328.135 40.1221C327.752 40.386 327.453 40.7595 327.238 41.2427C327.026 41.7221 326.92 42.2852 326.92 42.9319C326.92 43.5934 327.024 44.1695 327.232 44.6601C327.444 45.1507 327.741 45.5316 328.124 45.8029C328.511 46.0742 328.964 46.2099 329.484 46.2099C329.826 46.2099 330.137 46.1504 330.415 46.0315C330.694 45.9126 330.93 45.7416 331.123 45.5186C331.317 45.2956 331.454 45.028 331.536 44.7158H332.852C332.777 45.2213 332.593 45.6766 332.3 46.0817C332.01 46.4831 331.625 46.8027 331.146 47.0406C330.67 47.2747 330.116 47.3918 329.484 47.3918ZM339.612 47.2134V39.8545H337.338C336.825 39.8545 336.421 39.9735 336.128 40.2113C335.834 40.4492 335.687 40.7762 335.687 41.1925C335.687 41.6013 335.819 41.9228 336.083 42.157C336.351 42.3911 336.717 42.5082 337.181 42.5082H339.947V43.7346H337.181C336.602 43.7346 336.102 43.6324 335.682 43.428C335.262 43.2236 334.938 42.9319 334.712 42.5528C334.485 42.17 334.372 41.7165 334.372 41.1925C334.372 40.6647 334.491 40.2113 334.728 39.8322C334.966 39.4531 335.306 39.1614 335.749 38.957C336.195 38.7526 336.724 38.6503 337.338 38.6503H340.861V47.2134H339.612ZM333.903 47.2134L336.334 42.9542H337.761L335.331 47.2134H333.903ZM352.795 42.3298V43.5563H348.067V42.3298H352.795ZM348.379 38.6503V47.2134H347.064V38.6503H348.379ZM353.798 38.6503V47.2134H352.482V38.6503H353.798ZM358.407 47.4141C357.864 47.4141 357.372 47.3119 356.929 47.1075C356.487 46.8993 356.136 46.6001 355.876 46.2099C355.615 45.8159 355.485 45.3402 355.485 44.7827C355.485 44.2921 355.582 43.8945 355.775 43.5897C355.969 43.2812 356.227 43.0396 356.55 42.865C356.874 42.6903 357.23 42.5602 357.621 42.4747C358.015 42.3855 358.41 42.3149 358.808 42.2629C359.328 42.196 359.75 42.1458 360.074 42.1124C360.401 42.0752 360.638 42.0139 360.787 41.9284C360.94 41.8429 361.016 41.6942 361.016 41.4824V41.4378C361.016 40.8877 360.865 40.4603 360.564 40.1556C360.267 39.8508 359.815 39.6984 359.209 39.6984C358.581 39.6984 358.089 39.8359 357.732 40.111C357.375 40.386 357.124 40.6796 356.979 40.9918L355.731 40.5458C355.954 40.0255 356.251 39.6204 356.623 39.3305C356.998 39.0369 357.407 38.8325 357.849 38.7172C358.295 38.5983 358.734 38.5389 359.165 38.5389C359.44 38.5389 359.756 38.5723 360.113 38.6392C360.473 38.7024 360.821 38.8343 361.155 39.035C361.493 39.2357 361.774 39.5386 361.997 39.9437C362.22 40.3488 362.331 40.8915 362.331 41.5716V47.2134H361.016V46.0538H360.949C360.86 46.2396 360.711 46.4385 360.503 46.6503C360.295 46.8622 360.018 47.0424 359.672 47.1911C359.326 47.3397 358.905 47.4141 358.407 47.4141ZM358.607 46.2322C359.128 46.2322 359.566 46.13 359.923 45.9256C360.284 45.7212 360.555 45.4573 360.737 45.1339C360.923 44.8106 361.016 44.4705 361.016 44.1137V42.9096C360.96 42.9765 360.837 43.0378 360.648 43.0935C360.462 43.1456 360.246 43.192 360.001 43.2329C359.759 43.2701 359.523 43.3035 359.293 43.3333C359.066 43.3593 358.882 43.3816 358.741 43.4002C358.399 43.4448 358.08 43.5172 357.782 43.6176C357.489 43.7142 357.251 43.861 357.069 44.058C356.89 44.2513 356.801 44.5151 356.801 44.8496C356.801 45.3068 356.97 45.6524 357.308 45.8866C357.65 46.117 358.083 46.2322 358.607 46.2322ZM371.999 47.3918C371.226 47.3918 370.548 47.2078 369.964 46.8399C369.384 46.4719 368.931 45.9572 368.604 45.2956C368.28 44.6341 368.119 43.861 368.119 42.9765C368.119 42.0845 368.28 41.3059 368.604 40.6406C368.931 39.9753 369.384 39.4587 369.964 39.0908C370.548 38.7228 371.226 38.5389 371.999 38.5389C372.772 38.5389 373.448 38.7228 374.028 39.0908C374.612 39.4587 375.065 39.9753 375.388 40.6406C375.715 41.3059 375.879 42.0845 375.879 42.9765C375.879 43.861 375.715 44.6341 375.388 45.2956C375.065 45.9572 374.612 46.4719 374.028 46.8399C373.448 47.2078 372.772 47.3918 371.999 47.3918ZM371.999 46.2099C372.586 46.2099 373.069 46.0594 373.448 45.7583C373.827 45.4573 374.108 45.0615 374.29 44.5709C374.472 44.0803 374.563 43.5488 374.563 42.9765C374.563 42.4041 374.472 41.8708 374.29 41.3765C374.108 40.8822 373.827 40.4826 373.448 40.1779C373.069 39.8731 372.586 39.7207 371.999 39.7207C371.412 39.7207 370.928 39.8731 370.549 40.1779C370.17 40.4826 369.89 40.8822 369.708 41.3765C369.525 41.8708 369.434 42.4041 369.434 42.9765C369.434 43.5488 369.525 44.0803 369.708 44.5709C369.89 45.0615 370.17 45.4573 370.549 45.7583C370.928 46.0594 371.412 46.2099 371.999 46.2099ZM383.929 35.4392L384.598 36.242C384.338 36.4947 384.037 36.6713 383.695 36.7716C383.353 36.872 382.966 36.9333 382.535 36.9556C382.104 36.9779 381.624 37.0002 381.097 37.0225C380.502 37.0448 380.01 37.1897 379.619 37.4573C379.229 37.7249 378.928 38.1114 378.716 38.6169C378.504 39.1224 378.369 39.743 378.309 40.4789H378.421C378.711 39.9437 379.112 39.5498 379.625 39.297C380.138 39.0443 380.688 38.9179 381.275 38.9179C381.944 38.9179 382.546 39.074 383.081 39.3862C383.617 39.6984 384.04 40.1611 384.352 40.7744C384.665 41.3876 384.821 42.1439 384.821 43.0434C384.821 43.9391 384.661 44.7121 384.341 45.3625C384.025 46.0129 383.581 46.5147 383.009 46.8677C382.44 47.2171 381.773 47.3918 381.007 47.3918C380.242 47.3918 379.571 47.2115 378.995 46.851C378.419 46.4868 377.971 45.9479 377.651 45.2343C377.332 44.517 377.172 43.6306 377.172 42.5751V41.6608C377.172 39.7542 377.495 38.3084 378.142 37.3235C378.792 36.3386 379.77 35.8295 381.074 35.796C381.535 35.7811 381.946 35.7774 382.306 35.7849C382.667 35.7923 382.981 35.7756 383.249 35.7347C383.516 35.6938 383.743 35.5953 383.929 35.4392ZM381.007 46.2099C381.524 46.2099 381.968 46.0798 382.34 45.8197C382.715 45.5595 383.003 45.1934 383.204 44.7214C383.405 44.2457 383.505 43.6863 383.505 43.0434C383.505 42.419 383.403 41.8875 383.198 41.4489C382.998 41.0104 382.71 40.6759 382.334 40.4455C381.959 40.215 381.509 40.0998 380.985 40.0998C380.602 40.0998 380.259 40.1649 379.954 40.2949C379.649 40.425 379.389 40.6164 379.173 40.8692C378.958 41.1219 378.791 41.4304 378.672 41.7946C378.556 42.1588 378.495 42.5751 378.488 43.0434C378.488 44.0022 378.712 44.7697 379.162 45.3458C379.612 45.9219 380.227 46.2099 381.007 46.2099ZM387.566 38.6503V39.8768H385.18V38.6503H387.566ZM388.703 41.75H391.156C392.16 41.75 392.927 42.0046 393.459 42.5137C393.99 43.0229 394.256 43.6677 394.256 44.4482C394.256 44.9611 394.137 45.4276 393.899 45.8475C393.661 46.2638 393.312 46.5964 392.851 46.8454C392.39 47.0907 391.825 47.2134 391.156 47.2134H387.566V38.6503H388.882V45.9869H391.156C391.676 45.9869 392.104 45.8494 392.438 45.5744C392.773 45.2993 392.94 44.9463 392.94 44.5151C392.94 44.0617 392.773 43.6919 392.438 43.4057C392.104 43.1196 391.676 42.9765 391.156 42.9765H388.703V41.75ZM399.546 47.3918C398.721 47.3918 398.009 47.2097 397.411 46.8454C396.816 46.4775 396.357 45.9646 396.034 45.3068C395.714 44.6452 395.554 43.8759 395.554 42.9988C395.554 42.1216 395.714 41.3486 396.034 40.6796C396.357 40.0069 396.807 39.4829 397.383 39.1075C397.963 38.7284 398.639 38.5389 399.412 38.5389C399.858 38.5389 400.299 38.6132 400.733 38.7618C401.168 38.9105 401.564 39.1521 401.921 39.4866C402.278 39.8174 402.562 40.2559 402.774 40.8023C402.986 41.3486 403.092 42.0213 403.092 42.8204V43.3779H396.491V42.2406H401.754C401.754 41.7574 401.657 41.3263 401.464 40.9472C401.274 40.5681 401.003 40.2689 400.65 40.0496C400.3 39.8304 399.888 39.7207 399.412 39.7207C398.888 39.7207 398.435 39.8508 398.052 40.111C397.673 40.3674 397.381 40.7019 397.177 41.1145C396.972 41.527 396.87 41.9693 396.87 42.4413V43.1995C396.87 43.8461 396.982 44.3943 397.205 44.8441C397.431 45.29 397.745 45.6301 398.147 45.8643C398.548 46.0947 399.015 46.2099 399.546 46.2099C399.892 46.2099 400.204 46.1616 400.483 46.065C400.765 45.9646 401.008 45.8159 401.213 45.619C401.417 45.4183 401.575 45.1693 401.687 44.8719L402.958 45.2287C402.824 45.6598 402.599 46.0389 402.283 46.366C401.967 46.6893 401.577 46.9421 401.113 47.1242C400.648 47.3026 400.126 47.3918 399.546 47.3918ZM404.779 47.2134V38.6503H406.095V42.3744H406.964L410.042 38.6503H411.736L408.28 42.7758L411.781 47.2134H410.086L407.277 43.6009H406.095V47.2134H404.779ZM412.406 39.8768V38.6503H419.364V39.8768H416.554V47.2134H415.239V39.8768H412.406ZM424.115 47.3918C423.29 47.3918 422.578 47.2097 421.98 46.8454C421.385 46.4775 420.926 45.9646 420.603 45.3068C420.283 44.6452 420.123 43.8759 420.123 42.9988C420.123 42.1216 420.283 41.3486 420.603 40.6796C420.926 40.0069 421.376 39.4829 421.952 39.1075C422.531 38.7284 423.208 38.5389 423.981 38.5389C424.427 38.5389 424.867 38.6132 425.302 38.7618C425.737 38.9105 426.133 39.1521 426.49 39.4866C426.846 39.8174 427.131 40.2559 427.343 40.8023C427.554 41.3486 427.66 42.0213 427.66 42.8204V43.3779H421.06V42.2406H426.322C426.322 41.7574 426.226 41.3263 426.033 40.9472C425.843 40.5681 425.572 40.2689 425.219 40.0496C424.869 39.8304 424.457 39.7207 423.981 39.7207C423.457 39.7207 423.003 39.8508 422.621 40.111C422.242 40.3674 421.95 40.7019 421.745 41.1145C421.541 41.527 421.439 41.9693 421.439 42.4413V43.1995C421.439 43.8461 421.55 44.3943 421.773 44.8441C422 45.29 422.314 45.6301 422.715 45.8643C423.117 46.0947 423.583 46.2099 424.115 46.2099C424.46 46.2099 424.773 46.1616 425.051 46.065C425.334 45.9646 425.577 45.8159 425.782 45.619C425.986 45.4183 426.144 45.1693 426.256 44.8719L427.527 45.2287C427.393 45.6598 427.168 46.0389 426.852 46.366C426.536 46.6893 426.146 46.9421 425.681 47.1242C425.217 47.3026 424.695 47.3918 424.115 47.3918ZM431.31 45.6524L431.221 46.2545C431.158 46.6782 431.061 47.1316 430.931 47.6148C430.805 48.0979 430.673 48.5532 430.535 48.9806C430.398 49.408 430.284 49.7481 430.195 50.0008H429.192C429.24 49.763 429.303 49.4489 429.381 49.0587C429.459 48.6684 429.537 48.2317 429.615 47.7486C429.697 47.2691 429.764 46.7785 429.816 46.2768L429.883 45.6524H431.31ZM437.535 47.2134V38.6503H441.036C441.958 38.6503 442.69 38.8585 443.233 39.2747C443.775 39.691 444.047 40.2411 444.047 40.9249C444.047 41.4452 443.892 41.8485 443.584 42.1347C443.275 42.4171 442.88 42.6085 442.396 42.7089C442.712 42.7535 443.019 42.865 443.316 43.0434C443.617 43.2218 443.866 43.4671 444.063 43.7792C444.26 44.0877 444.359 44.4668 444.359 44.9165C444.359 45.3551 444.247 45.7472 444.024 46.0928C443.801 46.4385 443.482 46.7116 443.065 46.9123C442.649 47.113 442.151 47.2134 441.571 47.2134H437.535ZM438.784 46.0092H441.571C442.025 46.0092 442.38 45.9014 442.636 45.6859C442.893 45.4703 443.021 45.1767 443.021 44.805C443.021 44.3628 442.893 44.0153 442.636 43.7625C442.38 43.5061 442.025 43.3779 441.571 43.3779H438.784V46.0092ZM438.784 42.2406H441.036C441.389 42.2406 441.692 42.1923 441.945 42.0956C442.198 41.9953 442.391 41.8541 442.525 41.6719C442.662 41.4861 442.731 41.2668 442.731 41.0141C442.731 40.6536 442.58 40.3711 442.279 40.1667C441.978 39.9586 441.564 39.8545 441.036 39.8545H438.784V42.2406ZM447.352 45.2733L451.478 38.6503H452.994V47.2134H451.678V40.5904L447.575 47.2134H446.036V38.6503H447.352V45.2733ZM458.568 47.3918C457.766 47.3918 457.074 47.2022 456.495 46.8231C455.915 46.444 455.469 45.9219 455.157 45.2566C454.844 44.5913 454.688 43.8313 454.688 42.9765C454.688 42.1068 454.848 41.3393 455.168 40.674C455.491 40.005 455.941 39.4829 456.517 39.1075C457.097 38.7284 457.773 38.5389 458.546 38.5389C459.148 38.5389 459.691 38.6504 460.174 38.8733C460.657 39.0963 461.053 39.4085 461.361 39.8099C461.67 40.2113 461.861 40.6796 461.936 41.2148H460.62C460.52 40.8246 460.297 40.4789 459.951 40.1779C459.609 39.8731 459.148 39.7207 458.568 39.7207C458.056 39.7207 457.606 39.8545 457.219 40.1221C456.836 40.386 456.537 40.7595 456.322 41.2427C456.11 41.7221 456.004 42.2852 456.004 42.9319C456.004 43.5934 456.108 44.1695 456.316 44.6601C456.528 45.1507 456.825 45.5316 457.208 45.8029C457.595 46.0742 458.048 46.2099 458.568 46.2099C458.91 46.2099 459.221 46.1504 459.499 46.0315C459.778 45.9126 460.014 45.7416 460.207 45.5186C460.401 45.2956 460.538 45.028 460.62 44.7158H461.936C461.861 45.2213 461.677 45.6766 461.384 46.0817C461.094 46.4831 460.709 46.8027 460.23 47.0406C459.754 47.2747 459.2 47.3918 458.568 47.3918ZM464.861 45.2733L468.986 38.6503H470.502V47.2134H469.187V40.5904L465.084 47.2134H463.545V38.6503H464.861V45.2733ZM471.433 39.8768V38.6503H478.391V39.8768H475.581V47.2134H474.265V39.8768H471.433ZM67.3634 69.2134V60.6503H74.0978V69.2134H72.7821V61.8768H68.679V69.2134H67.3634ZM76.1866 72.4245V60.6503H77.4577V62.0106H77.6138C77.7104 61.862 77.8442 61.6724 78.0152 61.442C78.1899 61.2078 78.4389 60.9997 78.7622 60.8176C79.0893 60.6318 79.5316 60.5389 80.089 60.5389C80.8101 60.5389 81.4456 60.7191 81.9957 61.0796C82.5457 61.4401 82.975 61.9512 83.2835 62.6127C83.5919 63.2743 83.7462 64.0547 83.7462 64.9542C83.7462 65.861 83.5919 66.6471 83.2835 67.3123C82.975 67.9739 82.5476 68.4868 82.0012 68.851C81.4549 69.2115 80.8249 69.3918 80.1113 69.3918C79.5613 69.3918 79.1209 69.3007 78.7901 69.1186C78.4593 68.9328 78.2047 68.7228 78.0263 68.4886C77.8479 68.2508 77.7104 68.0538 77.6138 67.8977H77.5023V72.4245H76.1866ZM77.48 64.9319C77.48 65.5786 77.5748 66.149 77.7643 66.6434C77.9539 67.1339 78.2307 67.5186 78.595 67.7974C78.9592 68.0724 79.4052 68.2099 79.9329 68.2099C80.483 68.2099 80.942 68.065 81.3099 67.7751C81.6816 67.4814 81.9603 67.0875 82.1462 66.5932C82.3357 66.0952 82.4305 65.5414 82.4305 64.9319C82.4305 64.3298 82.3376 63.7872 82.1518 63.304C81.9696 62.8171 81.6928 62.4325 81.3211 62.15C80.9532 61.8638 80.4904 61.7207 79.9329 61.7207C79.3978 61.7207 78.948 61.8564 78.5838 62.1277C78.2196 62.3953 77.9446 62.7707 77.7587 63.2538C77.5729 63.7333 77.48 64.2926 77.48 64.9319ZM88.9179 69.3918C88.1448 69.3918 87.4666 69.2078 86.883 68.8399C86.3033 68.4719 85.8498 67.9572 85.5228 67.2956C85.1994 66.6341 85.0378 65.861 85.0378 64.9765C85.0378 64.0845 85.1994 63.3059 85.5228 62.6406C85.8498 61.9753 86.3033 61.4587 86.883 61.0908C87.4666 60.7228 88.1448 60.5389 88.9179 60.5389C89.6909 60.5389 90.3674 60.7228 90.9471 61.0908C91.5306 61.4587 91.9841 61.9753 92.3074 62.6406C92.6345 63.3059 92.798 64.0845 92.798 64.9765C92.798 65.861 92.6345 66.6341 92.3074 67.2956C91.9841 67.9572 91.5306 68.4719 90.9471 68.8399C90.3674 69.2078 89.6909 69.3918 88.9179 69.3918ZM88.9179 68.2099C89.5051 68.2099 89.9883 68.0594 90.3674 67.7583C90.7464 67.4573 91.027 67.0615 91.2092 66.5709C91.3913 66.0803 91.4823 65.5488 91.4823 64.9765C91.4823 64.4041 91.3913 63.8708 91.2092 63.3765C91.027 62.8822 90.7464 62.4826 90.3674 62.1779C89.9883 61.8731 89.5051 61.7207 88.9179 61.7207C88.3307 61.7207 87.8475 61.8731 87.4684 62.1779C87.0893 62.4826 86.8087 62.8822 86.6266 63.3765C86.4445 63.8708 86.3534 64.4041 86.3534 64.9765C86.3534 65.5488 86.4445 66.0803 86.6266 66.5709C86.8087 67.0615 87.0893 67.4573 87.4684 67.7583C87.8475 68.0594 88.3307 68.2099 88.9179 68.2099ZM97.9711 69.3918C97.1683 69.3918 96.477 69.2022 95.8973 68.8231C95.3175 68.444 94.8715 67.9219 94.5593 67.2566C94.2471 66.5913 94.091 65.8313 94.091 64.9765C94.091 64.1068 94.2508 63.3393 94.5704 62.674C94.8938 62.005 95.3435 61.4829 95.9196 61.1075C96.4993 60.7284 97.1758 60.5389 97.9488 60.5389C98.5509 60.5389 99.0935 60.6504 99.5767 60.8733C100.06 61.0963 100.456 61.4085 100.764 61.8099C101.073 62.2113 101.264 62.6796 101.338 63.2148H100.023C99.9223 62.8246 99.6993 62.4789 99.3537 62.1779C99.0118 61.8731 98.5509 61.7207 97.9711 61.7207C97.4582 61.7207 97.0085 61.8545 96.622 62.1221C96.2392 62.386 95.94 62.7595 95.7244 63.2427C95.5126 63.7221 95.4067 64.2852 95.4067 64.9319C95.4067 65.5934 95.5107 66.1695 95.7189 66.6601C95.9307 67.1507 96.228 67.5316 96.6108 67.8029C96.9974 68.0742 97.4508 68.2099 97.9711 68.2099C98.313 68.2099 98.6234 68.1504 98.9021 68.0315C99.1809 67.9126 99.4169 67.7416 99.6101 67.5186C99.8034 67.2956 99.9409 67.028 100.023 66.7158H101.338C101.264 67.2213 101.08 67.6766 100.786 68.0817C100.497 68.4831 100.112 68.8027 99.6324 69.0406C99.1567 69.2747 98.6029 69.3918 97.9711 69.3918ZM102.273 61.8768V60.6503H109.231V61.8768H106.421V69.2134H105.105V61.8768H102.273ZM113.87 69.3918C113.097 69.3918 112.419 69.2078 111.835 68.8399C111.255 68.4719 110.802 67.9572 110.475 67.2956C110.151 66.6341 109.99 65.861 109.99 64.9765C109.99 64.0845 110.151 63.3059 110.475 62.6406C110.802 61.9753 111.255 61.4587 111.835 61.0908C112.419 60.7228 113.097 60.5389 113.87 60.5389C114.643 60.5389 115.319 60.7228 115.899 61.0908C116.483 61.4587 116.936 61.9753 117.259 62.6406C117.587 63.3059 117.75 64.0845 117.75 64.9765C117.75 65.861 117.587 66.6341 117.259 67.2956C116.936 67.9572 116.483 68.4719 115.899 68.8399C115.319 69.2078 114.643 69.3918 113.87 69.3918ZM113.87 68.2099C114.457 68.2099 114.94 68.0594 115.319 67.7583C115.698 67.4573 115.979 67.0615 116.161 66.5709C116.343 66.0803 116.434 65.5488 116.434 64.9765C116.434 64.4041 116.343 63.8708 116.161 63.3765C115.979 62.8822 115.698 62.4826 115.319 62.1779C114.94 61.8731 114.457 61.7207 113.87 61.7207C113.283 61.7207 112.8 61.8731 112.42 62.1779C112.041 62.4826 111.761 62.8822 111.579 63.3765C111.397 63.8708 111.305 64.4041 111.305 64.9765C111.305 65.5488 111.397 66.0803 111.579 66.5709C111.761 67.0615 112.041 67.4573 112.42 67.7583C112.8 68.0594 113.283 68.2099 113.87 68.2099Z" fill="#F5F5F5" style="fill:#F5F5F5;fill:color(display-p3 0.9625 0.9625 0.9625);fill-opacity:1;"/>
<path d="M510.685 64.0973V75.5146H509.302V65.5467H509.236L506.448 67.3976V65.9927L509.302 64.0973H510.685ZM517.041 64.0973V75.5146H515.658V65.5467H515.591L512.804 67.3976V65.9927L515.658 64.0973H517.041ZM520.364 74.054C520.088 74.054 519.852 73.9555 519.655 73.7586C519.459 73.5616 519.36 73.3256 519.36 73.0505C519.36 72.7755 519.459 72.5395 519.655 72.3425C519.852 72.1456 520.088 72.0471 520.364 72.0471C520.639 72.0471 520.875 72.1456 521.072 72.3425C521.268 72.5395 521.367 72.7755 521.367 73.0505C521.367 73.2327 521.321 73.3999 521.228 73.5523C521.138 73.7047 521.018 73.8273 520.865 73.9202C520.717 74.0094 520.549 74.054 520.364 74.054ZM520.364 68.2784C520.088 68.2784 519.852 68.18 519.655 67.983C519.459 67.786 519.36 67.55 519.36 67.275C519.36 66.9999 519.459 66.7639 519.655 66.567C519.852 66.37 520.088 66.2715 520.364 66.2715C520.639 66.2715 520.875 66.37 521.072 66.567C521.268 66.7639 521.367 66.9999 521.367 67.275C521.367 67.4571 521.321 67.6243 521.228 67.7767C521.138 67.9291 521.018 68.0517 520.865 68.1446C520.717 68.2338 520.549 68.2784 520.364 68.2784ZM526.622 75.6707C525.886 75.6707 525.23 75.5444 524.654 75.2917C524.081 75.0389 523.626 74.6877 523.288 74.238C522.953 73.7846 522.771 73.2587 522.741 72.6603H524.146C524.176 73.0282 524.302 73.346 524.525 73.6136C524.748 73.8775 525.04 74.0819 525.401 74.2268C525.761 74.3718 526.161 74.4443 526.599 74.4443C527.09 74.4443 527.525 74.3588 527.904 74.1878C528.283 74.0169 528.58 73.779 528.796 73.4742C529.011 73.1695 529.119 72.8164 529.119 72.415C529.119 71.995 529.015 71.6252 528.807 71.3056C528.599 70.9823 528.294 70.7295 527.893 70.5474C527.491 70.3653 527.001 70.2743 526.421 70.2743H525.507V69.0478H526.421C526.874 69.0478 527.272 68.966 527.614 68.8025C527.96 68.639 528.229 68.4085 528.422 68.1112C528.619 67.8139 528.718 67.4645 528.718 67.0631C528.718 66.6766 528.632 66.3402 528.461 66.0541C528.29 65.7679 528.049 65.5449 527.737 65.3851C527.428 65.2253 527.064 65.1454 526.644 65.1454C526.25 65.1454 525.878 65.2178 525.529 65.3628C525.183 65.504 524.901 65.7103 524.681 65.9816C524.462 66.2492 524.343 66.5725 524.325 66.9516H522.987C523.009 66.3532 523.189 65.8292 523.527 65.3795C523.866 64.9261 524.308 64.573 524.854 64.3203C525.404 64.0675 526.008 63.9412 526.666 63.9412C527.372 63.9412 527.978 64.0843 528.484 64.3704C528.989 64.6529 529.377 65.0264 529.649 65.491C529.92 65.9556 530.056 66.4573 530.056 66.9962C530.056 67.6392 529.887 68.1874 529.548 68.6408C529.214 69.0942 528.759 69.4083 528.183 69.583V69.6722C528.904 69.7911 529.467 70.0977 529.872 70.592C530.277 71.0826 530.479 71.6903 530.479 72.415C530.479 73.0357 530.31 73.5932 529.972 74.0875C529.638 74.5781 529.18 74.9646 528.601 75.2471C528.021 75.5295 527.361 75.6707 526.622 75.6707ZM531.818 75.5146V74.5112L535.586 70.3858C536.028 69.9026 536.393 69.4826 536.679 69.1258C536.965 68.7653 537.177 68.4271 537.314 68.1112C537.456 67.7916 537.526 67.4571 537.526 67.1077C537.526 66.7063 537.43 66.3588 537.236 66.0652C537.047 65.7716 536.787 65.5449 536.456 65.3851C536.125 65.2253 535.753 65.1454 535.341 65.1454C534.902 65.1454 534.52 65.2364 534.192 65.4185C533.869 65.5969 533.618 65.8478 533.44 66.1711C533.265 66.4945 533.178 66.8736 533.178 67.3084H531.862C531.862 66.6394 532.016 66.0522 532.325 65.5467C532.633 65.0413 533.053 64.6473 533.585 64.3649C534.12 64.0824 534.72 63.9412 535.385 63.9412C536.054 63.9412 536.647 64.0824 537.164 64.3649C537.68 64.6473 538.086 65.0283 538.379 65.5077C538.673 65.9872 538.82 66.5205 538.82 67.1077C538.82 67.5277 538.743 67.9384 538.591 68.3398C538.442 68.7374 538.182 69.1816 537.811 69.6722C537.443 70.159 536.932 70.7537 536.277 71.4561L533.713 74.199V74.2882H539.02V75.5146H531.818Z" fill="#707E8D" style="fill:#707E8D;fill:color(display-p3 0.4392 0.4941 0.5529);fill-opacity:1;"/>
<defs>
<linearGradient id="paint0_linear_1255_47013" x1="20.1843" y1="45.0583" x2="20.1843" y2="85.4269" gradientUnits="userSpaceOnUse">
<stop stop-color="#AC92EF" style="stop-color:#AC92EF;stop-color:color(display-p3 0.6745 0.5725 0.9373);stop-opacity:1;"/>
<stop offset="1" stop-color="#6860D4" style="stop-color:#6860D4;stop-color:color(display-p3 0.4078 0.3765 0.8314);stop-opacity:1;"/>
</linearGradient>
</defs>
</svg>
