<svg width="552" height="86" viewBox="0 0 552 86" fill="none" xmlns="http://www.w3.org/2000/svg">
<rect y="45.0583" width="40.3686" height="40.3686" rx="20.1843" fill="url(#paint0_linear_1255_47014)" style=""/>
<path d="M13.7695 59.5098H16.4813L20.1129 68.3739H20.2562L23.8879 59.5098H26.5997V71.7427H24.4733V63.3385H24.3598L20.979 71.7068H19.3901L16.0094 63.3206H15.8959V71.7427H13.7695V59.5098Z" fill="white" style="fill:white;fill-opacity:1;"/>
<path d="M52.7035 85.4269V71.9707C52.7035 78.176 48.5032 83.4003 42.7906 84.9555C42.6855 84.9841 42.6113 85.0791 42.6113 85.1881C42.6113 85.32 42.7182 85.4269 42.8501 85.4269H52.7035Z" fill="#1B2532" style="fill:#1B2532;fill:color(display-p3 0.1059 0.1451 0.1961);fill-opacity:1;"/>
<path d="M52.7031 32.2948C52.7031 20.9906 52.7031 15.3385 54.9031 11.0208C56.8382 7.22289 59.926 4.13509 63.7239 2.19996C68.0416 0 73.6937 0 84.998 0H519.705C531.009 0 536.661 0 540.979 2.19996C544.777 4.13509 547.865 7.22289 549.8 11.0208C552 15.3385 552 20.9906 552 32.2948V53.1321C552 64.4364 552 70.0885 549.8 74.4062C547.865 78.2041 544.777 81.2919 540.979 83.227C536.661 85.427 531.009 85.427 519.705 85.427H52.7031V32.2948Z" fill="#1B2532" style="fill:#1B2532;fill:color(display-p3 0.1059 0.1451 0.1961);fill-opacity:1;"/>
<path d="M67.2853 14.796H69.8163L73.2058 23.0691H73.3396L76.7292 14.796H79.2602V26.2134H77.2755V18.3695H77.1696L74.0142 26.1799H72.5313L69.3759 18.3528H69.27V26.2134H67.2853V14.796ZM83.2119 23.4817L86.6404 17.6503H88.7143V26.2134H86.7631V20.3765L83.3457 26.2134H81.2662V17.6503H83.2119V23.4817ZM90.6298 29.4245V17.6503H92.6144V19.0664H92.7315C92.8356 18.8582 92.9824 18.6371 93.1719 18.403C93.3615 18.1651 93.6179 17.9625 93.9412 17.7953C94.2646 17.6243 94.6771 17.5389 95.1789 17.5389C95.8404 17.5389 96.4369 17.708 96.9684 18.0462C97.5036 18.3807 97.9273 18.8768 98.2395 19.5347C98.5554 20.1888 98.7134 20.9916 98.7134 21.943C98.7134 22.8833 98.5591 23.6824 98.2506 24.3402C97.9422 24.9981 97.5222 25.4998 96.9907 25.8454C96.4592 26.1911 95.8571 26.3639 95.1844 26.3639C94.6939 26.3639 94.2869 26.2821 93.9635 26.1186C93.6402 25.9551 93.38 25.7581 93.1831 25.5277C92.9898 25.2935 92.8393 25.0724 92.7315 24.8643H92.6479V29.4245H90.6298ZM92.6088 21.9319C92.6088 22.4856 92.6869 22.9707 92.843 23.3869C93.0028 23.8032 93.2314 24.1284 93.5287 24.3625C93.8297 24.5929 94.194 24.7082 94.6214 24.7082C95.0674 24.7082 95.4409 24.5892 95.7419 24.3514C96.043 24.1098 96.2697 23.7809 96.4221 23.3646C96.5782 22.9446 96.6562 22.4671 96.6562 21.9319C96.6562 21.4004 96.58 20.9284 96.4276 20.5158C96.2753 20.1033 96.0486 19.78 95.7475 19.5458C95.4465 19.3117 95.0711 19.1946 94.6214 19.1946C94.1903 19.1946 93.8242 19.308 93.5231 19.5347C93.2221 19.7614 92.9935 20.0791 92.8374 20.488C92.685 20.8968 92.6088 21.3781 92.6088 21.9319ZM104.02 26.3806C103.184 26.3806 102.459 26.1967 101.846 25.8287C101.232 25.4608 100.757 24.946 100.418 24.2845C100.084 23.6229 99.9166 22.8499 99.9166 21.9653C99.9166 21.0808 100.084 20.3059 100.418 19.6406C100.757 18.9753 101.232 18.4587 101.846 18.0908C102.459 17.7228 103.184 17.5389 104.02 17.5389C104.856 17.5389 105.581 17.7228 106.194 18.0908C106.807 18.4587 107.281 18.9753 107.616 19.6406C107.954 20.3059 108.123 21.0808 108.123 21.9653C108.123 22.8499 107.954 23.6229 107.616 24.2845C107.281 24.946 106.807 25.4608 106.194 25.8287C105.581 26.1967 104.856 26.3806 104.02 26.3806ZM104.031 24.7639C104.484 24.7639 104.863 24.6394 105.168 24.3904C105.473 24.1377 105.7 23.7995 105.848 23.3758C106.001 22.9521 106.077 22.4801 106.077 21.9597C106.077 21.4357 106.001 20.9618 105.848 20.5381C105.7 20.1107 105.473 19.7707 105.168 19.5179C104.863 19.2652 104.484 19.1388 104.031 19.1388C103.566 19.1388 103.18 19.2652 102.871 19.5179C102.567 19.7707 102.338 20.1107 102.186 20.5381C102.037 20.9618 101.963 21.4357 101.963 21.9597C101.963 22.4801 102.037 22.9521 102.186 23.3758C102.338 23.7995 102.567 24.1377 102.871 24.3904C103.18 24.6394 103.566 24.7639 104.031 24.7639ZM115.56 21.0956V22.7514H111V21.0956H115.56ZM111.624 17.6503V26.2134H109.679V17.6503H111.624ZM116.882 17.6503V26.2134H114.941V17.6503H116.882ZM122.502 26.3806C121.665 26.3806 120.941 26.1967 120.327 25.8287C119.714 25.4608 119.238 24.946 118.9 24.2845C118.566 23.6229 118.398 22.8499 118.398 21.9653C118.398 21.0808 118.566 20.3059 118.9 19.6406C119.238 18.9753 119.714 18.4587 120.327 18.0908C120.941 17.7228 121.665 17.5389 122.502 17.5389C123.338 17.5389 124.062 17.7228 124.676 18.0908C125.289 18.4587 125.763 18.9753 126.097 19.6406C126.436 20.3059 126.605 21.0808 126.605 21.9653C126.605 22.8499 126.436 23.6229 126.097 24.2845C125.763 24.946 125.289 25.4608 124.676 25.8287C124.062 26.1967 123.338 26.3806 122.502 26.3806ZM122.513 24.7639C122.966 24.7639 123.345 24.6394 123.65 24.3904C123.955 24.1377 124.181 23.7995 124.33 23.3758C124.482 22.9521 124.559 22.4801 124.559 21.9597C124.559 21.4357 124.482 20.9618 124.33 20.5381C124.181 20.1107 123.955 19.7707 123.65 19.5179C123.345 19.2652 122.966 19.1388 122.513 19.1388C122.048 19.1388 121.662 19.2652 121.353 19.5179C121.048 19.7707 120.82 20.1107 120.667 20.5381C120.519 20.9618 120.444 21.4357 120.444 21.9597C120.444 22.4801 120.519 22.9521 120.667 23.3758C120.82 23.7995 121.048 24.1377 121.353 24.3904C121.662 24.6394 122.048 24.7639 122.513 24.7639ZM128.161 26.2134V17.6503H131.756C132.771 17.6503 133.572 17.8529 134.159 18.258C134.75 18.6631 135.046 19.228 135.046 19.9528C135.046 20.4322 134.878 20.8243 134.544 21.1291C134.213 21.4301 133.761 21.6327 133.189 21.7367C133.639 21.7739 134.033 21.8873 134.371 22.0768C134.713 22.2664 134.98 22.5154 135.174 22.8238C135.367 23.1323 135.464 23.4873 135.464 23.8887C135.464 24.3607 135.339 24.7713 135.09 25.1207C134.845 25.4663 134.486 25.7358 134.014 25.9291C133.546 26.1186 132.977 26.2134 132.308 26.2134H128.161ZM130.05 24.6245H132.308C132.68 24.6245 132.972 24.5372 133.184 24.3625C133.395 24.1841 133.501 23.9425 133.501 23.6378C133.501 23.2847 133.395 23.0078 133.184 22.8071C132.972 22.6027 132.68 22.5005 132.308 22.5005H130.05V24.6245ZM130.05 21.196H131.795C132.07 21.196 132.306 21.157 132.503 21.0789C132.7 20.9971 132.851 20.8838 132.955 20.7388C133.059 20.5902 133.111 20.4136 133.111 20.2092C133.111 19.9156 132.99 19.6852 132.749 19.5179C132.511 19.3507 132.18 19.2671 131.756 19.2671H130.05V21.196ZM150.114 14.796V26.2134H148.062V16.5131H143.067V26.2134H141.016V14.796H150.114ZM153.585 26.336C153.247 26.336 152.957 26.2171 152.715 25.9792C152.474 25.7414 152.355 25.4515 152.358 25.1096C152.355 24.7751 152.474 24.4889 152.715 24.251C152.957 24.0132 153.247 23.8942 153.585 23.8942C153.912 23.8942 154.196 24.0132 154.438 24.251C154.683 24.4889 154.808 24.7751 154.811 25.1096C154.808 25.3363 154.748 25.5425 154.633 25.7284C154.521 25.9142 154.373 26.0629 154.187 26.1744C154.005 26.2821 153.804 26.336 153.585 26.336ZM166.6 18.6483H164.515C164.456 18.3063 164.346 18.0034 164.186 17.7395C164.026 17.472 163.827 17.2452 163.59 17.0594C163.352 16.8736 163.08 16.7342 162.776 16.6413C162.475 16.5447 162.149 16.4963 161.8 16.4963C161.179 16.4963 160.629 16.6524 160.15 16.9646C159.67 17.2731 159.295 17.7265 159.024 18.3249C158.752 18.9196 158.617 19.6462 158.617 20.5047C158.617 21.3781 158.752 22.114 159.024 22.7123C159.299 23.307 159.674 23.7567 160.15 24.0615C160.629 24.3625 161.177 24.513 161.794 24.513C162.136 24.513 162.456 24.4684 162.753 24.3792C163.054 24.2863 163.324 24.1507 163.562 23.9723C163.803 23.7939 164.006 23.5746 164.169 23.3144C164.337 23.0543 164.452 22.7569 164.515 22.4225L166.6 22.4336C166.522 22.9762 166.353 23.4854 166.093 23.9611C165.836 24.4368 165.5 24.8568 165.084 25.221C164.667 25.5816 164.18 25.864 163.623 26.0684C163.066 26.2691 162.447 26.3695 161.767 26.3695C160.763 26.3695 159.867 26.1372 159.079 25.6726C158.292 25.208 157.671 24.5372 157.217 23.6601C156.764 22.783 156.537 21.7312 156.537 20.5047C156.537 19.2745 156.766 18.2227 157.223 17.3493C157.68 16.4722 158.303 15.8013 159.091 15.3368C159.879 14.8722 160.771 14.6399 161.767 14.6399C162.402 14.6399 162.993 14.7291 163.539 14.9075C164.086 15.0859 164.573 15.3479 165 15.6936C165.427 16.0355 165.779 16.4555 166.054 16.9535C166.332 17.4478 166.515 18.0127 166.6 18.6483ZM169.491 26.336C169.153 26.336 168.863 26.2171 168.621 25.9792C168.38 25.7414 168.261 25.4515 168.265 25.1096C168.261 24.7751 168.38 24.4889 168.621 24.251C168.863 24.0132 169.153 23.8942 169.491 23.8942C169.818 23.8942 170.102 24.0132 170.344 24.251C170.589 24.4889 170.714 24.7751 170.718 25.1096C170.714 25.3363 170.654 25.5425 170.539 25.7284C170.428 25.9142 170.279 26.0629 170.093 26.1744C169.911 26.2821 169.71 26.336 169.491 26.336Z" fill="#70ACF3" style="fill:#70ACF3;fill:color(display-p3 0.4392 0.6745 0.9529);fill-opacity:1;"/>
<path d="M73.0943 42.3298V43.5563H68.3668V42.3298H73.0943ZM68.679 38.6503V47.2134H67.3634V38.6503H68.679ZM74.0978 38.6503V47.2134H72.7821V38.6503H74.0978ZM78.7065 47.4141C78.1638 47.4141 77.6714 47.3119 77.2291 47.1075C76.7869 46.8993 76.4356 46.6001 76.1755 46.2099C75.9153 45.8159 75.7852 45.3402 75.7852 44.7827C75.7852 44.2921 75.8819 43.8945 76.0751 43.5897C76.2684 43.2812 76.5267 43.0396 76.85 42.865C77.1734 42.6903 77.5302 42.5602 77.9204 42.4747C78.3144 42.3855 78.7102 42.3149 79.1079 42.2629C79.6282 42.196 80.05 42.1458 80.3734 42.1124C80.7004 42.0752 80.9383 42.0139 81.0869 41.9284C81.2393 41.8429 81.3155 41.6942 81.3155 41.4824V41.4378C81.3155 40.8877 81.165 40.4603 80.864 40.1556C80.5666 39.8508 80.1151 39.6984 79.5093 39.6984C78.8812 39.6984 78.3887 39.8359 78.0319 40.111C77.6751 40.386 77.4242 40.6796 77.2793 40.9918L76.0305 40.5458C76.2535 40.0255 76.5508 39.6204 76.9225 39.3305C77.2979 39.0369 77.7067 38.8325 78.149 38.7172C78.595 38.5983 79.0335 38.5389 79.4647 38.5389C79.7397 38.5389 80.0556 38.5723 80.4124 38.6392C80.7729 38.7024 81.1204 38.8343 81.4549 39.035C81.7931 39.2357 82.0737 39.5386 82.2967 39.9437C82.5197 40.3488 82.6312 40.8915 82.6312 41.5716V47.2134H81.3155V46.0538H81.2486C81.1594 46.2396 81.0108 46.4385 80.8026 46.6503C80.5945 46.8622 80.3176 47.0424 79.972 47.1911C79.6263 47.3397 79.2045 47.4141 78.7065 47.4141ZM78.9072 46.2322C79.4275 46.2322 79.866 46.13 80.2228 45.9256C80.5833 45.7212 80.8547 45.4573 81.0368 45.1339C81.2226 44.8106 81.3155 44.4705 81.3155 44.1137V42.9096C81.2598 42.9765 81.1371 43.0378 80.9476 43.0935C80.7617 43.1456 80.5462 43.192 80.3009 43.2329C80.0593 43.2701 79.8233 43.3035 79.5929 43.3333C79.3662 43.3593 79.1822 43.3816 79.041 43.4002C78.699 43.4448 78.3794 43.5172 78.0821 43.6176C77.7885 43.7142 77.5506 43.861 77.3685 44.058C77.1901 44.2513 77.1009 44.5151 77.1009 44.8496C77.1009 45.3068 77.27 45.6524 77.6082 45.8866C77.9501 46.117 78.3831 46.2322 78.9072 46.2322ZM88.8199 47.2134V38.6503H90.1356V42.3744H91.0053L94.0826 38.6503H95.7774L92.321 42.7758L95.822 47.2134H94.1272L91.3175 43.6009H90.1356V47.2134H88.8199ZM99.4578 47.4141C98.9152 47.4141 98.4227 47.3119 97.9805 47.1075C97.5382 46.8993 97.187 46.6001 96.9268 46.2099C96.6667 45.8159 96.5366 45.3402 96.5366 44.7827C96.5366 44.2921 96.6332 43.8945 96.8265 43.5897C97.0197 43.2812 97.278 43.0396 97.6014 42.865C97.9247 42.6903 98.2815 42.5602 98.6718 42.4747C99.0657 42.3855 99.4615 42.3149 99.8592 42.2629C100.38 42.196 100.801 42.1458 101.125 42.1124C101.452 42.0752 101.69 42.0139 101.838 41.9284C101.991 41.8429 102.067 41.6942 102.067 41.4824V41.4378C102.067 40.8877 101.916 40.4603 101.615 40.1556C101.318 39.8508 100.866 39.6984 100.261 39.6984C99.6325 39.6984 99.1401 39.8359 98.7833 40.111C98.4265 40.386 98.1756 40.6796 98.0306 40.9918L96.7819 40.5458C97.0049 40.0255 97.3022 39.6204 97.6739 39.3305C98.0492 39.0369 98.4581 38.8325 98.9003 38.7172C99.3463 38.5983 99.7849 38.5389 100.216 38.5389C100.491 38.5389 100.807 38.5723 101.164 38.6392C101.524 38.7024 101.872 38.8343 102.206 39.035C102.544 39.2357 102.825 39.5386 103.048 39.9437C103.271 40.3488 103.383 40.8915 103.383 41.5716V47.2134H102.067V46.0538H102C101.911 46.2396 101.762 46.4385 101.554 46.6503C101.346 46.8622 101.069 47.0424 100.723 47.1911C100.378 47.3397 99.9558 47.4141 99.4578 47.4141ZM99.6585 46.2322C100.179 46.2322 100.617 46.13 100.974 45.9256C101.335 45.7212 101.606 45.4573 101.788 45.1339C101.974 44.8106 102.067 44.4705 102.067 44.1137V42.9096C102.011 42.9765 101.888 43.0378 101.699 43.0935C101.513 43.1456 101.298 43.192 101.052 43.2329C100.811 43.2701 100.575 43.3035 100.344 43.3333C100.118 43.3593 99.9335 43.3816 99.7923 43.4002C99.4504 43.4448 99.1308 43.5172 98.8334 43.6176C98.5398 43.7142 98.302 43.861 98.1198 44.058C97.9415 44.2513 97.8523 44.5151 97.8523 44.8496C97.8523 45.3068 98.0214 45.6524 98.3596 45.8866C98.7015 46.117 99.1345 46.2322 99.6585 46.2322ZM105.47 50.4245V38.6503H106.741V40.0106H106.897C106.994 39.862 107.128 39.6724 107.299 39.442C107.473 39.2078 107.722 38.9997 108.046 38.8176C108.373 38.6318 108.815 38.5389 109.372 38.5389C110.093 38.5389 110.729 38.7191 111.279 39.0796C111.829 39.4401 112.258 39.9512 112.567 40.6127C112.875 41.2743 113.029 42.0547 113.029 42.9542C113.029 43.861 112.875 44.6471 112.567 45.3123C112.258 45.9739 111.831 46.4868 111.285 46.851C110.738 47.2115 110.108 47.3918 109.395 47.3918C108.845 47.3918 108.404 47.3007 108.073 47.1186C107.743 46.9328 107.488 46.7228 107.31 46.4886C107.131 46.2508 106.994 46.0538 106.897 45.8977H106.786V50.4245H105.47ZM106.763 42.9319C106.763 43.5786 106.858 44.149 107.048 44.6434C107.237 45.1339 107.514 45.5186 107.878 45.7974C108.243 46.0724 108.689 46.2099 109.216 46.2099C109.766 46.2099 110.225 46.065 110.593 45.7751C110.965 45.4814 111.244 45.0875 111.43 44.5932C111.619 44.0952 111.714 43.5414 111.714 42.9319C111.714 42.3298 111.621 41.7872 111.435 41.304C111.253 40.8171 110.976 40.4325 110.604 40.15C110.236 39.8638 109.774 39.7207 109.216 39.7207C108.681 39.7207 108.231 39.8564 107.867 40.1277C107.503 40.3953 107.228 40.7707 107.042 41.2538C106.856 41.7333 106.763 42.2926 106.763 42.9319ZM113.603 39.8768V38.6503H120.561V39.8768H117.751V47.2134H116.435V39.8768H113.603ZM125.312 47.3918C124.487 47.3918 123.775 47.2097 123.176 46.8454C122.582 46.4775 122.123 45.9646 121.799 45.3068C121.48 44.6452 121.32 43.8759 121.32 42.9988C121.32 42.1216 121.48 41.3486 121.799 40.6796C122.123 40.0069 122.572 39.4829 123.149 39.1075C123.728 38.7284 124.405 38.5389 125.178 38.5389C125.624 38.5389 126.064 38.6132 126.499 38.7618C126.934 38.9105 127.33 39.1521 127.686 39.4866C128.043 39.8174 128.328 40.2559 128.539 40.8023C128.751 41.3486 128.857 42.0213 128.857 42.8204V43.3779H122.257V42.2406H127.519C127.519 41.7574 127.423 41.3263 127.229 40.9472C127.04 40.5681 126.768 40.2689 126.415 40.0496C126.066 39.8304 125.654 39.7207 125.178 39.7207C124.654 39.7207 124.2 39.8508 123.818 40.111C123.438 40.3674 123.147 40.7019 122.942 41.1145C122.738 41.527 122.636 41.9693 122.636 42.4413V43.1995C122.636 43.8461 122.747 44.3943 122.97 44.8441C123.197 45.29 123.511 45.6301 123.912 45.8643C124.314 46.0947 124.78 46.2099 125.312 46.2099C125.657 46.2099 125.969 46.1616 126.248 46.065C126.531 45.9646 126.774 45.8159 126.978 45.619C127.183 45.4183 127.341 45.1693 127.452 44.8719L128.723 45.2287C128.59 45.6598 128.365 46.0389 128.049 46.366C127.733 46.6893 127.343 46.9421 126.878 47.1242C126.414 47.3026 125.891 47.3918 125.312 47.3918ZM138.125 47.3918C137.352 47.3918 136.673 47.2078 136.09 46.8399C135.51 46.4719 135.057 45.9572 134.73 45.2956C134.406 44.6341 134.245 43.861 134.245 42.9765C134.245 42.0845 134.406 41.3059 134.73 40.6406C135.057 39.9753 135.51 39.4587 136.09 39.0908C136.673 38.7228 137.352 38.5389 138.125 38.5389C138.898 38.5389 139.574 38.7228 140.154 39.0908C140.737 39.4587 141.191 39.9753 141.514 40.6406C141.841 41.3059 142.005 42.0845 142.005 42.9765C142.005 43.861 141.841 44.6341 141.514 45.2956C141.191 45.9572 140.737 46.4719 140.154 46.8399C139.574 47.2078 138.898 47.3918 138.125 47.3918ZM138.125 46.2099C138.712 46.2099 139.195 46.0594 139.574 45.7583C139.953 45.4573 140.234 45.0615 140.416 44.5709C140.598 44.0803 140.689 43.5488 140.689 42.9765C140.689 42.4041 140.598 41.8708 140.416 41.3765C140.234 40.8822 139.953 40.4826 139.574 40.1779C139.195 39.8731 138.712 39.7207 138.125 39.7207C137.537 39.7207 137.054 39.8731 136.675 40.1779C136.296 40.4826 136.016 40.8822 135.833 41.3765C135.651 41.8708 135.56 42.4041 135.56 42.9765C135.56 43.5488 135.651 44.0803 135.833 44.5709C136.016 45.0615 136.296 45.4573 136.675 45.7583C137.054 46.0594 137.537 46.2099 138.125 46.2099ZM143.699 47.2134V38.6503H150.434V47.2134H149.118V39.8768H145.015V47.2134H143.699ZM157.674 47.2134V39.8545H155.399C154.886 39.8545 154.483 39.9735 154.189 40.2113C153.896 40.4492 153.749 40.7762 153.749 41.1925C153.749 41.6013 153.881 41.9228 154.145 42.157C154.412 42.3911 154.778 42.5082 155.243 42.5082H158.008V43.7346H155.243C154.663 43.7346 154.163 43.6324 153.743 43.428C153.323 43.2236 153 42.9319 152.773 42.5528C152.547 42.17 152.433 41.7165 152.433 41.1925C152.433 40.6647 152.552 40.2113 152.79 39.8322C153.028 39.4531 153.368 39.1614 153.81 38.957C154.256 38.7526 154.786 38.6503 155.399 38.6503H158.922V47.2134H157.674ZM151.965 47.2134L154.396 42.9542H155.823L153.392 47.2134H151.965ZM159.859 39.8768V38.6503H166.816V39.8768H164.006V47.2134H162.691V39.8768H159.859ZM169.559 41.75H172.011C173.015 41.75 173.782 42.0046 174.314 42.5137C174.845 43.0229 175.111 43.6677 175.111 44.4482C175.111 44.9611 174.992 45.4276 174.754 45.8475C174.516 46.2638 174.167 46.5964 173.706 46.8454C173.245 47.0907 172.68 47.2134 172.011 47.2134H168.421V38.6503H169.737V45.9869H172.011C172.532 45.9869 172.959 45.8494 173.294 45.5744C173.628 45.2993 173.795 44.9463 173.795 44.5151C173.795 44.0617 173.628 43.6919 173.294 43.4057C172.959 43.1196 172.532 42.9765 172.011 42.9765H169.559V41.75ZM186.632 42.3298V43.5563H181.905V42.3298H186.632ZM182.217 38.6503V47.2134H180.901V38.6503H182.217ZM187.636 38.6503V47.2134H186.32V38.6503H187.636ZM191.04 45.2733L195.166 38.6503H196.682V47.2134H195.366V40.5904L191.263 47.2134H189.725V38.6503H191.04V45.2733ZM205.378 38.6503V47.2134H204.063V38.6503H205.378ZM204.866 42.7312V43.9576C204.568 44.0691 204.273 44.1676 203.979 44.2531C203.686 44.3349 203.377 44.3999 203.054 44.4482C202.73 44.4928 202.375 44.5151 201.989 44.5151C201.019 44.5151 200.24 44.2531 199.653 43.7291C199.07 43.205 198.778 42.419 198.778 41.3709V38.6281H200.093V41.3709C200.093 41.8095 200.177 42.17 200.344 42.4524C200.512 42.7349 200.738 42.9449 201.024 43.0824C201.311 43.2199 201.632 43.2887 201.989 43.2887C202.546 43.2887 203.05 43.2385 203.5 43.1381C203.953 43.0341 204.408 42.8984 204.866 42.7312ZM211.069 47.3918C210.244 47.3918 209.532 47.2097 208.933 46.8454C208.339 46.4775 207.88 45.9646 207.556 45.3068C207.237 44.6452 207.077 43.8759 207.077 42.9988C207.077 42.1216 207.237 41.3486 207.556 40.6796C207.88 40.0069 208.329 39.4829 208.906 39.1075C209.485 38.7284 210.162 38.5389 210.935 38.5389C211.381 38.5389 211.821 38.6132 212.256 38.7618C212.691 38.9105 213.087 39.1521 213.443 39.4866C213.8 39.8174 214.085 40.2559 214.296 40.8023C214.508 41.3486 214.614 42.0213 214.614 42.8204V43.3779H208.014V42.2406H213.276C213.276 41.7574 213.18 41.3263 212.986 40.9472C212.797 40.5681 212.525 40.2689 212.172 40.0496C211.823 39.8304 211.411 39.7207 210.935 39.7207C210.411 39.7207 209.957 39.8508 209.575 40.111C209.195 40.3674 208.904 40.7019 208.699 41.1145C208.495 41.527 208.393 41.9693 208.393 42.4413V43.1995C208.393 43.8461 208.504 44.3943 208.727 44.8441C208.954 45.29 209.268 45.6301 209.669 45.8643C210.071 46.0947 210.537 46.2099 211.069 46.2099C211.414 46.2099 211.726 46.1616 212.005 46.065C212.288 45.9646 212.531 45.8159 212.735 45.619C212.94 45.4183 213.098 45.1693 213.209 44.8719L214.48 45.2287C214.347 45.6598 214.122 46.0389 213.806 46.366C213.49 46.6893 213.1 46.9421 212.635 47.1242C212.171 47.3026 211.648 47.3918 211.069 47.3918ZM221.587 38.6503V39.8768H217.617V47.2134H216.302V38.6503H221.587ZM226.227 47.3918C225.454 47.3918 224.776 47.2078 224.192 46.8399C223.613 46.4719 223.159 45.9572 222.832 45.2956C222.509 44.6341 222.347 43.861 222.347 42.9765C222.347 42.0845 222.509 41.3059 222.832 40.6406C223.159 39.9753 223.613 39.4587 224.192 39.0908C224.776 38.7228 225.454 38.5389 226.227 38.5389C227 38.5389 227.677 38.7228 228.257 39.0908C228.84 39.4587 229.294 39.9753 229.617 40.6406C229.944 41.3059 230.107 42.0845 230.107 42.9765C230.107 43.861 229.944 44.6341 229.617 45.2956C229.294 45.9572 228.84 46.4719 228.257 46.8399C227.677 47.2078 227 47.3918 226.227 47.3918ZM226.227 46.2099C226.815 46.2099 227.298 46.0594 227.677 45.7583C228.056 45.4573 228.336 45.0615 228.519 44.5709C228.701 44.0803 228.792 43.5488 228.792 42.9765C228.792 42.4041 228.701 41.8708 228.519 41.3765C228.336 40.8822 228.056 40.4826 227.677 40.1779C227.298 39.8731 226.815 39.7207 226.227 39.7207C225.64 39.7207 225.157 39.8731 224.778 40.1779C224.399 40.4826 224.118 40.8822 223.936 41.3765C223.754 41.8708 223.663 42.4041 223.663 42.9765C223.663 43.5488 223.754 44.0803 223.936 44.5709C224.118 45.0615 224.399 45.4573 224.778 45.7583C225.157 46.0594 225.64 46.2099 226.227 46.2099ZM241.634 42.3298V43.5563H236.907V42.3298H241.634ZM237.219 38.6503V47.2134H235.903V38.6503H237.219ZM242.638 38.6503V47.2134H241.322V38.6503H242.638ZM248.317 47.3918C247.492 47.3918 246.78 47.2097 246.181 46.8454C245.587 46.4775 245.128 45.9646 244.804 45.3068C244.485 44.6452 244.325 43.8759 244.325 42.9988C244.325 42.1216 244.485 41.3486 244.804 40.6796C245.128 40.0069 245.578 39.4829 246.154 39.1075C246.733 38.7284 247.41 38.5389 248.183 38.5389C248.629 38.5389 249.069 38.6132 249.504 38.7618C249.939 38.9105 250.335 39.1521 250.692 39.4866C251.048 39.8174 251.333 40.2559 251.545 40.8023C251.756 41.3486 251.862 42.0213 251.862 42.8204V43.3779H245.262V42.2406H250.524C250.524 41.7574 250.428 41.3263 250.234 40.9472C250.045 40.5681 249.774 40.2689 249.42 40.0496C249.071 39.8304 248.659 39.7207 248.183 39.7207C247.659 39.7207 247.205 39.8508 246.823 40.111C246.443 40.3674 246.152 40.7019 245.947 41.1145C245.743 41.527 245.641 41.9693 245.641 42.4413V43.1995C245.641 43.8461 245.752 44.3943 245.975 44.8441C246.202 45.29 246.516 45.6301 246.917 45.8643C247.319 46.0947 247.785 46.2099 248.317 46.2099C248.662 46.2099 248.974 46.1616 249.253 46.065C249.536 45.9646 249.779 45.8159 249.984 45.619C250.188 45.4183 250.346 45.1693 250.457 44.8719L251.728 45.2287C251.595 45.6598 251.37 46.0389 251.054 46.366C250.738 46.6893 250.348 46.9421 249.883 47.1242C249.419 47.3026 248.896 47.3918 248.317 47.3918ZM262.936 38.6503V39.8768H258.967V47.2134H257.651V38.6503H262.936ZM264.543 50.4245V38.6503H265.814V40.0106H265.97C266.066 39.862 266.2 39.6724 266.371 39.442C266.546 39.2078 266.795 38.9997 267.118 38.8176C267.445 38.6318 267.888 38.5389 268.445 38.5389C269.166 38.5389 269.802 38.7191 270.352 39.0796C270.902 39.4401 271.331 39.9512 271.639 40.6127C271.948 41.2743 272.102 42.0547 272.102 42.9542C272.102 43.861 271.948 44.6471 271.639 45.3123C271.331 45.9739 270.904 46.4868 270.357 46.851C269.811 47.2115 269.181 47.3918 268.467 47.3918C267.917 47.3918 267.477 47.3007 267.146 47.1186C266.815 46.9328 266.561 46.7228 266.382 46.4886C266.204 46.2508 266.066 46.0538 265.97 45.8977H265.858V50.4245H264.543ZM265.836 42.9319C265.836 43.5786 265.931 44.149 266.12 44.6434C266.31 45.1339 266.587 45.5186 266.951 45.7974C267.315 46.0724 267.761 46.2099 268.289 46.2099C268.839 46.2099 269.298 46.065 269.666 45.7751C270.038 45.4814 270.316 45.0875 270.502 44.5932C270.692 44.0952 270.786 43.5414 270.786 42.9319C270.786 42.3298 270.694 41.7872 270.508 41.304C270.326 40.8171 270.049 40.4325 269.677 40.15C269.309 39.8638 268.846 39.7207 268.289 39.7207C267.754 39.7207 267.304 39.8564 266.94 40.1277C266.576 40.3953 266.301 40.7707 266.115 41.2538C265.929 41.7333 265.836 42.2926 265.836 42.9319ZM274.336 50.4245C274.113 50.4245 273.914 50.4059 273.739 50.3688C273.565 50.3353 273.444 50.3019 273.377 50.2684L273.712 49.1088C274.031 49.1906 274.314 49.2203 274.559 49.198C274.804 49.1757 275.022 49.0661 275.211 48.8691C275.404 48.6759 275.581 48.3618 275.741 47.927L275.986 47.258L272.82 38.6503H274.247L276.61 45.474H276.7L279.063 38.6503H280.491L276.856 48.4622C276.692 48.9044 276.49 49.2705 276.248 49.5604C276.006 49.854 275.726 50.0714 275.406 50.2127C275.09 50.3539 274.734 50.4245 274.336 50.4245ZM281.378 45.028H282.783C282.813 45.4145 282.987 45.7082 283.307 45.9089C283.63 46.1096 284.05 46.2099 284.567 46.2099C285.095 46.2099 285.546 46.1021 285.922 45.8866C286.297 45.6673 286.485 45.3142 286.485 44.8273C286.485 44.5411 286.414 44.2921 286.273 44.0803C286.131 43.8647 285.933 43.6975 285.676 43.5786C285.42 43.4596 285.117 43.4002 284.768 43.4002H283.296V42.2183H284.768C285.292 42.2183 285.678 42.0993 285.927 41.8615C286.18 41.6236 286.306 41.3263 286.306 40.9695C286.306 40.5867 286.171 40.2801 285.899 40.0496C285.628 39.8155 285.243 39.6984 284.745 39.6984C284.243 39.6984 283.825 39.8118 283.491 40.0385C283.156 40.2615 282.98 40.5495 282.961 40.9026H281.579C281.594 40.4417 281.735 40.0348 282.002 39.6817C282.27 39.3249 282.634 39.0462 283.095 38.8455C283.556 38.6411 284.084 38.5389 284.678 38.5389C285.28 38.5389 285.803 38.6448 286.245 38.8566C286.691 39.0647 287.035 39.3491 287.276 39.7096C287.521 40.0664 287.644 40.4715 287.644 40.9249C287.644 41.4081 287.508 41.7983 287.237 42.0956C286.966 42.393 286.626 42.6048 286.217 42.7312V42.8204C286.54 42.8427 286.821 42.9467 287.059 43.1326C287.3 43.3147 287.488 43.5544 287.622 43.8517C287.756 44.1453 287.823 44.4705 287.823 44.8273C287.823 45.3476 287.683 45.8011 287.404 46.1876C287.126 46.5704 286.743 46.8677 286.256 47.0796C285.769 47.2877 285.213 47.3918 284.589 47.3918C283.983 47.3918 283.441 47.2933 282.961 47.0963C282.482 46.8956 282.101 46.6187 281.818 46.2656C281.54 45.9089 281.393 45.4963 281.378 45.028ZM290.672 45.2733L294.798 38.6503H296.314V47.2134H294.998V40.5904L290.895 47.2134H289.357V38.6503H290.672V45.2733ZM297.245 39.8768V38.6503H304.202V39.8768H301.392V47.2134H300.077V39.8768H297.245ZM306.344 45.6524L306.255 46.2545C306.192 46.6782 306.095 47.1316 305.965 47.6148C305.838 48.0979 305.707 48.5532 305.569 48.9806C305.432 49.408 305.318 49.7481 305.229 50.0008H304.225C304.274 49.763 304.337 49.4489 304.415 49.0587C304.493 48.6684 304.571 48.2317 304.649 47.7486C304.731 47.2691 304.798 46.7785 304.85 46.2768L304.917 45.6524H306.344ZM316.048 47.3918C315.245 47.3918 314.554 47.2022 313.974 46.8231C313.394 46.444 312.948 45.9219 312.636 45.2566C312.324 44.5913 312.168 43.8313 312.168 42.9765C312.168 42.1068 312.327 41.3393 312.647 40.674C312.97 40.005 313.42 39.4829 313.996 39.1075C314.576 38.7284 315.252 38.5389 316.025 38.5389C316.627 38.5389 317.17 38.6504 317.653 38.8733C318.136 39.0963 318.532 39.4085 318.841 39.8099C319.149 40.2113 319.341 40.6796 319.415 41.2148H318.099C317.999 40.8246 317.776 40.4789 317.43 40.1779C317.088 39.8731 316.627 39.7207 316.048 39.7207C315.535 39.7207 315.085 39.8545 314.699 40.1221C314.316 40.386 314.017 40.7595 313.801 41.2427C313.589 41.7221 313.483 42.2852 313.483 42.9319C313.483 43.5934 313.587 44.1695 313.795 44.6601C314.007 45.1507 314.305 45.5316 314.687 45.8029C315.074 46.0742 315.527 46.2099 316.048 46.2099C316.39 46.2099 316.7 46.1504 316.979 46.0315C317.257 45.9126 317.493 45.7416 317.687 45.5186C317.88 45.2956 318.017 45.028 318.099 44.7158H319.415C319.341 45.2213 319.157 45.6766 318.863 46.0817C318.573 46.4831 318.188 46.8027 317.709 47.0406C317.233 47.2747 316.679 47.3918 316.048 47.3918ZM325.973 50.4245C325.75 50.4245 325.551 50.4059 325.376 50.3688C325.202 50.3353 325.081 50.3019 325.014 50.2684L325.349 49.1088C325.668 49.1906 325.951 49.2203 326.196 49.198C326.441 49.1757 326.659 49.0661 326.848 48.8691C327.041 48.6759 327.218 48.3618 327.378 47.927L327.623 47.258L324.457 38.6503H325.884L328.248 45.474H328.337L330.7 38.6503H332.128L328.493 48.4622C328.329 48.9044 328.127 49.2705 327.885 49.5604C327.644 49.854 327.363 50.0714 327.043 50.2127C326.727 50.3539 326.371 50.4245 325.973 50.4245ZM333.06 39.8768V38.6503H340.017V39.8768H337.207V47.2134H335.892V39.8768H333.06ZM341.622 50.4245V38.6503H342.893V40.0106H343.049C343.146 39.862 343.28 39.6724 343.451 39.442C343.626 39.2078 343.875 38.9997 344.198 38.8176C344.525 38.6318 344.967 38.5389 345.525 38.5389C346.246 38.5389 346.881 38.7191 347.431 39.0796C347.981 39.4401 348.411 39.9512 348.719 40.6127C349.028 41.2743 349.182 42.0547 349.182 42.9542C349.182 43.861 349.028 44.6471 348.719 45.3123C348.411 45.9739 347.983 46.4868 347.437 46.851C346.891 47.2115 346.261 47.3918 345.547 47.3918C344.997 47.3918 344.557 47.3007 344.226 47.1186C343.895 46.9328 343.64 46.7228 343.462 46.4886C343.284 46.2508 343.146 46.0538 343.049 45.8977H342.938V50.4245H341.622ZM342.916 42.9319C342.916 43.5786 343.01 44.149 343.2 44.6434C343.39 45.1339 343.666 45.5186 344.031 45.7974C344.395 46.0724 344.841 46.2099 345.369 46.2099C345.919 46.2099 346.378 46.065 346.746 45.7751C347.117 45.4814 347.396 45.0875 347.582 44.5932C347.771 44.0952 347.866 43.5414 347.866 42.9319C347.866 42.3298 347.773 41.7872 347.587 41.304C347.405 40.8171 347.128 40.4325 346.757 40.15C346.389 39.8638 345.926 39.7207 345.369 39.7207C344.833 39.7207 344.384 39.8564 344.019 40.1277C343.655 40.3953 343.38 40.7707 343.194 41.2538C343.009 41.7333 342.916 42.2926 342.916 42.9319ZM353.395 47.4141C352.852 47.4141 352.36 47.3119 351.917 47.1075C351.475 46.8993 351.124 46.6001 350.864 46.2099C350.603 45.8159 350.473 45.3402 350.473 44.7827C350.473 44.2921 350.57 43.8945 350.763 43.5897C350.957 43.2812 351.215 43.0396 351.538 42.865C351.862 42.6903 352.218 42.5602 352.609 42.4747C353.003 42.3855 353.398 42.3149 353.796 42.2629C354.316 42.196 354.738 42.1458 355.062 42.1124C355.389 42.0752 355.626 42.0139 355.775 41.9284C355.928 41.8429 356.004 41.6942 356.004 41.4824V41.4378C356.004 40.8877 355.853 40.4603 355.552 40.1556C355.255 39.8508 354.803 39.6984 354.197 39.6984C353.569 39.6984 353.077 39.8359 352.72 40.111C352.363 40.386 352.112 40.6796 351.967 40.9918L350.719 40.5458C350.942 40.0255 351.239 39.6204 351.611 39.3305C351.986 39.0369 352.395 38.8325 352.837 38.7172C353.283 38.5983 353.722 38.5389 354.153 38.5389C354.428 38.5389 354.744 38.5723 355.101 38.6392C355.461 38.7024 355.809 38.8343 356.143 39.035C356.481 39.2357 356.762 39.5386 356.985 39.9437C357.208 40.3488 357.319 40.8915 357.319 41.5716V47.2134H356.004V46.0538H355.937C355.848 46.2396 355.699 46.4385 355.491 46.6503C355.283 46.8622 355.006 47.0424 354.66 47.1911C354.315 47.3397 353.893 47.4141 353.395 47.4141ZM353.595 46.2322C354.116 46.2322 354.554 46.13 354.911 45.9256C355.272 45.7212 355.543 45.4573 355.725 45.1339C355.911 44.8106 356.004 44.4705 356.004 44.1137V42.9096C355.948 42.9765 355.825 43.0378 355.636 43.0935C355.45 43.1456 355.234 43.192 354.989 43.2329C354.747 43.2701 354.511 43.3035 354.281 43.3333C354.054 43.3593 353.87 43.3816 353.729 43.4002C353.387 43.4448 353.068 43.5172 352.77 43.6176C352.477 43.7142 352.239 43.861 352.057 44.058C351.878 44.2513 351.789 44.5151 351.789 44.8496C351.789 45.3068 351.958 45.6524 352.296 45.8866C352.638 46.117 353.071 46.2322 353.595 46.2322ZM369.239 42.3298V43.5563H364.512V42.3298H369.239ZM364.824 38.6503V47.2134H363.508V38.6503H364.824ZM370.243 38.6503V47.2134H368.927V38.6503H370.243ZM375.81 47.3918C375.037 47.3918 374.359 47.2078 373.775 46.8399C373.196 46.4719 372.742 45.9572 372.415 45.2956C372.092 44.6341 371.93 43.861 371.93 42.9765C371.93 42.0845 372.092 41.3059 372.415 40.6406C372.742 39.9753 373.196 39.4587 373.775 39.0908C374.359 38.7228 375.037 38.5389 375.81 38.5389C376.583 38.5389 377.26 38.7228 377.839 39.0908C378.423 39.4587 378.876 39.9753 379.2 40.6406C379.527 41.3059 379.69 42.0845 379.69 42.9765C379.69 43.861 379.527 44.6341 379.2 45.2956C378.876 45.9572 378.423 46.4719 377.839 46.8399C377.26 47.2078 376.583 47.3918 375.81 47.3918ZM375.81 46.2099C376.397 46.2099 376.881 46.0594 377.26 45.7583C377.639 45.4573 377.919 45.0615 378.101 44.5709C378.284 44.0803 378.375 43.5488 378.375 42.9765C378.375 42.4041 378.284 41.8708 378.101 41.3765C377.919 40.8822 377.639 40.4826 377.26 40.1779C376.881 39.8731 376.397 39.7207 375.81 39.7207C375.223 39.7207 374.74 39.8731 374.361 40.1779C373.982 40.4826 373.701 40.8822 373.519 41.3765C373.337 41.8708 373.246 42.4041 373.246 42.9765C373.246 43.5488 373.337 44.0803 373.519 44.5709C373.701 45.0615 373.982 45.4573 374.361 45.7583C374.74 46.0594 375.223 46.2099 375.81 46.2099ZM381.385 50.4245V38.6503H382.656V40.0106H382.812C382.908 39.862 383.042 39.6724 383.213 39.442C383.388 39.2078 383.637 38.9997 383.96 38.8176C384.287 38.6318 384.73 38.5389 385.287 38.5389C386.008 38.5389 386.644 38.7191 387.194 39.0796C387.744 39.4401 388.173 39.9512 388.481 40.6127C388.79 41.2743 388.944 42.0547 388.944 42.9542C388.944 43.861 388.79 44.6471 388.481 45.3123C388.173 45.9739 387.746 46.4868 387.199 46.851C386.653 47.2115 386.023 47.3918 385.309 47.3918C384.759 47.3918 384.319 47.3007 383.988 47.1186C383.657 46.9328 383.403 46.7228 383.224 46.4886C383.046 46.2508 382.908 46.0538 382.812 45.8977H382.7V50.4245H381.385ZM382.678 42.9319C382.678 43.5786 382.773 44.149 382.962 44.6434C383.152 45.1339 383.429 45.5186 383.793 45.7974C384.157 46.0724 384.603 46.2099 385.131 46.2099C385.681 46.2099 386.14 46.065 386.508 45.7751C386.88 45.4814 387.158 45.0875 387.344 44.5932C387.534 44.0952 387.629 43.5414 387.629 42.9319C387.629 42.3298 387.536 41.7872 387.35 41.304C387.168 40.8171 386.891 40.4325 386.519 40.15C386.151 39.8638 385.688 39.7207 385.131 39.7207C384.596 39.7207 384.146 39.8564 383.782 40.1277C383.418 40.3953 383.143 40.7707 382.957 41.2538C382.771 41.7333 382.678 42.2926 382.678 42.9319ZM395.32 45.4294L398.308 38.6503H399.557L395.855 47.2134H394.785L391.15 38.6503H392.377L395.32 45.4294ZM391.953 38.6503V47.2134H390.637V38.6503H391.953ZM398.687 47.2134V38.6503H400.003V47.2134H398.687ZM412.554 35.4392L413.223 36.242C412.963 36.4947 412.662 36.6713 412.32 36.7716C411.978 36.872 411.591 36.9333 411.16 36.9556C410.729 36.9779 410.25 37.0002 409.722 37.0225C409.127 37.0448 408.635 37.1897 408.245 37.4573C407.854 37.7249 407.553 38.1114 407.342 38.6169C407.13 39.1224 406.994 39.743 406.935 40.4789H407.046C407.336 39.9437 407.737 39.5498 408.25 39.297C408.763 39.0443 409.313 38.9179 409.9 38.9179C410.569 38.9179 411.171 39.074 411.707 39.3862C412.242 39.6984 412.666 40.1611 412.978 40.7744C413.29 41.3876 413.446 42.1439 413.446 43.0434C413.446 43.9391 413.286 44.7121 412.967 45.3625C412.651 46.0129 412.207 46.5147 411.634 46.8677C411.066 47.2171 410.398 47.3918 409.633 47.3918C408.867 47.3918 408.196 47.2115 407.62 46.851C407.044 46.4868 406.596 45.9479 406.277 45.2343C405.957 44.517 405.797 43.6306 405.797 42.5751V41.6608C405.797 39.7542 406.121 38.3084 406.767 37.3235C407.418 36.3386 408.395 35.8295 409.7 35.796C410.161 35.7811 410.571 35.7774 410.932 35.7849C411.292 35.7923 411.606 35.7756 411.874 35.7347C412.142 35.6938 412.368 35.5953 412.554 35.4392ZM409.633 46.2099C410.149 46.2099 410.594 46.0798 410.965 45.8197C411.341 45.5595 411.629 45.1934 411.829 44.7214C412.03 44.2457 412.13 43.6863 412.13 43.0434C412.13 42.419 412.028 41.8875 411.824 41.4489C411.623 41.0104 411.335 40.6759 410.96 40.4455C410.584 40.215 410.135 40.0998 409.611 40.0998C409.228 40.0998 408.884 40.1649 408.579 40.2949C408.274 40.425 408.014 40.6164 407.799 40.8692C407.583 41.1219 407.416 41.4304 407.297 41.7946C407.182 42.1588 407.12 42.5751 407.113 43.0434C407.113 44.0022 407.338 44.7697 407.788 45.3458C408.237 45.9219 408.852 46.2099 409.633 46.2099ZM416.282 41.75H418.735C419.738 41.75 420.506 42.0046 421.037 42.5137C421.569 43.0229 421.834 43.6677 421.834 44.4482C421.834 44.9611 421.716 45.4276 421.478 45.8475C421.24 46.2638 420.89 46.5964 420.43 46.8454C419.969 47.0907 419.404 47.2134 418.735 47.2134H415.145V38.6503H416.46V45.9869H418.735C419.255 45.9869 419.683 45.8494 420.017 45.5744C420.352 45.2993 420.519 44.9463 420.519 44.5151C420.519 44.0617 420.352 43.6919 420.017 43.4057C419.683 43.1196 419.255 42.9765 418.735 42.9765H416.282V41.75ZM423.195 47.2134V38.6503H424.51V47.2134H423.195ZM425.847 47.2134V45.9869H426.159C426.415 45.9869 426.629 45.9367 426.8 45.8364C426.971 45.7323 427.108 45.5521 427.212 45.2956C427.32 45.0355 427.402 44.6749 427.458 44.2141C427.517 43.7495 427.56 43.1586 427.586 42.4413L427.742 38.6503H433.451V47.2134H432.135V39.8768H428.991L428.857 42.9319C428.827 43.6343 428.764 44.2531 428.667 44.7883C428.575 45.3198 428.431 45.7658 428.238 46.1263C428.049 46.4868 427.796 46.7581 427.48 46.9402C427.164 47.1223 426.768 47.2134 426.293 47.2134H425.847ZM439.029 47.3918C438.256 47.3918 437.578 47.2078 436.995 46.8399C436.415 46.4719 435.961 45.9572 435.634 45.2956C435.311 44.6341 435.149 43.861 435.149 42.9765C435.149 42.0845 435.311 41.3059 435.634 40.6406C435.961 39.9753 436.415 39.4587 436.995 39.0908C437.578 38.7228 438.256 38.5389 439.029 38.5389C439.802 38.5389 440.479 38.7228 441.059 39.0908C441.642 39.4587 442.096 39.9753 442.419 40.6406C442.746 41.3059 442.91 42.0845 442.91 42.9765C442.91 43.861 442.746 44.6341 442.419 45.2956C442.096 45.9572 441.642 46.4719 441.059 46.8399C440.479 47.2078 439.802 47.3918 439.029 47.3918ZM439.029 46.2099C439.617 46.2099 440.1 46.0594 440.479 45.7583C440.858 45.4573 441.139 45.0615 441.321 44.5709C441.503 44.0803 441.594 43.5488 441.594 42.9765C441.594 42.4041 441.503 41.8708 441.321 41.3765C441.139 40.8822 440.858 40.4826 440.479 40.1779C440.1 39.8731 439.617 39.7207 439.029 39.7207C438.442 39.7207 437.959 39.8731 437.58 40.1779C437.201 40.4826 436.92 40.8822 436.738 41.3765C436.556 41.8708 436.465 42.4041 436.465 42.9765C436.465 43.5488 436.556 44.0803 436.738 44.5709C436.92 45.0615 437.201 45.4573 437.58 45.7583C437.959 46.0594 438.442 46.2099 439.029 46.2099ZM460.39 45.9869L460.234 49.6663H458.874V47.2134H457.759V45.9869H460.39ZM448.705 38.6503H450.021V45.9869H453.254V38.6503H454.57V45.9869H457.803V38.6503H459.119V47.2134H448.705V38.6503ZM464.51 47.4141C463.967 47.4141 463.475 47.3119 463.032 47.1075C462.59 46.8993 462.239 46.6001 461.979 46.2099C461.719 45.8159 461.588 45.3402 461.588 44.7827C461.588 44.2921 461.685 43.8945 461.878 43.5897C462.072 43.2812 462.33 43.0396 462.653 42.865C462.977 42.6903 463.333 42.5602 463.724 42.4747C464.118 42.3855 464.513 42.3149 464.911 42.2629C465.431 42.196 465.853 42.1458 466.177 42.1124C466.504 42.0752 466.741 42.0139 466.89 41.9284C467.043 41.8429 467.119 41.6942 467.119 41.4824V41.4378C467.119 40.8877 466.968 40.4603 466.667 40.1556C466.37 39.8508 465.918 39.6984 465.312 39.6984C464.684 39.6984 464.192 39.8359 463.835 40.111C463.478 40.386 463.227 40.6796 463.082 40.9918L461.834 40.5458C462.057 40.0255 462.354 39.6204 462.726 39.3305C463.101 39.0369 463.51 38.8325 463.952 38.7172C464.398 38.5983 464.837 38.5389 465.268 38.5389C465.543 38.5389 465.859 38.5723 466.216 38.6392C466.576 38.7024 466.924 38.8343 467.258 39.035C467.596 39.2357 467.877 39.5386 468.1 39.9437C468.323 40.3488 468.434 40.8915 468.434 41.5716V47.2134H467.119V46.0538H467.052C466.963 46.2396 466.814 46.4385 466.606 46.6503C466.398 46.8622 466.121 47.0424 465.775 47.1911C465.43 47.3397 465.008 47.4141 464.51 47.4141ZM464.71 46.2322C465.231 46.2322 465.669 46.13 466.026 45.9256C466.387 45.7212 466.658 45.4573 466.84 45.1339C467.026 44.8106 467.119 44.4705 467.119 44.1137V42.9096C467.063 42.9765 466.94 43.0378 466.751 43.0935C466.565 43.1456 466.349 43.192 466.104 43.2329C465.863 43.2701 465.627 43.3035 465.396 43.3333C465.169 43.3593 464.985 43.3816 464.844 43.4002C464.502 43.4448 464.183 43.5172 463.885 43.6176C463.592 43.7142 463.354 43.861 463.172 44.058C462.993 44.2513 462.904 44.5151 462.904 44.8496C462.904 45.3068 463.073 45.6524 463.411 45.8866C463.753 46.117 464.186 46.2322 464.71 46.2322ZM474.001 47.3918C473.198 47.3918 472.506 47.2022 471.927 46.8231C471.347 46.444 470.901 45.9219 470.589 45.2566C470.277 44.5913 470.12 43.8313 470.12 42.9765C470.12 42.1068 470.28 41.3393 470.6 40.674C470.923 40.005 471.373 39.4829 471.949 39.1075C472.529 38.7284 473.205 38.5389 473.978 38.5389C474.58 38.5389 475.123 38.6504 475.606 38.8733C476.089 39.0963 476.485 39.4085 476.794 39.8099C477.102 40.2113 477.293 40.6796 477.368 41.2148H476.052C475.952 40.8246 475.729 40.4789 475.383 40.1779C475.041 39.8731 474.58 39.7207 474.001 39.7207C473.488 39.7207 473.038 39.8545 472.651 40.1221C472.269 40.386 471.969 40.7595 471.754 41.2427C471.542 41.7221 471.436 42.2852 471.436 42.9319C471.436 43.5934 471.54 44.1695 471.748 44.6601C471.96 45.1507 472.257 45.5316 472.64 45.8029C473.027 46.0742 473.48 46.2099 474.001 46.2099C474.342 46.2099 474.653 46.1504 474.932 46.0315C475.21 45.9126 475.446 45.7416 475.64 45.5186C475.833 45.2956 475.97 45.028 476.052 44.7158H477.368C477.293 45.2213 477.109 45.6766 476.816 46.0817C476.526 46.4831 476.141 46.8027 475.662 47.0406C475.186 47.2747 474.632 47.3918 474.001 47.3918ZM67.3634 69.2134V60.6503H68.679V64.3744H69.5487L72.6261 60.6503H74.3208L70.8644 64.7758L74.3654 69.2134H72.6706L69.8609 65.6009H68.679V69.2134H67.3634ZM75.4814 72.4245V60.6503H76.7525V62.0106H76.9086C77.0052 61.862 77.139 61.6724 77.31 61.442C77.4846 61.2078 77.7337 60.9997 78.057 60.8176C78.3841 60.6318 78.8263 60.5389 79.3838 60.5389C80.1048 60.5389 80.7404 60.7191 81.2904 61.0796C81.8405 61.4401 82.2698 61.9512 82.5782 62.6127C82.8867 63.2743 83.0409 64.0547 83.0409 64.9542C83.0409 65.861 82.8867 66.6471 82.5782 67.3123C82.2698 67.9739 81.8423 68.4868 81.296 68.851C80.7497 69.2115 80.1197 69.3918 79.4061 69.3918C78.8561 69.3918 78.4156 69.3007 78.0849 69.1186C77.7541 68.9328 77.4995 68.7228 77.3211 68.4886C77.1427 68.2508 77.0052 68.0538 76.9086 67.8977H76.7971V72.4245H75.4814ZM76.7748 64.9319C76.7748 65.5786 76.8695 66.149 77.0591 66.6434C77.2486 67.1339 77.5255 67.5186 77.8897 67.7974C78.254 68.0724 78.7 68.2099 79.2277 68.2099C79.7778 68.2099 80.2368 68.065 80.6047 67.7751C80.9764 67.4814 81.2551 67.0875 81.441 66.5932C81.6305 66.0952 81.7253 65.5414 81.7253 64.9319C81.7253 64.3298 81.6324 63.7872 81.4465 63.304C81.2644 62.8171 80.9875 62.4325 80.6159 62.15C80.2479 61.8638 79.7852 61.7207 79.2277 61.7207C78.6925 61.7207 78.2428 61.8564 77.8786 62.1277C77.5144 62.3953 77.2393 62.7707 77.0535 63.2538C76.8677 63.7333 76.7748 64.2926 76.7748 64.9319ZM85.2747 72.4245C85.0517 72.4245 84.8529 72.4059 84.6782 72.3688C84.5035 72.3353 84.3827 72.3019 84.3158 72.2684L84.6503 71.1088C84.9699 71.1906 85.2524 71.2203 85.4977 71.198C85.743 71.1757 85.9604 71.0661 86.1499 70.8691C86.3432 70.6759 86.5198 70.3618 86.6796 69.927L86.9249 69.258L83.7583 60.6503H85.1855L87.5492 67.474H87.6384L90.0022 60.6503H91.4294L87.7945 70.4622C87.631 70.9044 87.4285 71.2705 87.1869 71.5604C86.9453 71.854 86.6647 72.0714 86.3451 72.2127C86.0292 72.3539 85.6724 72.4245 85.2747 72.4245ZM92.3614 61.8768V60.6503H99.3188V61.8768H96.5091V69.2134H95.1934V61.8768H92.3614ZM102.24 67.2733L106.365 60.6503H107.881V69.2134H106.566V62.5904L102.463 69.2134H100.924V60.6503H102.24V67.2733ZM108.812 61.8768V60.6503H115.77V61.8768H112.96V69.2134H111.644V61.8768H108.812ZM122.792 67.2733L126.917 60.6503H128.434V69.2134H127.118V62.5904L123.015 69.2134H121.476V60.6503H122.792V67.2733ZM134.631 69.2134V60.6503H138.132C139.053 60.6503 139.786 60.8585 140.328 61.2747C140.871 61.691 141.142 62.2411 141.142 62.9249C141.142 63.4452 140.988 63.8485 140.679 64.1347C140.371 64.4171 139.975 64.6085 139.492 64.7089C139.808 64.7535 140.114 64.865 140.412 65.0434C140.713 65.2218 140.962 65.4671 141.159 65.7792C141.356 66.0877 141.454 66.4668 141.454 66.9165C141.454 67.3551 141.343 67.7472 141.12 68.0928C140.897 68.4385 140.577 68.7116 140.161 68.9123C139.745 69.113 139.247 69.2134 138.667 69.2134H134.631ZM135.879 68.0092H138.667C139.12 68.0092 139.475 67.9014 139.732 67.6859C139.988 67.4703 140.116 67.1767 140.116 66.805C140.116 66.3628 139.988 66.0153 139.732 65.7625C139.475 65.5061 139.12 65.3779 138.667 65.3779H135.879V68.0092ZM135.879 64.2406H138.132C138.485 64.2406 138.788 64.1923 139.04 64.0956C139.293 63.9953 139.486 63.8541 139.62 63.6719C139.758 63.4861 139.826 63.2668 139.826 63.0141C139.826 62.6536 139.676 62.3711 139.375 62.1667C139.074 61.9586 138.659 61.8545 138.132 61.8545H135.879V64.2406ZM146.611 69.3918C145.808 69.3918 145.117 69.2022 144.537 68.8231C143.957 68.444 143.511 67.9219 143.199 67.2566C142.887 66.5913 142.731 65.8313 142.731 64.9765C142.731 64.1068 142.89 63.3393 143.21 62.674C143.533 62.005 143.983 61.4829 144.559 61.1075C145.139 60.7284 145.815 60.5389 146.588 60.5389C147.19 60.5389 147.733 60.6504 148.216 60.8733C148.699 61.0963 149.095 61.4085 149.404 61.8099C149.712 62.2113 149.904 62.6796 149.978 63.2148H148.662C148.562 62.8246 148.339 62.4789 147.993 62.1779C147.651 61.8731 147.19 61.7207 146.611 61.7207C146.098 61.7207 145.648 61.8545 145.262 62.1221C144.879 62.386 144.58 62.7595 144.364 63.2427C144.152 63.7221 144.046 64.2852 144.046 64.9319C144.046 65.5934 144.15 66.1695 144.358 66.6601C144.57 67.1507 144.868 67.5316 145.25 67.8029C145.637 68.0742 146.09 68.2099 146.611 68.2099C146.953 68.2099 147.263 68.1504 147.542 68.0315C147.82 67.9126 148.056 67.7416 148.25 67.5186C148.443 67.2956 148.58 67.028 148.662 66.7158H149.978C149.904 67.2213 149.72 67.6766 149.426 68.0817C149.136 68.4831 148.751 68.8027 148.272 69.0406C147.796 69.2747 147.242 69.3918 146.611 69.3918ZM155.177 69.3918C154.352 69.3918 153.641 69.2097 153.042 68.8454C152.448 68.4775 151.989 67.9646 151.665 67.3068C151.346 66.6452 151.186 65.8759 151.186 64.9988C151.186 64.1216 151.346 63.3486 151.665 62.6796C151.989 62.0069 152.438 61.4829 153.014 61.1075C153.594 60.7284 154.271 60.5389 155.044 60.5389C155.49 60.5389 155.93 60.6132 156.365 60.7618C156.8 60.9105 157.196 61.1521 157.552 61.4866C157.909 61.8174 158.194 62.2559 158.405 62.8023C158.617 63.3486 158.723 64.0213 158.723 64.8204V65.3779H152.122V64.2406H157.385C157.385 63.7574 157.289 63.3263 157.095 62.9472C156.906 62.5681 156.634 62.2689 156.281 62.0496C155.932 61.8304 155.519 61.7207 155.044 61.7207C154.52 61.7207 154.066 61.8508 153.683 62.111C153.304 62.3674 153.013 62.7019 152.808 63.1145C152.604 63.527 152.502 63.9693 152.502 64.4413V65.1995C152.502 65.8461 152.613 66.3943 152.836 66.8441C153.063 67.29 153.377 67.6301 153.778 67.8643C154.18 68.0947 154.646 68.2099 155.177 68.2099C155.523 68.2099 155.835 68.1616 156.114 68.065C156.397 67.9646 156.64 67.8159 156.844 67.619C157.049 67.4183 157.207 67.1693 157.318 66.8719L158.589 67.2287C158.456 67.6598 158.231 68.0389 157.915 68.366C157.599 68.6893 157.209 68.9421 156.744 69.1242C156.279 69.3026 155.757 69.3918 155.177 69.3918ZM153.371 59.2232C153.137 59.2232 152.929 59.134 152.747 58.9556C152.568 58.7735 152.479 58.5653 152.479 58.3312C152.479 58.0748 152.568 57.8629 152.747 57.6957C152.929 57.5247 153.137 57.4392 153.371 57.4392C153.628 57.4392 153.84 57.5247 154.007 57.6957C154.178 57.8629 154.263 58.0748 154.263 58.3312C154.263 58.5653 154.178 58.7735 154.007 58.9556C153.84 59.134 153.628 59.2232 153.371 59.2232ZM156.582 59.2232C156.348 59.2232 156.14 59.134 155.958 58.9556C155.78 58.7735 155.69 58.5653 155.69 58.3312C155.69 58.0748 155.78 57.8629 155.958 57.6957C156.14 57.5247 156.348 57.4392 156.582 57.4392C156.839 57.4392 157.051 57.5247 157.218 57.6957C157.389 57.8629 157.474 58.0748 157.474 58.3312C157.474 58.5653 157.389 58.7735 157.218 58.9556C157.051 59.134 156.839 59.2232 156.582 59.2232Z" fill="#F5F5F5" style="fill:#F5F5F5;fill:color(display-p3 0.9625 0.9625 0.9625);fill-opacity:1;"/>
<path d="M510.685 64.0973V75.5146H509.302V65.5467H509.236L506.448 67.3976V65.9927L509.302 64.0973H510.685ZM517.041 64.0973V75.5146H515.658V65.5467H515.591L512.804 67.3976V65.9927L515.658 64.0973H517.041ZM520.364 74.054C520.088 74.054 519.852 73.9555 519.655 73.7586C519.459 73.5616 519.36 73.3256 519.36 73.0505C519.36 72.7755 519.459 72.5395 519.655 72.3425C519.852 72.1456 520.088 72.0471 520.364 72.0471C520.639 72.0471 520.875 72.1456 521.072 72.3425C521.268 72.5395 521.367 72.7755 521.367 73.0505C521.367 73.2327 521.321 73.3999 521.228 73.5523C521.138 73.7047 521.018 73.8273 520.865 73.9202C520.717 74.0094 520.549 74.054 520.364 74.054ZM520.364 68.2784C520.088 68.2784 519.852 68.18 519.655 67.983C519.459 67.786 519.36 67.55 519.36 67.275C519.36 66.9999 519.459 66.7639 519.655 66.567C519.852 66.37 520.088 66.2715 520.364 66.2715C520.639 66.2715 520.875 66.37 521.072 66.567C521.268 66.7639 521.367 66.9999 521.367 67.275C521.367 67.4571 521.321 67.6243 521.228 67.7767C521.138 67.9291 521.018 68.0517 520.865 68.1446C520.717 68.2338 520.549 68.2784 520.364 68.2784ZM522.496 73.1732V72.0359L527.514 64.0973H528.339V65.8589H527.781L523.99 71.8575V71.9467H530.747V73.1732H522.496ZM527.87 75.5146V72.8276V72.2979V64.0973H529.186V75.5146H527.87ZM535.551 75.6707C534.786 75.6707 534.109 75.5351 533.522 75.2638C532.939 74.9888 532.483 74.6115 532.156 74.1321C531.829 73.6489 531.668 73.0989 531.671 72.4819C531.668 71.9988 531.762 71.5528 531.956 71.1439C532.149 70.7314 532.413 70.3876 532.747 70.1126C533.085 69.8338 533.463 69.6573 533.879 69.583V69.5161C533.333 69.3748 532.898 69.0682 532.574 68.5962C532.251 68.1205 532.091 67.5797 532.095 66.9739C532.091 66.3941 532.238 65.8757 532.535 65.4185C532.833 64.9614 533.241 64.6009 533.762 64.337C534.286 64.0731 534.882 63.9412 535.551 63.9412C536.213 63.9412 536.804 64.0731 537.324 64.337C537.844 64.6009 538.253 64.9614 538.551 65.4185C538.852 65.8757 539.004 66.3941 539.008 66.9739C539.004 67.5797 538.839 68.1205 538.512 68.5962C538.188 69.0682 537.759 69.3748 537.224 69.5161V69.583C537.636 69.6573 538.008 69.8338 538.339 70.1126C538.67 70.3876 538.933 70.7314 539.13 71.1439C539.327 71.5528 539.428 71.9988 539.431 72.4819C539.428 73.0989 539.261 73.6489 538.93 74.1321C538.603 74.6115 538.147 74.9888 537.564 75.2638C536.984 75.5351 536.313 75.6707 535.551 75.6707ZM535.551 74.4443C536.068 74.4443 536.514 74.3606 536.889 74.1934C537.265 74.0262 537.555 73.7901 537.759 73.4854C537.963 73.1806 538.067 72.8238 538.071 72.415C538.067 71.9839 537.956 71.6029 537.737 71.2722C537.517 70.9414 537.218 70.6812 536.839 70.4917C536.464 70.3021 536.034 70.2074 535.551 70.2074C535.064 70.2074 534.63 70.3021 534.247 70.4917C533.868 70.6812 533.569 70.9414 533.349 71.2722C533.134 71.6029 533.028 71.9839 533.031 72.415C533.028 72.8238 533.126 73.1806 533.327 73.4854C533.531 73.7901 533.823 74.0262 534.202 74.1934C534.581 74.3606 535.031 74.4443 535.551 74.4443ZM535.551 69.0255C535.96 69.0255 536.323 68.9437 536.638 68.7802C536.958 68.6167 537.209 68.3881 537.391 68.0945C537.573 67.8009 537.666 67.4571 537.67 67.0631C537.666 66.6766 537.575 66.3402 537.397 66.0541C537.218 65.7642 536.971 65.5412 536.655 65.3851C536.339 65.2253 535.971 65.1454 535.551 65.1454C535.124 65.1454 534.75 65.2253 534.431 65.3851C534.111 65.5412 533.864 65.7642 533.689 66.0541C533.515 66.3402 533.429 66.6766 533.433 67.0631C533.429 67.4571 533.517 67.8009 533.695 68.0945C533.877 68.3881 534.128 68.6167 534.448 68.7802C534.767 68.9437 535.135 69.0255 535.551 69.0255Z" fill="#707E8D" style="fill:#707E8D;fill:color(display-p3 0.4392 0.4941 0.5529);fill-opacity:1;"/>
<defs>
<linearGradient id="paint0_linear_1255_47014" x1="20.1843" y1="45.0583" x2="20.1843" y2="85.4269" gradientUnits="userSpaceOnUse">
<stop stop-color="#70ACF3" style="stop-color:#70ACF3;stop-color:color(display-p3 0.4392 0.6745 0.9529);stop-opacity:1;"/>
<stop offset="1" stop-color="#5489CB" style="stop-color:#5489CB;stop-color:color(display-p3 0.3294 0.5373 0.7961);stop-opacity:1;"/>
</linearGradient>
</defs>
</svg>
