<svg width="552" height="91" viewBox="0 0 552 91" fill="none" xmlns="http://www.w3.org/2000/svg">
<rect y="46.6316" width="43.5789" height="43.5789" rx="21.7895" fill="url(#paint0_linear_1259_47329)" style=""/>
<path d="M20.4575 63.1856H23.127C24.1587 63.1856 25.0744 63.407 25.8739 63.8497C26.6735 64.2925 27.3011 64.9158 27.7568 65.7197C28.2125 66.5192 28.4403 67.4564 28.4403 68.5311C28.4403 69.58 28.2125 70.4977 27.7568 71.2844C27.3011 72.0711 26.6735 72.6836 25.8739 73.1221C25.0744 73.5563 24.1587 73.7734 23.127 73.7734H20.4575C19.4215 73.7734 18.5016 73.5584 17.6977 73.1286C16.8982 72.6944 16.2705 72.084 15.8149 71.2973C15.3592 70.5106 15.1314 69.5907 15.1314 68.5375C15.1314 67.4628 15.3614 66.5257 15.8213 65.7261C16.2813 64.9223 16.9111 64.2989 17.7106 63.8562C18.5145 63.4091 19.4301 63.1856 20.4575 63.1856ZM20.4575 65.2103C19.8299 65.2103 19.2861 65.3392 18.8262 65.5972C18.3705 65.8508 18.018 66.2248 17.7687 66.7191C17.5193 67.2135 17.3947 67.8196 17.3947 68.5375C17.3947 69.2253 17.5193 69.8078 17.7687 70.2849C18.0223 70.7621 18.3791 71.1254 18.839 71.3747C19.299 71.624 19.8385 71.7487 20.4575 71.7487H23.1335C23.7568 71.7487 24.2942 71.624 24.7455 71.3747C25.2012 71.1211 25.5515 70.7557 25.7966 70.2785C26.0459 69.797 26.1706 69.2146 26.1706 68.5311C26.1706 67.8218 26.0459 67.2199 25.7966 66.7256C25.5515 66.2312 25.2012 65.8551 24.7455 65.5972C24.2942 65.3392 23.7568 65.2103 23.1335 65.2103H20.4575ZM22.9465 61.4833V75.4628H20.6445V61.4833H22.9465Z" fill="white" style="fill:white;fill-opacity:1;"/>
<path d="M56.8947 90.2106V75.6843C56.8947 82.3831 52.3604 88.0229 46.1935 89.7018C46.08 89.7326 46 89.8352 46 89.9528C46 90.0952 46.1154 90.2106 46.2578 90.2106H56.8947Z" fill="#1B2532" style="fill:#1B2532;fill:color(display-p3 0.1059 0.1451 0.1961);fill-opacity:1;"/>
<path d="M56.8945 34.8632C56.8945 22.6599 56.8945 16.5583 59.2694 11.8973C61.3585 7.79731 64.6918 4.46394 68.7918 2.37491C73.4528 0 79.5544 0 91.7577 0H517.137C529.34 0 535.442 0 540.103 2.37491C544.203 4.46394 547.536 7.79731 549.625 11.8973C552 16.5583 552 22.6599 552 34.8632V55.3474C552 67.5506 552 73.6522 549.625 78.3133C547.536 82.4132 544.203 85.7466 540.103 87.8356C535.442 90.2105 529.34 90.2105 517.137 90.2105H56.8945V34.8632Z" fill="#1B2532" style="fill:#1B2532;fill:color(display-p3 0.1059 0.1451 0.1961);fill-opacity:1;"/>
<path d="M77.2947 17.152H79.7863C80.7492 17.152 81.6038 17.3587 82.35 17.7719C83.0963 18.1852 83.6821 18.7669 84.1074 19.5172C84.5326 20.2635 84.7453 21.1381 84.7453 22.1411C84.7453 23.1201 84.5326 23.9767 84.1074 24.7109C83.6821 25.4452 83.0963 26.0169 82.35 26.4261C81.6038 26.8314 80.7492 27.034 79.7863 27.034H77.2947C76.3278 27.034 75.4692 26.8334 74.7189 26.4322C73.9726 26.0269 73.3869 25.4572 72.9616 24.723C72.5363 23.9887 72.3236 23.1301 72.3236 22.1472C72.3236 21.1441 72.5383 20.2695 72.9676 19.5232C73.3969 18.7729 73.9847 18.1912 74.7309 17.7779C75.4812 17.3607 76.3358 17.152 77.2947 17.152ZM77.2947 19.0418C76.7089 19.0418 76.2014 19.1621 75.7721 19.4028C75.3468 19.6396 75.0178 19.9886 74.7851 20.45C74.5524 20.9114 74.436 21.4771 74.436 22.1472C74.436 22.7891 74.5524 23.3328 74.7851 23.7781C75.0218 24.2235 75.3548 24.5625 75.7841 24.7952C76.2134 25.0279 76.717 25.1442 77.2947 25.1442H79.7923C80.374 25.1442 80.8756 25.0279 81.2968 24.7952C81.7221 24.5585 82.0491 24.2174 82.2778 23.7721C82.5105 23.3227 82.6269 22.7791 82.6269 22.1411C82.6269 21.4791 82.5105 20.9174 82.2778 20.456C82.0491 19.9946 81.7221 19.6436 81.2968 19.4028C80.8756 19.1621 80.374 19.0418 79.7923 19.0418H77.2947ZM79.6177 15.5632V28.6108H77.4692V15.5632H79.6177ZM90.6964 28.2858C89.7696 28.2858 88.9691 28.0932 88.2951 27.708C87.6251 27.3188 87.1095 26.7692 86.7484 26.059C86.3873 25.3449 86.2068 24.5043 86.2068 23.5374C86.2068 22.5865 86.3873 21.752 86.7484 21.0338C87.1135 20.3116 87.623 19.7499 88.277 19.3487C88.931 18.9435 89.6993 18.7408 90.582 18.7408C91.1517 18.7408 91.6894 18.8331 92.1949 19.0177C92.7045 19.1982 93.1538 19.4791 93.543 19.8602C93.9362 20.2414 94.2451 20.7269 94.4698 21.3166C94.6945 21.9024 94.8068 22.6005 94.8068 23.411V24.079H87.2299V22.6106H92.7185C92.7145 22.1933 92.6242 21.8222 92.4477 21.4972C92.2711 21.1682 92.0244 20.9094 91.7074 20.7208C91.3945 20.5323 91.0294 20.438 90.6121 20.438C90.1668 20.438 89.7756 20.5463 89.4386 20.763C89.1015 20.9756 88.8387 21.2565 88.6502 21.6055C88.4656 21.9506 88.3713 22.3297 88.3673 22.743V24.0249C88.3673 24.5625 88.4656 25.0239 88.6622 25.4091C88.8588 25.7902 89.1336 26.0831 89.4867 26.2877C89.8398 26.4883 90.253 26.5886 90.7265 26.5886C91.0434 26.5886 91.3303 26.5445 91.5871 26.4562C91.8438 26.3639 92.0665 26.2295 92.2551 26.053C92.4437 25.8765 92.5861 25.6578 92.6824 25.397L94.7165 25.6257C94.5882 26.1633 94.3434 26.6328 93.9823 27.034C93.6252 27.4312 93.1679 27.7401 92.6102 27.9608C92.0525 28.1774 91.4145 28.2858 90.6964 28.2858ZM95.662 30.7894V26.3118H96.3962C96.5928 26.1593 96.7573 25.9527 96.8897 25.6919C97.0221 25.4271 97.1304 25.1162 97.2147 24.7591C97.3029 24.398 97.3751 23.9948 97.4313 23.5494C97.4875 23.1001 97.5376 22.6166 97.5818 22.099L97.8466 18.8612H104.527V26.3118H105.959V30.7894H103.853V28.1052H97.8044V30.7894H95.662ZM98.635 26.3118H102.445V20.6185H99.7363L99.5919 22.099C99.5116 23.078 99.4053 23.9165 99.2729 24.6146C99.1405 25.3128 98.9279 25.8785 98.635 26.3118ZM111.448 28.2858C110.546 28.2858 109.763 28.0872 109.101 27.69C108.439 27.2928 107.926 26.7371 107.561 26.0229C107.199 25.3087 107.019 24.4742 107.019 23.5193C107.019 22.5644 107.199 21.7279 107.561 21.0097C107.926 20.2915 108.439 19.7339 109.101 19.3366C109.763 18.9394 110.546 18.7408 111.448 18.7408C112.351 18.7408 113.133 18.9394 113.795 19.3366C114.457 19.7339 114.969 20.2915 115.33 21.0097C115.695 21.7279 115.878 22.5644 115.878 23.5193C115.878 24.4742 115.695 25.3087 115.33 26.0229C114.969 26.7371 114.457 27.2928 113.795 27.69C113.133 28.0872 112.351 28.2858 111.448 28.2858ZM111.46 26.5405C111.95 26.5405 112.359 26.4061 112.688 26.1373C113.017 25.8644 113.262 25.4993 113.422 25.0419C113.587 24.5846 113.669 24.075 113.669 23.5133C113.669 22.9476 113.587 22.436 113.422 21.9787C113.262 21.5173 113.017 21.1501 112.688 20.8773C112.359 20.6045 111.95 20.4681 111.46 20.4681C110.959 20.4681 110.542 20.6045 110.209 20.8773C109.88 21.1501 109.633 21.5173 109.468 21.9787C109.308 22.436 109.228 22.9476 109.228 23.5133C109.228 24.075 109.308 24.5846 109.468 25.0419C109.633 25.4993 109.88 25.8644 110.209 26.1373C110.542 26.4061 110.959 26.5405 111.46 26.5405ZM116.539 20.6486V18.8612H124.627V20.6486H121.636V28.1052H119.53V20.6486H116.539ZM129.844 28.2858C128.941 28.2858 128.159 28.0872 127.497 27.69C126.835 27.2928 126.322 26.7371 125.956 26.0229C125.595 25.3087 125.415 24.4742 125.415 23.5193C125.415 22.5644 125.595 21.7279 125.956 21.0097C126.322 20.2915 126.835 19.7339 127.497 19.3366C128.159 18.9394 128.941 18.7408 129.844 18.7408C130.747 18.7408 131.529 18.9394 132.191 19.3366C132.853 19.7339 133.365 20.2915 133.726 21.0097C134.091 21.7279 134.274 22.5644 134.274 23.5193C134.274 24.4742 134.091 25.3087 133.726 26.0229C133.365 26.7371 132.853 27.2928 132.191 27.69C131.529 28.0872 130.747 28.2858 129.844 28.2858ZM129.856 26.5405C130.346 26.5405 130.755 26.4061 131.084 26.1373C131.413 25.8644 131.658 25.4993 131.818 25.0419C131.983 24.5846 132.065 24.075 132.065 23.5133C132.065 22.9476 131.983 22.436 131.818 21.9787C131.658 21.5173 131.413 21.1501 131.084 20.8773C130.755 20.6045 130.346 20.4681 129.856 20.4681C129.355 20.4681 128.937 20.6045 128.604 20.8773C128.275 21.1501 128.029 21.5173 127.864 21.9787C127.704 22.436 127.623 22.9476 127.623 23.5133C127.623 24.075 127.704 24.5846 127.864 25.0419C128.029 25.4993 128.275 25.8644 128.604 26.1373C128.937 26.4061 129.355 26.5405 129.856 26.5405ZM135.953 28.1052V18.8612H139.835C140.93 18.8612 141.795 19.0799 142.429 19.5172C143.067 19.9545 143.386 20.5644 143.386 21.3467C143.386 21.8643 143.205 22.2876 142.844 22.6166C142.487 22.9416 142 23.1602 141.382 23.2726C141.867 23.3127 142.292 23.4351 142.658 23.6397C143.027 23.8443 143.316 24.1131 143.524 24.4461C143.733 24.7791 143.837 25.1623 143.837 25.5956C143.837 26.1052 143.703 26.5485 143.434 26.9256C143.169 27.2988 142.782 27.5897 142.272 27.7983C141.767 28.0029 141.153 28.1052 140.431 28.1052H135.953ZM137.993 26.39H140.431C140.832 26.39 141.147 26.2957 141.376 26.1072C141.604 25.9146 141.719 25.6538 141.719 25.3248C141.719 24.9436 141.604 24.6447 141.376 24.4281C141.147 24.2074 140.832 24.0971 140.431 24.0971H137.993V26.39ZM137.993 22.6888H139.877C140.174 22.6888 140.429 22.6467 140.641 22.5624C140.854 22.4742 141.017 22.3518 141.129 22.1953C141.241 22.0348 141.297 21.8442 141.297 21.6236C141.297 21.3066 141.167 21.0579 140.906 20.8773C140.649 20.6968 140.292 20.6065 139.835 20.6065H137.993V22.6888ZM149.596 28.1052V15.7799H154.218C155.165 15.7799 155.959 15.9564 156.601 16.3095C157.247 16.6625 157.735 17.148 158.064 17.7659C158.397 18.3797 158.563 19.0779 158.563 19.8602C158.563 20.6506 158.397 21.3528 158.064 21.9666C157.731 22.5805 157.239 23.0639 156.589 23.417C155.939 23.7661 155.139 23.9406 154.188 23.9406H151.125V22.105H153.887C154.441 22.105 154.894 22.0087 155.247 21.8162C155.6 21.6236 155.861 21.3588 156.03 21.0218C156.202 20.6847 156.288 20.2976 156.288 19.8602C156.288 19.4229 156.202 19.0377 156.03 18.7047C155.861 18.3717 155.598 18.1129 155.241 17.9284C154.888 17.7398 154.433 17.6455 153.875 17.6455H151.829V28.1052H149.596ZM161 28.2376C160.635 28.2376 160.322 28.1092 160.061 27.8525C159.8 27.5957 159.672 27.2827 159.676 26.9136C159.672 26.5525 159.8 26.2436 160.061 25.9868C160.322 25.73 160.635 25.6016 161 25.6016C161.353 25.6016 161.66 25.73 161.921 25.9868C162.185 26.2436 162.32 26.5525 162.324 26.9136C162.32 27.1584 162.256 27.381 162.131 27.5816C162.011 27.7822 161.85 27.9427 161.65 28.0631C161.453 28.1794 161.236 28.2376 161 28.2376ZM163.699 28.1052V26.2516L164.049 26.2336C164.522 26.2055 164.897 26.0349 165.174 25.722C165.455 25.4091 165.661 24.9055 165.794 24.2114C165.93 23.5173 166.021 22.5865 166.065 21.419L166.269 15.7799H174.346V28.1052H172.161V17.6154H168.352L168.159 22.1111C168.103 23.4591 167.954 24.5765 167.714 25.4632C167.477 26.3499 167.088 27.0119 166.546 27.4492C166.008 27.8866 165.26 28.1052 164.301 28.1052H163.699ZM177.856 28.2376C177.491 28.2376 177.178 28.1092 176.918 27.8525C176.657 27.5957 176.528 27.2827 176.532 26.9136C176.528 26.5525 176.657 26.2436 176.918 25.9868C177.178 25.73 177.491 25.6016 177.856 25.6016C178.21 25.6016 178.516 25.73 178.777 25.9868C179.042 26.2436 179.176 26.5525 179.18 26.9136C179.176 27.1584 179.112 27.381 178.988 27.5816C178.868 27.7822 178.707 27.9427 178.506 28.0631C178.31 28.1794 178.093 28.2376 177.856 28.2376Z" fill="#F3BC6B" style="fill:#F3BC6B;fill:color(display-p3 0.9529 0.7373 0.4196);fill-opacity:1;"/>
<path d="M76.4762 50.2978C75.6096 50.2978 74.8633 50.0932 74.2374 49.6839C73.6115 49.2747 73.1301 48.711 72.7931 47.9928C72.456 47.2746 72.2875 46.4542 72.2875 45.5314C72.2875 44.5925 72.46 43.764 72.8051 43.0458C73.1542 42.3236 73.6396 41.7599 74.2615 41.3547C74.8874 40.9455 75.6176 40.7408 76.4521 40.7408C77.1021 40.7408 77.6879 40.8612 78.2095 41.1019C78.7311 41.3427 79.1584 41.6797 79.4914 42.113C79.8244 42.5463 80.031 43.0518 80.1112 43.6296H78.6909C78.5826 43.2083 78.3419 42.8352 77.9687 42.5102C77.5996 42.1812 77.1021 42.0167 76.4762 42.0167C75.9225 42.0167 75.4371 42.1611 75.0198 42.45C74.6066 42.7349 74.2836 43.1381 74.0509 43.6597C73.8222 44.1773 73.7078 44.7851 73.7078 45.4832C73.7078 46.1974 73.8202 46.8193 74.0449 47.3489C74.2735 47.8785 74.5945 48.2897 75.0078 48.5826C75.425 48.8755 75.9145 49.0219 76.4762 49.0219C76.8453 49.0219 77.1804 48.9577 77.4813 48.8294C77.7822 48.701 78.037 48.5164 78.2456 48.2757C78.4542 48.0349 78.6027 47.7461 78.6909 47.4091H80.1112C80.031 47.9547 79.8324 48.4462 79.5154 48.8835C79.2025 49.3168 78.7872 49.6619 78.2697 49.9187C77.7561 50.1714 77.1583 50.2978 76.4762 50.2978ZM81.8486 50.1052V40.8612H83.2689V44.8814H84.2077L87.5298 40.8612H89.3594L85.628 45.3147L89.4075 50.1052H87.578L84.5448 46.2054H83.2689V50.1052H81.8486ZM90.6122 53.5717V40.8612H91.9844V42.3297H92.1529C92.2572 42.1692 92.4017 41.9645 92.5862 41.7158C92.7748 41.463 93.0436 41.2383 93.3927 41.0418C93.7457 40.8411 94.2232 40.7408 94.825 40.7408C95.6034 40.7408 96.2894 40.9354 96.8832 41.3246C97.477 41.7138 97.9404 42.2655 98.2735 42.9796C98.6065 43.6938 98.773 44.5363 98.773 45.5073C98.773 46.4863 98.6065 47.3348 98.2735 48.053C97.9404 48.7672 97.479 49.3208 96.8893 49.714C96.2995 50.1032 95.6194 50.2978 94.8491 50.2978C94.2553 50.2978 93.7798 50.1995 93.4227 50.0029C93.0657 49.8023 92.7908 49.5756 92.5982 49.3229C92.4057 49.0661 92.2572 48.8534 92.1529 48.6849H92.0325V53.5717H90.6122ZM92.0085 45.4832C92.0085 46.1813 92.1108 46.7972 92.3154 47.3308C92.52 47.8604 92.8189 48.2757 93.2121 48.5766C93.6053 48.8735 94.0868 49.0219 94.6565 49.0219C95.2503 49.0219 95.7458 48.8655 96.143 48.5525C96.5442 48.2356 96.8451 47.8103 97.0457 47.2767C97.2503 46.739 97.3527 46.1412 97.3527 45.4832C97.3527 44.8332 97.2524 44.2475 97.0517 43.7259C96.8552 43.2003 96.5562 42.785 96.155 42.4801C95.7578 42.1712 95.2583 42.0167 94.6565 42.0167C94.0787 42.0167 93.5933 42.1632 93.2001 42.456C92.8069 42.7449 92.51 43.1501 92.3094 43.6717C92.1088 44.1893 92.0085 44.7931 92.0085 45.4832ZM104.356 50.2978C103.521 50.2978 102.789 50.0992 102.159 49.702C101.533 49.3048 101.044 48.7491 100.691 48.0349C100.342 47.3208 100.167 46.4863 100.167 45.5314C100.167 44.5684 100.342 43.7279 100.691 43.0097C101.044 42.2915 101.533 41.7339 102.159 41.3366C102.789 40.9394 103.521 40.7408 104.356 40.7408C105.19 40.7408 105.921 40.9394 106.547 41.3366C107.177 41.7339 107.666 42.2915 108.015 43.0097C108.368 43.7279 108.545 44.5684 108.545 45.5314C108.545 46.4863 108.368 47.3208 108.015 48.0349C107.666 48.7491 107.177 49.3048 106.547 49.702C105.921 50.0992 105.19 50.2978 104.356 50.2978ZM104.356 49.0219C104.99 49.0219 105.511 48.8594 105.921 48.5345C106.33 48.2095 106.633 47.7822 106.829 47.2526C107.026 46.723 107.124 46.1492 107.124 45.5314C107.124 44.9135 107.026 44.3377 106.829 43.8041C106.633 43.2705 106.33 42.8392 105.921 42.5102C105.511 42.1812 104.99 42.0167 104.356 42.0167C103.722 42.0167 103.2 42.1812 102.791 42.5102C102.382 42.8392 102.079 43.2705 101.882 43.8041C101.686 44.3377 101.588 44.9135 101.588 45.5314C101.588 46.1492 101.686 46.723 101.882 47.2526C102.079 47.7822 102.382 48.2095 102.791 48.5345C103.2 48.8594 103.722 49.0219 104.356 49.0219ZM109.555 50.1052V48.7812H109.892C110.169 48.7812 110.4 48.727 110.584 48.6187C110.769 48.5064 110.917 48.3118 111.03 48.0349C111.146 47.7541 111.234 47.3649 111.295 46.8674C111.359 46.3659 111.405 45.728 111.433 44.9536L111.602 40.8612H117.764V50.1052H116.344V42.1852H112.95L112.805 45.4832C112.773 46.2415 112.705 46.9095 112.601 47.4873C112.5 48.061 112.346 48.5425 112.137 48.9317C111.933 49.3208 111.66 49.6137 111.319 49.8103C110.978 50.0069 110.55 50.1052 110.037 50.1052H109.555ZM119.213 50.1052V48.7812H119.55C119.827 48.7812 120.057 48.727 120.242 48.6187C120.426 48.5064 120.575 48.3118 120.687 48.0349C120.803 47.7541 120.892 47.3649 120.952 46.8674C121.016 46.3659 121.062 45.728 121.09 44.9536L121.259 40.8612H127.422V50.1052H126.001V42.1852H122.607L122.463 45.4832C122.43 46.2415 122.362 46.9095 122.258 47.4873C122.158 48.061 122.003 48.5425 121.794 48.9317C121.59 49.3208 121.317 49.6137 120.976 49.8103C120.635 50.0069 120.208 50.1052 119.694 50.1052H119.213ZM131.109 48.0109L135.562 40.8612H137.199V50.1052H135.779V42.9556L131.35 50.1052H129.688V40.8612H131.109V48.0109ZM138.204 42.1852V40.8612H145.715V42.1852H142.681V50.1052H141.261V42.1852H138.204ZM148.675 44.2073H151.323C152.407 44.2073 153.235 44.4822 153.809 45.0318C154.382 45.5815 154.669 46.2776 154.669 47.1202C154.669 47.6739 154.541 48.1774 154.284 48.6308C154.027 49.0801 153.65 49.4392 153.153 49.708C152.655 49.9728 152.045 50.1052 151.323 50.1052H147.447V40.8612H148.868V48.7812H151.323C151.885 48.7812 152.346 48.6328 152.707 48.3359C153.069 48.039 153.249 47.6578 153.249 47.1924C153.249 46.7029 153.069 46.3037 152.707 45.9948C152.346 45.6858 151.885 45.5314 151.323 45.5314H148.675V44.2073ZM160.39 42.1852V40.8612H167.901V42.1852H164.868V50.1052H163.448V42.1852H160.39ZM170.549 53.5717C170.308 53.5717 170.093 53.5517 169.905 53.5115C169.716 53.4754 169.586 53.4393 169.514 53.4032L169.875 52.1514C170.22 52.2397 170.525 52.2718 170.789 52.2477C171.054 52.2236 171.289 52.1053 171.494 51.8926C171.702 51.684 171.893 51.345 172.065 50.8756L172.33 50.1534L168.912 40.8612H170.452L173.004 48.2275H173.1L175.652 40.8612H177.193L173.269 51.4533C173.092 51.9308 172.874 52.326 172.613 52.6389C172.352 52.9559 172.049 53.1906 171.704 53.343C171.363 53.4955 170.978 53.5717 170.549 53.5717ZM176.964 52.7533V48.7812H177.734C177.923 48.5846 178.085 48.372 178.222 48.1433C178.358 47.9146 178.476 47.6438 178.577 47.3308C178.681 47.0139 178.769 46.6287 178.841 46.1753C178.914 45.7179 178.978 45.1663 179.034 44.5203L179.347 40.8612H185.221V48.7812H186.641V52.7533H185.221V50.1052H178.384V52.7533H176.964ZM179.347 48.7812H183.8V42.1852H180.671L180.43 44.5203C180.33 45.4872 180.206 46.3318 180.057 47.054C179.909 47.7762 179.672 48.3519 179.347 48.7812ZM190.908 50.3219C190.322 50.3219 189.79 50.2115 189.313 49.9909C188.835 49.7662 188.456 49.4432 188.175 49.0219C187.894 48.5967 187.754 48.0831 187.754 47.4813C187.754 46.9517 187.858 46.5224 188.067 46.1934C188.276 45.8604 188.554 45.5996 188.904 45.411C189.253 45.2224 189.638 45.082 190.059 44.9897C190.484 44.8934 190.912 44.8172 191.341 44.761C191.903 44.6888 192.358 44.6346 192.707 44.5985C193.06 44.5584 193.317 44.4922 193.477 44.3999C193.642 44.3077 193.724 44.1472 193.724 43.9185V43.8703C193.724 43.2765 193.562 42.8151 193.237 42.4861C192.916 42.1571 192.428 41.9926 191.774 41.9926C191.096 41.9926 190.565 42.1411 190.179 42.438C189.794 42.7349 189.523 43.0518 189.367 43.3889L188.019 42.9074C188.26 42.3457 188.581 41.9084 188.982 41.5954C189.387 41.2785 189.828 41.0578 190.306 40.9334C190.787 40.805 191.261 40.7408 191.726 40.7408C192.023 40.7408 192.364 40.7769 192.749 40.8492C193.138 40.9174 193.514 41.0598 193.875 41.2765C194.24 41.4931 194.543 41.8201 194.783 42.2574C195.024 42.6948 195.144 43.2805 195.144 44.0148V50.1052H193.724V48.8534H193.652C193.556 49.054 193.395 49.2687 193.17 49.4974C192.946 49.7261 192.647 49.9207 192.274 50.0812C191.901 50.2416 191.445 50.3219 190.908 50.3219ZM191.124 49.046C191.686 49.046 192.159 48.9357 192.545 48.715C192.934 48.4943 193.227 48.2095 193.423 47.8604C193.624 47.5114 193.724 47.1442 193.724 46.7591V45.4591C193.664 45.5314 193.532 45.5976 193.327 45.6577C193.126 45.7139 192.894 45.7641 192.629 45.8082C192.368 45.8483 192.113 45.8844 191.865 45.9165C191.62 45.9446 191.421 45.9687 191.269 45.9887C190.9 46.0369 190.555 46.1151 190.234 46.2235C189.917 46.3278 189.66 46.4863 189.463 46.6989C189.271 46.9075 189.174 47.1924 189.174 47.5535C189.174 48.047 189.357 48.4201 189.722 48.6729C190.091 48.9216 190.559 49.046 191.124 49.046ZM202.694 44.1592V45.4832H197.302V44.1592H202.694ZM208.609 50.2978C207.743 50.2978 206.997 50.0932 206.371 49.6839C205.745 49.2747 205.263 48.711 204.926 47.9928C204.589 47.2746 204.421 46.4542 204.421 45.5314C204.421 44.5925 204.593 43.764 204.938 43.0458C205.287 42.3236 205.773 41.7599 206.395 41.3547C207.021 40.9455 207.751 40.7408 208.585 40.7408C209.235 40.7408 209.821 40.8612 210.343 41.1019C210.864 41.3427 211.292 41.6797 211.625 42.113C211.958 42.5463 212.164 43.0518 212.244 43.6296H210.824C210.716 43.2083 210.475 42.8352 210.102 42.5102C209.733 42.1812 209.235 42.0167 208.609 42.0167C208.056 42.0167 207.57 42.1611 207.153 42.45C206.74 42.7349 206.417 43.1381 206.184 43.6597C205.955 44.1773 205.841 44.7851 205.841 45.4832C205.841 46.1974 205.953 46.8193 206.178 47.3489C206.407 47.8785 206.728 48.2897 207.141 48.5826C207.558 48.8755 208.048 49.0219 208.609 49.0219C208.979 49.0219 209.314 48.9577 209.614 48.8294C209.915 48.701 210.17 48.5164 210.379 48.2757C210.587 48.0349 210.736 47.7461 210.824 47.4091H212.244C212.164 47.9547 211.966 48.4462 211.649 48.8835C211.336 49.3168 210.92 49.6619 210.403 49.9187C209.889 50.1714 209.291 50.2978 208.609 50.2978ZM218.411 44.9055V46.2295H213.524V44.9055H218.411ZM214.728 40.8612V50.1052H213.308V40.8612H214.728ZM221.252 50.2978C220.417 50.2978 219.685 50.0992 219.055 49.702C218.429 49.3048 217.94 48.7491 217.587 48.0349C217.238 47.3208 217.063 46.4863 217.063 45.5314C217.063 44.5684 217.238 43.7279 217.587 43.0097C217.94 42.2915 218.429 41.7339 219.055 41.3366C219.685 40.9394 220.417 40.7408 221.252 40.7408C222.086 40.7408 222.817 40.9394 223.442 41.3366C224.072 41.7339 224.562 42.2915 224.911 43.0097C225.264 43.7279 225.441 44.5684 225.441 45.5314C225.441 46.4863 225.264 47.3208 224.911 48.0349C224.562 48.7491 224.072 49.3048 223.442 49.702C222.817 50.0992 222.086 50.2978 221.252 50.2978ZM221.252 49.0219C221.886 49.0219 222.407 48.8594 222.817 48.5345C223.226 48.2095 223.529 47.7822 223.725 47.2526C223.922 46.723 224.02 46.1492 224.02 45.5314C224.02 44.9135 223.922 44.3377 223.725 43.8041C223.529 43.2705 223.226 42.8392 222.817 42.5102C222.407 42.1812 221.886 42.0167 221.252 42.0167C220.618 42.0167 220.096 42.1812 219.687 42.5102C219.278 42.8392 218.975 43.2705 218.778 43.8041C218.582 44.3377 218.483 44.9135 218.483 45.5314C218.483 46.1492 218.582 46.723 218.778 47.2526C218.975 47.7822 219.278 48.2095 219.687 48.5345C220.096 48.8594 220.618 49.0219 221.252 49.0219ZM226.426 52.7533V48.7812H227.196C227.384 48.5846 227.547 48.372 227.683 48.1433C227.82 47.9146 227.938 47.6438 228.038 47.3308C228.143 47.0139 228.231 46.6287 228.303 46.1753C228.375 45.7179 228.44 45.1663 228.496 44.5203L228.809 40.8612H234.683V48.7812H236.103V52.7533H234.683V50.1052H227.846V52.7533H226.426ZM228.809 48.7812H233.262V42.1852H230.133L229.892 44.5203C229.792 45.4872 229.667 46.3318 229.519 47.054C229.371 47.7762 229.134 48.3519 228.809 48.7812ZM240.369 50.3219C239.784 50.3219 239.252 50.2115 238.775 49.9909C238.297 49.7662 237.918 49.4432 237.637 49.0219C237.356 48.5967 237.216 48.0831 237.216 47.4813C237.216 46.9517 237.32 46.5224 237.529 46.1934C237.737 45.8604 238.016 45.5996 238.365 45.411C238.714 45.2224 239.1 45.082 239.521 44.9897C239.946 44.8934 240.373 44.8172 240.803 44.761C241.364 44.6888 241.82 44.6346 242.169 44.5985C242.522 44.5584 242.779 44.4922 242.939 44.3999C243.104 44.3077 243.186 44.1472 243.186 43.9185V43.8703C243.186 43.2765 243.023 42.8151 242.698 42.4861C242.378 42.1571 241.89 41.9926 241.236 41.9926C240.558 41.9926 240.026 42.1411 239.641 42.438C239.256 42.7349 238.985 43.0518 238.829 43.3889L237.481 42.9074C237.721 42.3457 238.042 41.9084 238.444 41.5954C238.849 41.2785 239.29 41.0578 239.768 40.9334C240.249 40.805 240.722 40.7408 241.188 40.7408C241.485 40.7408 241.826 40.7769 242.211 40.8492C242.6 40.9174 242.975 41.0598 243.336 41.2765C243.702 41.4931 244.004 41.8201 244.245 42.2574C244.486 42.6948 244.606 43.2805 244.606 44.0148V50.1052H243.186V48.8534H243.114C243.017 49.054 242.857 49.2687 242.632 49.4974C242.408 49.7261 242.109 49.9207 241.736 50.0812C241.362 50.2416 240.907 50.3219 240.369 50.3219ZM240.586 49.046C241.148 49.046 241.621 48.9357 242.006 48.715C242.396 48.4943 242.688 48.2095 242.885 47.8604C243.086 47.5114 243.186 47.1442 243.186 46.7591V45.4591C243.126 45.5314 242.993 45.5976 242.789 45.6577C242.588 45.7139 242.355 45.7641 242.091 45.8082C241.83 45.8483 241.575 45.8844 241.326 45.9165C241.082 45.9446 240.883 45.9687 240.731 45.9887C240.361 46.0369 240.016 46.1151 239.695 46.2235C239.378 46.3278 239.122 46.4863 238.925 46.6989C238.732 46.9075 238.636 47.1924 238.636 47.5535C238.636 48.047 238.819 48.4201 239.184 48.6729C239.553 48.9216 240.02 49.046 240.586 49.046ZM250.709 47.7461H252.226C252.258 48.1633 252.447 48.4803 252.792 48.697C253.141 48.9136 253.594 49.0219 254.152 49.0219C254.722 49.0219 255.209 48.9056 255.614 48.6729C256.02 48.4362 256.222 48.055 256.222 47.5294C256.222 47.2205 256.146 46.9517 255.993 46.723C255.841 46.4903 255.626 46.3097 255.349 46.1813C255.073 46.0529 254.746 45.9887 254.369 45.9887H252.78V44.7129H254.369C254.934 44.7129 255.352 44.5845 255.62 44.3277C255.893 44.0709 256.03 43.75 256.03 43.3648C256.03 42.9515 255.883 42.6205 255.59 42.3718C255.297 42.119 254.882 41.9926 254.344 41.9926C253.803 41.9926 253.351 42.115 252.99 42.3597C252.629 42.6005 252.439 42.9114 252.419 43.2926H250.926C250.942 42.7951 251.095 42.3557 251.383 41.9746C251.672 41.5894 252.066 41.2885 252.563 41.0718C253.061 40.8512 253.63 40.7408 254.272 40.7408C254.922 40.7408 255.486 40.8552 255.963 41.0839C256.445 41.3086 256.816 41.6155 257.077 42.0047C257.342 42.3898 257.474 42.8272 257.474 43.3166C257.474 43.8382 257.327 44.2595 257.035 44.5805C256.742 44.9015 256.375 45.1301 255.933 45.2666V45.3628C256.282 45.3869 256.585 45.4993 256.842 45.6999C257.103 45.8965 257.305 46.1553 257.45 46.4762C257.594 46.7932 257.667 47.1442 257.667 47.5294C257.667 48.0911 257.516 48.5806 257.215 48.9979C256.914 49.4111 256.501 49.7321 255.975 49.9608C255.45 50.1855 254.85 50.2978 254.176 50.2978C253.522 50.2978 252.936 50.1915 252.419 49.9788C251.901 49.7622 251.49 49.4633 251.185 49.0821C250.884 48.697 250.725 48.2516 250.709 47.7461ZM262.043 50.3219C261.457 50.3219 260.925 50.2115 260.448 49.9909C259.971 49.7662 259.591 49.4432 259.311 49.0219C259.03 48.5967 258.889 48.0831 258.889 47.4813C258.889 46.9517 258.994 46.5224 259.202 46.1934C259.411 45.8604 259.69 45.5996 260.039 45.411C260.388 45.2224 260.773 45.082 261.194 44.9897C261.62 44.8934 262.047 44.8172 262.476 44.761C263.038 44.6888 263.493 44.6346 263.842 44.5985C264.195 44.5584 264.452 44.4922 264.613 44.3999C264.777 44.3077 264.859 44.1472 264.859 43.9185V43.8703C264.859 43.2765 264.697 42.8151 264.372 42.4861C264.051 42.1571 263.563 41.9926 262.909 41.9926C262.231 41.9926 261.7 42.1411 261.315 42.438C260.929 42.7349 260.659 43.0518 260.502 43.3889L259.154 42.9074C259.395 42.3457 259.716 41.9084 260.117 41.5954C260.522 41.2785 260.964 41.0578 261.441 40.9334C261.922 40.805 262.396 40.7408 262.861 40.7408C263.158 40.7408 263.499 40.7769 263.884 40.8492C264.274 40.9174 264.649 41.0598 265.01 41.2765C265.375 41.4931 265.678 41.8201 265.919 42.2574C266.159 42.6948 266.28 43.2805 266.28 44.0148V50.1052H264.859V48.8534H264.787C264.691 49.054 264.53 49.2687 264.306 49.4974C264.081 49.7261 263.782 49.9207 263.409 50.0812C263.036 50.2416 262.58 50.3219 262.043 50.3219ZM262.26 49.046C262.821 49.046 263.295 48.9357 263.68 48.715C264.069 48.4943 264.362 48.2095 264.558 47.8604C264.759 47.5114 264.859 47.1442 264.859 46.7591V45.4591C264.799 45.5314 264.667 45.5976 264.462 45.6577C264.262 45.7139 264.029 45.7641 263.764 45.8082C263.503 45.8483 263.249 45.8844 263 45.9165C262.755 45.9446 262.556 45.9687 262.404 45.9887C262.035 46.0369 261.69 46.1151 261.369 46.2235C261.052 46.3278 260.795 46.4863 260.598 46.6989C260.406 46.9075 260.31 47.1924 260.31 47.5535C260.31 48.047 260.492 48.4201 260.857 48.6729C261.226 48.9216 261.694 49.046 262.26 49.046ZM267.546 52.7533V48.7812H268.316C268.505 48.5846 268.668 48.372 268.804 48.1433C268.94 47.9146 269.059 47.6438 269.159 47.3308C269.263 47.0139 269.352 46.6287 269.424 46.1753C269.496 45.7179 269.56 45.1663 269.616 44.5203L269.929 40.8612H275.803V48.7812H277.223V52.7533H275.803V50.1052H268.966V52.7533H267.546ZM269.929 48.7812H274.383V42.1852H271.253L271.013 44.5203C270.912 45.4872 270.788 46.3318 270.64 47.054C270.491 47.7762 270.254 48.3519 269.929 48.7812ZM282.525 50.2978C281.691 50.2978 280.958 50.0992 280.328 49.702C279.703 49.3048 279.213 48.7491 278.86 48.0349C278.511 47.3208 278.336 46.4863 278.336 45.5314C278.336 44.5684 278.511 43.7279 278.86 43.0097C279.213 42.2915 279.703 41.7339 280.328 41.3366C280.958 40.9394 281.691 40.7408 282.525 40.7408C283.36 40.7408 284.09 40.9394 284.716 41.3366C285.346 41.7339 285.835 42.2915 286.184 43.0097C286.537 43.7279 286.714 44.5684 286.714 45.5314C286.714 46.4863 286.537 47.3208 286.184 48.0349C285.835 48.7491 285.346 49.3048 284.716 49.702C284.09 50.0992 283.36 50.2978 282.525 50.2978ZM282.525 49.0219C283.159 49.0219 283.681 48.8594 284.09 48.5345C284.499 48.2095 284.802 47.7822 284.999 47.2526C285.195 46.723 285.294 46.1492 285.294 45.5314C285.294 44.9135 285.195 44.3377 284.999 43.8041C284.802 43.2705 284.499 42.8392 284.09 42.5102C283.681 42.1812 283.159 42.0167 282.525 42.0167C281.891 42.0167 281.37 42.1812 280.96 42.5102C280.551 42.8392 280.248 43.2705 280.052 43.8041C279.855 44.3377 279.757 44.9135 279.757 45.5314C279.757 46.1492 279.855 46.723 280.052 47.2526C280.248 47.7822 280.551 48.2095 280.96 48.5345C281.37 48.8594 281.891 49.0219 282.525 49.0219ZM287.724 50.1052V48.7812H288.061C288.338 48.7812 288.569 48.727 288.754 48.6187C288.938 48.5064 289.087 48.3118 289.199 48.0349C289.315 47.7541 289.404 47.3649 289.464 46.8674C289.528 46.3659 289.574 45.728 289.602 44.9536L289.771 40.8612H295.933V50.1052H294.513V42.1852H291.119L290.974 45.4832C290.942 46.2415 290.874 46.9095 290.77 47.4873C290.669 48.061 290.515 48.5425 290.306 48.9317C290.102 49.3208 289.829 49.6137 289.488 49.8103C289.147 50.0069 288.719 50.1052 288.206 50.1052H287.724ZM305.061 37.3947L305.783 38.2613C305.502 38.5342 305.177 38.7247 304.808 38.8331C304.439 38.9414 304.022 39.0076 303.557 39.0317C303.091 39.0557 302.574 39.0798 302.004 39.1039C301.362 39.128 300.83 39.2844 300.409 39.5733C299.988 39.8622 299.663 40.2794 299.434 40.8251C299.205 41.3707 299.059 42.0408 298.995 42.8352H299.115C299.428 42.2574 299.861 41.8321 300.415 41.5593C300.969 41.2865 301.562 41.1501 302.196 41.1501C302.919 41.1501 303.569 41.3186 304.146 41.6556C304.724 41.9926 305.181 42.4921 305.518 43.1542C305.855 43.8162 306.024 44.6326 306.024 45.6036C306.024 46.5705 305.851 47.405 305.506 48.1072C305.165 48.8093 304.686 49.3509 304.068 49.7321C303.454 50.1092 302.734 50.2978 301.908 50.2978C301.081 50.2978 300.357 50.1032 299.735 49.714C299.113 49.3208 298.63 48.7391 298.285 47.9687C297.939 47.1944 297.767 46.2375 297.767 45.098V44.1111C297.767 42.0528 298.116 40.4921 298.814 39.4289C299.516 38.3656 300.571 37.816 301.98 37.7799C302.477 37.7638 302.921 37.7598 303.31 37.7678C303.699 37.7759 304.038 37.7578 304.327 37.7137C304.616 37.6695 304.86 37.5632 305.061 37.3947ZM301.908 49.0219C302.465 49.0219 302.945 48.8815 303.346 48.6007C303.751 48.3198 304.062 47.9246 304.279 47.4151C304.495 46.9015 304.604 46.2977 304.604 45.6036C304.604 44.9295 304.493 44.3558 304.273 43.8824C304.056 43.4089 303.745 43.0478 303.34 42.7991C302.935 42.5503 302.449 42.4259 301.883 42.4259C301.47 42.4259 301.099 42.4962 300.77 42.6366C300.441 42.777 300.16 42.9836 299.928 43.2565C299.695 43.5293 299.514 43.8623 299.386 44.2555C299.262 44.6487 299.195 45.098 299.187 45.6036C299.187 46.6387 299.43 47.4672 299.915 48.0891C300.401 48.711 301.065 49.0219 301.908 49.0219ZM310.578 50.3219C309.992 50.3219 309.46 50.2115 308.983 49.9909C308.506 49.7662 308.126 49.4432 307.846 49.0219C307.565 48.5967 307.424 48.0831 307.424 47.4813C307.424 46.9517 307.529 46.5224 307.737 46.1934C307.946 45.8604 308.225 45.5996 308.574 45.411C308.923 45.2224 309.308 45.082 309.729 44.9897C310.155 44.8934 310.582 44.8172 311.011 44.761C311.573 44.6888 312.028 44.6346 312.377 44.5985C312.73 44.5584 312.987 44.4922 313.148 44.3999C313.312 44.3077 313.394 44.1472 313.394 43.9185V43.8703C313.394 43.2765 313.232 42.8151 312.907 42.4861C312.586 42.1571 312.098 41.9926 311.445 41.9926C310.766 41.9926 310.235 42.1411 309.85 42.438C309.465 42.7349 309.194 43.0518 309.037 43.3889L307.689 42.9074C307.93 42.3457 308.251 41.9084 308.652 41.5954C309.057 41.2785 309.499 41.0578 309.976 40.9334C310.458 40.805 310.931 40.7408 311.396 40.7408C311.693 40.7408 312.034 40.7769 312.419 40.8492C312.809 40.9174 313.184 41.0598 313.545 41.2765C313.91 41.4931 314.213 41.8201 314.454 42.2574C314.694 42.6948 314.815 43.2805 314.815 44.0148V50.1052H313.394V48.8534H313.322C313.226 49.054 313.065 49.2687 312.841 49.4974C312.616 49.7261 312.317 49.9207 311.944 50.0812C311.571 50.2416 311.116 50.3219 310.578 50.3219ZM310.795 49.046C311.356 49.046 311.83 48.9357 312.215 48.715C312.604 48.4943 312.897 48.2095 313.094 47.8604C313.294 47.5114 313.394 47.1442 313.394 46.7591V45.4591C313.334 45.5314 313.202 45.5976 312.997 45.6577C312.797 45.7139 312.564 45.7641 312.299 45.8082C312.038 45.8483 311.784 45.8844 311.535 45.9165C311.29 45.9446 311.091 45.9687 310.939 45.9887C310.57 46.0369 310.225 46.1151 309.904 46.2235C309.587 46.3278 309.33 46.4863 309.134 46.6989C308.941 46.9075 308.845 47.1924 308.845 47.5535C308.845 48.047 309.027 48.4201 309.392 48.6729C309.761 48.9216 310.229 49.046 310.795 49.046ZM316.25 50.1052V48.7812H316.587C316.864 48.7812 317.094 48.727 317.279 48.6187C317.463 48.5064 317.612 48.3118 317.724 48.0349C317.84 47.7541 317.929 47.3649 317.989 46.8674C318.053 46.3659 318.099 45.728 318.127 44.9536L318.296 40.8612H324.459V50.1052H323.038V42.1852H319.644L319.499 45.4832C319.467 46.2415 319.399 46.9095 319.295 47.4873C319.195 48.061 319.04 48.5425 318.831 48.9317C318.627 49.3208 318.354 49.6137 318.013 49.8103C317.672 50.0069 317.245 50.1052 316.731 50.1052H316.25ZM330.481 50.2978C329.614 50.2978 328.868 50.0932 328.242 49.6839C327.616 49.2747 327.135 48.711 326.798 47.9928C326.461 47.2746 326.292 46.4542 326.292 45.5314C326.292 44.5925 326.465 43.764 326.81 43.0458C327.159 42.3236 327.644 41.7599 328.266 41.3547C328.892 40.9455 329.622 40.7408 330.457 40.7408C331.107 40.7408 331.693 40.8612 332.214 41.1019C332.736 41.3427 333.163 41.6797 333.496 42.113C333.829 42.5463 334.036 43.0518 334.116 43.6296H332.696C332.587 43.2083 332.347 42.8352 331.973 42.5102C331.604 42.1812 331.107 42.0167 330.481 42.0167C329.927 42.0167 329.442 42.1611 329.024 42.45C328.611 42.7349 328.288 43.1381 328.056 43.6597C327.827 44.1773 327.712 44.7851 327.712 45.4832C327.712 46.1974 327.825 46.8193 328.049 47.3489C328.278 47.8785 328.599 48.2897 329.012 48.5826C329.43 48.8755 329.919 49.0219 330.481 49.0219C330.85 49.0219 331.185 48.9577 331.486 48.8294C331.787 48.701 332.042 48.5164 332.25 48.2757C332.459 48.0349 332.607 47.7461 332.696 47.4091H334.116C334.036 47.9547 333.837 48.4462 333.52 48.8835C333.207 49.3168 332.792 49.6619 332.274 49.9187C331.761 50.1714 331.163 50.2978 330.481 50.2978ZM341.414 50.1052V42.1611H338.959C338.405 42.1611 337.97 42.2895 337.653 42.5463C337.336 42.8031 337.177 43.1562 337.177 43.6055C337.177 44.0469 337.32 44.3939 337.605 44.6467C337.893 44.8994 338.289 45.0258 338.79 45.0258H341.775V46.3498H338.79C338.164 46.3498 337.625 46.2395 337.171 46.0188C336.718 45.7982 336.369 45.4832 336.124 45.074C335.879 44.6607 335.757 44.1712 335.757 43.6055C335.757 43.0358 335.885 42.5463 336.142 42.1371C336.399 41.7278 336.766 41.4129 337.243 41.1922C337.725 40.9715 338.297 40.8612 338.959 40.8612H342.762V50.1052H341.414ZM335.251 50.1052L337.875 45.5073H339.416L336.792 50.1052H335.251ZM347.149 48.4201L347.053 49.0701C346.985 49.5275 346.88 50.017 346.74 50.5385C346.603 51.0601 346.461 51.5516 346.313 52.013C346.164 52.4744 346.042 52.8415 345.945 53.1143H344.862C344.914 52.8576 344.982 52.5185 345.067 52.0973C345.151 51.676 345.235 51.2046 345.319 50.683C345.408 50.1654 345.48 49.6358 345.536 49.0942L345.608 48.4201H347.149ZM353.869 50.1052V40.8612H357.649C358.644 40.8612 359.434 41.0859 360.02 41.5352C360.606 41.9846 360.898 42.5784 360.898 43.3166C360.898 43.8784 360.732 44.3137 360.399 44.6226C360.066 44.9275 359.639 45.1342 359.117 45.2425C359.458 45.2906 359.789 45.411 360.11 45.6036C360.435 45.7962 360.704 46.061 360.916 46.398C361.129 46.731 361.235 47.1402 361.235 47.6257C361.235 48.0991 361.115 48.5224 360.874 48.8956C360.634 49.2687 360.289 49.5636 359.839 49.7802C359.39 49.9969 358.852 50.1052 358.226 50.1052H353.869ZM355.217 48.8053H358.226C358.716 48.8053 359.099 48.6889 359.376 48.4562C359.653 48.2235 359.791 47.9066 359.791 47.5053C359.791 47.0279 359.653 46.6528 359.376 46.3799C359.099 46.1031 358.716 45.9647 358.226 45.9647H355.217V48.8053ZM355.217 44.737H357.649C358.03 44.737 358.357 44.6848 358.63 44.5805C358.902 44.4722 359.111 44.3197 359.255 44.1231C359.404 43.9225 359.478 43.6858 359.478 43.4129C359.478 43.0238 359.316 42.7188 358.991 42.4982C358.666 42.2735 358.218 42.1611 357.649 42.1611H355.217V44.737ZM366.802 50.2978C365.967 50.2978 365.235 50.0992 364.605 49.702C363.979 49.3048 363.49 48.7491 363.137 48.0349C362.788 47.3208 362.613 46.4863 362.613 45.5314C362.613 44.5684 362.788 43.7279 363.137 43.0097C363.49 42.2915 363.979 41.7339 364.605 41.3366C365.235 40.9394 365.967 40.7408 366.802 40.7408C367.636 40.7408 368.367 40.9394 368.992 41.3366C369.622 41.7339 370.112 42.2915 370.461 43.0097C370.814 43.7279 370.991 44.5684 370.991 45.5314C370.991 46.4863 370.814 47.3208 370.461 48.0349C370.112 48.7491 369.622 49.3048 368.992 49.702C368.367 50.0992 367.636 50.2978 366.802 50.2978ZM366.802 49.0219C367.436 49.0219 367.957 48.8594 368.367 48.5345C368.776 48.2095 369.079 47.7822 369.275 47.2526C369.472 46.723 369.57 46.1492 369.57 45.5314C369.57 44.9135 369.472 44.3377 369.275 43.8041C369.079 43.2705 368.776 42.8392 368.367 42.5102C367.957 42.1812 367.436 42.0167 366.802 42.0167C366.168 42.0167 365.646 42.1812 365.237 42.5102C364.828 42.8392 364.525 43.2705 364.328 43.8041C364.132 44.3377 364.033 44.9135 364.033 45.5314C364.033 46.1492 364.132 46.723 364.328 47.2526C364.525 47.7822 364.828 48.2095 365.237 48.5345C365.646 48.8594 366.168 49.0219 366.802 49.0219ZM376.575 50.2978C375.741 50.2978 375.008 50.0992 374.378 49.702C373.753 49.3048 373.263 48.7491 372.91 48.0349C372.561 47.3208 372.386 46.4863 372.386 45.5314C372.386 44.5684 372.561 43.7279 372.91 43.0097C373.263 42.2915 373.753 41.7339 374.378 41.3366C375.008 40.9394 375.741 40.7408 376.575 40.7408C377.41 40.7408 378.14 40.9394 378.766 41.3366C379.396 41.7339 379.885 42.2915 380.234 43.0097C380.587 43.7279 380.764 44.5684 380.764 45.5314C380.764 46.4863 380.587 47.3208 380.234 48.0349C379.885 48.7491 379.396 49.3048 378.766 49.702C378.14 50.0992 377.41 50.2978 376.575 50.2978ZM376.575 49.0219C377.209 49.0219 377.731 48.8594 378.14 48.5345C378.549 48.2095 378.852 47.7822 379.049 47.2526C379.245 46.723 379.343 46.1492 379.343 45.5314C379.343 44.9135 379.245 44.3377 379.049 43.8041C378.852 43.2705 378.549 42.8392 378.14 42.5102C377.731 42.1812 377.209 42.0167 376.575 42.0167C375.941 42.0167 375.42 42.1812 375.01 42.5102C374.601 42.8392 374.298 43.2705 374.102 43.8041C373.905 44.3377 373.807 44.9135 373.807 45.5314C373.807 46.1492 373.905 46.723 374.102 47.2526C374.298 47.7822 374.601 48.2095 375.01 48.5345C375.42 48.8594 375.941 49.0219 376.575 49.0219ZM389.454 37.3947L390.176 38.2613C389.895 38.5342 389.57 38.7247 389.201 38.8331C388.832 38.9414 388.415 39.0076 387.949 39.0317C387.484 39.0557 386.966 39.0798 386.396 39.1039C385.754 39.128 385.223 39.2844 384.802 39.5733C384.38 39.8622 384.055 40.2794 383.827 40.8251C383.598 41.3707 383.451 42.0408 383.387 42.8352H383.508C383.821 42.2574 384.254 41.8321 384.808 41.5593C385.361 41.2865 385.955 41.1501 386.589 41.1501C387.311 41.1501 387.961 41.3186 388.539 41.6556C389.117 41.9926 389.574 42.4921 389.911 43.1542C390.248 43.8162 390.417 44.6326 390.417 45.6036C390.417 46.5705 390.244 47.405 389.899 48.1072C389.558 48.8093 389.079 49.3509 388.461 49.7321C387.847 50.1092 387.127 50.2978 386.3 50.2978C385.474 50.2978 384.749 50.1032 384.128 49.714C383.506 49.3208 383.022 48.7391 382.677 47.9687C382.332 47.1944 382.16 46.2375 382.16 45.098V44.1111C382.16 42.0528 382.509 40.4921 383.207 39.4289C383.909 38.3656 384.964 37.816 386.372 37.7799C386.87 37.7638 387.313 37.7598 387.702 37.7678C388.092 37.7759 388.431 37.7578 388.719 37.7137C389.008 37.6695 389.253 37.5632 389.454 37.3947ZM386.3 49.0219C386.858 49.0219 387.337 48.8815 387.738 48.6007C388.144 48.3198 388.455 47.9246 388.671 47.4151C388.888 46.9015 388.996 46.2977 388.996 45.6036C388.996 44.9295 388.886 44.3558 388.665 43.8824C388.449 43.4089 388.138 43.0478 387.732 42.7991C387.327 42.5503 386.842 42.4259 386.276 42.4259C385.863 42.4259 385.492 42.4962 385.163 42.6366C384.834 42.777 384.553 42.9836 384.32 43.2565C384.087 43.5293 383.907 43.8623 383.778 44.2555C383.654 44.6487 383.588 45.098 383.58 45.6036C383.58 46.6387 383.823 47.4672 384.308 48.0891C384.794 48.711 385.458 49.0219 386.3 49.0219ZM404.864 48.7812L404.696 52.7533H403.227V50.1052H402.024V48.7812H404.864ZM392.25 40.8612H393.671V48.7812H397.161V40.8612H398.581V48.7812H402.072V40.8612H403.492V50.1052H392.25V40.8612ZM410.368 50.2978C409.477 50.2978 408.709 50.1012 408.063 49.708C407.421 49.3108 406.925 48.7571 406.576 48.047C406.231 47.3328 406.059 46.5023 406.059 45.5554C406.059 44.6086 406.231 43.774 406.576 43.0518C406.925 42.3256 407.411 41.7599 408.033 41.3547C408.659 40.9455 409.389 40.7408 410.223 40.7408C410.705 40.7408 411.18 40.8211 411.65 40.9816C412.119 41.1421 412.546 41.4028 412.932 41.7639C413.317 42.121 413.624 42.5945 413.852 43.1842C414.081 43.774 414.195 44.5002 414.195 45.3628V45.9647H407.07V44.737H412.751C412.751 44.2154 412.647 43.75 412.438 43.3407C412.233 42.9315 411.941 42.6085 411.559 42.3718C411.182 42.1351 410.737 42.0167 410.223 42.0167C409.658 42.0167 409.168 42.1571 408.755 42.438C408.346 42.7148 408.031 43.0759 407.81 43.5213C407.589 43.9666 407.479 44.4441 407.479 44.9536V45.7721C407.479 46.4702 407.599 47.062 407.84 47.5475C408.085 48.0289 408.424 48.396 408.857 48.6488C409.29 48.8976 409.794 49.0219 410.368 49.0219C410.741 49.0219 411.078 48.9698 411.379 48.8655C411.684 48.7571 411.947 48.5967 412.167 48.384C412.388 48.1674 412.558 47.8985 412.679 47.5776L414.051 47.9627C413.906 48.4281 413.664 48.8374 413.323 49.1905C412.982 49.5395 412.56 49.8123 412.059 50.0089C411.557 50.2015 410.994 50.2978 410.368 50.2978ZM426.631 44.8332V46.1573H421.528V44.8332H426.631ZM421.865 40.8612V50.1052H420.444V40.8612H421.865ZM427.714 40.8612V50.1052H426.294V40.8612H427.714ZM433.845 50.2978C432.954 50.2978 432.186 50.1012 431.54 49.708C430.898 49.3108 430.403 48.7571 430.054 48.047C429.709 47.3328 429.536 46.5023 429.536 45.5554C429.536 44.6086 429.709 43.774 430.054 43.0518C430.403 42.3256 430.888 41.7599 431.51 41.3547C432.136 40.9455 432.866 40.7408 433.701 40.7408C434.182 40.7408 434.658 40.8211 435.127 40.9816C435.596 41.1421 436.024 41.4028 436.409 41.7639C436.794 42.121 437.101 42.5945 437.33 43.1842C437.558 43.774 437.673 44.5002 437.673 45.3628V45.9647H430.547V44.737H436.228C436.228 44.2154 436.124 43.75 435.915 43.3407C435.711 42.9315 435.418 42.6085 435.037 42.3718C434.66 42.1351 434.214 42.0167 433.701 42.0167C433.135 42.0167 432.645 42.1571 432.232 42.438C431.823 42.7148 431.508 43.0759 431.287 43.5213C431.067 43.9666 430.956 44.4441 430.956 44.9536V45.7721C430.956 46.4702 431.077 47.062 431.317 47.5475C431.562 48.0289 431.901 48.396 432.335 48.6488C432.768 48.8976 433.271 49.0219 433.845 49.0219C434.218 49.0219 434.555 48.9698 434.856 48.8655C435.161 48.7571 435.424 48.5967 435.645 48.384C435.865 48.1674 436.036 47.8985 436.156 47.5776L437.528 47.9627C437.384 48.4281 437.141 48.8374 436.8 49.1905C436.459 49.5395 436.038 49.8123 435.536 50.0089C435.035 50.2015 434.471 50.2978 433.845 50.2978ZM72.7208 73.1052V63.8612H76.5003C77.4953 63.8612 78.2857 64.0859 78.8715 64.5352C79.4573 64.9846 79.7501 65.5784 79.7501 66.3166C79.7501 66.8784 79.5836 67.3137 79.2506 67.6226C78.9176 67.9275 78.4903 68.1342 77.9687 68.2425C78.3098 68.2906 78.6408 68.411 78.9618 68.6036C79.2867 68.7962 79.5556 69.061 79.7682 69.398C79.9808 69.731 80.0872 70.1402 80.0872 70.6257C80.0872 71.0991 79.9668 71.5224 79.7261 71.8956C79.4853 72.2687 79.1403 72.5636 78.6909 72.7802C78.2416 72.9969 77.7039 73.1052 77.078 73.1052H72.7208ZM74.0689 71.8053H77.078C77.5675 71.8053 77.9507 71.6889 78.2275 71.4562C78.5044 71.2235 78.6428 70.9066 78.6428 70.5053C78.6428 70.0279 78.5044 69.6528 78.2275 69.3799C77.9507 69.1031 77.5675 68.9647 77.078 68.9647H74.0689V71.8053ZM74.0689 67.737H76.5003C76.8814 67.737 77.2084 67.6848 77.4813 67.5805C77.7541 67.4722 77.9627 67.3197 78.1072 67.1231C78.2556 66.9225 78.3298 66.6858 78.3298 66.4129C78.3298 66.0238 78.1673 65.7188 77.8424 65.4982C77.5174 65.2735 77.07 65.1611 76.5003 65.1611H74.0689V67.737ZM84.6185 73.3219C84.0327 73.3219 83.5011 73.2115 83.0236 72.9909C82.5462 72.7662 82.1671 72.4432 81.8862 72.0219C81.6053 71.5967 81.4649 71.0831 81.4649 70.4813C81.4649 69.9517 81.5692 69.5224 81.7779 69.1934C81.9865 68.8604 82.2653 68.5996 82.6144 68.411C82.9635 68.2224 83.3486 68.082 83.7699 67.9897C84.1952 67.8934 84.6225 67.8172 85.0518 67.761C85.6135 67.6888 86.0689 67.6346 86.4179 67.5985C86.771 67.5584 87.0278 67.4922 87.1883 67.3999C87.3528 67.3077 87.435 67.1472 87.435 66.9185V66.8703C87.435 66.2765 87.2725 65.8151 86.9475 65.4861C86.6266 65.1571 86.1391 64.9926 85.4851 64.9926C84.8071 64.9926 84.2754 65.1411 83.8903 65.438C83.5051 65.7349 83.2343 66.0518 83.0778 66.3889L81.7297 65.9074C81.9705 65.3457 82.2914 64.9084 82.6926 64.5954C83.0979 64.2785 83.5392 64.0578 84.0167 63.9334C84.4981 63.805 84.9716 63.7408 85.437 63.7408C85.7339 63.7408 86.0749 63.7769 86.4601 63.8492C86.8492 63.9174 87.2244 64.0598 87.5855 64.2765C87.9506 64.4931 88.2535 64.8201 88.4942 65.2574C88.735 65.6948 88.8553 66.2805 88.8553 67.0148V73.1052H87.435V71.8534H87.3628C87.2665 72.054 87.106 72.2687 86.8813 72.4974C86.6567 72.7261 86.3578 72.9207 85.9846 73.0812C85.6115 73.2416 85.1561 73.3219 84.6185 73.3219ZM84.8351 72.046C85.3968 72.046 85.8703 71.9357 86.2554 71.715C86.6446 71.4943 86.9375 71.2095 87.1341 70.8604C87.3347 70.5114 87.435 70.1442 87.435 69.7591V68.4591C87.3748 68.5314 87.2424 68.5976 87.0378 68.6577C86.8372 68.7139 86.6045 68.7641 86.3397 68.8082C86.0789 68.8483 85.8241 68.8844 85.5754 68.9165C85.3306 68.9446 85.132 68.9687 84.9796 68.9887C84.6105 69.0369 84.2654 69.1151 83.9444 69.2235C83.6275 69.3278 83.3707 69.4863 83.1741 69.6989C82.9815 69.9075 82.8852 70.1924 82.8852 70.5535C82.8852 71.047 83.0678 71.4201 83.4329 71.6729C83.802 71.9216 84.2694 72.046 84.8351 72.046ZM91.1087 76.5717V63.8612H92.4809V65.3297H92.6494C92.7537 65.1692 92.8982 64.9645 93.0827 64.7158C93.2713 64.463 93.5401 64.2383 93.8892 64.0418C94.2422 63.8411 94.7197 63.7408 95.3215 63.7408C96.0999 63.7408 96.7859 63.9354 97.3797 64.3246C97.9735 64.7138 98.4369 65.2655 98.77 65.9796C99.103 66.6938 99.2695 67.5363 99.2695 68.5073C99.2695 69.4863 99.103 70.3348 98.77 71.053C98.4369 71.7672 97.9755 72.3208 97.3858 72.714C96.796 73.1032 96.1159 73.2978 95.3456 73.2978C94.7518 73.2978 94.2763 73.1995 93.9193 73.0029C93.5622 72.8023 93.2873 72.5756 93.0948 72.3229C92.9022 72.0661 92.7537 71.8534 92.6494 71.6849H92.529V76.5717H91.1087ZM92.505 68.4832C92.505 69.1813 92.6073 69.7972 92.8119 70.3308C93.0165 70.8604 93.3154 71.2757 93.7086 71.5766C94.1018 71.8735 94.5833 72.0219 95.153 72.0219C95.7468 72.0219 96.2423 71.8655 96.6395 71.5525C97.0407 71.2356 97.3416 70.8103 97.5422 70.2767C97.7469 69.739 97.8492 69.1412 97.8492 68.4832C97.8492 67.8332 97.7489 67.2475 97.5483 66.7259C97.3517 66.2003 97.0528 65.785 96.6515 65.4801C96.2543 65.1712 95.7548 65.0167 95.153 65.0167C94.5752 65.0167 94.0898 65.1632 93.6966 65.456C93.3034 65.7449 93.0065 66.1501 92.8059 66.6717C92.6053 67.1893 92.505 67.7931 92.505 68.4832ZM102.517 71.0109L106.971 63.8612H108.608V73.1052H107.188V65.9556L102.758 73.1052H101.097V63.8612H102.517V71.0109ZM113.591 73.3219C113.005 73.3219 112.473 73.2115 111.996 72.9909C111.518 72.7662 111.139 72.4432 110.858 72.0219C110.577 71.5967 110.437 71.0831 110.437 70.4813C110.437 69.9517 110.541 69.5224 110.75 69.1934C110.959 68.8604 111.237 68.5996 111.586 68.411C111.936 68.2224 112.321 68.082 112.742 67.9897C113.167 67.8934 113.595 67.8172 114.024 67.761C114.586 67.6888 115.041 67.6346 115.39 67.5985C115.743 67.5584 116 67.4922 116.16 67.3999C116.325 67.3077 116.407 67.1472 116.407 66.9185V66.8703C116.407 66.2765 116.245 65.8151 115.92 65.4861C115.599 65.1571 115.111 64.9926 114.457 64.9926C113.779 64.9926 113.247 65.1411 112.862 65.438C112.477 65.7349 112.206 66.0518 112.05 66.3889L110.702 65.9074C110.943 65.3457 111.263 64.9084 111.665 64.5954C112.07 64.2785 112.511 64.0578 112.989 63.9334C113.47 63.805 113.944 63.7408 114.409 63.7408C114.706 63.7408 115.047 63.7769 115.432 63.8492C115.821 63.9174 116.196 64.0598 116.558 64.2765C116.923 64.4931 117.226 64.8201 117.466 65.2574C117.707 65.6948 117.827 66.2805 117.827 67.0148V73.1052H116.407V71.8534H116.335C116.239 72.054 116.078 72.2687 115.853 72.4974C115.629 72.7261 115.33 72.9207 114.957 73.0812C114.584 73.2416 114.128 73.3219 113.591 73.3219ZM113.807 72.046C114.369 72.046 114.842 71.9357 115.227 71.715C115.617 71.4943 115.91 71.2095 116.106 70.8604C116.307 70.5114 116.407 70.1442 116.407 69.7591V68.4591C116.347 68.5314 116.214 68.5976 116.01 68.6577C115.809 68.7139 115.577 68.7641 115.312 68.8082C115.051 68.8483 114.796 68.8844 114.547 68.9165C114.303 68.9446 114.104 68.9687 113.952 68.9887C113.583 69.0369 113.237 69.1151 112.916 69.2235C112.6 69.3278 112.343 69.4863 112.146 69.6989C111.954 69.9075 111.857 70.1924 111.857 70.5535C111.857 71.047 112.04 71.4201 112.405 71.6729C112.774 71.9216 113.241 72.046 113.807 72.046ZM126.268 67.8332V69.1573H121.164V67.8332H126.268ZM121.501 63.8612V73.1052H120.081V63.8612H121.501ZM127.351 63.8612V73.1052H125.931V63.8612H127.351ZM128.348 65.1852V63.8612H135.859V65.1852H132.826V73.1052H131.405V65.1852H128.348Z" fill="#F5F5F5" style="fill:#F5F5F5;fill:color(display-p3 0.9625 0.9625 0.9625);fill-opacity:1;"/>
<path d="M514.013 80.3265C513.186 80.3265 512.456 80.18 511.822 79.8871C511.192 79.5902 510.701 79.183 510.348 78.6654C509.995 78.1439 509.82 77.5501 509.824 76.884C509.82 76.3625 509.922 75.881 510.131 75.4397C510.34 74.9943 510.625 74.6232 510.986 74.3263C511.351 74.0254 511.758 73.8348 512.207 73.7545V73.6823C511.618 73.5299 511.148 73.1989 510.799 72.6893C510.45 72.1758 510.278 71.592 510.282 70.938C510.278 70.3121 510.436 69.7524 510.757 69.2589C511.078 68.7654 511.519 68.3762 512.081 68.0914C512.647 67.8065 513.291 67.6641 514.013 67.6641C514.727 67.6641 515.365 67.8065 515.927 68.0914C516.488 68.3762 516.93 68.7654 517.251 69.2589C517.576 69.7524 517.74 70.3121 517.744 70.938C517.74 71.592 517.562 72.1758 517.209 72.6893C516.86 73.1989 516.396 73.5299 515.818 73.6823V73.7545C516.264 73.8348 516.665 74.0254 517.022 74.3263C517.379 74.6232 517.664 74.9943 517.877 75.4397C518.089 75.881 518.198 76.3625 518.202 76.884C518.198 77.5501 518.017 78.1439 517.66 78.6654C517.307 79.183 516.815 79.5902 516.185 79.8871C515.56 80.18 514.835 80.3265 514.013 80.3265ZM514.013 79.0025C514.571 79.0025 515.052 78.9122 515.457 78.7316C515.863 78.5511 516.175 78.2963 516.396 77.9673C516.617 77.6383 516.729 77.2532 516.733 76.8118C516.729 76.3464 516.609 75.9352 516.372 75.5781C516.135 75.221 515.812 74.9401 515.403 74.7355C514.998 74.5309 514.534 74.4286 514.013 74.4286C513.487 74.4286 513.018 74.5309 512.605 74.7355C512.195 74.9401 511.872 75.221 511.636 75.5781C511.403 75.9352 511.289 76.3464 511.293 76.8118C511.289 77.2532 511.395 77.6383 511.612 77.9673C511.832 78.2963 512.147 78.5511 512.556 78.7316C512.966 78.9122 513.451 79.0025 514.013 79.0025ZM514.013 73.1527C514.454 73.1527 514.845 73.0645 515.186 72.8879C515.531 72.7114 515.802 72.4646 515.999 72.1477C516.196 71.8307 516.296 71.4596 516.3 71.0343C516.296 70.617 516.198 70.2539 516.005 69.945C515.812 69.6321 515.546 69.3913 515.205 69.2228C514.863 69.0503 514.466 68.964 514.013 68.964C513.551 68.964 513.148 69.0503 512.803 69.2228C512.458 69.3913 512.191 69.6321 512.003 69.945C511.814 70.2539 511.722 70.617 511.726 71.0343C511.722 71.4596 511.816 71.8307 512.009 72.1477C512.205 72.4646 512.476 72.7114 512.821 72.8879C513.166 73.0645 513.564 73.1527 514.013 73.1527ZM520.55 78.5812C520.254 78.5812 519.999 78.4749 519.786 78.2622C519.573 78.0496 519.467 77.7948 519.467 77.4979C519.467 77.201 519.573 76.9462 519.786 76.7336C519.999 76.5209 520.254 76.4146 520.55 76.4146C520.847 76.4146 521.102 76.5209 521.315 76.7336C521.527 76.9462 521.634 77.201 521.634 77.4979C521.634 77.6945 521.584 77.875 521.483 78.0395C521.387 78.204 521.257 78.3364 521.092 78.4367C520.932 78.533 520.751 78.5812 520.55 78.5812ZM520.55 72.3463C520.254 72.3463 519.999 72.24 519.786 72.0273C519.573 71.8147 519.467 71.5599 519.467 71.263C519.467 70.9661 519.573 70.7113 519.786 70.4987C519.999 70.286 520.254 70.1797 520.55 70.1797C520.847 70.1797 521.102 70.286 521.315 70.4987C521.527 70.7113 521.634 70.9661 521.634 71.263C521.634 71.4596 521.584 71.6401 521.483 71.8046C521.387 71.9691 521.257 72.1015 521.092 72.2018C520.932 72.2981 520.751 72.3463 520.55 72.3463ZM527.475 67.8326V80.158H525.982V69.3973H525.91L522.901 71.3954V69.8788L525.982 67.8326H527.475ZM530.003 80.158V79.0747L534.071 74.6212C534.548 74.0996 534.942 73.6462 535.25 73.2611C535.559 72.8719 535.788 72.5068 535.937 72.1657C536.089 71.8207 536.165 71.4596 536.165 71.0825C536.165 70.6491 536.061 70.274 535.852 69.957C535.648 69.6401 535.367 69.3953 535.01 69.2228C534.653 69.0503 534.251 68.964 533.806 68.964C533.333 68.964 532.919 69.0623 532.566 69.2589C532.217 69.4515 531.946 69.7223 531.754 70.0714C531.565 70.4204 531.471 70.8297 531.471 71.2991H530.051C530.051 70.5769 530.217 69.943 530.55 69.3973C530.883 68.8517 531.337 68.4264 531.91 68.1215C532.488 67.8166 533.136 67.6641 533.854 67.6641C534.576 67.6641 535.216 67.8166 535.774 68.1215C536.332 68.4264 536.769 68.8376 537.086 69.3552C537.403 69.8728 537.561 70.4485 537.561 71.0825C537.561 71.5358 537.479 71.9792 537.315 72.4125C537.154 72.8418 536.873 73.3212 536.472 73.8508C536.075 74.3764 535.523 75.0184 534.817 75.7767L532.049 78.7377V78.8339H537.778V80.158H530.003Z" fill="#707E8D" style="fill:#707E8D;fill:color(display-p3 0.4392 0.4941 0.5529);fill-opacity:1;"/>
<defs>
<linearGradient id="paint0_linear_1259_47329" x1="21.7895" y1="46.6316" x2="21.7895" y2="90.2105" gradientUnits="userSpaceOnUse">
<stop stop-color="#F3BC6B" style="stop-color:#F3BC6B;stop-color:color(display-p3 0.9529 0.7373 0.4196);stop-opacity:1;"/>
<stop offset="1" stop-color="#E78A4A" style="stop-color:#E78A4A;stop-color:color(display-p3 0.9059 0.5412 0.2902);stop-opacity:1;"/>
</linearGradient>
</defs>
</svg>
