<svg width="552" height="86" viewBox="0 0 552 86" fill="none" xmlns="http://www.w3.org/2000/svg">
<rect y="45.0583" width="40.3686" height="40.3686" rx="20.1843" fill="url(#paint0_linear_1255_47016)" style=""/>
<path d="M15.3016 61.3674V59.5098H25.0616V61.3674H21.2806V71.7427H19.0825V61.3674H15.3016Z" fill="white" style="fill:white;fill-opacity:1;"/>
<path d="M52.7035 85.4269V71.9707C52.7035 78.176 48.5032 83.4003 42.7906 84.9555C42.6855 84.9841 42.6113 85.0791 42.6113 85.1881C42.6113 85.32 42.7182 85.4269 42.8501 85.4269H52.7035Z" fill="#1B2532" style="fill:#1B2532;fill:color(display-p3 0.1059 0.1451 0.1961);fill-opacity:1;"/>
<path d="M52.7031 32.2948C52.7031 20.9906 52.7031 15.3385 54.9031 11.0208C56.8382 7.22289 59.926 4.13509 63.7239 2.19996C68.0416 0 73.6937 0 84.998 0H519.705C531.009 0 536.661 0 540.979 2.19996C544.777 4.13509 547.865 7.22289 549.8 11.0208C552 15.3385 552 20.9906 552 32.2948V53.1321C552 64.4364 552 70.0885 549.8 74.4062C547.865 78.2041 544.777 81.2919 540.979 83.227C536.661 85.427 531.009 85.427 519.705 85.427H52.7031V32.2948Z" fill="#1B2532" style="fill:#1B2532;fill:color(display-p3 0.1059 0.1451 0.1961);fill-opacity:1;"/>
<path d="M66.7836 16.5298V14.796H75.8929V16.5298H72.364V26.2134H70.3125V16.5298H66.7836ZM78.4593 23.4817L81.8878 17.6503H83.9617V26.2134H82.0105V20.3765L78.5931 26.2134H76.5136V17.6503H78.4593V23.4817ZM90.8054 23.8664L93.3475 17.6503H94.9754L91.5134 26.2134H90.1029L86.719 17.6503H88.3301L90.8054 23.8664ZM87.8228 17.6503V26.2134H85.8772V17.6503H87.8228ZM93.8716 26.2134V17.6503H95.8005V26.2134H93.8716ZM101.413 26.3806C100.577 26.3806 99.8525 26.1967 99.2393 25.8287C98.626 25.4608 98.1503 24.946 97.8121 24.2845C97.4776 23.6229 97.3104 22.8499 97.3104 21.9653C97.3104 21.0808 97.4776 20.3059 97.8121 19.6406C98.1503 18.9753 98.626 18.4587 99.2393 18.0908C99.8525 17.7228 100.577 17.5389 101.413 17.5389C102.25 17.5389 102.974 17.7228 103.588 18.0908C104.201 18.4587 104.675 18.9753 105.009 19.6406C105.348 20.3059 105.517 21.0808 105.517 21.9653C105.517 22.8499 105.348 23.6229 105.009 24.2845C104.675 24.946 104.201 25.4608 103.588 25.8287C102.974 26.1967 102.25 26.3806 101.413 26.3806ZM101.425 24.7639C101.878 24.7639 102.257 24.6394 102.562 24.3904C102.867 24.1377 103.093 23.7995 103.242 23.3758C103.394 22.9521 103.471 22.4801 103.471 21.9597C103.471 21.4357 103.394 20.9618 103.242 20.5381C103.093 20.1107 102.867 19.7707 102.562 19.5179C102.257 19.2652 101.878 19.1388 101.425 19.1388C100.96 19.1388 100.574 19.2652 100.265 19.5179C99.9603 19.7707 99.7317 20.1107 99.5794 20.5381C99.4307 20.9618 99.3564 21.4357 99.3564 21.9597C99.3564 22.4801 99.4307 22.9521 99.5794 23.3758C99.7317 23.7995 99.9603 24.1377 100.265 24.3904C100.574 24.6394 100.96 24.7639 101.425 24.7639ZM110.958 29.1235V14.796H112.982V29.1235H110.958ZM110.958 26.3806C110.33 26.3806 109.756 26.2747 109.236 26.0629C108.715 25.851 108.266 25.55 107.886 25.1597C107.511 24.7695 107.219 24.3049 107.011 23.766C106.807 23.2234 106.705 22.6232 106.705 21.9653C106.705 21.3075 106.807 20.7072 107.011 20.1646C107.219 19.622 107.511 19.1556 107.886 18.7653C108.266 18.3714 108.715 18.0685 109.236 17.8566C109.756 17.6448 110.33 17.5389 110.958 17.5389H111.387V26.3806H110.958ZM110.958 24.7528H111.209V19.1667H110.958C110.601 19.1667 110.285 19.2411 110.01 19.3897C109.739 19.5347 109.511 19.7372 109.325 19.9974C109.143 20.2538 109.003 20.5512 108.907 20.8894C108.814 21.2239 108.767 21.5825 108.767 21.9653C108.767 22.4745 108.851 22.9409 109.018 23.3646C109.185 23.7846 109.431 24.1209 109.754 24.3737C110.081 24.6264 110.482 24.7528 110.958 24.7528ZM112.982 26.3806H112.553V17.5389H112.982C113.61 17.5389 114.184 17.6448 114.705 17.8566C115.225 18.0685 115.673 18.3714 116.048 18.7653C116.427 19.1556 116.719 19.622 116.923 20.1646C117.131 20.7072 117.236 21.3075 117.236 21.9653C117.236 22.6232 117.131 23.2234 116.923 23.766C116.719 24.3049 116.427 24.7695 116.048 25.1597C115.673 25.55 115.225 25.851 114.705 26.0629C114.184 26.2747 113.61 26.3806 112.982 26.3806ZM112.982 24.7528C113.342 24.7528 113.658 24.6803 113.93 24.5353C114.201 24.3904 114.428 24.1897 114.61 23.9332C114.796 23.6768 114.935 23.3813 115.028 23.0468C115.121 22.7086 115.167 22.3481 115.167 21.9653C115.167 21.4561 115.085 20.9897 114.922 20.566C114.758 20.1423 114.513 19.8041 114.186 19.5514C113.863 19.2949 113.461 19.1667 112.982 19.1667H112.731V24.7528H112.982ZM122.573 26.3806C121.714 26.3806 120.973 26.2022 120.348 25.8454C119.728 25.4849 119.25 24.9758 118.915 24.3179C118.581 23.6564 118.414 22.8777 118.414 21.982C118.414 21.1012 118.581 20.3282 118.915 19.6629C119.254 18.9939 119.726 18.4736 120.331 18.1019C120.937 17.7265 121.649 17.5389 122.467 17.5389C122.994 17.5389 123.492 17.6243 123.961 17.7953C124.433 17.9625 124.849 18.2227 125.21 18.5758C125.574 18.9289 125.86 19.3786 126.068 19.9249C126.276 20.4675 126.38 21.1142 126.38 21.865V22.4838H119.361V21.1235H124.446C124.442 20.737 124.358 20.3932 124.195 20.0922C124.031 19.7874 123.803 19.5477 123.509 19.373C123.219 19.1983 122.881 19.111 122.495 19.111C122.082 19.111 121.72 19.2113 121.407 19.412C121.095 19.609 120.852 19.8692 120.677 20.1925C120.506 20.5121 120.419 20.8633 120.415 21.2462V22.4336C120.415 22.9316 120.506 23.359 120.688 23.7158C120.87 24.0689 121.125 24.3402 121.452 24.5298C121.779 24.7156 122.162 24.8085 122.6 24.8085C122.894 24.8085 123.16 24.7676 123.398 24.6859C123.636 24.6004 123.842 24.4759 124.016 24.3123C124.191 24.1488 124.323 23.9463 124.412 23.7047L126.297 23.9165C126.178 24.4145 125.951 24.8494 125.616 25.221C125.286 25.589 124.862 25.8752 124.345 26.0796C123.829 26.2803 123.238 26.3806 122.573 26.3806ZM131.721 26.3806C130.863 26.3806 130.121 26.2022 129.497 25.8454C128.876 25.4849 128.399 24.9758 128.064 24.3179C127.73 23.6564 127.563 22.8777 127.563 21.982C127.563 21.1012 127.73 20.3282 128.064 19.6629C128.403 18.9939 128.875 18.4736 129.48 18.1019C130.086 17.7265 130.798 17.5389 131.616 17.5389C132.143 17.5389 132.641 17.6243 133.11 17.7953C133.582 17.9625 133.998 18.2227 134.358 18.5758C134.723 18.9289 135.009 19.3786 135.217 19.9249C135.425 20.4675 135.529 21.1142 135.529 21.865V22.4838H128.51V21.1235H133.595C133.591 20.737 133.507 20.3932 133.344 20.0922C133.18 19.7874 132.952 19.5477 132.658 19.373C132.368 19.1983 132.03 19.111 131.643 19.111C131.231 19.111 130.869 19.2113 130.556 19.412C130.244 19.609 130.001 19.8692 129.826 20.1925C129.655 20.5121 129.568 20.8633 129.564 21.2462V22.4336C129.564 22.9316 129.655 23.359 129.837 23.7158C130.019 24.0689 130.274 24.3402 130.601 24.5298C130.928 24.7156 131.311 24.8085 131.749 24.8085C132.043 24.8085 132.309 24.7676 132.547 24.6859C132.784 24.6004 132.991 24.4759 133.165 24.3123C133.34 24.1488 133.472 23.9463 133.561 23.7047L135.446 23.9165C135.327 24.4145 135.1 24.8494 134.765 25.221C134.435 25.589 134.011 25.8752 133.494 26.0796C132.978 26.2803 132.387 26.3806 131.721 26.3806ZM137.079 26.2134V17.6503H140.675C141.69 17.6503 142.491 17.8529 143.078 18.258C143.669 18.6631 143.964 19.228 143.964 19.9528C143.964 20.4322 143.797 20.8243 143.463 21.1291C143.132 21.4301 142.68 21.6327 142.108 21.7367C142.558 21.7739 142.952 21.8873 143.29 22.0768C143.632 22.2664 143.899 22.5154 144.093 22.8238C144.286 23.1323 144.383 23.4873 144.383 23.8887C144.383 24.3607 144.258 24.7713 144.009 25.1207C143.764 25.4663 143.405 25.7358 142.933 25.9291C142.465 26.1186 141.896 26.2134 141.227 26.2134H137.079ZM138.969 24.6245H141.227C141.599 24.6245 141.891 24.5372 142.102 24.3625C142.314 24.1841 142.42 23.9425 142.42 23.6378C142.42 23.2847 142.314 23.0078 142.102 22.8071C141.891 22.6027 141.599 22.5005 141.227 22.5005H138.969V24.6245ZM138.969 21.196H140.714C140.989 21.196 141.225 21.157 141.422 21.0789C141.619 20.9971 141.77 20.8838 141.874 20.7388C141.978 20.5902 142.03 20.4136 142.03 20.2092C142.03 19.9156 141.909 19.6852 141.668 19.5179C141.43 19.3507 141.099 19.2671 140.675 19.2671H138.969V21.196ZM159.49 18.6483H157.405C157.346 18.3063 157.236 18.0034 157.076 17.7395C156.916 17.472 156.718 17.2452 156.48 17.0594C156.242 16.8736 155.971 16.7342 155.666 16.6413C155.365 16.5447 155.039 16.4963 154.69 16.4963C154.069 16.4963 153.519 16.6524 153.04 16.9646C152.561 17.2731 152.185 17.7265 151.914 18.3249C151.643 18.9196 151.507 19.6462 151.507 20.5047C151.507 21.3781 151.643 22.114 151.914 22.7123C152.189 23.307 152.564 23.7567 153.04 24.0615C153.519 24.3625 154.068 24.513 154.685 24.513C155.026 24.513 155.346 24.4684 155.643 24.3792C155.944 24.2863 156.214 24.1507 156.452 23.9723C156.693 23.7939 156.896 23.5746 157.059 23.3144C157.227 23.0543 157.342 22.7569 157.405 22.4225L159.49 22.4336C159.412 22.9762 159.243 23.4854 158.983 23.9611C158.726 24.4368 158.39 24.8568 157.974 25.221C157.557 25.5816 157.071 25.864 156.513 26.0684C155.956 26.2691 155.337 26.3695 154.657 26.3695C153.653 26.3695 152.758 26.1372 151.97 25.6726C151.182 25.208 150.561 24.5372 150.108 23.6601C149.654 22.783 149.427 21.7312 149.427 20.5047C149.427 19.2745 149.656 18.2227 150.113 17.3493C150.57 16.4722 151.193 15.8013 151.981 15.3368C152.769 14.8722 153.661 14.6399 154.657 14.6399C155.292 14.6399 155.883 14.7291 156.43 14.9075C156.976 15.0859 157.463 15.3479 157.89 15.6936C158.318 16.0355 158.669 16.4555 158.944 16.9535C159.223 17.4478 159.405 18.0127 159.49 18.6483ZM162.381 26.336C162.043 26.336 161.753 26.2171 161.512 25.9792C161.27 25.7414 161.151 25.4515 161.155 25.1096C161.151 24.7751 161.27 24.4889 161.512 24.251C161.753 24.0132 162.043 23.8942 162.381 23.8942C162.708 23.8942 162.993 24.0132 163.234 24.251C163.479 24.4889 163.604 24.7751 163.608 25.1096C163.604 25.3363 163.544 25.5425 163.429 25.7284C163.318 25.9142 163.169 26.0629 162.983 26.1744C162.801 26.2821 162.6 26.336 162.381 26.336ZM165.623 26.2134V14.796H167.692V19.6294H172.982V14.796H175.056V26.2134H172.982V21.3632H167.692V26.2134H165.623ZM178.303 26.336C177.964 26.336 177.675 26.2171 177.433 25.9792C177.191 25.7414 177.072 25.4515 177.076 25.1096C177.072 24.7751 177.191 24.4889 177.433 24.251C177.675 24.0132 177.964 23.8942 178.303 23.8942C178.63 23.8942 178.914 24.0132 179.156 24.251C179.401 24.4889 179.525 24.7751 179.529 25.1096C179.525 25.3363 179.466 25.5425 179.351 25.7284C179.239 25.9142 179.091 26.0629 178.905 26.1744C178.723 26.2821 178.522 26.336 178.303 26.336Z" fill="#F3BC6B" style="fill:#F3BC6B;fill:color(display-p3 0.9529 0.7373 0.4196);fill-opacity:1;"/>
<path d="M67.3634 47.2134V38.6503H70.8644C71.7861 38.6503 72.5183 38.8585 73.0609 39.2747C73.6035 39.691 73.8748 40.2411 73.8748 40.9249C73.8748 41.4452 73.7206 41.8485 73.4121 42.1347C73.1036 42.4171 72.7078 42.6085 72.2247 42.7089C72.5406 42.7535 72.8472 42.865 73.1445 43.0434C73.4456 43.2218 73.6946 43.4671 73.8916 43.7792C74.0885 44.0877 74.187 44.4668 74.187 44.9165C74.187 45.3551 74.0755 45.7472 73.8525 46.0928C73.6295 46.4385 73.3099 46.7116 72.8936 46.9123C72.4774 47.113 71.9794 47.2134 71.3996 47.2134H67.3634ZM68.6121 46.0092H71.3996C71.853 46.0092 72.2079 45.9014 72.4644 45.6859C72.7208 45.4703 72.849 45.1767 72.849 44.805C72.849 44.3628 72.7208 44.0153 72.4644 43.7625C72.2079 43.5061 71.853 43.3779 71.3996 43.3779H68.6121V46.0092ZM68.6121 42.2406H70.8644C71.2175 42.2406 71.5204 42.1923 71.7731 42.0956C72.0258 41.9953 72.2191 41.8541 72.3529 41.6719C72.4904 41.4861 72.5592 41.2668 72.5592 41.0141C72.5592 40.6536 72.4086 40.3711 72.1076 40.1667C71.8065 39.9586 71.3921 39.8545 70.8644 39.8545H68.6121V42.2406ZM82.4653 38.6503V47.2134H81.1497V38.6503H82.4653ZM81.9524 42.7312V43.9576C81.6551 44.0691 81.3597 44.1676 81.066 44.2531C80.7724 44.3349 80.464 44.3999 80.1406 44.4482C79.8173 44.4928 79.4623 44.5151 79.0758 44.5151C78.1058 44.5151 77.3271 44.2531 76.7399 43.7291C76.1564 43.205 75.8647 42.419 75.8647 41.3709V38.6281H77.1803V41.3709C77.1803 41.8095 77.264 42.17 77.4312 42.4524C77.5985 42.7349 77.8252 42.9449 78.1113 43.0824C78.3975 43.2199 78.719 43.2887 79.0758 43.2887C79.6333 43.2887 80.1369 43.2385 80.5866 43.1381C81.04 43.0341 81.4953 42.8984 81.9524 42.7312ZM88.1555 47.3918C87.3304 47.3918 86.6187 47.2097 86.0203 46.8454C85.4257 46.4775 84.9667 45.9646 84.6433 45.3068C84.3237 44.6452 84.1639 43.8759 84.1639 42.9988C84.1639 42.1216 84.3237 41.3486 84.6433 40.6796C84.9667 40.0069 85.4164 39.4829 85.9925 39.1075C86.5722 38.7284 87.2487 38.5389 88.0217 38.5389C88.4677 38.5389 88.9081 38.6132 89.343 38.7618C89.7778 38.9105 90.1736 39.1521 90.5304 39.4866C90.8872 39.8174 91.1715 40.2559 91.3834 40.8023C91.5952 41.3486 91.7011 42.0213 91.7011 42.8204V43.3779H85.1005V42.2406H90.3632C90.3632 41.7574 90.2665 41.3263 90.0733 40.9472C89.8837 40.5681 89.6124 40.2689 89.2593 40.0496C88.91 39.8304 88.4974 39.7207 88.0217 39.7207C87.4977 39.7207 87.0443 39.8508 86.6614 40.111C86.2824 40.3674 85.9906 40.7019 85.7862 41.1145C85.5818 41.527 85.4796 41.9693 85.4796 42.4413V43.1995C85.4796 43.8461 85.5911 44.3943 85.8141 44.8441C86.0408 45.29 86.3548 45.6301 86.7562 45.8643C87.1576 46.0947 87.624 46.2099 88.1555 46.2099C88.5012 46.2099 88.8134 46.1616 89.0921 46.065C89.3746 45.9646 89.618 45.8159 89.8224 45.619C90.0268 45.4183 90.1848 45.1693 90.2963 44.8719L91.5673 45.2287C91.4335 45.6598 91.2087 46.0389 90.8928 46.366C90.5769 46.6893 90.1866 46.9421 89.7221 47.1242C89.2575 47.3026 88.7353 47.3918 88.1555 47.3918ZM93.3886 50.4245V38.6503H94.6596V40.0106H94.8157C94.9124 39.862 95.0462 39.6724 95.2171 39.442C95.3918 39.2078 95.6408 38.9997 95.9642 38.8176C96.2912 38.6318 96.7335 38.5389 97.291 38.5389C98.012 38.5389 98.6475 38.7191 99.1976 39.0796C99.7476 39.4401 100.177 39.9512 100.485 40.6127C100.794 41.2743 100.948 42.0547 100.948 42.9542C100.948 43.861 100.794 44.6471 100.485 45.3123C100.177 45.9739 99.7495 46.4868 99.2032 46.851C98.6568 47.2115 98.0269 47.3918 97.3133 47.3918C96.7632 47.3918 96.3228 47.3007 95.992 47.1186C95.6612 46.9328 95.4067 46.7228 95.2283 46.4886C95.0499 46.2508 94.9124 46.0538 94.8157 45.8977H94.7042V50.4245H93.3886ZM94.6819 42.9319C94.6819 43.5786 94.7767 44.149 94.9662 44.6434C95.1558 45.1339 95.4327 45.5186 95.7969 45.7974C96.1611 46.0724 96.6071 46.2099 97.1349 46.2099C97.6849 46.2099 98.1439 46.065 98.5119 45.7751C98.8835 45.4814 99.1623 45.0875 99.3481 44.5932C99.5377 44.0952 99.6324 43.5414 99.6324 42.9319C99.6324 42.3298 99.5395 41.7872 99.3537 41.304C99.1716 40.8171 98.8947 40.4325 98.523 40.15C98.1551 39.8638 97.6924 39.7207 97.1349 39.7207C96.5997 39.7207 96.15 39.8564 95.7858 40.1277C95.4215 40.3953 95.1465 40.7707 94.9607 41.2538C94.7748 41.7333 94.6819 42.2926 94.6819 42.9319ZM105.161 47.4141C104.618 47.4141 104.126 47.3119 103.684 47.1075C103.241 46.8993 102.89 46.6001 102.63 46.2099C102.37 45.8159 102.24 45.3402 102.24 44.7827C102.24 44.2921 102.336 43.8945 102.53 43.5897C102.723 43.2812 102.981 43.0396 103.304 42.865C103.628 42.6903 103.985 42.5602 104.375 42.4747C104.769 42.3855 105.165 42.3149 105.562 42.2629C106.083 42.196 106.504 42.1458 106.828 42.1124C107.155 42.0752 107.393 42.0139 107.541 41.9284C107.694 41.8429 107.77 41.6942 107.77 41.4824V41.4378C107.77 40.8877 107.619 40.4603 107.318 40.1556C107.021 39.8508 106.57 39.6984 105.964 39.6984C105.336 39.6984 104.843 39.8359 104.486 40.111C104.13 40.386 103.879 40.6796 103.734 40.9918L102.485 40.5458C102.708 40.0255 103.005 39.6204 103.377 39.3305C103.752 39.0369 104.161 38.8325 104.603 38.7172C105.049 38.5983 105.488 38.5389 105.919 38.5389C106.194 38.5389 106.51 38.5723 106.867 38.6392C107.227 38.7024 107.575 38.8343 107.909 39.035C108.248 39.2357 108.528 39.5386 108.751 39.9437C108.974 40.3488 109.086 40.8915 109.086 41.5716V47.2134H107.77V46.0538H107.703C107.614 46.2396 107.465 46.4385 107.257 46.6503C107.049 46.8622 106.772 47.0424 106.426 47.1911C106.081 47.3397 105.659 47.4141 105.161 47.4141ZM105.362 46.2322C105.882 46.2322 106.321 46.13 106.677 45.9256C107.038 45.7212 107.309 45.4573 107.491 45.1339C107.677 44.8106 107.77 44.4705 107.77 44.1137V42.9096C107.714 42.9765 107.592 43.0378 107.402 43.0935C107.216 43.1456 107.001 43.192 106.755 43.2329C106.514 43.2701 106.278 43.3035 106.047 43.3333C105.821 43.3593 105.637 43.3816 105.495 43.4002C105.153 43.4448 104.834 43.5172 104.537 43.6176C104.243 43.7142 104.005 43.861 103.823 44.058C103.645 44.2513 103.555 44.5151 103.555 44.8496C103.555 45.3068 103.724 45.6524 104.063 45.8866C104.405 46.117 104.838 46.2322 105.362 46.2322ZM121.005 42.3298V43.5563H116.278V42.3298H121.005ZM116.59 38.6503V47.2134H115.274V38.6503H116.59ZM122.009 38.6503V47.2134H120.693V38.6503H122.009ZM127.576 47.3918C126.803 47.3918 126.125 47.2078 125.542 46.8399C124.962 46.4719 124.508 45.9572 124.181 45.2956C123.858 44.6341 123.696 43.861 123.696 42.9765C123.696 42.0845 123.858 41.3059 124.181 40.6406C124.508 39.9753 124.962 39.4587 125.542 39.0908C126.125 38.7228 126.803 38.5389 127.576 38.5389C128.349 38.5389 129.026 38.7228 129.606 39.0908C130.189 39.4587 130.643 39.9753 130.966 40.6406C131.293 41.3059 131.457 42.0845 131.457 42.9765C131.457 43.861 131.293 44.6341 130.966 45.2956C130.643 45.9572 130.189 46.4719 129.606 46.8399C129.026 47.2078 128.349 47.3918 127.576 47.3918ZM127.576 46.2099C128.164 46.2099 128.647 46.0594 129.026 45.7583C129.405 45.4573 129.686 45.0615 129.868 44.5709C130.05 44.0803 130.141 43.5488 130.141 42.9765C130.141 42.4041 130.05 41.8708 129.868 41.3765C129.686 40.8822 129.405 40.4826 129.026 40.1779C128.647 39.8731 128.164 39.7207 127.576 39.7207C126.989 39.7207 126.506 39.8731 126.127 40.1779C125.748 40.4826 125.467 40.8822 125.285 41.3765C125.103 41.8708 125.012 42.4041 125.012 42.9765C125.012 43.5488 125.103 44.0803 125.285 44.5709C125.467 45.0615 125.748 45.4573 126.127 45.7583C126.506 46.0594 126.989 46.2099 127.576 46.2099ZM133.151 50.4245V38.6503H134.422V40.0106H134.578C134.675 39.862 134.808 39.6724 134.979 39.442C135.154 39.2078 135.403 38.9997 135.726 38.8176C136.054 38.6318 136.496 38.5389 137.053 38.5389C137.774 38.5389 138.41 38.7191 138.96 39.0796C139.51 39.4401 139.939 39.9512 140.248 40.6127C140.556 41.2743 140.71 42.0547 140.71 42.9542C140.71 43.861 140.556 44.6471 140.248 45.3123C139.939 45.9739 139.512 46.4868 138.965 46.851C138.419 47.2115 137.789 47.3918 137.076 47.3918C136.526 47.3918 136.085 47.3007 135.754 47.1186C135.424 46.9328 135.169 46.7228 134.991 46.4886C134.812 46.2508 134.675 46.0538 134.578 45.8977H134.467V50.4245H133.151ZM134.444 42.9319C134.444 43.5786 134.539 44.149 134.729 44.6434C134.918 45.1339 135.195 45.5186 135.559 45.7974C135.923 46.0724 136.369 46.2099 136.897 46.2099C137.447 46.2099 137.906 46.065 138.274 45.7751C138.646 45.4814 138.925 45.0875 139.11 44.5932C139.3 44.0952 139.395 43.5414 139.395 42.9319C139.395 42.3298 139.302 41.7872 139.116 41.304C138.934 40.8171 138.657 40.4325 138.285 40.15C137.917 39.8638 137.455 39.7207 136.897 39.7207C136.362 39.7207 135.912 39.8564 135.548 40.1277C135.184 40.3953 134.909 40.7707 134.723 41.2538C134.537 41.7333 134.444 42.2926 134.444 42.9319ZM147.086 45.4294L150.074 38.6503H151.323L147.622 47.2134H146.551L142.916 38.6503H144.143L147.086 45.4294ZM143.719 38.6503V47.2134H142.403V38.6503H143.719ZM150.454 47.2134V38.6503H151.769V47.2134H150.454ZM157.965 50.4245V38.6503H159.236V40.0106H159.392C159.489 39.862 159.623 39.6724 159.794 39.442C159.968 39.2078 160.217 38.9997 160.541 38.8176C160.868 38.6318 161.31 38.5389 161.867 38.5389C162.588 38.5389 163.224 38.7191 163.774 39.0796C164.324 39.4401 164.753 39.9512 165.062 40.6127C165.37 41.2743 165.524 42.0547 165.524 42.9542C165.524 43.861 165.37 44.6471 165.062 45.3123C164.753 45.9739 164.326 46.4868 163.78 46.851C163.233 47.2115 162.603 47.3918 161.89 47.3918C161.34 47.3918 160.899 47.3007 160.568 47.1186C160.238 46.9328 159.983 46.7228 159.805 46.4886C159.626 46.2508 159.489 46.0538 159.392 45.8977H159.281V50.4245H157.965ZM159.258 42.9319C159.258 43.5786 159.353 44.149 159.543 44.6434C159.732 45.1339 160.009 45.5186 160.373 45.7974C160.738 46.0724 161.184 46.2099 161.711 46.2099C162.261 46.2099 162.72 46.065 163.088 45.7751C163.46 45.4814 163.739 45.0875 163.924 44.5932C164.114 44.0952 164.209 43.5414 164.209 42.9319C164.209 42.3298 164.116 41.7872 163.93 41.304C163.748 40.8171 163.471 40.4325 163.099 40.15C162.731 39.8638 162.269 39.7207 161.711 39.7207C161.176 39.7207 160.726 39.8564 160.362 40.1277C159.998 40.3953 159.723 40.7707 159.537 41.2538C159.351 41.7333 159.258 42.2926 159.258 42.9319ZM169.737 47.4141C169.195 47.4141 168.702 47.3119 168.26 47.1075C167.818 46.8993 167.466 46.6001 167.206 46.2099C166.946 45.8159 166.816 45.3402 166.816 44.7827C166.816 44.2921 166.913 43.8945 167.106 43.5897C167.299 43.2812 167.558 43.0396 167.881 42.865C168.204 42.6903 168.561 42.5602 168.951 42.4747C169.345 42.3855 169.741 42.3149 170.139 42.2629C170.659 42.196 171.081 42.1458 171.404 42.1124C171.731 42.0752 171.969 42.0139 172.118 41.9284C172.27 41.8429 172.346 41.6942 172.346 41.4824V41.4378C172.346 40.8877 172.196 40.4603 171.895 40.1556C171.597 39.8508 171.146 39.6984 170.54 39.6984C169.912 39.6984 169.42 39.8359 169.063 40.111C168.706 40.386 168.455 40.6796 168.31 40.9918L167.061 40.5458C167.284 40.0255 167.582 39.6204 167.953 39.3305C168.329 39.0369 168.738 38.8325 169.18 38.7172C169.626 38.5983 170.064 38.5389 170.496 38.5389C170.771 38.5389 171.086 38.5723 171.443 38.6392C171.804 38.7024 172.151 38.8343 172.486 39.035C172.824 39.2357 173.105 39.5386 173.328 39.9437C173.551 40.3488 173.662 40.8915 173.662 41.5716V47.2134H172.346V46.0538H172.279C172.19 46.2396 172.042 46.4385 171.833 46.6503C171.625 46.8622 171.348 47.0424 171.003 47.1911C170.657 47.3397 170.235 47.4141 169.737 47.4141ZM169.938 46.2322C170.458 46.2322 170.897 46.13 171.254 45.9256C171.614 45.7212 171.886 45.4573 172.068 45.1339C172.253 44.8106 172.346 44.4705 172.346 44.1137V42.9096C172.291 42.9765 172.168 43.0378 171.978 43.0935C171.793 43.1456 171.577 43.192 171.332 43.2329C171.09 43.2701 170.854 43.3035 170.624 43.3333C170.397 43.3593 170.213 43.3816 170.072 43.4002C169.73 43.4448 169.41 43.5172 169.113 43.6176C168.819 43.7142 168.581 43.861 168.399 44.058C168.221 44.2513 168.132 44.5151 168.132 44.8496C168.132 45.3068 168.301 45.6524 168.639 45.8866C168.981 46.117 169.414 46.2322 169.938 46.2322ZM182.105 35.4392L182.774 36.242C182.514 36.4947 182.213 36.6713 181.871 36.7716C181.529 36.872 181.142 36.9333 180.711 36.9556C180.28 36.9779 179.801 37.0002 179.273 37.0225C178.678 37.0448 178.186 37.1897 177.795 37.4573C177.405 37.7249 177.104 38.1114 176.892 38.6169C176.68 39.1224 176.545 39.743 176.485 40.4789H176.597C176.887 39.9437 177.288 39.5498 177.801 39.297C178.314 39.0443 178.864 38.9179 179.451 38.9179C180.12 38.9179 180.722 39.074 181.257 39.3862C181.793 39.6984 182.216 40.1611 182.529 40.7744C182.841 41.3876 182.997 42.1439 182.997 43.0434C182.997 43.9391 182.837 44.7121 182.517 45.3625C182.201 46.0129 181.757 46.5147 181.185 46.8677C180.616 47.2171 179.949 47.3918 179.184 47.3918C178.418 47.3918 177.747 47.2115 177.171 46.851C176.595 46.4868 176.147 45.9479 175.827 45.2343C175.508 44.517 175.348 43.6306 175.348 42.5751V41.6608C175.348 39.7542 175.671 38.3084 176.318 37.3235C176.968 36.3386 177.946 35.8295 179.25 35.796C179.711 35.7811 180.122 35.7774 180.483 35.7849C180.843 35.7923 181.157 35.7756 181.425 35.7347C181.692 35.6938 181.919 35.5953 182.105 35.4392ZM179.184 46.2099C179.7 46.2099 180.144 46.0798 180.516 45.8197C180.891 45.5595 181.179 45.1934 181.38 44.7214C181.581 44.2457 181.681 43.6863 181.681 43.0434C181.681 42.419 181.579 41.8875 181.375 41.4489C181.174 41.0104 180.886 40.6759 180.51 40.4455C180.135 40.215 179.685 40.0998 179.161 40.0998C178.778 40.0998 178.435 40.1649 178.13 40.2949C177.825 40.425 177.565 40.6164 177.349 40.8692C177.134 41.1219 176.967 41.4304 176.848 41.7946C176.732 42.1588 176.671 42.5751 176.664 43.0434C176.664 44.0022 176.889 44.7697 177.338 45.3458C177.788 45.9219 178.403 46.2099 179.184 46.2099ZM188.174 47.3918C187.401 47.3918 186.723 47.2078 186.139 46.8399C185.559 46.4719 185.106 45.9572 184.779 45.2956C184.456 44.6341 184.294 43.861 184.294 42.9765C184.294 42.0845 184.456 41.3059 184.779 40.6406C185.106 39.9753 185.559 39.4587 186.139 39.0908C186.723 38.7228 187.401 38.5389 188.174 38.5389C188.947 38.5389 189.624 38.7228 190.203 39.0908C190.787 39.4587 191.24 39.9753 191.564 40.6406C191.891 41.3059 192.054 42.0845 192.054 42.9765C192.054 43.861 191.891 44.6341 191.564 45.2956C191.24 45.9572 190.787 46.4719 190.203 46.8399C189.624 47.2078 188.947 47.3918 188.174 47.3918ZM188.174 46.2099C188.761 46.2099 189.244 46.0594 189.624 45.7583C190.003 45.4573 190.283 45.0615 190.465 44.5709C190.647 44.0803 190.739 43.5488 190.739 42.9765C190.739 42.4041 190.647 41.8708 190.465 41.3765C190.283 40.8822 190.003 40.4826 189.624 40.1779C189.244 39.8731 188.761 39.7207 188.174 39.7207C187.587 39.7207 187.104 39.8731 186.725 40.1779C186.346 40.4826 186.065 40.8822 185.883 41.3765C185.701 41.8708 185.61 42.4041 185.61 42.9765C185.61 43.5488 185.701 44.0803 185.883 44.5709C186.065 45.0615 186.346 45.4573 186.725 45.7583C187.104 46.0594 187.587 46.2099 188.174 46.2099ZM192.629 39.8768V38.6503H199.587V39.8768H196.777V47.2134H195.461V39.8768H192.629ZM203.267 47.4141C202.725 47.4141 202.232 47.3119 201.79 47.1075C201.348 46.8993 200.996 46.6001 200.736 46.2099C200.476 45.8159 200.346 45.3402 200.346 44.7827C200.346 44.2921 200.443 43.8945 200.636 43.5897C200.829 43.2812 201.088 43.0396 201.411 42.865C201.734 42.6903 202.091 42.5602 202.481 42.4747C202.875 42.3855 203.271 42.3149 203.669 42.2629C204.189 42.196 204.611 42.1458 204.934 42.1124C205.261 42.0752 205.499 42.0139 205.648 41.9284C205.8 41.8429 205.876 41.6942 205.876 41.4824V41.4378C205.876 40.8877 205.726 40.4603 205.425 40.1556C205.127 39.8508 204.676 39.6984 204.07 39.6984C203.442 39.6984 202.95 39.8359 202.593 40.111C202.236 40.386 201.985 40.6796 201.84 40.9918L200.591 40.5458C200.814 40.0255 201.112 39.6204 201.483 39.3305C201.859 39.0369 202.268 38.8325 202.71 38.7172C203.156 38.5983 203.594 38.5389 204.025 38.5389C204.301 38.5389 204.616 38.5723 204.973 38.6392C205.334 38.7024 205.681 38.8343 206.016 39.035C206.354 39.2357 206.635 39.5386 206.858 39.9437C207.081 40.3488 207.192 40.8915 207.192 41.5716V47.2134H205.876V46.0538H205.809C205.72 46.2396 205.572 46.4385 205.363 46.6503C205.155 46.8622 204.878 47.0424 204.533 47.1911C204.187 47.3397 203.765 47.4141 203.267 47.4141ZM203.468 46.2322C203.988 46.2322 204.427 46.13 204.784 45.9256C205.144 45.7212 205.416 45.4573 205.598 45.1339C205.783 44.8106 205.876 44.4705 205.876 44.1137V42.9096C205.821 42.9765 205.698 43.0378 205.508 43.0935C205.323 43.1456 205.107 43.192 204.862 43.2329C204.62 43.2701 204.384 43.3035 204.154 43.3333C203.927 43.3593 203.743 43.3816 203.602 43.4002C203.26 43.4448 202.94 43.5172 202.643 43.6176C202.349 43.7142 202.111 43.861 201.929 44.058C201.751 44.2513 201.662 44.5151 201.662 44.8496C201.662 45.3068 201.831 45.6524 202.169 45.8866C202.511 46.117 202.944 46.2322 203.468 46.2322ZM208.521 47.2134V45.9869H208.833C209.09 45.9869 209.304 45.9367 209.475 45.8364C209.646 45.7323 209.783 45.5521 209.887 45.2956C209.995 45.0355 210.077 44.6749 210.132 44.2141C210.192 43.7495 210.235 43.1586 210.261 42.4413L210.417 38.6503H216.125V47.2134H214.81V39.8768H211.665L211.532 42.9319C211.502 43.6343 211.439 44.2531 211.342 44.7883C211.249 45.3198 211.106 45.7658 210.913 46.1263C210.723 46.4868 210.471 46.7581 210.155 46.9402C209.839 47.1223 209.443 47.2134 208.967 47.2134H208.521ZM221.704 47.3918C220.931 47.3918 220.253 47.2078 219.669 46.8399C219.089 46.4719 218.636 45.9572 218.309 45.2956C217.986 44.6341 217.824 43.861 217.824 42.9765C217.824 42.0845 217.986 41.3059 218.309 40.6406C218.636 39.9753 219.089 39.4587 219.669 39.0908C220.253 38.7228 220.931 38.5389 221.704 38.5389C222.477 38.5389 223.154 38.7228 223.733 39.0908C224.317 39.4587 224.77 39.9753 225.094 40.6406C225.421 41.3059 225.584 42.0845 225.584 42.9765C225.584 43.861 225.421 44.6341 225.094 45.2956C224.77 45.9572 224.317 46.4719 223.733 46.8399C223.154 47.2078 222.477 47.3918 221.704 47.3918ZM221.704 46.2099C222.291 46.2099 222.774 46.0594 223.154 45.7583C223.533 45.4573 223.813 45.0615 223.995 44.5709C224.177 44.0803 224.269 43.5488 224.269 42.9765C224.269 42.4041 224.177 41.8708 223.995 41.3765C223.813 40.8822 223.533 40.4826 223.154 40.1779C222.774 39.8731 222.291 39.7207 221.704 39.7207C221.117 39.7207 220.634 39.8731 220.255 40.1779C219.876 40.4826 219.595 40.8822 219.413 41.3765C219.231 41.8708 219.14 42.4041 219.14 42.9765C219.14 43.5488 219.231 44.0803 219.413 44.5709C219.595 45.0615 219.876 45.4573 220.255 45.7583C220.634 46.0594 221.117 46.2099 221.704 46.2099ZM229.241 45.6524L229.152 46.2545C229.089 46.6782 228.992 47.1316 228.862 47.6148C228.735 48.0979 228.604 48.5532 228.466 48.9806C228.329 49.408 228.215 49.7481 228.126 50.0008H227.122C227.171 49.763 227.234 49.4489 227.312 49.0587C227.39 48.6684 227.468 48.2317 227.546 47.7486C227.628 47.2691 227.695 46.7785 227.747 46.2768L227.814 45.6524H229.241ZM238.945 47.3918C238.142 47.3918 237.451 47.2022 236.871 46.8231C236.291 46.444 235.845 45.9219 235.533 45.2566C235.221 44.5913 235.065 43.8313 235.065 42.9765C235.065 42.1068 235.224 41.3393 235.544 40.674C235.867 40.005 236.317 39.4829 236.893 39.1075C237.473 38.7284 238.149 38.5389 238.922 38.5389C239.524 38.5389 240.067 38.6504 240.55 38.8733C241.033 39.0963 241.429 39.4085 241.738 39.8099C242.046 40.2113 242.238 40.6796 242.312 41.2148H240.996C240.896 40.8246 240.673 40.4789 240.327 40.1779C239.985 39.8731 239.524 39.7207 238.945 39.7207C238.432 39.7207 237.982 39.8545 237.596 40.1221C237.213 40.386 236.914 40.7595 236.698 41.2427C236.486 41.7221 236.38 42.2852 236.38 42.9319C236.38 43.5934 236.484 44.1695 236.692 44.6601C236.904 45.1507 237.202 45.5316 237.584 45.8029C237.971 46.0742 238.424 46.2099 238.945 46.2099C239.287 46.2099 239.597 46.1504 239.876 46.0315C240.154 45.9126 240.39 45.7416 240.584 45.5186C240.777 45.2956 240.914 45.028 240.996 44.7158H242.312C242.238 45.2213 242.054 45.6766 241.76 46.0817C241.47 46.4831 241.085 46.8027 240.606 47.0406C240.13 47.2747 239.576 47.3918 238.945 47.3918ZM247.511 47.3918C246.686 47.3918 245.975 47.2097 245.376 46.8454C244.782 46.4775 244.323 45.9646 243.999 45.3068C243.68 44.6452 243.52 43.8759 243.52 42.9988C243.52 42.1216 243.68 41.3486 243.999 40.6796C244.323 40.0069 244.772 39.4829 245.348 39.1075C245.928 38.7284 246.605 38.5389 247.378 38.5389C247.824 38.5389 248.264 38.6132 248.699 38.7618C249.134 38.9105 249.53 39.1521 249.886 39.4866C250.243 39.8174 250.527 40.2559 250.739 40.8023C250.951 41.3486 251.057 42.0213 251.057 42.8204V43.3779H244.456V42.2406H249.719C249.719 41.7574 249.623 41.3263 249.429 40.9472C249.24 40.5681 248.968 40.2689 248.615 40.0496C248.266 39.8304 247.853 39.7207 247.378 39.7207C246.854 39.7207 246.4 39.8508 246.017 40.111C245.638 40.3674 245.347 40.7019 245.142 41.1145C244.938 41.527 244.836 41.9693 244.836 42.4413V43.1995C244.836 43.8461 244.947 44.3943 245.17 44.8441C245.397 45.29 245.711 45.6301 246.112 45.8643C246.514 46.0947 246.98 46.2099 247.511 46.2099C247.857 46.2099 248.169 46.1616 248.448 46.065C248.731 45.9646 248.974 45.8159 249.178 45.619C249.383 45.4183 249.541 45.1693 249.652 44.8719L250.923 45.2287C250.79 45.6598 250.565 46.0389 250.249 46.366C249.933 46.6893 249.543 46.9421 249.078 47.1242C248.613 47.3026 248.091 47.3918 247.511 47.3918ZM258.029 38.6503V39.8768H254.06V47.2134H252.745V38.6503H258.029ZM262.67 47.3918C261.897 47.3918 261.219 47.2078 260.635 46.8399C260.056 46.4719 259.602 45.9572 259.275 45.2956C258.952 44.6341 258.79 43.861 258.79 42.9765C258.79 42.0845 258.952 41.3059 259.275 40.6406C259.602 39.9753 260.056 39.4587 260.635 39.0908C261.219 38.7228 261.897 38.5389 262.67 38.5389C263.443 38.5389 264.12 38.7228 264.699 39.0908C265.283 39.4587 265.736 39.9753 266.06 40.6406C266.387 41.3059 266.55 42.0845 266.55 42.9765C266.55 43.861 266.387 44.6341 266.06 45.2956C265.736 45.9572 265.283 46.4719 264.699 46.8399C264.12 47.2078 263.443 47.3918 262.67 47.3918ZM262.67 46.2099C263.257 46.2099 263.741 46.0594 264.12 45.7583C264.499 45.4573 264.779 45.0615 264.961 44.5709C265.144 44.0803 265.235 43.5488 265.235 42.9765C265.235 42.4041 265.144 41.8708 264.961 41.3765C264.779 40.8822 264.499 40.4826 264.12 40.1779C263.741 39.8731 263.257 39.7207 262.67 39.7207C262.083 39.7207 261.6 39.8731 261.221 40.1779C260.842 40.4826 260.561 40.8822 260.379 41.3765C260.197 41.8708 260.106 42.4041 260.106 42.9765C260.106 43.5488 260.197 44.0803 260.379 44.5709C260.561 45.0615 260.842 45.4573 261.221 45.7583C261.6 46.0594 262.083 46.2099 262.67 46.2099ZM267.33 49.6663V45.9869H268.044C268.219 45.8048 268.369 45.6078 268.496 45.396C268.622 45.1841 268.732 44.9332 268.824 44.6434C268.921 44.3497 269.003 43.993 269.07 43.573C269.137 43.1493 269.196 42.6383 269.248 42.0399L269.538 38.6503H274.979V45.9869H276.295V49.6663H274.979V47.2134H268.646V49.6663H267.33ZM269.538 45.9869H273.663V39.8768H270.765L270.542 42.0399C270.449 42.9356 270.333 43.7179 270.196 44.3869C270.058 45.0559 269.839 45.5892 269.538 45.9869ZM283.458 42.3298V43.5563H278.731V42.3298H283.458ZM279.043 38.6503V47.2134H277.727V38.6503H279.043ZM284.462 38.6503V47.2134H283.146V38.6503H284.462ZM291.702 47.2134V39.8545H289.427C288.914 39.8545 288.511 39.9735 288.217 40.2113C287.924 40.4492 287.777 40.7762 287.777 41.1925C287.777 41.6013 287.909 41.9228 288.173 42.157C288.44 42.3911 288.806 42.5082 289.271 42.5082H292.036V43.7346H289.271C288.691 43.7346 288.191 43.6324 287.771 43.428C287.351 43.2236 287.028 42.9319 286.801 42.5528C286.575 42.17 286.461 41.7165 286.461 41.1925C286.461 40.6647 286.58 40.2113 286.818 39.8322C287.056 39.4531 287.396 39.1614 287.838 38.957C288.284 38.7526 288.814 38.6503 289.427 38.6503H292.95V47.2134H291.702ZM285.993 47.2134L288.424 42.9542H289.851L287.42 47.2134H285.993ZM299.153 47.2134V38.6503H302.654C303.576 38.6503 304.308 38.8585 304.851 39.2747C305.393 39.691 305.665 40.2411 305.665 40.9249C305.665 41.4452 305.51 41.8485 305.202 42.1347C304.893 42.4171 304.498 42.6085 304.014 42.7089C304.33 42.7535 304.637 42.865 304.934 43.0434C305.235 43.2218 305.484 43.4671 305.681 43.7792C305.878 44.0877 305.977 44.4668 305.977 44.9165C305.977 45.3551 305.865 45.7472 305.642 46.0928C305.419 46.4385 305.1 46.7116 304.683 46.9123C304.267 47.113 303.769 47.2134 303.189 47.2134H299.153ZM300.402 46.0092H303.189C303.643 46.0092 303.998 45.9014 304.254 45.6859C304.511 45.4703 304.639 45.1767 304.639 44.805C304.639 44.3628 304.511 44.0153 304.254 43.7625C303.998 43.5061 303.643 43.3779 303.189 43.3779H300.402V46.0092ZM300.402 42.2406H302.654C303.007 42.2406 303.31 42.1923 303.563 42.0956C303.816 41.9953 304.009 41.8541 304.143 41.6719C304.28 41.4861 304.349 41.2668 304.349 41.0141C304.349 40.6536 304.198 40.3711 303.897 40.1667C303.596 39.9586 303.182 39.8545 302.654 39.8545H300.402V42.2406ZM311.133 47.3918C310.36 47.3918 309.682 47.2078 309.098 46.8399C308.519 46.4719 308.065 45.9572 307.738 45.2956C307.415 44.6341 307.253 43.861 307.253 42.9765C307.253 42.0845 307.415 41.3059 307.738 40.6406C308.065 39.9753 308.519 39.4587 309.098 39.0908C309.682 38.7228 310.36 38.5389 311.133 38.5389C311.906 38.5389 312.583 38.7228 313.162 39.0908C313.746 39.4587 314.199 39.9753 314.523 40.6406C314.85 41.3059 315.013 42.0845 315.013 42.9765C315.013 43.861 314.85 44.6341 314.523 45.2956C314.199 45.9572 313.746 46.4719 313.162 46.8399C312.583 47.2078 311.906 47.3918 311.133 47.3918ZM311.133 46.2099C311.72 46.2099 312.204 46.0594 312.583 45.7583C312.962 45.4573 313.242 45.0615 313.424 44.5709C313.607 44.0803 313.698 43.5488 313.698 42.9765C313.698 42.4041 313.607 41.8708 313.424 41.3765C313.242 40.8822 312.962 40.4826 312.583 40.1779C312.204 39.8731 311.72 39.7207 311.133 39.7207C310.546 39.7207 310.063 39.8731 309.684 40.1779C309.305 40.4826 309.024 40.8822 308.842 41.3765C308.66 41.8708 308.569 42.4041 308.569 42.9765C308.569 43.5488 308.66 44.0803 308.842 44.5709C309.024 45.0615 309.305 45.4573 309.684 45.7583C310.063 46.0594 310.546 46.2099 311.133 46.2099ZM320.186 47.3918C319.413 47.3918 318.735 47.2078 318.152 46.8399C317.572 46.4719 317.118 45.9572 316.791 45.2956C316.468 44.6341 316.306 43.861 316.306 42.9765C316.306 42.0845 316.468 41.3059 316.791 40.6406C317.118 39.9753 317.572 39.4587 318.152 39.0908C318.735 38.7228 319.413 38.5389 320.186 38.5389C320.959 38.5389 321.636 38.7228 322.216 39.0908C322.799 39.4587 323.253 39.9753 323.576 40.6406C323.903 41.3059 324.067 42.0845 324.067 42.9765C324.067 43.861 323.903 44.6341 323.576 45.2956C323.253 45.9572 322.799 46.4719 322.216 46.8399C321.636 47.2078 320.959 47.3918 320.186 47.3918ZM320.186 46.2099C320.774 46.2099 321.257 46.0594 321.636 45.7583C322.015 45.4573 322.296 45.0615 322.478 44.5709C322.66 44.0803 322.751 43.5488 322.751 42.9765C322.751 42.4041 322.66 41.8708 322.478 41.3765C322.296 40.8822 322.015 40.4826 321.636 40.1779C321.257 39.8731 320.774 39.7207 320.186 39.7207C319.599 39.7207 319.116 39.8731 318.737 40.1779C318.358 40.4826 318.077 40.8822 317.895 41.3765C317.713 41.8708 317.622 42.4041 317.622 42.9765C317.622 43.5488 317.713 44.0803 317.895 44.5709C318.077 45.0615 318.358 45.4573 318.737 45.7583C319.116 46.0594 319.599 46.2099 320.186 46.2099ZM332.116 35.4392L332.785 36.242C332.525 36.4947 332.224 36.6713 331.882 36.7716C331.54 36.872 331.154 36.9333 330.723 36.9556C330.291 36.9779 329.812 37.0002 329.284 37.0225C328.69 37.0448 328.197 37.1897 327.807 37.4573C327.417 37.7249 327.116 38.1114 326.904 38.6169C326.692 39.1224 326.556 39.743 326.497 40.4789H326.608C326.898 39.9437 327.3 39.5498 327.812 39.297C328.325 39.0443 328.875 38.9179 329.463 38.9179C330.132 38.9179 330.734 39.074 331.269 39.3862C331.804 39.6984 332.228 40.1611 332.54 40.7744C332.852 41.3876 333.008 42.1439 333.008 43.0434C333.008 43.9391 332.848 44.7121 332.529 45.3625C332.213 46.0129 331.769 46.5147 331.196 46.8677C330.628 47.2171 329.961 47.3918 329.195 47.3918C328.429 47.3918 327.759 47.2115 327.182 46.851C326.606 46.4868 326.159 45.9479 325.839 45.2343C325.519 44.517 325.359 43.6306 325.359 42.5751V41.6608C325.359 39.7542 325.683 38.3084 326.33 37.3235C326.98 36.3386 327.957 35.8295 329.262 35.796C329.723 35.7811 330.133 35.7774 330.494 35.7849C330.854 35.7923 331.169 35.7756 331.436 35.7347C331.704 35.6938 331.93 35.5953 332.116 35.4392ZM329.195 46.2099C329.712 46.2099 330.156 46.0798 330.527 45.8197C330.903 45.5595 331.191 45.1934 331.392 44.7214C331.592 44.2457 331.693 43.6863 331.693 43.0434C331.693 42.419 331.59 41.8875 331.386 41.4489C331.185 41.0104 330.897 40.6759 330.522 40.4455C330.146 40.215 329.697 40.0998 329.173 40.0998C328.79 40.0998 328.446 40.1649 328.141 40.2949C327.837 40.425 327.576 40.6164 327.361 40.8692C327.145 41.1219 326.978 41.4304 326.859 41.7946C326.744 42.1588 326.683 42.5751 326.675 43.0434C326.675 44.0022 326.9 44.7697 327.35 45.3458C327.799 45.9219 328.415 46.2099 329.195 46.2099ZM346.392 45.9869L346.236 49.6663H344.875V47.2134H343.76V45.9869H346.392ZM334.707 38.6503H336.022V45.9869H339.256V38.6503H340.572V45.9869H343.805V38.6503H345.121V47.2134H334.707V38.6503ZM351.49 47.3918C350.665 47.3918 349.953 47.2097 349.354 46.8454C348.76 46.4775 348.301 45.9646 347.977 45.3068C347.658 44.6452 347.498 43.8759 347.498 42.9988C347.498 42.1216 347.658 41.3486 347.977 40.6796C348.301 40.0069 348.75 39.4829 349.327 39.1075C349.906 38.7284 350.583 38.5389 351.356 38.5389C351.802 38.5389 352.242 38.6132 352.677 38.7618C353.112 38.9105 353.508 39.1521 353.864 39.4866C354.221 39.8174 354.506 40.2559 354.717 40.8023C354.929 41.3486 355.035 42.0213 355.035 42.8204V43.3779H348.435V42.2406H353.697C353.697 41.7574 353.601 41.3263 353.407 40.9472C353.218 40.5681 352.946 40.2689 352.593 40.0496C352.244 39.8304 351.832 39.7207 351.356 39.7207C350.832 39.7207 350.378 39.8508 349.996 40.111C349.616 40.3674 349.325 40.7019 349.12 41.1145C348.916 41.527 348.814 41.9693 348.814 42.4413V43.1995C348.814 43.8461 348.925 44.3943 349.148 44.8441C349.375 45.29 349.689 45.6301 350.09 45.8643C350.492 46.0947 350.958 46.2099 351.49 46.2099C351.835 46.2099 352.147 46.1616 352.426 46.065C352.709 45.9646 352.952 45.8159 353.156 45.619C353.361 45.4183 353.519 45.1693 353.63 44.8719L354.901 45.2287C354.768 45.6598 354.543 46.0389 354.227 46.366C353.911 46.6893 353.521 46.9421 353.056 47.1242C352.592 47.3026 352.069 47.3918 351.49 47.3918ZM360.824 47.2134V38.6503H362.14V42.3744H363.009L366.087 38.6503H367.781L364.325 42.7758L367.826 47.2134H366.131L363.322 43.6009H362.14V47.2134H360.824ZM371.462 47.4141C370.919 47.4141 370.427 47.3119 369.985 47.1075C369.542 46.8993 369.191 46.6001 368.931 46.2099C368.671 45.8159 368.541 45.3402 368.541 44.7827C368.541 44.2921 368.637 43.8945 368.831 43.5897C369.024 43.2812 369.282 43.0396 369.605 42.865C369.929 42.6903 370.286 42.5602 370.676 42.4747C371.07 42.3855 371.466 42.3149 371.863 42.2629C372.384 42.196 372.805 42.1458 373.129 42.1124C373.456 42.0752 373.694 42.0139 373.842 41.9284C373.995 41.8429 374.071 41.6942 374.071 41.4824V41.4378C374.071 40.8877 373.92 40.4603 373.619 40.1556C373.322 39.8508 372.87 39.6984 372.265 39.6984C371.637 39.6984 371.144 39.8359 370.787 40.111C370.431 40.386 370.18 40.6796 370.035 40.9918L368.786 40.5458C369.009 40.0255 369.306 39.6204 369.678 39.3305C370.053 39.0369 370.462 38.8325 370.904 38.7172C371.35 38.5983 371.789 38.5389 372.22 38.5389C372.495 38.5389 372.811 38.5723 373.168 38.6392C373.528 38.7024 373.876 38.8343 374.21 39.035C374.549 39.2357 374.829 39.5386 375.052 39.9437C375.275 40.3488 375.387 40.8915 375.387 41.5716V47.2134H374.071V46.0538H374.004C373.915 46.2396 373.766 46.4385 373.558 46.6503C373.35 46.8622 373.073 47.0424 372.727 47.1911C372.382 47.3397 371.96 47.4141 371.462 47.4141ZM371.663 46.2322C372.183 46.2322 372.621 46.13 372.978 45.9256C373.339 45.7212 373.61 45.4573 373.792 45.1339C373.978 44.8106 374.071 44.4705 374.071 44.1137V42.9096C374.015 42.9765 373.893 43.0378 373.703 43.0935C373.517 43.1456 373.302 43.192 373.056 43.2329C372.815 43.2701 372.579 43.3035 372.348 43.3333C372.122 43.3593 371.938 43.3816 371.796 43.4002C371.454 43.4448 371.135 43.5172 370.837 43.6176C370.544 43.7142 370.306 43.861 370.124 44.058C369.946 44.2513 369.856 44.5151 369.856 44.8496C369.856 45.3068 370.025 45.6524 370.364 45.8866C370.706 46.117 371.139 46.2322 371.663 46.2322ZM377.474 47.2134V38.6503H384.208V47.2134H382.893V39.8768H378.79V47.2134H377.474ZM389.887 47.3918C389.062 47.3918 388.351 47.2097 387.752 46.8454C387.158 46.4775 386.699 45.9646 386.375 45.3068C386.056 44.6452 385.896 43.8759 385.896 42.9988C385.896 42.1216 386.056 41.3486 386.375 40.6796C386.699 40.0069 387.148 39.4829 387.724 39.1075C388.304 38.7284 388.981 38.5389 389.754 38.5389C390.2 38.5389 390.64 38.6132 391.075 38.7618C391.51 38.9105 391.906 39.1521 392.262 39.4866C392.619 39.8174 392.903 40.2559 393.115 40.8023C393.327 41.3486 393.433 42.0213 393.433 42.8204V43.3779H386.832V42.2406H392.095C392.095 41.7574 391.999 41.3263 391.805 40.9472C391.616 40.5681 391.344 40.2689 390.991 40.0496C390.642 39.8304 390.229 39.7207 389.754 39.7207C389.23 39.7207 388.776 39.8508 388.393 40.111C388.014 40.3674 387.723 40.7019 387.518 41.1145C387.314 41.527 387.212 41.9693 387.212 42.4413V43.1995C387.212 43.8461 387.323 44.3943 387.546 44.8441C387.773 45.29 388.087 45.6301 388.488 45.8643C388.89 46.0947 389.356 46.2099 389.887 46.2099C390.233 46.2099 390.545 46.1616 390.824 46.065C391.107 45.9646 391.35 45.8159 391.554 45.619C391.759 45.4183 391.917 45.1693 392.028 44.8719L393.299 45.2287C393.166 45.6598 392.941 46.0389 392.625 46.366C392.309 46.6893 391.919 46.9421 391.454 47.1242C390.989 47.3026 390.467 47.3918 389.887 47.3918ZM401.855 38.6503V45.9869H403.059V49.9785H401.743V47.2134H395.121V38.6503H396.436V45.9869H400.539V38.6503H401.855ZM406.734 45.6524L406.645 46.2545C406.582 46.6782 406.485 47.1316 406.355 47.6148C406.229 48.0979 406.097 48.5532 405.959 48.9806C405.822 49.408 405.708 49.7481 405.619 50.0008H404.616C404.664 49.763 404.727 49.4489 404.805 49.0587C404.883 48.6684 404.961 48.2317 405.039 47.7486C405.121 47.2691 405.188 46.7785 405.24 46.2768L405.307 45.6524H406.734ZM412.468 39.8768V38.6503H419.426V39.8768H416.616V47.2134H415.3V39.8768H412.468ZM424.065 47.3918C423.292 47.3918 422.614 47.2078 422.03 46.8399C421.451 46.4719 420.997 45.9572 420.67 45.2956C420.347 44.6341 420.185 43.861 420.185 42.9765C420.185 42.0845 420.347 41.3059 420.67 40.6406C420.997 39.9753 421.451 39.4587 422.03 39.0908C422.614 38.7228 423.292 38.5389 424.065 38.5389C424.838 38.5389 425.515 38.7228 426.094 39.0908C426.678 39.4587 427.131 39.9753 427.455 40.6406C427.782 41.3059 427.945 42.0845 427.945 42.9765C427.945 43.861 427.782 44.6341 427.455 45.2956C427.131 45.9572 426.678 46.4719 426.094 46.8399C425.515 47.2078 424.838 47.3918 424.065 47.3918ZM424.065 46.2099C424.652 46.2099 425.136 46.0594 425.515 45.7583C425.894 45.4573 426.174 45.0615 426.356 44.5709C426.539 44.0803 426.63 43.5488 426.63 42.9765C426.63 42.4041 426.539 41.8708 426.356 41.3765C426.174 40.8822 425.894 40.4826 425.515 40.1779C425.136 39.8731 424.652 39.7207 424.065 39.7207C423.478 39.7207 422.995 39.8731 422.616 40.1779C422.237 40.4826 421.956 40.8822 421.774 41.3765C421.592 41.8708 421.501 42.4041 421.501 42.9765C421.501 43.5488 421.592 44.0803 421.774 44.5709C421.956 45.0615 422.237 45.4573 422.616 45.7583C422.995 46.0594 423.478 46.2099 424.065 46.2099ZM428.882 47.2134V45.9869H429.194C429.45 45.9869 429.664 45.9367 429.835 45.8364C430.006 45.7323 430.143 45.5521 430.247 45.2956C430.355 45.0355 430.437 44.6749 430.493 44.2141C430.552 43.7495 430.595 43.1586 430.621 42.4413L430.777 38.6503H436.486V47.2134H435.17V39.8768H432.026L431.892 42.9319C431.862 43.6343 431.799 44.2531 431.702 44.7883C431.609 45.3198 431.466 45.7658 431.273 46.1263C431.084 46.4868 430.831 46.7581 430.515 46.9402C430.199 47.1223 429.803 47.2134 429.327 47.2134H428.882ZM439.723 41.75H442.176C443.179 41.75 443.947 42.0046 444.478 42.5137C445.01 43.0229 445.275 43.6677 445.275 44.4482C445.275 44.9611 445.157 45.4276 444.919 45.8475C444.681 46.2638 444.331 46.5964 443.871 46.8454C443.41 47.0907 442.845 47.2134 442.176 47.2134H438.586V38.6503H439.901V45.9869H442.176C442.696 45.9869 443.124 45.8494 443.458 45.5744C443.793 45.2993 443.96 44.9463 443.96 44.5151C443.96 44.0617 443.793 43.6919 443.458 43.4057C443.124 43.1196 442.696 42.9765 442.176 42.9765H439.723V41.75ZM446.964 47.2134V38.6503H448.28V42.3744H449.15L452.227 38.6503H453.922L450.465 42.7758L453.966 47.2134H452.272L449.462 43.6009H448.28V47.2134H446.964ZM458.208 47.3918C457.435 47.3918 456.757 47.2078 456.174 46.8399C455.594 46.4719 455.14 45.9572 454.813 45.2956C454.49 44.6341 454.328 43.861 454.328 42.9765C454.328 42.0845 454.49 41.3059 454.813 40.6406C455.14 39.9753 455.594 39.4587 456.174 39.0908C456.757 38.7228 457.435 38.5389 458.208 38.5389C458.981 38.5389 459.658 38.7228 460.238 39.0908C460.821 39.4587 461.275 39.9753 461.598 40.6406C461.925 41.3059 462.089 42.0845 462.089 42.9765C462.089 43.861 461.925 44.6341 461.598 45.2956C461.275 45.9572 460.821 46.4719 460.238 46.8399C459.658 47.2078 458.981 47.3918 458.208 47.3918ZM458.208 46.2099C458.796 46.2099 459.279 46.0594 459.658 45.7583C460.037 45.4573 460.318 45.0615 460.5 44.5709C460.682 44.0803 460.773 43.5488 460.773 42.9765C460.773 42.4041 460.682 41.8708 460.5 41.3765C460.318 40.8822 460.037 40.4826 459.658 40.1779C459.279 39.8731 458.796 39.7207 458.208 39.7207C457.621 39.7207 457.138 39.8731 456.759 40.1779C456.38 40.4826 456.099 40.8822 455.917 41.3765C455.735 41.8708 455.644 42.4041 455.644 42.9765C455.644 43.5488 455.735 44.0803 455.917 44.5709C456.099 45.0615 456.38 45.4573 456.759 45.7583C457.138 46.0594 457.621 46.2099 458.208 46.2099ZM66.6052 69.2134V67.9869H66.9174C67.1738 67.9869 67.3875 67.9367 67.5585 67.8364C67.7294 67.7323 67.867 67.5521 67.971 67.2956C68.0788 67.0355 68.1606 66.6749 68.2163 66.2141C68.2758 65.7495 68.3185 65.1586 68.3445 64.4413L68.5006 60.6503H74.2093V69.2134H72.8936V61.8768H69.7494L69.6156 64.9319C69.5859 65.6343 69.5227 66.2531 69.4261 66.7883C69.3331 67.3198 69.1901 67.7658 68.9968 68.1263C68.8073 68.4868 68.5545 68.7581 68.2386 68.9402C67.9227 69.1223 67.5269 69.2134 67.0512 69.2134H66.6052ZM79.788 69.3918C79.0149 69.3918 78.3367 69.2078 77.7532 68.8399C77.1734 68.4719 76.72 67.9572 76.3929 67.2956C76.0695 66.6341 75.9079 65.861 75.9079 64.9765C75.9079 64.0845 76.0695 63.3059 76.3929 62.6406C76.72 61.9753 77.1734 61.4587 77.7532 61.0908C78.3367 60.7228 79.0149 60.5389 79.788 60.5389C80.561 60.5389 81.2375 60.7228 81.8173 61.0908C82.4008 61.4587 82.8542 61.9753 83.1775 62.6406C83.5046 63.3059 83.6681 64.0845 83.6681 64.9765C83.6681 65.861 83.5046 66.6341 83.1775 67.2956C82.8542 67.9572 82.4008 68.4719 81.8173 68.8399C81.2375 69.2078 80.561 69.3918 79.788 69.3918ZM79.788 68.2099C80.3752 68.2099 80.8584 68.0594 81.2375 67.7583C81.6166 67.4573 81.8972 67.0615 82.0793 66.5709C82.2614 66.0803 82.3524 65.5488 82.3524 64.9765C82.3524 64.4041 82.2614 63.8708 82.0793 63.3765C81.8972 62.8822 81.6166 62.4826 81.2375 62.1779C80.8584 61.8731 80.3752 61.7207 79.788 61.7207C79.2008 61.7207 78.7176 61.8731 78.3385 62.1779C77.9594 62.4826 77.6788 62.8822 77.4967 63.3765C77.3146 63.8708 77.2235 64.4041 77.2235 64.9765C77.2235 65.5488 77.3146 66.0803 77.4967 66.5709C77.6788 67.0615 77.9594 67.4573 78.3385 67.7583C78.7176 68.0594 79.2008 68.2099 79.788 68.2099ZM90.6475 60.6503V61.8768H86.6782V69.2134H85.3625V60.6503H90.6475ZM95.2882 69.3918C94.5151 69.3918 93.8369 69.2078 93.2534 68.8399C92.6736 68.4719 92.2201 67.9572 91.8931 67.2956C91.5697 66.6341 91.4081 65.861 91.4081 64.9765C91.4081 64.0845 91.5697 63.3059 91.8931 62.6406C92.2201 61.9753 92.6736 61.4587 93.2534 61.0908C93.8369 60.7228 94.5151 60.5389 95.2882 60.5389C96.0612 60.5389 96.7377 60.7228 97.3175 61.0908C97.901 61.4587 98.3544 61.9753 98.6777 62.6406C99.0048 63.3059 99.1683 64.0845 99.1683 64.9765C99.1683 65.861 99.0048 66.6341 98.6777 67.2956C98.3544 67.9572 97.901 68.4719 97.3175 68.8399C96.7377 69.2078 96.0612 69.3918 95.2882 69.3918ZM95.2882 68.2099C95.8754 68.2099 96.3586 68.0594 96.7377 67.7583C97.1168 67.4573 97.3974 67.0615 97.5795 66.5709C97.7616 66.0803 97.8526 65.5488 97.8526 64.9765C97.8526 64.4041 97.7616 63.8708 97.5795 63.3765C97.3974 62.8822 97.1168 62.4826 96.7377 62.1779C96.3586 61.8731 95.8754 61.7207 95.2882 61.7207C94.701 61.7207 94.2178 61.8731 93.8387 62.1779C93.4596 62.4826 93.179 62.8822 92.9969 63.3765C92.8148 63.8708 92.7237 64.4041 92.7237 64.9765C92.7237 65.5488 92.8148 66.0803 92.9969 66.5709C93.179 67.0615 93.4596 67.4573 93.8387 67.7583C94.2178 68.0594 94.701 68.2099 95.2882 68.2099ZM99.7435 61.8768V60.6503H106.701V61.8768H103.891V69.2134H102.576V61.8768H99.7435ZM109.622 67.2733L113.747 60.6503H115.264V69.2134H113.948V62.5904L109.845 69.2134H108.306V60.6503H109.622V67.2733ZM117.359 69.2134V60.6503H124.094V69.2134H122.778V61.8768H118.675V69.2134H117.359ZM131.6 67.2733L135.725 60.6503H137.241V69.2134H135.926V62.5904L131.823 69.2134H130.284V60.6503H131.6V67.2733ZM149.794 57.4392L150.463 58.242C150.203 58.4947 149.902 58.6713 149.56 58.7716C149.218 58.872 148.831 58.9333 148.4 58.9556C147.969 58.9779 147.49 59.0002 146.962 59.0225C146.367 59.0448 145.875 59.1897 145.485 59.4573C145.094 59.7249 144.793 60.1114 144.581 60.6169C144.37 61.1224 144.234 61.743 144.174 62.4789H144.286C144.576 61.9437 144.977 61.5498 145.49 61.297C146.003 61.0443 146.553 60.9179 147.14 60.9179C147.809 60.9179 148.411 61.074 148.947 61.3862C149.482 61.6984 149.905 62.1611 150.218 62.7744C150.53 63.3876 150.686 64.1439 150.686 65.0434C150.686 65.9391 150.526 66.7121 150.206 67.3625C149.891 68.0129 149.446 68.5147 148.874 68.8677C148.305 69.2171 147.638 69.3918 146.873 69.3918C146.107 69.3918 145.436 69.2115 144.86 68.851C144.284 68.4868 143.836 67.9479 143.517 67.2343C143.197 66.517 143.037 65.6306 143.037 64.5751V63.6608C143.037 61.7542 143.361 60.3084 144.007 59.3235C144.658 58.3386 145.635 57.8295 146.94 57.796C147.4 57.7811 147.811 57.7774 148.172 57.7849C148.532 57.7923 148.846 57.7756 149.114 57.7347C149.381 57.6938 149.608 57.5953 149.794 57.4392ZM146.873 68.2099C147.389 68.2099 147.833 68.0798 148.205 67.8197C148.58 67.5595 148.869 67.1934 149.069 66.7214C149.27 66.2457 149.37 65.6863 149.37 65.0434C149.37 64.419 149.268 63.8875 149.064 63.4489C148.863 63.0104 148.575 62.6759 148.2 62.4455C147.824 62.215 147.374 62.0998 146.85 62.0998C146.468 62.0998 146.124 62.1649 145.819 62.2949C145.514 62.425 145.254 62.6164 145.039 62.8692C144.823 63.1219 144.656 63.4304 144.537 63.7946C144.422 64.1588 144.36 64.5751 144.353 65.0434C144.353 66.0022 144.578 66.7697 145.027 67.3458C145.477 67.9219 146.092 68.2099 146.873 68.2099ZM155.975 69.3918C155.15 69.3918 154.438 69.2097 153.84 68.8454C153.245 68.4775 152.786 67.9646 152.463 67.3068C152.143 66.6452 151.983 65.8759 151.983 64.9988C151.983 64.1216 152.143 63.3486 152.463 62.6796C152.786 62.0069 153.236 61.4829 153.812 61.1075C154.391 60.7284 155.068 60.5389 155.841 60.5389C156.287 60.5389 156.727 60.6132 157.162 60.7618C157.597 60.9105 157.993 61.1521 158.35 61.4866C158.706 61.8174 158.991 62.2559 159.203 62.8023C159.414 63.3486 159.52 64.0213 159.52 64.8204V65.3779H152.92V64.2406H158.182C158.182 63.7574 158.086 63.3263 157.892 62.9472C157.703 62.5681 157.432 62.2689 157.079 62.0496C156.729 61.8304 156.317 61.7207 155.841 61.7207C155.317 61.7207 154.863 61.8508 154.481 62.111C154.102 62.3674 153.81 62.7019 153.605 63.1145C153.401 63.527 153.299 63.9693 153.299 64.4413V65.1995C153.299 65.8461 153.41 66.3943 153.633 66.8441C153.86 67.29 154.174 67.6301 154.575 67.8643C154.977 68.0947 155.443 68.2099 155.975 68.2099C156.32 68.2099 156.633 68.1616 156.911 68.065C157.194 67.9646 157.437 67.8159 157.642 67.619C157.846 67.4183 158.004 67.1693 158.115 66.8719L159.387 67.2287C159.253 67.6598 159.028 68.0389 158.712 68.366C158.396 68.6893 158.006 68.9421 157.541 69.1242C157.077 69.3026 156.554 69.3918 155.975 69.3918ZM160.45 69.2134V67.9869H160.762C161.018 67.9869 161.232 67.9367 161.403 67.8364C161.574 67.7323 161.711 67.5521 161.815 67.2956C161.923 67.0355 162.005 66.6749 162.061 66.2141C162.12 65.7495 162.163 65.1586 162.189 64.4413L162.345 60.6503H168.054V69.2134H166.738V61.8768H163.594L163.46 64.9319C163.43 65.6343 163.367 66.2531 163.27 66.7883C163.178 67.3198 163.034 67.7658 162.841 68.1263C162.652 68.4868 162.399 68.7581 162.083 68.9402C161.767 69.1223 161.371 69.2134 160.896 69.2134H160.45ZM171.291 63.75H173.744C174.747 63.75 175.515 64.0046 176.046 64.5137C176.578 65.0229 176.844 65.6677 176.844 66.4482C176.844 66.9611 176.725 67.4276 176.487 67.8475C176.249 68.2638 175.9 68.5964 175.439 68.8454C174.978 69.0907 174.413 69.2134 173.744 69.2134H170.154V60.6503H171.469V67.9869H173.744C174.264 67.9869 174.692 67.8494 175.026 67.5744C175.361 67.2993 175.528 66.9463 175.528 66.5151C175.528 66.0617 175.361 65.6919 175.026 65.4057C174.692 65.1196 174.264 64.9765 173.744 64.9765H171.291V63.75ZM178.204 69.2134V60.6503H179.519V69.2134H178.204ZM182.93 67.2733L187.055 60.6503H188.571V69.2134H187.256V62.5904L183.153 69.2134H181.614V60.6503H182.93V67.2733ZM186.185 57.796H187.412C187.412 58.3981 187.204 58.8905 186.787 59.2734C186.371 59.6562 185.806 59.8476 185.093 59.8476C184.39 59.8476 183.831 59.6562 183.415 59.2734C183.002 58.8905 182.796 58.3981 182.796 57.796H184.022C184.022 58.0859 184.102 58.3405 184.262 58.5598C184.425 58.779 184.702 58.8887 185.093 58.8887C185.483 58.8887 185.762 58.779 185.929 58.5598C186.1 58.3405 186.185 58.0859 186.185 57.796ZM197.6 61.7653C197.303 61.769 197.004 61.8452 196.703 61.9939C196.406 62.1426 196.157 62.3395 195.956 62.5848C195.759 62.8264 195.66 63.0959 195.66 63.3932H194.367C194.367 63.0215 194.456 62.6647 194.635 62.3228C194.813 61.9809 195.053 61.6761 195.354 61.4085C195.659 61.1409 196.004 60.9291 196.391 60.773C196.781 60.6169 197.184 60.5389 197.6 60.5389C198.381 60.5389 199.042 60.7358 199.585 61.1298C200.131 61.5237 200.546 62.0441 200.828 62.6908C201.114 63.3374 201.258 64.0399 201.258 64.7981V65.1103C201.258 65.8647 201.114 66.5672 200.828 67.2176C200.546 67.8643 200.131 68.3846 199.585 68.7785C199.042 69.1725 198.381 69.3695 197.6 69.3695C196.976 69.3695 196.42 69.232 195.934 68.9569C195.447 68.6782 195.064 68.3065 194.785 67.842C194.506 67.3774 194.367 66.8608 194.367 66.2921H195.66C195.66 66.6155 195.751 66.9184 195.934 67.2008C196.119 67.4796 196.359 67.7063 196.653 67.881C196.95 68.0519 197.266 68.1393 197.6 68.143C198.098 68.1393 198.522 67.9832 198.872 67.6747C199.221 67.3662 199.487 66.9797 199.669 66.5151C199.851 66.0506 199.942 65.5823 199.942 65.1103V64.7981C199.942 64.3149 199.851 63.8429 199.669 63.382C199.49 62.9175 199.226 62.5328 198.877 62.228C198.531 61.9233 198.106 61.769 197.6 61.7653ZM200.477 64.2852V65.5117H196.731V64.2852H200.477ZM202.948 69.2134V60.6503H204.263V64.3744H205.133L208.21 60.6503H209.905L206.449 64.7758L209.95 69.2134H208.255L205.445 65.6009H204.263V69.2134H202.948ZM211.066 72.4245V60.6503H212.337V62.0106H212.493C212.59 61.862 212.723 61.6724 212.894 61.442C213.069 61.2078 213.318 60.9997 213.641 60.8176C213.968 60.6318 214.411 60.5389 214.968 60.5389C215.689 60.5389 216.325 60.7191 216.875 61.0796C217.425 61.4401 217.854 61.9512 218.163 62.6127C218.471 63.2743 218.625 64.0547 218.625 64.9542C218.625 65.861 218.471 66.6471 218.163 67.3123C217.854 67.9739 217.427 68.4868 216.88 68.851C216.334 69.2115 215.704 69.3918 214.991 69.3918C214.44 69.3918 214 69.3007 213.669 69.1186C213.339 68.9328 213.084 68.7228 212.906 68.4886C212.727 68.2508 212.59 68.0538 212.493 67.8977H212.381V72.4245H211.066ZM212.359 64.9319C212.359 65.5786 212.454 66.149 212.644 66.6434C212.833 67.1339 213.11 67.5186 213.474 67.7974C213.838 68.0724 214.284 68.2099 214.812 68.2099C215.362 68.2099 215.821 68.065 216.189 67.7751C216.561 67.4814 216.84 67.0875 217.025 66.5932C217.215 66.0952 217.31 65.5414 217.31 64.9319C217.31 64.3298 217.217 63.7872 217.031 63.304C216.849 62.8171 216.572 62.4325 216.2 62.15C215.832 61.8638 215.37 61.7207 214.812 61.7207C214.277 61.7207 213.827 61.8564 213.463 62.1277C213.099 62.3953 212.824 62.7707 212.638 63.2538C212.452 63.7333 212.359 64.2926 212.359 64.9319ZM222.838 69.4141C222.296 69.4141 221.803 69.3119 221.361 69.1075C220.919 68.8993 220.567 68.6001 220.307 68.2099C220.047 67.8159 219.917 67.3402 219.917 66.7827C219.917 66.2921 220.014 65.8945 220.207 65.5897C220.4 65.2812 220.658 65.0396 220.982 64.865C221.305 64.6903 221.662 64.5602 222.052 64.4747C222.446 64.3855 222.842 64.3149 223.24 64.2629C223.76 64.196 224.182 64.1458 224.505 64.1124C224.832 64.0752 225.07 64.0139 225.219 63.9284C225.371 63.8429 225.447 63.6942 225.447 63.4824V63.4378C225.447 62.8877 225.297 62.4603 224.996 62.1556C224.698 61.8508 224.247 61.6984 223.641 61.6984C223.013 61.6984 222.52 61.8359 222.164 62.111C221.807 62.386 221.556 62.6796 221.411 62.9918L220.162 62.5458C220.385 62.0255 220.683 61.6204 221.054 61.3305C221.43 61.0369 221.838 60.8325 222.281 60.7172C222.727 60.5983 223.165 60.5389 223.596 60.5389C223.871 60.5389 224.187 60.5723 224.544 60.6392C224.905 60.7024 225.252 60.8343 225.587 61.035C225.925 61.2357 226.205 61.5386 226.428 61.9437C226.651 62.3488 226.763 62.8915 226.763 63.5716V69.2134H225.447V68.0538H225.38C225.291 68.2396 225.142 68.4385 224.934 68.6503C224.726 68.8622 224.449 69.0424 224.104 69.1911C223.758 69.3397 223.336 69.4141 222.838 69.4141ZM223.039 68.2322C223.559 68.2322 223.998 68.13 224.355 67.9256C224.715 67.7212 224.986 67.4573 225.168 67.1339C225.354 66.8106 225.447 66.4705 225.447 66.1137V64.9096C225.391 64.9765 225.269 65.0378 225.079 65.0935C224.893 65.1456 224.678 65.192 224.433 65.2329C224.191 65.2701 223.955 65.3035 223.725 65.3333C223.498 65.3593 223.314 65.3816 223.173 65.4002C222.831 65.4448 222.511 65.5172 222.214 65.6176C221.92 65.7142 221.682 65.861 221.5 66.058C221.322 66.2513 221.233 66.5151 221.233 66.8496C221.233 67.3068 221.402 67.6524 221.74 67.8866C222.082 68.117 222.515 68.2322 223.039 68.2322ZM234.581 64.3298V65.5563H229.854V64.3298H234.581ZM230.166 60.6503V69.2134H228.85V60.6503H230.166ZM235.585 60.6503V69.2134H234.269V60.6503H235.585Z" fill="#F5F5F5" style="fill:#F5F5F5;fill:color(display-p3 0.9625 0.9625 0.9625);fill-opacity:1;"/>
<path d="M510.685 64.0973V75.5146H509.302V65.5467H509.236L506.448 67.3976V65.9927L509.302 64.0973H510.685ZM512.759 73.1732V72.0359L517.777 64.0973H518.602V65.8589H518.044L514.253 71.8575V71.9467H521.01V73.1732H512.759ZM518.133 75.5146V72.8276V72.2979V64.0973H519.449V75.5146H518.133ZM523.138 74.054C522.863 74.054 522.627 73.9555 522.43 73.7586C522.233 73.5616 522.135 73.3256 522.135 73.0505C522.135 72.7755 522.233 72.5395 522.43 72.3425C522.627 72.1456 522.863 72.0471 523.138 72.0471C523.413 72.0471 523.649 72.1456 523.846 72.3425C524.043 72.5395 524.142 72.7755 524.142 73.0505C524.142 73.2327 524.095 73.3999 524.003 73.5523C523.913 73.7047 523.793 73.8273 523.64 73.9202C523.491 74.0094 523.324 74.054 523.138 74.054ZM523.138 68.2784C522.863 68.2784 522.627 68.18 522.43 67.983C522.233 67.786 522.135 67.55 522.135 67.275C522.135 66.9999 522.233 66.7639 522.43 66.567C522.627 66.37 522.863 66.2715 523.138 66.2715C523.413 66.2715 523.649 66.37 523.846 66.567C524.043 66.7639 524.142 66.9999 524.142 67.275C524.142 67.4571 524.095 67.6243 524.003 67.7767C523.913 67.9291 523.793 68.0517 523.64 68.1446C523.491 68.2338 523.324 68.2784 523.138 68.2784ZM529.553 64.0973V75.5146H528.17V65.5467H528.103L525.316 67.3976V65.9927L528.17 64.0973H529.553ZM531.894 75.5146V74.5112L535.663 70.3858C536.105 69.9026 536.469 69.4826 536.756 69.1258C537.042 68.7653 537.254 68.4271 537.391 68.1112C537.532 67.7916 537.603 67.4571 537.603 67.1077C537.603 66.7063 537.506 66.3588 537.313 66.0652C537.123 65.7716 536.863 65.5449 536.533 65.3851C536.202 65.2253 535.83 65.1454 535.418 65.1454C534.979 65.1454 534.596 65.2364 534.269 65.4185C533.946 65.5969 533.695 65.8478 533.517 66.1711C533.342 66.4945 533.254 66.8736 533.254 67.3084H531.939C531.939 66.6394 532.093 66.0522 532.402 65.5467C532.71 65.0413 533.13 64.6473 533.661 64.3649C534.197 64.0824 534.797 63.9412 535.462 63.9412C536.131 63.9412 536.724 64.0824 537.241 64.3649C537.757 64.6473 538.162 65.0283 538.456 65.5077C538.749 65.9872 538.896 66.5205 538.896 67.1077C538.896 67.5277 538.82 67.9384 538.668 68.3398C538.519 68.7374 538.259 69.1816 537.887 69.6722C537.519 70.159 537.008 70.7537 536.354 71.4561L533.79 74.199V74.2882H539.097V75.5146H531.894Z" fill="#707E8D" style="fill:#707E8D;fill:color(display-p3 0.4392 0.4941 0.5529);fill-opacity:1;"/>
<defs>
<linearGradient id="paint0_linear_1255_47016" x1="20.1843" y1="45.0583" x2="20.1843" y2="85.4269" gradientUnits="userSpaceOnUse">
<stop stop-color="#F3BC6B" style="stop-color:#F3BC6B;stop-color:color(display-p3 0.9529 0.7373 0.4196);stop-opacity:1;"/>
<stop offset="1" stop-color="#E78A4A" style="stop-color:#E78A4A;stop-color:color(display-p3 0.9059 0.5412 0.2902);stop-opacity:1;"/>
</linearGradient>
</defs>
</svg>
