<svg width="552" height="86" viewBox="0 0 552 86" fill="none" xmlns="http://www.w3.org/2000/svg">
<rect y="45.0583" width="40.3686" height="40.3686" rx="20.1843" fill="url(#paint0_linear_1255_47015)" style=""/>
<path d="M25.0564 59.5098V71.7427H22.8583V61.3495H17.5064V71.7427H15.3083V59.5098H25.0564Z" fill="white" style="fill:white;fill-opacity:1;"/>
<path d="M52.7035 85.4269V71.9707C52.7035 78.176 48.5032 83.4003 42.7906 84.9555C42.6855 84.9841 42.6113 85.0791 42.6113 85.1881C42.6113 85.32 42.7182 85.4269 42.8501 85.4269H52.7035Z" fill="#1B2532" style="fill:#1B2532;fill:color(display-p3 0.1059 0.1451 0.1961);fill-opacity:1;"/>
<path d="M52.7031 32.2948C52.7031 20.9906 52.7031 15.3385 54.9031 11.0208C56.8382 7.22289 59.926 4.13509 63.7239 2.19996C68.0416 0 73.6937 0 84.998 0H519.705C531.009 0 536.661 0 540.979 2.19996C544.777 4.13509 547.865 7.22289 549.8 11.0208C552 15.3385 552 20.9906 552 32.2948V53.1321C552 64.4364 552 70.0885 549.8 74.4062C547.865 78.2041 544.777 81.2919 540.979 83.227C536.661 85.427 531.009 85.427 519.705 85.427H52.7031V32.2948Z" fill="#1B2532" style="fill:#1B2532;fill:color(display-p3 0.1059 0.1451 0.1961);fill-opacity:1;"/>
<path d="M76.6009 14.796V26.2134H74.5494V16.5131H69.5543V26.2134H67.5027V14.796H76.6009ZM82.5638 26.3806C81.7276 26.3806 81.0028 26.1967 80.3896 25.8287C79.7763 25.4608 79.3006 24.946 78.9624 24.2845C78.6279 23.6229 78.4607 22.8499 78.4607 21.9653C78.4607 21.0808 78.6279 20.3059 78.9624 19.6406C79.3006 18.9753 79.7763 18.4587 80.3896 18.0908C81.0028 17.7228 81.7276 17.5389 82.5638 17.5389C83.4 17.5389 84.1248 17.7228 84.738 18.0908C85.3512 18.4587 85.8251 18.9753 86.1596 19.6406C86.4978 20.3059 86.6669 21.0808 86.6669 21.9653C86.6669 22.8499 86.4978 23.6229 86.1596 24.2845C85.8251 24.946 85.3512 25.4608 84.738 25.8287C84.1248 26.1967 83.4 26.3806 82.5638 26.3806ZM82.5749 24.7639C83.0284 24.7639 83.4075 24.6394 83.7122 24.3904C84.017 24.1377 84.2437 23.7995 84.3924 23.3758C84.5447 22.9521 84.6209 22.4801 84.6209 21.9597C84.6209 21.4357 84.5447 20.9618 84.3924 20.5381C84.2437 20.1107 84.017 19.7707 83.7122 19.5179C83.4075 19.2652 83.0284 19.1388 82.5749 19.1388C82.1104 19.1388 81.7238 19.2652 81.4154 19.5179C81.1106 19.7707 80.882 20.1107 80.7297 20.5381C80.581 20.9618 80.5067 21.4357 80.5067 21.9597C80.5067 22.4801 80.581 22.9521 80.7297 23.3758C80.882 23.7995 81.1106 24.1377 81.4154 24.3904C81.7238 24.6394 82.1104 24.7639 82.5749 24.7639ZM87.6319 26.2134L87.6207 24.5521H87.9162C88.1392 24.5521 88.3269 24.5019 88.4792 24.4015C88.6316 24.3012 88.758 24.1339 88.8583 23.8998C88.9587 23.6619 89.0367 23.3423 89.0925 22.9409C89.1482 22.5395 89.1873 22.0396 89.2096 21.4413L89.3601 17.6503H95.604V26.2134H93.6527V19.3061H91.1942L91.0604 22.0657C91.027 22.7792 90.9471 23.3981 90.8207 23.9221C90.6981 24.4424 90.5234 24.8717 90.2967 25.2099C90.0737 25.5481 89.7931 25.8008 89.4549 25.9681C89.1166 26.1316 88.7171 26.2134 88.2563 26.2134H87.6319ZM102.541 26.2134V19.2894H100.712C100.248 19.2894 99.8911 19.3971 99.6421 19.6127C99.3931 19.8283 99.2704 20.0959 99.2741 20.4155C99.2704 20.7351 99.3875 20.999 99.6253 21.2071C99.8632 21.4153 100.203 21.5193 100.646 21.5193H103.177V22.9911H100.646C99.9617 22.9911 99.3708 22.8833 98.8727 22.6677C98.3747 22.4522 97.9919 22.1474 97.7243 21.7535C97.4567 21.3595 97.3229 20.8987 97.3229 20.3709C97.3229 19.8208 97.4586 19.3433 97.7299 18.9381C98.0049 18.5293 98.3952 18.2134 98.9006 17.9904C99.4098 17.7637 100.014 17.6503 100.712 17.6503H104.431V26.2134H102.541ZM97.0107 26.2134L99.4024 21.8204H101.393L98.9954 26.2134H97.0107ZM106.306 26.2134V17.6503H108.324V21.1068H109.06L111.636 17.6503H114.066L110.894 21.8538L114.1 26.2134H111.658L109.311 22.9855H108.324V26.2134H106.306ZM118.469 26.3806C117.633 26.3806 116.909 26.1967 116.295 25.8287C115.682 25.4608 115.206 24.946 114.868 24.2845C114.534 23.6229 114.366 22.8499 114.366 21.9653C114.366 21.0808 114.534 20.3059 114.868 19.6406C115.206 18.9753 115.682 18.4587 116.295 18.0908C116.909 17.7228 117.633 17.5389 118.469 17.5389C119.306 17.5389 120.03 17.7228 120.644 18.0908C121.257 18.4587 121.731 18.9753 122.065 19.6406C122.403 20.3059 122.573 21.0808 122.573 21.9653C122.573 22.8499 122.403 23.6229 122.065 24.2845C121.731 24.946 121.257 25.4608 120.644 25.8287C120.03 26.1967 119.306 26.3806 118.469 26.3806ZM118.481 24.7639C118.934 24.7639 119.313 24.6394 119.618 24.3904C119.923 24.1377 120.149 23.7995 120.298 23.3758C120.45 22.9521 120.527 22.4801 120.527 21.9597C120.527 21.4357 120.45 20.9618 120.298 20.5381C120.149 20.1107 119.923 19.7707 119.618 19.5179C119.313 19.2652 118.934 19.1388 118.481 19.1388C118.016 19.1388 117.63 19.2652 117.321 19.5179C117.016 19.7707 116.788 20.1107 116.635 20.5381C116.487 20.9618 116.412 21.4357 116.412 21.9597C116.412 22.4801 116.487 22.9521 116.635 23.3758C116.788 23.7995 117.016 24.1377 117.321 24.3904C117.63 24.6394 118.016 24.7639 118.481 24.7639ZM124.128 26.2134V17.6503H127.724C128.739 17.6503 129.54 17.8529 130.127 18.258C130.718 18.6631 131.013 19.228 131.013 19.9528C131.013 20.4322 130.846 20.8243 130.512 21.1291C130.181 21.4301 129.729 21.6327 129.157 21.7367C129.607 21.7739 130.001 21.8873 130.339 22.0768C130.681 22.2664 130.948 22.5154 131.142 22.8238C131.335 23.1323 131.432 23.4873 131.432 23.8887C131.432 24.3607 131.307 24.7713 131.058 25.1207C130.813 25.4663 130.454 25.7358 129.982 25.9291C129.514 26.1186 128.945 26.2134 128.276 26.2134H124.128ZM126.018 24.6245H128.276C128.648 24.6245 128.94 24.5372 129.151 24.3625C129.363 24.1841 129.469 23.9425 129.469 23.6378C129.469 23.2847 129.363 23.0078 129.151 22.8071C128.94 22.6027 128.648 22.5005 128.276 22.5005H126.018V24.6245ZM126.018 21.196H127.763C128.038 21.196 128.274 21.157 128.471 21.0789C128.668 20.9971 128.819 20.8838 128.923 20.7388C129.027 20.5902 129.079 20.4136 129.079 20.2092C129.079 19.9156 128.958 19.6852 128.717 19.5179C128.479 19.3507 128.148 19.2671 127.724 19.2671H126.018V21.196ZM136.766 14.796H138.818V22.5786H138.924L144.292 14.796H146.149V26.2134H144.081V18.4364H143.986L138.601 26.2134H136.766V14.796ZM149.4 26.336C149.061 26.336 148.771 26.2171 148.53 25.9792C148.288 25.7414 148.169 25.4515 148.173 25.1096C148.169 24.7751 148.288 24.4889 148.53 24.251C148.771 24.0132 149.061 23.8942 149.4 23.8942C149.727 23.8942 150.011 24.0132 150.253 24.251C150.498 24.4889 150.622 24.7751 150.626 25.1096C150.622 25.3363 150.563 25.5425 150.448 25.7284C150.336 25.9142 150.187 26.0629 150.002 26.1744C149.82 26.2821 149.619 26.336 149.4 26.336ZM152.642 26.2134V14.796H157.013C157.838 14.796 158.523 14.9261 159.07 15.1862C159.62 15.4427 160.03 15.7939 160.302 16.2399C160.577 16.6859 160.714 17.1914 160.714 17.7563C160.714 18.2208 160.625 18.6185 160.447 18.9493C160.268 19.2764 160.029 19.5421 159.728 19.7465C159.427 19.9509 159.09 20.0977 158.718 20.1869V20.2984C159.124 20.3207 159.512 20.4452 159.884 20.6719C160.259 20.8949 160.566 21.2108 160.804 21.6197C161.041 22.0285 161.16 22.5228 161.16 23.1026C161.16 23.6935 161.017 24.225 160.731 24.697C160.445 25.1653 160.014 25.5351 159.438 25.8064C158.862 26.0777 158.137 26.2134 157.263 26.2134H152.642ZM154.71 24.4852H156.935C157.685 24.4852 158.226 24.3421 158.557 24.0559C158.891 23.766 159.059 23.3943 159.059 22.9409C159.059 22.6027 158.975 22.2979 158.808 22.0266C158.64 21.7516 158.403 21.536 158.094 21.38C157.786 21.2201 157.418 21.1402 156.99 21.1402H154.71V24.4852ZM154.71 19.6517H156.756C157.113 19.6517 157.434 19.5867 157.721 19.4566C158.007 19.3228 158.232 19.1351 158.395 18.8936C158.562 18.6483 158.646 18.3584 158.646 18.0239C158.646 17.5816 158.49 17.2174 158.178 16.9312C157.869 16.645 157.41 16.5019 156.801 16.5019H154.71V19.6517ZM163.957 26.336C163.618 26.336 163.329 26.2171 163.087 25.9792C162.845 25.7414 162.726 25.4515 162.73 25.1096C162.726 24.7751 162.845 24.4889 163.087 24.251C163.329 24.0132 163.618 23.8942 163.957 23.8942C164.284 23.8942 164.568 24.0132 164.81 24.251C165.055 24.4889 165.179 24.7751 165.183 25.1096C165.179 25.3363 165.12 25.5425 165.005 25.7284C164.893 25.9142 164.745 26.0629 164.559 26.1744C164.377 26.2821 164.176 26.336 163.957 26.336Z" fill="#A4CF71" style="fill:#A4CF71;fill:color(display-p3 0.6431 0.8118 0.4431);fill-opacity:1;"/>
<path d="M67.3634 50.4245V38.6503H68.6344V40.0106H68.7905C68.8872 39.862 69.021 39.6724 69.1919 39.442C69.3666 39.2078 69.6156 38.9997 69.939 38.8176C70.266 38.6318 70.7083 38.5389 71.2658 38.5389C71.9868 38.5389 72.6223 38.7191 73.1724 39.0796C73.7224 39.4401 74.1517 39.9512 74.4602 40.6127C74.7687 41.2743 74.9229 42.0547 74.9229 42.9542C74.9229 43.861 74.7687 44.6471 74.4602 45.3123C74.1517 45.9739 73.7243 46.4868 73.178 46.851C72.6316 47.2115 72.0017 47.3918 71.2881 47.3918C70.738 47.3918 70.2976 47.3007 69.9668 47.1186C69.6361 46.9328 69.3815 46.7228 69.2031 46.4886C69.0247 46.2508 68.8872 46.0538 68.7905 45.8977H68.679V50.4245H67.3634ZM68.6567 42.9319C68.6567 43.5786 68.7515 44.149 68.941 44.6434C69.1306 45.1339 69.4075 45.5186 69.7717 45.7974C70.1359 46.0724 70.5819 46.2099 71.1097 46.2099C71.6597 46.2099 72.1187 46.065 72.4867 45.7751C72.8583 45.4814 73.1371 45.0875 73.3229 44.5932C73.5125 44.0952 73.6072 43.5414 73.6072 42.9319C73.6072 42.3298 73.5143 41.7872 73.3285 41.304C73.1464 40.8171 72.8695 40.4325 72.4978 40.15C72.1299 39.8638 71.6672 39.7207 71.1097 39.7207C70.5745 39.7207 70.1248 39.8564 69.7606 40.1277C69.3963 40.3953 69.1213 40.7707 68.9355 41.2538C68.7496 41.7333 68.6567 42.2926 68.6567 42.9319ZM80.2061 47.3918C79.381 47.3918 78.6693 47.2097 78.0709 46.8454C77.4763 46.4775 77.0173 45.9646 76.6939 45.3068C76.3743 44.6452 76.2145 43.8759 76.2145 42.9988C76.2145 42.1216 76.3743 41.3486 76.6939 40.6796C77.0173 40.0069 77.467 39.4829 78.0431 39.1075C78.6228 38.7284 79.2993 38.5389 80.0723 38.5389C80.5183 38.5389 80.9587 38.6132 81.3936 38.7618C81.8284 38.9105 82.2242 39.1521 82.581 39.4866C82.9378 39.8174 83.2221 40.2559 83.434 40.8023C83.6458 41.3486 83.7517 42.0213 83.7517 42.8204V43.3779H77.1511V42.2406H82.4138C82.4138 41.7574 82.3171 41.3263 82.1239 40.9472C81.9343 40.5681 81.663 40.2689 81.3099 40.0496C80.9606 39.8304 80.548 39.7207 80.0723 39.7207C79.5483 39.7207 79.0949 39.8508 78.712 40.111C78.333 40.3674 78.0412 40.7019 77.8368 41.1145C77.6324 41.527 77.5302 41.9693 77.5302 42.4413V43.1995C77.5302 43.8461 77.6417 44.3943 77.8647 44.8441C78.0914 45.29 78.4054 45.6301 78.8068 45.8643C79.2082 46.0947 79.6746 46.2099 80.2061 46.2099C80.5518 46.2099 80.864 46.1616 81.1427 46.065C81.4252 45.9646 81.6686 45.8159 81.873 45.619C82.0774 45.4183 82.2354 45.1693 82.3469 44.8719L83.6179 45.2287C83.4841 45.6598 83.2593 46.0389 82.9434 46.366C82.6275 46.6893 82.2372 46.9421 81.7727 47.1242C81.3081 47.3026 80.7859 47.3918 80.2061 47.3918ZM91.7945 35.4392L92.4635 36.242C92.2033 36.4947 91.9023 36.6713 91.5604 36.7716C91.2185 36.872 90.8319 36.9333 90.4008 36.9556C89.9697 36.9779 89.4902 37.0002 88.9625 37.0225C88.3678 37.0448 87.8754 37.1897 87.4851 37.4573C87.0949 37.7249 86.7938 38.1114 86.582 38.6169C86.3702 39.1224 86.2345 39.743 86.175 40.4789H86.2865C86.5764 39.9437 86.9778 39.5498 87.4907 39.297C88.0036 39.0443 88.5537 38.9179 89.1409 38.9179C89.8099 38.9179 90.412 39.074 90.9471 39.3862C91.4823 39.6984 91.906 40.1611 92.2182 40.7744C92.5304 41.3876 92.6865 42.1439 92.6865 43.0434C92.6865 43.9391 92.5267 44.7121 92.2071 45.3625C91.8912 46.0129 91.447 46.5147 90.8747 46.8677C90.306 47.2171 89.6389 47.3918 88.8733 47.3918C88.1077 47.3918 87.4368 47.2115 86.8607 46.851C86.2847 46.4868 85.8368 45.9479 85.5172 45.2343C85.1976 44.517 85.0378 43.6306 85.0378 42.5751V41.6608C85.0378 39.7542 85.3611 38.3084 86.0078 37.3235C86.6582 36.3386 87.6357 35.8295 88.9402 35.796C89.401 35.7811 89.8117 35.7774 90.1722 35.7849C90.5327 35.7923 90.8468 35.7756 91.1144 35.7347C91.382 35.6938 91.6087 35.5953 91.7945 35.4392ZM88.8733 46.2099C89.3899 46.2099 89.834 46.0798 90.2057 45.8197C90.5811 45.5595 90.8691 45.1934 91.0698 44.7214C91.2705 44.2457 91.3708 43.6863 91.3708 43.0434C91.3708 42.419 91.2686 41.8875 91.0642 41.4489C90.8635 41.0104 90.5755 40.6759 90.2001 40.4455C89.8247 40.215 89.375 40.0998 88.851 40.0998C88.4682 40.0998 88.1244 40.1649 87.8196 40.2949C87.5149 40.425 87.2547 40.6164 87.0391 40.8692C86.8236 41.1219 86.6563 41.4304 86.5374 41.7946C86.4222 42.1588 86.3609 42.5751 86.3534 43.0434C86.3534 44.0022 86.5783 44.7697 87.028 45.3458C87.4777 45.9219 88.0928 46.2099 88.8733 46.2099ZM99.5363 47.2134V39.8545H97.2617C96.7488 39.8545 96.3456 39.9735 96.052 40.2113C95.7583 40.4492 95.6115 40.7762 95.6115 41.1925C95.6115 41.6013 95.7435 41.9228 96.0074 42.157C96.275 42.3911 96.641 42.5082 97.1056 42.5082H99.8708V43.7346H97.1056C96.5258 43.7346 96.0259 43.6324 95.606 43.428C95.186 43.2236 94.8626 42.9319 94.6359 42.5528C94.4092 42.17 94.2959 41.7165 94.2959 41.1925C94.2959 40.6647 94.4148 40.2113 94.6527 39.8322C94.8905 39.4531 95.2306 39.1614 95.6729 38.957C96.1189 38.7526 96.6485 38.6503 97.2617 38.6503H100.785V47.2134H99.5363ZM93.8276 47.2134L96.2582 42.9542H97.6854L95.2547 47.2134H93.8276ZM101.721 39.8768V38.6503H108.679V39.8768H105.869V47.2134H104.553V39.8768H101.721ZM115.233 50.4245C115.01 50.4245 114.811 50.4059 114.636 50.3688C114.461 50.3353 114.341 50.3019 114.274 50.2684L114.608 49.1088C114.928 49.1906 115.21 49.2203 115.456 49.198C115.701 49.1757 115.918 49.0661 116.108 48.8691C116.301 48.6759 116.478 48.3618 116.637 47.927L116.883 47.258L113.716 38.6503H115.143L117.507 45.474H117.596L119.96 38.6503H121.387L117.752 48.4622C117.589 48.9044 117.386 49.2705 117.145 49.5604C116.903 49.854 116.623 50.0714 116.303 50.2127C115.987 50.3539 115.63 50.4245 115.233 50.4245ZM126.911 47.2134V38.6503H128.227V42.3744H129.097L132.174 38.6503H133.869L130.412 42.7758L133.913 47.2134H132.218L129.409 43.6009H128.227V47.2134H126.911ZM138.155 47.3918C137.382 47.3918 136.704 47.2078 136.121 46.8399C135.541 46.4719 135.087 45.9572 134.76 45.2956C134.437 44.6341 134.275 43.861 134.275 42.9765C134.275 42.0845 134.437 41.3059 134.76 40.6406C135.087 39.9753 135.541 39.4587 136.121 39.0908C136.704 38.7228 137.382 38.5389 138.155 38.5389C138.928 38.5389 139.605 38.7228 140.185 39.0908C140.768 39.4587 141.222 39.9753 141.545 40.6406C141.872 41.3059 142.035 42.0845 142.035 42.9765C142.035 43.861 141.872 44.6341 141.545 45.2956C141.222 45.9572 140.768 46.4719 140.185 46.8399C139.605 47.2078 138.928 47.3918 138.155 47.3918ZM138.155 46.2099C138.743 46.2099 139.226 46.0594 139.605 45.7583C139.984 45.4573 140.265 45.0615 140.447 44.5709C140.629 44.0803 140.72 43.5488 140.72 42.9765C140.72 42.4041 140.629 41.8708 140.447 41.3765C140.265 40.8822 139.984 40.4826 139.605 40.1779C139.226 39.8731 138.743 39.7207 138.155 39.7207C137.568 39.7207 137.085 39.8731 136.706 40.1779C136.327 40.4826 136.046 40.8822 135.864 41.3765C135.682 41.8708 135.591 42.4041 135.591 42.9765C135.591 43.5488 135.682 44.0803 135.864 44.5709C136.046 45.0615 136.327 45.4573 136.706 45.7583C137.085 46.0594 137.568 46.2099 138.155 46.2099ZM149.015 38.6503V39.8768H145.046V47.2134H143.73V38.6503H149.015ZM153.656 47.3918C152.882 47.3918 152.204 47.2078 151.621 46.8399C151.041 46.4719 150.588 45.9572 150.26 45.2956C149.937 44.6341 149.775 43.861 149.775 42.9765C149.775 42.0845 149.937 41.3059 150.26 40.6406C150.588 39.9753 151.041 39.4587 151.621 39.0908C152.204 38.7228 152.882 38.5389 153.656 38.5389C154.429 38.5389 155.105 38.7228 155.685 39.0908C156.268 39.4587 156.722 39.9753 157.045 40.6406C157.372 41.3059 157.536 42.0845 157.536 42.9765C157.536 43.861 157.372 44.6341 157.045 45.2956C156.722 45.9572 156.268 46.4719 155.685 46.8399C155.105 47.2078 154.429 47.3918 153.656 47.3918ZM153.656 46.2099C154.243 46.2099 154.726 46.0594 155.105 45.7583C155.484 45.4573 155.765 45.0615 155.947 44.5709C156.129 44.0803 156.22 43.5488 156.22 42.9765C156.22 42.4041 156.129 41.8708 155.947 41.3765C155.765 40.8822 155.484 40.4826 155.105 40.1779C154.726 39.8731 154.243 39.7207 153.656 39.7207C153.068 39.7207 152.585 39.8731 152.206 40.1779C151.827 40.4826 151.546 40.8822 151.364 41.3765C151.182 41.8708 151.091 42.4041 151.091 42.9765C151.091 43.5488 151.182 44.0803 151.364 44.5709C151.546 45.0615 151.827 45.4573 152.206 45.7583C152.585 46.0594 153.068 46.2099 153.656 46.2099ZM162.841 39.8768V38.6503H169.798V39.8768H166.989V47.2134H165.673V39.8768H162.841ZM174.438 47.3918C173.665 47.3918 172.986 47.2078 172.403 46.8399C171.823 46.4719 171.37 45.9572 171.042 45.2956C170.719 44.6341 170.557 43.861 170.557 42.9765C170.557 42.0845 170.719 41.3059 171.042 40.6406C171.37 39.9753 171.823 39.4587 172.403 39.0908C172.986 38.7228 173.665 38.5389 174.438 38.5389C175.211 38.5389 175.887 38.7228 176.467 39.0908C177.05 39.4587 177.504 39.9753 177.827 40.6406C178.154 41.3059 178.318 42.0845 178.318 42.9765C178.318 43.861 178.154 44.6341 177.827 45.2956C177.504 45.9572 177.05 46.4719 176.467 46.8399C175.887 47.2078 175.211 47.3918 174.438 47.3918ZM174.438 46.2099C175.025 46.2099 175.508 46.0594 175.887 45.7583C176.266 45.4573 176.547 45.0615 176.729 44.5709C176.911 44.0803 177.002 43.5488 177.002 42.9765C177.002 42.4041 176.911 41.8708 176.729 41.3765C176.547 40.8822 176.266 40.4826 175.887 40.1779C175.508 39.8731 175.025 39.7207 174.438 39.7207C173.85 39.7207 173.367 39.8731 172.988 40.1779C172.609 40.4826 172.328 40.8822 172.146 41.3765C171.964 41.8708 171.873 42.4041 171.873 42.9765C171.873 43.5488 171.964 44.0803 172.146 44.5709C172.328 45.0615 172.609 45.4573 172.988 45.7583C173.367 46.0594 173.85 46.2099 174.438 46.2099ZM179.124 47.2134L182.603 42.865L179.169 38.6503H180.73L183.584 42.3075H184.298V38.6503H185.613V42.3075H186.305L189.159 38.6503H190.72L187.308 42.865L190.765 47.2134H189.181L186.282 43.534H185.613V47.2134H184.298V43.534H183.629L180.708 47.2134H179.124ZM195.568 47.3918C194.743 47.3918 194.032 47.2097 193.433 46.8454C192.839 46.4775 192.38 45.9646 192.056 45.3068C191.737 44.6452 191.577 43.8759 191.577 42.9988C191.577 42.1216 191.737 41.3486 192.056 40.6796C192.38 40.0069 192.829 39.4829 193.405 39.1075C193.985 38.7284 194.662 38.5389 195.435 38.5389C195.881 38.5389 196.321 38.6132 196.756 38.7618C197.191 38.9105 197.587 39.1521 197.943 39.4866C198.3 39.8174 198.584 40.2559 198.796 40.8023C199.008 41.3486 199.114 42.0213 199.114 42.8204V43.3779H192.513V42.2406H197.776C197.776 41.7574 197.679 41.3263 197.486 40.9472C197.297 40.5681 197.025 40.2689 196.672 40.0496C196.323 39.8304 195.91 39.7207 195.435 39.7207C194.911 39.7207 194.457 39.8508 194.074 40.111C193.695 40.3674 193.403 40.7019 193.199 41.1145C192.995 41.527 192.892 41.9693 192.892 42.4413V43.1995C192.892 43.8461 193.004 44.3943 193.227 44.8441C193.454 45.29 193.768 45.6301 194.169 45.8643C194.57 46.0947 195.037 46.2099 195.568 46.2099C195.914 46.2099 196.226 46.1616 196.505 46.065C196.787 45.9646 197.031 45.8159 197.235 45.619C197.44 45.4183 197.598 45.1693 197.709 44.8719L198.98 45.2287C198.846 45.6598 198.622 46.0389 198.306 46.366C197.99 46.6893 197.6 46.9421 197.135 47.1242C196.67 47.3026 196.148 47.3918 195.568 47.3918ZM203.988 49.6663V45.9869H204.702C204.877 45.8048 205.027 45.6078 205.154 45.396C205.28 45.1841 205.39 44.9332 205.483 44.6434C205.579 44.3497 205.661 43.993 205.728 43.573C205.795 43.1493 205.854 42.6383 205.906 42.0399L206.196 38.6503H211.637V45.9869H212.953V49.6663H211.637V47.2134H205.304V49.6663H203.988ZM206.196 45.9869H210.322V39.8768H207.423L207.2 42.0399C207.107 42.9356 206.991 43.7179 206.854 44.3869C206.716 45.0559 206.497 45.5892 206.196 45.9869ZM217.864 47.3918C217.091 47.3918 216.413 47.2078 215.829 46.8399C215.249 46.4719 214.796 45.9572 214.469 45.2956C214.146 44.6341 213.984 43.861 213.984 42.9765C213.984 42.0845 214.146 41.3059 214.469 40.6406C214.796 39.9753 215.249 39.4587 215.829 39.0908C216.413 38.7228 217.091 38.5389 217.864 38.5389C218.637 38.5389 219.313 38.7228 219.893 39.0908C220.477 39.4587 220.93 39.9753 221.254 40.6406C221.581 41.3059 221.744 42.0845 221.744 42.9765C221.744 43.861 221.581 44.6341 221.254 45.2956C220.93 45.9572 220.477 46.4719 219.893 46.8399C219.313 47.2078 218.637 47.3918 217.864 47.3918ZM217.864 46.2099C218.451 46.2099 218.934 46.0594 219.313 45.7583C219.693 45.4573 219.973 45.0615 220.155 44.5709C220.337 44.0803 220.428 43.5488 220.428 42.9765C220.428 42.4041 220.337 41.8708 220.155 41.3765C219.973 40.8822 219.693 40.4826 219.313 40.1779C218.934 39.8731 218.451 39.7207 217.864 39.7207C217.277 39.7207 216.794 39.8731 216.415 40.1779C216.035 40.4826 215.755 40.8822 215.573 41.3765C215.391 41.8708 215.3 42.4041 215.3 42.9765C215.3 43.5488 215.391 44.0803 215.573 44.5709C215.755 45.0615 216.035 45.4573 216.415 45.7583C216.794 46.0594 217.277 46.2099 217.864 46.2099ZM222.68 47.2134V45.9869H222.992C223.249 45.9869 223.463 45.9367 223.634 45.8364C223.805 45.7323 223.942 45.5521 224.046 45.2956C224.154 45.0355 224.236 44.6749 224.291 44.2141C224.351 43.7495 224.394 43.1586 224.42 42.4413L224.576 38.6503H230.284V47.2134H228.969V39.8768H225.825L225.691 42.9319C225.661 43.6343 225.598 44.2531 225.501 44.7883C225.408 45.3198 225.265 45.7658 225.072 46.1263C224.882 46.4868 224.63 46.7581 224.314 46.9402C223.998 47.1223 223.602 47.2134 223.126 47.2134H222.68ZM237.669 38.6503V39.8768H233.7V47.2134H232.384V38.6503H237.669ZM242.31 47.3918C241.537 47.3918 240.859 47.2078 240.275 46.8399C239.695 46.4719 239.242 45.9572 238.915 45.2956C238.592 44.6341 238.43 43.861 238.43 42.9765C238.43 42.0845 238.592 41.3059 238.915 40.6406C239.242 39.9753 239.695 39.4587 240.275 39.0908C240.859 38.7228 241.537 38.5389 242.31 38.5389C243.083 38.5389 243.76 38.7228 244.339 39.0908C244.923 39.4587 245.376 39.9753 245.7 40.6406C246.027 41.3059 246.19 42.0845 246.19 42.9765C246.19 43.861 246.027 44.6341 245.7 45.2956C245.376 45.9572 244.923 46.4719 244.339 46.8399C243.76 47.2078 243.083 47.3918 242.31 47.3918ZM242.31 46.2099C242.897 46.2099 243.38 46.0594 243.76 45.7583C244.139 45.4573 244.419 45.0615 244.601 44.5709C244.783 44.0803 244.875 43.5488 244.875 42.9765C244.875 42.4041 244.783 41.8708 244.601 41.3765C244.419 40.8822 244.139 40.4826 243.76 40.1779C243.38 39.8731 242.897 39.7207 242.31 39.7207C241.723 39.7207 241.24 39.8731 240.861 40.1779C240.482 40.4826 240.201 40.8822 240.019 41.3765C239.837 41.8708 239.746 42.4041 239.746 42.9765C239.746 43.5488 239.837 44.0803 240.019 44.5709C240.201 45.0615 240.482 45.4573 240.861 45.7583C241.24 46.0594 241.723 46.2099 242.31 46.2099ZM251.986 47.2134V38.6503H258.72V47.2134H257.405V39.8768H253.302V47.2134H251.986ZM264.288 47.3918C263.515 47.3918 262.837 47.2078 262.253 46.8399C261.673 46.4719 261.22 45.9572 260.893 45.2956C260.569 44.6341 260.408 43.861 260.408 42.9765C260.408 42.0845 260.569 41.3059 260.893 40.6406C261.22 39.9753 261.673 39.4587 262.253 39.0908C262.837 38.7228 263.515 38.5389 264.288 38.5389C265.061 38.5389 265.737 38.7228 266.317 39.0908C266.901 39.4587 267.354 39.9753 267.677 40.6406C268.005 41.3059 268.168 42.0845 268.168 42.9765C268.168 43.861 268.005 44.6341 267.677 45.2956C267.354 45.9572 266.901 46.4719 266.317 46.8399C265.737 47.2078 265.061 47.3918 264.288 47.3918ZM264.288 46.2099C264.875 46.2099 265.358 46.0594 265.737 45.7583C266.116 45.4573 266.397 45.0615 266.579 44.5709C266.761 44.0803 266.852 43.5488 266.852 42.9765C266.852 42.4041 266.761 41.8708 266.579 41.3765C266.397 40.8822 266.116 40.4826 265.737 40.1779C265.358 39.8731 264.875 39.7207 264.288 39.7207C263.701 39.7207 263.218 39.8731 262.838 40.1779C262.459 40.4826 262.179 40.8822 261.997 41.3765C261.815 41.8708 261.723 42.4041 261.723 42.9765C261.723 43.5488 261.815 44.0803 261.997 44.5709C262.179 45.0615 262.459 45.4573 262.838 45.7583C263.218 46.0594 263.701 46.2099 264.288 46.2099ZM269.862 50.4245V38.6503H271.133V40.0106H271.29C271.386 39.862 271.52 39.6724 271.691 39.442C271.866 39.2078 272.115 38.9997 272.438 38.8176C272.765 38.6318 273.207 38.5389 273.765 38.5389C274.486 38.5389 275.121 38.7191 275.671 39.0796C276.222 39.4401 276.651 39.9512 276.959 40.6127C277.268 41.2743 277.422 42.0547 277.422 42.9542C277.422 43.861 277.268 44.6471 276.959 45.3123C276.651 45.9739 276.223 46.4868 275.677 46.851C275.131 47.2115 274.501 47.3918 273.787 47.3918C273.237 47.3918 272.797 47.3007 272.466 47.1186C272.135 46.9328 271.881 46.7228 271.702 46.4886C271.524 46.2508 271.386 46.0538 271.29 45.8977H271.178V50.4245H269.862ZM271.156 42.9319C271.156 43.5786 271.251 44.149 271.44 44.6434C271.63 45.1339 271.907 45.5186 272.271 45.7974C272.635 46.0724 273.081 46.2099 273.609 46.2099C274.159 46.2099 274.618 46.065 274.986 45.7751C275.357 45.4814 275.636 45.0875 275.822 44.5932C276.012 44.0952 276.106 43.5414 276.106 42.9319C276.106 42.3298 276.013 41.7872 275.828 41.304C275.645 40.8171 275.369 40.4325 274.997 40.15C274.629 39.8638 274.166 39.7207 273.609 39.7207C273.074 39.7207 272.624 39.8564 272.26 40.1277C271.895 40.3953 271.62 40.7707 271.435 41.2538C271.249 41.7333 271.156 42.2926 271.156 42.9319ZM277.996 39.8768V38.6503H284.953V39.8768H282.144V47.2134H280.828V39.8768H277.996ZM287.696 41.75H290.149C291.152 41.75 291.92 42.0046 292.451 42.5137C292.983 43.0229 293.248 43.6677 293.248 44.4482C293.248 44.9611 293.129 45.4276 292.892 45.8475C292.654 46.2638 292.304 46.5964 291.843 46.8454C291.383 47.0907 290.818 47.2134 290.149 47.2134H286.558V38.6503H287.874V45.9869H290.149C290.669 45.9869 291.096 45.8494 291.431 45.5744C291.765 45.2993 291.933 44.9463 291.933 44.5151C291.933 44.0617 291.765 43.6919 291.431 43.4057C291.096 43.1196 290.669 42.9765 290.149 42.9765H287.696V41.75ZM294.609 47.2134V38.6503H295.924V47.2134H294.609ZM307.405 38.6503V39.8768H303.436V47.2134H302.12V38.6503H307.405ZM309.012 50.4245V38.6503H310.283V40.0106H310.439C310.535 39.862 310.669 39.6724 310.84 39.442C311.015 39.2078 311.264 38.9997 311.587 38.8176C311.914 38.6318 312.356 38.5389 312.914 38.5389C313.635 38.5389 314.27 38.7191 314.821 39.0796C315.371 39.4401 315.8 39.9512 316.108 40.6127C316.417 41.2743 316.571 42.0547 316.571 42.9542C316.571 43.861 316.417 44.6471 316.108 45.3123C315.8 45.9739 315.372 46.4868 314.826 46.851C314.28 47.2115 313.65 47.3918 312.936 47.3918C312.386 47.3918 311.946 47.3007 311.615 47.1186C311.284 46.9328 311.03 46.7228 310.851 46.4886C310.673 46.2508 310.535 46.0538 310.439 45.8977H310.327V50.4245H309.012ZM310.305 42.9319C310.305 43.5786 310.4 44.149 310.589 44.6434C310.779 45.1339 311.056 45.5186 311.42 45.7974C311.784 46.0724 312.23 46.2099 312.758 46.2099C313.308 46.2099 313.767 46.065 314.135 45.7751C314.507 45.4814 314.785 45.0875 314.971 44.5932C315.161 44.0952 315.255 43.5414 315.255 42.9319C315.255 42.3298 315.162 41.7872 314.977 41.304C314.795 40.8171 314.518 40.4325 314.146 40.15C313.778 39.8638 313.315 39.7207 312.758 39.7207C312.223 39.7207 311.773 39.8564 311.409 40.1277C311.044 40.3953 310.769 40.7707 310.584 41.2538C310.398 41.7333 310.305 42.2926 310.305 42.9319ZM318.805 50.4245C318.582 50.4245 318.383 50.4059 318.208 50.3688C318.034 50.3353 317.913 50.3019 317.846 50.2684L318.18 49.1088C318.5 49.1906 318.783 49.2203 319.028 49.198C319.273 49.1757 319.491 49.0661 319.68 48.8691C319.873 48.6759 320.05 48.3618 320.21 47.927L320.455 47.258L317.288 38.6503H318.716L321.079 45.474H321.169L323.532 38.6503H324.96L321.325 48.4622C321.161 48.9044 320.959 49.2705 320.717 49.5604C320.475 49.854 320.195 50.0714 319.875 50.2127C319.559 50.3539 319.202 50.4245 318.805 50.4245ZM325.847 45.028H327.252C327.282 45.4145 327.456 45.7082 327.776 45.9089C328.099 46.1096 328.519 46.2099 329.036 46.2099C329.563 46.2099 330.015 46.1021 330.39 45.8866C330.766 45.6673 330.954 45.3142 330.954 44.8273C330.954 44.5411 330.883 44.2921 330.742 44.0803C330.6 43.8647 330.402 43.6975 330.145 43.5786C329.889 43.4596 329.586 43.4002 329.236 43.4002H327.765V42.2183H329.236C329.76 42.2183 330.147 42.0993 330.396 41.8615C330.649 41.6236 330.775 41.3263 330.775 40.9695C330.775 40.5867 330.639 40.2801 330.368 40.0496C330.097 39.8155 329.712 39.6984 329.214 39.6984C328.712 39.6984 328.294 39.8118 327.96 40.0385C327.625 40.2615 327.449 40.5495 327.43 40.9026H326.048C326.062 40.4417 326.204 40.0348 326.471 39.6817C326.739 39.3249 327.103 39.0462 327.564 38.8455C328.025 38.6411 328.553 38.5389 329.147 38.5389C329.749 38.5389 330.272 38.6448 330.714 38.8566C331.16 39.0647 331.504 39.3491 331.745 39.7096C331.99 40.0664 332.113 40.4715 332.113 40.9249C332.113 41.4081 331.977 41.7983 331.706 42.0956C331.435 42.393 331.095 42.6048 330.686 42.7312V42.8204C331.009 42.8427 331.29 42.9467 331.528 43.1326C331.769 43.3147 331.957 43.5544 332.091 43.8517C332.225 44.1453 332.291 44.4705 332.291 44.8273C332.291 45.3476 332.152 45.8011 331.873 46.1876C331.595 46.5704 331.212 46.8677 330.725 47.0796C330.238 47.2877 329.682 47.3918 329.058 47.3918C328.452 47.3918 327.91 47.2933 327.43 47.0963C326.951 46.8956 326.57 46.6187 326.287 46.2656C326.009 45.9089 325.862 45.4963 325.847 45.028ZM338.977 47.2134V39.8545H336.702C336.189 39.8545 335.786 39.9735 335.492 40.2113C335.199 40.4492 335.052 40.7762 335.052 41.1925C335.052 41.6013 335.184 41.9228 335.448 42.157C335.715 42.3911 336.082 42.5082 336.546 42.5082H339.311V43.7346H336.546C335.966 43.7346 335.466 43.6324 335.046 43.428C334.627 43.2236 334.303 42.9319 334.076 42.5528C333.85 42.17 333.736 41.7165 333.736 41.1925C333.736 40.6647 333.855 40.2113 334.093 39.8322C334.331 39.4531 334.671 39.1614 335.113 38.957C335.559 38.7526 336.089 38.6503 336.702 38.6503H340.226V47.2134H338.977ZM333.268 47.2134L335.699 42.9542H337.126L334.695 47.2134H333.268ZM341.162 39.8768V38.6503H348.119V39.8768H345.309V47.2134H343.994V39.8768H341.162ZM352.758 47.3918C351.956 47.3918 351.264 47.2022 350.685 46.8231C350.105 46.444 349.659 45.9219 349.347 45.2566C349.034 44.5913 348.878 43.8313 348.878 42.9765C348.878 42.1068 349.038 41.3393 349.358 40.674C349.681 40.005 350.131 39.4829 350.707 39.1075C351.287 38.7284 351.963 38.5389 352.736 38.5389C353.338 38.5389 353.881 38.6504 354.364 38.8733C354.847 39.0963 355.243 39.4085 355.552 39.8099C355.86 40.2113 356.051 40.6796 356.126 41.2148H354.81C354.71 40.8246 354.487 40.4789 354.141 40.1779C353.799 39.8731 353.338 39.7207 352.758 39.7207C352.246 39.7207 351.796 39.8545 351.409 40.1221C351.027 40.386 350.727 40.7595 350.512 41.2427C350.3 41.7221 350.194 42.2852 350.194 42.9319C350.194 43.5934 350.298 44.1695 350.506 44.6601C350.718 45.1507 351.015 45.5316 351.398 45.8029C351.785 46.0742 352.238 46.2099 352.758 46.2099C353.1 46.2099 353.411 46.1504 353.69 46.0315C353.968 45.9126 354.204 45.7416 354.398 45.5186C354.591 45.2956 354.728 45.028 354.81 44.7158H356.126C356.051 45.2213 355.867 45.6766 355.574 46.0817C355.284 46.4831 354.899 46.8027 354.42 47.0406C353.944 47.2747 353.39 47.3918 352.758 47.3918ZM362.886 47.2134V39.8545H360.612C360.099 39.8545 359.696 39.9735 359.402 40.2113C359.108 40.4492 358.962 40.7762 358.962 41.1925C358.962 41.6013 359.094 41.9228 359.357 42.157C359.625 42.3911 359.991 42.5082 360.456 42.5082H363.221V43.7346H360.456C359.876 43.7346 359.376 43.6324 358.956 43.428C358.536 43.2236 358.213 42.9319 357.986 42.5528C357.759 42.17 357.646 41.7165 357.646 41.1925C357.646 40.6647 357.765 40.2113 358.003 39.8322C358.241 39.4531 358.581 39.1614 359.023 38.957C359.469 38.7526 359.998 38.6503 360.612 38.6503H364.135V47.2134H362.886ZM357.178 47.2134L359.608 42.9542H361.035L358.605 47.2134H357.178ZM367.953 44.0022V43.9353C367.961 43.2255 368.035 42.6606 368.176 42.2406C368.318 41.8206 368.518 41.4805 368.779 41.2204C369.039 40.9602 369.351 40.7205 369.715 40.5012C369.934 40.3674 370.131 40.2095 370.306 40.0273C370.481 39.8415 370.618 39.6278 370.719 39.3862C370.823 39.1447 370.875 38.8771 370.875 38.5835C370.875 38.2192 370.789 37.9033 370.618 37.6357C370.447 37.3681 370.219 37.1619 369.933 37.0169C369.646 36.872 369.329 36.7995 368.979 36.7995C368.674 36.7995 368.381 36.8627 368.098 36.989C367.816 37.1154 367.58 37.3142 367.39 37.5855C367.201 37.8569 367.091 38.2118 367.061 38.6503H365.657C365.686 38.0185 365.85 37.4778 366.147 37.0281C366.448 36.5783 366.844 36.2346 367.335 35.9967C367.829 35.7588 368.377 35.6399 368.979 35.6399C369.633 35.6399 370.202 35.77 370.685 36.0302C371.172 36.2903 371.547 36.6471 371.811 37.1005C372.079 37.554 372.213 38.0706 372.213 38.6503C372.213 39.0592 372.15 39.429 372.023 39.7598C371.9 40.0905 371.722 40.386 371.488 40.6462C371.258 40.9063 370.979 41.1368 370.652 41.3374C370.325 41.5419 370.063 41.7574 369.866 41.9841C369.669 42.2071 369.526 42.4729 369.436 42.7813C369.347 43.0898 369.299 43.4745 369.291 43.9353V44.0022H367.953ZM368.667 47.3026C368.392 47.3026 368.156 47.2041 367.959 47.0071C367.762 46.8101 367.664 46.5741 367.664 46.2991C367.664 46.0241 367.762 45.7881 367.959 45.5911C368.156 45.3941 368.392 45.2956 368.667 45.2956C368.942 45.2956 369.178 45.3941 369.375 45.5911C369.572 45.7881 369.671 46.0241 369.671 46.2991C369.671 46.4812 369.624 46.6485 369.531 46.8008C369.442 46.9532 369.321 47.0759 369.169 47.1688C369.02 47.258 368.853 47.3026 368.667 47.3026ZM381.459 47.3918C380.656 47.3918 379.965 47.2022 379.385 46.8231C378.806 46.444 378.36 45.9219 378.047 45.2566C377.735 44.5913 377.579 43.8313 377.579 42.9765C377.579 42.1068 377.739 41.3393 378.059 40.674C378.382 40.005 378.832 39.4829 379.408 39.1075C379.988 38.7284 380.664 38.5389 381.437 38.5389C382.039 38.5389 382.582 38.6504 383.065 38.8733C383.548 39.0963 383.944 39.4085 384.252 39.8099C384.561 40.2113 384.752 40.6796 384.827 41.2148H383.511C383.41 40.8246 383.187 40.4789 382.842 40.1779C382.5 39.8731 382.039 39.7207 381.459 39.7207C380.946 39.7207 380.497 39.8545 380.11 40.1221C379.727 40.386 379.428 40.7595 379.213 41.2427C379.001 41.7221 378.895 42.2852 378.895 42.9319C378.895 43.5934 378.999 44.1695 379.207 44.6601C379.419 45.1507 379.716 45.5316 380.099 45.8029C380.486 46.0742 380.939 46.2099 381.459 46.2099C381.801 46.2099 382.112 46.1504 382.39 46.0315C382.669 45.9126 382.905 45.7416 383.098 45.5186C383.292 45.2956 383.429 45.028 383.511 44.7158H384.827C384.752 45.2213 384.568 45.6766 384.275 46.0817C383.985 46.4831 383.6 46.8027 383.121 47.0406C382.645 47.2747 382.091 47.3918 381.459 47.3918ZM385.761 39.8768V38.6503H392.719V39.8768H389.909V47.2134H388.593V39.8768H385.761ZM397.358 47.3918C396.585 47.3918 395.907 47.2078 395.323 46.8399C394.743 46.4719 394.29 45.9572 393.963 45.2956C393.64 44.6341 393.478 43.861 393.478 42.9765C393.478 42.0845 393.64 41.3059 393.963 40.6406C394.29 39.9753 394.743 39.4587 395.323 39.0908C395.907 38.7228 396.585 38.5389 397.358 38.5389C398.131 38.5389 398.808 38.7228 399.387 39.0908C399.971 39.4587 400.424 39.9753 400.748 40.6406C401.075 41.3059 401.238 42.0845 401.238 42.9765C401.238 43.861 401.075 44.6341 400.748 45.2956C400.424 45.9572 399.971 46.4719 399.387 46.8399C398.808 47.2078 398.131 47.3918 397.358 47.3918ZM397.358 46.2099C397.945 46.2099 398.428 46.0594 398.808 45.7583C399.187 45.4573 399.467 45.0615 399.649 44.5709C399.831 44.0803 399.923 43.5488 399.923 42.9765C399.923 42.4041 399.831 41.8708 399.649 41.3765C399.467 40.8822 399.187 40.4826 398.808 40.1779C398.428 39.8731 397.945 39.7207 397.358 39.7207C396.771 39.7207 396.288 39.8731 395.909 40.1779C395.53 40.4826 395.249 40.8822 395.067 41.3765C394.885 41.8708 394.794 42.4041 394.794 42.9765C394.794 43.5488 394.885 44.0803 395.067 44.5709C395.249 45.0615 395.53 45.4573 395.909 45.7583C396.288 46.0594 396.771 46.2099 397.358 46.2099ZM407.036 42.3967V43.6232H402.509V42.3967H407.036ZM403.624 38.6503V47.2134H402.308V38.6503H403.624ZM409.667 47.3918C408.894 47.3918 408.216 47.2078 407.632 46.8399C407.052 46.4719 406.599 45.9572 406.272 45.2956C405.949 44.6341 405.787 43.861 405.787 42.9765C405.787 42.0845 405.949 41.3059 406.272 40.6406C406.599 39.9753 407.052 39.4587 407.632 39.0908C408.216 38.7228 408.894 38.5389 409.667 38.5389C410.44 38.5389 411.117 38.7228 411.696 39.0908C412.28 39.4587 412.733 39.9753 413.057 40.6406C413.384 41.3059 413.547 42.0845 413.547 42.9765C413.547 43.861 413.384 44.6341 413.057 45.2956C412.733 45.9572 412.28 46.4719 411.696 46.8399C411.117 47.2078 410.44 47.3918 409.667 47.3918ZM409.667 46.2099C410.254 46.2099 410.737 46.0594 411.117 45.7583C411.496 45.4573 411.776 45.0615 411.958 44.5709C412.14 44.0803 412.231 43.5488 412.231 42.9765C412.231 42.4041 412.14 41.8708 411.958 41.3765C411.776 40.8822 411.496 40.4826 411.117 40.1779C410.737 39.8731 410.254 39.7207 409.667 39.7207C409.08 39.7207 408.597 39.8731 408.218 40.1779C407.838 40.4826 407.558 40.8822 407.376 41.3765C407.194 41.8708 407.103 42.4041 407.103 42.9765C407.103 43.5488 407.194 44.0803 407.376 44.5709C407.558 45.0615 407.838 45.4573 408.218 45.7583C408.597 46.0594 409.08 46.2099 409.667 46.2099ZM72.0463 67.4294L75.0344 60.6503H76.2832L72.5815 69.2134H71.5111L67.8762 60.6503H69.1027L72.0463 67.4294ZM68.679 60.6503V69.2134H67.3634V60.6503H68.679ZM75.4135 69.2134V60.6503H76.7292V69.2134H75.4135ZM80.1392 67.2733L84.2646 60.6503H85.781V69.2134H84.4653V62.5904L80.3622 69.2134H78.8235V60.6503H80.1392V67.2733ZM93.6078 64.3298V65.5563H88.8803V64.3298H93.6078ZM89.1924 60.6503V69.2134H87.8768V60.6503H89.1924ZM94.6112 60.6503V69.2134H93.2956V60.6503H94.6112ZM97.2408 72.4245C97.0178 72.4245 96.819 72.4059 96.6443 72.3688C96.4696 72.3353 96.3488 72.3019 96.2819 72.2684L96.6164 71.1088C96.936 71.1906 97.2185 71.2203 97.4638 71.198C97.7091 71.1757 97.9265 71.0661 98.1161 70.8691C98.3093 70.6759 98.4859 70.3618 98.6457 69.927L98.891 69.258L95.7244 60.6503H97.1516L99.5154 67.474H99.6046L101.968 60.6503H103.395L99.7607 70.4622C99.5971 70.9044 99.3946 71.2705 99.153 71.5604C98.9114 71.854 98.6308 72.0714 98.3112 72.2127C97.9953 72.3539 97.6385 72.4245 97.2408 72.4245ZM104.327 61.8768V60.6503H111.285V61.8768H108.475V69.2134H107.16V61.8768H104.327ZM113.738 72.4245C113.515 72.4245 113.316 72.4059 113.141 72.3688C112.966 72.3353 112.846 72.3019 112.779 72.2684L113.113 71.1088C113.433 71.1906 113.715 71.2203 113.961 71.198C114.206 71.1757 114.423 71.0661 114.613 70.8691C114.806 70.6759 114.983 70.3618 115.142 69.927L115.388 69.258L112.221 60.6503H113.648L116.012 67.474H116.101L118.465 60.6503H119.892L116.257 70.4622C116.094 70.9044 115.891 71.2705 115.65 71.5604C115.408 71.854 115.128 72.0714 114.808 72.2127C114.492 72.3539 114.135 72.4245 113.738 72.4245ZM124.881 69.2134L128.36 64.865L124.926 60.6503H126.486L129.341 64.3075H130.054V60.6503H131.37V64.3075H132.061L134.916 60.6503H136.477L133.065 64.865L136.521 69.2134H134.938L132.039 65.534H131.37V69.2134H130.054V65.534H129.385L126.464 69.2134H124.881ZM137.173 71.6663V67.9869H137.887C138.061 67.8048 138.212 67.6078 138.338 67.396C138.465 67.1841 138.574 66.9332 138.667 66.6434C138.764 66.3497 138.846 65.993 138.913 65.573C138.979 65.1493 139.039 64.6383 139.091 64.0399L139.381 60.6503H144.822V67.9869H146.138V71.6663H144.822V69.2134H138.489V71.6663H137.173ZM139.381 67.9869H143.506V61.8768H140.607L140.384 64.0399C140.291 64.9356 140.176 65.7179 140.039 66.3869C139.901 67.0559 139.682 67.5892 139.381 67.9869ZM148.417 72.4245C148.194 72.4245 147.995 72.4059 147.821 72.3688C147.646 72.3353 147.525 72.3019 147.458 72.2684L147.793 71.1088C148.113 71.1906 148.395 71.2203 148.64 71.198C148.886 71.1757 149.103 71.0661 149.293 70.8691C149.486 70.6759 149.662 70.3618 149.822 69.927L150.067 69.258L146.901 60.6503H148.328L150.692 67.474H150.781L153.145 60.6503H154.572L150.937 70.4622C150.774 70.9044 150.571 71.2705 150.33 71.5604C150.088 71.854 149.807 72.0714 149.488 72.2127C149.172 72.3539 148.815 72.4245 148.417 72.4245Z" fill="#F5F5F5" style="fill:#F5F5F5;fill:color(display-p3 0.9625 0.9625 0.9625);fill-opacity:1;"/>
<path d="M507.685 64.0973V75.5146H506.302V65.5467H506.236L503.448 67.3976V65.9927L506.302 64.0973H507.685ZM513.885 75.6707C513.149 75.6707 512.493 75.5444 511.917 75.2917C511.344 75.0389 510.889 74.6877 510.551 74.238C510.216 73.7846 510.034 73.2587 510.004 72.6603H511.409C511.439 73.0282 511.565 73.346 511.788 73.6136C512.011 73.8775 512.303 74.0819 512.664 74.2268C513.024 74.3718 513.424 74.4443 513.862 74.4443C514.353 74.4443 514.788 74.3588 515.167 74.1878C515.546 74.0169 515.843 73.779 516.059 73.4742C516.274 73.1695 516.382 72.8164 516.382 72.415C516.382 71.995 516.278 71.6252 516.07 71.3056C515.862 70.9823 515.557 70.7295 515.156 70.5474C514.754 70.3653 514.264 70.2743 513.684 70.2743H512.77V69.0478H513.684C514.137 69.0478 514.535 68.966 514.877 68.8025C515.223 68.639 515.492 68.4085 515.685 68.1112C515.882 67.8139 515.981 67.4645 515.981 67.0631C515.981 66.6766 515.895 66.3402 515.724 66.0541C515.553 65.7679 515.312 65.5449 515 65.3851C514.691 65.2253 514.327 65.1454 513.907 65.1454C513.513 65.1454 513.141 65.2178 512.792 65.3628C512.446 65.504 512.164 65.7103 511.944 65.9816C511.725 66.2492 511.606 66.5725 511.588 66.9516H510.25C510.272 66.3532 510.452 65.8292 510.79 65.3795C511.129 64.9261 511.571 64.573 512.117 64.3203C512.667 64.0675 513.271 63.9412 513.929 63.9412C514.635 63.9412 515.241 64.0843 515.747 64.3704C516.252 64.6529 516.64 65.0264 516.912 65.491C517.183 65.9556 517.319 66.4573 517.319 66.9962C517.319 67.6392 517.15 68.1874 516.811 68.6408C516.477 69.0942 516.022 69.4083 515.446 69.583V69.6722C516.167 69.7911 516.73 70.0977 517.135 70.592C517.54 71.0826 517.742 71.6903 517.742 72.415C517.742 73.0357 517.573 73.5932 517.235 74.0875C516.901 74.5781 516.443 74.9646 515.864 75.2471C515.284 75.5295 514.624 75.6707 513.885 75.6707ZM520.062 74.054C519.787 74.054 519.551 73.9555 519.354 73.7586C519.157 73.5616 519.058 73.3256 519.058 73.0505C519.058 72.7755 519.157 72.5395 519.354 72.3425C519.551 72.1456 519.787 72.0471 520.062 72.0471C520.337 72.0471 520.573 72.1456 520.77 72.3425C520.967 72.5395 521.065 72.7755 521.065 73.0505C521.065 73.2327 521.019 73.3999 520.926 73.5523C520.837 73.7047 520.716 73.8273 520.563 73.9202C520.415 74.0094 520.248 74.054 520.062 74.054ZM520.062 68.2784C519.787 68.2784 519.551 68.18 519.354 67.983C519.157 67.786 519.058 67.55 519.058 67.275C519.058 66.9999 519.157 66.7639 519.354 66.567C519.551 66.37 519.787 66.2715 520.062 66.2715C520.337 66.2715 520.573 66.37 520.77 66.567C520.967 66.7639 521.065 66.9999 521.065 67.275C521.065 67.4571 521.019 67.6243 520.926 67.7767C520.837 67.9291 520.716 68.0517 520.563 68.1446C520.415 68.2338 520.248 68.2784 520.062 68.2784ZM526.186 75.6707C525.346 75.6707 524.631 75.4422 524.04 74.985C523.449 74.5242 522.997 73.857 522.685 72.9836C522.373 72.1065 522.217 71.0473 522.217 69.806C522.217 68.5721 522.373 67.5184 522.685 66.645C523.001 65.7679 523.454 65.0989 524.045 64.638C524.64 64.1735 525.353 63.9412 526.186 63.9412C527.019 63.9412 527.73 64.1735 528.321 64.638C528.916 65.0989 529.369 65.7679 529.681 66.645C529.997 67.5184 530.155 68.5721 530.155 69.806C530.155 71.0473 529.999 72.1065 529.687 72.9836C529.375 73.857 528.923 74.5242 528.332 74.985C527.741 75.4422 527.026 75.6707 526.186 75.6707ZM526.186 74.4443C527.019 74.4443 527.665 74.0429 528.126 73.2401C528.587 72.4373 528.817 71.2926 528.817 69.806C528.817 68.8173 528.711 67.9755 528.5 67.2805C528.291 66.5855 527.99 66.0559 527.596 65.6917C527.206 65.3275 526.736 65.1454 526.186 65.1454C525.361 65.1454 524.716 65.5523 524.252 66.3663C523.787 67.1765 523.555 68.323 523.555 69.806C523.555 70.7946 523.659 71.6345 523.867 72.3258C524.075 73.0171 524.374 73.543 524.764 73.9035C525.158 74.264 525.632 74.4443 526.186 74.4443ZM531.332 75.5146V74.5112L535.1 70.3858C535.543 69.9026 535.907 69.4826 536.193 69.1258C536.479 68.7653 536.691 68.4271 536.829 68.1112C536.97 67.7916 537.041 67.4571 537.041 67.1077C537.041 66.7063 536.944 66.3588 536.751 66.0652C536.561 65.7716 536.301 65.5449 535.97 65.3851C535.639 65.2253 535.268 65.1454 534.855 65.1454C534.417 65.1454 534.034 65.2364 533.707 65.4185C533.383 65.5969 533.133 65.8478 532.954 66.1711C532.779 66.4945 532.692 66.8736 532.692 67.3084H531.376C531.376 66.6394 531.531 66.0522 531.839 65.5467C532.148 65.0413 532.568 64.6473 533.099 64.3649C533.634 64.0824 534.234 63.9412 534.9 63.9412C535.569 63.9412 536.162 64.0824 536.678 64.3649C537.195 64.6473 537.6 65.0283 537.893 65.5077C538.187 65.9872 538.334 66.5205 538.334 67.1077C538.334 67.5277 538.258 67.9384 538.105 68.3398C537.957 68.7374 537.697 69.1816 537.325 69.6722C536.957 70.159 536.446 70.7537 535.792 71.4561L533.227 74.199V74.2882H538.535V75.5146H531.332Z" fill="#707E8D" style="fill:#707E8D;fill:color(display-p3 0.4392 0.4941 0.5529);fill-opacity:1;"/>
<defs>
<linearGradient id="paint0_linear_1255_47015" x1="20.1843" y1="45.0583" x2="20.1843" y2="85.4269" gradientUnits="userSpaceOnUse">
<stop stop-color="#A4CF71" style="stop-color:#A4CF71;stop-color:color(display-p3 0.6431 0.8118 0.4431);stop-opacity:1;"/>
<stop offset="1" stop-color="#6BB955" style="stop-color:#6BB955;stop-color:color(display-p3 0.4196 0.7255 0.3333);stop-opacity:1;"/>
</linearGradient>
</defs>
</svg>
