<svg width="552" height="91" viewBox="0 0 552 91" fill="none" xmlns="http://www.w3.org/2000/svg">
<rect y="46.6316" width="43.5789" height="43.5789" rx="21.7895" fill="url(#paint0_linear_1259_47330)" style=""/>
<path d="M24.7616 74.9211L20.4156 69.1501H19.2421V74.9211H16.8498V61.7154H19.2421V67.1447H19.8417L24.536 61.7154H27.4827L22.2662 67.7379L27.7084 74.9211H24.7616Z" fill="white" style="fill:white;fill-opacity:1;"/>
<path d="M56.8947 90.2106V75.6843C56.8947 82.3831 52.3604 88.0229 46.1935 89.7018C46.08 89.7326 46 89.8352 46 89.9528C46 90.0952 46.1154 90.2106 46.2578 90.2106H56.8947Z" fill="#1B2532" style="fill:#1B2532;fill:color(display-p3 0.1059 0.1451 0.1961);fill-opacity:1;"/>
<path d="M56.8945 34.8632C56.8945 22.6599 56.8945 16.5583 59.2694 11.8973C61.3585 7.79731 64.6918 4.46394 68.7918 2.37491C73.4528 0 79.5544 0 91.7577 0H517.137C529.34 0 535.442 0 540.103 2.37491C544.203 4.46394 547.536 7.79731 549.625 11.8973C552 16.5583 552 22.6599 552 34.8632V55.3474C552 67.5506 552 73.6522 549.625 78.3133C547.536 82.4132 544.203 85.7466 540.103 87.8356C535.442 90.2105 529.34 90.2105 517.137 90.2105H56.8945V34.8632Z" fill="#1B2532" style="fill:#1B2532;fill:color(display-p3 0.1059 0.1451 0.1961);fill-opacity:1;"/>
<path d="M80.021 28.1052L75.9647 22.7189H74.8694V28.1052H72.6366V15.7799H74.8694V20.8472H75.429L79.8103 15.7799H82.5607L77.6919 21.4009L82.7713 28.1052H80.021ZM87.3758 28.2858C86.4731 28.2858 85.6907 28.0872 85.0287 27.69C84.3667 27.2928 83.8531 26.7371 83.488 26.0229C83.1269 25.3087 82.9464 24.4742 82.9464 23.5193C82.9464 22.5644 83.1269 21.7279 83.488 21.0097C83.8531 20.2915 84.3667 19.7339 85.0287 19.3366C85.6907 18.9394 86.4731 18.7408 87.3758 18.7408C88.2785 18.7408 89.0609 18.9394 89.7229 19.3366C90.3849 19.7339 90.8965 20.2915 91.2576 21.0097C91.6227 21.7279 91.8052 22.5644 91.8052 23.5193C91.8052 24.4742 91.6227 25.3087 91.2576 26.0229C90.8965 26.7371 90.3849 27.2928 89.7229 27.69C89.0609 28.0872 88.2785 28.2858 87.3758 28.2858ZM87.3878 26.5405C87.8773 26.5405 88.2866 26.4061 88.6156 26.1373C88.9446 25.8644 89.1893 25.4993 89.3498 25.0419C89.5143 24.5846 89.5965 24.075 89.5965 23.5133C89.5965 22.9476 89.5143 22.436 89.3498 21.9787C89.1893 21.5173 88.9446 21.1501 88.6156 20.8773C88.2866 20.6045 87.8773 20.4681 87.3878 20.4681C86.8863 20.4681 86.4691 20.6045 86.136 20.8773C85.807 21.1501 85.5603 21.5173 85.3958 21.9787C85.2353 22.436 85.1551 22.9476 85.1551 23.5133C85.1551 24.075 85.2353 24.5846 85.3958 25.0419C85.5603 25.4993 85.807 25.8644 86.136 26.1373C86.4691 26.4061 86.8863 26.5405 87.3878 26.5405ZM92.5355 28.1052L95.9478 23.3328L92.5656 18.8612H95.0812L97.7112 22.5865H98.2287V18.8612H100.407V22.5865H100.913L103.543 18.8612H106.058L102.694 23.3328L106.089 28.1052H103.519L100.889 24.3739H100.407V28.1052H98.2287V24.3739H97.7473L95.1053 28.1052H92.5355ZM111.293 28.2858C110.367 28.2858 109.566 28.0932 108.892 27.708C108.222 27.3188 107.707 26.7692 107.345 26.059C106.984 25.3449 106.804 24.5043 106.804 23.5374C106.804 22.5865 106.984 21.752 107.345 21.0338C107.711 20.3116 108.22 19.7499 108.874 19.3487C109.528 18.9435 110.296 18.7408 111.179 18.7408C111.749 18.7408 112.286 18.8331 112.792 19.0177C113.301 19.1982 113.751 19.4791 114.14 19.8602C114.533 20.2414 114.842 20.7269 115.067 21.3166C115.291 21.9024 115.404 22.6005 115.404 23.411V24.079H107.827V22.6106H113.316C113.311 22.1933 113.221 21.8222 113.045 21.4972C112.868 21.1682 112.621 20.9094 112.304 20.7208C111.991 20.5323 111.626 20.438 111.209 20.438C110.764 20.438 110.373 20.5463 110.036 20.763C109.699 20.9756 109.436 21.2565 109.247 21.6055C109.063 21.9506 108.968 22.3297 108.964 22.743V24.0249C108.964 24.5625 109.063 25.0239 109.259 25.4091C109.456 25.7902 109.731 26.0831 110.084 26.2877C110.437 26.4883 110.85 26.5886 111.323 26.5886C111.64 26.5886 111.927 26.5445 112.184 26.4562C112.441 26.3639 112.664 26.2295 112.852 26.053C113.041 25.8765 113.183 25.6578 113.279 25.397L115.314 25.6257C115.185 26.1633 114.94 26.6328 114.579 27.034C114.222 27.4312 113.765 27.7401 113.207 27.9608C112.649 28.1774 112.012 28.2858 111.293 28.2858ZM117.077 28.1052V18.8612H120.959C122.055 18.8612 122.919 19.0799 123.553 19.5172C124.191 19.9545 124.51 20.5644 124.51 21.3467C124.51 21.8643 124.329 22.2876 123.968 22.6166C123.611 22.9416 123.124 23.1602 122.506 23.2726C122.991 23.3127 123.417 23.4351 123.782 23.6397C124.151 23.8443 124.44 24.1131 124.648 24.4461C124.857 24.7791 124.961 25.1623 124.961 25.5956C124.961 26.1052 124.827 26.5485 124.558 26.9256C124.293 27.2988 123.906 27.5897 123.397 27.7983C122.891 28.0029 122.277 28.1052 121.555 28.1052H117.077ZM119.118 26.39H121.555C121.956 26.39 122.271 26.2957 122.5 26.1072C122.729 25.9146 122.843 25.6538 122.843 25.3248C122.843 24.9436 122.729 24.6447 122.5 24.4281C122.271 24.2074 121.956 24.0971 121.555 24.0971H119.118V26.39ZM119.118 22.6888H121.001C121.298 22.6888 121.553 22.6467 121.766 22.5624C121.978 22.4742 122.141 22.3518 122.253 22.1953C122.365 22.0348 122.422 21.8442 122.422 21.6236C122.422 21.3066 122.291 21.0579 122.03 20.8773C121.774 20.6968 121.417 20.6065 120.959 20.6065H119.118V22.6888ZM132.939 22.5805V24.3679H128.016V22.5805H132.939ZM128.69 18.8612V28.1052H126.59V18.8612H128.69ZM134.365 18.8612V28.1052H132.271V18.8612H134.365ZM138.5 25.1563L142.202 18.8612H144.44V28.1052H142.334V21.8041L138.645 28.1052H136.4V18.8612H138.5V25.1563ZM146.508 28.1052V18.8612H148.687V22.5925H149.481L152.262 18.8612H154.886L151.461 23.399L154.922 28.1052H152.286L149.752 24.6207H148.687V28.1052H146.508ZM159.639 28.2858C158.736 28.2858 157.954 28.0872 157.292 27.69C156.63 27.2928 156.116 26.7371 155.751 26.0229C155.39 25.3087 155.21 24.4742 155.21 23.5193C155.21 22.5644 155.39 21.7279 155.751 21.0097C156.116 20.2915 156.63 19.7339 157.292 19.3366C157.954 18.9394 158.736 18.7408 159.639 18.7408C160.542 18.7408 161.324 18.9394 161.986 19.3366C162.648 19.7339 163.16 20.2915 163.521 21.0097C163.886 21.7279 164.069 22.5644 164.069 23.5193C164.069 24.4742 163.886 25.3087 163.521 26.0229C163.16 26.7371 162.648 27.2928 161.986 27.69C161.324 28.0872 160.542 28.2858 159.639 28.2858ZM159.651 26.5405C160.141 26.5405 160.55 26.4061 160.879 26.1373C161.208 25.8644 161.453 25.4993 161.613 25.0419C161.778 24.5846 161.86 24.075 161.86 23.5133C161.86 22.9476 161.778 22.436 161.613 21.9787C161.453 21.5173 161.208 21.1501 160.879 20.8773C160.55 20.6045 160.141 20.4681 159.651 20.4681C159.15 20.4681 158.732 20.6045 158.399 20.8773C158.07 21.1501 157.824 21.5173 157.659 21.9787C157.499 22.436 157.418 22.9476 157.418 23.5133C157.418 24.075 157.499 24.5846 157.659 25.0419C157.824 25.4993 158.07 25.8644 158.399 26.1373C158.732 26.4061 159.15 26.5405 159.651 26.5405ZM165.748 28.1052V18.8612H169.63C170.725 18.8612 171.59 19.0799 172.224 19.5172C172.862 19.9545 173.181 20.5644 173.181 21.3467C173.181 21.8643 173 22.2876 172.639 22.6166C172.282 22.9416 171.794 23.1602 171.177 23.2726C171.662 23.3127 172.087 23.4351 172.452 23.6397C172.822 23.8443 173.11 24.1131 173.319 24.4461C173.528 24.7791 173.632 25.1623 173.632 25.5956C173.632 26.1052 173.498 26.5485 173.229 26.9256C172.964 27.2988 172.577 27.5897 172.067 27.7983C171.562 28.0029 170.948 28.1052 170.226 28.1052H165.748ZM167.788 26.39H170.226C170.627 26.39 170.942 26.2957 171.171 26.1072C171.399 25.9146 171.514 25.6538 171.514 25.3248C171.514 24.9436 171.399 24.6447 171.171 24.4281C170.942 24.2074 170.627 24.0971 170.226 24.0971H167.788V26.39ZM167.788 22.6888H169.672C169.969 22.6888 170.224 22.6467 170.436 22.5624C170.649 22.4742 170.812 22.3518 170.924 22.1953C171.036 22.0348 171.092 21.8442 171.092 21.6236C171.092 21.3066 170.962 21.0579 170.701 20.8773C170.444 20.6968 170.087 20.6065 169.63 20.6065H167.788V22.6888ZM189.941 19.9385H187.69C187.626 19.5694 187.508 19.2424 187.335 18.9575C187.163 18.6686 186.948 18.4239 186.691 18.2233C186.434 18.0227 186.142 17.8722 185.813 17.7719C185.488 17.6676 185.137 17.6154 184.759 17.6154C184.089 17.6154 183.496 17.7839 182.978 18.121C182.46 18.454 182.055 18.9435 181.762 19.5894C181.469 20.2314 181.323 21.0157 181.323 21.9425C181.323 22.8854 181.469 23.6798 181.762 24.3258C182.059 24.9677 182.464 25.4532 182.978 25.7822C183.496 26.1072 184.087 26.2697 184.753 26.2697C185.122 26.2697 185.468 26.2215 185.788 26.1252C186.113 26.0249 186.404 25.8785 186.661 25.6859C186.922 25.4933 187.141 25.2566 187.317 24.9757C187.498 24.6949 187.622 24.3739 187.69 24.0128L189.941 24.0249C189.857 24.6106 189.674 25.1603 189.393 25.6739C189.117 26.1874 188.753 26.6408 188.304 27.034C187.855 27.4232 187.329 27.7281 186.727 27.9488C186.126 28.1654 185.457 28.2737 184.723 28.2737C183.64 28.2737 182.673 28.023 181.822 27.5215C180.972 27.0199 180.302 26.2957 179.812 25.3489C179.323 24.402 179.078 23.2666 179.078 21.9425C179.078 20.6145 179.325 19.4791 179.818 18.5362C180.312 17.5894 180.984 16.8652 181.835 16.3636C182.685 15.8621 183.648 15.6114 184.723 15.6114C185.409 15.6114 186.047 15.7076 186.637 15.9002C187.227 16.0928 187.752 16.3757 188.214 16.7488C188.675 17.1179 189.054 17.5713 189.351 18.1089C189.652 18.6425 189.849 19.2524 189.941 19.9385ZM193.062 28.2376C192.697 28.2376 192.384 28.1092 192.123 27.8525C191.862 27.5957 191.734 27.2827 191.738 26.9136C191.734 26.5525 191.862 26.2436 192.123 25.9868C192.384 25.73 192.697 25.6016 193.062 25.6016C193.415 25.6016 193.722 25.73 193.983 25.9868C194.248 26.2436 194.382 26.5525 194.386 26.9136C194.382 27.1584 194.318 27.381 194.194 27.5816C194.073 27.7822 193.913 27.9427 193.712 28.0631C193.515 28.1794 193.299 28.2376 193.062 28.2376ZM196.562 15.7799H199.295L202.954 24.7109H203.098L206.757 15.7799H209.489V28.1052H207.347V19.6376H207.233L203.826 28.0691H202.225L198.819 19.6195H198.705V28.1052H196.562V15.7799ZM212.997 28.2376C212.632 28.2376 212.319 28.1092 212.058 27.8525C211.797 27.5957 211.669 27.2827 211.673 26.9136C211.669 26.5525 211.797 26.2436 212.058 25.9868C212.319 25.73 212.632 25.6016 212.997 25.6016C213.35 25.6016 213.657 25.73 213.918 25.9868C214.183 26.2436 214.317 26.5525 214.321 26.9136C214.317 27.1584 214.253 27.381 214.129 27.5816C214.008 27.7822 213.848 27.9427 213.647 28.0631C213.45 28.1794 213.234 28.2376 212.997 28.2376Z" fill="#EB8DAA" style="fill:#EB8DAA;fill:color(display-p3 0.9216 0.5529 0.6667);fill-opacity:1;"/>
<path d="M72.9134 50.1052V37.7799H77.078C78.045 37.7799 78.8354 37.9544 79.4492 38.3035C80.0671 38.6485 80.5245 39.1159 80.8214 39.7057C81.1183 40.2955 81.2667 40.9535 81.2667 41.6797C81.2667 42.4059 81.1183 43.0659 80.8214 43.6597C80.5285 44.2535 80.0751 44.7269 79.4613 45.08C78.8474 45.4291 78.061 45.6036 77.1021 45.6036H74.1171V44.2796H77.054C77.716 44.2796 78.2476 44.1652 78.6488 43.9365C79.05 43.7078 79.3409 43.3989 79.5215 43.0097C79.706 42.6165 79.7983 42.1732 79.7983 41.6797C79.7983 41.1862 79.706 40.7449 79.5215 40.3557C79.3409 39.9665 79.048 39.6616 78.6428 39.4409C78.2376 39.2162 77.6999 39.1039 77.0299 39.1039H74.4059V50.1052H72.9134ZM86.9159 50.2978C86.0252 50.2978 85.2569 50.1012 84.611 49.708C83.969 49.3108 83.4735 48.7571 83.1245 48.047C82.7794 47.3328 82.6069 46.5023 82.6069 45.5554C82.6069 44.6086 82.7794 43.774 83.1245 43.0518C83.4735 42.3256 83.959 41.7599 84.5809 41.3547C85.2068 40.9455 85.937 40.7408 86.7715 40.7408C87.253 40.7408 87.7284 40.8211 88.1978 40.9816C88.6673 41.1421 89.0945 41.4028 89.4797 41.7639C89.8649 42.121 90.1718 42.5945 90.4005 43.1842C90.6292 43.774 90.7435 44.5002 90.7435 45.3628V45.9647H83.6179V44.737H89.2992C89.2992 44.2154 89.1949 43.75 88.9862 43.3407C88.7816 42.9315 88.4887 42.6085 88.1076 42.3718C87.7304 42.1351 87.2851 42.0167 86.7715 42.0167C86.2058 42.0167 85.7163 42.1571 85.3031 42.438C84.8938 42.7148 84.5789 43.0759 84.3582 43.5213C84.1375 43.9666 84.0272 44.4441 84.0272 44.9536V45.7721C84.0272 46.4702 84.1476 47.062 84.3883 47.5475C84.633 48.0289 84.9721 48.396 85.4054 48.6488C85.8387 48.8976 86.3422 49.0219 86.9159 49.0219C87.2891 49.0219 87.6261 48.9698 87.927 48.8655C88.2319 48.7571 88.4947 48.5967 88.7154 48.384C88.9361 48.1674 89.1066 47.8985 89.227 47.5776L90.5991 47.9627C90.4547 48.4281 90.2119 48.8374 89.8709 49.1905C89.5299 49.5395 89.1086 49.8123 88.6071 50.0089C88.1056 50.2015 87.5418 50.2978 86.9159 50.2978ZM99.4259 37.3947L100.148 38.2613C99.8673 38.5342 99.5423 38.7247 99.1732 38.8331C98.8041 38.9414 98.3868 39.0076 97.9214 39.0317C97.456 39.0557 96.9384 39.0798 96.3687 39.1039C95.7267 39.128 95.1951 39.2844 94.7738 39.5733C94.3526 39.8622 94.0276 40.2794 93.7989 40.8251C93.5702 41.3707 93.4238 42.0408 93.3596 42.8352H93.4799C93.7929 42.2574 94.2262 41.8321 94.7799 41.5593C95.3335 41.2865 95.9273 41.1501 96.5613 41.1501C97.2834 41.1501 97.9334 41.3186 98.5112 41.6556C99.0889 41.9926 99.5463 42.4921 99.8833 43.1542C100.22 43.8162 100.389 44.6326 100.389 45.6036C100.389 46.5705 100.216 47.405 99.8713 48.1072C99.5303 48.8093 99.0508 49.3509 98.4329 49.7321C97.8191 50.1092 97.0989 50.2978 96.2724 50.2978C95.4459 50.2978 94.7217 50.1032 94.0998 49.714C93.4779 49.3208 92.9944 48.7391 92.6494 47.9687C92.3044 47.1944 92.1318 46.2375 92.1318 45.098V44.1111C92.1318 42.0528 92.4809 40.4921 93.179 39.4289C93.8811 38.3656 94.9363 37.816 96.3446 37.7799C96.8421 37.7638 97.2855 37.7598 97.6746 37.7678C98.0638 37.7759 98.4028 37.7578 98.6917 37.7137C98.9806 37.6695 99.2253 37.5632 99.4259 37.3947ZM96.2724 49.0219C96.8301 49.0219 97.3095 48.8815 97.7107 48.6007C98.116 48.3198 98.4269 47.9246 98.6436 47.4151C98.8602 46.9015 98.9686 46.2977 98.9686 45.6036C98.9686 44.9295 98.8582 44.3558 98.6376 43.8824C98.4209 43.4089 98.11 43.0478 97.7047 42.7991C97.2995 42.5503 96.814 42.4259 96.2483 42.4259C95.8351 42.4259 95.4639 42.4962 95.1349 42.6366C94.8059 42.777 94.5251 42.9836 94.2924 43.2565C94.0597 43.5293 93.8791 43.8623 93.7507 44.2555C93.6264 44.6487 93.5602 45.098 93.5521 45.6036C93.5521 46.6387 93.7949 47.4672 94.2803 48.0891C94.7658 48.711 95.4298 49.0219 96.2724 49.0219ZM107.783 50.1052V42.1611H105.328C104.774 42.1611 104.339 42.2895 104.022 42.5463C103.705 42.8031 103.547 43.1562 103.547 43.6055C103.547 44.0469 103.689 44.3939 103.974 44.6467C104.263 44.8994 104.658 45.0258 105.159 45.0258H108.144V46.3498H105.159C104.534 46.3498 103.994 46.2395 103.54 46.0188C103.087 45.7982 102.738 45.4832 102.493 45.074C102.249 44.6607 102.126 44.1712 102.126 43.6055C102.126 43.0358 102.255 42.5463 102.511 42.1371C102.768 41.7278 103.135 41.4129 103.613 41.1922C104.094 40.9715 104.666 40.8612 105.328 40.8612H109.131V50.1052H107.783ZM101.621 50.1052L104.245 45.5073H105.785L103.161 50.1052H101.621ZM110.142 42.1852V40.8612H117.653V42.1852H114.62V50.1052H113.199V42.1852H110.142ZM130 44.8332V46.1573H124.896V44.8332H130ZM125.233 40.8612V50.1052H123.813V40.8612H125.233ZM131.083 40.8612V50.1052H129.663V40.8612H131.083ZM133.922 53.5717C133.681 53.5717 133.467 53.5517 133.278 53.5115C133.089 53.4754 132.959 53.4393 132.887 53.4032L133.248 52.1514C133.593 52.2397 133.898 52.2718 134.163 52.2477C134.427 52.2236 134.662 52.1053 134.867 51.8926C135.075 51.684 135.266 51.345 135.439 50.8756L135.703 50.1534L132.285 40.8612H133.826L136.377 48.2275H136.474L139.025 40.8612H140.566L136.642 51.4533C136.466 51.9308 136.247 52.326 135.986 52.6389C135.725 52.9559 135.422 53.1906 135.077 53.343C134.736 53.4955 134.351 53.5717 133.922 53.5717ZM153.655 40.8612V50.1052H152.235V40.8612H153.655ZM153.101 45.2666V46.5906C152.78 46.7109 152.461 46.8173 152.144 46.9095C151.827 46.9978 151.494 47.068 151.145 47.1202C150.796 47.1683 150.413 47.1924 149.996 47.1924C148.949 47.1924 148.108 46.9095 147.474 46.3438C146.844 45.7781 146.529 44.9295 146.529 43.7981V40.8371H147.95V43.7981C147.95 44.2715 148.04 44.6607 148.22 44.9656C148.401 45.2706 148.646 45.4973 148.955 45.6457C149.264 45.7942 149.611 45.8684 149.996 45.8684C150.598 45.8684 151.141 45.8142 151.627 45.7059C152.116 45.5935 152.608 45.4471 153.101 45.2666ZM159.798 50.2978C158.907 50.2978 158.139 50.1012 157.493 49.708C156.851 49.3108 156.355 48.7571 156.006 48.047C155.661 47.3328 155.489 46.5023 155.489 45.5554C155.489 44.6086 155.661 43.774 156.006 43.0518C156.355 42.3256 156.841 41.7599 157.462 41.3547C158.088 40.9455 158.819 40.7408 159.653 40.7408C160.135 40.7408 160.61 40.8211 161.079 40.9816C161.549 41.1421 161.976 41.4028 162.361 41.7639C162.747 42.121 163.053 42.5945 163.282 43.1842C163.511 43.774 163.625 44.5002 163.625 45.3628V45.9647H156.5V44.737H162.181C162.181 44.2154 162.076 43.75 161.868 43.3407C161.663 42.9315 161.37 42.6085 160.989 42.3718C160.612 42.1351 160.167 42.0167 159.653 42.0167C159.087 42.0167 158.598 42.1571 158.185 42.438C157.775 42.7148 157.46 43.0759 157.24 43.5213C157.019 43.9666 156.909 44.4441 156.909 44.9536V45.7721C156.909 46.4702 157.029 47.062 157.27 47.5475C157.515 48.0289 157.854 48.396 158.287 48.6488C158.72 48.8976 159.224 49.0219 159.798 49.0219C160.171 49.0219 160.508 48.9698 160.809 48.8655C161.114 48.7571 161.376 48.5967 161.597 48.384C161.818 48.1674 161.988 47.8985 162.109 47.5776L163.481 47.9627C163.336 48.4281 163.094 48.8374 162.753 49.1905C162.411 49.5395 161.99 49.8123 161.489 50.0089C160.987 50.2015 160.423 50.2978 159.798 50.2978ZM169.202 50.2978C168.336 50.2978 167.589 50.0932 166.963 49.6839C166.337 49.2747 165.856 48.711 165.519 47.9928C165.182 47.2746 165.013 46.4542 165.013 45.5314C165.013 44.5925 165.186 43.764 165.531 43.0458C165.88 42.3236 166.366 41.7599 166.987 41.3547C167.613 40.9455 168.344 40.7408 169.178 40.7408C169.828 40.7408 170.414 40.8612 170.935 41.1019C171.457 41.3427 171.884 41.6797 172.217 42.113C172.55 42.5463 172.757 43.0518 172.837 43.6296H171.417C171.309 43.2083 171.068 42.8352 170.695 42.5102C170.326 42.1812 169.828 42.0167 169.202 42.0167C168.648 42.0167 168.163 42.1611 167.746 42.45C167.332 42.7349 167.01 43.1381 166.777 43.6597C166.548 44.1773 166.434 44.7851 166.434 45.4832C166.434 46.1974 166.546 46.8193 166.771 47.3489C166.999 47.8785 167.32 48.2897 167.734 48.5826C168.151 48.8755 168.64 49.0219 169.202 49.0219C169.571 49.0219 169.906 48.9577 170.207 48.8294C170.508 48.701 170.763 48.5164 170.972 48.2757C171.18 48.0349 171.329 47.7461 171.417 47.4091H172.837C172.757 47.9547 172.558 48.4462 172.241 48.8835C171.928 49.3168 171.513 49.6619 170.996 49.9187C170.482 50.1714 169.884 50.2978 169.202 50.2978ZM173.846 42.1852V40.8612H181.357V42.1852H178.324V50.1052H176.904V42.1852H173.846ZM189.277 44.8332V46.1573H184.173V44.8332H189.277ZM184.51 40.8612V50.1052H183.09V40.8612H184.51ZM190.36 40.8612V50.1052H188.94V40.8612H190.36ZM196.37 50.2978C195.536 50.2978 194.804 50.0992 194.174 49.702C193.548 49.3048 193.058 48.7491 192.705 48.0349C192.356 47.3208 192.182 46.4863 192.182 45.5314C192.182 44.5684 192.356 43.7279 192.705 43.0097C193.058 42.2915 193.548 41.7339 194.174 41.3366C194.804 40.9394 195.536 40.7408 196.37 40.7408C197.205 40.7408 197.935 40.9394 198.561 41.3366C199.191 41.7339 199.68 42.2915 200.029 43.0097C200.382 43.7279 200.559 44.5684 200.559 45.5314C200.559 46.4863 200.382 47.3208 200.029 48.0349C199.68 48.7491 199.191 49.3048 198.561 49.702C197.935 50.0992 197.205 50.2978 196.37 50.2978ZM196.37 49.0219C197.004 49.0219 197.526 48.8594 197.935 48.5345C198.344 48.2095 198.647 47.7822 198.844 47.2526C199.04 46.723 199.139 46.1492 199.139 45.5314C199.139 44.9135 199.04 44.3377 198.844 43.8041C198.647 43.2705 198.344 42.8392 197.935 42.5102C197.526 42.1812 197.004 42.0167 196.37 42.0167C195.736 42.0167 195.215 42.1812 194.806 42.5102C194.396 42.8392 194.093 43.2705 193.897 43.8041C193.7 44.3377 193.602 44.9135 193.602 45.5314C193.602 46.1492 193.7 46.723 193.897 47.2526C194.093 47.7822 194.396 48.2095 194.806 48.5345C195.215 48.8594 195.736 49.0219 196.37 49.0219ZM204.506 48.4201L204.41 49.0701C204.342 49.5275 204.238 50.017 204.097 50.5385C203.961 51.0601 203.818 51.5516 203.67 52.013C203.522 52.4744 203.399 52.8415 203.303 53.1143H202.22C202.272 52.8576 202.34 52.5185 202.424 52.0973C202.508 51.676 202.593 51.2046 202.677 50.683C202.765 50.1654 202.837 49.6358 202.894 49.0942L202.966 48.4201H204.506ZM214.982 50.2978C214.115 50.2978 213.369 50.0932 212.743 49.6839C212.117 49.2747 211.636 48.711 211.299 47.9928C210.962 47.2746 210.793 46.4542 210.793 45.5314C210.793 44.5925 210.966 43.764 211.311 43.0458C211.66 42.3236 212.145 41.7599 212.767 41.3547C213.393 40.9455 214.123 40.7408 214.958 40.7408C215.608 40.7408 216.194 40.8612 216.715 41.1019C217.237 41.3427 217.664 41.6797 217.997 42.113C218.33 42.5463 218.537 43.0518 218.617 43.6296H217.197C217.088 43.2083 216.848 42.8352 216.474 42.5102C216.105 42.1812 215.608 42.0167 214.982 42.0167C214.428 42.0167 213.943 42.1611 213.525 42.45C213.112 42.7349 212.789 43.1381 212.557 43.6597C212.328 44.1773 212.214 44.7851 212.214 45.4832C212.214 46.1974 212.326 46.8193 212.551 47.3489C212.779 47.8785 213.1 48.2897 213.513 48.5826C213.931 48.8755 214.42 49.0219 214.982 49.0219C215.351 49.0219 215.686 48.9577 215.987 48.8294C216.288 48.701 216.543 48.5164 216.751 48.2757C216.96 48.0349 217.108 47.7461 217.197 47.4091H218.617C218.537 47.9547 218.338 48.4462 218.021 48.8835C217.708 49.3168 217.293 49.6619 216.775 49.9187C216.262 50.1714 215.664 50.2978 214.982 50.2978ZM219.626 42.1852V40.8612H227.137V42.1852H224.104V50.1052H222.683V42.1852H219.626ZM231.11 50.3219C230.524 50.3219 229.993 50.2115 229.515 49.9909C229.038 49.7662 228.659 49.4432 228.378 49.0219C228.097 48.5967 227.956 48.0831 227.956 47.4813C227.956 46.9517 228.061 46.5224 228.269 46.1934C228.478 45.8604 228.757 45.5996 229.106 45.411C229.455 45.2224 229.84 45.082 230.261 44.9897C230.687 44.8934 231.114 44.8172 231.543 44.761C232.105 44.6888 232.56 44.6346 232.909 44.5985C233.262 44.5584 233.519 44.4922 233.68 44.3999C233.844 44.3077 233.926 44.1472 233.926 43.9185V43.8703C233.926 43.2765 233.764 42.8151 233.439 42.4861C233.118 42.1571 232.631 41.9926 231.977 41.9926C231.299 41.9926 230.767 42.1411 230.382 42.438C229.997 42.7349 229.726 43.0518 229.569 43.3889L228.221 42.9074C228.462 42.3457 228.783 41.9084 229.184 41.5954C229.589 41.2785 230.031 41.0578 230.508 40.9334C230.99 40.805 231.463 40.7408 231.928 40.7408C232.225 40.7408 232.566 40.7769 232.952 40.8492C233.341 40.9174 233.716 41.0598 234.077 41.2765C234.442 41.4931 234.745 41.8201 234.986 42.2574C235.226 42.6948 235.347 43.2805 235.347 44.0148V50.1052H233.926V48.8534H233.854C233.758 49.054 233.597 49.2687 233.373 49.4974C233.148 49.7261 232.849 49.9207 232.476 50.0812C232.103 50.2416 231.648 50.3219 231.11 50.3219ZM231.327 49.046C231.888 49.046 232.362 48.9357 232.747 48.715C233.136 48.4943 233.429 48.2095 233.626 47.8604C233.826 47.5114 233.926 47.1442 233.926 46.7591V45.4591C233.866 45.5314 233.734 45.5976 233.529 45.6577C233.329 45.7139 233.096 45.7641 232.831 45.8082C232.57 45.8483 232.316 45.8844 232.067 45.9165C231.822 45.9446 231.624 45.9687 231.471 45.9887C231.102 46.0369 230.757 46.1151 230.436 46.2235C230.119 46.3278 229.862 46.4863 229.666 46.6989C229.473 46.9075 229.377 47.1924 229.377 47.5535C229.377 48.047 229.559 48.4201 229.924 48.6729C230.293 48.9216 230.761 49.046 231.327 49.046ZM236.782 50.1052V48.7812H237.119C237.396 48.7812 237.626 48.727 237.811 48.6187C237.995 48.5064 238.144 48.3118 238.256 48.0349C238.373 47.7541 238.461 47.3649 238.521 46.8674C238.585 46.3659 238.631 45.728 238.659 44.9536L238.828 40.8612H244.991V50.1052H243.57V42.1852H240.176L240.032 45.4832C239.999 46.2415 239.931 46.9095 239.827 47.4873C239.727 48.061 239.572 48.5425 239.364 48.9317C239.159 49.3208 238.886 49.6137 238.545 49.8103C238.204 50.0069 237.777 50.1052 237.263 50.1052H236.782ZM251.013 50.2978C250.178 50.2978 249.446 50.0992 248.816 49.702C248.19 49.3048 247.701 48.7491 247.348 48.0349C246.999 47.3208 246.824 46.4863 246.824 45.5314C246.824 44.5684 246.999 43.7279 247.348 43.0097C247.701 42.2915 248.19 41.7339 248.816 41.3366C249.446 40.9394 250.178 40.7408 251.013 40.7408C251.847 40.7408 252.578 40.9394 253.204 41.3366C253.833 41.7339 254.323 42.2915 254.672 43.0097C255.025 43.7279 255.202 44.5684 255.202 45.5314C255.202 46.4863 255.025 47.3208 254.672 48.0349C254.323 48.7491 253.833 49.3048 253.204 49.702C252.578 50.0992 251.847 50.2978 251.013 50.2978ZM251.013 49.0219C251.647 49.0219 252.168 48.8594 252.578 48.5345C252.987 48.2095 253.29 47.7822 253.486 47.2526C253.683 46.723 253.781 46.1492 253.781 45.5314C253.781 44.9135 253.683 44.3377 253.486 43.8041C253.29 43.2705 252.987 42.8392 252.578 42.5102C252.168 42.1812 251.647 42.0167 251.013 42.0167C250.379 42.0167 249.857 42.1812 249.448 42.5102C249.039 42.8392 248.736 43.2705 248.539 43.8041C248.343 44.3377 248.245 44.9135 248.245 45.5314C248.245 46.1492 248.343 46.723 248.539 47.2526C248.736 47.7822 249.039 48.2095 249.448 48.5345C249.857 48.8594 250.379 49.0219 251.013 49.0219ZM262.517 40.8612L264.732 44.6407L266.947 40.8612H268.584L265.599 45.4832L268.584 50.1052H266.947L264.732 46.5184L262.517 50.1052H260.88L263.817 45.4832L260.88 40.8612H262.517ZM271.186 53.5717C270.946 53.5717 270.731 53.5517 270.542 53.5115C270.354 53.4754 270.223 53.4393 270.151 53.4032L270.512 52.1514C270.857 52.2397 271.162 52.2718 271.427 52.2477C271.692 52.2236 271.927 52.1053 272.131 51.8926C272.34 51.684 272.53 51.345 272.703 50.8756L272.968 50.1534L269.549 40.8612H271.09L273.642 48.2275H273.738L276.29 40.8612H277.83L273.907 51.4533C273.73 51.9308 273.511 52.326 273.251 52.6389C272.99 52.9559 272.687 53.1906 272.342 53.343C272.001 53.4955 271.616 53.5717 271.186 53.5717ZM278.788 50.1052L282.544 45.411L278.837 40.8612H280.522L283.603 44.8092H284.373V40.8612H285.794V44.8092H286.54L289.621 40.8612H291.306L287.623 45.411L291.355 50.1052H289.645L286.516 46.1332H285.794V50.1052H284.373V46.1332H283.651L280.498 50.1052H278.788ZM296.54 50.2978C295.65 50.2978 294.881 50.1012 294.235 49.708C293.593 49.3108 293.098 48.7571 292.749 48.047C292.404 47.3328 292.231 46.5023 292.231 45.5554C292.231 44.6086 292.404 43.774 292.749 43.0518C293.098 42.3256 293.583 41.7599 294.205 41.3547C294.831 40.9455 295.561 40.7408 296.396 40.7408C296.877 40.7408 297.353 40.8211 297.822 40.9816C298.292 41.1421 298.719 41.4028 299.104 41.7639C299.489 42.121 299.796 42.5945 300.025 43.1842C300.254 43.774 300.368 44.5002 300.368 45.3628V45.9647H293.242V44.737H298.924C298.924 44.2154 298.819 43.75 298.611 43.3407C298.406 42.9315 298.113 42.6085 297.732 42.3718C297.355 42.1351 296.909 42.0167 296.396 42.0167C295.83 42.0167 295.341 42.1571 294.927 42.438C294.518 42.7148 294.203 43.0759 293.983 43.5213C293.762 43.9666 293.652 44.4441 293.652 44.9536V45.7721C293.652 46.4702 293.772 47.062 294.013 47.5475C294.257 48.0289 294.596 48.396 295.03 48.6488C295.463 48.8976 295.967 49.0219 296.54 49.0219C296.913 49.0219 297.25 48.9698 297.551 48.8655C297.856 48.7571 298.119 48.5967 298.34 48.384C298.56 48.1674 298.731 47.8985 298.851 47.5776L300.223 47.9627C300.079 48.4281 299.836 48.8374 299.495 49.1905C299.154 49.5395 298.733 49.8123 298.231 50.0089C297.73 50.2015 297.166 50.2978 296.54 50.2978ZM303.225 50.2015C302.928 50.2015 302.673 50.0952 302.46 49.8825C302.248 49.6699 302.141 49.4151 302.141 49.1182C302.141 48.8213 302.248 48.5666 302.46 48.3539C302.673 48.1413 302.928 48.0349 303.225 48.0349C303.522 48.0349 303.776 48.1413 303.989 48.3539C304.202 48.5666 304.308 48.8213 304.308 49.1182C304.308 49.3148 304.258 49.4954 304.157 49.6599C304.061 49.8244 303.931 49.9568 303.766 50.0571C303.606 50.1534 303.425 50.2015 303.225 50.2015ZM310.945 50.1052V40.8612H312.366V44.8814H313.304L316.626 40.8612H318.456L314.725 45.3147L318.504 50.1052H316.675L313.641 46.2054H312.366V50.1052H310.945ZM319.709 53.5717V40.8612H321.081V42.3297H321.25C321.354 42.1692 321.498 41.9645 321.683 41.7158C321.871 41.463 322.14 41.2383 322.489 41.0418C322.842 40.8411 323.32 40.7408 323.922 40.7408C324.7 40.7408 325.386 40.9354 325.98 41.3246C326.574 41.7138 327.037 42.2655 327.37 42.9796C327.703 43.6938 327.87 44.5363 327.87 45.5073C327.87 46.4863 327.703 47.3348 327.37 48.053C327.037 48.7672 326.576 49.3208 325.986 49.714C325.396 50.1032 324.716 50.2978 323.946 50.2978C323.352 50.2978 322.876 50.1995 322.519 50.0029C322.162 49.8023 321.887 49.5756 321.695 49.3229C321.502 49.0661 321.354 48.8534 321.25 48.6849H321.129V53.5717H319.709ZM321.105 45.4832C321.105 46.1813 321.207 46.7972 321.412 47.3308C321.617 47.8604 321.916 48.2757 322.309 48.5766C322.702 48.8735 323.183 49.0219 323.753 49.0219C324.347 49.0219 324.842 48.8655 325.24 48.5525C325.641 48.2356 325.942 47.8103 326.142 47.2767C326.347 46.739 326.449 46.1412 326.449 45.4832C326.449 44.8332 326.349 44.2475 326.148 43.7259C325.952 43.2003 325.653 42.785 325.252 42.4801C324.854 42.1712 324.355 42.0167 323.753 42.0167C323.175 42.0167 322.69 42.1632 322.297 42.456C321.904 42.7449 321.607 43.1501 321.406 43.6717C321.205 44.1893 321.105 44.7931 321.105 45.4832ZM332.417 50.3219C331.832 50.3219 331.3 50.2115 330.823 49.9909C330.345 49.7662 329.966 49.4432 329.685 49.0219C329.404 48.5967 329.264 48.0831 329.264 47.4813C329.264 46.9517 329.368 46.5224 329.577 46.1934C329.785 45.8604 330.064 45.5996 330.413 45.411C330.762 45.2224 331.148 45.082 331.569 44.9897C331.994 44.8934 332.421 44.8172 332.851 44.761C333.412 44.6888 333.868 44.6346 334.217 44.5985C334.57 44.5584 334.827 44.4922 334.987 44.3999C335.152 44.3077 335.234 44.1472 335.234 43.9185V43.8703C335.234 43.2765 335.072 42.8151 334.747 42.4861C334.426 42.1571 333.938 41.9926 333.284 41.9926C332.606 41.9926 332.074 42.1411 331.689 42.438C331.304 42.7349 331.033 43.0518 330.877 43.3889L329.529 42.9074C329.769 42.3457 330.09 41.9084 330.492 41.5954C330.897 41.2785 331.338 41.0578 331.816 40.9334C332.297 40.805 332.771 40.7408 333.236 40.7408C333.533 40.7408 333.874 40.7769 334.259 40.8492C334.648 40.9174 335.023 41.0598 335.384 41.2765C335.75 41.4931 336.052 41.8201 336.293 42.2574C336.534 42.6948 336.654 43.2805 336.654 44.0148V50.1052H335.234V48.8534H335.162C335.065 49.054 334.905 49.2687 334.68 49.4974C334.456 49.7261 334.157 49.9207 333.784 50.0812C333.41 50.2416 332.955 50.3219 332.417 50.3219ZM332.634 49.046C333.196 49.046 333.669 48.9357 334.054 48.715C334.444 48.4943 334.736 48.2095 334.933 47.8604C335.134 47.5114 335.234 47.1442 335.234 46.7591V45.4591C335.174 45.5314 335.041 45.5976 334.837 45.6577C334.636 45.7139 334.403 45.7641 334.139 45.8082C333.878 45.8483 333.623 45.8844 333.374 45.9165C333.13 45.9446 332.931 45.9687 332.779 45.9887C332.409 46.0369 332.064 46.1151 331.743 46.2235C331.426 46.3278 331.17 46.4863 330.973 46.6989C330.781 46.9075 330.684 47.1924 330.684 47.5535C330.684 48.047 330.867 48.4201 331.232 48.6729C331.601 48.9216 332.068 49.046 332.634 49.046ZM342.663 50.2978C341.796 50.2978 341.05 50.0932 340.424 49.6839C339.798 49.2747 339.317 48.711 338.98 47.9928C338.643 47.2746 338.474 46.4542 338.474 45.5314C338.474 44.5925 338.647 43.764 338.992 43.0458C339.341 42.3236 339.827 41.7599 340.448 41.3547C341.074 40.9455 341.805 40.7408 342.639 40.7408C343.289 40.7408 343.875 40.8612 344.396 41.1019C344.918 41.3427 345.345 41.6797 345.678 42.113C346.011 42.5463 346.218 43.0518 346.298 43.6296H344.878C344.769 43.2083 344.529 42.8352 344.156 42.5102C343.787 42.1812 343.289 42.0167 342.663 42.0167C342.109 42.0167 341.624 42.1611 341.207 42.45C340.793 42.7349 340.47 43.1381 340.238 43.6597C340.009 44.1773 339.895 44.7851 339.895 45.4832C339.895 46.1974 340.007 46.8193 340.232 47.3489C340.46 47.8785 340.781 48.2897 341.195 48.5826C341.612 48.8755 342.101 49.0219 342.663 49.0219C343.032 49.0219 343.367 48.9577 343.668 48.8294C343.969 48.701 344.224 48.5164 344.432 48.2757C344.641 48.0349 344.79 47.7461 344.878 47.4091H346.298C346.218 47.9547 346.019 48.4462 345.702 48.8835C345.389 49.3168 344.974 49.6619 344.457 49.9187C343.943 50.1714 343.345 50.2978 342.663 50.2978ZM349.456 48.0109L353.909 40.8612H355.546V50.1052H354.126V42.9556L349.697 50.1052H348.035V40.8612H349.456V48.0109ZM357.809 50.1052V40.8612H361.588C362.583 40.8612 363.374 41.0859 363.959 41.5352C364.545 41.9846 364.838 42.5784 364.838 43.3166C364.838 43.8784 364.671 44.3137 364.338 44.6226C364.005 44.9275 363.578 45.1342 363.057 45.2425C363.398 45.2906 363.729 45.411 364.05 45.6036C364.375 45.7962 364.643 46.061 364.856 46.398C365.069 46.731 365.175 47.1402 365.175 47.6257C365.175 48.0991 365.055 48.5224 364.814 48.8956C364.573 49.2687 364.228 49.5636 363.779 49.7802C363.329 49.9969 362.792 50.1052 362.166 50.1052H357.809ZM359.157 48.8053H362.166C362.655 48.8053 363.039 48.6889 363.315 48.4562C363.592 48.2235 363.731 47.9066 363.731 47.5053C363.731 47.0279 363.592 46.6528 363.315 46.3799C363.039 46.1031 362.655 45.9647 362.166 45.9647H359.157V48.8053ZM359.157 44.737H361.588C361.969 44.737 362.296 44.6848 362.569 44.5805C362.842 44.4722 363.051 44.3197 363.195 44.1231C363.343 43.9225 363.418 43.6858 363.418 43.4129C363.418 43.0238 363.255 42.7188 362.93 42.4982C362.605 42.2735 362.158 42.1611 361.588 42.1611H359.157V44.737ZM370.741 50.2978C369.907 50.2978 369.175 50.0992 368.545 49.702C367.919 49.3048 367.429 48.7491 367.076 48.0349C366.727 47.3208 366.553 46.4863 366.553 45.5314C366.553 44.5684 366.727 43.7279 367.076 43.0097C367.429 42.2915 367.919 41.7339 368.545 41.3366C369.175 40.9394 369.907 40.7408 370.741 40.7408C371.576 40.7408 372.306 40.9394 372.932 41.3366C373.562 41.7339 374.051 42.2915 374.401 43.0097C374.754 43.7279 374.93 44.5684 374.93 45.5314C374.93 46.4863 374.754 47.3208 374.401 48.0349C374.051 48.7491 373.562 49.3048 372.932 49.702C372.306 50.0992 371.576 50.2978 370.741 50.2978ZM370.741 49.0219C371.375 49.0219 371.897 48.8594 372.306 48.5345C372.715 48.2095 373.018 47.7822 373.215 47.2526C373.412 46.723 373.51 46.1492 373.51 45.5314C373.51 44.9135 373.412 44.3377 373.215 43.8041C373.018 43.2705 372.715 42.8392 372.306 42.5102C371.897 42.1812 371.375 42.0167 370.741 42.0167C370.108 42.0167 369.586 42.1812 369.177 42.5102C368.767 42.8392 368.465 43.2705 368.268 43.8041C368.071 44.3377 367.973 44.9135 367.973 45.5314C367.973 46.1492 368.071 46.723 368.268 47.2526C368.465 47.7822 368.767 48.2095 369.177 48.5345C369.586 48.8594 370.108 49.0219 370.741 49.0219ZM378.878 48.4201L378.781 49.0701C378.713 49.5275 378.609 50.017 378.468 50.5385C378.332 51.0601 378.19 51.5516 378.041 52.013C377.893 52.4744 377.77 52.8415 377.674 53.1143H376.591C376.643 52.8576 376.711 52.5185 376.795 52.0973C376.88 51.676 376.964 51.2046 377.048 50.683C377.136 50.1654 377.209 49.6358 377.265 49.0942L377.337 48.4201H378.878ZM391.784 44.8332V46.1573H386.681V44.8332H391.784ZM387.018 40.8612V50.1052H385.598V40.8612H387.018ZM392.868 40.8612V50.1052H391.447V40.8612H392.868ZM398.878 50.2978C398.044 50.2978 397.311 50.0992 396.681 49.702C396.056 49.3048 395.566 48.7491 395.213 48.0349C394.864 47.3208 394.689 46.4863 394.689 45.5314C394.689 44.5684 394.864 43.7279 395.213 43.0097C395.566 42.2915 396.056 41.7339 396.681 41.3366C397.311 40.9394 398.044 40.7408 398.878 40.7408C399.713 40.7408 400.443 40.9394 401.069 41.3366C401.699 41.7339 402.188 42.2915 402.537 43.0097C402.89 43.7279 403.067 44.5684 403.067 45.5314C403.067 46.4863 402.89 47.3208 402.537 48.0349C402.188 48.7491 401.699 49.3048 401.069 49.702C400.443 50.0992 399.713 50.2978 398.878 50.2978ZM398.878 49.0219C399.512 49.0219 400.034 48.8594 400.443 48.5345C400.852 48.2095 401.155 47.7822 401.352 47.2526C401.548 46.723 401.646 46.1492 401.646 45.5314C401.646 44.9135 401.548 44.3377 401.352 43.8041C401.155 43.2705 400.852 42.8392 400.443 42.5102C400.034 42.1812 399.512 42.0167 398.878 42.0167C398.244 42.0167 397.723 42.1812 397.313 42.5102C396.904 42.8392 396.601 43.2705 396.405 43.8041C396.208 44.3377 396.11 44.9135 396.11 45.5314C396.11 46.1492 396.208 46.723 396.405 47.2526C396.601 47.7822 396.904 48.2095 397.313 48.5345C397.723 48.8594 398.244 49.0219 398.878 49.0219ZM415.51 44.8332V46.1573H410.407V44.8332H415.51ZM410.744 40.8612V50.1052H409.323V40.8612H410.744ZM416.593 40.8612V50.1052H415.173V40.8612H416.593ZM422.724 50.2978C421.833 50.2978 421.065 50.1012 420.419 49.708C419.777 49.3108 419.282 48.7571 418.933 48.047C418.588 47.3328 418.415 46.5023 418.415 45.5554C418.415 44.6086 418.588 43.774 418.933 43.0518C419.282 42.3256 419.767 41.7599 420.389 41.3547C421.015 40.9455 421.745 40.7408 422.58 40.7408C423.061 40.7408 423.537 40.8211 424.006 40.9816C424.475 41.1421 424.903 41.4028 425.288 41.7639C425.673 42.121 425.98 42.5945 426.209 43.1842C426.437 43.774 426.552 44.5002 426.552 45.3628V45.9647H419.426V44.737H425.107C425.107 44.2154 425.003 43.75 424.794 43.3407C424.59 42.9315 424.297 42.6085 423.916 42.3718C423.539 42.1351 423.093 42.0167 422.58 42.0167C422.014 42.0167 421.524 42.1571 421.111 42.438C420.702 42.7148 420.387 43.0759 420.166 43.5213C419.946 43.9666 419.835 44.4441 419.835 44.9536V45.7721C419.835 46.4702 419.956 47.062 420.196 47.5475C420.441 48.0289 420.78 48.396 421.214 48.6488C421.647 48.8976 422.15 49.0219 422.724 49.0219C423.097 49.0219 423.434 48.9698 423.735 48.8655C424.04 48.7571 424.303 48.5967 424.524 48.384C424.744 48.1674 424.915 47.8985 425.035 47.5776L426.407 47.9627C426.263 48.4281 426.02 48.8374 425.679 49.1905C425.338 49.5395 424.917 49.8123 424.415 50.0089C423.914 50.2015 423.35 50.2978 422.724 50.2978ZM429.007 53.5717C428.766 53.5717 428.551 53.5517 428.363 53.5115C428.174 53.4754 428.044 53.4393 427.972 53.4032L428.333 52.1514C428.678 52.2397 428.983 52.2718 429.247 52.2477C429.512 52.2236 429.747 52.1053 429.952 51.8926C430.16 51.684 430.351 51.345 430.523 50.8756L430.788 50.1534L427.37 40.8612H428.91L431.462 48.2275H431.558L434.11 40.8612H435.651L431.727 51.4533C431.55 51.9308 431.332 52.326 431.071 52.6389C430.81 52.9559 430.507 53.1906 430.162 53.343C429.821 53.4955 429.436 53.5717 429.007 53.5717ZM435.422 52.7533V48.7812H436.192C436.381 48.5846 436.543 48.372 436.68 48.1433C436.816 47.9146 436.934 47.6438 437.035 47.3308C437.139 47.0139 437.227 46.6287 437.299 46.1753C437.372 45.7179 437.436 45.1663 437.492 44.5203L437.805 40.8612H443.679V48.7812H445.099V52.7533H443.679V50.1052H436.842V52.7533H435.422ZM437.805 48.7812H442.258V42.1852H439.129L438.888 44.5203C438.788 45.4872 438.664 46.3318 438.515 47.054C438.367 47.7762 438.13 48.3519 437.805 48.7812ZM450.401 50.2978C449.566 50.2978 448.834 50.0992 448.204 49.702C447.578 49.3048 447.089 48.7491 446.736 48.0349C446.387 47.3208 446.212 46.4863 446.212 45.5314C446.212 44.5684 446.387 43.7279 446.736 43.0097C447.089 42.2915 447.578 41.7339 448.204 41.3366C448.834 40.9394 449.566 40.7408 450.401 40.7408C451.235 40.7408 451.965 40.9394 452.591 41.3366C453.221 41.7339 453.711 42.2915 454.06 43.0097C454.413 43.7279 454.589 44.5684 454.589 45.5314C454.589 46.4863 454.413 47.3208 454.06 48.0349C453.711 48.7491 453.221 49.3048 452.591 49.702C451.965 50.0992 451.235 50.2978 450.401 50.2978ZM450.401 49.0219C451.035 49.0219 451.556 48.8594 451.965 48.5345C452.375 48.2095 452.678 47.7822 452.874 47.2526C453.071 46.723 453.169 46.1492 453.169 45.5314C453.169 44.9135 453.071 44.3377 452.874 43.8041C452.678 43.2705 452.375 42.8392 451.965 42.5102C451.556 42.1812 451.035 42.0167 450.401 42.0167C449.767 42.0167 449.245 42.1812 448.836 42.5102C448.427 42.8392 448.124 43.2705 447.927 43.8041C447.731 44.3377 447.632 44.9135 447.632 45.5314C447.632 46.1492 447.731 46.723 447.927 47.2526C448.124 47.7822 448.427 48.2095 448.836 48.5345C449.245 48.8594 449.767 49.0219 450.401 49.0219ZM463.279 37.3947L464.002 38.2613C463.721 38.5342 463.396 38.7247 463.027 38.8331C462.657 38.9414 462.24 39.0076 461.775 39.0317C461.309 39.0557 460.792 39.0798 460.222 39.1039C459.58 39.128 459.049 39.2844 458.627 39.5733C458.206 39.8622 457.881 40.2794 457.652 40.8251C457.424 41.3707 457.277 42.0408 457.213 42.8352H457.333C457.646 42.2574 458.08 41.8321 458.633 41.5593C459.187 41.2865 459.781 41.1501 460.415 41.1501C461.137 41.1501 461.787 41.3186 462.365 41.6556C462.942 41.9926 463.4 42.4921 463.737 43.1542C464.074 43.8162 464.242 44.6326 464.242 45.6036C464.242 46.5705 464.07 47.405 463.725 48.1072C463.384 48.8093 462.904 49.3509 462.286 49.7321C461.672 50.1092 460.952 50.2978 460.126 50.2978C459.299 50.2978 458.575 50.1032 457.953 49.714C457.331 49.3208 456.848 48.7391 456.503 47.9687C456.158 47.1944 455.985 46.2375 455.985 45.098V44.1111C455.985 42.0528 456.334 40.4921 457.032 39.4289C457.735 38.3656 458.79 37.816 460.198 37.7799C460.695 37.7638 461.139 37.7598 461.528 37.7678C461.917 37.7759 462.256 37.7578 462.545 37.7137C462.834 37.6695 463.079 37.5632 463.279 37.3947ZM460.126 49.0219C460.683 49.0219 461.163 48.8815 461.564 48.6007C461.969 48.3198 462.28 47.9246 462.497 47.4151C462.714 46.9015 462.822 46.2977 462.822 45.6036C462.822 44.9295 462.712 44.3558 462.491 43.8824C462.274 43.4089 461.963 43.0478 461.558 42.7991C461.153 42.5503 460.667 42.4259 460.102 42.4259C459.688 42.4259 459.317 42.4962 458.988 42.6366C458.659 42.777 458.378 42.9836 458.146 43.2565C457.913 43.5293 457.733 43.8623 457.604 44.2555C457.48 44.6487 457.414 45.098 457.406 45.6036C457.406 46.6387 457.648 47.4672 458.134 48.0891C458.619 48.711 459.283 49.0219 460.126 49.0219ZM472.263 44.8332V46.1573H467.159V44.8332H472.263ZM467.496 40.8612V50.1052H466.076V40.8612H467.496ZM473.346 40.8612V50.1052H471.926V40.8612H473.346ZM479.356 50.2978C478.522 50.2978 477.789 50.0992 477.16 49.702C476.534 49.3048 476.044 48.7491 475.691 48.0349C475.342 47.3208 475.168 46.4863 475.168 45.5314C475.168 44.5684 475.342 43.7279 475.691 43.0097C476.044 42.2915 476.534 41.7339 477.16 41.3366C477.789 40.9394 478.522 40.7408 479.356 40.7408C480.191 40.7408 480.921 40.9394 481.547 41.3366C482.177 41.7339 482.666 42.2915 483.015 43.0097C483.368 43.7279 483.545 44.5684 483.545 45.5314C483.545 46.4863 483.368 47.3208 483.015 48.0349C482.666 48.7491 482.177 49.3048 481.547 49.702C480.921 50.0992 480.191 50.2978 479.356 50.2978ZM479.356 49.0219C479.99 49.0219 480.512 48.8594 480.921 48.5345C481.33 48.2095 481.633 47.7822 481.83 47.2526C482.026 46.723 482.125 46.1492 482.125 45.5314C482.125 44.9135 482.026 44.3377 481.83 43.8041C481.633 43.2705 481.33 42.8392 480.921 42.5102C480.512 42.1812 479.99 42.0167 479.356 42.0167C478.722 42.0167 478.201 42.1812 477.791 42.5102C477.382 42.8392 477.079 43.2705 476.883 43.8041C476.686 44.3377 476.588 44.9135 476.588 45.5314C476.588 46.1492 476.686 46.723 476.883 47.2526C477.079 47.7822 477.382 48.2095 477.791 48.5345C478.201 48.8594 478.722 49.0219 479.356 49.0219ZM486.409 50.2015C486.112 50.2015 485.858 50.0952 485.645 49.8825C485.432 49.6699 485.326 49.4151 485.326 49.1182C485.326 48.8213 485.432 48.5666 485.645 48.3539C485.858 48.1413 486.112 48.0349 486.409 48.0349C486.706 48.0349 486.961 48.1413 487.173 48.3539C487.386 48.5666 487.492 48.8213 487.492 49.1182C487.492 49.3148 487.442 49.4954 487.342 49.6599C487.246 49.8244 487.115 49.9568 486.951 50.0571C486.79 50.1534 486.61 50.2015 486.409 50.2015ZM72.7208 73.1052V63.8612H76.5003C77.4953 63.8612 78.2857 64.0859 78.8715 64.5352C79.4573 64.9846 79.7501 65.5784 79.7501 66.3166C79.7501 66.8784 79.5836 67.3137 79.2506 67.6226C78.9176 67.9275 78.4903 68.1342 77.9687 68.2425C78.3098 68.2906 78.6408 68.411 78.9618 68.6036C79.2867 68.7962 79.5556 69.061 79.7682 69.398C79.9808 69.731 80.0872 70.1402 80.0872 70.6257C80.0872 71.0991 79.9668 71.5224 79.7261 71.8956C79.4853 72.2687 79.1403 72.5636 78.6909 72.7802C78.2416 72.9969 77.7039 73.1052 77.078 73.1052H72.7208ZM74.0689 71.8053H77.078C77.5675 71.8053 77.9507 71.6889 78.2275 71.4562C78.5044 71.2235 78.6428 70.9066 78.6428 70.5053C78.6428 70.0279 78.5044 69.6528 78.2275 69.3799C77.9507 69.1031 77.5675 68.9647 77.078 68.9647H74.0689V71.8053ZM74.0689 67.737H76.5003C76.8814 67.737 77.2084 67.6848 77.4813 67.5805C77.7541 67.4722 77.9627 67.3197 78.1072 67.1231C78.2556 66.9225 78.3298 66.6858 78.3298 66.4129C78.3298 66.0238 78.1673 65.7188 77.8424 65.4982C77.5174 65.2735 77.07 65.1611 76.5003 65.1611H74.0689V67.737ZM85.774 73.2978C84.8833 73.2978 84.115 73.1012 83.469 72.708C82.8271 72.3108 82.3315 71.7571 81.9825 71.047C81.6374 70.3328 81.4649 69.5023 81.4649 68.5554C81.4649 67.6086 81.6374 66.774 81.9825 66.0518C82.3315 65.3256 82.817 64.7599 83.4389 64.3547C84.0648 63.9455 84.795 63.7408 85.6295 63.7408C86.111 63.7408 86.5864 63.8211 87.0559 63.9816C87.5253 64.1421 87.9526 64.4028 88.3378 64.7639C88.7229 65.121 89.0299 65.5945 89.2585 66.1842C89.4872 66.774 89.6016 67.5002 89.6016 68.3628V68.9647H82.476V67.737H88.1572C88.1572 67.2154 88.0529 66.75 87.8443 66.3407C87.6396 65.9315 87.3468 65.6085 86.9656 65.3718C86.5885 65.1351 86.1431 65.0167 85.6295 65.0167C85.0638 65.0167 84.5743 65.1571 84.1611 65.438C83.7519 65.7148 83.4369 66.0759 83.2162 66.5213C82.9956 66.9666 82.8852 67.4441 82.8852 67.9536V68.7721C82.8852 69.4702 83.0056 70.062 83.2463 70.5475C83.4911 71.0289 83.8301 71.396 84.2634 71.6488C84.6967 71.8976 85.2002 72.0219 85.774 72.0219C86.1471 72.0219 86.4841 71.9698 86.785 71.8655C87.09 71.7571 87.3528 71.5967 87.5734 71.384C87.7941 71.1674 87.9646 70.8985 88.085 70.5776L89.4571 70.9627C89.3127 71.4281 89.07 71.8374 88.7289 72.1905C88.3879 72.5395 87.9666 72.8123 87.4651 73.0089C86.9636 73.2015 86.3999 73.2978 85.774 73.2978ZM91.4232 76.5717V63.8612H92.7953V65.3297H92.9639C93.0682 65.1692 93.2126 64.9645 93.3972 64.7158C93.5857 64.463 93.8546 64.2383 94.2036 64.0418C94.5567 63.8411 95.0341 63.7408 95.636 63.7408C96.4143 63.7408 97.1004 63.9354 97.6942 64.3246C98.288 64.7138 98.7514 65.2655 99.0844 65.9796C99.4174 66.6938 99.5839 67.5363 99.5839 68.5073C99.5839 69.4863 99.4174 70.3348 99.0844 71.053C98.7514 71.7672 98.29 72.3208 97.7002 72.714C97.1104 73.1032 96.4304 73.2978 95.66 73.2978C95.0662 73.2978 94.5908 73.1995 94.2337 73.0029C93.8766 72.8023 93.6018 72.5756 93.4092 72.3229C93.2166 72.0661 93.0682 71.8534 92.9639 71.6849H92.8435V76.5717H91.4232ZM92.8194 68.4832C92.8194 69.1813 92.9217 69.7972 93.1263 70.3308C93.331 70.8604 93.6299 71.2757 94.0231 71.5766C94.4163 71.8735 94.8977 72.0219 95.4674 72.0219C96.0612 72.0219 96.5567 71.8655 96.954 71.5525C97.3552 71.2356 97.6561 70.8103 97.8567 70.2767C98.0613 69.739 98.1636 69.1412 98.1636 68.4832C98.1636 67.8332 98.0633 67.2475 97.8627 66.7259C97.6661 66.2003 97.3672 65.785 96.966 65.4801C96.5688 65.1712 96.0693 65.0167 95.4674 65.0167C94.8897 65.0167 94.4042 65.1632 94.011 65.456C93.6178 65.7449 93.3209 66.1501 93.1203 66.6717C92.9197 67.1893 92.8194 67.7931 92.8194 68.4832ZM107.598 67.8332V69.1573H102.495V67.8332H107.598ZM102.832 63.8612V73.1052H101.412V63.8612H102.832ZM108.682 63.8612V73.1052H107.261V63.8612H108.682ZM112.357 71.0109L116.81 63.8612H118.447V73.1052H117.027V65.9556L112.598 73.1052H110.936V63.8612H112.357V71.0109ZM119.452 65.1852V63.8612H126.963V65.1852H123.929V73.1052H122.509V65.1852H119.452ZM132.091 73.2978C131.201 73.2978 130.432 73.1012 129.786 72.708C129.144 72.3108 128.649 71.7571 128.3 71.047C127.955 70.3328 127.782 69.5023 127.782 68.5554C127.782 67.6086 127.955 66.774 128.3 66.0518C128.649 65.3256 129.134 64.7599 129.756 64.3547C130.382 63.9455 131.112 63.7408 131.947 63.7408C132.428 63.7408 132.904 63.8211 133.373 63.9816C133.843 64.1421 134.27 64.4028 134.655 64.7639C135.04 65.121 135.347 65.5945 135.576 66.1842C135.805 66.774 135.919 67.5002 135.919 68.3628V68.9647H128.793V67.737H134.475C134.475 67.2154 134.37 66.75 134.162 66.3407C133.957 65.9315 133.664 65.6085 133.283 65.3718C132.906 65.1351 132.46 65.0167 131.947 65.0167C131.381 65.0167 130.892 65.1571 130.478 65.438C130.069 65.7148 129.754 66.0759 129.534 66.5213C129.313 66.9666 129.203 67.4441 129.203 67.9536V68.7721C129.203 69.4702 129.323 70.062 129.564 70.5475C129.808 71.0289 130.147 71.396 130.581 71.6488C131.014 71.8976 131.518 72.0219 132.091 72.0219C132.464 72.0219 132.801 71.9698 133.102 71.8655C133.407 71.7571 133.67 71.5967 133.891 71.384C134.111 71.1674 134.282 70.8985 134.402 70.5776L135.774 70.9627C135.63 71.4281 135.387 71.8374 135.046 72.1905C134.705 72.5395 134.284 72.8123 133.782 73.0089C133.281 73.2015 132.717 73.2978 132.091 73.2978ZM142.168 73.1052V63.8612H143.588V67.8814H144.527L147.849 63.8612H149.679L145.947 68.3147L149.727 73.1052H147.897L144.864 69.2054H143.588V73.1052H142.168ZM153.652 73.3219C153.066 73.3219 152.534 73.2115 152.057 72.9909C151.58 72.7662 151.2 72.4432 150.92 72.0219C150.639 71.5967 150.498 71.0831 150.498 70.4813C150.498 69.9517 150.603 69.5224 150.811 69.1934C151.02 68.8604 151.299 68.5996 151.648 68.411C151.997 68.2224 152.382 68.082 152.803 67.9897C153.229 67.8934 153.656 67.8172 154.085 67.761C154.647 67.6888 155.102 67.6346 155.451 67.5985C155.804 67.5584 156.061 67.4922 156.222 67.3999C156.386 67.3077 156.468 67.1472 156.468 66.9185V66.8703C156.468 66.2765 156.306 65.8151 155.981 65.4861C155.66 65.1571 155.172 64.9926 154.518 64.9926C153.84 64.9926 153.309 65.1411 152.924 65.438C152.538 65.7349 152.268 66.0518 152.111 66.3889L150.763 65.9074C151.004 65.3457 151.325 64.9084 151.726 64.5954C152.131 64.2785 152.573 64.0578 153.05 63.9334C153.532 63.805 154.005 63.7408 154.47 63.7408C154.767 63.7408 155.108 63.7769 155.493 63.8492C155.883 63.9174 156.258 64.0598 156.619 64.2765C156.984 64.4931 157.287 64.8201 157.528 65.2574C157.768 65.6948 157.889 66.2805 157.889 67.0148V73.1052H156.468V71.8534H156.396C156.3 72.054 156.139 72.2687 155.915 72.4974C155.69 72.7261 155.391 72.9207 155.018 73.0812C154.645 73.2416 154.189 73.3219 153.652 73.3219ZM153.869 72.046C154.43 72.046 154.904 71.9357 155.289 71.715C155.678 71.4943 155.971 71.2095 156.167 70.8604C156.368 70.5114 156.468 70.1442 156.468 69.7591V68.4591C156.408 68.5314 156.276 68.5976 156.071 68.6577C155.871 68.7139 155.638 68.7641 155.373 68.8082C155.112 68.8483 154.858 68.8844 154.609 68.9165C154.364 68.9446 154.165 68.9687 154.013 68.9887C153.644 69.0369 153.299 69.1151 152.978 69.2235C152.661 69.3278 152.404 69.4863 152.207 69.6989C152.015 69.9075 151.919 70.1924 151.919 70.5535C151.919 71.047 152.101 71.4201 152.466 71.6729C152.835 71.9216 153.303 72.046 153.869 72.046ZM160.142 73.1052V63.8612H161.562V67.8814H162.501L165.823 63.8612H167.653L163.922 68.3147L167.701 73.1052H165.871L162.838 69.2054H161.562V73.1052H160.142ZM180.194 60.3947L180.916 61.2613C180.635 61.5342 180.31 61.7247 179.941 61.8331C179.572 61.9414 179.155 62.0076 178.69 62.0317C178.224 62.0557 177.707 62.0798 177.137 62.1039C176.495 62.128 175.963 62.2844 175.542 62.5733C175.121 62.8622 174.796 63.2794 174.567 63.8251C174.338 64.3707 174.192 65.0408 174.128 65.8352H174.248C174.561 65.2574 174.994 64.8321 175.548 64.5593C176.102 64.2865 176.695 64.1501 177.329 64.1501C178.052 64.1501 178.702 64.3186 179.279 64.6556C179.857 64.9926 180.314 65.4921 180.651 66.1542C180.988 66.8162 181.157 67.6326 181.157 68.6036C181.157 69.5705 180.984 70.405 180.639 71.1072C180.298 71.8093 179.819 72.3509 179.201 72.7321C178.587 73.1092 177.867 73.2978 177.041 73.2978C176.214 73.2978 175.49 73.1032 174.868 72.714C174.246 72.3208 173.763 71.7391 173.418 70.9687C173.072 70.1944 172.9 69.2375 172.9 68.098V67.1111C172.9 65.0528 173.249 63.4921 173.947 62.4289C174.649 61.3656 175.704 60.816 177.113 60.7799C177.61 60.7638 178.054 60.7598 178.443 60.7678C178.832 60.7759 179.171 60.7578 179.46 60.7137C179.749 60.6695 179.993 60.5632 180.194 60.3947ZM177.041 72.0219C177.598 72.0219 178.078 71.8815 178.479 71.6007C178.884 71.3198 179.195 70.9246 179.412 70.4151C179.628 69.9015 179.737 69.2977 179.737 68.6036C179.737 67.9295 179.626 67.3558 179.406 66.8824C179.189 66.4089 178.878 66.0478 178.473 65.7991C178.068 65.5503 177.582 65.4259 177.016 65.4259C176.603 65.4259 176.232 65.4962 175.903 65.6366C175.574 65.777 175.293 65.9836 175.061 66.2565C174.828 66.5293 174.647 66.8623 174.519 67.2555C174.394 67.6487 174.328 68.098 174.32 68.6036C174.32 69.6387 174.563 70.4672 175.048 71.0891C175.534 71.711 176.198 72.0219 177.041 72.0219ZM184.218 67.2073H186.866C187.95 67.2073 188.778 67.4822 189.352 68.0318C189.926 68.5815 190.213 69.2776 190.213 70.1202C190.213 70.6739 190.084 71.1774 189.827 71.6308C189.571 72.0801 189.193 72.4392 188.696 72.708C188.198 72.9728 187.589 73.1052 186.866 73.1052H182.991V63.8612H184.411V71.7812H186.866C187.428 71.7812 187.889 71.6328 188.251 71.3359C188.612 71.039 188.792 70.6578 188.792 70.1924C188.792 69.7029 188.612 69.3037 188.251 68.9948C187.889 68.6858 187.428 68.5314 186.866 68.5314H184.218V67.2073ZM191.681 73.1052V63.8612H193.101V73.1052H191.681ZM194.544 73.1052V71.7812H194.881C195.158 71.7812 195.388 71.727 195.573 71.6187C195.757 71.5064 195.906 71.3118 196.018 71.0349C196.135 70.7541 196.223 70.3649 196.283 69.8674C196.347 69.3659 196.393 68.728 196.421 67.9536L196.59 63.8612H202.753V73.1052H201.332V65.1852H197.938L197.794 68.4832C197.761 69.2415 197.693 69.9095 197.589 70.4873C197.489 71.061 197.334 71.5425 197.126 71.9317C196.921 72.3208 196.648 72.6137 196.307 72.8103C195.966 73.0069 195.539 73.1052 195.025 73.1052H194.544ZM208.775 73.2978C207.94 73.2978 207.208 73.0992 206.578 72.702C205.952 72.3048 205.463 71.7491 205.11 71.0349C204.761 70.3208 204.586 69.4863 204.586 68.5314C204.586 67.5684 204.761 66.7279 205.11 66.0097C205.463 65.2915 205.952 64.7339 206.578 64.3366C207.208 63.9394 207.94 63.7408 208.775 63.7408C209.609 63.7408 210.34 63.9394 210.966 64.3366C211.595 64.7339 212.085 65.2915 212.434 66.0097C212.787 66.7279 212.964 67.5684 212.964 68.5314C212.964 69.4863 212.787 70.3208 212.434 71.0349C212.085 71.7491 211.595 72.3048 210.966 72.702C210.34 73.0992 209.609 73.2978 208.775 73.2978ZM208.775 72.0219C209.409 72.0219 209.93 71.8594 210.34 71.5345C210.749 71.2095 211.052 70.7822 211.248 70.2526C211.445 69.723 211.543 69.1492 211.543 68.5314C211.543 67.9135 211.445 67.3377 211.248 66.8041C211.052 66.2705 210.749 65.8392 210.34 65.5102C209.93 65.1812 209.409 65.0167 208.775 65.0167C208.141 65.0167 207.619 65.1812 207.21 65.5102C206.801 65.8392 206.498 66.2705 206.301 66.8041C206.105 67.3377 206.007 67.9135 206.007 68.5314C206.007 69.1492 206.105 69.723 206.301 70.2526C206.498 70.7822 206.801 71.2095 207.21 71.5345C207.619 71.8594 208.141 72.0219 208.775 72.0219Z" fill="#F5F5F5" style="fill:#F5F5F5;fill:color(display-p3 0.9625 0.9625 0.9625);fill-opacity:1;"/>
<path d="M504.398 67.8326V80.158H502.906V69.3973H502.833L499.824 71.3954V69.8788L502.906 67.8326H504.398ZM510.85 67.6641C511.355 67.6681 511.861 67.7644 512.366 67.953C512.872 68.1415 513.333 68.4545 513.751 68.8918C514.168 69.3251 514.503 69.9169 514.756 70.6672C515.008 71.4175 515.135 72.3583 515.135 73.4897C515.135 74.5851 515.031 75.558 514.822 76.4086C514.617 77.2552 514.32 77.9693 513.931 78.5511C513.546 79.1329 513.077 79.5742 512.523 79.8751C511.973 80.176 511.351 80.3265 510.657 80.3265C509.967 80.3265 509.351 80.1901 508.81 79.9172C508.272 79.6404 507.831 79.2572 507.486 78.7677C507.145 78.2742 506.926 77.7025 506.83 77.0525H508.298C508.431 77.6183 508.693 78.0857 509.087 78.4548C509.484 78.8199 510.007 79.0025 510.657 79.0025C511.608 79.0025 512.358 78.5872 512.908 77.7567C513.462 76.9262 513.739 75.7526 513.739 74.236H513.642C513.418 74.573 513.151 74.8639 512.842 75.1087C512.533 75.3534 512.19 75.542 511.813 75.6744C511.436 75.8068 511.034 75.873 510.609 75.873C509.903 75.873 509.255 75.6984 508.665 75.3494C508.079 74.9963 507.61 74.5128 507.257 73.899C506.908 73.2811 506.733 72.575 506.733 71.7806C506.733 71.0263 506.902 70.3362 507.239 69.7103C507.58 69.0804 508.057 68.5789 508.671 68.2057C509.289 67.8326 510.015 67.6521 510.85 67.6641ZM510.85 68.9881C510.344 68.9881 509.889 69.1145 509.484 69.3673C509.083 69.616 508.764 69.953 508.527 70.3783C508.294 70.7996 508.178 71.267 508.178 71.7806C508.178 72.2941 508.29 72.7615 508.515 73.1828C508.743 73.6001 509.054 73.9331 509.448 74.1818C509.845 74.4266 510.296 74.549 510.802 74.549C511.183 74.549 511.538 74.4747 511.867 74.3263C512.196 74.1738 512.483 73.9672 512.728 73.7064C512.976 73.4416 513.171 73.1427 513.311 72.8097C513.452 72.4727 513.522 72.1216 513.522 71.7565C513.522 71.275 513.406 70.8237 513.173 70.4024C512.944 69.9811 512.627 69.6401 512.222 69.3793C511.821 69.1185 511.363 68.9881 510.85 68.9881ZM517.544 78.5812C517.247 78.5812 516.992 78.4749 516.78 78.2622C516.567 78.0496 516.461 77.7948 516.461 77.4979C516.461 77.201 516.567 76.9462 516.78 76.7336C516.992 76.5209 517.247 76.4146 517.544 76.4146C517.841 76.4146 518.096 76.5209 518.308 76.7336C518.521 76.9462 518.627 77.201 518.627 77.4979C518.627 77.6945 518.577 77.875 518.477 78.0395C518.38 78.204 518.25 78.3364 518.086 78.4367C517.925 78.533 517.744 78.5812 517.544 78.5812ZM517.544 72.3463C517.247 72.3463 516.992 72.24 516.78 72.0273C516.567 71.8147 516.461 71.5599 516.461 71.263C516.461 70.9661 516.567 70.7113 516.78 70.4987C516.992 70.286 517.247 70.1797 517.544 70.1797C517.841 70.1797 518.096 70.286 518.308 70.4987C518.521 70.7113 518.627 70.9661 518.627 71.263C518.627 71.4596 518.577 71.6401 518.477 71.8046C518.38 71.9691 518.25 72.1015 518.086 72.2018C517.925 72.2981 517.744 72.3463 517.544 72.3463ZM519.846 77.6303V76.4026L525.263 67.8326H526.153V69.7344H525.551L521.459 76.21V76.3063H528.753V77.6303H519.846ZM525.648 80.158V77.2572V76.6854V67.8326H527.068V80.158H525.648ZM529.703 77.6303V76.4026L535.119 67.8326H536.01V69.7344H535.408L531.316 76.21V76.3063H538.61V77.6303H529.703ZM535.504 80.158V77.2572V76.6854V67.8326H536.925V80.158H535.504Z" fill="#707E8D" style="fill:#707E8D;fill:color(display-p3 0.4392 0.4941 0.5529);fill-opacity:1;"/>
<defs>
<linearGradient id="paint0_linear_1259_47330" x1="21.7895" y1="46.6316" x2="21.7895" y2="90.2105" gradientUnits="userSpaceOnUse">
<stop stop-color="#EB8DAA" style="stop-color:#EB8DAA;stop-color:color(display-p3 0.9216 0.5529 0.6667);stop-opacity:1;"/>
<stop offset="1" stop-color="#CC6179" style="stop-color:#CC6179;stop-color:color(display-p3 0.8000 0.3804 0.4745);stop-opacity:1;"/>
</linearGradient>
</defs>
</svg>
