<svg width="552" height="91" viewBox="0 0 552 91" fill="none" xmlns="http://www.w3.org/2000/svg">
<rect y="46.6316" width="43.5789" height="43.5789" rx="21.7895" fill="url(#paint0_linear_1259_47326)" style=""/>
<path d="M16.3622 61.7154H18.7351V70.717H18.8576L25.0671 61.7154H27.2143V74.9211H24.8221V65.926H24.7125L18.4836 74.9211H16.3622V61.7154Z" fill="white" style="fill:white;fill-opacity:1;"/>
<path d="M56.8947 90.2106V75.6843C56.8947 82.3831 52.3604 88.0229 46.1935 89.7018C46.08 89.7326 46 89.8352 46 89.9528C46 90.0952 46.1154 90.2106 46.2578 90.2106H56.8947Z" fill="#1B2532" style="fill:#1B2532;fill:color(display-p3 0.1059 0.1451 0.1961);fill-opacity:1;"/>
<path d="M56.8945 34.8632C56.8945 22.6599 56.8945 16.5583 59.2694 11.8973C61.3585 7.79731 64.6918 4.46394 68.7918 2.37491C73.4528 0 79.5544 0 91.7577 0H517.137C529.34 0 535.442 0 540.103 2.37491C544.203 4.46394 547.536 7.79731 549.625 11.8973C552 16.5583 552 22.6599 552 34.8632V55.3474C552 67.5506 552 73.6522 549.625 78.3133C547.536 82.4132 544.203 85.7466 540.103 87.8356C535.442 90.2105 529.34 90.2105 517.137 90.2105H56.8945V34.8632Z" fill="#1B2532" style="fill:#1B2532;fill:color(display-p3 0.1059 0.1451 0.1961);fill-opacity:1;"/>
<path d="M72.6366 15.7799H74.8513V24.1813H74.9656L80.7612 15.7799H82.7653V28.1052H80.5325V19.7098H80.4302L74.6166 28.1052H72.6366V15.7799ZM84.9324 28.1052V18.8612H88.8142C89.9095 18.8612 90.7741 19.0799 91.408 19.5172C92.046 19.9545 92.3649 20.5644 92.3649 21.3467C92.3649 21.8643 92.1844 22.2876 91.8233 22.6166C91.4662 22.9416 90.9787 23.1602 90.3608 23.2726C90.8463 23.3127 91.2716 23.4351 91.6367 23.6397C92.0058 23.8443 92.2947 24.1131 92.5033 24.4461C92.712 24.7791 92.8163 25.1623 92.8163 25.5956C92.8163 26.1052 92.6819 26.5485 92.4131 26.9256C92.1483 27.2988 91.7611 27.5897 91.2515 27.7983C90.746 28.0029 90.1322 28.1052 89.41 28.1052H84.9324ZM86.9726 26.39H89.41C89.8112 26.39 90.1261 26.2957 90.3548 26.1072C90.5835 25.9146 90.6979 25.6538 90.6979 25.3248C90.6979 24.9436 90.5835 24.6447 90.3548 24.4281C90.1261 24.2074 89.8112 24.0971 89.41 24.0971H86.9726V26.39ZM86.9726 22.6888H88.8563C89.1532 22.6888 89.408 22.6467 89.6206 22.5624C89.8332 22.4742 89.9957 22.3518 90.1081 22.1953C90.2204 22.0348 90.2766 21.8442 90.2766 21.6236C90.2766 21.3066 90.1462 21.0579 89.8854 20.8773C89.6286 20.6968 89.2715 20.6065 88.8142 20.6065H86.9726V22.6888ZM97.1048 28.2918C96.5191 28.2918 95.9915 28.1875 95.522 27.9788C95.0566 27.7662 94.6875 27.4532 94.4147 27.04C94.1459 26.6267 94.0115 26.1172 94.0115 25.5114C94.0115 24.9898 94.1077 24.5585 94.3003 24.2174C94.4929 23.8764 94.7557 23.6036 95.0887 23.399C95.4217 23.1943 95.7969 23.0399 96.2141 22.9356C96.6354 22.8272 97.0707 22.749 97.5201 22.7008C98.0617 22.6447 98.5011 22.5945 98.8381 22.5504C99.1751 22.5022 99.4198 22.43 99.5723 22.3337C99.7288 22.2334 99.807 22.079 99.807 21.8703V21.8342C99.807 21.3808 99.6726 21.0298 99.4038 20.781C99.135 20.5323 98.7478 20.4079 98.2423 20.4079C97.7087 20.4079 97.2854 20.5242 96.9724 20.757C96.6635 20.9897 96.4549 21.2645 96.3465 21.5815L94.3124 21.2926C94.4729 20.7309 94.7377 20.2614 95.1068 19.8843C95.4759 19.5032 95.9273 19.2183 96.4609 19.0297C96.9945 18.8371 97.5843 18.7408 98.2302 18.7408C98.6756 18.7408 99.1189 18.793 99.5603 18.8973C100.002 19.0016 100.405 19.1742 100.77 19.4149C101.135 19.6516 101.428 19.9746 101.649 20.3838C101.873 20.7931 101.986 21.3046 101.986 21.9185V28.1052H99.8913V26.8354H99.8191C99.6867 27.0922 99.5001 27.3329 99.2594 27.5576C99.0226 27.7782 98.7237 27.9568 98.3626 28.0932C98.0056 28.2256 97.5863 28.2918 97.1048 28.2918ZM97.6705 26.6909C98.1079 26.6909 98.487 26.6047 98.808 26.4322C99.129 26.2556 99.3757 26.0229 99.5482 25.734C99.7248 25.4452 99.813 25.1302 99.813 24.7892V23.6999C99.7448 23.756 99.6285 23.8082 99.464 23.8563C99.3035 23.9045 99.1229 23.9466 98.9223 23.9827C98.7217 24.0188 98.5231 24.0509 98.3265 24.079C98.1299 24.1071 97.9594 24.1312 97.815 24.1512C97.49 24.1954 97.1991 24.2676 96.9423 24.3679C96.6856 24.4682 96.4829 24.6086 96.3345 24.7892C96.186 24.9657 96.1118 25.1944 96.1118 25.4753C96.1118 25.8765 96.2583 26.1794 96.5512 26.384C96.844 26.5886 97.2172 26.6909 97.6705 26.6909ZM110.356 22.5805V24.3679H105.433V22.5805H110.356ZM106.107 18.8612V28.1052H104.007V18.8612H106.107ZM111.782 18.8612V28.1052H109.688V18.8612H111.782ZM117.849 28.2858C116.947 28.2858 116.164 28.0872 115.502 27.69C114.84 27.2928 114.327 26.7371 113.962 26.0229C113.6 25.3087 113.42 24.4742 113.42 23.5193C113.42 22.5644 113.6 21.7279 113.962 21.0097C114.327 20.2915 114.84 19.7339 115.502 19.3366C116.164 18.9394 116.947 18.7408 117.849 18.7408C118.752 18.7408 119.534 18.9394 120.196 19.3366C120.858 19.7339 121.37 20.2915 121.731 21.0097C122.096 21.7279 122.279 22.5644 122.279 23.5193C122.279 24.4742 122.096 25.3087 121.731 26.0229C121.37 26.7371 120.858 27.2928 120.196 27.69C119.534 28.0872 118.752 28.2858 117.849 28.2858ZM117.861 26.5405C118.351 26.5405 118.76 26.4061 119.089 26.1373C119.418 25.8644 119.663 25.4993 119.823 25.0419C119.988 24.5846 120.07 24.075 120.07 23.5133C120.07 22.9476 119.988 22.436 119.823 21.9787C119.663 21.5173 119.418 21.1501 119.089 20.8773C118.76 20.6045 118.351 20.4681 117.861 20.4681C117.36 20.4681 116.943 20.6045 116.61 20.8773C116.281 21.1501 116.034 21.5173 115.869 21.9787C115.709 22.436 115.629 22.9476 115.629 23.5133C115.629 24.075 115.709 24.5846 115.869 25.0419C116.034 25.4993 116.281 25.8644 116.61 26.1373C116.943 26.4061 117.36 26.5405 117.861 26.5405ZM123.958 28.1052V18.8612H127.84C128.935 18.8612 129.8 19.0799 130.434 19.5172C131.072 19.9545 131.391 20.5644 131.391 21.3467C131.391 21.8643 131.21 22.2876 130.849 22.6166C130.492 22.9416 130.005 23.1602 129.387 23.2726C129.872 23.3127 130.298 23.4351 130.663 23.6397C131.032 23.8443 131.321 24.1131 131.529 24.4461C131.738 24.7791 131.842 25.1623 131.842 25.5956C131.842 26.1052 131.708 26.5485 131.439 26.9256C131.174 27.2988 130.787 27.5897 130.277 27.7983C129.772 28.0029 129.158 28.1052 128.436 28.1052H123.958ZM125.999 26.39H128.436C128.837 26.39 129.152 26.2957 129.381 26.1072C129.609 25.9146 129.724 25.6538 129.724 25.3248C129.724 24.9436 129.609 24.6447 129.381 24.4281C129.152 24.2074 128.837 24.0971 128.436 24.0971H125.999V26.39ZM125.999 22.6888H127.882C128.179 22.6888 128.434 22.6467 128.647 22.5624C128.859 22.4742 129.022 22.3518 129.134 22.1953C129.246 22.0348 129.303 21.8442 129.303 21.6236C129.303 21.3066 129.172 21.0579 128.911 20.8773C128.655 20.6968 128.297 20.6065 127.84 20.6065H125.999V22.6888ZM136.801 31.0782V26.2817H137.625C137.902 26.061 138.161 25.7501 138.402 25.3489C138.642 24.9477 138.847 24.398 139.016 23.6999C139.184 23.0018 139.3 22.099 139.365 20.9917L139.69 15.7799H147.567V26.2817H148.94V31.0662H146.797V28.1052H138.943V31.0782H136.801ZM140.225 26.2817H145.425V17.6515H141.7L141.507 20.9917C141.455 21.8302 141.371 22.5805 141.254 23.2425C141.138 23.9045 140.992 24.4883 140.815 24.9938C140.638 25.4953 140.442 25.9246 140.225 26.2817ZM151.835 28.2376C151.47 28.2376 151.157 28.1092 150.896 27.8525C150.635 27.5957 150.507 27.2827 150.511 26.9136C150.507 26.5525 150.635 26.2436 150.896 25.9868C151.157 25.73 151.47 25.6016 151.835 25.6016C152.188 25.6016 152.495 25.73 152.756 25.9868C153.021 26.2436 153.155 26.5525 153.159 26.9136C153.155 27.1584 153.091 27.381 152.966 27.5816C152.846 27.7822 152.686 27.9427 152.485 28.0631C152.288 28.1794 152.072 28.2376 151.835 28.2376ZM165.885 19.9385H163.634C163.57 19.5694 163.452 19.2424 163.279 18.9575C163.107 18.6686 162.892 18.4239 162.635 18.2233C162.378 18.0227 162.086 17.8722 161.757 17.7719C161.432 17.6676 161.081 17.6154 160.703 17.6154C160.033 17.6154 159.44 17.7839 158.922 18.121C158.404 18.454 157.999 18.9435 157.706 19.5894C157.413 20.2314 157.267 21.0157 157.267 21.9425C157.267 22.8854 157.413 23.6798 157.706 24.3258C158.003 24.9677 158.408 25.4532 158.922 25.7822C159.44 26.1072 160.031 26.2697 160.697 26.2697C161.066 26.2697 161.412 26.2215 161.732 26.1252C162.057 26.0249 162.348 25.8785 162.605 25.6859C162.866 25.4933 163.085 25.2566 163.261 24.9757C163.442 24.6949 163.566 24.3739 163.634 24.0128L165.885 24.0249C165.801 24.6106 165.618 25.1603 165.337 25.6739C165.061 26.1874 164.697 26.6408 164.248 27.034C163.799 27.4232 163.273 27.7281 162.671 27.9488C162.07 28.1654 161.401 28.2737 160.667 28.2737C159.584 28.2737 158.617 28.023 157.766 27.5215C156.916 27.0199 156.246 26.2957 155.756 25.3489C155.267 24.402 155.022 23.2666 155.022 21.9425C155.022 20.6145 155.269 19.4791 155.762 18.5362C156.256 17.5894 156.928 16.8652 157.779 16.3636C158.629 15.8621 159.592 15.6114 160.667 15.6114C161.353 15.6114 161.991 15.7076 162.581 15.9002C163.171 16.0928 163.696 16.3757 164.158 16.7488C164.619 17.1179 164.998 17.5713 165.295 18.1089C165.596 18.6425 165.793 19.2524 165.885 19.9385ZM169.006 28.2376C168.641 28.2376 168.328 28.1092 168.067 27.8525C167.806 27.5957 167.678 27.2827 167.682 26.9136C167.678 26.5525 167.806 26.2436 168.067 25.9868C168.328 25.73 168.641 25.6016 169.006 25.6016C169.359 25.6016 169.666 25.73 169.927 25.9868C170.192 26.2436 170.326 26.5525 170.33 26.9136C170.326 27.1584 170.262 27.381 170.138 27.5816C170.017 27.7822 169.857 27.9427 169.656 28.0631C169.459 28.1794 169.243 28.2376 169.006 28.2376Z" fill="#AE8DEC" style="fill:#AE8DEC;fill:color(display-p3 0.6824 0.5529 0.9255);fill-opacity:1;"/>
<path d="M78.9076 44.8332V46.1573H73.8041V44.8332H78.9076ZM74.1411 40.8612V50.1052H72.7208V40.8612H74.1411ZM79.9909 40.8612V50.1052H78.5706V40.8612H79.9909ZM86.0012 50.2978C85.1666 50.2978 84.4344 50.0992 83.8045 49.702C83.1786 49.3048 82.6891 48.7491 82.3361 48.0349C81.987 47.3208 81.8125 46.4863 81.8125 45.5314C81.8125 44.5684 81.987 43.7279 82.3361 43.0097C82.6891 42.2915 83.1786 41.7339 83.8045 41.3366C84.4344 40.9394 85.1666 40.7408 86.0012 40.7408C86.8357 40.7408 87.5659 40.9394 88.1918 41.3366C88.8217 41.7339 89.3112 42.2915 89.6603 43.0097C90.0133 43.7279 90.1899 44.5684 90.1899 45.5314C90.1899 46.4863 90.0133 47.3208 89.6603 48.0349C89.3112 48.7491 88.8217 49.3048 88.1918 49.702C87.5659 50.0992 86.8357 50.2978 86.0012 50.2978ZM86.0012 49.0219C86.6351 49.0219 87.1567 48.8594 87.5659 48.5345C87.9752 48.2095 88.2781 47.7822 88.4747 47.2526C88.6713 46.723 88.7696 46.1492 88.7696 45.5314C88.7696 44.9135 88.6713 44.3377 88.4747 43.8041C88.2781 43.2705 87.9752 42.8392 87.5659 42.5102C87.1567 42.1812 86.6351 42.0167 86.0012 42.0167C85.3673 42.0167 84.8457 42.1812 84.4364 42.5102C84.0272 42.8392 83.7243 43.2705 83.5277 43.8041C83.3311 44.3377 83.2328 44.9135 83.2328 45.5314C83.2328 46.1492 83.3311 46.723 83.5277 47.2526C83.7243 47.7822 84.0272 48.2095 84.4364 48.5345C84.8457 48.8594 85.3673 49.0219 86.0012 49.0219ZM92.019 50.1052V40.8612H95.7984C96.7935 40.8612 97.5839 41.0859 98.1696 41.5352C98.7554 41.9846 99.0483 42.5784 99.0483 43.3166C99.0483 43.8784 98.8818 44.3137 98.5488 44.6226C98.2158 44.9275 97.7885 45.1342 97.2669 45.2425C97.6079 45.2906 97.9389 45.411 98.2599 45.6036C98.5849 45.7962 98.8537 46.061 99.0664 46.398C99.279 46.731 99.3853 47.1402 99.3853 47.6257C99.3853 48.0991 99.265 48.5224 99.0242 48.8956C98.7835 49.2687 98.4384 49.5636 97.9891 49.7802C97.5397 49.9969 97.0021 50.1052 96.3762 50.1052H92.019ZM93.3671 48.8053H96.3762C96.8657 48.8053 97.2488 48.6889 97.5257 48.4562C97.8025 48.2235 97.9409 47.9066 97.9409 47.5053C97.9409 47.0279 97.8025 46.6528 97.5257 46.3799C97.2488 46.1031 96.8657 45.9647 96.3762 45.9647H93.3671V48.8053ZM93.3671 44.737H95.7984C96.1796 44.737 96.5066 44.6848 96.7794 44.5805C97.0522 44.4722 97.2609 44.3197 97.4053 44.1231C97.5538 43.9225 97.628 43.6858 97.628 43.4129C97.628 43.0238 97.4655 42.7188 97.1405 42.4982C96.8155 42.2735 96.3682 42.1611 95.7984 42.1611H93.3671V44.737ZM103.917 50.3219C103.331 50.3219 102.799 50.2115 102.322 49.9909C101.844 49.7662 101.465 49.4432 101.184 49.0219C100.904 48.5967 100.763 48.0831 100.763 47.4813C100.763 46.9517 100.867 46.5224 101.076 46.1934C101.285 45.8604 101.564 45.5996 101.913 45.411C102.262 45.2224 102.647 45.082 103.068 44.9897C103.493 44.8934 103.921 44.8172 104.35 44.761C104.912 44.6888 105.367 44.6346 105.716 44.5985C106.069 44.5584 106.326 44.4922 106.486 44.3999C106.651 44.3077 106.733 44.1472 106.733 43.9185V43.8703C106.733 43.2765 106.571 42.8151 106.246 42.4861C105.925 42.1571 105.437 41.9926 104.783 41.9926C104.105 41.9926 103.574 42.1411 103.188 42.438C102.803 42.7349 102.532 43.0518 102.376 43.3889L101.028 42.9074C101.269 42.3457 101.59 41.9084 101.991 41.5954C102.396 41.2785 102.837 41.0578 103.315 40.9334C103.796 40.805 104.27 40.7408 104.735 40.7408C105.032 40.7408 105.373 40.7769 105.758 40.8492C106.147 40.9174 106.523 41.0598 106.884 41.2765C107.249 41.4931 107.552 41.8201 107.792 42.2574C108.033 42.6948 108.153 43.2805 108.153 44.0148V50.1052H106.733V48.8534H106.661C106.565 49.054 106.404 49.2687 106.179 49.4974C105.955 49.7261 105.656 49.9207 105.283 50.0812C104.91 50.2416 104.454 50.3219 103.917 50.3219ZM104.133 49.046C104.695 49.046 105.168 48.9357 105.554 48.715C105.943 48.4943 106.236 48.2095 106.432 47.8604C106.633 47.5114 106.733 47.1442 106.733 46.7591V45.4591C106.673 45.5314 106.541 45.5976 106.336 45.6577C106.135 45.7139 105.903 45.7641 105.638 45.8082C105.377 45.8483 105.122 45.8844 104.874 45.9165C104.629 45.9446 104.43 45.9687 104.278 45.9887C103.909 46.0369 103.564 46.1151 103.243 46.2235C102.926 46.3278 102.669 46.4863 102.472 46.6989C102.28 46.9075 102.183 47.1924 102.183 47.5535C102.183 48.047 102.366 48.4201 102.731 48.6729C103.1 48.9216 103.568 49.046 104.133 49.046ZM115.968 50.1052V42.1611H113.512C112.959 42.1611 112.523 42.2895 112.206 42.5463C111.889 42.8031 111.731 43.1562 111.731 43.6055C111.731 44.0469 111.873 44.3939 112.158 44.6467C112.447 44.8994 112.842 45.0258 113.344 45.0258H116.329V46.3498H113.344C112.718 46.3498 112.178 46.2395 111.725 46.0188C111.272 45.7982 110.922 45.4832 110.678 45.074C110.433 44.6607 110.311 44.1712 110.311 43.6055C110.311 43.0358 110.439 42.5463 110.696 42.1371C110.953 41.7278 111.32 41.4129 111.797 41.1922C112.279 40.9715 112.85 40.8612 113.512 40.8612H117.316V50.1052H115.968ZM109.805 50.1052L112.429 45.5073H113.97L111.346 50.1052H109.805ZM124.012 50.1052V40.8612H125.432V44.8814H126.371L129.693 40.8612H131.523L127.791 45.3147L131.571 50.1052H129.741L126.708 46.2054H125.432V50.1052H124.012ZM135.496 50.3219C134.91 50.3219 134.378 50.2115 133.901 49.9909C133.423 49.7662 133.044 49.4432 132.763 49.0219C132.483 48.5967 132.342 48.0831 132.342 47.4813C132.342 46.9517 132.446 46.5224 132.655 46.1934C132.864 45.8604 133.143 45.5996 133.492 45.411C133.841 45.2224 134.226 45.082 134.647 44.9897C135.072 44.8934 135.5 44.8172 135.929 44.761C136.491 44.6888 136.946 44.6346 137.295 44.5985C137.648 44.5584 137.905 44.4922 138.065 44.3999C138.23 44.3077 138.312 44.1472 138.312 43.9185V43.8703C138.312 43.2765 138.15 42.8151 137.825 42.4861C137.504 42.1571 137.016 41.9926 136.362 41.9926C135.684 41.9926 135.153 42.1411 134.767 42.438C134.382 42.7349 134.111 43.0518 133.955 43.3889L132.607 42.9074C132.848 42.3457 133.169 41.9084 133.57 41.5954C133.975 41.2785 134.416 41.0578 134.894 40.9334C135.375 40.805 135.849 40.7408 136.314 40.7408C136.611 40.7408 136.952 40.7769 137.337 40.8492C137.726 40.9174 138.102 41.0598 138.463 41.2765C138.828 41.4931 139.131 41.8201 139.371 42.2574C139.612 42.6948 139.733 43.2805 139.733 44.0148V50.1052H138.312V48.8534H138.24C138.144 49.054 137.983 49.2687 137.759 49.4974C137.534 49.7261 137.235 49.9207 136.862 50.0812C136.489 50.2416 136.033 50.3219 135.496 50.3219ZM135.712 49.046C136.274 49.046 136.747 48.9357 137.133 48.715C137.522 48.4943 137.815 48.2095 138.011 47.8604C138.212 47.5114 138.312 47.1442 138.312 46.7591V45.4591C138.252 45.5314 138.12 45.5976 137.915 45.6577C137.714 45.7139 137.482 45.7641 137.217 45.8082C136.956 45.8483 136.701 45.8844 136.453 45.9165C136.208 45.9446 136.009 45.9687 135.857 45.9887C135.488 46.0369 135.143 46.1151 134.822 46.2235C134.505 46.3278 134.248 46.4863 134.051 46.6989C133.859 46.9075 133.762 47.1924 133.762 47.5535C133.762 48.047 133.945 48.4201 134.31 48.6729C134.679 48.9216 135.147 49.046 135.712 49.046ZM141.986 53.5717V40.8612H143.358V42.3297H143.527C143.631 42.1692 143.775 41.9645 143.96 41.7158C144.148 41.463 144.417 41.2383 144.766 41.0418C145.119 40.8411 145.597 40.7408 146.199 40.7408C146.977 40.7408 147.663 40.9354 148.257 41.3246C148.851 41.7138 149.314 42.2655 149.647 42.9796C149.98 43.6938 150.147 44.5363 150.147 45.5073C150.147 46.4863 149.98 47.3348 149.647 48.053C149.314 48.7672 148.853 49.3208 148.263 49.714C147.673 50.1032 146.993 50.2978 146.223 50.2978C145.629 50.2978 145.154 50.1995 144.796 50.0029C144.439 49.8023 144.165 49.5756 143.972 49.3229C143.779 49.0661 143.631 48.8534 143.527 48.6849H143.406V53.5717H141.986ZM143.382 45.4832C143.382 46.1813 143.484 46.7972 143.689 47.3308C143.894 47.8604 144.193 48.2757 144.586 48.5766C144.979 48.8735 145.46 49.0219 146.03 49.0219C146.624 49.0219 147.119 48.8655 147.517 48.5525C147.918 48.2356 148.219 47.8103 148.419 47.2767C148.624 46.739 148.726 46.1412 148.726 45.4832C148.726 44.8332 148.626 44.2475 148.425 43.7259C148.229 43.2003 147.93 42.785 147.529 42.4801C147.132 42.1712 146.632 42.0167 146.03 42.0167C145.452 42.0167 144.967 42.1632 144.574 42.456C144.181 42.7449 143.884 43.1501 143.683 43.6717C143.482 44.1893 143.382 44.7931 143.382 45.4832ZM150.766 42.1852V40.8612H158.277V42.1852H155.244V50.1052H153.823V42.1852H150.766ZM162.25 50.3219C161.664 50.3219 161.133 50.2115 160.655 49.9909C160.178 49.7662 159.799 49.4432 159.518 49.0219C159.237 48.5967 159.096 48.0831 159.096 47.4813C159.096 46.9517 159.201 46.5224 159.409 46.1934C159.618 45.8604 159.897 45.5996 160.246 45.411C160.595 45.2224 160.98 45.082 161.401 44.9897C161.827 44.8934 162.254 44.8172 162.683 44.761C163.245 44.6888 163.7 44.6346 164.049 44.5985C164.403 44.5584 164.659 44.4922 164.82 44.3999C164.984 44.3077 165.067 44.1472 165.067 43.9185V43.8703C165.067 43.2765 164.904 42.8151 164.579 42.4861C164.258 42.1571 163.771 41.9926 163.117 41.9926C162.439 41.9926 161.907 42.1411 161.522 42.438C161.137 42.7349 160.866 43.0518 160.709 43.3889L159.361 42.9074C159.602 42.3457 159.923 41.9084 160.324 41.5954C160.729 41.2785 161.171 41.0578 161.648 40.9334C162.13 40.805 162.603 40.7408 163.068 40.7408C163.365 40.7408 163.706 40.7769 164.092 40.8492C164.481 40.9174 164.856 41.0598 165.217 41.2765C165.582 41.4931 165.885 41.8201 166.126 42.2574C166.366 42.6948 166.487 43.2805 166.487 44.0148V50.1052H165.067V48.8534H164.994C164.898 49.054 164.738 49.2687 164.513 49.4974C164.288 49.7261 163.989 49.9207 163.616 50.0812C163.243 50.2416 162.788 50.3219 162.25 50.3219ZM162.467 49.046C163.028 49.046 163.502 48.9357 163.887 48.715C164.276 48.4943 164.569 48.2095 164.766 47.8604C164.966 47.5114 165.067 47.1442 165.067 46.7591V45.4591C165.006 45.5314 164.874 45.5976 164.669 45.6577C164.469 45.7139 164.236 45.7641 163.971 45.8082C163.71 45.8483 163.456 45.8844 163.207 45.9165C162.962 45.9446 162.764 45.9687 162.611 45.9887C162.242 46.0369 161.897 46.1151 161.576 46.2235C161.259 46.3278 161.002 46.4863 160.806 46.6989C160.613 46.9075 160.517 47.1924 160.517 47.5535C160.517 48.047 160.699 48.4201 161.064 48.6729C161.434 48.9216 161.901 49.046 162.467 49.046ZM173.168 50.1052V40.8612H180.438V50.1052H179.017V42.1852H174.588V50.1052H173.168ZM186.448 50.2978C185.614 50.2978 184.881 50.0992 184.251 49.702C183.626 49.3048 183.136 48.7491 182.783 48.0349C182.434 47.3208 182.259 46.4863 182.259 45.5314C182.259 44.5684 182.434 43.7279 182.783 43.0097C183.136 42.2915 183.626 41.7339 184.251 41.3366C184.881 40.9394 185.614 40.7408 186.448 40.7408C187.283 40.7408 188.013 40.9394 188.639 41.3366C189.269 41.7339 189.758 42.2915 190.107 43.0097C190.46 43.7279 190.637 44.5684 190.637 45.5314C190.637 46.4863 190.46 47.3208 190.107 48.0349C189.758 48.7491 189.269 49.3048 188.639 49.702C188.013 50.0992 187.283 50.2978 186.448 50.2978ZM186.448 49.0219C187.082 49.0219 187.604 48.8594 188.013 48.5345C188.422 48.2095 188.725 47.7822 188.922 47.2526C189.118 46.723 189.216 46.1492 189.216 45.5314C189.216 44.9135 189.118 44.3377 188.922 43.8041C188.725 43.2705 188.422 42.8392 188.013 42.5102C187.604 42.1812 187.082 42.0167 186.448 42.0167C185.814 42.0167 185.293 42.1812 184.883 42.5102C184.474 42.8392 184.171 43.2705 183.975 43.8041C183.778 44.3377 183.68 44.9135 183.68 45.5314C183.68 46.1492 183.778 46.723 183.975 47.2526C184.171 47.7822 184.474 48.2095 184.883 48.5345C185.293 48.8594 185.814 49.0219 186.448 49.0219ZM192.466 53.5717V40.8612H193.838V42.3297H194.007C194.111 42.1692 194.255 41.9645 194.44 41.7158C194.628 41.463 194.897 41.2383 195.246 41.0418C195.599 40.8411 196.077 40.7408 196.679 40.7408C197.457 40.7408 198.143 40.9354 198.737 41.3246C199.331 41.7138 199.794 42.2655 200.127 42.9796C200.46 43.6938 200.627 44.5363 200.627 45.5073C200.627 46.4863 200.46 47.3348 200.127 48.053C199.794 48.7672 199.333 49.3208 198.743 49.714C198.153 50.1032 197.473 50.2978 196.703 50.2978C196.109 50.2978 195.634 50.1995 195.276 50.0029C194.919 49.8023 194.645 49.5756 194.452 49.3229C194.259 49.0661 194.111 48.8534 194.007 48.6849H193.886V53.5717H192.466ZM193.862 45.4832C193.862 46.1813 193.964 46.7972 194.169 47.3308C194.374 47.8604 194.673 48.2757 195.066 48.5766C195.459 48.8735 195.94 49.0219 196.51 49.0219C197.104 49.0219 197.599 48.8655 197.997 48.5525C198.398 48.2356 198.699 47.8103 198.899 47.2767C199.104 46.739 199.206 46.1412 199.206 45.4832C199.206 44.8332 199.106 44.2475 198.905 43.7259C198.709 43.2003 198.41 42.785 198.009 42.4801C197.612 42.1712 197.112 42.0167 196.51 42.0167C195.932 42.0167 195.447 42.1632 195.054 42.456C194.661 42.7449 194.364 43.1501 194.163 43.6717C193.962 44.1893 193.862 44.7931 193.862 45.4832ZM201.246 42.1852V40.8612H208.757V42.1852H205.724V50.1052H204.303V42.1852H201.246ZM213.765 50.2978C212.931 50.2978 212.198 50.0992 211.568 49.702C210.943 49.3048 210.453 48.7491 210.1 48.0349C209.751 47.3208 209.576 46.4863 209.576 45.5314C209.576 44.5684 209.751 43.7279 210.1 43.0097C210.453 42.2915 210.943 41.7339 211.568 41.3366C212.198 40.9394 212.931 40.7408 213.765 40.7408C214.6 40.7408 215.33 40.9394 215.956 41.3366C216.586 41.7339 217.075 42.2915 217.424 43.0097C217.777 43.7279 217.954 44.5684 217.954 45.5314C217.954 46.4863 217.777 47.3208 217.424 48.0349C217.075 48.7491 216.586 49.3048 215.956 49.702C215.33 50.0992 214.6 50.2978 213.765 50.2978ZM213.765 49.0219C214.399 49.0219 214.921 48.8594 215.33 48.5345C215.739 48.2095 216.042 47.7822 216.239 47.2526C216.435 46.723 216.534 46.1492 216.534 45.5314C216.534 44.9135 216.435 44.3377 216.239 43.8041C216.042 43.2705 215.739 42.8392 215.33 42.5102C214.921 42.1812 214.399 42.0167 213.765 42.0167C213.131 42.0167 212.61 42.1812 212.2 42.5102C211.791 42.8392 211.488 43.2705 211.292 43.8041C211.095 44.3377 210.997 44.9135 210.997 45.5314C210.997 46.1492 211.095 46.723 211.292 47.2526C211.488 47.7822 211.791 48.2095 212.2 48.5345C212.61 48.8594 213.131 49.0219 213.765 49.0219ZM219.783 50.1052V40.8612H223.562C224.557 40.8612 225.348 41.0859 225.934 41.5352C226.519 41.9846 226.812 42.5784 226.812 43.3166C226.812 43.8784 226.646 44.3137 226.313 44.6226C225.98 44.9275 225.552 45.1342 225.031 45.2425C225.372 45.2906 225.703 45.411 226.024 45.6036C226.349 45.7962 226.618 46.061 226.83 46.398C227.043 46.731 227.149 47.1402 227.149 47.6257C227.149 48.0991 227.029 48.5224 226.788 48.8956C226.547 49.2687 226.202 49.5636 225.753 49.7802C225.304 49.9969 224.766 50.1052 224.14 50.1052H219.783ZM221.131 48.8053H224.14C224.63 48.8053 225.013 48.6889 225.29 48.4562C225.566 48.2235 225.705 47.9066 225.705 47.5053C225.705 47.0279 225.566 46.6528 225.29 46.3799C225.013 46.1031 224.63 45.9647 224.14 45.9647H221.131V48.8053ZM221.131 44.737H223.562C223.944 44.737 224.271 44.6848 224.543 44.5805C224.816 44.4722 225.025 44.3197 225.169 44.1231C225.318 43.9225 225.392 43.6858 225.392 43.4129C225.392 43.0238 225.229 42.7188 224.904 42.4982C224.579 42.2735 224.132 42.1611 223.562 42.1611H221.131V44.737ZM233.388 50.1052V40.8612H237.167C238.162 40.8612 238.953 41.0859 239.538 41.5352C240.124 41.9846 240.417 42.5784 240.417 43.3166C240.417 43.8784 240.251 44.3137 239.918 44.6226C239.585 44.9275 239.157 45.1342 238.636 45.2425C238.977 45.2906 239.308 45.411 239.629 45.6036C239.954 45.7962 240.223 46.061 240.435 46.398C240.648 46.731 240.754 47.1402 240.754 47.6257C240.754 48.0991 240.634 48.5224 240.393 48.8956C240.152 49.2687 239.807 49.5636 239.358 49.7802C238.909 49.9969 238.371 50.1052 237.745 50.1052H233.388ZM234.736 48.8053H237.745C238.235 48.8053 238.618 48.6889 238.895 48.4562C239.171 48.2235 239.31 47.9066 239.31 47.5053C239.31 47.0279 239.171 46.6528 238.895 46.3799C238.618 46.1031 238.235 45.9647 237.745 45.9647H234.736V48.8053ZM234.736 44.737H237.167C237.548 44.737 237.875 44.6848 238.148 44.5805C238.421 44.4722 238.63 44.3197 238.774 44.1231C238.923 43.9225 238.997 43.6858 238.997 43.4129C238.997 43.0238 238.834 42.7188 238.509 42.4982C238.184 42.2735 237.737 42.1611 237.167 42.1611H234.736V44.737ZM246.321 50.2978C245.486 50.2978 244.754 50.0992 244.124 49.702C243.498 49.3048 243.009 48.7491 242.656 48.0349C242.306 47.3208 242.132 46.4863 242.132 45.5314C242.132 44.5684 242.306 43.7279 242.656 43.0097C243.009 42.2915 243.498 41.7339 244.124 41.3366C244.754 40.9394 245.486 40.7408 246.321 40.7408C247.155 40.7408 247.885 40.9394 248.511 41.3366C249.141 41.7339 249.631 42.2915 249.98 43.0097C250.333 43.7279 250.509 44.5684 250.509 45.5314C250.509 46.4863 250.333 47.3208 249.98 48.0349C249.631 48.7491 249.141 49.3048 248.511 49.702C247.885 50.0992 247.155 50.2978 246.321 50.2978ZM246.321 49.0219C246.955 49.0219 247.476 48.8594 247.885 48.5345C248.295 48.2095 248.598 47.7822 248.794 47.2526C248.991 46.723 249.089 46.1492 249.089 45.5314C249.089 44.9135 248.991 44.3377 248.794 43.8041C248.598 43.2705 248.295 42.8392 247.885 42.5102C247.476 42.1812 246.955 42.0167 246.321 42.0167C245.687 42.0167 245.165 42.1812 244.756 42.5102C244.347 42.8392 244.044 43.2705 243.847 43.8041C243.651 44.3377 243.552 44.9135 243.552 45.5314C243.552 46.1492 243.651 46.723 243.847 47.2526C244.044 47.7822 244.347 48.2095 244.756 48.5345C245.165 48.8594 245.687 49.0219 246.321 49.0219ZM256.094 50.2978C255.259 50.2978 254.527 50.0992 253.897 49.702C253.271 49.3048 252.782 48.7491 252.429 48.0349C252.08 47.3208 251.905 46.4863 251.905 45.5314C251.905 44.5684 252.08 43.7279 252.429 43.0097C252.782 42.2915 253.271 41.7339 253.897 41.3366C254.527 40.9394 255.259 40.7408 256.094 40.7408C256.928 40.7408 257.659 40.9394 258.284 41.3366C258.914 41.7339 259.404 42.2915 259.753 43.0097C260.106 43.7279 260.283 44.5684 260.283 45.5314C260.283 46.4863 260.106 47.3208 259.753 48.0349C259.404 48.7491 258.914 49.3048 258.284 49.702C257.659 50.0992 256.928 50.2978 256.094 50.2978ZM256.094 49.0219C256.728 49.0219 257.249 48.8594 257.659 48.5345C258.068 48.2095 258.371 47.7822 258.567 47.2526C258.764 46.723 258.862 46.1492 258.862 45.5314C258.862 44.9135 258.764 44.3377 258.567 43.8041C258.371 43.2705 258.068 42.8392 257.659 42.5102C257.249 42.1812 256.728 42.0167 256.094 42.0167C255.46 42.0167 254.938 42.1812 254.529 42.5102C254.12 42.8392 253.817 43.2705 253.62 43.8041C253.424 44.3377 253.325 44.9135 253.325 45.5314C253.325 46.1492 253.424 46.723 253.62 47.2526C253.817 47.7822 254.12 48.2095 254.529 48.5345C254.938 48.8594 255.46 49.0219 256.094 49.0219ZM268.972 37.3947L269.695 38.2613C269.414 38.5342 269.089 38.7247 268.72 38.8331C268.351 38.9414 267.933 39.0076 267.468 39.0317C267.002 39.0557 266.485 39.0798 265.915 39.1039C265.273 39.128 264.742 39.2844 264.32 39.5733C263.899 39.8622 263.574 40.2794 263.345 40.8251C263.117 41.3707 262.97 42.0408 262.906 42.8352H263.026C263.339 42.2574 263.773 41.8321 264.326 41.5593C264.88 41.2865 265.474 41.1501 266.108 41.1501C266.83 41.1501 267.48 41.3186 268.058 41.6556C268.635 41.9926 269.093 42.4921 269.43 43.1542C269.767 43.8162 269.935 44.6326 269.935 45.6036C269.935 46.5705 269.763 47.405 269.418 48.1072C269.077 48.8093 268.597 49.3509 267.979 49.7321C267.366 50.1092 266.645 50.2978 265.819 50.2978C264.992 50.2978 264.268 50.1032 263.646 49.714C263.024 49.3208 262.541 48.7391 262.196 47.9687C261.851 47.1944 261.678 46.2375 261.678 45.098V44.1111C261.678 42.0528 262.027 40.4921 262.726 39.4289C263.428 38.3656 264.483 37.816 265.891 37.7799C266.389 37.7638 266.832 37.7598 267.221 37.7678C267.61 37.7759 267.949 37.7578 268.238 37.7137C268.527 37.6695 268.772 37.5632 268.972 37.3947ZM265.819 49.0219C266.377 49.0219 266.856 48.8815 267.257 48.6007C267.662 48.3198 267.973 47.9246 268.19 47.4151C268.407 46.9015 268.515 46.2977 268.515 45.6036C268.515 44.9295 268.405 44.3558 268.184 43.8824C267.967 43.4089 267.656 43.0478 267.251 42.7991C266.846 42.5503 266.361 42.4259 265.795 42.4259C265.382 42.4259 265.01 42.4962 264.681 42.6366C264.352 42.777 264.072 42.9836 263.839 43.2565C263.606 43.5293 263.426 43.8623 263.297 44.2555C263.173 44.6487 263.107 45.098 263.099 45.6036C263.099 46.6387 263.341 47.4672 263.827 48.0891C264.312 48.711 264.976 49.0219 265.819 49.0219ZM284.383 48.7812L284.215 52.7533H282.746V50.1052H281.543V48.7812H284.383ZM271.769 40.8612H273.189V48.7812H276.68V40.8612H278.1V48.7812H281.591V40.8612H283.011V50.1052H271.769V40.8612ZM289.887 50.2978C288.996 50.2978 288.227 50.1012 287.582 49.708C286.94 49.3108 286.444 48.7571 286.095 48.047C285.75 47.3328 285.577 46.5023 285.577 45.5554C285.577 44.6086 285.75 43.774 286.095 43.0518C286.444 42.3256 286.93 41.7599 287.551 41.3547C288.177 40.9455 288.908 40.7408 289.742 40.7408C290.224 40.7408 290.699 40.8211 291.168 40.9816C291.638 41.1421 292.065 41.4028 292.45 41.7639C292.835 42.121 293.142 42.5945 293.371 43.1842C293.6 43.774 293.714 44.5002 293.714 45.3628V45.9647H286.589V44.737H292.27C292.27 44.2154 292.165 43.75 291.957 43.3407C291.752 42.9315 291.459 42.6085 291.078 42.3718C290.701 42.1351 290.256 42.0167 289.742 42.0167C289.176 42.0167 288.687 42.1571 288.274 42.438C287.864 42.7148 287.549 43.0759 287.329 43.5213C287.108 43.9666 286.998 44.4441 286.998 44.9536V45.7721C286.998 46.4702 287.118 47.062 287.359 47.5475C287.604 48.0289 287.943 48.396 288.376 48.6488C288.809 48.8976 289.313 49.0219 289.887 49.0219C290.26 49.0219 290.597 48.9698 290.898 48.8655C291.202 48.7571 291.465 48.5967 291.686 48.384C291.907 48.1674 292.077 47.8985 292.198 47.5776L293.57 47.9627C293.425 48.4281 293.182 48.8374 292.841 49.1905C292.5 49.5395 292.079 49.8123 291.578 50.0089C291.076 50.2015 290.512 50.2978 289.887 50.2978ZM306.15 44.8332V46.1573H301.046V44.8332H306.15ZM301.384 40.8612V50.1052H299.963V40.8612H301.384ZM307.233 40.8612V50.1052H305.813V40.8612H307.233ZM313.364 50.2978C312.473 50.2978 311.705 50.1012 311.059 49.708C310.417 49.3108 309.921 48.7571 309.572 48.047C309.227 47.3328 309.055 46.5023 309.055 45.5554C309.055 44.6086 309.227 43.774 309.572 43.0518C309.921 42.3256 310.407 41.7599 311.029 41.3547C311.655 40.9455 312.385 40.7408 313.219 40.7408C313.701 40.7408 314.176 40.8211 314.646 40.9816C315.115 41.1421 315.543 41.4028 315.928 41.7639C316.313 42.121 316.62 42.5945 316.848 43.1842C317.077 43.774 317.192 44.5002 317.192 45.3628V45.9647H310.066V44.737H315.747C315.747 44.2154 315.643 43.75 315.434 43.3407C315.23 42.9315 314.937 42.6085 314.556 42.3718C314.178 42.1351 313.733 42.0167 313.219 42.0167C312.654 42.0167 312.164 42.1571 311.751 42.438C311.342 42.7148 311.027 43.0759 310.806 43.5213C310.585 43.9666 310.475 44.4441 310.475 44.9536V45.7721C310.475 46.4702 310.596 47.062 310.836 47.5475C311.081 48.0289 311.42 48.396 311.853 48.6488C312.287 48.8976 312.79 49.0219 313.364 49.0219C313.737 49.0219 314.074 48.9698 314.375 48.8655C314.68 48.7571 314.943 48.5967 315.163 48.384C315.384 48.1674 315.555 47.8985 315.675 47.5776L317.047 47.9627C316.903 48.4281 316.66 48.8374 316.319 49.1905C315.978 49.5395 315.557 49.8123 315.055 50.0089C314.554 50.2015 313.99 50.2978 313.364 50.2978ZM319.647 53.5717C319.406 53.5717 319.191 53.5517 319.003 53.5115C318.814 53.4754 318.684 53.4393 318.611 53.4032L318.972 52.1514C319.318 52.2397 319.622 52.2718 319.887 52.2477C320.152 52.2236 320.387 52.1053 320.591 51.8926C320.8 51.684 320.991 51.345 321.163 50.8756L321.428 50.1534L318.01 40.8612H319.55L322.102 48.2275H322.198L324.75 40.8612H326.291L322.367 51.4533C322.19 51.9308 321.972 52.326 321.711 52.6389C321.45 52.9559 321.147 53.1906 320.802 53.343C320.461 53.4955 320.076 53.5717 319.647 53.5717ZM326.062 52.7533V48.7812H326.832C327.02 48.5846 327.183 48.372 327.319 48.1433C327.456 47.9146 327.574 47.6438 327.674 47.3308C327.779 47.0139 327.867 46.6287 327.939 46.1753C328.011 45.7179 328.076 45.1663 328.132 44.5203L328.445 40.8612H334.319V48.7812H335.739V52.7533H334.319V50.1052H327.482V52.7533H326.062ZM328.445 48.7812H332.898V42.1852H329.769L329.528 44.5203C329.428 45.4872 329.303 46.3318 329.155 47.054C329.006 47.7762 328.77 48.3519 328.445 48.7812ZM341.041 50.2978C340.206 50.2978 339.474 50.0992 338.844 49.702C338.218 49.3048 337.728 48.7491 337.375 48.0349C337.026 47.3208 336.852 46.4863 336.852 45.5314C336.852 44.5684 337.026 43.7279 337.375 43.0097C337.728 42.2915 338.218 41.7339 338.844 41.3366C339.474 40.9394 340.206 40.7408 341.041 40.7408C341.875 40.7408 342.605 40.9394 343.231 41.3366C343.861 41.7339 344.351 42.2915 344.7 43.0097C345.053 43.7279 345.229 44.5684 345.229 45.5314C345.229 46.4863 345.053 47.3208 344.7 48.0349C344.351 48.7491 343.861 49.3048 343.231 49.702C342.605 50.0992 341.875 50.2978 341.041 50.2978ZM341.041 49.0219C341.674 49.0219 342.196 48.8594 342.605 48.5345C343.015 48.2095 343.317 47.7822 343.514 47.2526C343.711 46.723 343.809 46.1492 343.809 45.5314C343.809 44.9135 343.711 44.3377 343.514 43.8041C343.317 43.2705 343.015 42.8392 342.605 42.5102C342.196 42.1812 341.674 42.0167 341.041 42.0167C340.407 42.0167 339.885 42.1812 339.476 42.5102C339.067 42.8392 338.764 43.2705 338.567 43.8041C338.37 44.3377 338.272 44.9135 338.272 45.5314C338.272 46.1492 338.37 46.723 338.567 47.2526C338.764 47.7822 339.067 48.2095 339.476 48.5345C339.885 48.8594 340.407 49.0219 341.041 49.0219ZM353.919 37.3947L354.641 38.2613C354.36 38.5342 354.036 38.7247 353.666 38.8331C353.297 38.9414 352.88 39.0076 352.415 39.0317C351.949 39.0557 351.432 39.0798 350.862 39.1039C350.22 39.128 349.688 39.2844 349.267 39.5733C348.846 39.8622 348.521 40.2794 348.292 40.8251C348.063 41.3707 347.917 42.0408 347.853 42.8352H347.973C348.286 42.2574 348.719 41.8321 349.273 41.5593C349.827 41.2865 350.421 41.1501 351.054 41.1501C351.777 41.1501 352.427 41.3186 353.004 41.6556C353.582 41.9926 354.04 42.4921 354.377 43.1542C354.714 43.8162 354.882 44.6326 354.882 45.6036C354.882 46.5705 354.71 47.405 354.365 48.1072C354.023 48.8093 353.544 49.3509 352.926 49.7321C352.312 50.1092 351.592 50.2978 350.766 50.2978C349.939 50.2978 349.215 50.1032 348.593 49.714C347.971 49.3208 347.488 48.7391 347.143 47.9687C346.798 47.1944 346.625 46.2375 346.625 45.098V44.1111C346.625 42.0528 346.974 40.4921 347.672 39.4289C348.374 38.3656 349.43 37.816 350.838 37.7799C351.335 37.7638 351.779 37.7598 352.168 37.7678C352.557 37.7759 352.896 37.7578 353.185 37.7137C353.474 37.6695 353.719 37.5632 353.919 37.3947ZM350.766 49.0219C351.323 49.0219 351.803 48.8815 352.204 48.6007C352.609 48.3198 352.92 47.9246 353.137 47.4151C353.353 46.9015 353.462 46.2977 353.462 45.6036C353.462 44.9295 353.351 44.3558 353.131 43.8824C352.914 43.4089 352.603 43.0478 352.198 42.7991C351.793 42.5503 351.307 42.4259 350.742 42.4259C350.328 42.4259 349.957 42.4962 349.628 42.6366C349.299 42.777 349.018 42.9836 348.786 43.2565C348.553 43.5293 348.372 43.8623 348.244 44.2555C348.12 44.6487 348.053 45.098 348.045 45.6036C348.045 46.6387 348.288 47.4672 348.774 48.0891C349.259 48.711 349.923 49.0219 350.766 49.0219ZM362.902 44.8332V46.1573H357.799V44.8332H362.902ZM358.136 40.8612V50.1052H356.716V40.8612H358.136ZM363.986 40.8612V50.1052H362.565V40.8612H363.986ZM368.961 50.3219C368.375 50.3219 367.844 50.2115 367.366 49.9909C366.889 49.7662 366.509 49.4432 366.229 49.0219C365.948 48.5967 365.807 48.0831 365.807 47.4813C365.807 46.9517 365.912 46.5224 366.12 46.1934C366.329 45.8604 366.608 45.5996 366.957 45.411C367.306 45.2224 367.691 45.082 368.112 44.9897C368.538 44.8934 368.965 44.8172 369.394 44.761C369.956 44.6888 370.411 44.6346 370.76 44.5985C371.113 44.5584 371.37 44.4922 371.531 44.3999C371.695 44.3077 371.777 44.1472 371.777 43.9185V43.8703C371.777 43.2765 371.615 42.8151 371.29 42.4861C370.969 42.1571 370.481 41.9926 369.828 41.9926C369.149 41.9926 368.618 42.1411 368.233 42.438C367.848 42.7349 367.577 43.0518 367.42 43.3889L366.072 42.9074C366.313 42.3457 366.634 41.9084 367.035 41.5954C367.44 41.2785 367.882 41.0578 368.359 40.9334C368.841 40.805 369.314 40.7408 369.779 40.7408C370.076 40.7408 370.417 40.7769 370.802 40.8492C371.192 40.9174 371.567 41.0598 371.928 41.2765C372.293 41.4931 372.596 41.8201 372.837 42.2574C373.077 42.6948 373.198 43.2805 373.198 44.0148V50.1052H371.777V48.8534H371.705C371.609 49.054 371.448 49.2687 371.224 49.4974C370.999 49.7261 370.7 49.9207 370.327 50.0812C369.954 50.2416 369.499 50.3219 368.961 50.3219ZM369.178 49.046C369.739 49.046 370.213 48.9357 370.598 48.715C370.987 48.4943 371.28 48.2095 371.477 47.8604C371.677 47.5114 371.777 47.1442 371.777 46.7591V45.4591C371.717 45.5314 371.585 45.5976 371.38 45.6577C371.18 45.7139 370.947 45.7641 370.682 45.8082C370.421 45.8483 370.167 45.8844 369.918 45.9165C369.673 45.9446 369.474 45.9687 369.322 45.9887C368.953 46.0369 368.608 46.1151 368.287 46.2235C367.97 46.3278 367.713 46.4863 367.517 46.6989C367.324 46.9075 367.228 47.1924 367.228 47.5535C367.228 48.047 367.41 48.4201 367.775 48.6729C368.144 48.9216 368.612 49.046 369.178 49.046ZM381.012 50.1052V42.1611H378.557C378.003 42.1611 377.568 42.2895 377.251 42.5463C376.934 42.8031 376.775 43.1562 376.775 43.6055C376.775 44.0469 376.918 44.3939 377.202 44.6467C377.491 44.8994 377.887 45.0258 378.388 45.0258H381.373V46.3498H378.388C377.762 46.3498 377.223 46.2395 376.769 46.0188C376.316 45.7982 375.967 45.4832 375.722 45.074C375.477 44.6607 375.355 44.1712 375.355 43.6055C375.355 43.0358 375.483 42.5463 375.74 42.1371C375.997 41.7278 376.364 41.4129 376.841 41.1922C377.323 40.9715 377.895 40.8612 378.557 40.8612H382.36V50.1052H381.012ZM374.849 50.1052L377.473 45.5073H379.014L376.39 50.1052H374.849ZM386.747 48.4201L386.651 49.0701C386.582 49.5275 386.478 50.017 386.338 50.5385C386.201 51.0601 386.059 51.5516 385.91 52.013C385.762 52.4744 385.64 52.8415 385.543 53.1143H384.46C384.512 52.8576 384.58 52.5185 384.665 52.0973C384.749 51.676 384.833 51.2046 384.917 50.683C385.006 50.1654 385.078 49.6358 385.134 49.0942L385.206 48.4201H386.747ZM397.222 50.2978C396.356 50.2978 395.609 50.0932 394.984 49.6839C394.358 49.2747 393.876 48.711 393.539 47.9928C393.202 47.2746 393.034 46.4542 393.034 45.5314C393.034 44.5925 393.206 43.764 393.551 43.0458C393.9 42.3236 394.386 41.7599 395.008 41.3547C395.634 40.9455 396.364 40.7408 397.198 40.7408C397.848 40.7408 398.434 40.8612 398.956 41.1019C399.477 41.3427 399.905 41.6797 400.238 42.113C400.571 42.5463 400.777 43.0518 400.857 43.6296H399.437C399.329 43.2083 399.088 42.8352 398.715 42.5102C398.346 42.1812 397.848 42.0167 397.222 42.0167C396.669 42.0167 396.183 42.1611 395.766 42.45C395.353 42.7349 395.03 43.1381 394.797 43.6597C394.568 44.1773 394.454 44.7851 394.454 45.4832C394.454 46.1974 394.566 46.8193 394.791 47.3489C395.02 47.8785 395.341 48.2897 395.754 48.5826C396.171 48.8755 396.661 49.0219 397.222 49.0219C397.591 49.0219 397.927 48.9577 398.227 48.8294C398.528 48.701 398.783 48.5164 398.992 48.2757C399.2 48.0349 399.349 47.7461 399.437 47.4091H400.857C400.777 47.9547 400.579 48.4462 400.262 48.8835C399.949 49.3168 399.533 49.6619 399.016 49.9187C398.502 50.1714 397.904 50.2978 397.222 50.2978ZM401.776 50.1052V48.7812H402.113C402.39 48.7812 402.621 48.727 402.805 48.6187C402.99 48.5064 403.138 48.3118 403.251 48.0349C403.367 47.7541 403.455 47.3649 403.516 46.8674C403.58 46.3659 403.626 45.728 403.654 44.9536L403.822 40.8612H409.985V50.1052H408.565V42.1852H405.171L405.026 45.4832C404.994 46.2415 404.926 46.9095 404.821 47.4873C404.721 48.061 404.567 48.5425 404.358 48.9317C404.153 49.3208 403.881 49.6137 403.54 49.8103C403.199 50.0069 402.771 50.1052 402.258 50.1052H401.776ZM413.672 48.0109L418.126 40.8612H419.763V50.1052H418.343V42.9556L413.913 50.1052H412.252V40.8612H413.672V48.0109ZM422.025 40.8612H423.446V48.7812H426.936V40.8612H428.357V48.7812H431.847V40.8612H433.267V50.1052H422.025V40.8612ZM435.522 50.1052V40.8612H436.943V44.8814H437.881L441.204 40.8612H443.033L439.302 45.3147L443.081 50.1052H441.252L438.218 46.2054H436.943V50.1052H435.522ZM447.661 50.2978C446.826 50.2978 446.094 50.0992 445.464 49.702C444.838 49.3048 444.349 48.7491 443.996 48.0349C443.647 47.3208 443.472 46.4863 443.472 45.5314C443.472 44.5684 443.647 43.7279 443.996 43.0097C444.349 42.2915 444.838 41.7339 445.464 41.3366C446.094 40.9394 446.826 40.7408 447.661 40.7408C448.495 40.7408 449.225 40.9394 449.851 41.3366C450.481 41.7339 450.971 42.2915 451.32 43.0097C451.673 43.7279 451.849 44.5684 451.849 45.5314C451.849 46.4863 451.673 47.3208 451.32 48.0349C450.971 48.7491 450.481 49.3048 449.851 49.702C449.225 50.0992 448.495 50.2978 447.661 50.2978ZM447.661 49.0219C448.295 49.0219 448.816 48.8594 449.225 48.5345C449.635 48.2095 449.938 47.7822 450.134 47.2526C450.331 46.723 450.429 46.1492 450.429 45.5314C450.429 44.9135 450.331 44.3377 450.134 43.8041C449.938 43.2705 449.635 42.8392 449.225 42.5102C448.816 42.1812 448.295 42.0167 447.661 42.0167C447.027 42.0167 446.505 42.1812 446.096 42.5102C445.687 42.8392 445.384 43.2705 445.187 43.8041C444.991 44.3377 444.892 44.9135 444.892 45.5314C444.892 46.1492 444.991 46.723 445.187 47.2526C445.384 47.7822 445.687 48.2095 446.096 48.5345C446.505 48.8594 447.027 49.0219 447.661 49.0219ZM458.734 48.1794L461.96 40.8612H463.308L459.312 50.1052H458.156L454.232 40.8612H455.556L458.734 48.1794ZM455.099 40.8612V50.1052H453.678V40.8612H455.099ZM462.369 50.1052V40.8612H463.789V50.1052H462.369ZM72.7208 76.5717V63.8612H74.093V65.3297H74.2615C74.3658 65.1692 74.5103 64.9645 74.6948 64.7158C74.8834 64.463 75.1522 64.2383 75.5013 64.0418C75.8543 63.8411 76.3318 63.7408 76.9336 63.7408C77.712 63.7408 78.398 63.9354 78.9918 64.3246C79.5856 64.7138 80.0491 65.2655 80.3821 65.9796C80.7151 66.6938 80.8816 67.5363 80.8816 68.5073C80.8816 69.4863 80.7151 70.3348 80.3821 71.053C80.0491 71.7672 79.5877 72.3208 78.9979 72.714C78.4081 73.1032 77.728 73.2978 76.9577 73.2978C76.3639 73.2978 75.8884 73.1995 75.5314 73.0029C75.1743 72.8023 74.8994 72.5756 74.7069 72.3229C74.5143 72.0661 74.3658 71.8534 74.2615 71.6849H74.1411V76.5717H72.7208ZM74.1171 68.4832C74.1171 69.1813 74.2194 69.7972 74.424 70.3308C74.6286 70.8604 74.9275 71.2757 75.3207 71.5766C75.7139 71.8735 76.1954 72.0219 76.7651 72.0219C77.3589 72.0219 77.8544 71.8655 78.2516 71.5525C78.6528 71.2356 78.9537 70.8103 79.1543 70.2767C79.359 69.739 79.4613 69.1412 79.4613 68.4832C79.4613 67.8332 79.361 67.2475 79.1604 66.7259C78.9638 66.2003 78.6649 65.785 78.2636 65.4801C77.8664 65.1712 77.3669 65.0167 76.7651 65.0167C76.1873 65.0167 75.7019 65.1632 75.3087 65.456C74.9155 65.7449 74.6186 66.1501 74.418 66.6717C74.2174 67.1893 74.1171 67.7931 74.1171 68.4832ZM85.4294 73.3219C84.8437 73.3219 84.3121 73.2115 83.8346 72.9909C83.3572 72.7662 82.978 72.4432 82.6972 72.0219C82.4163 71.5967 82.2759 71.0831 82.2759 70.4813C82.2759 69.9517 82.3802 69.5224 82.5888 69.1934C82.7975 68.8604 83.0763 68.5996 83.4254 68.411C83.7744 68.2224 84.1596 68.082 84.5809 67.9897C85.0062 67.8934 85.4335 67.8172 85.8628 67.761C86.4245 67.6888 86.8798 67.6346 87.2289 67.5985C87.582 67.5584 87.8387 67.4922 87.9992 67.3999C88.1637 67.3077 88.246 67.1472 88.246 66.9185V66.8703C88.246 66.2765 88.0835 65.8151 87.7585 65.4861C87.4375 65.1571 86.95 64.9926 86.2961 64.9926C85.618 64.9926 85.0864 65.1411 84.7012 65.438C84.3161 65.7349 84.0452 66.0518 83.8888 66.3889L82.5407 65.9074C82.7814 65.3457 83.1024 64.9084 83.5036 64.5954C83.9088 64.2785 84.3502 64.0578 84.8276 63.9334C85.3091 63.805 85.7825 63.7408 86.2479 63.7408C86.5448 63.7408 86.8859 63.7769 87.271 63.8492C87.6602 63.9174 88.0353 64.0598 88.3964 64.2765C88.7615 64.4931 89.0645 64.8201 89.3052 65.2574C89.5459 65.6948 89.6663 66.2805 89.6663 67.0148V73.1052H88.246V71.8534H88.1738C88.0775 72.054 87.917 72.2687 87.6923 72.4974C87.4676 72.7261 87.1687 72.9207 86.7956 73.0812C86.4224 73.2416 85.9671 73.3219 85.4294 73.3219ZM85.6461 72.046C86.2078 72.046 86.6812 71.9357 87.0664 71.715C87.4556 71.4943 87.7485 71.2095 87.9451 70.8604C88.1457 70.5114 88.246 70.1442 88.246 69.7591V68.4591C88.1858 68.5314 88.0534 68.5976 87.8488 68.6577C87.6482 68.7139 87.4155 68.7641 87.1507 68.8082C86.8899 68.8483 86.6351 68.8844 86.3863 68.9165C86.1416 68.9446 85.943 68.9687 85.7905 68.9887C85.4214 69.0369 85.0764 69.1151 84.7554 69.2235C84.4384 69.3278 84.1817 69.4863 83.9851 69.6989C83.7925 69.9075 83.6962 70.1924 83.6962 70.5535C83.6962 71.047 83.8787 71.4201 84.2438 71.6729C84.613 71.9216 85.0804 72.046 85.6461 72.046ZM91.3419 70.7461H92.8585C92.8906 71.1633 93.0792 71.4803 93.4243 71.697C93.7733 71.9136 94.2267 72.0219 94.7844 72.0219C95.3541 72.0219 95.8416 71.9056 96.2468 71.6729C96.652 71.4362 96.8546 71.055 96.8546 70.5294C96.8546 70.2205 96.7784 69.9517 96.626 69.723C96.4735 69.4903 96.2588 69.3097 95.982 69.1813C95.7052 69.0529 95.3782 68.9887 95.001 68.9887H93.4122V67.7129H95.001C95.5667 67.7129 95.984 67.5845 96.2528 67.3277C96.5257 67.0709 96.6621 66.75 96.6621 66.3648C96.6621 65.9515 96.5156 65.6205 96.2227 65.3718C95.9298 65.119 95.5146 64.9926 94.977 64.9926C94.4353 64.9926 93.9839 65.115 93.6229 65.3597C93.2618 65.6005 93.0712 65.9114 93.0511 66.2926H91.5586C91.5746 65.7951 91.7271 65.3557 92.016 64.9746C92.3049 64.5894 92.6981 64.2885 93.1956 64.0718C93.6931 63.8512 94.2628 63.7408 94.9047 63.7408C95.5547 63.7408 96.1184 63.8552 96.5959 64.0839C97.0773 64.3086 97.4484 64.6155 97.7092 65.0047C97.974 65.3898 98.1064 65.8272 98.1064 66.3166C98.1064 66.8382 97.96 67.2595 97.6671 67.5805C97.3742 67.9015 97.0071 68.1301 96.5658 68.2666V68.3628C96.9148 68.3869 97.2177 68.4993 97.4745 68.6999C97.7353 68.8965 97.9379 69.1553 98.0824 69.4762C98.2268 69.7932 98.299 70.1442 98.299 70.5294C98.299 71.0911 98.1486 71.5806 97.8477 71.9979C97.5467 72.4111 97.1335 72.7321 96.6079 72.9608C96.0823 73.1855 95.4825 73.2978 94.8084 73.2978C94.1545 73.2978 93.5687 73.1915 93.0511 72.9788C92.5336 72.7622 92.1223 72.4633 91.8174 72.0821C91.5165 71.697 91.358 71.2516 91.3419 70.7461ZM98.9681 75.7533V71.7812H99.7385C99.927 71.5846 100.09 71.372 100.226 71.1433C100.362 70.9146 100.481 70.6438 100.581 70.3308C100.685 70.0139 100.774 69.6287 100.846 69.1753C100.918 68.7179 100.982 68.1663 101.038 67.5203L101.351 63.8612H107.225V71.7812H108.645V75.7533H107.225V73.1052H100.388V75.7533H98.9681ZM101.351 71.7812H105.805V65.1852H102.675L102.435 67.5203C102.334 68.4872 102.21 69.3318 102.062 70.054C101.913 70.7762 101.676 71.3519 101.351 71.7812ZM110.192 73.1052V63.8612H113.971C114.966 63.8612 115.757 64.0859 116.342 64.5352C116.928 64.9846 117.221 65.5784 117.221 66.3166C117.221 66.8784 117.055 67.3137 116.722 67.6226C116.389 67.9275 115.961 68.1342 115.44 68.2425C115.781 68.2906 116.112 68.411 116.433 68.6036C116.758 68.7962 117.026 69.061 117.239 69.398C117.452 69.731 117.558 70.1402 117.558 70.6257C117.558 71.0991 117.438 71.5224 117.197 71.8956C116.956 72.2687 116.611 72.5636 116.162 72.7802C115.712 72.9969 115.175 73.1052 114.549 73.1052H110.192ZM111.54 71.8053H114.549C115.038 71.8053 115.422 71.6889 115.698 71.4562C115.975 71.2235 116.114 70.9066 116.114 70.5053C116.114 70.0279 115.975 69.6528 115.698 69.3799C115.422 69.1031 115.038 68.9647 114.549 68.9647H111.54V71.8053ZM111.54 67.737H113.971C114.352 67.737 114.679 67.6848 114.952 67.5805C115.225 67.4722 115.434 67.3197 115.578 67.1231C115.727 66.9225 115.801 66.6858 115.801 66.4129C115.801 66.0238 115.638 65.7188 115.313 65.4982C114.988 65.2735 114.541 65.1611 113.971 65.1611H111.54V67.737ZM120.789 71.0109L125.243 63.8612H126.88V73.1052H125.46V65.9556L121.03 73.1052H119.369V63.8612H120.789V71.0109ZM135.329 67.8332V69.1573H130.226V67.8332H135.329ZM130.563 63.8612V73.1052H129.142V63.8612H130.563ZM136.412 63.8612V73.1052H134.992V63.8612H136.412ZM139.251 76.5717C139.01 76.5717 138.796 76.5517 138.607 76.5115C138.419 76.4754 138.288 76.4393 138.216 76.4032L138.577 75.1514C138.922 75.2397 139.227 75.2718 139.492 75.2477C139.757 75.2236 139.991 75.1053 140.196 74.8926C140.405 74.684 140.595 74.345 140.768 73.8756L141.032 73.1534L137.614 63.8612H139.155L141.707 71.2275H141.803L144.355 63.8612H145.895L141.971 74.4533C141.795 74.9308 141.576 75.326 141.315 75.6389C141.055 75.9559 140.752 76.1906 140.407 76.343C140.066 76.4955 139.68 76.5717 139.251 76.5717ZM145.835 73.1052V71.7812H146.172C146.448 71.7812 146.679 71.727 146.864 71.6187C147.048 71.5064 147.197 71.3118 147.309 71.0349C147.425 70.7541 147.514 70.3649 147.574 69.8674C147.638 69.3659 147.684 68.728 147.712 67.9536L147.881 63.8612H154.043V73.1052H152.623V65.1852H149.229L149.084 68.4832C149.052 69.2415 148.984 69.9095 148.88 70.4873C148.78 71.061 148.625 71.5425 148.416 71.9317C148.212 72.3208 147.939 72.6137 147.598 72.8103C147.257 73.0069 146.83 73.1052 146.316 73.1052H145.835ZM157.731 71.0109L162.184 63.8612H163.821V73.1052H162.401V65.9556L157.971 73.1052H156.31V63.8612H157.731V71.0109ZM170.511 73.1052V63.8612H174.291C175.286 63.8612 176.076 64.0859 176.662 64.5352C177.248 64.9846 177.54 65.5784 177.54 66.3166C177.54 66.8784 177.374 67.3137 177.041 67.6226C176.708 67.9275 176.281 68.1342 175.759 68.2425C176.1 68.2906 176.431 68.411 176.752 68.6036C177.077 68.7962 177.346 69.061 177.558 69.398C177.771 69.731 177.877 70.1402 177.877 70.6257C177.877 71.0991 177.757 71.5224 177.516 71.8956C177.276 72.2687 176.931 72.5636 176.481 72.7802C176.032 72.9969 175.494 73.1052 174.868 73.1052H170.511ZM171.859 71.8053H174.868C175.358 71.8053 175.741 71.6889 176.018 71.4562C176.295 71.2235 176.433 70.9066 176.433 70.5053C176.433 70.0279 176.295 69.6528 176.018 69.3799C175.741 69.1031 175.358 68.9647 174.868 68.9647H171.859V71.8053ZM171.859 67.737H174.291C174.672 67.737 174.999 67.6848 175.272 67.5805C175.544 67.4722 175.753 67.3197 175.897 67.1231C176.046 66.9225 176.12 66.6858 176.12 66.4129C176.12 66.0238 175.958 65.7188 175.633 65.4982C175.308 65.2735 174.86 65.1611 174.291 65.1611H171.859V67.737ZM183.444 73.2978C182.577 73.2978 181.831 73.0932 181.205 72.6839C180.579 72.2747 180.098 71.711 179.761 70.9928C179.424 70.2746 179.255 69.4542 179.255 68.5314C179.255 67.5925 179.428 66.764 179.773 66.0458C180.122 65.3236 180.607 64.7599 181.229 64.3547C181.855 63.9455 182.585 63.7408 183.42 63.7408C184.07 63.7408 184.656 63.8612 185.177 64.1019C185.699 64.3427 186.126 64.6797 186.459 65.113C186.792 65.5463 186.999 66.0518 187.079 66.6296H185.659C185.55 66.2083 185.31 65.8352 184.936 65.5102C184.567 65.1812 184.07 65.0167 183.444 65.0167C182.89 65.0167 182.405 65.1611 181.987 65.45C181.574 65.7349 181.251 66.1381 181.019 66.6597C180.79 67.1773 180.676 67.7851 180.676 68.4832C180.676 69.1974 180.788 69.8193 181.013 70.3489C181.241 70.8785 181.562 71.2897 181.975 71.5826C182.393 71.8755 182.882 72.0219 183.444 72.0219C183.813 72.0219 184.148 71.9577 184.449 71.8294C184.75 71.701 185.005 71.5164 185.213 71.2757C185.422 71.0349 185.57 70.7461 185.659 70.4091H187.079C186.999 70.9547 186.8 71.4462 186.483 71.8835C186.17 72.3168 185.755 72.6619 185.237 72.9187C184.724 73.1714 184.126 73.2978 183.444 73.2978ZM192.692 73.2978C191.801 73.2978 191.033 73.1012 190.387 72.708C189.745 72.3108 189.25 71.7571 188.901 71.047C188.555 70.3328 188.383 69.5023 188.383 68.5554C188.383 67.6086 188.555 66.774 188.901 66.0518C189.25 65.3256 189.735 64.7599 190.357 64.3547C190.983 63.9455 191.713 63.7408 192.548 63.7408C193.029 63.7408 193.504 63.8211 193.974 63.9816C194.443 64.1421 194.871 64.4028 195.256 64.7639C195.641 65.121 195.948 65.5945 196.177 66.1842C196.405 66.774 196.52 67.5002 196.52 68.3628V68.9647H189.394V67.737H195.075C195.075 67.2154 194.971 66.75 194.762 66.3407C194.558 65.9315 194.265 65.6085 193.884 65.3718C193.506 65.1351 193.061 65.0167 192.548 65.0167C191.982 65.0167 191.492 65.1571 191.079 65.438C190.67 65.7148 190.355 66.0759 190.134 66.5213C189.914 66.9666 189.803 67.4441 189.803 67.9536V68.7721C189.803 69.4702 189.924 70.062 190.164 70.5475C190.409 71.0289 190.748 71.396 191.181 71.6488C191.615 71.8976 192.118 72.0219 192.692 72.0219C193.065 72.0219 193.402 71.9698 193.703 71.8655C194.008 71.7571 194.271 71.5967 194.491 71.384C194.712 71.1674 194.883 70.8985 195.003 70.5776L196.375 70.9627C196.231 71.4281 195.988 71.8374 195.647 72.1905C195.306 72.5395 194.885 72.8123 194.383 73.0089C193.882 73.2015 193.318 73.2978 192.692 73.2978ZM190.742 62.3205C190.489 62.3205 190.265 62.2242 190.068 62.0317C189.875 61.8351 189.779 61.6104 189.779 61.3576C189.779 61.0808 189.875 60.8521 190.068 60.6715C190.265 60.487 190.489 60.3947 190.742 60.3947C191.019 60.3947 191.248 60.487 191.428 60.6715C191.613 60.8521 191.705 61.0808 191.705 61.3576C191.705 61.6104 191.613 61.8351 191.428 62.0317C191.248 62.2242 191.019 62.3205 190.742 62.3205ZM194.209 62.3205C193.956 62.3205 193.731 62.2242 193.535 62.0317C193.342 61.8351 193.246 61.6104 193.246 61.3576C193.246 61.0808 193.342 60.8521 193.535 60.6715C193.731 60.487 193.956 60.3947 194.209 60.3947C194.485 60.3947 194.714 60.487 194.895 60.6715C195.079 60.8521 195.172 61.0808 195.172 61.3576C195.172 61.6104 195.079 61.8351 194.895 62.0317C194.714 62.2242 194.485 62.3205 194.209 62.3205ZM200.46 71.4201L200.363 72.0701C200.295 72.5275 200.191 73.017 200.05 73.5385C199.914 74.0601 199.772 74.5516 199.623 75.013C199.475 75.4744 199.352 75.8415 199.256 76.1143H198.173C198.225 75.8576 198.293 75.5185 198.377 75.0973C198.462 74.676 198.546 74.2046 198.63 73.683C198.718 73.1654 198.791 72.6358 198.847 72.0942L198.919 71.4201H200.46ZM207.18 73.1052V63.8612H214.45V73.1052H213.029V65.1852H208.6V73.1052H207.18ZM220.46 73.2978C219.625 73.2978 218.893 73.0992 218.263 72.702C217.637 72.3048 217.148 71.7491 216.795 71.0349C216.446 70.3208 216.271 69.4863 216.271 68.5314C216.271 67.5684 216.446 66.7279 216.795 66.0097C217.148 65.2915 217.637 64.7339 218.263 64.3366C218.893 63.9394 219.625 63.7408 220.46 63.7408C221.295 63.7408 222.025 63.9394 222.651 64.3366C223.281 64.7339 223.77 65.2915 224.119 66.0097C224.472 66.7279 224.649 67.5684 224.649 68.5314C224.649 69.4863 224.472 70.3208 224.119 71.0349C223.77 71.7491 223.281 72.3048 222.651 72.702C222.025 73.0992 221.295 73.2978 220.46 73.2978ZM220.46 72.0219C221.094 72.0219 221.616 71.8594 222.025 71.5345C222.434 71.2095 222.737 70.7822 222.933 70.2526C223.13 69.723 223.228 69.1492 223.228 68.5314C223.228 67.9135 223.13 67.3377 222.933 66.8041C222.737 66.2705 222.434 65.8392 222.025 65.5102C221.616 65.1812 221.094 65.0167 220.46 65.0167C219.826 65.0167 219.304 65.1812 218.895 65.5102C218.486 65.8392 218.183 66.2705 217.987 66.8041C217.79 67.3377 217.692 67.9135 217.692 68.5314C217.692 69.1492 217.79 69.723 217.987 70.2526C218.183 70.7822 218.486 71.2095 218.895 71.5345C219.304 71.8594 219.826 72.0219 220.46 72.0219ZM225.27 65.1852V63.8612H232.78V65.1852H229.747V73.1052H228.327V65.1852H225.27ZM237.909 73.2978C237.018 73.2978 236.25 73.1012 235.604 72.708C234.962 72.3108 234.467 71.7571 234.118 71.047C233.773 70.3328 233.6 69.5023 233.6 68.5554C233.6 67.6086 233.773 66.774 234.118 66.0518C234.467 65.3256 234.952 64.7599 235.574 64.3547C236.2 63.9455 236.93 63.7408 237.765 63.7408C238.246 63.7408 238.722 63.8211 239.191 63.9816C239.66 64.1421 240.088 64.4028 240.473 64.7639C240.858 65.121 241.165 65.5945 241.394 66.1842C241.622 66.774 241.737 67.5002 241.737 68.3628V68.9647H234.611V67.737H240.292C240.292 67.2154 240.188 66.75 239.979 66.3407C239.775 65.9315 239.482 65.6085 239.101 65.3718C238.724 65.1351 238.278 65.0167 237.765 65.0167C237.199 65.0167 236.709 65.1571 236.296 65.438C235.887 65.7148 235.572 66.0759 235.351 66.5213C235.131 66.9666 235.02 67.4441 235.02 67.9536V68.7721C235.02 69.4702 235.141 70.062 235.381 70.5475C235.626 71.0289 235.965 71.396 236.398 71.6488C236.832 71.8976 237.335 72.0219 237.909 72.0219C238.282 72.0219 238.619 71.9698 238.92 71.8655C239.225 71.7571 239.488 71.5967 239.709 71.384C239.929 71.1674 240.1 70.8985 240.22 70.5776L241.592 70.9627C241.448 71.4281 241.205 71.8374 240.864 72.1905C240.523 72.5395 240.102 72.8123 239.6 73.0089C239.099 73.2015 238.535 73.2978 237.909 73.2978ZM243.558 76.5717V63.8612H244.93V65.3297H245.099C245.203 65.1692 245.348 64.9645 245.532 64.7158C245.721 64.463 245.99 64.2383 246.339 64.0418C246.692 63.8411 247.169 63.7408 247.771 63.7408C248.549 63.7408 249.235 63.9354 249.829 64.3246C250.423 64.7138 250.886 65.2655 251.219 65.9796C251.552 66.6938 251.719 67.5363 251.719 68.5073C251.719 69.4863 251.552 70.3348 251.219 71.053C250.886 71.7672 250.425 72.3208 249.835 72.714C249.245 73.1032 248.565 73.2978 247.795 73.2978C247.201 73.2978 246.726 73.1995 246.369 73.0029C246.012 72.8023 245.737 72.5756 245.544 72.3229C245.352 72.0661 245.203 71.8534 245.099 71.6849H244.979V76.5717H243.558ZM244.954 68.4832C244.954 69.1813 245.057 69.7972 245.261 70.3308C245.466 70.8604 245.765 71.2757 246.158 71.5766C246.551 71.8735 247.033 72.0219 247.603 72.0219C248.196 72.0219 248.692 71.8655 249.089 71.5525C249.49 71.2356 249.791 70.8103 249.992 70.2767C250.196 69.739 250.299 69.1412 250.299 68.4832C250.299 67.8332 250.198 67.2475 249.998 66.7259C249.801 66.2003 249.502 65.785 249.101 65.4801C248.704 65.1712 248.204 65.0167 247.603 65.0167C247.025 65.0167 246.539 65.1632 246.146 65.456C245.753 65.7449 245.456 66.1501 245.255 66.6717C245.055 67.1893 244.954 67.7931 244.954 68.4832ZM259.107 73.1052V65.1611H256.652C256.098 65.1611 255.663 65.2895 255.346 65.5463C255.029 65.8031 254.871 66.1562 254.871 66.6055C254.871 67.0469 255.013 67.3939 255.298 67.6467C255.587 67.8994 255.982 68.0258 256.484 68.0258H259.469V69.3498H256.484C255.858 69.3498 255.318 69.2395 254.865 69.0188C254.411 68.7982 254.062 68.4832 253.817 68.074C253.573 67.6607 253.45 67.1712 253.45 66.6055C253.45 66.0358 253.579 65.5463 253.835 65.1371C254.092 64.7278 254.459 64.4129 254.937 64.1922C255.418 63.9715 255.99 63.8612 256.652 63.8612H260.456V73.1052H259.107ZM252.945 73.1052L255.569 68.5073H257.109L254.485 73.1052H252.945ZM261.906 73.1052V71.7812H262.243C262.519 71.7812 262.75 71.727 262.935 71.6187C263.119 71.5064 263.268 71.3118 263.38 71.0349C263.496 70.7541 263.585 70.3649 263.645 69.8674C263.709 69.3659 263.755 68.728 263.783 67.9536L263.952 63.8612H270.114V73.1052H268.694V65.1852H265.3L265.155 68.4832C265.123 69.2415 265.055 69.9095 264.951 70.4873C264.85 71.061 264.696 71.5425 264.487 71.9317C264.283 72.3208 264.01 72.6137 263.669 72.8103C263.328 73.0069 262.901 73.1052 262.387 73.1052H261.906ZM276.137 73.2978C275.27 73.2978 274.524 73.0932 273.898 72.6839C273.272 72.2747 272.791 71.711 272.454 70.9928C272.117 70.2746 271.948 69.4542 271.948 68.5314C271.948 67.5925 272.121 66.764 272.466 66.0458C272.815 65.3236 273.3 64.7599 273.922 64.3547C274.548 63.9455 275.278 63.7408 276.113 63.7408C276.763 63.7408 277.348 63.8612 277.87 64.1019C278.392 64.3427 278.819 64.6797 279.152 65.113C279.485 65.5463 279.692 66.0518 279.772 66.6296H278.351C278.243 66.2083 278.002 65.8352 277.629 65.5102C277.26 65.1812 276.763 65.0167 276.137 65.0167C275.583 65.0167 275.098 65.1611 274.68 65.45C274.267 65.7349 273.944 66.1381 273.711 66.6597C273.483 67.1773 273.368 67.7851 273.368 68.4832C273.368 69.1974 273.481 69.8193 273.705 70.3489C273.934 70.8785 274.255 71.2897 274.668 71.5826C275.086 71.8755 275.575 72.0219 276.137 72.0219C276.506 72.0219 276.841 71.9577 277.142 71.8294C277.443 71.701 277.697 71.5164 277.906 71.2757C278.115 71.0349 278.263 70.7461 278.351 70.4091H279.772C279.692 70.9547 279.493 71.4462 279.176 71.8835C278.863 72.3168 278.448 72.6619 277.93 72.9187C277.417 73.1714 276.819 73.2978 276.137 73.2978ZM287.07 73.1052V65.1611H284.615C284.061 65.1611 283.626 65.2895 283.309 65.5463C282.992 65.8031 282.833 66.1562 282.833 66.6055C282.833 67.0469 282.976 67.3939 283.26 67.6467C283.549 67.8994 283.944 68.0258 284.446 68.0258H287.431V69.3498H284.446C283.82 69.3498 283.28 69.2395 282.827 69.0188C282.374 68.7982 282.025 68.4832 281.78 68.074C281.535 67.6607 281.413 67.1712 281.413 66.6055C281.413 66.0358 281.541 65.5463 281.798 65.1371C282.055 64.7278 282.422 64.4129 282.899 64.1922C283.381 63.9715 283.953 63.8612 284.615 63.8612H288.418V73.1052H287.07ZM280.907 73.1052L283.531 68.5073H285.072L282.448 73.1052H280.907Z" fill="#F5F5F5" style="fill:#F5F5F5;fill:color(display-p3 0.9625 0.9625 0.9625);fill-opacity:1;"/>
<path d="M510.989 67.6641C511.494 67.6681 512 67.7644 512.505 67.953C513.011 68.1415 513.472 68.4545 513.89 68.8918C514.307 69.3251 514.642 69.9169 514.895 70.6672C515.147 71.4175 515.274 72.3583 515.274 73.4897C515.274 74.5851 515.169 75.558 514.961 76.4086C514.756 77.2552 514.459 77.9693 514.07 78.5511C513.685 79.1329 513.216 79.5742 512.662 79.8751C512.112 80.176 511.49 80.3265 510.796 80.3265C510.106 80.3265 509.49 80.1901 508.949 79.9172C508.411 79.6404 507.97 79.2572 507.625 78.7677C507.284 78.2742 507.065 77.7025 506.969 77.0525H508.437C508.569 77.6183 508.832 78.0857 509.225 78.4548C509.623 78.8199 510.146 79.0025 510.796 79.0025C511.747 79.0025 512.497 78.5872 513.047 77.7567C513.601 76.9262 513.878 75.7526 513.878 74.236H513.781C513.557 74.573 513.29 74.8639 512.981 75.1087C512.672 75.3534 512.329 75.542 511.952 75.6744C511.575 75.8068 511.173 75.873 510.748 75.873C510.042 75.873 509.394 75.6984 508.804 75.3494C508.218 74.9963 507.749 74.5128 507.396 73.899C507.047 73.2811 506.872 72.575 506.872 71.7806C506.872 71.0263 507.041 70.3362 507.378 69.7103C507.719 69.0804 508.196 68.5789 508.81 68.2057C509.428 67.8326 510.154 67.6521 510.989 67.6641ZM510.989 68.9881C510.483 68.9881 510.028 69.1145 509.623 69.3673C509.221 69.616 508.902 69.953 508.666 70.3783C508.433 70.7996 508.317 71.267 508.317 71.7806C508.317 72.2941 508.429 72.7615 508.654 73.1828C508.882 73.6001 509.193 73.9331 509.587 74.1818C509.984 74.4266 510.435 74.549 510.941 74.549C511.322 74.549 511.677 74.4747 512.006 74.3263C512.335 74.1738 512.622 73.9672 512.867 73.7064C513.115 73.4416 513.31 73.1427 513.45 72.8097C513.591 72.4727 513.661 72.1216 513.661 71.7565C513.661 71.275 513.545 70.8237 513.312 70.4024C513.083 69.9811 512.766 69.6401 512.361 69.3793C511.96 69.1185 511.502 68.9881 510.989 68.9881ZM517.683 78.5812C517.386 78.5812 517.131 78.4749 516.919 78.2622C516.706 78.0496 516.6 77.7948 516.6 77.4979C516.6 77.201 516.706 76.9462 516.919 76.7336C517.131 76.5209 517.386 76.4146 517.683 76.4146C517.98 76.4146 518.235 76.5209 518.447 76.7336C518.66 76.9462 518.766 77.201 518.766 77.4979C518.766 77.6945 518.716 77.875 518.616 78.0395C518.519 78.204 518.389 78.3364 518.224 78.4367C518.064 78.533 517.883 78.5812 517.683 78.5812ZM517.683 72.3463C517.386 72.3463 517.131 72.24 516.919 72.0273C516.706 71.8147 516.6 71.5599 516.6 71.263C516.6 70.9661 516.706 70.7113 516.919 70.4987C517.131 70.286 517.386 70.1797 517.683 70.1797C517.98 70.1797 518.235 70.286 518.447 70.4987C518.66 70.7113 518.766 70.9661 518.766 71.263C518.766 71.4596 518.716 71.6401 518.616 71.8046C518.519 71.9691 518.389 72.1015 518.224 72.2018C518.064 72.2981 517.883 72.3463 517.683 72.3463ZM524.439 80.3265C523.644 80.3265 522.936 80.1901 522.314 79.9172C521.696 79.6444 521.205 79.2653 520.84 78.7798C520.479 78.2903 520.282 77.7226 520.25 77.0766H521.766C521.799 77.4738 521.935 77.8169 522.176 78.1057C522.416 78.3906 522.731 78.6113 523.121 78.7677C523.51 78.9242 523.941 79.0025 524.414 79.0025C524.944 79.0025 525.414 78.9102 525.823 78.7256C526.232 78.5411 526.553 78.2843 526.786 77.9553C527.018 77.6263 527.135 77.2451 527.135 76.8118C527.135 76.3584 527.022 75.9592 526.798 75.6142C526.573 75.2651 526.244 74.9923 525.811 74.7957C525.377 74.5991 524.848 74.5008 524.222 74.5008H523.235V73.1768H524.222C524.711 73.1768 525.141 73.0885 525.51 72.912C525.883 72.7355 526.174 72.4867 526.382 72.1657C526.595 71.8448 526.701 71.4676 526.701 71.0343C526.701 70.617 526.609 70.2539 526.425 69.945C526.24 69.6361 525.979 69.3953 525.642 69.2228C525.309 69.0503 524.916 68.964 524.463 68.964C524.037 68.964 523.636 69.0423 523.259 69.1987C522.886 69.3512 522.581 69.5739 522.344 69.8668C522.108 70.1556 521.979 70.5047 521.959 70.9139H520.515C520.539 70.268 520.733 69.7023 521.098 69.2168C521.464 68.7273 521.941 68.3462 522.531 68.0733C523.125 67.8005 523.777 67.6641 524.487 67.6641C525.249 67.6641 525.903 67.8186 526.449 68.1275C526.994 68.4324 527.414 68.8356 527.706 69.3372C527.999 69.8387 528.146 70.3803 528.146 70.9621C528.146 71.6562 527.963 72.248 527.598 72.7375C527.237 73.227 526.746 73.566 526.124 73.7545V73.8508C526.902 73.9792 527.51 74.3102 527.947 74.8439C528.385 75.3735 528.603 76.0294 528.603 76.8118C528.603 77.4818 528.421 78.0837 528.056 78.6173C527.694 79.1469 527.201 79.5642 526.575 79.8691C525.949 80.174 525.237 80.3265 524.439 80.3265ZM533.996 80.3265C533.169 80.3265 532.439 80.18 531.805 79.8871C531.175 79.5902 530.684 79.183 530.331 78.6654C529.978 78.1439 529.803 77.5501 529.807 76.884C529.803 76.3625 529.905 75.881 530.114 75.4397C530.323 74.9943 530.608 74.6232 530.969 74.3263C531.334 74.0254 531.741 73.8348 532.19 73.7545V73.6823C531.601 73.5299 531.131 73.1989 530.782 72.6893C530.433 72.1758 530.26 71.592 530.264 70.938C530.26 70.3121 530.419 69.7524 530.74 69.2589C531.061 68.7654 531.502 68.3762 532.064 68.0914C532.63 67.8065 533.274 67.6641 533.996 67.6641C534.71 67.6641 535.348 67.8065 535.91 68.0914C536.471 68.3762 536.913 68.7654 537.234 69.2589C537.559 69.7524 537.723 70.3121 537.727 70.938C537.723 71.592 537.545 72.1758 537.191 72.6893C536.842 73.1989 536.379 73.5299 535.801 73.6823V73.7545C536.247 73.8348 536.648 74.0254 537.005 74.3263C537.362 74.6232 537.647 74.9943 537.859 75.4397C538.072 75.881 538.18 76.3625 538.184 76.884C538.18 77.5501 538 78.1439 537.643 78.6654C537.29 79.183 536.798 79.5902 536.168 79.8871C535.542 80.18 534.818 80.3265 533.996 80.3265ZM533.996 79.0025C534.553 79.0025 535.035 78.9122 535.44 78.7316C535.845 78.5511 536.158 78.2963 536.379 77.9673C536.6 77.6383 536.712 77.2532 536.716 76.8118C536.712 76.3464 536.592 75.9352 536.355 75.5781C536.118 75.221 535.795 74.9401 535.386 74.7355C534.981 74.5309 534.517 74.4286 533.996 74.4286C533.47 74.4286 533.001 74.5309 532.588 74.7355C532.178 74.9401 531.855 75.221 531.619 75.5781C531.386 75.9352 531.272 76.3464 531.276 76.8118C531.272 77.2532 531.378 77.6383 531.594 77.9673C531.815 78.2963 532.13 78.5511 532.539 78.7316C532.949 78.9122 533.434 79.0025 533.996 79.0025ZM533.996 73.1527C534.437 73.1527 534.828 73.0645 535.169 72.8879C535.514 72.7114 535.785 72.4646 535.982 72.1477C536.178 71.8307 536.279 71.4596 536.283 71.0343C536.279 70.617 536.18 70.2539 535.988 69.945C535.795 69.6321 535.528 69.3913 535.187 69.2228C534.846 69.0503 534.449 68.964 533.996 68.964C533.534 68.964 533.131 69.0503 532.786 69.2228C532.441 69.3913 532.174 69.6321 531.986 69.945C531.797 70.2539 531.705 70.617 531.709 71.0343C531.705 71.4596 531.799 71.8307 531.992 72.1477C532.188 72.4646 532.459 72.7114 532.804 72.8879C533.149 73.0645 533.546 73.1527 533.996 73.1527Z" fill="#707E8D" style="fill:#707E8D;fill:color(display-p3 0.4392 0.4941 0.5529);fill-opacity:1;"/>
<defs>
<linearGradient id="paint0_linear_1259_47326" x1="21.7895" y1="46.6316" x2="21.7895" y2="90.2105" gradientUnits="userSpaceOnUse">
<stop stop-color="#AC92EF" style="stop-color:#AC92EF;stop-color:color(display-p3 0.6745 0.5725 0.9373);stop-opacity:1;"/>
<stop offset="1" stop-color="#6860D4" style="stop-color:#6860D4;stop-color:color(display-p3 0.4078 0.3765 0.8314);stop-opacity:1;"/>
</linearGradient>
</defs>
</svg>
