<svg width="552" height="86" viewBox="0 0 552 86" fill="none" xmlns="http://www.w3.org/2000/svg">
<rect y="45.0583" width="40.3686" height="40.3686" rx="20.1843" fill="url(#paint0_linear_1255_47017)" style=""/>
<path d="M18.9511 60.8716H21.424C22.3797 60.8716 23.2279 61.0767 23.9685 61.4869C24.7092 61.897 25.2906 62.4744 25.7127 63.2191C26.1348 63.9597 26.3458 64.8278 26.3458 65.8233C26.3458 66.795 26.1348 67.6451 25.7127 68.3739C25.2906 69.1026 24.7092 69.67 23.9685 70.0762C23.2279 70.4784 22.3797 70.6795 21.424 70.6795H18.9511C17.9914 70.6795 17.1393 70.4804 16.3946 70.0822C15.654 69.68 15.0726 69.1145 14.6505 68.3858C14.2284 67.6571 14.0174 66.8049 14.0174 65.8293C14.0174 64.8338 14.2304 63.9657 14.6565 63.225C15.0826 62.4804 15.6659 61.903 16.4066 61.4928C17.1512 61.0787 17.9994 60.8716 18.9511 60.8716ZM18.9511 62.7472C18.3697 62.7472 17.866 62.8667 17.4399 63.1056C17.0178 63.3405 16.6913 63.687 16.4603 64.1449C16.2294 64.6028 16.1139 65.1643 16.1139 65.8293C16.1139 66.4664 16.2294 67.006 16.4603 67.448C16.6953 67.89 17.0258 68.2265 17.4519 68.4575C17.878 68.6884 18.3777 68.8039 18.9511 68.8039H21.43C22.0074 68.8039 22.5051 68.6884 22.9232 68.4575C23.3453 68.2225 23.6699 67.8841 23.8968 67.442C24.1278 66.9961 24.2433 66.4565 24.2433 65.8233C24.2433 65.1663 24.1278 64.6088 23.8968 64.1509C23.6699 63.6929 23.3453 63.3445 22.9232 63.1056C22.5051 62.8667 22.0074 62.7472 21.43 62.7472H18.9511ZM21.2567 59.2947V72.2444H19.1243V59.2947H21.2567Z" fill="white" style="fill:white;fill-opacity:1;"/>
<path d="M52.7035 85.4269V71.9707C52.7035 78.176 48.5032 83.4003 42.7906 84.9555C42.6855 84.9841 42.6113 85.0791 42.6113 85.1881C42.6113 85.32 42.7182 85.4269 42.8501 85.4269H52.7035Z" fill="#1B2532" style="fill:#1B2532;fill:color(display-p3 0.1059 0.1451 0.1961);fill-opacity:1;"/>
<path d="M52.7031 32.2948C52.7031 20.9906 52.7031 15.3385 54.9031 11.0208C56.8382 7.22289 59.926 4.13509 63.7239 2.19996C68.0416 0 73.6937 0 84.998 0H519.705C531.009 0 536.661 0 540.979 2.19996C544.777 4.13509 547.865 7.22289 549.8 11.0208C552 15.3385 552 20.9906 552 32.2948V53.1321C552 64.4364 552 70.0885 549.8 74.4062C547.865 78.2041 544.777 81.2919 540.979 83.227C536.661 85.427 531.009 85.427 519.705 85.427H52.7031V32.2948Z" fill="#1B2532" style="fill:#1B2532;fill:color(display-p3 0.1059 0.1451 0.1961);fill-opacity:1;"/>
<path d="M71.6003 16.0671H73.9083C74.8003 16.0671 75.5919 16.2585 76.2832 16.6413C76.9745 17.0241 77.5171 17.563 77.911 18.258C78.305 18.9493 78.502 19.7595 78.502 20.6887C78.502 21.5955 78.305 22.389 77.911 23.0691C77.5171 23.7493 76.9745 24.2789 76.2832 24.658C75.5919 25.0334 74.8003 25.221 73.9083 25.221H71.6003C70.7046 25.221 69.9092 25.0352 69.2142 24.6636C68.5229 24.2882 67.9803 23.7604 67.5864 23.0803C67.1924 22.4002 66.9954 21.6048 66.9954 20.6942C66.9954 19.7651 67.1943 18.9549 67.5919 18.2636C67.9896 17.5686 68.5341 17.0297 69.2254 16.6469C69.9204 16.2603 70.712 16.0671 71.6003 16.0671ZM71.6003 17.8176C71.0576 17.8176 70.5875 17.9291 70.1898 18.1521C69.7959 18.3714 69.4911 18.6947 69.2755 19.1221C69.06 19.5495 68.9522 20.0736 68.9522 20.6942C68.9522 21.2889 69.06 21.7925 69.2755 22.205C69.4948 22.6176 69.8033 22.9316 70.201 23.1472C70.5986 23.3628 71.0651 23.4705 71.6003 23.4705H73.9138C74.4528 23.4705 74.9173 23.3628 75.3076 23.1472C75.7015 22.9279 76.0044 22.612 76.2163 22.1995C76.4318 21.7832 76.5396 21.2796 76.5396 20.6887C76.5396 20.0754 76.4318 19.5551 76.2163 19.1277C76.0044 18.7003 75.7015 18.3751 75.3076 18.1521C74.9173 17.9291 74.4528 17.8176 73.9138 17.8176H71.6003ZM73.7522 14.5953V26.6817H71.7619V14.5953H73.7522ZM80.2237 29.4245V17.6503H82.2084V19.0664H82.3255C82.4295 18.8582 82.5763 18.6371 82.7659 18.403C82.9554 18.1651 83.2119 17.9625 83.5352 17.7953C83.8586 17.6243 84.2711 17.5389 84.7728 17.5389C85.4344 17.5389 86.0309 17.708 86.5624 18.0462C87.0976 18.3807 87.5213 18.8768 87.8335 19.5347C88.1494 20.1888 88.3073 20.9916 88.3073 21.943C88.3073 22.8833 88.1531 23.6824 87.8446 24.3402C87.5361 24.9981 87.1162 25.4998 86.5847 25.8454C86.0532 26.1911 85.4511 26.3639 84.7784 26.3639C84.2878 26.3639 83.8809 26.2821 83.5575 26.1186C83.2342 25.9551 82.974 25.7581 82.777 25.5277C82.5838 25.2935 82.4332 25.0724 82.3255 24.8643H82.2418V29.4245H80.2237ZM82.2028 21.9319C82.2028 22.4856 82.2809 22.9707 82.437 23.3869C82.5968 23.8032 82.8253 24.1284 83.1227 24.3625C83.4237 24.5929 83.7879 24.7082 84.2154 24.7082C84.6613 24.7082 85.0349 24.5892 85.3359 24.3514C85.6369 24.1098 85.8637 23.7809 86.016 23.3646C86.1721 22.9446 86.2502 22.4671 86.2502 21.9319C86.2502 21.4004 86.174 20.9284 86.0216 20.5158C85.8692 20.1033 85.6425 19.78 85.3415 19.5458C85.0404 19.3117 84.6651 19.1946 84.2154 19.1946C83.7842 19.1946 83.4181 19.308 83.1171 19.5347C82.8161 19.7614 82.5875 20.0791 82.4314 20.488C82.279 20.8968 82.2028 21.3781 82.2028 21.9319ZM93.6137 26.3806C92.7775 26.3806 92.0528 26.1967 91.4395 25.8287C90.8263 25.4608 90.3506 24.946 90.0123 24.2845C89.6779 23.6229 89.5106 22.8499 89.5106 21.9653C89.5106 21.0808 89.6779 20.3059 90.0123 19.6406C90.3506 18.9753 90.8263 18.4587 91.4395 18.0908C92.0528 17.7228 92.7775 17.5389 93.6137 17.5389C94.45 17.5389 95.1747 17.7228 95.7879 18.0908C96.4012 18.4587 96.875 18.9753 97.2095 19.6406C97.5477 20.3059 97.7168 21.0808 97.7168 21.9653C97.7168 22.8499 97.5477 23.6229 97.2095 24.2845C96.875 24.946 96.4012 25.4608 95.7879 25.8287C95.1747 26.1967 94.45 26.3806 93.6137 26.3806ZM93.6249 24.7639C94.0783 24.7639 94.4574 24.6394 94.7621 24.3904C95.0669 24.1377 95.2936 23.7995 95.4423 23.3758C95.5947 22.9521 95.6709 22.4801 95.6709 21.9597C95.6709 21.4357 95.5947 20.9618 95.4423 20.5381C95.2936 20.1107 95.0669 19.7707 94.7621 19.5179C94.4574 19.2652 94.0783 19.1388 93.6249 19.1388C93.1603 19.1388 92.7738 19.2652 92.4653 19.5179C92.1605 19.7707 91.932 20.1107 91.7796 20.5381C91.6309 20.9618 91.5566 21.4357 91.5566 21.9597C91.5566 22.4801 91.6309 22.9521 91.7796 23.3758C91.932 23.7995 92.1605 24.1377 92.4653 24.3904C92.7738 24.6394 93.1603 24.7639 93.6249 24.7639ZM98.6818 26.2134L98.6706 24.5521H98.9661C99.1891 24.5521 99.3768 24.5019 99.5292 24.4015C99.6816 24.3012 99.8079 24.1339 99.9083 23.8998C100.009 23.6619 100.087 23.3423 100.142 22.9409C100.198 22.5395 100.237 22.0396 100.259 21.4413L100.41 17.6503H106.654V26.2134H104.703V19.3061H102.244L102.11 22.0657C102.077 22.7792 101.997 23.3981 101.871 23.9221C101.748 24.4424 101.573 24.8717 101.347 25.2099C101.124 25.5481 100.843 25.8008 100.505 25.9681C100.167 26.1316 99.767 26.2134 99.3062 26.2134H98.6818ZM112.264 26.3806C111.428 26.3806 110.703 26.1967 110.09 25.8287C109.477 25.4608 109.001 24.946 108.663 24.2845C108.328 23.6229 108.161 22.8499 108.161 21.9653C108.161 21.0808 108.328 20.3059 108.663 19.6406C109.001 18.9753 109.477 18.4587 110.09 18.0908C110.703 17.7228 111.428 17.5389 112.264 17.5389C113.1 17.5389 113.825 17.7228 114.438 18.0908C115.052 18.4587 115.525 18.9753 115.86 19.6406C116.198 20.3059 116.367 21.0808 116.367 21.9653C116.367 22.8499 116.198 23.6229 115.86 24.2845C115.525 24.946 115.052 25.4608 114.438 25.8287C113.825 26.1967 113.1 26.3806 112.264 26.3806ZM112.275 24.7639C112.729 24.7639 113.108 24.6394 113.413 24.3904C113.717 24.1377 113.944 23.7995 114.093 23.3758C114.245 22.9521 114.321 22.4801 114.321 21.9597C114.321 21.4357 114.245 20.9618 114.093 20.5381C113.944 20.1107 113.717 19.7707 113.413 19.5179C113.108 19.2652 112.729 19.1388 112.275 19.1388C111.811 19.1388 111.424 19.2652 111.116 19.5179C110.811 19.7707 110.582 20.1107 110.43 20.5381C110.281 20.9618 110.207 21.4357 110.207 21.9597C110.207 22.4801 110.281 22.9521 110.43 23.3758C110.582 23.7995 110.811 24.1377 111.116 24.3904C111.424 24.6394 111.811 24.7639 112.275 24.7639ZM117.923 26.2134V17.6503H121.519C122.534 17.6503 123.334 17.8529 123.922 18.258C124.513 18.6631 124.808 19.228 124.808 19.9528C124.808 20.4322 124.641 20.8243 124.306 21.1291C123.976 21.4301 123.524 21.6327 122.952 21.7367C123.401 21.7739 123.795 21.8873 124.134 22.0768C124.475 22.2664 124.743 22.5154 124.936 22.8238C125.13 23.1323 125.226 23.4873 125.226 23.8887C125.226 24.3607 125.102 24.7713 124.853 25.1207C124.607 25.4663 124.249 25.7358 123.777 25.9291C123.308 26.1186 122.74 26.2134 122.071 26.2134H117.923ZM119.813 24.6245H122.071C122.443 24.6245 122.734 24.5372 122.946 24.3625C123.158 24.1841 123.264 23.9425 123.264 23.6378C123.264 23.2847 123.158 23.0078 122.946 22.8071C122.734 22.6027 122.443 22.5005 122.071 22.5005H119.813V24.6245ZM119.813 21.196H121.558C121.833 21.196 122.069 21.157 122.266 21.0789C122.463 20.9971 122.613 20.8838 122.718 20.7388C122.822 20.5902 122.874 20.4136 122.874 20.2092C122.874 19.9156 122.753 19.6852 122.511 19.5179C122.273 19.3507 121.943 19.2671 121.519 19.2671H119.813V21.196ZM130.561 26.2134V14.796H137.987V16.5298H132.629V19.6294H137.602V21.3632H132.629V24.4796H138.031V26.2134H130.561ZM141.094 26.336C140.756 26.336 140.466 26.2171 140.224 25.9792C139.983 25.7414 139.864 25.4515 139.867 25.1096C139.864 24.7751 139.983 24.4889 140.224 24.251C140.466 24.0132 140.756 23.8942 141.094 23.8942C141.421 23.8942 141.705 24.0132 141.947 24.251C142.192 24.4889 142.317 24.7751 142.32 25.1096C142.317 25.3363 142.257 25.5425 142.142 25.7284C142.03 25.9142 141.882 26.0629 141.696 26.1744C141.514 26.2821 141.313 26.336 141.094 26.336ZM144.336 26.2134V14.796H148.707C149.532 14.796 150.218 14.9261 150.764 15.1862C151.314 15.4427 151.725 15.7939 151.996 16.2399C152.271 16.6859 152.409 17.1914 152.409 17.7563C152.409 18.2208 152.319 18.6185 152.141 18.9493C151.963 19.2764 151.723 19.5421 151.422 19.7465C151.121 19.9509 150.784 20.0977 150.413 20.1869V20.2984C150.818 20.3207 151.206 20.4452 151.578 20.6719C151.953 20.8949 152.26 21.2108 152.498 21.6197C152.736 22.0285 152.855 22.5228 152.855 23.1026C152.855 23.6935 152.712 24.225 152.425 24.697C152.139 25.1653 151.708 25.5351 151.132 25.8064C150.556 26.0777 149.831 26.2134 148.958 26.2134H144.336ZM146.404 24.4852H148.629C149.38 24.4852 149.92 24.3421 150.251 24.0559C150.586 23.766 150.753 23.3943 150.753 22.9409C150.753 22.6027 150.669 22.2979 150.502 22.0266C150.335 21.7516 150.097 21.536 149.788 21.38C149.48 21.2201 149.112 21.1402 148.685 21.1402H146.404V24.4852ZM146.404 19.6517H148.45C148.807 19.6517 149.129 19.5867 149.415 19.4566C149.701 19.3228 149.926 19.1351 150.089 18.8936C150.257 18.6483 150.34 18.3584 150.34 18.0239C150.34 17.5816 150.184 17.2174 149.872 16.9312C149.564 16.645 149.105 16.5019 148.495 16.5019H146.404V19.6517ZM155.651 26.336C155.313 26.336 155.023 26.2171 154.781 25.9792C154.54 25.7414 154.421 25.4515 154.424 25.1096C154.421 24.7751 154.54 24.4889 154.781 24.251C155.023 24.0132 155.313 23.8942 155.651 23.8942C155.978 23.8942 156.262 24.0132 156.504 24.251C156.749 24.4889 156.874 24.7751 156.877 25.1096C156.874 25.3363 156.814 25.5425 156.699 25.7284C156.587 25.9142 156.439 26.0629 156.253 26.1744C156.071 26.2821 155.87 26.336 155.651 26.336Z" fill="#EB8DAA" style="fill:#EB8DAA;fill:color(display-p3 0.9216 0.5529 0.6667);fill-opacity:1;"/>
<path d="M76.7292 39.3639H75.3466C75.2648 38.9663 75.1217 38.6169 74.9173 38.3159C74.7166 38.0148 74.4713 37.7621 74.1814 37.5577C73.8953 37.3495 73.5775 37.1934 73.2281 37.0894C72.8788 36.9853 72.5146 36.9333 72.1355 36.9333C71.4442 36.9333 70.8179 37.108 70.2567 37.4573C69.6992 37.8067 69.2551 38.3214 68.9243 39.0016C68.5973 39.6817 68.4337 40.5161 68.4337 41.5047C68.4337 42.4933 68.5973 43.3277 68.9243 44.0078C69.2551 44.688 69.6992 45.2027 70.2567 45.5521C70.8179 45.9014 71.4442 46.0761 72.1355 46.0761C72.5146 46.0761 72.8788 46.0241 73.2281 45.92C73.5775 45.8159 73.8953 45.6617 74.1814 45.4573C74.4713 45.2492 74.7166 44.9946 74.9173 44.6935C75.1217 44.3888 75.2648 44.0394 75.3466 43.6455H76.7292C76.6251 44.229 76.4356 44.7511 76.1605 45.212C75.8855 45.6729 75.5436 46.065 75.1348 46.3883C74.7259 46.7079 74.2669 46.9514 73.7578 47.1186C73.2523 47.2859 72.7115 47.3695 72.1355 47.3695C71.1617 47.3695 70.2957 47.1316 69.5376 46.6559C68.7794 46.1802 68.1829 45.5037 67.748 44.6266C67.3132 43.7495 67.0958 42.7089 67.0958 41.5047C67.0958 40.3005 67.3132 39.2599 67.748 38.3828C68.1829 37.5056 68.7794 36.8292 69.5376 36.3535C70.2957 35.8778 71.1617 35.6399 72.1355 35.6399C72.7115 35.6399 73.2523 35.7235 73.7578 35.8908C74.2669 36.058 74.7259 36.3033 75.1348 36.6267C75.5436 36.9463 75.8855 37.3365 76.1605 37.7974C76.4356 38.2545 76.6251 38.7767 76.7292 39.3639ZM77.5566 49.6663V45.9869H78.2702C78.4449 45.8048 78.5954 45.6078 78.7218 45.396C78.8482 45.1841 78.9578 44.9332 79.0507 44.6434C79.1473 44.3497 79.2291 43.993 79.296 43.573C79.3629 43.1493 79.4224 42.6383 79.4744 42.0399L79.7643 38.6503H85.2054V45.9869H86.5211V49.6663H85.2054V47.2134H78.8723V49.6663H77.5566ZM79.7643 45.9869H83.8897V39.8768H80.9908L80.7678 42.0399C80.6749 42.9356 80.5597 43.7179 80.4221 44.3869C80.2846 45.0559 80.0653 45.5892 79.7643 45.9869ZM91.5437 47.3918C90.7186 47.3918 90.0068 47.2097 89.4085 46.8454C88.8138 46.4775 88.3548 45.9646 88.0315 45.3068C87.7118 44.6452 87.552 43.8759 87.552 42.9988C87.552 42.1216 87.7118 41.3486 88.0315 40.6796C88.3548 40.0069 88.8045 39.4829 89.3806 39.1075C89.9604 38.7284 90.6368 38.5389 91.4099 38.5389C91.8558 38.5389 92.2963 38.6132 92.7311 38.7618C93.1659 38.9105 93.5618 39.1521 93.9186 39.4866C94.2753 39.8174 94.5597 40.2559 94.7715 40.8023C94.9834 41.3486 95.0893 42.0213 95.0893 42.8204V43.3779H88.4886V42.2406H93.7513C93.7513 41.7574 93.6547 41.3263 93.4614 40.9472C93.2719 40.5681 93.0006 40.2689 92.6475 40.0496C92.2981 39.8304 91.8856 39.7207 91.4099 39.7207C90.8858 39.7207 90.4324 39.8508 90.0496 40.111C89.6705 40.3674 89.3787 40.7019 89.1743 41.1145C88.9699 41.527 88.8677 41.9693 88.8677 42.4413V43.1995C88.8677 43.8461 88.9792 44.3943 89.2022 44.8441C89.4289 45.29 89.743 45.6301 90.1444 45.8643C90.5457 46.0947 91.0122 46.2099 91.5437 46.2099C91.8893 46.2099 92.2015 46.1616 92.4802 46.065C92.7627 45.9646 93.0061 45.8159 93.2105 45.619C93.415 45.4183 93.5729 45.1693 93.6844 44.8719L94.9555 45.2287C94.8217 45.6598 94.5968 46.0389 94.2809 46.366C93.965 46.6893 93.5748 46.9421 93.1102 47.1242C92.6456 47.3026 92.1234 47.3918 91.5437 47.3918ZM96.0185 47.2134V45.9869H96.3307C96.5871 45.9869 96.8008 45.9367 96.9718 45.8364C97.1428 45.7323 97.2803 45.5521 97.3844 45.2956C97.4921 45.0355 97.5739 44.6749 97.6296 44.2141C97.6891 43.7495 97.7319 43.1586 97.7579 42.4413L97.914 38.6503H103.623V47.2134H102.307V39.8768H99.1627L99.0289 42.9319C98.9992 43.6343 98.936 44.2531 98.8394 44.7883C98.7465 45.3198 98.6034 45.7658 98.4101 46.1263C98.2206 46.4868 97.9679 46.7581 97.6519 46.9402C97.336 47.1223 96.9402 47.2134 96.4645 47.2134H96.0185ZM108.242 47.4141C107.7 47.4141 107.207 47.3119 106.765 47.1075C106.323 46.8993 105.972 46.6001 105.711 46.2099C105.451 45.8159 105.321 45.3402 105.321 44.7827C105.321 44.2921 105.418 43.8945 105.611 43.5897C105.804 43.2812 106.063 43.0396 106.386 42.865C106.709 42.6903 107.066 42.5602 107.456 42.4747C107.85 42.3855 108.246 42.3149 108.644 42.2629C109.164 42.196 109.586 42.1458 109.909 42.1124C110.236 42.0752 110.474 42.0139 110.623 41.9284C110.775 41.8429 110.851 41.6942 110.851 41.4824V41.4378C110.851 40.8877 110.701 40.4603 110.4 40.1556C110.103 39.8508 109.651 39.6984 109.045 39.6984C108.417 39.6984 107.925 39.8359 107.568 40.111C107.211 40.386 106.96 40.6796 106.815 40.9918L105.567 40.5458C105.789 40.0255 106.087 39.6204 106.458 39.3305C106.834 39.0369 107.243 38.8325 107.685 38.7172C108.131 38.5983 108.57 38.5389 109.001 38.5389C109.276 38.5389 109.592 38.5723 109.948 38.6392C110.309 38.7024 110.656 38.8343 110.991 39.035C111.329 39.2357 111.61 39.5386 111.833 39.9437C112.056 40.3488 112.167 40.8915 112.167 41.5716V47.2134H110.851V46.0538H110.785C110.695 46.2396 110.547 46.4385 110.339 46.6503C110.13 46.8622 109.854 47.0424 109.508 47.1911C109.162 47.3397 108.74 47.4141 108.242 47.4141ZM108.443 46.2322C108.963 46.2322 109.402 46.13 109.759 45.9256C110.119 45.7212 110.391 45.4573 110.573 45.1339C110.759 44.8106 110.851 44.4705 110.851 44.1137V42.9096C110.796 42.9765 110.673 43.0378 110.484 43.0935C110.298 43.1456 110.082 43.192 109.837 43.2329C109.595 43.2701 109.359 43.3035 109.129 43.3333C108.902 43.3593 108.718 43.3816 108.577 43.4002C108.235 43.4448 107.915 43.5172 107.618 43.6176C107.324 43.7142 107.087 43.861 106.904 44.058C106.726 44.2513 106.637 44.5151 106.637 44.8496C106.637 45.3068 106.806 45.6524 107.144 45.8866C107.486 46.117 107.919 46.2322 108.443 46.2322ZM115.57 45.2733L119.696 38.6503H121.212V47.2134H119.896V40.5904L115.793 47.2134H114.255V38.6503H115.57V45.2733ZM118.826 35.796H120.052C120.052 36.3981 119.844 36.8905 119.428 37.2734C119.012 37.6562 118.447 37.8476 117.733 37.8476C117.031 37.8476 116.472 37.6562 116.055 37.2734C115.643 36.8905 115.436 36.3981 115.436 35.796H116.663C116.663 36.0859 116.743 36.3405 116.903 36.5598C117.066 36.779 117.343 36.8887 117.733 36.8887C118.124 36.8887 118.402 36.779 118.57 36.5598C118.741 36.3405 118.826 36.0859 118.826 35.796ZM122.143 39.8768V38.6503H129.1V39.8768H126.29V47.2134H124.975V39.8768H122.143ZM133.851 47.3918C133.026 47.3918 132.314 47.2097 131.716 46.8454C131.121 46.4775 130.662 45.9646 130.339 45.3068C130.019 44.6452 129.859 43.8759 129.859 42.9988C129.859 42.1216 130.019 41.3486 130.339 40.6796C130.662 40.0069 131.112 39.4829 131.688 39.1075C132.268 38.7284 132.944 38.5389 133.717 38.5389C134.163 38.5389 134.604 38.6132 135.038 38.7618C135.473 38.9105 135.869 39.1521 136.226 39.4866C136.583 39.8174 136.867 40.2559 137.079 40.8023C137.291 41.3486 137.397 42.0213 137.397 42.8204V43.3779H130.796V42.2406H136.059C136.059 41.7574 135.962 41.3263 135.769 40.9472C135.579 40.5681 135.308 40.2689 134.955 40.0496C134.605 39.8304 134.193 39.7207 133.717 39.7207C133.193 39.7207 132.74 39.8508 132.357 40.111C131.978 40.3674 131.686 40.7019 131.482 41.1145C131.277 41.527 131.175 41.9693 131.175 42.4413V43.1995C131.175 43.8461 131.286 44.3943 131.509 44.8441C131.736 45.29 132.05 45.6301 132.452 45.8643C132.853 46.0947 133.319 46.2099 133.851 46.2099C134.197 46.2099 134.509 46.1616 134.788 46.065C135.07 45.9646 135.313 45.8159 135.518 45.619C135.722 45.4183 135.88 45.1693 135.992 44.8719L137.263 45.2287C137.129 45.6598 136.904 46.0389 136.588 46.366C136.272 46.6893 135.882 46.9421 135.417 47.1242C134.953 47.3026 134.431 47.3918 133.851 47.3918ZM149.786 38.6503V47.2134H148.47V38.6503H149.786ZM149.273 42.7312V43.9576C148.976 44.0691 148.68 44.1676 148.387 44.2531C148.093 44.3349 147.785 44.3999 147.461 44.4482C147.138 44.4928 146.783 44.5151 146.396 44.5151C145.426 44.5151 144.648 44.2531 144.061 43.7291C143.477 43.205 143.185 42.419 143.185 41.3709V38.6281H144.501V41.3709C144.501 41.8095 144.585 42.17 144.752 42.4524C144.919 42.7349 145.146 42.9449 145.432 43.0824C145.718 43.2199 146.04 43.2887 146.396 43.2887C146.954 43.2887 147.458 43.2385 147.907 43.1381C148.361 43.0341 148.816 42.8984 149.273 42.7312ZM150.721 39.8768V38.6503H157.678V39.8768H154.868V47.2134H153.553V39.8768H150.721ZM162.318 47.3918C161.544 47.3918 160.866 47.2078 160.283 46.8399C159.703 46.4719 159.249 45.9572 158.922 45.2956C158.599 44.6341 158.437 43.861 158.437 42.9765C158.437 42.0845 158.599 41.3059 158.922 40.6406C159.249 39.9753 159.703 39.4587 160.283 39.0908C160.866 38.7228 161.544 38.5389 162.318 38.5389C163.091 38.5389 163.767 38.7228 164.347 39.0908C164.93 39.4587 165.384 39.9753 165.707 40.6406C166.034 41.3059 166.198 42.0845 166.198 42.9765C166.198 43.861 166.034 44.6341 165.707 45.2956C165.384 45.9572 164.93 46.4719 164.347 46.8399C163.767 47.2078 163.091 47.3918 162.318 47.3918ZM162.318 46.2099C162.905 46.2099 163.388 46.0594 163.767 45.7583C164.146 45.4573 164.427 45.0615 164.609 44.5709C164.791 44.0803 164.882 43.5488 164.882 42.9765C164.882 42.4041 164.791 41.8708 164.609 41.3765C164.427 40.8822 164.146 40.4826 163.767 40.1779C163.388 39.8731 162.905 39.7207 162.318 39.7207C161.73 39.7207 161.247 39.8731 160.868 40.1779C160.489 40.4826 160.208 40.8822 160.026 41.3765C159.844 41.8708 159.753 42.4041 159.753 42.9765C159.753 43.5488 159.844 44.0803 160.026 44.5709C160.208 45.0615 160.489 45.4573 160.868 45.7583C161.247 46.0594 161.73 46.2099 162.318 46.2099ZM174.247 35.4392L174.916 36.242C174.656 36.4947 174.355 36.6713 174.013 36.7716C173.671 36.872 173.285 36.9333 172.854 36.9556C172.423 36.9779 171.943 37.0002 171.415 37.0225C170.821 37.0448 170.328 37.1897 169.938 37.4573C169.548 37.7249 169.247 38.1114 169.035 38.6169C168.823 39.1224 168.687 39.743 168.628 40.4789H168.739C169.029 39.9437 169.431 39.5498 169.944 39.297C170.456 39.0443 171.007 38.9179 171.594 38.9179C172.263 38.9179 172.865 39.074 173.4 39.3862C173.935 39.6984 174.359 40.1611 174.671 40.7744C174.983 41.3876 175.139 42.1439 175.139 43.0434C175.139 43.9391 174.98 44.7121 174.66 45.3625C174.344 46.0129 173.9 46.5147 173.328 46.8677C172.759 47.2171 172.092 47.3918 171.326 47.3918C170.561 47.3918 169.89 47.2115 169.314 46.851C168.738 46.4868 168.29 45.9479 167.97 45.2343C167.65 44.517 167.491 43.6306 167.491 42.5751V41.6608C167.491 39.7542 167.814 38.3084 168.461 37.3235C169.111 36.3386 170.089 35.8295 171.393 35.796C171.854 35.7811 172.265 35.7774 172.625 35.7849C172.986 35.7923 173.3 35.7756 173.567 35.7347C173.835 35.6938 174.062 35.5953 174.247 35.4392ZM171.326 46.2099C171.843 46.2099 172.287 46.0798 172.659 45.8197C173.034 45.5595 173.322 45.1934 173.523 44.7214C173.723 44.2457 173.824 43.6863 173.824 43.0434C173.824 42.419 173.722 41.8875 173.517 41.4489C173.316 41.0104 173.028 40.6759 172.653 40.4455C172.278 40.215 171.828 40.0998 171.304 40.0998C170.921 40.0998 170.577 40.1649 170.273 40.2949C169.968 40.425 169.708 40.6164 169.492 40.8692C169.276 41.1219 169.109 41.4304 168.99 41.7946C168.875 42.1588 168.814 42.5751 168.806 43.0434C168.806 44.0022 169.031 44.7697 169.481 45.3458C169.931 45.9219 170.546 46.2099 171.326 46.2099ZM187.295 35.4392L187.964 36.242C187.703 36.4947 187.402 36.6713 187.061 36.7716C186.719 36.872 186.332 36.9333 185.901 36.9556C185.47 36.9779 184.99 37.0002 184.463 37.0225C183.868 37.0448 183.376 37.1897 182.985 37.4573C182.595 37.7249 182.294 38.1114 182.082 38.6169C181.87 39.1224 181.735 39.743 181.675 40.4789H181.787C182.077 39.9437 182.478 39.5498 182.991 39.297C183.504 39.0443 184.054 38.9179 184.641 38.9179C185.31 38.9179 185.912 39.074 186.447 39.3862C186.982 39.6984 187.406 40.1611 187.718 40.7744C188.031 41.3876 188.187 42.1439 188.187 43.0434C188.187 43.9391 188.027 44.7121 187.707 45.3625C187.391 46.0129 186.947 46.5147 186.375 46.8677C185.806 47.2171 185.139 47.3918 184.373 47.3918C183.608 47.3918 182.937 47.2115 182.361 46.851C181.785 46.4868 181.337 45.9479 181.017 45.2343C180.698 44.517 180.538 43.6306 180.538 42.5751V41.6608C180.538 39.7542 180.861 38.3084 181.508 37.3235C182.158 36.3386 183.136 35.8295 184.44 35.796C184.901 35.7811 185.312 35.7774 185.672 35.7849C186.033 35.7923 186.347 35.7756 186.615 35.7347C186.882 35.6938 187.109 35.5953 187.295 35.4392ZM184.373 46.2099C184.89 46.2099 185.334 46.0798 185.706 45.8197C186.081 45.5595 186.369 45.1934 186.57 44.7214C186.771 44.2457 186.871 43.6863 186.871 43.0434C186.871 42.419 186.769 41.8875 186.564 41.4489C186.364 41.0104 186.076 40.6759 185.7 40.4455C185.325 40.215 184.875 40.0998 184.351 40.0998C183.968 40.0998 183.625 40.1649 183.32 40.2949C183.015 40.425 182.755 40.6164 182.539 40.8692C182.324 41.1219 182.156 41.4304 182.038 41.7946C181.922 42.1588 181.861 42.5751 181.854 43.0434C181.854 44.0022 182.078 44.7697 182.528 45.3458C182.978 45.9219 183.593 46.2099 184.373 46.2099ZM193.475 47.3918C192.65 47.3918 191.939 47.2097 191.34 46.8454C190.746 46.4775 190.287 45.9646 189.963 45.3068C189.644 44.6452 189.484 43.8759 189.484 42.9988C189.484 42.1216 189.644 41.3486 189.963 40.6796C190.287 40.0069 190.736 39.4829 191.312 39.1075C191.892 38.7284 192.569 38.5389 193.342 38.5389C193.788 38.5389 194.228 38.6132 194.663 38.7618C195.098 38.9105 195.494 39.1521 195.85 39.4866C196.207 39.8174 196.491 40.2559 196.703 40.8023C196.915 41.3486 197.021 42.0213 197.021 42.8204V43.3779H190.42V42.2406H195.683C195.683 41.7574 195.586 41.3263 195.393 40.9472C195.204 40.5681 194.932 40.2689 194.579 40.0496C194.23 39.8304 193.817 39.7207 193.342 39.7207C192.818 39.7207 192.364 39.8508 191.981 40.111C191.602 40.3674 191.311 40.7019 191.106 41.1145C190.902 41.527 190.799 41.9693 190.799 42.4413V43.1995C190.799 43.8461 190.911 44.3943 191.134 44.8441C191.361 45.29 191.675 45.6301 192.076 45.8643C192.478 46.0947 192.944 46.2099 193.475 46.2099C193.821 46.2099 194.133 46.1616 194.412 46.065C194.694 45.9646 194.938 45.8159 195.142 45.619C195.347 45.4183 195.505 45.1693 195.616 44.8719L196.887 45.2287C196.753 45.6598 196.529 46.0389 196.213 46.366C195.897 46.6893 195.507 46.9421 195.042 47.1242C194.577 47.3026 194.055 47.3918 193.475 47.3918ZM198.173 45.028H199.578C199.608 45.4145 199.783 45.7082 200.102 45.9089C200.426 46.1096 200.845 46.2099 201.362 46.2099C201.89 46.2099 202.341 46.1021 202.717 45.8866C203.092 45.6673 203.28 45.3142 203.28 44.8273C203.28 44.5411 203.209 44.2921 203.068 44.0803C202.927 43.8647 202.728 43.6975 202.471 43.5786C202.215 43.4596 201.912 43.4002 201.563 43.4002H200.091V42.2183H201.563C202.087 42.2183 202.473 42.0993 202.722 41.8615C202.975 41.6236 203.101 41.3263 203.101 40.9695C203.101 40.5867 202.966 40.2801 202.694 40.0496C202.423 39.8155 202.039 39.6984 201.54 39.6984C201.039 39.6984 200.621 39.8118 200.286 40.0385C199.952 40.2615 199.775 40.5495 199.757 40.9026H198.374C198.389 40.4417 198.53 40.0348 198.798 39.6817C199.065 39.3249 199.429 39.0462 199.89 38.8455C200.351 38.6411 200.879 38.5389 201.474 38.5389C202.076 38.5389 202.598 38.6448 203.04 38.8566C203.486 39.0647 203.83 39.3491 204.071 39.7096C204.317 40.0664 204.439 40.4715 204.439 40.9249C204.439 41.4081 204.304 41.7983 204.032 42.0956C203.761 42.393 203.421 42.6048 203.012 42.7312V42.8204C203.336 42.8427 203.616 42.9467 203.854 43.1326C204.096 43.3147 204.283 43.5544 204.417 43.8517C204.551 44.1453 204.618 44.4705 204.618 44.8273C204.618 45.3476 204.478 45.8011 204.2 46.1876C203.921 46.5704 203.538 46.8677 203.051 47.0796C202.564 47.2877 202.009 47.3918 201.384 47.3918C200.779 47.3918 200.236 47.2933 199.757 47.0963C199.277 46.8956 198.896 46.6187 198.614 46.2656C198.335 45.9089 198.188 45.4963 198.173 45.028ZM213.732 47.3918C212.929 47.3918 212.238 47.2022 211.658 46.8231C211.078 46.444 210.632 45.9219 210.32 45.2566C210.008 44.5913 209.852 43.8313 209.852 42.9765C209.852 42.1068 210.012 41.3393 210.331 40.674C210.655 40.005 211.104 39.4829 211.68 39.1075C212.26 38.7284 212.937 38.5389 213.71 38.5389C214.312 38.5389 214.854 38.6504 215.338 38.8733C215.821 39.0963 216.217 39.4085 216.525 39.8099C216.833 40.2113 217.025 40.6796 217.099 41.2148H215.784C215.683 40.8246 215.46 40.4789 215.115 40.1779C214.773 39.8731 214.312 39.7207 213.732 39.7207C213.219 39.7207 212.769 39.8545 212.383 40.1221C212 40.386 211.701 40.7595 211.485 41.2427C211.273 41.7221 211.168 42.2852 211.168 42.9319C211.168 43.5934 211.272 44.1695 211.48 44.6601C211.692 45.1507 211.989 45.5316 212.372 45.8029C212.758 46.0742 213.212 46.2099 213.732 46.2099C214.074 46.2099 214.384 46.1504 214.663 46.0315C214.942 45.9126 215.178 45.7416 215.371 45.5186C215.564 45.2956 215.702 45.028 215.784 44.7158H217.099C217.025 45.2213 216.841 45.6766 216.547 46.0817C216.257 46.4831 215.873 46.8027 215.393 47.0406C214.918 47.2747 214.364 47.3918 213.732 47.3918ZM222.299 47.3918C221.474 47.3918 220.762 47.2097 220.164 46.8454C219.569 46.4775 219.11 45.9646 218.787 45.3068C218.467 44.6452 218.307 43.8759 218.307 42.9988C218.307 42.1216 218.467 41.3486 218.787 40.6796C219.11 40.0069 219.56 39.4829 220.136 39.1075C220.716 38.7284 221.392 38.5389 222.165 38.5389C222.611 38.5389 223.051 38.6132 223.486 38.7618C223.921 38.9105 224.317 39.1521 224.674 39.4866C225.031 39.8174 225.315 40.2559 225.527 40.8023C225.739 41.3486 225.844 42.0213 225.844 42.8204V43.3779H219.244V42.2406H224.506C224.506 41.7574 224.41 41.3263 224.217 40.9472C224.027 40.5681 223.756 40.2689 223.403 40.0496C223.053 39.8304 222.641 39.7207 222.165 39.7207C221.641 39.7207 221.188 39.8508 220.805 40.111C220.426 40.3674 220.134 40.7019 219.929 41.1145C219.725 41.527 219.623 41.9693 219.623 42.4413V43.1995C219.623 43.8461 219.734 44.3943 219.957 44.8441C220.184 45.29 220.498 45.6301 220.9 45.8643C221.301 46.0947 221.767 46.2099 222.299 46.2099C222.644 46.2099 222.957 46.1616 223.235 46.065C223.518 45.9646 223.761 45.8159 223.966 45.619C224.17 45.4183 224.328 45.1693 224.44 44.8719L225.711 45.2287C225.577 45.6598 225.352 46.0389 225.036 46.366C224.72 46.6893 224.33 46.9421 223.865 47.1242C223.401 47.3026 222.879 47.3918 222.299 47.3918ZM226.735 39.8768V38.6503H233.692V39.8768H230.882V47.2134H229.567V39.8768H226.735ZM236.613 45.2733L240.738 38.6503H242.255V47.2134H240.939V40.5904L236.836 47.2134H235.297V38.6503H236.613V45.2733ZM249.433 38.6503L251.485 42.1514L253.536 38.6503H255.053L252.287 42.9319L255.053 47.2134H253.536L251.485 43.8907L249.433 47.2134H247.917L250.637 42.9319L247.917 38.6503H249.433ZM259.742 47.3918C258.969 47.3918 258.291 47.2078 257.707 46.8399C257.127 46.4719 256.674 45.9572 256.347 45.2956C256.024 44.6341 255.862 43.861 255.862 42.9765C255.862 42.0845 256.024 41.3059 256.347 40.6406C256.674 39.9753 257.127 39.4587 257.707 39.0908C258.291 38.7228 258.969 38.5389 259.742 38.5389C260.515 38.5389 261.191 38.7228 261.771 39.0908C262.355 39.4587 262.808 39.9753 263.132 40.6406C263.459 41.3059 263.622 42.0845 263.622 42.9765C263.622 43.861 263.459 44.6341 263.132 45.2956C262.808 45.9572 262.355 46.4719 261.771 46.8399C261.191 47.2078 260.515 47.3918 259.742 47.3918ZM259.742 46.2099C260.329 46.2099 260.812 46.0594 261.191 45.7583C261.571 45.4573 261.851 45.0615 262.033 44.5709C262.215 44.0803 262.306 43.5488 262.306 42.9765C262.306 42.4041 262.215 41.8708 262.033 41.3765C261.851 40.8822 261.571 40.4826 261.191 40.1779C260.812 39.8731 260.329 39.7207 259.742 39.7207C259.155 39.7207 258.672 39.8731 258.293 40.1779C257.913 40.4826 257.633 40.8822 257.451 41.3765C257.269 41.8708 257.178 42.4041 257.178 42.9765C257.178 43.5488 257.269 44.0803 257.451 44.5709C257.633 45.0615 257.913 45.4573 258.293 45.7583C258.672 46.0594 259.155 46.2099 259.742 46.2099ZM264.197 39.8768V38.6503H271.155V39.8768H268.345V47.2134H267.029V39.8768H264.197ZM273.897 41.75H276.35C277.354 41.75 278.121 42.0046 278.653 42.5137C279.184 43.0229 279.45 43.6677 279.45 44.4482C279.45 44.9611 279.331 45.4276 279.093 45.8475C278.855 46.2638 278.506 46.5964 278.045 46.8454C277.584 47.0907 277.019 47.2134 276.35 47.2134H272.76V38.6503H274.076V45.9869H276.35C276.871 45.9869 277.298 45.8494 277.632 45.5744C277.967 45.2993 278.134 44.9463 278.134 44.5151C278.134 44.0617 277.967 43.6919 277.632 43.4057C277.298 43.1196 276.871 42.9765 276.35 42.9765H273.897V41.75ZM291.841 38.6503V47.2134H290.525V38.6503H291.841ZM291.328 42.7312V43.9576C291.03 44.0691 290.735 44.1676 290.441 44.2531C290.148 44.3349 289.839 44.3999 289.516 44.4482C289.193 44.4928 288.838 44.5151 288.451 44.5151C287.481 44.5151 286.702 44.2531 286.115 43.7291C285.532 43.205 285.24 42.419 285.24 41.3709V38.6281H286.556V41.3709C286.556 41.8095 286.639 42.17 286.807 42.4524C286.974 42.7349 287.2 42.9449 287.487 43.0824C287.773 43.2199 288.094 43.2887 288.451 43.2887C289.009 43.2887 289.512 43.2385 289.962 43.1381C290.415 43.0341 290.871 42.8984 291.328 42.7312ZM292.775 39.8768V38.6503H299.733V39.8768H296.923V47.2134H295.607V39.8768H292.775ZM304.372 47.3918C303.599 47.3918 302.921 47.2078 302.337 46.8399C301.758 46.4719 301.304 45.9572 300.977 45.2956C300.654 44.6341 300.492 43.861 300.492 42.9765C300.492 42.0845 300.654 41.3059 300.977 40.6406C301.304 39.9753 301.758 39.4587 302.337 39.0908C302.921 38.7228 303.599 38.5389 304.372 38.5389C305.145 38.5389 305.822 38.7228 306.401 39.0908C306.985 39.4587 307.438 39.9753 307.762 40.6406C308.089 41.3059 308.252 42.0845 308.252 42.9765C308.252 43.861 308.089 44.6341 307.762 45.2956C307.438 45.9572 306.985 46.4719 306.401 46.8399C305.822 47.2078 305.145 47.3918 304.372 47.3918ZM304.372 46.2099C304.959 46.2099 305.443 46.0594 305.822 45.7583C306.201 45.4573 306.481 45.0615 306.664 44.5709C306.846 44.0803 306.937 43.5488 306.937 42.9765C306.937 42.4041 306.846 41.8708 306.664 41.3765C306.481 40.8822 306.201 40.4826 305.822 40.1779C305.443 39.8731 304.959 39.7207 304.372 39.7207C303.785 39.7207 303.302 39.8731 302.923 40.1779C302.544 40.4826 302.263 40.8822 302.081 41.3765C301.899 41.8708 301.808 42.4041 301.808 42.9765C301.808 43.5488 301.899 44.0803 302.081 44.5709C302.263 45.0615 302.544 45.4573 302.923 45.7583C303.302 46.0594 303.785 46.2099 304.372 46.2099ZM314.853 41.7054V42.9319H309.858V41.7054H314.853ZM315.918 39.8768V38.6503H322.876V39.8768H320.066V47.2134H318.75V39.8768H315.918ZM327.515 47.3918C326.742 47.3918 326.064 47.2078 325.48 46.8399C324.901 46.4719 324.447 45.9572 324.12 45.2956C323.797 44.6341 323.635 43.861 323.635 42.9765C323.635 42.0845 323.797 41.3059 324.12 40.6406C324.447 39.9753 324.901 39.4587 325.48 39.0908C326.064 38.7228 326.742 38.5389 327.515 38.5389C328.288 38.5389 328.965 38.7228 329.544 39.0908C330.128 39.4587 330.581 39.9753 330.905 40.6406C331.232 41.3059 331.395 42.0845 331.395 42.9765C331.395 43.861 331.232 44.6341 330.905 45.2956C330.581 45.9572 330.128 46.4719 329.544 46.8399C328.965 47.2078 328.288 47.3918 327.515 47.3918ZM327.515 46.2099C328.102 46.2099 328.586 46.0594 328.965 45.7583C329.344 45.4573 329.624 45.0615 329.806 44.5709C329.989 44.0803 330.08 43.5488 330.08 42.9765C330.08 42.4041 329.989 41.8708 329.806 41.3765C329.624 40.8822 329.344 40.4826 328.965 40.1779C328.586 39.8731 328.102 39.7207 327.515 39.7207C326.928 39.7207 326.445 39.8731 326.066 40.1779C325.687 40.4826 325.406 40.8822 325.224 41.3765C325.042 41.8708 324.951 42.4041 324.951 42.9765C324.951 43.5488 325.042 44.0803 325.224 44.5709C325.406 45.0615 325.687 45.4573 326.066 45.7583C326.445 46.0594 326.928 46.2099 327.515 46.2099ZM337.191 47.2134V38.6503H343.925V47.2134H342.61V39.8768H338.507V47.2134H337.191ZM349.493 47.3918C348.72 47.3918 348.042 47.2078 347.458 46.8399C346.878 46.4719 346.425 45.9572 346.098 45.2956C345.775 44.6341 345.613 43.861 345.613 42.9765C345.613 42.0845 345.775 41.3059 346.098 40.6406C346.425 39.9753 346.878 39.4587 347.458 39.0908C348.042 38.7228 348.72 38.5389 349.493 38.5389C350.266 38.5389 350.942 38.7228 351.522 39.0908C352.106 39.4587 352.559 39.9753 352.883 40.6406C353.21 41.3059 353.373 42.0845 353.373 42.9765C353.373 43.861 353.21 44.6341 352.883 45.2956C352.559 45.9572 352.106 46.4719 351.522 46.8399C350.942 47.2078 350.266 47.3918 349.493 47.3918ZM349.493 46.2099C350.08 46.2099 350.563 46.0594 350.942 45.7583C351.322 45.4573 351.602 45.0615 351.784 44.5709C351.966 44.0803 352.057 43.5488 352.057 42.9765C352.057 42.4041 351.966 41.8708 351.784 41.3765C351.602 40.8822 351.322 40.4826 350.942 40.1779C350.563 39.8731 350.08 39.7207 349.493 39.7207C348.906 39.7207 348.423 39.8731 348.044 40.1779C347.664 40.4826 347.384 40.8822 347.202 41.3765C347.02 41.8708 346.929 42.4041 346.929 42.9765C346.929 43.5488 347.02 44.0803 347.202 44.5709C347.384 45.0615 347.664 45.4573 348.044 45.7583C348.423 46.0594 348.906 46.2099 349.493 46.2099ZM355.068 47.2134V38.6503H356.383V42.3744H357.253L360.33 38.6503H362.025L358.569 42.7758L362.07 47.2134H360.375L357.565 43.6009H356.383V47.2134H355.068ZM365.705 47.4141C365.163 47.4141 364.67 47.3119 364.228 47.1075C363.786 46.8993 363.435 46.6001 363.174 46.2099C362.914 45.8159 362.784 45.3402 362.784 44.7827C362.784 44.2921 362.881 43.8945 363.074 43.5897C363.267 43.2812 363.526 43.0396 363.849 42.865C364.172 42.6903 364.529 42.5602 364.919 42.4747C365.313 42.3855 365.709 42.3149 366.107 42.2629C366.627 42.196 367.049 42.1458 367.372 42.1124C367.699 42.0752 367.937 42.0139 368.086 41.9284C368.238 41.8429 368.314 41.6942 368.314 41.4824V41.4378C368.314 40.8877 368.164 40.4603 367.863 40.1556C367.566 39.8508 367.114 39.6984 366.508 39.6984C365.88 39.6984 365.388 39.8359 365.031 40.111C364.674 40.386 364.423 40.6796 364.278 40.9918L363.029 40.5458C363.252 40.0255 363.55 39.6204 363.921 39.3305C364.297 39.0369 364.706 38.8325 365.148 38.7172C365.594 38.5983 366.032 38.5389 366.464 38.5389C366.739 38.5389 367.055 38.5723 367.411 38.6392C367.772 38.7024 368.119 38.8343 368.454 39.035C368.792 39.2357 369.073 39.5386 369.296 39.9437C369.519 40.3488 369.63 40.8915 369.63 41.5716V47.2134H368.314V46.0538H368.248C368.158 46.2396 368.01 46.4385 367.802 46.6503C367.593 46.8622 367.317 47.0424 366.971 47.1911C366.625 47.3397 366.203 47.4141 365.705 47.4141ZM365.906 46.2322C366.426 46.2322 366.865 46.13 367.222 45.9256C367.582 45.7212 367.854 45.4573 368.036 45.1339C368.222 44.8106 368.314 44.4705 368.314 44.1137V42.9096C368.259 42.9765 368.136 43.0378 367.947 43.0935C367.761 43.1456 367.545 43.192 367.3 43.2329C367.058 43.2701 366.822 43.3035 366.592 43.3333C366.365 43.3593 366.181 43.3816 366.04 43.4002C365.698 43.4448 365.378 43.5172 365.081 43.6176C364.787 43.7142 364.55 43.861 364.367 44.058C364.189 44.2513 364.1 44.5151 364.1 44.8496C364.1 45.3068 364.269 45.6524 364.607 45.8866C364.949 46.117 365.382 46.2322 365.906 46.2322ZM371.182 45.028H372.587C372.617 45.4145 372.792 45.7082 373.111 45.9089C373.435 46.1096 373.855 46.2099 374.371 46.2099C374.899 46.2099 375.351 46.1021 375.726 45.8866C376.101 45.6673 376.289 45.3142 376.289 44.8273C376.289 44.5411 376.218 44.2921 376.077 44.0803C375.936 43.8647 375.737 43.6975 375.481 43.5786C375.224 43.4596 374.921 43.4002 374.572 43.4002H373.1V42.2183H374.572C375.096 42.2183 375.482 42.0993 375.731 41.8615C375.984 41.6236 376.111 41.3263 376.111 40.9695C376.111 40.5867 375.975 40.2801 375.704 40.0496C375.432 39.8155 375.048 39.6984 374.55 39.6984C374.048 39.6984 373.63 39.8118 373.295 40.0385C372.961 40.2615 372.784 40.5495 372.766 40.9026H371.383C371.398 40.4417 371.539 40.0348 371.807 39.6817C372.074 39.3249 372.439 39.0462 372.899 38.8455C373.36 38.6411 373.888 38.5389 374.483 38.5389C375.085 38.5389 375.607 38.6448 376.049 38.8566C376.495 39.0647 376.839 39.3491 377.081 39.7096C377.326 40.0664 377.449 40.4715 377.449 40.9249C377.449 41.4081 377.313 41.7983 377.042 42.0956C376.77 42.393 376.43 42.6048 376.021 42.7312V42.8204C376.345 42.8427 376.625 42.9467 376.863 43.1326C377.105 43.3147 377.292 43.5544 377.426 43.8517C377.56 44.1453 377.627 44.4705 377.627 44.8273C377.627 45.3476 377.488 45.8011 377.209 46.1876C376.93 46.5704 376.547 46.8677 376.06 47.0796C375.574 47.2877 375.018 47.3918 374.393 47.3918C373.788 47.3918 373.245 47.2933 372.766 47.0963C372.286 46.8956 371.905 46.6187 371.623 46.2656C371.344 45.9089 371.197 45.4963 371.182 45.028ZM380.298 41.75H382.751C383.755 41.75 384.522 42.0046 385.054 42.5137C385.585 43.0229 385.851 43.6677 385.851 44.4482C385.851 44.9611 385.732 45.4276 385.494 45.8475C385.256 46.2638 384.907 46.5964 384.446 46.8454C383.985 47.0907 383.42 47.2134 382.751 47.2134H379.161V38.6503H380.477V45.9869H382.751C383.272 45.9869 383.699 45.8494 384.033 45.5744C384.368 45.2993 384.535 44.9463 384.535 44.5151C384.535 44.0617 384.368 43.6919 384.033 43.4057C383.699 43.1196 383.272 42.9765 382.751 42.9765H380.298V41.75ZM387.211 47.2134V38.6503H388.527V47.2134H387.211ZM390.621 47.2134V38.6503H394.122C395.044 38.6503 395.776 38.8585 396.319 39.2747C396.861 39.691 397.133 40.2411 397.133 40.9249C397.133 41.4452 396.978 41.8485 396.67 42.1347C396.361 42.4171 395.966 42.6085 395.483 42.7089C395.798 42.7535 396.105 42.865 396.402 43.0434C396.703 43.2218 396.952 43.4671 397.149 43.7792C397.346 44.0877 397.445 44.4668 397.445 44.9165C397.445 45.3551 397.333 45.7472 397.11 46.0928C396.887 46.4385 396.568 46.7116 396.151 46.9123C395.735 47.113 395.237 47.2134 394.657 47.2134H390.621ZM391.87 46.0092H394.657C395.111 46.0092 395.466 45.9014 395.722 45.6859C395.979 45.4703 396.107 45.1767 396.107 44.805C396.107 44.3628 395.979 44.0153 395.722 43.7625C395.466 43.5061 395.111 43.3779 394.657 43.3779H391.87V46.0092ZM391.87 42.2406H394.122C394.475 42.2406 394.778 42.1923 395.031 42.0956C395.284 41.9953 395.477 41.8541 395.611 41.6719C395.748 41.4861 395.817 41.2668 395.817 41.0141C395.817 40.6536 395.666 40.3711 395.365 40.1667C395.064 39.9586 394.65 39.8545 394.122 39.8545H391.87V42.2406ZM401.642 47.4141C401.1 47.4141 400.607 47.3119 400.165 47.1075C399.723 46.8993 399.372 46.6001 399.111 46.2099C398.851 45.8159 398.721 45.3402 398.721 44.7827C398.721 44.2921 398.818 43.8945 399.011 43.5897C399.204 43.2812 399.463 43.0396 399.786 42.865C400.109 42.6903 400.466 42.5602 400.856 42.4747C401.25 42.3855 401.646 42.3149 402.044 42.2629C402.564 42.196 402.986 42.1458 403.309 42.1124C403.636 42.0752 403.874 42.0139 404.023 41.9284C404.175 41.8429 404.251 41.6942 404.251 41.4824V41.4378C404.251 40.8877 404.101 40.4603 403.8 40.1556C403.503 39.8508 403.051 39.6984 402.445 39.6984C401.817 39.6984 401.325 39.8359 400.968 40.111C400.611 40.386 400.36 40.6796 400.215 40.9918L398.966 40.5458C399.189 40.0255 399.487 39.6204 399.858 39.3305C400.234 39.0369 400.643 38.8325 401.085 38.7172C401.531 38.5983 401.969 38.5389 402.401 38.5389C402.676 38.5389 402.991 38.5723 403.348 38.6392C403.709 38.7024 404.056 38.8343 404.391 39.035C404.729 39.2357 405.01 39.5386 405.233 39.9437C405.456 40.3488 405.567 40.8915 405.567 41.5716V47.2134H404.251V46.0538H404.185C404.095 46.2396 403.947 46.4385 403.739 46.6503C403.53 46.8622 403.254 47.0424 402.908 47.1911C402.562 47.3397 402.14 47.4141 401.642 47.4141ZM401.843 46.2322C402.363 46.2322 402.802 46.13 403.159 45.9256C403.519 45.7212 403.791 45.4573 403.973 45.1339C404.158 44.8106 404.251 44.4705 404.251 44.1137V42.9096C404.196 42.9765 404.073 43.0378 403.883 43.0935C403.698 43.1456 403.482 43.192 403.237 43.2329C402.995 43.2701 402.759 43.3035 402.529 43.3333C402.302 43.3593 402.118 43.3816 401.977 43.4002C401.635 43.4448 401.315 43.5172 401.018 43.6176C400.724 43.7142 400.487 43.861 400.304 44.058C400.126 44.2513 400.037 44.5151 400.037 44.8496C400.037 45.3068 400.206 45.6524 400.544 45.8866C400.886 46.117 401.319 46.2322 401.843 46.2322ZM406.896 47.2134V45.9869H407.209C407.465 45.9869 407.679 45.9367 407.85 45.8364C408.021 45.7323 408.158 45.5521 408.262 45.2956C408.37 45.0355 408.452 44.6749 408.507 44.2141C408.567 43.7495 408.61 43.1586 408.636 42.4413L408.792 38.6503H414.5V47.2134H413.185V39.8768H410.041L409.907 42.9319C409.877 43.6343 409.814 44.2531 409.717 44.7883C409.624 45.3198 409.481 45.7658 409.288 46.1263C409.098 46.4868 408.846 46.7581 408.53 46.9402C408.214 47.1223 407.818 47.2134 407.342 47.2134H406.896ZM420.079 47.3918C419.306 47.3918 418.628 47.2078 418.044 46.8399C417.465 46.4719 417.011 45.9572 416.684 45.2956C416.361 44.6341 416.199 43.861 416.199 42.9765C416.199 42.0845 416.361 41.3059 416.684 40.6406C417.011 39.9753 417.465 39.4587 418.044 39.0908C418.628 38.7228 419.306 38.5389 420.079 38.5389C420.852 38.5389 421.529 38.7228 422.108 39.0908C422.692 39.4587 423.145 39.9753 423.469 40.6406C423.796 41.3059 423.959 42.0845 423.959 42.9765C423.959 43.861 423.796 44.6341 423.469 45.2956C423.145 45.9572 422.692 46.4719 422.108 46.8399C421.529 47.2078 420.852 47.3918 420.079 47.3918ZM420.079 46.2099C420.666 46.2099 421.15 46.0594 421.529 45.7583C421.908 45.4573 422.188 45.0615 422.37 44.5709C422.553 44.0803 422.644 43.5488 422.644 42.9765C422.644 42.4041 422.553 41.8708 422.37 41.3765C422.188 40.8822 421.908 40.4826 421.529 40.1779C421.15 39.8731 420.666 39.7207 420.079 39.7207C419.492 39.7207 419.009 39.8731 418.63 40.1779C418.251 40.4826 417.97 40.8822 417.788 41.3765C417.606 41.8708 417.515 42.4041 417.515 42.9765C417.515 43.5488 417.606 44.0803 417.788 44.5709C417.97 45.0615 418.251 45.4573 418.63 45.7583C419.009 46.0594 419.492 46.2099 420.079 46.2099ZM427.616 45.6524L427.527 46.2545C427.464 46.6782 427.367 47.1316 427.237 47.6148C427.111 48.0979 426.979 48.5532 426.841 48.9806C426.704 49.408 426.59 49.7481 426.501 50.0008H425.498C425.546 49.763 425.609 49.4489 425.687 49.0587C425.765 48.6684 425.843 48.2317 425.921 47.7486C426.003 47.2691 426.07 46.7785 426.122 46.2768L426.189 45.6524H427.616ZM436.361 47.4141C435.818 47.4141 435.326 47.3119 434.883 47.1075C434.441 46.8993 434.09 46.6001 433.83 46.2099C433.57 45.8159 433.44 45.3402 433.44 44.7827C433.44 44.2921 433.536 43.8945 433.729 43.5897C433.923 43.2812 434.181 43.0396 434.504 42.865C434.828 42.6903 435.185 42.5602 435.575 42.4747C435.969 42.3855 436.365 42.3149 436.762 42.2629C437.283 42.196 437.704 42.1458 438.028 42.1124C438.355 42.0752 438.593 42.0139 438.741 41.9284C438.894 41.8429 438.97 41.6942 438.97 41.4824V41.4378C438.97 40.8877 438.819 40.4603 438.518 40.1556C438.221 39.8508 437.769 39.6984 437.164 39.6984C436.536 39.6984 436.043 39.8359 435.686 40.111C435.329 40.386 435.079 40.6796 434.934 40.9918L433.685 40.5458C433.908 40.0255 434.205 39.6204 434.577 39.3305C434.952 39.0369 435.361 38.8325 435.803 38.7172C436.249 38.5983 436.688 38.5389 437.119 38.5389C437.394 38.5389 437.71 38.5723 438.067 38.6392C438.427 38.7024 438.775 38.8343 439.109 39.035C439.447 39.2357 439.728 39.5386 439.951 39.9437C440.174 40.3488 440.286 40.8915 440.286 41.5716V47.2134H438.97V46.0538H438.903C438.814 46.2396 438.665 46.4385 438.457 46.6503C438.249 46.8622 437.972 47.0424 437.626 47.1911C437.281 47.3397 436.859 47.4141 436.361 47.4141ZM436.562 46.2322C437.082 46.2322 437.52 46.13 437.877 45.9256C438.238 45.7212 438.509 45.4573 438.691 45.1339C438.877 44.8106 438.97 44.4705 438.97 44.1137V42.9096C438.914 42.9765 438.791 43.0378 438.602 43.0935C438.416 43.1456 438.201 43.192 437.955 43.2329C437.714 43.2701 437.478 43.3035 437.247 43.3333C437.021 43.3593 436.837 43.3816 436.695 43.4002C436.353 43.4448 436.034 43.5172 435.736 43.6176C435.443 43.7142 435.205 43.861 435.023 44.058C434.844 44.2513 434.755 44.5151 434.755 44.8496C434.755 45.3068 434.924 45.6524 435.263 45.8866C435.605 46.117 436.037 46.2322 436.562 46.2322ZM445.984 39.8768V38.6503H452.941V39.8768H450.131V47.2134H448.816V39.8768H445.984ZM457.58 47.3918C456.807 47.3918 456.129 47.2078 455.546 46.8399C454.966 46.4719 454.512 45.9572 454.185 45.2956C453.862 44.6341 453.7 43.861 453.7 42.9765C453.7 42.0845 453.862 41.3059 454.185 40.6406C454.512 39.9753 454.966 39.4587 455.546 39.0908C456.129 38.7228 456.807 38.5389 457.58 38.5389C458.354 38.5389 459.03 38.7228 459.61 39.0908C460.193 39.4587 460.647 39.9753 460.97 40.6406C461.297 41.3059 461.461 42.0845 461.461 42.9765C461.461 43.861 461.297 44.6341 460.97 45.2956C460.647 45.9572 460.193 46.4719 459.61 46.8399C459.03 47.2078 458.354 47.3918 457.58 47.3918ZM457.58 46.2099C458.168 46.2099 458.651 46.0594 459.03 45.7583C459.409 45.4573 459.69 45.0615 459.872 44.5709C460.054 44.0803 460.145 43.5488 460.145 42.9765C460.145 42.4041 460.054 41.8708 459.872 41.3765C459.69 40.8822 459.409 40.4826 459.03 40.1779C458.651 39.8731 458.168 39.7207 457.58 39.7207C456.993 39.7207 456.51 39.8731 456.131 40.1779C455.752 40.4826 455.471 40.8822 455.289 41.3765C455.107 41.8708 455.016 42.4041 455.016 42.9765C455.016 43.5488 455.107 44.0803 455.289 44.5709C455.471 45.0615 455.752 45.4573 456.131 45.7583C456.51 46.0594 456.993 46.2099 457.58 46.2099ZM467.256 47.2134V38.6503H473.991V47.2134H472.675V39.8768H468.572V47.2134H467.256ZM479.558 47.3918C478.785 47.3918 478.107 47.2078 477.523 46.8399C476.944 46.4719 476.49 45.9572 476.163 45.2956C475.84 44.6341 475.678 43.861 475.678 42.9765C475.678 42.0845 475.84 41.3059 476.163 40.6406C476.49 39.9753 476.944 39.4587 477.523 39.0908C478.107 38.7228 478.785 38.5389 479.558 38.5389C480.331 38.5389 481.008 38.7228 481.588 39.0908C482.171 39.4587 482.624 39.9753 482.948 40.6406C483.275 41.3059 483.438 42.0845 483.438 42.9765C483.438 43.861 483.275 44.6341 482.948 45.2956C482.624 45.9572 482.171 46.4719 481.588 46.8399C481.008 47.2078 480.331 47.3918 479.558 47.3918ZM479.558 46.2099C480.146 46.2099 480.629 46.0594 481.008 45.7583C481.387 45.4573 481.667 45.0615 481.85 44.5709C482.032 44.0803 482.123 43.5488 482.123 42.9765C482.123 42.4041 482.032 41.8708 481.85 41.3765C481.667 40.8822 481.387 40.4826 481.008 40.1779C480.629 39.8731 480.146 39.7207 479.558 39.7207C478.971 39.7207 478.488 39.8731 478.109 40.1779C477.73 40.4826 477.449 40.8822 477.267 41.3765C477.085 41.8708 476.994 42.4041 476.994 42.9765C476.994 43.5488 477.085 44.0803 477.267 44.5709C477.449 45.0615 477.73 45.4573 478.109 45.7583C478.488 46.0594 478.971 46.2099 479.558 46.2099ZM485.133 47.2134V38.6503H486.448V42.3744H487.318L490.395 38.6503H492.09L488.634 42.7758L492.135 47.2134H490.44L487.63 43.6009H486.448V47.2134H485.133ZM495.771 47.4141C495.228 47.4141 494.736 47.3119 494.293 47.1075C493.851 46.8993 493.5 46.6001 493.24 46.2099C492.98 45.8159 492.849 45.3402 492.849 44.7827C492.849 44.2921 492.946 43.8945 493.139 43.5897C493.333 43.2812 493.591 43.0396 493.914 42.865C494.238 42.6903 494.594 42.5602 494.985 42.4747C495.379 42.3855 495.774 42.3149 496.172 42.2629C496.692 42.196 497.114 42.1458 497.438 42.1124C497.765 42.0752 498.003 42.0139 498.151 41.9284C498.304 41.8429 498.38 41.6942 498.38 41.4824V41.4378C498.38 40.8877 498.229 40.4603 497.928 40.1556C497.631 39.8508 497.179 39.6984 496.573 39.6984C495.945 39.6984 495.453 39.8359 495.096 40.111C494.739 40.386 494.488 40.6796 494.344 40.9918L493.095 40.5458C493.318 40.0255 493.615 39.6204 493.987 39.3305C494.362 39.0369 494.771 38.8325 495.213 38.7172C495.659 38.5983 496.098 38.5389 496.529 38.5389C496.804 38.5389 497.12 38.5723 497.477 38.6392C497.837 38.7024 498.185 38.8343 498.519 39.035C498.857 39.2357 499.138 39.5386 499.361 39.9437C499.584 40.3488 499.695 40.8915 499.695 41.5716V47.2134H498.38V46.0538H498.313C498.224 46.2396 498.075 46.4385 497.867 46.6503C497.659 46.8622 497.382 47.0424 497.036 47.1911C496.691 47.3397 496.269 47.4141 495.771 47.4141ZM495.971 46.2322C496.492 46.2322 496.93 46.13 497.287 45.9256C497.648 45.7212 497.919 45.4573 498.101 45.1339C498.287 44.8106 498.38 44.4705 498.38 44.1137V42.9096C498.324 42.9765 498.201 43.0378 498.012 43.0935C497.826 43.1456 497.61 43.192 497.365 43.2329C497.124 43.2701 496.888 43.3035 496.657 43.3333C496.43 43.3593 496.246 43.3816 496.105 43.4002C495.763 43.4448 495.444 43.5172 495.146 43.6176C494.853 43.7142 494.615 43.861 494.433 44.058C494.254 44.2513 494.165 44.5151 494.165 44.8496C494.165 45.3068 494.334 45.6524 494.672 45.8866C495.014 46.117 495.447 46.2322 495.971 46.2322ZM70.8421 69.3918C70.0393 69.3918 69.348 69.2022 68.7682 68.8231C68.1884 68.444 67.7424 67.9219 67.4303 67.2566C67.1181 66.5913 66.962 65.8313 66.962 64.9765C66.962 64.1068 67.1218 63.3393 67.4414 62.674C67.7647 62.005 68.2145 61.4829 68.7905 61.1075C69.3703 60.7284 70.0467 60.5389 70.8198 60.5389C71.4219 60.5389 71.9645 60.6504 72.4477 60.8733C72.9308 61.0963 73.3266 61.4085 73.6351 61.8099C73.9436 62.2113 74.135 62.6796 74.2093 63.2148H72.8936C72.7933 62.8246 72.5703 62.4789 72.2247 62.1779C71.8827 61.8731 71.4219 61.7207 70.8421 61.7207C70.3292 61.7207 69.8795 61.8545 69.493 62.1221C69.1102 62.386 68.811 62.7595 68.5954 63.2427C68.3836 63.7221 68.2776 64.2852 68.2776 64.9319C68.2776 65.5934 68.3817 66.1695 68.5898 66.6601C68.8017 67.1507 69.099 67.5316 69.4818 67.8029C69.8683 68.0742 70.3218 68.2099 70.8421 68.2099C71.184 68.2099 71.4943 68.1504 71.7731 68.0315C72.0518 67.9126 72.2878 67.7416 72.4811 67.5186C72.6744 67.2956 72.8119 67.028 72.8936 66.7158H74.2093C74.135 67.2213 73.951 67.6766 73.6574 68.0817C73.3675 68.4831 72.9828 68.8027 72.5034 69.0406C72.0277 69.2747 71.4739 69.3918 70.8421 69.3918ZM75.8187 69.2134V60.6503H79.3197C80.2414 60.6503 80.9736 60.8585 81.5162 61.2747C82.0588 61.691 82.3301 62.2411 82.3301 62.9249C82.3301 63.4452 82.1759 63.8485 81.8674 64.1347C81.559 64.4171 81.1631 64.6085 80.68 64.7089C80.9959 64.7535 81.3025 64.865 81.5998 65.0434C81.9009 65.2218 82.1499 65.4671 82.3469 65.7792C82.5439 66.0877 82.6423 66.4668 82.6423 66.9165C82.6423 67.3551 82.5308 67.7472 82.3078 68.0928C82.0849 68.4385 81.7652 68.7116 81.349 68.9123C80.9327 69.113 80.4347 69.2134 79.8549 69.2134H75.8187ZM77.0675 68.0092H79.8549C80.3083 68.0092 80.6633 67.9014 80.9197 67.6859C81.1761 67.4703 81.3044 67.1767 81.3044 66.805C81.3044 66.3628 81.1761 66.0153 80.9197 65.7625C80.6633 65.5061 80.3083 65.3779 79.8549 65.3779H77.0675V68.0092ZM77.0675 64.2406H79.3197C79.6728 64.2406 79.9757 64.1923 80.2284 64.0956C80.4811 63.9953 80.6744 63.8541 80.8082 63.6719C80.9457 63.4861 81.0145 63.2668 81.0145 63.0141C81.0145 62.6536 80.864 62.3711 80.5629 62.1667C80.2619 61.9586 79.8475 61.8545 79.3197 61.8545H77.0675V64.2406ZM89.4712 69.2134V61.8545H87.1966C86.6837 61.8545 86.2805 61.9735 85.9869 62.2113C85.6933 62.4492 85.5465 62.7762 85.5465 63.1925C85.5465 63.6013 85.6784 63.9228 85.9423 64.157C86.2099 64.3911 86.576 64.5082 87.0405 64.5082H89.8057V65.7346H87.0405C86.4607 65.7346 85.9609 65.6324 85.5409 65.428C85.1209 65.2236 84.7976 64.9319 84.5709 64.5528C84.3441 64.17 84.2308 63.7165 84.2308 63.1925C84.2308 62.6647 84.3497 62.2113 84.5876 61.8322C84.8254 61.4531 85.1655 61.1614 85.6078 60.957C86.0538 60.7526 86.5834 60.6503 87.1966 60.6503H90.72V69.2134H89.4712ZM83.7625 69.2134L86.1932 64.9542H87.6203L85.1897 69.2134H83.7625ZM92.2861 67.028H93.691C93.7207 67.4145 93.8954 67.7082 94.215 67.9089C94.5384 68.1096 94.9583 68.2099 95.475 68.2099C96.0027 68.2099 96.4543 68.1021 96.8297 67.8866C97.205 67.6673 97.3927 67.3142 97.3927 66.8273C97.3927 66.5411 97.3221 66.2921 97.1809 66.0803C97.0396 65.8647 96.8408 65.6975 96.5844 65.5786C96.3279 65.4596 96.025 65.4002 95.6756 65.4002H94.2039V64.2183H95.6756C96.1997 64.2183 96.5862 64.0993 96.8352 63.8615C97.088 63.6236 97.2143 63.3263 97.2143 62.9695C97.2143 62.5867 97.0787 62.2801 96.8074 62.0496C96.536 61.8155 96.1514 61.6984 95.6533 61.6984C95.1516 61.6984 94.7335 61.8118 94.399 62.0385C94.0645 62.2615 93.888 62.5495 93.8694 62.9026H92.4868C92.5017 62.4417 92.6429 62.0348 92.9105 61.6817C93.1781 61.3249 93.5423 61.0462 94.0032 60.8455C94.464 60.6411 94.9918 60.5389 95.5865 60.5389C96.1885 60.5389 96.7107 60.6448 97.153 60.8566C97.599 61.0647 97.9428 61.3491 98.1843 61.7096C98.4296 62.0664 98.5523 62.4715 98.5523 62.9249C98.5523 63.4081 98.4166 63.7983 98.1453 64.0956C97.874 64.393 97.5339 64.6048 97.1251 64.7312V64.8204C97.4485 64.8427 97.7291 64.9467 97.9669 65.1326C98.2085 65.3147 98.3962 65.5544 98.53 65.8517C98.6638 66.1453 98.7307 66.4705 98.7307 66.8273C98.7307 67.3476 98.5913 67.8011 98.3126 68.1876C98.0338 68.5704 97.651 68.8677 97.1641 69.0796C96.6773 69.2877 96.1216 69.3918 95.4973 69.3918C94.8914 69.3918 94.3488 69.2933 93.8694 69.0963C93.3899 68.8956 93.009 68.6187 92.7265 68.2656C92.4478 67.9089 92.301 67.4963 92.2861 67.028ZM101.402 63.75H103.855C104.858 63.75 105.626 64.0046 106.157 64.5137C106.689 65.0229 106.955 65.6677 106.955 66.4482C106.955 66.9611 106.836 67.4276 106.598 67.8475C106.36 68.2638 106.011 68.5964 105.55 68.8454C105.089 69.0907 104.524 69.2134 103.855 69.2134H100.265V60.6503H101.58V67.9869H103.855C104.375 67.9869 104.803 67.8494 105.137 67.5744C105.472 67.2993 105.639 66.9463 105.639 66.5151C105.639 66.0617 105.472 65.6919 105.137 65.4057C104.803 65.1196 104.375 64.9765 103.855 64.9765H101.402V63.75ZM112.745 69.2134V60.6503H119.479V69.2134H118.164V61.8768H114.06V69.2134H112.745ZM125.047 69.3918C124.274 69.3918 123.595 69.2078 123.012 68.8399C122.432 68.4719 121.979 67.9572 121.652 67.2956C121.328 66.6341 121.167 65.861 121.167 64.9765C121.167 64.0845 121.328 63.3059 121.652 62.6406C121.979 61.9753 122.432 61.4587 123.012 61.0908C123.595 60.7228 124.274 60.5389 125.047 60.5389C125.82 60.5389 126.496 60.7228 127.076 61.0908C127.66 61.4587 128.113 61.9753 128.436 62.6406C128.763 63.3059 128.927 64.0845 128.927 64.9765C128.927 65.861 128.763 66.6341 128.436 67.2956C128.113 67.9572 127.66 68.4719 127.076 68.8399C126.496 69.2078 125.82 69.3918 125.047 69.3918ZM125.047 68.2099C125.634 68.2099 126.117 68.0594 126.496 67.7583C126.875 67.4573 127.156 67.0615 127.338 66.5709C127.52 66.0803 127.611 65.5488 127.611 64.9765C127.611 64.4041 127.52 63.8708 127.338 63.3765C127.156 62.8822 126.875 62.4826 126.496 62.1779C126.117 61.8731 125.634 61.7207 125.047 61.7207C124.46 61.7207 123.976 61.8731 123.597 62.1779C123.218 62.4826 122.938 62.8822 122.756 63.3765C122.573 63.8708 122.482 64.4041 122.482 64.9765C122.482 65.5488 122.573 66.0803 122.756 66.5709C122.938 67.0615 123.218 67.4573 123.597 67.7583C123.976 68.0594 124.46 68.2099 125.047 68.2099ZM131.937 67.2733L136.062 60.6503H137.579V69.2134H136.263V62.5904L132.16 69.2134H130.621V60.6503H131.937V67.2733ZM135.193 57.796H136.419C136.419 58.3981 136.211 58.8905 135.795 59.2734C135.379 59.6562 134.814 59.8476 134.1 59.8476C133.398 59.8476 132.838 59.6562 132.422 59.2734C132.009 58.8905 131.803 58.3981 131.803 57.796H133.03C133.03 58.0859 133.11 58.3405 133.269 58.5598C133.433 58.779 133.71 58.8887 134.1 58.8887C134.49 58.8887 134.769 58.779 134.936 58.5598C135.107 58.3405 135.193 58.0859 135.193 57.796ZM144.357 67.4294L147.346 60.6503H148.594L144.893 69.2134H143.822L140.187 60.6503H141.414L144.357 67.4294ZM140.99 60.6503V69.2134H139.675V60.6503H140.99ZM147.725 69.2134V60.6503H149.04V69.2134H147.725ZM153.655 69.4141C153.112 69.4141 152.619 69.3119 152.177 69.1075C151.735 68.8993 151.384 68.6001 151.124 68.2099C150.863 67.8159 150.733 67.3402 150.733 66.7827C150.733 66.2921 150.83 65.8945 151.023 65.5897C151.216 65.2812 151.475 65.0396 151.798 64.865C152.121 64.6903 152.478 64.5602 152.868 64.4747C153.262 64.3855 153.658 64.3149 154.056 64.2629C154.576 64.196 154.998 64.1458 155.321 64.1124C155.648 64.0752 155.886 64.0139 156.035 63.9284C156.187 63.8429 156.264 63.6942 156.264 63.4824V63.4378C156.264 62.8877 156.113 62.4603 155.812 62.1556C155.515 61.8508 155.063 61.6984 154.457 61.6984C153.829 61.6984 153.337 61.8359 152.98 62.111C152.623 62.386 152.372 62.6796 152.227 62.9918L150.979 62.5458C151.202 62.0255 151.499 61.6204 151.871 61.3305C152.246 61.0369 152.655 60.8325 153.097 60.7172C153.543 60.5983 153.982 60.5389 154.413 60.5389C154.688 60.5389 155.004 60.5723 155.36 60.6392C155.721 60.7024 156.068 60.8343 156.403 61.035C156.741 61.2357 157.022 61.5386 157.245 61.9437C157.468 62.3488 157.579 62.8915 157.579 63.5716V69.2134H156.264V68.0538H156.197C156.107 68.2396 155.959 68.4385 155.751 68.6503C155.543 68.8622 155.266 69.0424 154.92 69.1911C154.574 69.3397 154.153 69.4141 153.655 69.4141ZM153.855 68.2322C154.376 68.2322 154.814 68.13 155.171 67.9256C155.531 67.7212 155.803 67.4573 155.985 67.1339C156.171 66.8106 156.264 66.4705 156.264 66.1137V64.9096C156.208 64.9765 156.085 65.0378 155.896 65.0935C155.71 65.1456 155.494 65.192 155.249 65.2329C155.007 65.2701 154.771 65.3035 154.541 65.3333C154.314 65.3593 154.13 65.3816 153.989 65.4002C153.647 65.4448 153.327 65.5172 153.03 65.6176C152.737 65.7142 152.499 65.861 152.317 66.058C152.138 66.2513 152.049 66.5151 152.049 66.8496C152.049 67.3068 152.218 67.6524 152.556 67.8866C152.898 68.117 153.331 68.2322 153.855 68.2322ZM163.257 69.3918C162.432 69.3918 161.72 69.2097 161.122 68.8454C160.527 68.4775 160.068 67.9646 159.745 67.3068C159.425 66.6452 159.265 65.8759 159.265 64.9988C159.265 64.1216 159.425 63.3486 159.745 62.6796C160.068 62.0069 160.518 61.4829 161.094 61.1075C161.674 60.7284 162.35 60.5389 163.123 60.5389C163.569 60.5389 164.01 60.6132 164.444 60.7618C164.879 60.9105 165.275 61.1521 165.632 61.4866C165.989 61.8174 166.273 62.2559 166.485 62.8023C166.697 63.3486 166.803 64.0213 166.803 64.8204V65.3779H160.202V64.2406H165.465C165.465 63.7574 165.368 63.3263 165.175 62.9472C164.985 62.5681 164.714 62.2689 164.361 62.0496C164.011 61.8304 163.599 61.7207 163.123 61.7207C162.599 61.7207 162.146 61.8508 161.763 62.111C161.384 62.3674 161.092 62.7019 160.888 63.1145C160.683 63.527 160.581 63.9693 160.581 64.4413V65.1995C160.581 65.8461 160.692 66.3943 160.915 66.8441C161.142 67.29 161.456 67.6301 161.858 67.8643C162.259 68.0947 162.725 68.2099 163.257 68.2099C163.603 68.2099 163.915 68.1616 164.193 68.065C164.476 67.9646 164.719 67.8159 164.924 67.619C165.128 67.4183 165.286 67.1693 165.398 66.8719L166.669 67.2287C166.535 67.6598 166.31 68.0389 165.994 68.366C165.678 68.6893 165.288 68.9421 164.823 69.1242C164.359 69.3026 163.837 69.3918 163.257 69.3918ZM168.49 60.6503H169.806V67.9869H173.039V60.6503H174.355V67.9869H177.588V60.6503H178.904V69.2134H168.49V60.6503ZM182.13 63.75H184.583C185.586 63.75 186.354 64.0046 186.885 64.5137C187.417 65.0229 187.682 65.6677 187.682 66.4482C187.682 66.9611 187.564 67.4276 187.326 67.8475C187.088 68.2638 186.738 68.5964 186.278 68.8454C185.817 69.0907 185.252 69.2134 184.583 69.2134H180.993V60.6503H182.308V67.9869H184.583C185.103 67.9869 185.531 67.8494 185.865 67.5744C186.2 67.2993 186.367 66.9463 186.367 66.5151C186.367 66.0617 186.2 65.6919 185.865 65.4057C185.531 65.1196 185.103 64.9765 184.583 64.9765H182.13V63.75ZM194.32 72.4245C194.097 72.4245 193.898 72.4059 193.724 72.3688C193.549 72.3353 193.428 72.3019 193.361 72.2684L193.696 71.1088C194.015 71.1906 194.298 71.2203 194.543 71.198C194.788 71.1757 195.006 71.0661 195.195 70.8691C195.389 70.6759 195.565 70.3618 195.725 69.927L195.97 69.258L192.804 60.6503H194.231L196.595 67.474H196.684L199.048 60.6503H200.475L196.84 70.4622C196.676 70.9044 196.474 71.2705 196.232 71.5604C195.991 71.854 195.71 72.0714 195.39 72.2127C195.074 72.3539 194.718 72.4245 194.32 72.4245ZM201.362 69.2134L204.841 64.865L201.407 60.6503H202.968L205.822 64.3075H206.536V60.6503H207.851V64.3075H208.543L211.397 60.6503H212.958L209.546 64.865L213.002 69.2134H211.419L208.52 65.534H207.851V69.2134H206.536V65.534H205.867L202.945 69.2134H201.362ZM217.806 69.3918C216.981 69.3918 216.269 69.2097 215.671 68.8454C215.076 68.4775 214.617 67.9646 214.294 67.3068C213.974 66.6452 213.815 65.8759 213.815 64.9988C213.815 64.1216 213.974 63.3486 214.294 62.6796C214.617 62.0069 215.067 61.4829 215.643 61.1075C216.223 60.7284 216.899 60.5389 217.672 60.5389C218.118 60.5389 218.559 60.6132 218.994 60.7618C219.429 60.9105 219.824 61.1521 220.181 61.4866C220.538 61.8174 220.822 62.2559 221.034 62.8023C221.246 63.3486 221.352 64.0213 221.352 64.8204V65.3779H214.751V64.2406H220.014C220.014 63.7574 219.917 63.3263 219.724 62.9472C219.534 62.5681 219.263 62.2689 218.91 62.0496C218.561 61.8304 218.148 61.7207 217.672 61.7207C217.148 61.7207 216.695 61.8508 216.312 62.111C215.933 62.3674 215.641 62.7019 215.437 63.1145C215.233 63.527 215.13 63.9693 215.13 64.4413V65.1995C215.13 65.8461 215.242 66.3943 215.465 66.8441C215.692 67.29 216.006 67.6301 216.407 67.8643C216.808 68.0947 217.275 68.2099 217.806 68.2099C218.152 68.2099 218.464 68.1616 218.743 68.065C219.025 67.9646 219.269 67.8159 219.473 67.619C219.678 67.4183 219.836 67.1693 219.947 66.8719L221.218 67.2287C221.084 67.6598 220.859 68.0389 220.544 68.366C220.228 68.6893 219.837 68.9421 219.373 69.1242C218.908 69.3026 218.386 69.3918 217.806 69.3918ZM227.141 69.2134V60.6503H228.456V64.3744H229.326L232.403 60.6503H234.098L230.642 64.7758L234.143 69.2134H232.448L229.638 65.6009H228.456V69.2134H227.141ZM234.5 69.2134V67.9869H234.813C235.069 67.9869 235.283 67.9367 235.454 67.8364C235.625 67.7323 235.762 67.5521 235.866 67.2956C235.974 67.0355 236.056 66.6749 236.112 66.2141C236.171 65.7495 236.214 65.1586 236.24 64.4413L236.396 60.6503H242.105V69.2134H240.789V61.8768H237.645L237.511 64.9319C237.481 65.6343 237.418 66.2531 237.321 66.7883C237.228 67.3198 237.085 67.7658 236.892 68.1263C236.703 68.4868 236.45 68.7581 236.134 68.9402C235.818 69.1223 235.422 69.2134 234.946 69.2134H234.5ZM245.52 67.2733L249.646 60.6503H251.162V69.2134H249.846V62.5904L245.743 69.2134H244.205V60.6503H245.52V67.2733ZM256.848 69.3918C256.023 69.3918 255.311 69.2097 254.713 68.8454C254.118 68.4775 253.659 67.9646 253.336 67.3068C253.016 66.6452 252.856 65.8759 252.856 64.9988C252.856 64.1216 253.016 63.3486 253.336 62.6796C253.659 62.0069 254.109 61.4829 254.685 61.1075C255.265 60.7284 255.941 60.5389 256.714 60.5389C257.16 60.5389 257.601 60.6132 258.035 60.7618C258.47 60.9105 258.866 61.1521 259.223 61.4866C259.58 61.8174 259.864 62.2559 260.076 62.8023C260.288 63.3486 260.394 64.0213 260.394 64.8204V65.3779H253.793V64.2406H259.056C259.056 63.7574 258.959 63.3263 258.766 62.9472C258.576 62.5681 258.305 62.2689 257.952 62.0496C257.602 61.8304 257.19 61.7207 256.714 61.7207C256.19 61.7207 255.737 61.8508 255.354 62.111C254.975 62.3674 254.683 62.7019 254.479 63.1145C254.274 63.527 254.172 63.9693 254.172 64.4413V65.1995C254.172 65.8461 254.284 66.3943 254.507 66.8441C254.733 67.29 255.047 67.6301 255.449 67.8643C255.85 68.0947 256.317 68.2099 256.848 68.2099C257.194 68.2099 257.506 68.1616 257.785 68.065C258.067 67.9646 258.311 67.8159 258.515 67.619C258.719 67.4183 258.877 67.1693 258.989 66.8719L260.26 67.2287C260.126 67.6598 259.901 68.0389 259.585 68.366C259.269 68.6893 258.879 68.9421 258.415 69.1242C257.95 69.3026 257.428 69.3918 256.848 69.3918ZM267.812 64.3298V65.5563H263.085V64.3298H267.812ZM263.397 60.6503V69.2134H262.081V60.6503H263.397ZM268.816 60.6503V69.2134H267.5V60.6503H268.816ZM269.739 61.8768V60.6503H276.697V61.8768H273.887V69.2134H272.571V61.8768H269.739ZM282.403 69.2134V60.6503H289.138V69.2134H287.822V61.8768H283.719V69.2134H282.403ZM294.705 69.3918C293.902 69.3918 293.211 69.2022 292.631 68.8231C292.051 68.444 291.606 67.9219 291.293 67.2566C290.981 66.5913 290.825 65.8313 290.825 64.9765C290.825 64.1068 290.985 63.3393 291.304 62.674C291.628 62.005 292.078 61.4829 292.654 61.1075C293.233 60.7284 293.91 60.5389 294.683 60.5389C295.285 60.5389 295.828 60.6504 296.311 60.8733C296.794 61.0963 297.19 61.4085 297.498 61.8099C297.807 62.2113 297.998 62.6796 298.072 63.2148H296.757C296.656 62.8246 296.433 62.4789 296.088 62.1779C295.746 61.8731 295.285 61.7207 294.705 61.7207C294.192 61.7207 293.743 61.8545 293.356 62.1221C292.973 62.386 292.674 62.7595 292.458 63.2427C292.247 63.7221 292.141 64.2852 292.141 64.9319C292.141 65.5934 292.245 66.1695 292.453 66.6601C292.665 67.1507 292.962 67.5316 293.345 67.8029C293.731 68.0742 294.185 68.2099 294.705 68.2099C295.047 68.2099 295.357 68.1504 295.636 68.0315C295.915 67.9126 296.151 67.7416 296.344 67.5186C296.537 67.2956 296.675 67.028 296.757 66.7158H298.072C297.998 67.2213 297.814 67.6766 297.52 68.0817C297.231 68.4831 296.846 68.8027 296.366 69.0406C295.891 69.2747 295.337 69.3918 294.705 69.3918ZM300.997 67.2733L305.123 60.6503H306.639V69.2134H305.324V62.5904L301.22 69.2134H299.682V60.6503H300.997V67.2733ZM309.716 60.6503L311.768 64.1514L313.819 60.6503H315.336L312.57 64.9319L315.336 69.2134H313.819L311.768 65.8907L309.716 69.2134H308.2L310.92 64.9319L308.2 60.6503H309.716ZM317.746 72.4245C317.523 72.4245 317.325 72.4059 317.15 72.3688C316.975 72.3353 316.854 72.3019 316.787 72.2684L317.122 71.1088C317.442 71.1906 317.724 71.2203 317.969 71.198C318.215 71.1757 318.432 71.0661 318.622 70.8691C318.815 70.6759 318.991 70.3618 319.151 69.927L319.397 69.258L316.23 60.6503H317.657L320.021 67.474H320.11L322.474 60.6503H323.901L320.266 70.4622C320.103 70.9044 319.9 71.2705 319.659 71.5604C319.417 71.854 319.136 72.0714 318.817 72.2127C318.501 72.3539 318.144 72.4245 317.746 72.4245ZM328.607 69.3918C327.782 69.3918 327.07 69.2097 326.472 68.8454C325.877 68.4775 325.418 67.9646 325.095 67.3068C324.775 66.6452 324.616 65.8759 324.616 64.9988C324.616 64.1216 324.775 63.3486 325.095 62.6796C325.418 62.0069 325.868 61.4829 326.444 61.1075C327.024 60.7284 327.7 60.5389 328.473 60.5389C328.919 60.5389 329.36 60.6132 329.795 60.7618C330.23 60.9105 330.625 61.1521 330.982 61.4866C331.339 61.8174 331.623 62.2559 331.835 62.8023C332.047 63.3486 332.153 64.0213 332.153 64.8204V65.3779H325.552V64.2406H330.815C330.815 63.7574 330.718 63.3263 330.525 62.9472C330.335 62.5681 330.064 62.2689 329.711 62.0496C329.362 61.8304 328.949 61.7207 328.473 61.7207C327.949 61.7207 327.496 61.8508 327.113 62.111C326.734 62.3674 326.442 62.7019 326.238 63.1145C326.034 63.527 325.931 63.9693 325.931 64.4413V65.1995C325.931 65.8461 326.043 66.3943 326.266 66.8441C326.493 67.29 326.807 67.6301 327.208 67.8643C327.609 68.0947 328.076 68.2099 328.607 68.2099C328.953 68.2099 329.265 68.1616 329.544 68.065C329.826 67.9646 330.07 67.8159 330.274 67.619C330.479 67.4183 330.637 67.1693 330.748 66.8719L332.019 67.2287C331.885 67.6598 331.66 68.0389 331.345 68.366C331.029 68.6893 330.638 68.9421 330.174 69.1242C329.709 69.3026 329.187 69.3918 328.607 69.3918ZM333.043 61.8768V60.6503H340.001V61.8768H337.191V69.2134H335.875V61.8768H333.043Z" fill="#F5F5F5" style="fill:#F5F5F5;fill:color(display-p3 0.9625 0.9625 0.9625);fill-opacity:1;"/>
<path d="M507.685 64.0973V75.5146H506.302V65.5467H506.236L503.448 67.3976V65.9927L506.302 64.0973H507.685ZM513.595 75.6707C512.941 75.6707 512.351 75.5407 511.827 75.2805C511.303 75.0203 510.883 74.6635 510.567 74.2101C510.252 73.7567 510.079 73.2401 510.049 72.6603H511.387C511.439 73.1769 511.673 73.6043 512.089 73.9425C512.509 74.277 513.011 74.4443 513.595 74.4443C514.063 74.4443 514.479 74.3346 514.843 74.1154C515.211 73.8961 515.499 73.595 515.708 73.2122C515.919 72.8257 516.025 72.389 516.025 71.9021C516.025 71.4041 515.916 70.96 515.696 70.5697C515.481 70.1758 515.184 69.8654 514.804 69.6387C514.425 69.412 513.992 69.2968 513.505 69.2931C513.156 69.2894 512.797 69.3432 512.43 69.4547C512.062 69.5625 511.759 69.7019 511.521 69.8729L510.227 69.7168L510.919 64.0973H516.85V65.3238H512.078L511.677 68.691H511.744C511.978 68.5052 512.272 68.3509 512.625 68.2283C512.978 68.1056 513.346 68.0443 513.728 68.0443C514.427 68.0443 515.05 68.2115 515.596 68.546C516.146 68.8768 516.577 69.3302 516.889 69.9063C517.205 70.4824 517.363 71.1402 517.363 71.8798C517.363 72.6083 517.2 73.2587 516.873 73.831C516.549 74.3997 516.103 74.8494 515.535 75.1802C514.966 75.5072 514.319 75.6707 513.595 75.6707ZM519.617 74.054C519.342 74.054 519.106 73.9555 518.909 73.7586C518.712 73.5616 518.614 73.3256 518.614 73.0505C518.614 72.7755 518.712 72.5395 518.909 72.3425C519.106 72.1456 519.342 72.0471 519.617 72.0471C519.892 72.0471 520.128 72.1456 520.325 72.3425C520.522 72.5395 520.621 72.7755 520.621 73.0505C520.621 73.2327 520.574 73.3999 520.481 73.5523C520.392 73.7047 520.271 73.8273 520.119 73.9202C519.97 74.0094 519.803 74.054 519.617 74.054ZM519.617 68.2784C519.342 68.2784 519.106 68.18 518.909 67.983C518.712 67.786 518.614 67.55 518.614 67.275C518.614 66.9999 518.712 66.7639 518.909 66.567C519.106 66.37 519.342 66.2715 519.617 66.2715C519.892 66.2715 520.128 66.37 520.325 66.567C520.522 66.7639 520.621 66.9999 520.621 67.275C520.621 67.4571 520.574 67.6243 520.481 67.7767C520.392 67.9291 520.271 68.0517 520.119 68.1446C519.97 68.2338 519.803 68.2784 519.617 68.2784ZM525.875 75.6707C525.139 75.6707 524.483 75.5444 523.907 75.2917C523.335 75.0389 522.88 74.6877 522.541 74.238C522.207 73.7846 522.025 73.2587 521.995 72.6603H523.4C523.43 73.0282 523.556 73.346 523.779 73.6136C524.002 73.8775 524.294 74.0819 524.654 74.2268C525.015 74.3718 525.414 74.4443 525.853 74.4443C526.343 74.4443 526.778 74.3588 527.157 74.1878C527.537 74.0169 527.834 73.779 528.049 73.4742C528.265 73.1695 528.373 72.8164 528.373 72.415C528.373 71.995 528.269 71.6252 528.061 71.3056C527.852 70.9823 527.548 70.7295 527.146 70.5474C526.745 70.3653 526.254 70.2743 525.674 70.2743H524.76V69.0478H525.674C526.128 69.0478 526.526 68.966 526.868 68.8025C527.213 68.639 527.483 68.4085 527.676 68.1112C527.873 67.8139 527.971 67.4645 527.971 67.0631C527.971 66.6766 527.886 66.3402 527.715 66.0541C527.544 65.7679 527.302 65.5449 526.99 65.3851C526.682 65.2253 526.317 65.1454 525.897 65.1454C525.504 65.1454 525.132 65.2178 524.783 65.3628C524.437 65.504 524.154 65.7103 523.935 65.9816C523.716 66.2492 523.597 66.5725 523.578 66.9516H522.24C522.263 66.3532 522.443 65.8292 522.781 65.3795C523.119 64.9261 523.562 64.573 524.108 64.3203C524.658 64.0675 525.262 63.9412 525.92 63.9412C526.626 63.9412 527.232 64.0843 527.737 64.3704C528.243 64.6529 528.631 65.0264 528.902 65.491C529.174 65.9556 529.309 66.4573 529.309 66.9962C529.309 67.6392 529.14 68.1874 528.802 68.6408C528.468 69.0942 528.012 69.4083 527.436 69.583V69.6722C528.157 69.7911 528.72 70.0977 529.125 70.592C529.53 71.0826 529.733 71.6903 529.733 72.415C529.733 73.0357 529.564 73.5932 529.226 74.0875C528.891 74.5781 528.434 74.9646 527.854 75.2471C527.274 75.5295 526.615 75.6707 525.875 75.6707ZM534.728 75.6707C533.963 75.6707 533.286 75.5351 532.699 75.2638C532.116 74.9888 531.66 74.6115 531.333 74.1321C531.006 73.6489 530.844 73.0989 530.848 72.4819C530.844 71.9988 530.939 71.5528 531.133 71.1439C531.326 70.7314 531.59 70.3876 531.924 70.1126C532.262 69.8338 532.64 69.6573 533.056 69.583V69.5161C532.51 69.3748 532.075 69.0682 531.751 68.5962C531.428 68.1205 531.268 67.5797 531.272 66.9739C531.268 66.3941 531.415 65.8757 531.712 65.4185C532.01 64.9614 532.418 64.6009 532.939 64.337C533.463 64.0731 534.059 63.9412 534.728 63.9412C535.39 63.9412 535.981 64.0731 536.501 64.337C537.021 64.6009 537.43 64.9614 537.728 65.4185C538.029 65.8757 538.181 66.3941 538.185 66.9739C538.181 67.5797 538.016 68.1205 537.689 68.5962C537.365 69.0682 536.936 69.3748 536.401 69.5161V69.583C536.813 69.6573 537.185 69.8338 537.516 70.1126C537.847 70.3876 538.11 70.7314 538.307 71.1439C538.504 71.5528 538.605 71.9988 538.608 72.4819C538.605 73.0989 538.437 73.6489 538.107 74.1321C537.78 74.6115 537.324 74.9888 536.741 75.2638C536.161 75.5351 535.49 75.6707 534.728 75.6707ZM534.728 74.4443C535.245 74.4443 535.691 74.3606 536.066 74.1934C536.442 74.0262 536.732 73.7901 536.936 73.4854C537.14 73.1806 537.244 72.8238 537.248 72.415C537.244 71.9839 537.133 71.6029 536.914 71.2722C536.694 70.9414 536.395 70.6812 536.016 70.4917C535.641 70.3021 535.211 70.2074 534.728 70.2074C534.241 70.2074 533.807 70.3021 533.424 70.4917C533.045 70.6812 532.746 70.9414 532.526 71.2722C532.311 71.6029 532.205 71.9839 532.208 72.415C532.205 72.8238 532.303 73.1806 532.504 73.4854C532.708 73.7901 533 74.0262 533.379 74.1934C533.758 74.3606 534.208 74.4443 534.728 74.4443ZM534.728 69.0255C535.137 69.0255 535.5 68.9437 535.815 68.7802C536.135 68.6167 536.386 68.3881 536.568 68.0945C536.75 67.8009 536.843 67.4571 536.847 67.0631C536.843 66.6766 536.752 66.3402 536.574 66.0541C536.395 65.7642 536.148 65.5412 535.832 65.3851C535.516 65.2253 535.148 65.1454 534.728 65.1454C534.301 65.1454 533.927 65.2253 533.608 65.3851C533.288 65.5412 533.041 65.7642 532.866 66.0541C532.692 66.3402 532.606 66.6766 532.61 67.0631C532.606 67.4571 532.694 67.8009 532.872 68.0945C533.054 68.3881 533.305 68.6167 533.625 68.7802C533.944 68.9437 534.312 69.0255 534.728 69.0255Z" fill="#707E8D" style="fill:#707E8D;fill:color(display-p3 0.4392 0.4941 0.5529);fill-opacity:1;"/>
<defs>
<linearGradient id="paint0_linear_1255_47017" x1="20.1843" y1="45.0583" x2="20.1843" y2="85.4269" gradientUnits="userSpaceOnUse">
<stop stop-color="#EB8DAA" style="stop-color:#EB8DAA;stop-color:color(display-p3 0.9216 0.5529 0.6667);stop-opacity:1;"/>
<stop offset="1" stop-color="#CC6179" style="stop-color:#CC6179;stop-color:color(display-p3 0.8000 0.3804 0.4745);stop-opacity:1;"/>
</linearGradient>
</defs>
</svg>
