<svg width="960" height="1080" viewBox="0 0 960 1080" fill="none" xmlns="http://www.w3.org/2000/svg">
<rect width="374" height="58" transform="translate(203 127)" fill="url(#paint0_linear_1178_41308)" fill-opacity="0.7" style=""/>
<path d="M245.684 149.57V161.072H243.943V151.311H243.876L241.124 153.108V151.445L243.994 149.57H245.684ZM253.551 149.412C254.064 149.416 254.569 149.51 255.067 149.693C255.565 149.877 256.015 150.176 256.415 150.592C256.82 151.007 257.142 151.569 257.381 152.277C257.625 152.981 257.748 153.857 257.752 154.905C257.752 155.912 257.651 156.809 257.449 157.595C257.247 158.378 256.956 159.039 256.578 159.578C256.204 160.117 255.749 160.527 255.213 160.808C254.678 161.089 254.075 161.229 253.405 161.229C252.72 161.229 252.111 161.094 251.58 160.825C251.048 160.555 250.615 160.183 250.282 159.707C249.949 159.228 249.741 158.678 249.659 158.056H251.372C251.484 158.55 251.713 158.951 252.057 159.258C252.405 159.561 252.855 159.713 253.405 159.713C254.247 159.713 254.905 159.346 255.376 158.612C255.848 157.874 256.086 156.845 256.09 155.523H256C255.805 155.845 255.562 156.122 255.27 156.354C254.981 156.586 254.657 156.766 254.298 156.893C253.938 157.021 253.555 157.084 253.147 157.084C252.484 157.084 251.881 156.921 251.338 156.596C250.795 156.27 250.363 155.823 250.041 155.253C249.719 154.684 249.558 154.035 249.558 153.304C249.558 152.578 249.722 151.919 250.052 151.327C250.385 150.736 250.849 150.268 251.445 149.923C252.044 149.575 252.746 149.405 253.551 149.412ZM253.557 150.873C253.118 150.873 252.723 150.981 252.371 151.198C252.023 151.412 251.748 151.702 251.546 152.069C251.344 152.432 251.243 152.836 251.243 153.282C251.243 153.728 251.34 154.132 251.535 154.495C251.733 154.855 252.003 155.141 252.343 155.354C252.688 155.564 253.081 155.669 253.523 155.669C253.852 155.669 254.159 155.605 254.444 155.478C254.729 155.351 254.978 155.175 255.191 154.95C255.404 154.722 255.571 154.463 255.691 154.175C255.811 153.887 255.871 153.583 255.871 153.265C255.871 152.842 255.769 152.449 255.567 152.086C255.369 151.723 255.095 151.43 254.747 151.21C254.399 150.985 254.002 150.873 253.557 150.873ZM261.84 159.645C261.533 159.645 261.269 159.537 261.048 159.32C260.827 159.099 260.717 158.833 260.717 158.522C260.717 158.215 260.827 157.953 261.048 157.736C261.269 157.515 261.533 157.404 261.84 157.404C262.147 157.404 262.411 157.515 262.632 157.736C262.853 157.953 262.964 158.215 262.964 158.522C262.964 158.728 262.911 158.917 262.806 159.089C262.705 159.258 262.57 159.393 262.402 159.494C262.233 159.595 262.046 159.645 261.84 159.645ZM261.84 153.883C261.533 153.883 261.269 153.774 261.048 153.557C260.827 153.336 260.717 153.07 260.717 152.76C260.717 152.453 260.827 152.191 261.048 151.973C261.269 151.752 261.533 151.642 261.84 151.642C262.147 151.642 262.411 151.752 262.632 151.973C262.853 152.191 262.964 152.453 262.964 152.76C262.964 152.966 262.911 153.155 262.806 153.327C262.705 153.495 262.57 153.63 262.402 153.731C262.233 153.832 262.046 153.883 261.84 153.883ZM265.879 158.825V157.421L270.85 149.57H271.956V151.636H271.254L267.699 157.264V157.354H274.512V158.825H265.879ZM271.333 161.072V158.399L271.344 157.758V149.57H272.99V161.072H271.333ZM281.609 149.57V161.072H279.868V151.311H279.801L277.048 153.108V151.445L279.918 149.57H281.609Z" fill="black" style="fill:black;fill-opacity:1;"/>
<rect x="520.993" y="150.597" width="20.2456" height="8.62312" rx="2.11533" fill="black" style="fill:black;fill-opacity:1;"/>
<path d="M544.612 152.595V157.094C544.612 157.094 546.299 156.236 546.299 154.845C546.299 153.454 544.612 152.595 544.612 152.595Z" fill="white" fill-opacity="0.36" style="fill:white;fill-opacity:0.36;"/>
<path d="M522.779 148.443H539.45C540.853 148.443 541.362 148.589 541.876 148.864C542.389 149.138 542.792 149.541 543.066 150.054C543.341 150.567 543.487 151.077 543.487 152.48V157.341C543.487 158.744 543.341 159.253 543.066 159.767C542.792 160.28 542.389 160.683 541.876 160.957C541.362 161.232 540.853 161.378 539.45 161.378H522.779C521.376 161.378 520.867 161.232 520.353 160.957C519.84 160.683 519.437 160.28 519.163 159.767C518.888 159.253 518.742 158.744 518.742 157.341V152.48C518.742 151.077 518.888 150.567 519.163 150.054C519.437 149.541 519.84 149.138 520.353 148.864C520.867 148.589 521.376 148.443 522.779 148.443Z" fill="white" fill-opacity="0.36" style="fill:white;fill-opacity:0.36;"/>
<rect x="470.944" y="155.934" width="3.37427" height="4.49902" rx="1.5865" fill="black" style="fill:black;fill-opacity:1;"/>
<rect x="476.18" y="153.685" width="3.37427" height="6.74853" rx="1.5865" fill="black" style="fill:black;fill-opacity:1;"/>
<rect opacity="0.2" x="481.414" y="151.098" width="3.37427" height="9.33547" rx="1.5865" fill="black" style="fill:black;fill-opacity:1;"/>
<rect opacity="0.2" x="486.649" y="148.398" width="3.37427" height="12.0349" rx="1.5865" fill="black" style="fill:black;fill-opacity:1;"/>
<path opacity="0.2" fill-rule="evenodd" clip-rule="evenodd" d="M504.461 151.295C506.974 151.295 509.391 152.26 511.213 153.992C511.35 154.126 511.569 154.124 511.704 153.988L513.015 152.665C513.083 152.596 513.122 152.503 513.121 152.406C513.12 152.309 513.081 152.216 513.012 152.148C508.231 147.566 500.69 147.566 495.909 152.148C495.84 152.216 495.8 152.309 495.8 152.406C495.799 152.503 495.837 152.596 495.906 152.665L497.217 153.988C497.352 154.124 497.571 154.126 497.709 153.992C499.53 152.26 501.947 151.295 504.461 151.295V151.295Z" fill="black" style="fill:black;fill-opacity:1;"/>
<path fill-rule="evenodd" clip-rule="evenodd" d="M504.462 155.6C505.843 155.599 507.174 156.113 508.198 157.04C508.336 157.171 508.554 157.168 508.689 157.033L509.999 155.71C510.068 155.641 510.106 155.546 510.105 155.449C510.104 155.351 510.064 155.257 509.993 155.189C506.877 152.29 502.05 152.29 498.933 155.189C498.862 155.257 498.822 155.351 498.821 155.449C498.82 155.547 498.859 155.641 498.928 155.71L500.237 157.033C500.372 157.168 500.59 157.171 500.729 157.04C501.751 156.113 503.082 155.6 504.462 155.6V155.6Z" fill="black" style="fill:black;fill-opacity:1;"/>
<path fill-rule="evenodd" clip-rule="evenodd" d="M506.978 158.756C507.048 158.688 507.087 158.593 507.085 158.495C507.083 158.397 507.04 158.304 506.968 158.238C505.521 157.014 503.402 157.014 501.955 158.238C501.883 158.304 501.84 158.397 501.838 158.495C501.836 158.593 501.874 158.688 501.944 158.756L504.21 161.042C504.276 161.11 504.367 161.147 504.461 161.147C504.556 161.147 504.646 161.11 504.713 161.042L506.978 158.756Z" fill="black" style="fill:black;fill-opacity:1;"/>
<rect x="377" y="141" width="25" height="25" rx="12.5" fill="black" style="fill:black;fill-opacity:1;"/>
<path d="M511 113V127H269V113H511Z" fill="black" style="fill:black;fill-opacity:1;"/>
<path d="M203 874.004V874H189L189 874.95C188.999 889.695 188.999 902.152 190.333 912.075C191.75 922.614 194.898 932.367 202.766 940.234C210.633 948.102 220.386 951.25 230.925 952.667C240.848 954.001 253.305 954.001 268.049 954H269H511H511.951C526.695 954.001 539.152 954.001 549.075 952.667C559.614 951.25 569.367 948.102 577.234 940.234C585.102 932.367 588.25 922.614 589.667 912.075C591.001 902.152 591.001 889.695 591 874.951V874V193V192.049C591.001 177.305 591.001 164.848 589.667 154.925C588.25 144.386 585.102 134.633 577.234 126.766C569.367 118.898 559.614 115.75 549.075 114.333C539.152 112.999 526.695 112.999 511.95 113L511 113V127H511.004C542.114 127 557.67 127 567.335 136.665L567.78 137.123C577 146.821 577 162.373 577 193V874V874.004C577 905.114 577 920.67 567.335 930.335L566.877 930.78C557.795 939.415 543.578 939.963 516.653 939.998H263.347C235.966 939.963 221.727 939.396 212.665 930.335C203 920.67 203 905.114 203 874.004Z" fill="black" style="fill:black;fill-opacity:1;"/>
<path d="M189 192.05L189 193V533.5H203V193V192.996C203 161.886 203 146.33 212.665 136.665C222.33 127 237.886 127 268.996 127H269V113L268.05 113C253.305 112.999 240.848 112.999 230.925 114.333C220.386 115.75 210.633 118.898 202.766 126.766C194.898 134.633 191.75 144.386 190.333 154.925C188.999 164.848 188.999 177.305 189 192.05Z" fill="black" style="fill:black;fill-opacity:1;"/>
<defs>
<linearGradient id="paint0_linear_1178_41308" x1="187" y1="0" x2="187" y2="58" gradientUnits="userSpaceOnUse">
<stop stop-color="white" style="stop-color:white;stop-opacity:1;"/>
<stop offset="1" stop-color="white" stop-opacity="0" style="stop-color:none;stop-opacity:0;"/>
</linearGradient>
</defs>
</svg>
