<svg width="386" height="44" viewBox="0 0 386 44" fill="none" xmlns="http://www.w3.org/2000/svg">
<path d="M16.4283 32.1577V26.7947H17.3168C17.6193 26.5774 17.8963 26.2706 18.1477 25.8743C18.3991 25.4737 18.6143 24.9219 18.7933 24.2188C18.9723 23.5114 19.1001 22.5866 19.1768 21.4446L19.5476 15.9091H28.2088V26.7947H29.6406V32.1449H26.9815V29H19.0874V32.1577H16.4283ZM20.5128 26.7947H25.5497V18.1911H22.0405L21.8359 21.4446C21.7805 22.3097 21.6889 23.0767 21.5611 23.7457C21.4375 24.4148 21.2862 25.0007 21.1072 25.5036C20.9325 26.0021 20.7344 26.4325 20.5128 26.7947ZM35.7466 29.1918C34.7367 29.1918 33.8674 28.9872 33.1387 28.5781C32.4142 28.1648 31.856 27.581 31.464 26.8267C31.0719 26.0682 30.8759 25.1712 30.8759 24.1357C30.8759 23.1257 31.0719 22.2393 31.464 21.4766C31.856 20.7138 32.4078 20.1193 33.1195 19.6932C33.8354 19.267 34.6749 19.054 35.638 19.054C36.2857 19.054 36.8887 19.1584 37.4469 19.3672C38.0094 19.5717 38.4995 19.8807 38.9171 20.294C39.339 20.7074 39.6671 21.2273 39.9015 21.8537C40.1358 22.4759 40.253 23.2045 40.253 24.0398V24.7876H31.9625V23.1001H37.6898C37.6898 22.7081 37.6046 22.3608 37.4341 22.0582C37.2637 21.7557 37.0272 21.5192 36.7246 21.3487C36.4263 21.174 36.079 21.0866 35.6827 21.0866C35.2694 21.0866 34.9029 21.1825 34.5833 21.3743C34.2679 21.5618 34.0208 21.8153 33.8418 22.1349C33.6628 22.4503 33.5712 22.8018 33.5669 23.1896V24.794C33.5669 25.2798 33.6564 25.6996 33.8354 26.0533C34.0186 26.407 34.2765 26.6797 34.6088 26.8714C34.9412 27.0632 35.3354 27.1591 35.7914 27.1591C36.0939 27.1591 36.3709 27.1165 36.6223 27.0312C36.8738 26.946 37.089 26.8182 37.2679 26.6477C37.4469 26.4773 37.5833 26.2685 37.677 26.0213L40.1955 26.1875C40.0676 26.7926 39.8056 27.321 39.4093 27.7727C39.0172 28.2202 38.5101 28.5696 37.888 28.821C37.2701 29.0682 36.5563 29.1918 35.7466 29.1918ZM44.6316 25.4077L48.1664 19.1818H50.851V29H48.2559V22.755L44.7338 29H42.03V19.1818H44.6316V25.4077ZM47.6998 15.7557H49.5982C49.5939 16.5312 49.3063 17.1555 48.7353 17.6286C48.1685 18.1016 47.4015 18.3381 46.4341 18.3381C45.4625 18.3381 44.6934 18.1016 44.1266 17.6286C43.5598 17.1555 43.2765 16.5312 43.2765 15.7557H45.1621C45.1578 16.0497 45.2516 16.3139 45.4434 16.5483C45.6394 16.7827 45.9696 16.8999 46.4341 16.8999C46.8858 16.8999 47.2097 16.7848 47.4057 16.5547C47.6017 16.3246 47.6998 16.0582 47.6998 15.7557ZM57.47 29.1918C56.4643 29.1918 55.5993 28.9787 54.8748 28.5526C54.1547 28.1222 53.6007 27.5256 53.2129 26.7628C52.8294 26 52.6376 25.1222 52.6376 24.1293C52.6376 23.1236 52.8315 22.2415 53.2193 21.483C53.6113 20.7202 54.1674 20.1257 54.8876 19.6996C55.6078 19.2692 56.4643 19.054 57.4572 19.054C58.3137 19.054 59.0637 19.2095 59.7072 19.5206C60.3507 19.8317 60.8599 20.2685 61.2349 20.831C61.6099 21.3935 61.8166 22.054 61.8549 22.8125H59.2853C59.2129 22.3224 59.0211 21.9283 58.7101 21.63C58.4032 21.3274 58.0005 21.1761 57.502 21.1761C57.0801 21.1761 56.7115 21.2912 56.3961 21.5213C56.085 21.7472 55.8422 22.0774 55.6674 22.5121C55.4927 22.9467 55.4054 23.473 55.4054 24.0909C55.4054 24.7173 55.4906 25.25 55.661 25.6889C55.8358 26.1278 56.0808 26.4624 56.3961 26.6925C56.7115 26.9226 57.0801 27.0376 57.502 27.0376C57.813 27.0376 58.0922 26.9737 58.3393 26.8459C58.5907 26.718 58.7974 26.5327 58.9593 26.2898C59.1255 26.0426 59.2342 25.7464 59.2853 25.4013H61.8549C61.8123 26.1513 61.6078 26.8118 61.2413 27.3828C60.8791 27.9496 60.3784 28.3928 59.7392 28.7124C59.1 29.032 58.3436 29.1918 57.47 29.1918ZM62.9288 21.3232V19.1818H71.8265V21.3232H68.6625V29H66.0673V21.3232H62.9288ZM73.4773 29V19.1818H77.6641C78.8743 19.1818 79.831 19.4119 80.5341 19.8722C81.2372 20.3324 81.5888 20.9865 81.5888 21.8345C81.5888 22.3672 81.3906 22.8104 80.9943 23.1641C80.598 23.5178 80.0483 23.7564 79.3452 23.88C79.9332 23.9226 80.4339 24.0568 80.8473 24.2827C81.2649 24.5043 81.5824 24.7919 81.7997 25.1456C82.0213 25.4993 82.1321 25.8913 82.1321 26.3217C82.1321 26.88 81.983 27.3594 81.6847 27.7599C81.3906 28.1605 80.9581 28.4673 80.3871 28.6804C79.8203 28.8935 79.1278 29 78.3097 29H73.4773ZM76.0149 26.9609H78.3097C78.6889 26.9609 78.9851 26.8714 79.1982 26.6925C79.4155 26.5092 79.5241 26.2599 79.5241 25.9446C79.5241 25.5952 79.4155 25.3203 79.1982 25.12C78.9851 24.9197 78.6889 24.8196 78.3097 24.8196H76.0149V26.9609ZM76.0149 23.2216H77.7216C77.9943 23.2216 78.2266 23.1832 78.4183 23.1065C78.6143 23.0256 78.7635 22.9105 78.8658 22.7614C78.9723 22.6122 79.0256 22.4354 79.0256 22.2308C79.0256 21.9283 78.9041 21.6918 78.6612 21.5213C78.4183 21.3509 78.0859 21.2656 77.6641 21.2656H76.0149V23.2216ZM86.4499 25.4077L89.9847 19.1818H92.6694V29H90.0742V22.755L86.5522 29H83.8484V19.1818H86.4499V25.4077ZM100.605 29V21.3168H98.7642C98.2656 21.3168 97.8864 21.4318 97.6264 21.6619C97.3665 21.892 97.2386 22.1648 97.2429 22.4801C97.2386 22.7997 97.3622 23.0703 97.6136 23.2919C97.8693 23.5092 98.2443 23.6179 98.7386 23.6179H101.513V25.4588H98.7386C97.8991 25.4588 97.1726 25.331 96.5589 25.0753C95.9453 24.8196 95.4723 24.4638 95.1399 24.0078C94.8075 23.5476 94.6435 23.0128 94.6477 22.4034C94.6435 21.7642 94.8075 21.2038 95.1399 20.7223C95.4723 20.2365 95.9474 19.8594 96.5653 19.5909C97.1875 19.3182 97.9205 19.1818 98.7642 19.1818H103.143V29H100.605ZM94.3665 29L97.0959 23.8864H99.6974L96.9744 29H94.3665ZM113.861 29.1918C112.855 29.1918 111.99 28.9787 111.265 28.5526C110.545 28.1222 109.991 27.5256 109.604 26.7628C109.22 26 109.028 25.1222 109.028 24.1293C109.028 23.1236 109.222 22.2415 109.61 21.483C110.002 20.7202 110.558 20.1257 111.278 19.6996C111.998 19.2692 112.855 19.054 113.848 19.054C114.704 19.054 115.454 19.2095 116.098 19.5206C116.741 19.8317 117.251 20.2685 117.626 20.831C118.001 21.3935 118.207 22.054 118.246 22.8125H115.676C115.604 22.3224 115.412 21.9283 115.101 21.63C114.794 21.3274 114.391 21.1761 113.893 21.1761C113.471 21.1761 113.102 21.2912 112.787 21.5213C112.476 21.7472 112.233 22.0774 112.058 22.5121C111.883 22.9467 111.796 23.473 111.796 24.0909C111.796 24.7173 111.881 25.25 112.052 25.6889C112.226 26.1278 112.471 26.4624 112.787 26.6925C113.102 26.9226 113.471 27.0376 113.893 27.0376C114.204 27.0376 114.483 26.9737 114.73 26.8459C114.981 26.718 115.188 26.5327 115.35 26.2898C115.516 26.0426 115.625 25.7464 115.676 25.4013H118.246C118.203 26.1513 117.998 26.8118 117.632 27.3828C117.27 27.9496 116.769 28.3928 116.13 28.7124C115.491 29.032 114.734 29.1918 113.861 29.1918ZM124.155 29V19.1818H126.878V22.9915H127.645L130.317 19.1818H133.513L130.042 24.0526L133.551 29H130.317L127.894 25.5163H126.878V29H124.155ZM138.734 29.1918C137.741 29.1918 136.882 28.9808 136.158 28.5589C135.438 28.1328 134.881 27.5405 134.489 26.782C134.097 26.0192 133.901 25.1349 133.901 24.1293C133.901 23.1151 134.097 22.2287 134.489 21.4702C134.881 20.7074 135.438 20.1151 136.158 19.6932C136.882 19.267 137.741 19.054 138.734 19.054C139.727 19.054 140.583 19.267 141.303 19.6932C142.028 20.1151 142.586 20.7074 142.978 21.4702C143.37 22.2287 143.566 23.1151 143.566 24.1293C143.566 25.1349 143.37 26.0192 142.978 26.782C142.586 27.5405 142.028 28.1328 141.303 28.5589C140.583 28.9808 139.727 29.1918 138.734 29.1918ZM138.746 27.0824C139.198 27.0824 139.575 26.9545 139.878 26.6989C140.18 26.4389 140.408 26.0852 140.562 25.6378C140.719 25.1903 140.798 24.6811 140.798 24.1101C140.798 23.5391 140.719 23.0298 140.562 22.5824C140.408 22.1349 140.18 21.7812 139.878 21.5213C139.575 21.2614 139.198 21.1314 138.746 21.1314C138.29 21.1314 137.907 21.2614 137.596 21.5213C137.289 21.7812 137.057 22.1349 136.899 22.5824C136.746 23.0298 136.669 23.5391 136.669 24.1101C136.669 24.6811 136.746 25.1903 136.899 25.6378C137.057 26.0852 137.289 26.4389 137.596 26.6989C137.907 26.9545 138.29 27.0824 138.746 27.0824ZM151.141 25.9893L153.8 19.1818H155.871L152.042 29H150.233L146.494 19.1818H148.558L151.141 25.9893ZM147.938 19.1818V29H145.337V19.1818H147.938ZM154.477 29V19.1818H157.047V29H154.477ZM164.957 25.9893L167.616 19.1818H169.687L165.858 29H164.049L160.31 19.1818H162.375L164.957 25.9893ZM161.755 19.1818V29H159.153V19.1818H161.755ZM168.294 29V19.1818H170.863V29H168.294ZM174.299 32.6818C173.954 32.6818 173.63 32.6541 173.327 32.5987C173.029 32.5476 172.782 32.4815 172.586 32.4006L173.2 30.3679C173.519 30.4659 173.807 30.5192 174.062 30.5277C174.322 30.5362 174.546 30.4766 174.734 30.3487C174.925 30.2209 175.081 30.0036 175.2 29.6967L175.36 29.2812L171.838 19.1818H174.702L176.734 26.392H176.837L178.888 19.1818H181.771L177.955 30.0611C177.772 30.5895 177.523 31.0497 177.207 31.4418C176.896 31.8381 176.502 32.1428 176.025 32.3558C175.548 32.5732 174.972 32.6818 174.299 32.6818ZM182.653 21.3232V19.1818H191.551V21.3232H188.387V29H185.792V21.3232H182.653ZM195.65 29.1854C195.024 29.1854 194.465 29.0767 193.975 28.8594C193.485 28.6378 193.097 28.3118 192.812 27.8814C192.531 27.4467 192.39 26.9055 192.39 26.2578C192.39 25.7124 192.49 25.2543 192.691 24.8835C192.891 24.5128 193.164 24.2145 193.509 23.9886C193.854 23.7628 194.246 23.5923 194.685 23.4773C195.128 23.3622 195.593 23.2812 196.078 23.2344C196.649 23.1747 197.11 23.1193 197.459 23.0682C197.808 23.0128 198.062 22.9318 198.22 22.8253C198.377 22.7187 198.456 22.5611 198.456 22.3523V22.3139C198.456 21.9091 198.328 21.5959 198.073 21.3743C197.821 21.1527 197.463 21.0419 196.999 21.0419C196.509 21.0419 196.119 21.1506 195.829 21.3679C195.539 21.581 195.347 21.8494 195.254 22.1733L192.735 21.9688C192.863 21.3722 193.115 20.8565 193.49 20.4219C193.865 19.983 194.348 19.6463 194.941 19.4119C195.537 19.1733 196.227 19.054 197.012 19.054C197.557 19.054 198.079 19.1179 198.578 19.2457C199.08 19.3736 199.526 19.5717 199.914 19.8402C200.306 20.1087 200.615 20.4538 200.84 20.8757C201.066 21.2933 201.179 21.794 201.179 22.3778V29H198.597V27.6385H198.52C198.362 27.9453 198.151 28.2159 197.887 28.4503C197.623 28.6804 197.306 28.8615 196.935 28.9936C196.564 29.1214 196.136 29.1854 195.65 29.1854ZM196.43 27.3061C196.83 27.3061 197.184 27.2273 197.491 27.0696C197.798 26.9077 198.039 26.6903 198.213 26.4176C198.388 26.1449 198.475 25.8359 198.475 25.4908V24.4489C198.39 24.5043 198.273 24.5554 198.124 24.6023C197.979 24.6449 197.815 24.6854 197.632 24.7237C197.448 24.7578 197.265 24.7898 197.082 24.8196C196.899 24.8452 196.732 24.8686 196.583 24.8899C196.264 24.9368 195.985 25.0114 195.746 25.1136C195.507 25.2159 195.322 25.3544 195.19 25.5291C195.058 25.6996 194.992 25.9126 194.992 26.1683C194.992 26.5391 195.126 26.8224 195.394 27.0185C195.667 27.2102 196.012 27.3061 196.43 27.3061ZM202.306 21.3232V19.1818H211.203V21.3232H208.039V29H205.444V21.3232H202.306ZM216.939 29.1918C215.946 29.1918 215.087 28.9808 214.363 28.5589C213.643 28.1328 213.086 27.5405 212.694 26.782C212.302 26.0192 212.106 25.1349 212.106 24.1293C212.106 23.1151 212.302 22.2287 212.694 21.4702C213.086 20.7074 213.643 20.1151 214.363 19.6932C215.087 19.267 215.946 19.054 216.939 19.054C217.932 19.054 218.788 19.267 219.508 19.6932C220.233 20.1151 220.791 20.7074 221.183 21.4702C221.575 22.2287 221.771 23.1151 221.771 24.1293C221.771 25.1349 221.575 26.0192 221.183 26.782C220.791 27.5405 220.233 28.1328 219.508 28.5589C218.788 28.9808 217.932 29.1918 216.939 29.1918ZM216.952 27.0824C217.403 27.0824 217.78 26.9545 218.083 26.6989C218.385 26.4389 218.613 26.0852 218.767 25.6378C218.925 25.1903 219.003 24.6811 219.003 24.1101C219.003 23.5391 218.925 23.0298 218.767 22.5824C218.613 22.1349 218.385 21.7812 218.083 21.5213C217.78 21.2614 217.403 21.1314 216.952 21.1314C216.496 21.1314 216.112 21.2614 215.801 21.5213C215.494 21.7812 215.262 22.1349 215.104 22.5824C214.951 23.0298 214.874 23.5391 214.874 24.1101C214.874 24.6811 214.951 25.1903 215.104 25.6378C215.262 26.0852 215.494 26.4389 215.801 26.6989C216.112 26.9545 216.496 27.0824 216.952 27.0824ZM223.542 32.6818V19.1818H226.226V20.831H226.348C226.467 20.5668 226.64 20.2983 226.866 20.0256C227.096 19.7486 227.394 19.5185 227.76 19.3352C228.131 19.1477 228.591 19.054 229.141 19.054C229.857 19.054 230.518 19.2415 231.123 19.6165C231.728 19.9872 232.211 20.5476 232.574 21.2976C232.936 22.0433 233.117 22.9787 233.117 24.1037C233.117 25.1989 232.94 26.1236 232.586 26.8778C232.237 27.6278 231.76 28.1967 231.155 28.5845C230.554 28.968 229.881 29.1598 229.135 29.1598C228.606 29.1598 228.157 29.0724 227.786 28.8977C227.42 28.723 227.119 28.5036 226.885 28.2393C226.65 27.9709 226.471 27.7003 226.348 27.4276H226.265V32.6818H223.542ZM226.207 24.0909C226.207 24.6747 226.288 25.1839 226.45 25.6186C226.612 26.0533 226.846 26.392 227.153 26.6349C227.46 26.8736 227.833 26.9929 228.272 26.9929C228.715 26.9929 229.09 26.8714 229.397 26.6286C229.704 26.3814 229.936 26.0405 230.094 25.6058C230.256 25.1669 230.336 24.6619 230.336 24.0909C230.336 23.5241 230.258 23.0256 230.1 22.5952C229.942 22.1648 229.71 21.8281 229.403 21.5852C229.096 21.3423 228.719 21.2209 228.272 21.2209C227.829 21.2209 227.454 21.3381 227.147 21.5724C226.844 21.8068 226.612 22.1392 226.45 22.5696C226.288 23 226.207 23.5071 226.207 24.0909ZM239.368 29.1918C238.376 29.1918 237.517 28.9808 236.792 28.5589C236.072 28.1328 235.516 27.5405 235.124 26.782C234.732 26.0192 234.536 25.1349 234.536 24.1293C234.536 23.1151 234.732 22.2287 235.124 21.4702C235.516 20.7074 236.072 20.1151 236.792 19.6932C237.517 19.267 238.376 19.054 239.368 19.054C240.361 19.054 241.218 19.267 241.938 19.6932C242.662 20.1151 243.221 20.7074 243.613 21.4702C244.005 22.2287 244.201 23.1151 244.201 24.1293C244.201 25.1349 244.005 26.0192 243.613 26.782C243.221 27.5405 242.662 28.1328 241.938 28.5589C241.218 28.9808 240.361 29.1918 239.368 29.1918ZM239.381 27.0824C239.833 27.0824 240.21 26.9545 240.513 26.6989C240.815 26.4389 241.043 26.0852 241.197 25.6378C241.354 25.1903 241.433 24.6811 241.433 24.1101C241.433 23.5391 241.354 23.0298 241.197 22.5824C241.043 22.1349 240.815 21.7812 240.513 21.5213C240.21 21.2614 239.833 21.1314 239.381 21.1314C238.925 21.1314 238.542 21.2614 238.231 21.5213C237.924 21.7812 237.692 22.1349 237.534 22.5824C237.381 23.0298 237.304 23.5391 237.304 24.1101C237.304 24.6811 237.381 25.1903 237.534 25.6378C237.692 26.0852 237.924 26.4389 238.231 26.6989C238.542 26.9545 238.925 27.0824 239.381 27.0824ZM251.775 25.9893L254.434 19.1818H256.506L252.677 29H250.868L247.128 19.1818H249.193L251.775 25.9893ZM248.573 19.1818V29H245.971V19.1818H248.573ZM255.112 29V19.1818H257.682V29H255.112Z" fill="#221E1E" style="fill:#221E1E;fill:color(display-p3 0.1333 0.1183 0.1183);fill-opacity:1;"/>
<mask id="mask0_1304_237637" style="mask-type:alpha" maskUnits="userSpaceOnUse" x="348" y="10" width="24" height="24">
<rect x="348" y="10" width="24" height="24" fill="#D9D9D9" style="fill:#D9D9D9;fill:color(display-p3 0.8510 0.8510 0.8510);fill-opacity:1;"/>
</mask>
<g mask="url(#mask0_1304_237637)">
<path d="M355 24.5L360 19.5L365 24.5" stroke="black" stroke-opacity="0.65" style="stroke:black;stroke-opacity:0.65;" stroke-width="2" stroke-linecap="round"/>
</g>
</svg>
