<svg width="386" height="60" viewBox="0 0 386 60" fill="none" xmlns="http://www.w3.org/2000/svg">
<path d="M18.4652 5.54545V15H17.0387V5.54545H18.4652ZM20.4318 17.6591V7.90909H21.7798V9.05859H21.8952C21.9753 8.91087 22.0907 8.74006 22.2415 8.54616C22.3923 8.35227 22.6016 8.183 22.8693 8.03835C23.1371 7.89062 23.491 7.81676 23.9311 7.81676C24.5036 7.81676 25.0144 7.96141 25.4638 8.25071C25.9131 8.54001 26.2655 8.95703 26.521 9.50178C26.7795 10.0465 26.9087 10.7021 26.9087 11.4684C26.9087 12.2347 26.781 12.8918 26.5256 13.4396C26.2701 13.9844 25.9193 14.4045 25.473 14.6999C25.0268 14.9923 24.5174 15.1385 23.945 15.1385C23.5141 15.1385 23.1617 15.0662 22.8878 14.9215C22.617 14.7769 22.4046 14.6076 22.2507 14.4137C22.0968 14.2198 21.9783 14.0475 21.8952 13.8967H21.8121V17.6591H20.4318ZM21.7844 11.4545C21.7844 11.9531 21.8568 12.3902 22.0014 12.7656C22.1461 13.1411 22.3554 13.435 22.6293 13.6474C22.9032 13.8567 23.2386 13.9613 23.6357 13.9613C24.0481 13.9613 24.3928 13.852 24.6697 13.6335C24.9467 13.4119 25.156 13.1119 25.2976 12.7333C25.4422 12.3548 25.5146 11.9285 25.5146 11.4545C25.5146 10.9867 25.4438 10.5666 25.3022 10.1942C25.1637 9.82185 24.9544 9.52794 24.6744 9.3125C24.3974 9.09706 24.0511 8.98935 23.6357 8.98935C23.2356 8.98935 22.897 9.09245 22.62 9.29865C22.3461 9.50485 22.1384 9.79261 21.9968 10.1619C21.8552 10.5312 21.7844 10.9621 21.7844 11.4545Z" fill="#676767" style="fill:#676767;fill:color(display-p3 0.4039 0.4039 0.4039);fill-opacity:1;"/>
<rect x="28.25" y="17.25" width="251.5" height="0.5" stroke="#ADABAB" style="stroke:#ADABAB;stroke:color(display-p3 0.6784 0.6706 0.6706);stroke-opacity:1;" stroke-width="0.5" stroke-dasharray="1 1"/>
<path d="M284.496 5.54545V15H283.065V6.97656H283.01L280.748 8.45384V7.08736L283.107 5.54545H284.496ZM290.198 5.41619C290.619 5.41927 291.035 5.49621 291.444 5.64702C291.854 5.79782 292.223 6.04403 292.552 6.38565C292.885 6.72727 293.149 7.18892 293.346 7.7706C293.546 8.34919 293.648 9.06937 293.651 9.93111C293.651 10.759 293.568 11.4961 293.402 12.1424C293.235 12.7856 292.997 13.3288 292.686 13.772C292.378 14.2152 292.004 14.5522 291.564 14.783C291.124 15.0138 290.629 15.1293 290.078 15.1293C289.515 15.1293 289.014 15.0185 288.577 14.7969C288.14 14.5753 287.785 14.2691 287.511 13.8782C287.237 13.4843 287.066 13.0318 286.999 12.521H288.407C288.499 12.9272 288.687 13.2565 288.97 13.5089C289.256 13.7582 289.625 13.8828 290.078 13.8828C290.77 13.8828 291.31 13.5812 291.698 12.978C292.086 12.3717 292.281 11.5253 292.284 10.4389H292.211C292.051 10.7036 291.85 10.9313 291.61 11.1222C291.373 11.313 291.107 11.4607 290.812 11.5653C290.516 11.67 290.201 11.7223 289.865 11.7223C289.321 11.7223 288.825 11.5884 288.379 11.3207C287.933 11.0529 287.577 10.6851 287.312 10.2173C287.048 9.74953 286.915 9.21555 286.915 8.61541C286.915 8.01835 287.051 7.47668 287.322 6.99041C287.596 6.50414 287.977 6.11944 288.467 5.83629C288.959 5.55007 289.536 5.41004 290.198 5.41619ZM290.202 6.61648C289.842 6.61648 289.518 6.70573 289.228 6.88423C288.942 7.05966 288.716 7.29818 288.55 7.59979C288.384 7.89832 288.3 8.23071 288.3 8.59695C288.3 8.96319 288.38 9.29557 288.54 9.5941C288.704 9.88956 288.925 10.125 289.205 10.3004C289.488 10.4728 289.812 10.5589 290.175 10.5589C290.446 10.5589 290.698 10.5066 290.932 10.402C291.166 10.2973 291.37 10.1527 291.546 9.96804C291.721 9.7803 291.858 9.56794 291.957 9.33097C292.055 9.09399 292.104 8.8447 292.104 8.5831C292.104 8.23532 292.021 7.91217 291.855 7.61364C291.692 7.3151 291.467 7.07505 291.181 6.89347C290.895 6.70881 290.569 6.61648 290.202 6.61648ZM295.319 15V13.9659L298.518 10.6513C298.859 10.2912 299.141 9.97573 299.363 9.7049C299.587 9.43099 299.755 9.17093 299.866 8.92472C299.977 8.6785 300.032 8.4169 300.032 8.13991C300.032 7.82599 299.958 7.55516 299.81 7.32741C299.663 7.09659 299.461 6.91963 299.206 6.79652C298.95 6.67034 298.662 6.60724 298.342 6.60724C298.004 6.60724 297.708 6.67649 297.456 6.81499C297.204 6.95348 297.01 7.14891 296.874 7.40128C296.739 7.65365 296.671 7.9491 296.671 8.28764H295.309C295.309 7.71212 295.442 7.20893 295.706 6.77805C295.971 6.34718 296.334 6.01326 296.796 5.77628C297.258 5.53622 297.782 5.41619 298.37 5.41619C298.964 5.41619 299.487 5.53468 299.94 5.77166C300.395 6.00556 300.751 6.32564 301.006 6.73189C301.262 7.13506 301.389 7.59055 301.389 8.09837C301.389 8.44922 301.323 8.79238 301.191 9.12784C301.062 9.4633 300.835 9.83724 300.512 10.2496C300.189 10.659 299.74 11.156 299.164 11.7408L297.285 13.7074V13.7766H301.542V15H295.319ZM304.219 15.0877C303.967 15.0877 303.75 14.9985 303.568 14.82C303.387 14.6384 303.296 14.4199 303.296 14.1644C303.296 13.9121 303.387 13.6966 303.568 13.5181C303.75 13.3365 303.967 13.2457 304.219 13.2457C304.472 13.2457 304.689 13.3365 304.87 13.5181C305.052 13.6966 305.142 13.9121 305.142 14.1644C305.142 14.3337 305.099 14.4891 305.013 14.6307C304.93 14.7692 304.819 14.88 304.681 14.9631C304.542 15.0462 304.388 15.0877 304.219 15.0877ZM309.417 5.54545V15H307.986V6.97656H307.931L305.669 8.45384V7.08736L308.028 5.54545H309.417ZM315.276 15.1293C314.854 15.1231 314.439 15.0462 314.029 14.8984C313.623 14.7507 313.254 14.5045 312.921 14.1598C312.589 13.8151 312.323 13.3519 312.123 12.7702C311.926 12.1886 311.827 11.4622 311.827 10.5913C311.827 9.76645 311.909 9.03397 312.072 8.39382C312.238 7.75367 312.477 7.21354 312.787 6.77344C313.098 6.33026 313.474 5.99325 313.914 5.76243C314.354 5.5316 314.848 5.41619 315.396 5.41619C315.959 5.41619 316.459 5.52699 316.896 5.74858C317.333 5.97017 317.687 6.2764 317.958 6.66726C318.232 7.05812 318.406 7.50284 318.479 8.00142H317.071C316.976 7.60748 316.787 7.28587 316.504 7.03658C316.22 6.78729 315.851 6.66264 315.396 6.66264C314.703 6.66264 314.163 6.96425 313.775 7.56747C313.391 8.17069 313.197 9.00935 313.194 10.0835H313.263C313.426 9.8157 313.626 9.58795 313.863 9.40021C314.103 9.2094 314.371 9.06321 314.666 8.96165C314.965 8.85701 315.279 8.80469 315.608 8.80469C316.156 8.80469 316.651 8.93857 317.095 9.20632C317.541 9.471 317.896 9.83724 318.161 10.305C318.426 10.7728 318.558 11.3084 318.558 11.9116C318.558 12.5148 318.421 13.0611 318.147 13.5504C317.876 14.0398 317.495 14.4276 317.002 14.7138C316.51 14.9969 315.934 15.1354 315.276 15.1293ZM315.271 13.929C315.634 13.929 315.959 13.8397 316.245 13.6612C316.531 13.4827 316.758 13.2427 316.924 12.9411C317.09 12.6394 317.173 12.3024 317.173 11.93C317.173 11.5669 317.091 11.236 316.928 10.9375C316.768 10.639 316.547 10.402 316.264 10.2266C315.984 10.0511 315.663 9.96342 315.303 9.96342C315.029 9.96342 314.776 10.0157 314.542 10.1204C314.311 10.225 314.108 10.3697 313.932 10.5543C313.757 10.739 313.618 10.9513 313.517 11.1914C313.418 11.4284 313.369 11.6792 313.369 11.9439C313.369 12.2978 313.451 12.6256 313.614 12.9272C313.78 13.2288 314.006 13.4719 314.292 13.6566C314.582 13.8382 314.908 13.929 315.271 13.929ZM323.434 15.1293C322.772 15.1293 322.188 15.0154 321.68 14.7876C321.175 14.5599 320.78 14.246 320.493 13.8459C320.207 13.4458 320.066 12.9903 320.069 12.4794C320.066 12.0793 320.147 11.7115 320.313 11.3761C320.483 11.0375 320.712 10.7559 321.001 10.5312C321.291 10.3035 321.614 10.1589 321.971 10.0973V10.0419C321.5 9.92803 321.123 9.67566 320.84 9.2848C320.557 8.89394 320.416 8.4446 320.42 7.93679C320.416 7.4536 320.544 7.02273 320.803 6.64418C321.064 6.26255 321.423 5.96248 321.878 5.74396C322.334 5.52545 322.852 5.41619 323.434 5.41619C324.01 5.41619 324.524 5.52699 324.976 5.74858C325.432 5.96709 325.79 6.26716 326.052 6.64879C326.313 7.02734 326.446 7.45668 326.449 7.93679C326.446 8.4446 326.301 8.89394 326.015 9.2848C325.729 9.67566 325.356 9.92803 324.898 10.0419V10.0973C325.251 10.1589 325.57 10.3035 325.853 10.5312C326.139 10.7559 326.367 11.0375 326.536 11.3761C326.709 11.7115 326.796 12.0793 326.8 12.4794C326.796 12.9903 326.652 13.4458 326.366 13.8459C326.079 14.246 325.682 14.5599 325.175 14.7876C324.67 15.0154 324.09 15.1293 323.434 15.1293ZM323.434 13.9613C323.825 13.9613 324.164 13.8967 324.45 13.7674C324.736 13.6351 324.958 13.4519 325.115 13.218C325.271 12.9811 325.352 12.7041 325.355 12.3871C325.352 12.0578 325.265 11.7669 325.096 11.5146C324.93 11.2622 324.704 11.0637 324.417 10.919C324.131 10.7744 323.803 10.7021 323.434 10.7021C323.062 10.7021 322.731 10.7744 322.442 10.919C322.152 11.0637 321.925 11.2622 321.758 11.5146C321.592 11.7669 321.511 12.0578 321.514 12.3871C321.511 12.7041 321.586 12.9811 321.74 13.218C321.897 13.4519 322.12 13.6351 322.409 13.7674C322.699 13.8967 323.04 13.9613 323.434 13.9613ZM323.434 9.56179C323.748 9.56179 324.027 9.4987 324.27 9.37251C324.513 9.24633 324.704 9.0709 324.842 8.84624C324.984 8.62157 325.056 8.35843 325.059 8.05682C325.056 7.76136 324.985 7.50284 324.847 7.28125C324.711 7.05966 324.522 6.88885 324.279 6.76882C324.036 6.64571 323.754 6.58416 323.434 6.58416C323.108 6.58416 322.822 6.64571 322.575 6.76882C322.332 6.88885 322.143 7.05966 322.008 7.28125C321.872 7.50284 321.806 7.76136 321.809 8.05682C321.806 8.35843 321.874 8.62157 322.012 8.84624C322.151 9.0709 322.342 9.24633 322.585 9.37251C322.831 9.4987 323.114 9.56179 323.434 9.56179ZM329.102 15.0877C328.85 15.0877 328.633 14.9985 328.451 14.82C328.27 14.6384 328.179 14.4199 328.179 14.1644C328.179 13.9121 328.27 13.6966 328.451 13.5181C328.633 13.3365 328.85 13.2457 329.102 13.2457C329.354 13.2457 329.571 13.3365 329.753 13.5181C329.935 13.6966 330.025 13.9121 330.025 14.1644C330.025 14.3337 329.982 14.4891 329.896 14.6307C329.813 14.7692 329.702 14.88 329.564 14.9631C329.425 15.0462 329.271 15.0877 329.102 15.0877ZM334.805 15.1293C334.171 15.1293 333.604 15.02 333.106 14.8015C332.61 14.583 332.218 14.2798 331.928 13.892C331.642 13.5012 331.488 13.0488 331.467 12.5348H332.916C332.935 12.8149 333.029 13.058 333.198 13.2642C333.37 13.4673 333.595 13.6243 333.872 13.7351C334.149 13.8459 334.457 13.9013 334.795 13.9013C335.168 13.9013 335.497 13.8366 335.783 13.7074C336.073 13.5781 336.299 13.3981 336.462 13.1673C336.625 12.9334 336.706 12.6641 336.706 12.3594C336.706 12.0424 336.625 11.7638 336.462 11.5238C336.302 11.2807 336.066 11.0898 335.756 10.9513C335.448 10.8129 335.075 10.7436 334.638 10.7436H333.84V9.58026H334.638C334.989 9.58026 335.297 9.51716 335.562 9.39098C335.829 9.2648 336.039 9.08937 336.189 8.8647C336.34 8.63696 336.416 8.37074 336.416 8.06605C336.416 7.77367 336.349 7.51977 336.217 7.30433C336.088 7.08582 335.903 6.91501 335.663 6.7919C335.426 6.6688 335.146 6.60724 334.823 6.60724C334.515 6.60724 334.227 6.66418 333.96 6.77805C333.695 6.88885 333.48 7.04889 333.313 7.25817C333.147 7.46437 333.058 7.71212 333.046 8.00142H331.665C331.681 7.49053 331.831 7.04119 332.118 6.65341C332.407 6.26562 332.789 5.96248 333.263 5.74396C333.737 5.52545 334.263 5.41619 334.841 5.41619C335.448 5.41619 335.971 5.53468 336.411 5.77166C336.854 6.00556 337.196 6.31794 337.436 6.70881C337.679 7.09967 337.799 7.52746 337.796 7.99219C337.799 8.52154 337.651 8.97088 337.353 9.3402C337.057 9.70952 336.663 9.95727 336.171 10.0835V10.1573C336.799 10.2527 337.285 10.502 337.63 10.9052C337.978 11.3084 338.15 11.8085 338.147 12.4055C338.15 12.9257 338.005 13.3919 337.713 13.8043C337.424 14.2167 337.028 14.5414 336.526 14.7784C336.025 15.0123 335.451 15.1293 334.805 15.1293ZM339.693 13.1534V11.9993L343.779 5.54545H344.688V7.24432H344.111L341.189 11.87V11.9439H346.789V13.1534H339.693ZM344.176 15V12.8026L344.185 12.2763V5.54545H345.538V15H344.176ZM348.97 15.0877C348.718 15.0877 348.501 14.9985 348.319 14.82C348.138 14.6384 348.047 14.4199 348.047 14.1644C348.047 13.9121 348.138 13.6966 348.319 13.5181C348.501 13.3365 348.718 13.2457 348.97 13.2457C349.223 13.2457 349.44 13.3365 349.621 13.5181C349.803 13.6966 349.893 13.9121 349.893 14.1644C349.893 14.3337 349.85 14.4891 349.764 14.6307C349.681 14.7692 349.57 14.88 349.432 14.9631C349.293 15.0462 349.139 15.0877 348.97 15.0877ZM354.168 5.54545V15H352.737V6.97656H352.682L350.42 8.45384V7.08736L352.779 5.54545H354.168ZM360.313 5.54545V15H358.882V6.97656H358.826L356.564 8.45384V7.08736L358.923 5.54545H360.313ZM363.189 15L367.316 6.83807V6.76882H362.543V5.54545H368.793V6.81037L364.68 15H363.189Z" fill="#221E1E" style="fill:#221E1E;fill:color(display-p3 0.1333 0.1183 0.1183);fill-opacity:1;"/>
<path d="M24.8913 28.62H23.451C23.3956 28.3123 23.2925 28.0414 23.1417 27.8075C22.9909 27.5736 22.8062 27.3751 22.5877 27.212C22.3692 27.0489 22.1245 26.9258 21.8537 26.8427C21.5859 26.7596 21.3013 26.718 20.9996 26.718C20.4549 26.718 19.9671 26.855 19.5362 27.1289C19.1084 27.4028 18.7699 27.8045 18.5206 28.3338C18.2744 28.8632 18.1513 29.5095 18.1513 30.2727C18.1513 31.0421 18.2744 31.6915 18.5206 32.2209C18.7699 32.7502 19.11 33.1503 19.5408 33.4212C19.9717 33.692 20.4564 33.8274 20.995 33.8274C21.2936 33.8274 21.5767 33.7874 21.8445 33.7074C22.1153 33.6243 22.36 33.5027 22.5785 33.3427C22.797 33.1826 22.9817 32.9872 23.1325 32.7564C23.2863 32.5225 23.3925 32.2547 23.451 31.9531L24.8913 31.9577C24.8144 32.4225 24.6651 32.8503 24.4435 33.2411C24.225 33.6289 23.9434 33.9644 23.5987 34.2475C23.2571 34.5276 22.8662 34.7446 22.4261 34.8984C21.986 35.0523 21.5059 35.1293 20.9858 35.1293C20.1671 35.1293 19.4377 34.9354 18.7976 34.5476C18.1574 34.1567 17.6527 33.5981 17.2834 32.8718C16.9171 32.1455 16.734 31.2791 16.734 30.2727C16.734 29.2633 16.9187 28.3969 17.288 27.6737C17.6573 26.9473 18.1621 26.3903 18.8022 26.0025C19.4424 25.6116 20.1702 25.4162 20.9858 25.4162C21.4875 25.4162 21.9553 25.4885 22.3892 25.6332C22.8262 25.7747 23.2186 25.984 23.5664 26.261C23.9142 26.5349 24.2019 26.8704 24.4297 27.2674C24.6574 27.6613 24.8113 28.1122 24.8913 28.62ZM27.8401 33.0657L30.9655 27.9091H32.452V35H31.0993V29.8388L27.9878 35H26.4875V27.9091H27.8401V33.0657ZM37.2947 35.1431C36.6083 35.1431 36.0174 34.9877 35.5219 34.6768C35.0295 34.3629 34.651 33.9305 34.3863 33.3796C34.1216 32.8287 33.9893 32.1978 33.9893 31.4869C33.9893 30.7667 34.1247 30.1312 34.3955 29.5803C34.6663 29.0263 35.048 28.5939 35.5404 28.283C36.0328 27.9722 36.613 27.8168 37.2808 27.8168C37.8194 27.8168 38.2995 27.9168 38.7211 28.1168C39.1428 28.3138 39.4829 28.5908 39.7414 28.9478C40.003 29.3048 40.1584 29.7218 40.2077 30.1989H38.8643C38.7904 29.8665 38.6211 29.5803 38.3564 29.3402C38.0948 29.1001 37.744 28.9801 37.3039 28.9801C36.9192 28.9801 36.5822 29.0817 36.2929 29.2848C36.0067 29.4848 35.7835 29.7711 35.6235 30.1435C35.4635 30.5128 35.3834 30.9498 35.3834 31.4545C35.3834 31.9716 35.4619 32.4179 35.6189 32.7933C35.7758 33.1688 35.9974 33.4596 36.2836 33.6658C36.5729 33.872 36.913 33.9751 37.3039 33.9751C37.5655 33.9751 37.8025 33.9274 38.0148 33.832C38.2303 33.7335 38.4103 33.5935 38.555 33.4119C38.7027 33.2304 38.8058 33.0118 38.8643 32.7564H40.2077C40.1584 33.215 40.0091 33.6243 39.7599 33.9844C39.5106 34.3445 39.1766 34.6276 38.7581 34.8338C38.3426 35.04 37.8548 35.1431 37.2947 35.1431ZM41.1471 29.1001V27.9091H47.1301V29.1001H44.8172V35H43.4692V29.1001H41.1471ZM51.3161 35.1431C50.6174 35.1431 50.0157 34.9938 49.511 34.6953C49.0094 34.3937 48.6216 33.9705 48.3477 33.4258C48.0768 32.878 47.9414 32.2363 47.9414 31.5007C47.9414 30.7744 48.0768 30.1342 48.3477 29.5803C48.6216 29.0263 49.0032 28.5939 49.4925 28.283C49.985 27.9722 50.5605 27.8168 51.2191 27.8168C51.6192 27.8168 52.007 27.8829 52.3825 28.0153C52.7579 28.1476 53.0949 28.3554 53.3935 28.6385C53.692 28.9216 53.9274 29.2894 54.0998 29.7418C54.2721 30.1912 54.3583 30.7375 54.3583 31.3807V31.87H48.7216V30.8359H53.0057C53.0057 30.4728 52.9318 30.1512 52.7841 29.8711C52.6364 29.5879 52.4286 29.3648 52.1609 29.2017C51.8962 29.0386 51.5853 28.957 51.2283 28.957C50.8406 28.957 50.502 29.0524 50.2127 29.2433C49.9265 29.431 49.7049 29.6772 49.5479 29.9819C49.3941 30.2835 49.3171 30.6113 49.3171 30.9652V31.7731C49.3171 32.247 49.4002 32.6502 49.5664 32.9826C49.7357 33.315 49.9711 33.5689 50.2727 33.7443C50.5743 33.9167 50.9267 34.0028 51.3299 34.0028C51.5915 34.0028 51.83 33.9659 52.0455 33.892C52.2609 33.8151 52.4471 33.7012 52.604 33.5504C52.761 33.3996 52.881 33.2134 52.9641 32.9918L54.2706 33.2273C54.166 33.612 53.9782 33.949 53.7074 34.2383C53.4396 34.5245 53.1026 34.7476 52.6964 34.9077C52.2932 35.0646 51.8331 35.1431 51.3161 35.1431ZM59.8692 33.2919L62.159 27.9091H63.3501L60.3817 35H59.3568L56.4484 27.9091H57.6256L59.8692 33.2919ZM57.2425 27.9091V35H55.8898V27.9091H57.2425ZM62.5329 35V27.9091H63.8763V35H62.5329ZM70.5218 30.859V32.0547H66.6808V30.859H70.5218ZM67.0686 27.9091V35H65.716V27.9091H67.0686ZM71.4866 27.9091V35H70.1386V27.9091H71.4866ZM76.32 35.1431C75.6553 35.1431 75.0751 34.9908 74.5796 34.6861C74.0841 34.3814 73.6994 33.9551 73.4255 33.4073C73.1516 32.8595 73.0146 32.2193 73.0146 31.4869C73.0146 30.7513 73.1516 30.1081 73.4255 29.5572C73.6994 29.0063 74.0841 28.5785 74.5796 28.2738C75.0751 27.9691 75.6553 27.8168 76.32 27.8168C76.9848 27.8168 77.565 27.9691 78.0605 28.2738C78.556 28.5785 78.9407 29.0063 79.2146 29.5572C79.4885 30.1081 79.6254 30.7513 79.6254 31.4869C79.6254 32.2193 79.4885 32.8595 79.2146 33.4073C78.9407 33.9551 78.556 34.3814 78.0605 34.6861C77.565 34.9908 76.9848 35.1431 76.32 35.1431ZM76.3247 33.9844C76.7555 33.9844 77.1125 33.8705 77.3957 33.6428C77.6788 33.415 77.8881 33.1119 78.0235 32.7333C78.162 32.3548 78.2313 31.9377 78.2313 31.4822C78.2313 31.0298 78.162 30.6143 78.0235 30.2358C77.8881 29.8542 77.6788 29.5479 77.3957 29.3171C77.1125 29.0863 76.7555 28.9709 76.3247 28.9709C75.8907 28.9709 75.5306 29.0863 75.2444 29.3171C74.9613 29.5479 74.7504 29.8542 74.6119 30.2358C74.4765 30.6143 74.4088 31.0298 74.4088 31.4822C74.4088 31.9377 74.4765 32.3548 74.6119 32.7333C74.7504 33.1119 74.9613 33.415 75.2444 33.6428C75.5306 33.8705 75.8907 33.9844 76.3247 33.9844ZM84.2223 35.1431C83.5237 35.1431 82.922 34.9938 82.4173 34.6953C81.9156 34.3937 81.5278 33.9705 81.2539 33.4258C80.9831 32.878 80.8477 32.2363 80.8477 31.5007C80.8477 30.7744 80.9831 30.1342 81.2539 29.5803C81.5278 29.0263 81.9094 28.5939 82.3988 28.283C82.8912 27.9722 83.4667 27.8168 84.1254 27.8168C84.5254 27.8168 84.9132 27.8829 85.2887 28.0153C85.6642 28.1476 86.0012 28.3554 86.2997 28.6385C86.5982 28.9216 86.8337 29.2894 87.006 29.7418C87.1784 30.1912 87.2646 30.7375 87.2646 31.3807V31.87H81.6278V30.8359H85.9119C85.9119 30.4728 85.8381 30.1512 85.6903 29.8711C85.5426 29.5879 85.3349 29.3648 85.0671 29.2017C84.8024 29.0386 84.4916 28.957 84.1346 28.957C83.7468 28.957 83.4083 29.0524 83.119 29.2433C82.8327 29.431 82.6112 29.6772 82.4542 29.9819C82.3003 30.2835 82.2234 30.6113 82.2234 30.9652V31.7731C82.2234 32.247 82.3065 32.6502 82.4727 32.9826C82.6419 33.315 82.8774 33.5689 83.179 33.7443C83.4806 33.9167 83.833 34.0028 84.2362 34.0028C84.4978 34.0028 84.7363 33.9659 84.9517 33.892C85.1671 33.8151 85.3533 33.7012 85.5103 33.5504C85.6673 33.3996 85.7873 33.2134 85.8704 32.9918L87.1768 33.2273C87.0722 33.612 86.8845 33.949 86.6136 34.2383C86.3459 34.5245 86.0089 34.7476 85.6026 34.9077C85.1995 35.0646 84.7393 35.1431 84.2223 35.1431ZM93.5891 33.0657L96.7145 27.9091H98.201V35H96.8484V29.8388L93.7369 35H92.2365V27.9091H93.5891V33.0657ZM104.036 33.2919L106.326 27.9091H107.517L104.549 35H103.524L100.615 27.9091H101.793L104.036 33.2919ZM101.409 27.9091V35H100.057V27.9091H101.409ZM106.7 35V27.9091H108.043V35H106.7ZM114.112 35V29.0863H112.413C112.01 29.0863 111.696 29.1802 111.471 29.3679C111.246 29.5556 111.134 29.8018 111.134 30.1065C111.134 30.4081 111.237 30.6513 111.443 30.8359C111.653 31.0175 111.945 31.1083 112.32 31.1083H114.513V32.2255H112.32C111.797 32.2255 111.345 32.1393 110.963 31.967C110.585 31.7915 110.292 31.5438 110.086 31.2237C109.883 30.9036 109.781 30.5251 109.781 30.0881C109.781 29.6418 109.886 29.2571 110.095 28.9339C110.308 28.6077 110.611 28.3554 111.005 28.1768C111.402 27.9983 111.871 27.9091 112.413 27.9091H115.409V35H114.112ZM109.458 35L111.457 31.4176H112.87L110.871 35H109.458Z" fill="#676767" style="fill:#676767;fill:color(display-p3 0.4039 0.4039 0.4039);fill-opacity:1;"/>
<rect x="117.25" y="37.25" width="127.5" height="0.5" stroke="#ADABAB" style="stroke:#ADABAB;stroke:color(display-p3 0.6784 0.6706 0.6706);stroke-opacity:1;" stroke-width="0.5" stroke-dasharray="1 1"/>
<path d="M253.891 28.62H252.451C252.396 28.3123 252.292 28.0414 252.142 27.8075C251.991 27.5736 251.806 27.3751 251.588 27.212C251.369 27.0489 251.125 26.9258 250.854 26.8427C250.586 26.7596 250.301 26.718 250 26.718C249.455 26.718 248.967 26.855 248.536 27.1289C248.108 27.4028 247.77 27.8045 247.521 28.3338C247.274 28.8632 247.151 29.5095 247.151 30.2727C247.151 31.0421 247.274 31.6915 247.521 32.2209C247.77 32.7502 248.11 33.1503 248.541 33.4212C248.972 33.692 249.456 33.8274 249.995 33.8274C250.294 33.8274 250.577 33.7874 250.844 33.7074C251.115 33.6243 251.36 33.5027 251.578 33.3427C251.797 33.1826 251.982 32.9872 252.132 32.7564C252.286 32.5225 252.393 32.2547 252.451 31.9531L253.891 31.9577C253.814 32.4225 253.665 32.8503 253.444 33.2411C253.225 33.6289 252.943 33.9644 252.599 34.2475C252.257 34.5276 251.866 34.7446 251.426 34.8984C250.986 35.0523 250.506 35.1293 249.986 35.1293C249.167 35.1293 248.438 34.9354 247.798 34.5476C247.157 34.1567 246.653 33.5981 246.283 32.8718C245.917 32.1455 245.734 31.2791 245.734 30.2727C245.734 29.2633 245.919 28.3969 246.288 27.6737C246.657 26.9473 247.162 26.3903 247.802 26.0025C248.442 25.6116 249.17 25.4162 249.986 25.4162C250.487 25.4162 250.955 25.4885 251.389 25.6332C251.826 25.7747 252.219 25.984 252.566 26.261C252.914 26.5349 253.202 26.8704 253.43 27.2674C253.657 27.6613 253.811 28.1122 253.891 28.62ZM258.544 35.1431C257.845 35.1431 257.243 34.9938 256.739 34.6953C256.237 34.3937 255.849 33.9705 255.575 33.4258C255.304 32.878 255.169 32.2363 255.169 31.5007C255.169 30.7744 255.304 30.1342 255.575 29.5803C255.849 29.0263 256.231 28.5939 256.72 28.283C257.213 27.9722 257.788 27.8168 258.447 27.8168C258.847 27.8168 259.235 27.8829 259.61 28.0153C259.985 28.1476 260.322 28.3554 260.621 28.6385C260.92 28.9216 261.155 29.2894 261.327 29.7418C261.5 30.1912 261.586 30.7375 261.586 31.3807V31.87H255.949V30.8359H260.233C260.233 30.4728 260.159 30.1512 260.012 29.8711C259.864 29.5879 259.656 29.3648 259.388 29.2017C259.124 29.0386 258.813 28.957 258.456 28.957C258.068 28.957 257.73 29.0524 257.44 29.2433C257.154 29.431 256.932 29.6772 256.775 29.9819C256.622 30.2835 256.545 30.6113 256.545 30.9652V31.7731C256.545 32.247 256.628 32.6502 256.794 32.9826C256.963 33.315 257.199 33.5689 257.5 33.7443C257.802 33.9167 258.154 34.0028 258.557 34.0028C258.819 34.0028 259.058 33.9659 259.273 33.892C259.488 33.8151 259.675 33.7012 259.832 33.5504C259.989 33.3996 260.109 33.2134 260.192 32.9918L261.498 33.2273C261.393 33.612 261.206 33.949 260.935 34.2383C260.667 34.5245 260.33 34.7476 259.924 34.9077C259.521 35.0646 259.061 35.1431 258.544 35.1431ZM264.498 30.7898V35H263.117V27.9091H264.442V29.0632H264.53C264.693 28.6877 264.949 28.3861 265.296 28.1584C265.647 27.9306 266.089 27.8168 266.621 27.8168C267.104 27.8168 267.528 27.9183 267.891 28.1214C268.254 28.3215 268.536 28.62 268.736 29.017C268.936 29.4141 269.036 29.9049 269.036 30.4897V35H267.655V30.6559C267.655 30.1419 267.521 29.7403 267.254 29.451C266.986 29.1586 266.618 29.0124 266.15 29.0124C265.83 29.0124 265.546 29.0817 265.296 29.2202C265.05 29.3587 264.855 29.5618 264.71 29.8295C264.568 30.0942 264.498 30.4143 264.498 30.7898ZM274.197 27.9091V29.017H270.324V27.9091H274.197ZM271.362 26.2102H272.743V32.918C272.743 33.1857 272.783 33.3873 272.863 33.5227C272.943 33.6551 273.046 33.7459 273.172 33.7951C273.301 33.8413 273.441 33.8643 273.592 33.8643C273.703 33.8643 273.8 33.8567 273.883 33.8413C273.966 33.8259 274.031 33.8136 274.077 33.8043L274.326 34.9446C274.246 34.9754 274.132 35.0062 273.985 35.0369C273.837 35.0708 273.652 35.0893 273.431 35.0923C273.067 35.0985 272.729 35.0339 272.415 34.8984C272.101 34.763 271.847 34.5537 271.653 34.2706C271.459 33.9875 271.362 33.632 271.362 33.2042V26.2102ZM275.724 35V27.9091H277.058V29.0355H277.132C277.261 28.6539 277.489 28.3538 277.815 28.1353C278.144 27.9137 278.517 27.8029 278.932 27.8029C279.018 27.8029 279.12 27.806 279.237 27.8121C279.357 27.8183 279.451 27.826 279.519 27.8352V29.1555C279.463 29.1402 279.365 29.1232 279.223 29.1048C279.082 29.0832 278.94 29.0724 278.798 29.0724C278.472 29.0724 278.181 29.1417 277.926 29.2802C277.674 29.4156 277.473 29.6049 277.326 29.848C277.178 30.0881 277.104 30.362 277.104 30.6697V35H275.724ZM282.713 35.157C282.264 35.157 281.858 35.0739 281.494 34.9077C281.131 34.7384 280.843 34.4937 280.631 34.1737C280.422 33.8536 280.317 33.4612 280.317 32.9964C280.317 32.5964 280.394 32.267 280.548 32.0085C280.702 31.75 280.91 31.5453 281.171 31.3945C281.433 31.2437 281.725 31.1299 282.048 31.0529C282.372 30.976 282.701 30.9175 283.036 30.8775C283.461 30.8282 283.806 30.7882 284.07 30.7575C284.335 30.7236 284.527 30.6697 284.647 30.5959C284.767 30.522 284.828 30.402 284.828 30.2358V30.2035C284.828 29.8003 284.714 29.4879 284.486 29.2663C284.261 29.0447 283.926 28.9339 283.479 28.9339C283.015 28.9339 282.649 29.037 282.381 29.2433C282.116 29.4464 281.933 29.6726 281.831 29.9219L280.534 29.6264C280.688 29.1955 280.913 28.8478 281.208 28.5831C281.507 28.3153 281.85 28.1214 282.238 28.0014C282.625 27.8783 283.033 27.8168 283.461 27.8168C283.744 27.8168 284.044 27.8506 284.361 27.9183C284.681 27.983 284.98 28.103 285.257 28.2784C285.537 28.4538 285.766 28.7047 285.945 29.0309C286.123 29.354 286.212 29.7741 286.212 30.2912V35H284.864V34.0305H284.809C284.72 34.209 284.586 34.3845 284.407 34.5568C284.229 34.7292 284 34.8723 283.72 34.9862C283.439 35.1 283.104 35.157 282.713 35.157ZM283.013 34.049C283.395 34.049 283.721 33.9736 283.992 33.8228C284.266 33.672 284.474 33.475 284.615 33.2319C284.76 32.9857 284.832 32.7225 284.832 32.4425V31.5284C284.783 31.5777 284.687 31.6238 284.546 31.6669C284.407 31.7069 284.249 31.7423 284.07 31.7731C283.892 31.8008 283.718 31.8269 283.549 31.8516C283.379 31.8731 283.238 31.8916 283.124 31.907C282.856 31.9408 282.612 31.9978 282.39 32.0778C282.171 32.1578 281.996 32.2732 281.864 32.424C281.734 32.5717 281.67 32.7687 281.67 33.0149C281.67 33.3565 281.796 33.6151 282.048 33.7905C282.301 33.9628 282.622 34.049 283.013 34.049ZM289.431 25.5455V35H288.051V25.5455H289.431ZM295.466 30.4066V31.6023H291.274V30.4066H295.466ZM305.048 25.5455V35H303.737L298.931 28.0661H298.843V35H297.417V25.5455H298.737L303.547 32.4886H303.635V25.5455H305.048ZM310.005 35.1431C309.34 35.1431 308.76 34.9908 308.264 34.6861C307.769 34.3814 307.384 33.9551 307.11 33.4073C306.836 32.8595 306.699 32.2193 306.699 31.4869C306.699 30.7513 306.836 30.1081 307.11 29.5572C307.384 29.0063 307.769 28.5785 308.264 28.2738C308.76 27.9691 309.34 27.8168 310.005 27.8168C310.669 27.8168 311.25 27.9691 311.745 28.2738C312.241 28.5785 312.625 29.0063 312.899 29.5572C313.173 30.1081 313.31 30.7513 313.31 31.4869C313.31 32.2193 313.173 32.8595 312.899 33.4073C312.625 33.9551 312.241 34.3814 311.745 34.6861C311.25 34.9908 310.669 35.1431 310.005 35.1431ZM310.009 33.9844C310.44 33.9844 310.797 33.8705 311.08 33.6428C311.363 33.415 311.573 33.1119 311.708 32.7333C311.847 32.3548 311.916 31.9377 311.916 31.4822C311.916 31.0298 311.847 30.6143 311.708 30.2358C311.573 29.8542 311.363 29.5479 311.08 29.3171C310.797 29.0863 310.44 28.9709 310.009 28.9709C309.575 28.9709 309.215 29.0863 308.929 29.3171C308.646 29.5479 308.435 29.8542 308.297 30.2358C308.161 30.6143 308.093 31.0298 308.093 31.4822C308.093 31.9377 308.161 32.3548 308.297 32.7333C308.435 33.1119 308.646 33.415 308.929 33.6428C309.215 33.8705 309.575 33.9844 310.009 33.9844ZM317.505 35.1385C316.933 35.1385 316.422 34.9923 315.973 34.6999C315.526 34.4045 315.175 33.9844 314.92 33.4396C314.668 32.8918 314.541 32.2347 314.541 31.4684C314.541 30.7021 314.669 30.0465 314.925 29.5018C315.183 28.957 315.537 28.54 315.986 28.2507C316.436 27.9614 316.945 27.8168 317.514 27.8168C317.955 27.8168 318.309 27.8906 318.576 28.0384C318.847 28.183 319.056 28.3523 319.204 28.5462C319.355 28.7401 319.472 28.9109 319.555 29.0586H319.638V25.5455H321.018V35H319.67V33.8967H319.555C319.472 34.0475 319.352 34.2198 319.195 34.4137C319.041 34.6076 318.829 34.7769 318.558 34.9215C318.287 35.0662 317.936 35.1385 317.505 35.1385ZM317.81 33.9613C318.207 33.9613 318.542 33.8567 318.816 33.6474C319.093 33.435 319.303 33.1411 319.444 32.7656C319.589 32.3902 319.661 31.9531 319.661 31.4545C319.661 30.9621 319.59 30.5312 319.449 30.1619C319.307 29.7926 319.099 29.5049 318.826 29.2987C318.552 29.0924 318.213 28.9893 317.81 28.9893C317.394 28.9893 317.048 29.0971 316.771 29.3125C316.494 29.5279 316.285 29.8219 316.143 30.1942C316.005 30.5666 315.936 30.9867 315.936 31.4545C315.936 31.9285 316.006 32.3548 316.148 32.7333C316.29 33.1119 316.499 33.4119 316.776 33.6335C317.056 33.852 317.401 33.9613 317.81 33.9613ZM326.045 35.1431C325.346 35.1431 324.744 34.9938 324.24 34.6953C323.738 34.3937 323.35 33.9705 323.076 33.4258C322.805 32.878 322.67 32.2363 322.67 31.5007C322.67 30.7744 322.805 30.1342 323.076 29.5803C323.35 29.0263 323.732 28.5939 324.221 28.283C324.713 27.9722 325.289 27.8168 325.948 27.8168C326.348 27.8168 326.735 27.8829 327.111 28.0153C327.486 28.1476 327.823 28.3554 328.122 28.6385C328.421 28.9216 328.656 29.2894 328.828 29.7418C329.001 30.1912 329.087 30.7375 329.087 31.3807V31.87H323.45V30.8359H327.734C327.734 30.4728 327.66 30.1512 327.513 29.8711C327.365 29.5879 327.157 29.3648 326.889 29.2017C326.625 29.0386 326.314 28.957 325.957 28.957C325.569 28.957 325.231 29.0524 324.941 29.2433C324.655 29.431 324.433 29.6772 324.276 29.9819C324.123 30.2835 324.046 30.6113 324.046 30.9652V31.7731C324.046 32.247 324.129 32.6502 324.295 32.9826C324.464 33.315 324.7 33.5689 325.001 33.7443C325.303 33.9167 325.655 34.0028 326.058 34.0028C326.32 34.0028 326.559 33.9659 326.774 33.892C326.989 33.8151 327.176 33.7012 327.333 33.5504C327.49 33.3996 327.61 33.2134 327.693 32.9918L328.999 33.2273C328.894 33.612 328.707 33.949 328.436 34.2383C328.168 34.5245 327.831 34.7476 327.425 34.9077C327.022 35.0646 326.562 35.1431 326.045 35.1431ZM334.796 30.4066V31.6023H330.604V30.4066H334.796ZM341.949 29.6403L340.698 29.8619C340.646 29.7018 340.563 29.5495 340.449 29.4048C340.338 29.2602 340.188 29.1417 339.997 29.0494C339.806 28.957 339.567 28.9109 339.281 28.9109C338.89 28.9109 338.564 28.9986 338.302 29.174C338.041 29.3464 337.91 29.5695 337.91 29.8434C337.91 30.0804 337.998 30.2712 338.173 30.4158C338.349 30.5605 338.632 30.679 339.023 30.7713L340.149 31.0298C340.802 31.1806 341.288 31.413 341.608 31.7269C341.928 32.0408 342.088 32.4486 342.088 32.9503C342.088 33.375 341.965 33.7536 341.719 34.0859C341.476 34.4152 341.135 34.6738 340.698 34.8615C340.264 35.0492 339.761 35.1431 339.189 35.1431C338.395 35.1431 337.747 34.9738 337.245 34.6353C336.744 34.2937 336.436 33.8089 336.322 33.1811L337.656 32.978C337.739 33.3258 337.91 33.5889 338.169 33.7674C338.427 33.9428 338.764 34.0305 339.18 34.0305C339.632 34.0305 339.994 33.9367 340.264 33.7489C340.535 33.5581 340.671 33.3258 340.671 33.0518C340.671 32.8303 340.588 32.6441 340.421 32.4933C340.258 32.3424 340.007 32.2286 339.669 32.1516L338.469 31.8885C337.807 31.7377 337.318 31.4976 337.001 31.1683C336.687 30.839 336.53 30.422 336.53 29.9173C336.53 29.4987 336.647 29.1325 336.881 28.8185C337.114 28.5046 337.438 28.2599 337.85 28.0845C338.262 27.906 338.735 27.8168 339.267 27.8168C340.034 27.8168 340.637 27.983 341.077 28.3153C341.517 28.6446 341.808 29.0863 341.949 29.6403ZM343.606 35V27.9091H344.94V29.0355H345.014C345.143 28.6539 345.371 28.3538 345.697 28.1353C346.026 27.9137 346.399 27.8029 346.814 27.8029C346.9 27.8029 347.002 27.806 347.119 27.8121C347.239 27.8183 347.333 27.826 347.4 27.8352V29.1555C347.345 29.1402 347.247 29.1232 347.105 29.1048C346.963 29.0832 346.822 29.0724 346.68 29.0724C346.354 29.0724 346.063 29.1417 345.808 29.2802C345.555 29.4156 345.355 29.6049 345.208 29.848C345.06 30.0881 344.986 30.362 344.986 30.6697V35H343.606ZM354.877 27.9091L352.305 35H350.828L348.252 27.9091H349.734L351.53 33.3658H351.604L353.395 27.9091H354.877ZM359.743 25.5455V35H358.311V26.9766H358.256L355.994 28.4538V27.0874L358.353 25.5455H359.743ZM362.3 35V33.9659L365.499 30.6513C365.841 30.2912 366.123 29.9757 366.344 29.7049C366.569 29.431 366.737 29.1709 366.847 28.9247C366.958 28.6785 367.013 28.4169 367.013 28.1399C367.013 27.826 366.94 27.5552 366.792 27.3274C366.644 27.0966 366.443 26.9196 366.187 26.7965C365.932 26.6703 365.644 26.6072 365.324 26.6072C364.985 26.6072 364.69 26.6765 364.438 26.815C364.185 26.9535 363.991 27.1489 363.856 27.4013C363.72 27.6536 363.653 27.9491 363.653 28.2876H362.291C362.291 27.7121 362.423 27.2089 362.688 26.7781C362.953 26.3472 363.316 26.0133 363.777 25.7763C364.239 25.5362 364.764 25.4162 365.352 25.4162C365.946 25.4162 366.469 25.5347 366.921 25.7717C367.377 26.0056 367.732 26.3256 367.988 26.7319C368.243 27.1351 368.371 27.5906 368.371 28.0984C368.371 28.4492 368.305 28.7924 368.172 29.1278C368.043 29.4633 367.817 29.8372 367.494 30.2496C367.17 30.659 366.721 31.156 366.146 31.7408L364.267 33.7074V33.7766H368.523V35H362.3Z" fill="#221E1E" style="fill:#221E1E;fill:color(display-p3 0.1333 0.1183 0.1183);fill-opacity:1;"/>
<path d="M17.0387 55V45.5455H20.5011C21.172 45.5455 21.7275 45.6562 22.1676 45.8778C22.6077 46.0964 22.937 46.3933 23.1555 46.7688C23.3741 47.1412 23.4833 47.5613 23.4833 48.0291C23.4833 48.4231 23.411 48.7554 23.2663 49.0263C23.1217 49.294 22.9278 49.5095 22.6847 49.6726C22.4446 49.8326 22.1799 49.9496 21.8906 50.0234V50.1158C22.2045 50.1312 22.5108 50.2327 22.8093 50.4205C23.1109 50.6051 23.3602 50.8683 23.5572 51.2099C23.7541 51.5515 23.8526 51.967 23.8526 52.4563C23.8526 52.9395 23.7388 53.3735 23.511 53.7582C23.2863 54.1398 22.9386 54.4429 22.4677 54.6676C21.9968 54.8892 21.3951 55 20.6626 55H17.0387ZM18.4652 53.7766H20.5241C21.2074 53.7766 21.6967 53.6443 21.9922 53.3796C22.2876 53.1149 22.4354 52.7841 22.4354 52.3871C22.4354 52.0885 22.36 51.8146 22.2092 51.5653C22.0584 51.3161 21.8429 51.1175 21.5629 50.9698C21.2859 50.8221 20.9566 50.7482 20.5749 50.7482H18.4652V53.7766ZM18.4652 49.6357H20.3764C20.6965 49.6357 20.9843 49.5741 21.2397 49.451C21.4982 49.3279 21.7029 49.1555 21.8537 48.9339C22.0076 48.7093 22.0845 48.4446 22.0845 48.1399C22.0845 47.7491 21.9476 47.4213 21.6737 47.1566C21.3997 46.8919 20.9796 46.7596 20.4134 46.7596H18.4652V49.6357ZM25.4338 57.6591V47.9091H26.7818V49.0586H26.8972C26.9772 48.9109 27.0926 48.7401 27.2434 48.5462C27.3942 48.3523 27.6035 48.183 27.8713 48.0384C28.139 47.8906 28.493 47.8168 28.9331 47.8168C29.5055 47.8168 30.0164 47.9614 30.4657 48.2507C30.9151 48.54 31.2675 48.957 31.5229 49.5018C31.7814 50.0465 31.9107 50.7021 31.9107 51.4684C31.9107 52.2347 31.783 52.8918 31.5275 53.4396C31.2721 53.9844 30.9212 54.4045 30.475 54.6999C30.0287 54.9923 29.5194 55.1385 28.9469 55.1385C28.516 55.1385 28.1636 55.0662 27.8897 54.9215C27.6189 54.7769 27.4065 54.6076 27.2527 54.4137C27.0988 54.2198 26.9803 54.0475 26.8972 53.8967H26.8141V57.6591H25.4338ZM26.7864 51.4545C26.7864 51.9531 26.8587 52.3902 27.0034 52.7656C27.148 53.1411 27.3573 53.435 27.6312 53.6474C27.9051 53.8567 28.2406 53.9613 28.6376 53.9613C29.05 53.9613 29.3947 53.852 29.6717 53.6335C29.9487 53.4119 30.158 53.1119 30.2995 52.7333C30.4442 52.3548 30.5165 51.9285 30.5165 51.4545C30.5165 50.9867 30.4457 50.5666 30.3042 50.1942C30.1657 49.8219 29.9564 49.5279 29.6763 49.3125C29.3993 49.0971 29.0531 48.9893 28.6376 48.9893C28.2375 48.9893 27.899 49.0924 27.622 49.2987C27.3481 49.5049 27.1403 49.7926 26.9988 50.1619C26.8572 50.5312 26.7864 50.9621 26.7864 51.4545ZM36.5133 55.1431C35.8147 55.1431 35.213 54.9938 34.7083 54.6953C34.2066 54.3937 33.8188 53.9705 33.5449 53.4258C33.2741 52.878 33.1387 52.2363 33.1387 51.5007C33.1387 50.7744 33.2741 50.1342 33.5449 49.5803C33.8188 49.0263 34.2005 48.5939 34.6898 48.283C35.1822 47.9722 35.7578 47.8168 36.4164 47.8168C36.8165 47.8168 37.2042 47.8829 37.5797 48.0153C37.9552 48.1476 38.2922 48.3554 38.5907 48.6385C38.8893 48.9216 39.1247 49.2894 39.2971 49.7418C39.4694 50.1912 39.5556 50.7375 39.5556 51.3807V51.87H33.9189V50.8359H38.2029C38.2029 50.4728 38.1291 50.1512 37.9814 49.8711C37.8336 49.5879 37.6259 49.3648 37.3581 49.2017C37.0935 49.0386 36.7826 48.957 36.4256 48.957C36.0378 48.957 35.6993 49.0524 35.41 49.2433C35.1238 49.431 34.9022 49.6772 34.7452 49.9819C34.5913 50.2835 34.5144 50.6113 34.5144 50.9652V51.7731C34.5144 52.247 34.5975 52.6502 34.7637 52.9826C34.9329 53.315 35.1684 53.5689 35.47 53.7443C35.7716 53.9167 36.124 54.0028 36.5272 54.0028C36.7888 54.0028 37.0273 53.9659 37.2427 53.892C37.4582 53.8151 37.6444 53.7012 37.8013 53.5504C37.9583 53.3996 38.0783 53.2134 38.1614 52.9918L39.4679 53.2273C39.3632 53.612 39.1755 53.949 38.9047 54.2383C38.6369 54.5245 38.2999 54.7476 37.8936 54.9077C37.4905 55.0646 37.0304 55.1431 36.5133 55.1431ZM45.0665 53.2919L47.3563 47.9091H48.5473L45.5789 55H44.5541L41.6457 47.9091H42.8229L45.0665 53.2919ZM42.4397 47.9091V55H41.0871V47.9091H42.4397ZM47.7302 55V47.9091H49.0736V55H47.7302ZM55.142 55V49.0863H53.4431C53.0399 49.0863 52.726 49.1802 52.5013 49.3679C52.2767 49.5556 52.1643 49.8018 52.1643 50.1065C52.1643 50.4081 52.2674 50.6513 52.4736 50.8359C52.6829 51.0175 52.9753 51.1083 53.3508 51.1083H55.5436V52.2255H53.3508C52.8276 52.2255 52.3751 52.1393 51.9935 51.967C51.615 51.7915 51.3226 51.5438 51.1164 51.2237C50.9133 50.9036 50.8117 50.5251 50.8117 50.0881C50.8117 49.6418 50.9163 49.2571 51.1256 48.9339C51.338 48.6077 51.6411 48.3554 52.0351 48.1768C52.4321 47.9983 52.9014 47.9091 53.4431 47.9091H56.4392V55H55.142ZM50.4885 55L52.4875 51.4176H53.9001L51.9012 55H50.4885ZM61.717 57.6591V47.9091H63.065V49.0586H63.1804C63.2604 48.9109 63.3758 48.7401 63.5266 48.5462C63.6774 48.3523 63.8867 48.183 64.1545 48.0384C64.4222 47.8906 64.7762 47.8168 65.2163 47.8168C65.7887 47.8168 66.2996 47.9614 66.7489 48.2507C67.1983 48.54 67.5507 48.957 67.8061 49.5018C68.0646 50.0465 68.1939 50.7021 68.1939 51.4684C68.1939 52.2347 68.0662 52.8918 67.8107 53.4396C67.5553 53.9844 67.2044 54.4045 66.7582 54.6999C66.3119 54.9923 65.8026 55.1385 65.2301 55.1385C64.7992 55.1385 64.4469 55.0662 64.1729 54.9215C63.9021 54.7769 63.6897 54.6076 63.5359 54.4137C63.382 54.2198 63.2635 54.0475 63.1804 53.8967H63.0973V57.6591H61.717ZM63.0696 51.4545C63.0696 51.9531 63.1419 52.3902 63.2866 52.7656C63.4312 53.1411 63.6405 53.435 63.9144 53.6474C64.1883 53.8567 64.5238 53.9613 64.9208 53.9613C65.3332 53.9613 65.6779 53.852 65.9549 53.6335C66.2319 53.4119 66.4412 53.1119 66.5827 52.7333C66.7274 52.3548 66.7997 51.9285 66.7997 51.4545C66.7997 50.9867 66.7289 50.5666 66.5874 50.1942C66.4489 49.8219 66.2396 49.5279 65.9595 49.3125C65.6825 49.0971 65.3363 48.9893 64.9208 48.9893C64.5207 48.9893 64.1822 49.0924 63.9052 49.2987C63.6313 49.5049 63.4235 49.7926 63.282 50.1619C63.1404 50.5312 63.0696 50.9621 63.0696 51.4545ZM71.804 55.157C71.3546 55.157 70.9484 55.0739 70.5852 54.9077C70.2221 54.7384 69.9343 54.4937 69.7219 54.1737C69.5127 53.8536 69.408 53.4612 69.408 52.9964C69.408 52.5964 69.485 52.267 69.6388 52.0085C69.7927 51.75 70.0005 51.5453 70.2621 51.3945C70.5237 51.2437 70.8161 51.1299 71.1392 51.0529C71.4624 50.976 71.7917 50.9175 72.1271 50.8775C72.5518 50.8282 72.8965 50.7882 73.1612 50.7575C73.4259 50.7236 73.6183 50.6697 73.7383 50.5959C73.8583 50.522 73.9183 50.402 73.9183 50.2358V50.2035C73.9183 49.8003 73.8045 49.4879 73.5767 49.2663C73.352 49.0447 73.0166 48.9339 72.5703 48.9339C72.1056 48.9339 71.7393 49.037 71.4716 49.2433C71.2069 49.4464 71.0238 49.6726 70.9222 49.9219L69.625 49.6264C69.7789 49.1955 70.0036 48.8478 70.299 48.5831C70.5975 48.3153 70.9407 48.1214 71.3285 48.0014C71.7163 47.8783 72.1241 47.8168 72.5518 47.8168C72.835 47.8168 73.1351 47.8506 73.4521 47.9183C73.7721 47.983 74.0707 48.103 74.3477 48.2784C74.6277 48.4538 74.857 48.7047 75.0355 49.0309C75.214 49.354 75.3033 49.7741 75.3033 50.2912V55H73.9553V54.0305H73.8999C73.8106 54.209 73.6767 54.3845 73.4982 54.5568C73.3197 54.7292 73.0904 54.8723 72.8104 54.9862C72.5303 55.1 72.1948 55.157 71.804 55.157ZM72.104 54.049C72.4857 54.049 72.8119 53.9736 73.0827 53.8228C73.3567 53.672 73.5644 53.475 73.706 53.2319C73.8506 52.9857 73.9229 52.7225 73.9229 52.4425V51.5284C73.8737 51.5777 73.7783 51.6238 73.6367 51.6669C73.4982 51.7069 73.3397 51.7423 73.1612 51.7731C72.9827 51.8008 72.8088 51.8269 72.6396 51.8516C72.4703 51.8731 72.3287 51.8916 72.2148 51.907C71.9471 51.9408 71.7024 51.9978 71.4808 52.0778C71.2623 52.1578 71.0869 52.2732 70.9545 52.424C70.8253 52.5717 70.7607 52.7687 70.7607 53.0149C70.7607 53.3565 70.8868 53.6151 71.1392 53.7905C71.3916 53.9628 71.7132 54.049 72.104 54.049ZM82.6123 45.2685L83.1847 46.141C82.9724 46.3349 82.7308 46.4734 82.46 46.5565C82.1922 46.6365 81.8829 46.6873 81.532 46.7088C81.1812 46.7273 80.7796 46.7442 80.3271 46.7596C79.8163 46.775 79.3962 46.8858 79.0669 47.092C78.7375 47.2951 78.4836 47.5967 78.3051 47.9968C78.1297 48.3938 78.0158 48.8924 77.9635 49.4925H78.0512C78.282 49.0524 78.6021 48.7231 79.0115 48.5046C79.4239 48.2861 79.887 48.1768 80.401 48.1768C80.9735 48.1768 81.4828 48.3076 81.9291 48.5692C82.3753 48.8308 82.7262 49.214 82.9816 49.7188C83.2401 50.2204 83.3694 50.8344 83.3694 51.5607C83.3694 52.2963 83.234 52.9318 82.9632 53.4673C82.6954 54.0028 82.3169 54.4168 81.8275 54.7092C81.3412 54.9985 80.7673 55.1431 80.1056 55.1431C79.4439 55.1431 78.8668 54.9938 78.3744 54.6953C77.885 54.3937 77.5049 53.9474 77.2341 53.3565C76.9664 52.7656 76.8325 52.0362 76.8325 51.1683V50.4666C76.8325 48.8447 77.1218 47.6244 77.7004 46.8058C78.279 45.9871 79.1438 45.567 80.2948 45.5455C80.6672 45.5362 80.9996 45.5347 81.292 45.5408C81.5844 45.5439 81.8398 45.5301 82.0583 45.4993C82.2799 45.4654 82.4646 45.3885 82.6123 45.2685ZM80.1102 53.9844C80.4949 53.9844 80.8257 53.8874 81.1027 53.6935C81.3828 53.4966 81.5982 53.218 81.749 52.858C81.8998 52.4979 81.9752 52.0732 81.9752 51.5838C81.9752 51.1037 81.8998 50.6959 81.749 50.3604C81.5982 50.025 81.3828 49.7695 81.1027 49.5941C80.8227 49.4156 80.4872 49.3263 80.0963 49.3263C79.807 49.3263 79.5485 49.3771 79.3208 49.4787C79.093 49.5772 78.8976 49.7234 78.7345 49.9173C78.5744 50.1112 78.4498 50.3481 78.3605 50.6282C78.2744 50.9052 78.2282 51.2237 78.222 51.5838C78.222 52.3163 78.3898 52.8995 78.7252 53.3335C79.0638 53.7674 79.5254 53.9844 80.1102 53.9844ZM87.8982 55.1431C87.2334 55.1431 86.6533 54.9908 86.1578 54.6861C85.6623 54.3814 85.2776 53.9551 85.0036 53.4073C84.7297 52.8595 84.5928 52.2193 84.5928 51.4869C84.5928 50.7513 84.7297 50.1081 85.0036 49.5572C85.2776 49.0063 85.6623 48.5785 86.1578 48.2738C86.6533 47.9691 87.2334 47.8168 87.8982 47.8168C88.5629 47.8168 89.1431 47.9691 89.6386 48.2738C90.1341 48.5785 90.5188 49.0063 90.7927 49.5572C91.0666 50.1081 91.2036 50.7513 91.2036 51.4869C91.2036 52.2193 91.0666 52.8595 90.7927 53.4073C90.5188 53.9551 90.1341 54.3814 89.6386 54.6861C89.1431 54.9908 88.5629 55.1431 87.8982 55.1431ZM87.9028 53.9844C88.3337 53.9844 88.6907 53.8705 88.9738 53.6428C89.257 53.415 89.4662 53.1119 89.6017 52.7333C89.7401 52.3548 89.8094 51.9377 89.8094 51.4822C89.8094 51.0298 89.7401 50.6143 89.6017 50.2358C89.4662 49.8542 89.257 49.5479 88.9738 49.3171C88.6907 49.0863 88.3337 48.9709 87.9028 48.9709C87.4688 48.9709 87.1088 49.0863 86.8225 49.3171C86.5394 49.5479 86.3286 49.8542 86.1901 50.2358C86.0547 50.6143 85.9869 51.0298 85.9869 51.4822C85.9869 51.9377 86.0547 52.3548 86.1901 52.7333C86.3286 53.1119 86.5394 53.415 86.8225 53.6428C87.1088 53.8705 87.4688 53.9844 87.9028 53.9844ZM91.8903 49.1001V47.9091H97.8732V49.1001H95.5604V55H94.2124V49.1001H91.8903ZM100.372 50.3466H102.431C103.299 50.3466 103.967 50.562 104.434 50.9929C104.902 51.4238 105.136 51.9793 105.136 52.6594C105.136 53.1026 105.031 53.5012 104.822 53.8551C104.613 54.209 104.307 54.4891 103.903 54.6953C103.5 54.8984 103.009 55 102.431 55H99.3332V47.9091H100.686V53.8089H102.431C102.828 53.8089 103.154 53.7058 103.41 53.4996C103.665 53.2904 103.793 53.0241 103.793 52.701C103.793 52.3594 103.665 52.0808 103.41 51.8654C103.154 51.6469 102.828 51.5376 102.431 51.5376H100.372V50.3466ZM106.142 55V47.9091H107.523V55H106.142Z" fill="#676767" style="fill:#676767;fill:color(display-p3 0.4039 0.4039 0.4039);fill-opacity:1;"/>
<rect x="109.25" y="57.25" width="128.5" height="0.5" stroke="#ADABAB" style="stroke:#ADABAB;stroke:color(display-p3 0.6784 0.6706 0.6706);stroke-opacity:1;" stroke-width="0.5" stroke-dasharray="1 1"/>
<path d="M242.496 45.5455V55H241.065V46.9766H241.01L238.748 48.4538V47.0874L241.107 45.5455H242.496ZM245.373 55L249.5 46.8381V46.7688H244.726V45.5455H250.977V46.8104L246.864 55H245.373ZM258.696 55.1385C258.123 55.1385 257.612 54.9923 257.163 54.6999C256.717 54.4045 256.366 53.9844 256.11 53.4396C255.858 52.8918 255.732 52.2347 255.732 51.4684C255.732 50.7021 255.86 50.0465 256.115 49.5018C256.374 48.957 256.728 48.54 257.177 48.2507C257.626 47.9614 258.136 47.8168 258.705 47.8168C259.145 47.8168 259.499 47.8906 259.767 48.0384C260.038 48.183 260.247 48.3523 260.395 48.5462C260.545 48.7401 260.662 48.9109 260.745 49.0586H260.828V45.5455H262.209V55H260.861V53.8967H260.745C260.662 54.0475 260.542 54.2198 260.385 54.4137C260.231 54.6076 260.019 54.7769 259.748 54.9215C259.477 55.0662 259.127 55.1385 258.696 55.1385ZM259 53.9613C259.397 53.9613 259.733 53.8567 260.007 53.6474C260.284 53.435 260.493 53.1411 260.635 52.7656C260.779 52.3902 260.852 51.9531 260.852 51.4545C260.852 50.9621 260.781 50.5312 260.639 50.1619C260.498 49.7926 260.29 49.5049 260.016 49.2987C259.742 49.0924 259.404 48.9893 259 48.9893C258.585 48.9893 258.239 49.0971 257.962 49.3125C257.685 49.5279 257.475 49.8219 257.334 50.1942C257.195 50.5666 257.126 50.9867 257.126 51.4545C257.126 51.9285 257.197 52.3548 257.338 52.7333C257.48 53.1119 257.689 53.4119 257.966 53.6335C258.246 53.852 258.591 53.9613 259 53.9613ZM266.242 55.157C265.793 55.157 265.387 55.0739 265.024 54.9077C264.661 54.7384 264.373 54.4937 264.16 54.1737C263.951 53.8536 263.847 53.4612 263.847 52.9964C263.847 52.5964 263.923 52.267 264.077 52.0085C264.231 51.75 264.439 51.5453 264.701 51.3945C264.962 51.2437 265.255 51.1299 265.578 51.0529C265.901 50.976 266.23 50.9175 266.566 50.8775C266.99 50.8282 267.335 50.7882 267.6 50.7575C267.864 50.7236 268.057 50.6697 268.177 50.5959C268.297 50.522 268.357 50.402 268.357 50.2358V50.2035C268.357 49.8003 268.243 49.4879 268.015 49.2663C267.791 49.0447 267.455 48.9339 267.009 48.9339C266.544 48.9339 266.178 49.037 265.91 49.2433C265.645 49.4464 265.462 49.6726 265.361 49.9219L264.063 49.6264C264.217 49.1955 264.442 48.8478 264.737 48.5831C265.036 48.3153 265.379 48.1214 265.767 48.0014C266.155 47.8783 266.563 47.8168 266.99 47.8168C267.273 47.8168 267.574 47.8506 267.891 47.9183C268.211 47.983 268.509 48.103 268.786 48.2784C269.066 48.4538 269.295 48.7047 269.474 49.0309C269.652 49.354 269.742 49.7741 269.742 50.2912V55H268.394V54.0305H268.338C268.249 54.209 268.115 54.3845 267.937 54.5568C267.758 54.7292 267.529 54.8723 267.249 54.9862C266.969 55.1 266.633 55.157 266.242 55.157ZM266.543 54.049C266.924 54.049 267.25 53.9736 267.521 53.8228C267.795 53.672 268.003 53.475 268.144 53.2319C268.289 52.9857 268.361 52.7225 268.361 52.4425V51.5284C268.312 51.5777 268.217 51.6238 268.075 51.6669C267.937 51.7069 267.778 51.7423 267.6 51.7731C267.421 51.8008 267.247 51.8269 267.078 51.8516C266.909 51.8731 266.767 51.8916 266.653 51.907C266.386 51.9408 266.141 51.9978 265.919 52.0778C265.701 52.1578 265.525 52.2732 265.393 52.424C265.264 52.5717 265.199 52.7687 265.199 53.0149C265.199 53.3565 265.325 53.6151 265.578 53.7905C265.83 53.9628 266.152 54.049 266.543 54.049ZM272.199 57.6591C271.993 57.6591 271.805 57.6422 271.636 57.6083C271.466 57.5775 271.34 57.5437 271.257 57.5067L271.589 56.3757C271.842 56.4434 272.067 56.4727 272.263 56.4634C272.46 56.4542 272.634 56.3803 272.785 56.2418C272.939 56.1033 273.074 55.8771 273.191 55.5632L273.362 55.0923L270.768 47.9091H272.245L274.041 53.4119H274.115L275.911 47.9091H277.392L274.47 55.9464C274.335 56.3157 274.162 56.6281 273.953 56.8835C273.744 57.142 273.495 57.3359 273.205 57.4652C272.916 57.5945 272.58 57.6591 272.199 57.6591ZM284.003 49.6403L282.752 49.8619C282.7 49.7018 282.617 49.5495 282.503 49.4048C282.392 49.2602 282.241 49.1417 282.05 49.0494C281.86 48.957 281.621 48.9109 281.335 48.9109C280.944 48.9109 280.618 48.9986 280.356 49.174C280.095 49.3464 279.964 49.5695 279.964 49.8434C279.964 50.0804 280.051 50.2712 280.227 50.4158C280.402 50.5605 280.685 50.679 281.076 50.7713L282.203 51.0298C282.855 51.1806 283.342 51.413 283.662 51.7269C283.982 52.0408 284.142 52.4486 284.142 52.9503C284.142 53.375 284.019 53.7536 283.772 54.0859C283.529 54.4152 283.189 54.6738 282.752 54.8615C282.318 55.0492 281.815 55.1431 281.243 55.1431C280.449 55.1431 279.801 54.9738 279.299 54.6353C278.797 54.2937 278.49 53.8089 278.376 53.1811L279.71 52.978C279.793 53.3258 279.964 53.5889 280.222 53.7674C280.481 53.9428 280.818 54.0305 281.233 54.0305C281.686 54.0305 282.047 53.9367 282.318 53.7489C282.589 53.5581 282.724 53.3258 282.724 53.0518C282.724 52.8303 282.641 52.6441 282.475 52.4933C282.312 52.3424 282.061 52.2286 281.723 52.1516L280.522 51.8885C279.861 51.7377 279.371 51.4976 279.054 51.1683C278.74 50.839 278.583 50.422 278.583 49.9173C278.583 49.4987 278.7 49.1325 278.934 48.8185C279.168 48.5046 279.491 48.2599 279.904 48.0845C280.316 47.906 280.789 47.8168 281.321 47.8168C282.087 47.8168 282.691 47.983 283.131 48.3153C283.571 48.6446 283.862 49.0863 284.003 49.6403ZM287.455 53.7074L287.386 54.2106C287.34 54.5799 287.261 54.9646 287.15 55.3647C287.043 55.7679 286.93 56.1418 286.813 56.4865C286.7 56.8312 286.606 57.1051 286.532 57.3082H285.553C285.593 57.1174 285.649 56.8589 285.719 56.5327C285.79 56.2095 285.859 55.8479 285.927 55.4478C285.995 55.0477 286.046 54.6399 286.079 54.2244L286.126 53.7074H287.455ZM296.261 45.5455V55H294.83V46.9766H294.775L292.513 48.4538V47.0874L294.872 45.5455H296.261ZM298.62 53.1534V51.9993L302.706 45.5455H303.615V47.2443H303.038L300.116 51.87V51.9439H305.716V53.1534H298.62ZM303.103 55V52.8026L303.112 52.2763V45.5455H304.465V55H303.103ZM308.252 53.8274C308 53.8274 307.783 53.7382 307.601 53.5597C307.42 53.3781 307.329 53.1596 307.329 52.9041C307.329 52.6518 307.42 52.4363 307.601 52.2578C307.783 52.0762 308 51.9854 308.252 51.9854C308.505 51.9854 308.722 52.0762 308.903 52.2578C309.085 52.4363 309.176 52.6518 309.176 52.9041C309.176 53.0734 309.133 53.2288 309.046 53.3704C308.963 53.5089 308.853 53.6197 308.714 53.7028C308.576 53.7859 308.422 53.8274 308.252 53.8274ZM308.252 49.0909C308 49.0909 307.783 49.0017 307.601 48.8232C307.42 48.6416 307.329 48.4231 307.329 48.1676C307.329 47.9152 307.42 47.6998 307.601 47.5213C307.783 47.3397 308 47.2489 308.252 47.2489C308.505 47.2489 308.722 47.3397 308.903 47.5213C309.085 47.6998 309.176 47.9152 309.176 48.1676C309.176 48.3369 309.133 48.4923 309.046 48.6339C308.963 48.7724 308.853 48.8832 308.714 48.9663C308.576 49.0494 308.422 49.0909 308.252 49.0909ZM314.127 55.1293C313.548 55.1293 313.028 55.0185 312.566 54.7969C312.108 54.5722 311.742 54.2644 311.468 53.8736C311.194 53.4827 311.048 53.0365 311.029 52.5348H312.414C312.448 52.9411 312.628 53.275 312.954 53.5366C313.281 53.7982 313.671 53.929 314.127 53.929C314.49 53.929 314.812 53.8459 315.092 53.6797C315.375 53.5104 315.596 53.2781 315.756 52.9826C315.92 52.6871 316.001 52.3501 316.001 51.9716C316.001 51.5869 315.918 51.2437 315.752 50.9421C315.586 50.6405 315.356 50.4035 315.064 50.2312C314.775 50.0588 314.442 49.9711 314.067 49.968C313.781 49.968 313.493 50.0173 313.204 50.1158C312.914 50.2143 312.68 50.3435 312.502 50.5036L311.195 50.3097L311.726 45.5455H316.924V46.7688H312.913L312.613 49.4141H312.668C312.853 49.2356 313.097 49.0863 313.402 48.9663C313.71 48.8462 314.039 48.7862 314.39 48.7862C314.966 48.7862 315.478 48.9232 315.927 49.1971C316.38 49.471 316.735 49.8449 316.994 50.3189C317.255 50.7898 317.385 51.3314 317.381 51.9439C317.385 52.5563 317.246 53.1026 316.966 53.5827C316.689 54.0629 316.304 54.4414 315.812 54.7184C315.323 54.9923 314.761 55.1293 314.127 55.1293ZM319.068 55V53.9659L322.267 50.6513C322.608 50.2912 322.89 49.9757 323.112 49.7049C323.336 49.431 323.504 49.1709 323.615 48.9247C323.726 48.6785 323.781 48.4169 323.781 48.1399C323.781 47.826 323.707 47.5552 323.559 47.3274C323.412 47.0966 323.21 46.9196 322.955 46.7965C322.699 46.6703 322.412 46.6072 322.091 46.6072C321.753 46.6072 321.457 46.6765 321.205 46.815C320.953 46.9535 320.759 47.1489 320.623 47.4013C320.488 47.6536 320.42 47.9491 320.42 48.2876H319.058C319.058 47.7121 319.191 47.2089 319.455 46.7781C319.72 46.3472 320.083 46.0133 320.545 45.7763C321.007 45.5362 321.531 45.4162 322.119 45.4162C322.713 45.4162 323.236 45.5347 323.689 45.7717C324.144 46.0056 324.5 46.3256 324.755 46.7319C325.011 47.1351 325.138 47.5906 325.138 48.0984C325.138 48.4492 325.072 48.7924 324.94 49.1278C324.811 49.4633 324.584 49.8372 324.261 50.2496C323.938 50.659 323.489 51.156 322.913 51.7408L321.034 53.7074V53.7766H325.291V55H319.068ZM331.409 53.8274C331.156 53.8274 330.939 53.7382 330.758 53.5597C330.576 53.3781 330.485 53.1596 330.485 52.9041C330.485 52.6518 330.576 52.4363 330.758 52.2578C330.939 52.0762 331.156 51.9854 331.409 51.9854C331.661 51.9854 331.878 52.0762 332.06 52.2578C332.241 52.4363 332.332 52.6518 332.332 52.9041C332.332 53.0734 332.289 53.2288 332.203 53.3704C332.12 53.5089 332.009 53.6197 331.87 53.7028C331.732 53.7859 331.578 53.8274 331.409 53.8274ZM331.409 49.0909C331.156 49.0909 330.939 49.0017 330.758 48.8232C330.576 48.6416 330.485 48.4231 330.485 48.1676C330.485 47.9152 330.576 47.6998 330.758 47.5213C330.939 47.3397 331.156 47.2489 331.409 47.2489C331.661 47.2489 331.878 47.3397 332.06 47.5213C332.241 47.6998 332.332 47.9152 332.332 48.1676C332.332 48.3369 332.289 48.4923 332.203 48.6339C332.12 48.7724 332.009 48.8832 331.87 48.9663C331.732 49.0494 331.578 49.0909 331.409 49.0909ZM341.19 45.5455V55H339.759V46.9766H339.703L337.441 48.4538V47.0874L339.8 45.5455H341.19ZM343.747 55V53.9659L346.947 50.6513C347.288 50.2912 347.57 49.9757 347.791 49.7049C348.016 49.431 348.184 49.1709 348.295 48.9247C348.405 48.6785 348.461 48.4169 348.461 48.1399C348.461 47.826 348.387 47.5552 348.239 47.3274C348.091 47.0966 347.89 46.9196 347.634 46.7965C347.379 46.6703 347.091 46.6072 346.771 46.6072C346.433 46.6072 346.137 46.6765 345.885 46.815C345.632 46.9535 345.439 47.1489 345.303 47.4013C345.168 47.6536 345.1 47.9491 345.1 48.2876H343.738C343.738 47.7121 343.87 47.2089 344.135 46.7781C344.4 46.3472 344.763 46.0133 345.225 45.7763C345.686 45.5362 346.211 45.4162 346.799 45.4162C347.393 45.4162 347.916 45.5347 348.368 45.7717C348.824 46.0056 349.179 46.3256 349.435 46.7319C349.69 47.1351 349.818 47.5906 349.818 48.0984C349.818 48.4492 349.752 48.7924 349.619 49.1278C349.49 49.4633 349.264 49.8372 348.941 50.2496C348.618 50.659 348.168 51.156 347.593 51.7408L345.714 53.7074V53.7766H349.97V55H343.747ZM352.648 55.0877C352.396 55.0877 352.179 54.9985 351.997 54.82C351.815 54.6384 351.725 54.4199 351.725 54.1644C351.725 53.9121 351.815 53.6966 351.997 53.5181C352.179 53.3365 352.396 53.2457 352.648 53.2457C352.9 53.2457 353.117 53.3365 353.299 53.5181C353.48 53.6966 353.571 53.9121 353.571 54.1644C353.571 54.3337 353.528 54.4891 353.442 54.6307C353.359 54.7692 353.248 54.88 353.11 54.9631C352.971 55.0462 352.817 55.0877 352.648 55.0877ZM358.35 55.157C357.621 55.1539 356.998 54.9615 356.481 54.5799C355.964 54.1983 355.568 53.6428 355.294 52.9134C355.02 52.1839 354.883 51.3053 354.883 50.2773C354.883 49.2525 355.02 48.3769 355.294 47.6506C355.571 46.9242 355.968 46.3703 356.485 45.9886C357.005 45.607 357.627 45.4162 358.35 45.4162C359.074 45.4162 359.694 45.6085 360.211 45.9933C360.728 46.3749 361.123 46.9289 361.397 47.6552C361.674 48.3784 361.813 49.2525 361.813 50.2773C361.813 51.3084 361.676 52.1886 361.402 52.918C361.128 53.6443 360.733 54.1998 360.215 54.5845C359.698 54.9661 359.077 55.157 358.35 55.157ZM358.35 53.9244C358.991 53.9244 359.491 53.612 359.851 52.9872C360.214 52.3625 360.396 51.4592 360.396 50.2773C360.396 49.4925 360.312 48.8293 360.146 48.2876C359.983 47.7429 359.748 47.3305 359.44 47.0504C359.135 46.7673 358.772 46.6257 358.35 46.6257C357.713 46.6257 357.213 46.9396 356.85 47.5675C356.487 48.1953 356.304 49.0986 356.301 50.2773C356.301 51.0652 356.382 51.7315 356.545 52.2763C356.712 52.8179 356.947 53.2288 357.252 53.5089C357.556 53.7859 357.923 53.9244 358.35 53.9244ZM363.515 55L367.642 46.8381V46.7688H362.869V45.5455H369.119V46.8104L365.006 55H363.515Z" fill="#221E1E" style="fill:#221E1E;fill:color(display-p3 0.1333 0.1183 0.1183);fill-opacity:1;"/>
</svg>
