<svg width="386" height="20" viewBox="0 0 386 20" fill="none" xmlns="http://www.w3.org/2000/svg">
<path d="M17.0387 15V5.54545H20.5011C21.172 5.54545 21.7275 5.65625 22.1676 5.87784C22.6077 6.09635 22.937 6.39335 23.1555 6.76882C23.3741 7.14122 23.4833 7.56132 23.4833 8.02912C23.4833 8.42306 23.411 8.75544 23.2663 9.02628C23.1217 9.29403 22.9278 9.50947 22.6847 9.67258C22.4446 9.83262 22.1799 9.94957 21.8906 10.0234V10.1158C22.2045 10.1312 22.5108 10.2327 22.8093 10.4205C23.1109 10.6051 23.3602 10.8683 23.5572 11.2099C23.7541 11.5515 23.8526 11.967 23.8526 12.4563C23.8526 12.9395 23.7388 13.3735 23.511 13.7582C23.2863 14.1398 22.9386 14.4429 22.4677 14.6676C21.9968 14.8892 21.3951 15 20.6626 15H17.0387ZM18.4652 13.7766H20.5241C21.2074 13.7766 21.6967 13.6443 21.9922 13.3796C22.2876 13.1149 22.4354 12.7841 22.4354 12.3871C22.4354 12.0885 22.36 11.8146 22.2092 11.5653C22.0584 11.3161 21.8429 11.1175 21.5629 10.9698C21.2859 10.8221 20.9566 10.7482 20.5749 10.7482H18.4652V13.7766ZM18.4652 9.63565H20.3764C20.6965 9.63565 20.9843 9.5741 21.2397 9.45099C21.4982 9.32789 21.7029 9.15554 21.8537 8.93395C22.0076 8.70928 22.0845 8.4446 22.0845 8.13991C22.0845 7.74905 21.9476 7.42128 21.6737 7.15661C21.3997 6.89193 20.9796 6.75959 20.4134 6.75959H18.4652V9.63565ZM28.4899 15.1431C27.7913 15.1431 27.1896 14.9938 26.6848 14.6953C26.1832 14.3937 25.7954 13.9705 25.5215 13.4258C25.2507 12.878 25.1152 12.2363 25.1152 11.5007C25.1152 10.7744 25.2507 10.1342 25.5215 9.58026C25.7954 9.02628 26.177 8.59387 26.6664 8.28303C27.1588 7.97218 27.7343 7.81676 28.3929 7.81676C28.793 7.81676 29.1808 7.88293 29.5563 8.01527C29.9318 8.14761 30.2688 8.35535 30.5673 8.63849C30.8658 8.92164 31.1013 9.28942 31.2736 9.74183C31.446 10.1912 31.5321 10.7375 31.5321 11.3807V11.87H25.8954V10.8359H30.1795C30.1795 10.4728 30.1056 10.1512 29.9579 9.87109C29.8102 9.58795 29.6025 9.36482 29.3347 9.2017C29.07 9.03859 28.7592 8.95703 28.4022 8.95703C28.0144 8.95703 27.6758 9.05244 27.3865 9.24325C27.1003 9.43099 26.8787 9.6772 26.7218 9.98189C26.5679 10.2835 26.4909 10.6113 26.4909 10.9652V11.7731C26.4909 12.247 26.574 12.6502 26.7402 12.9826C26.9095 13.315 27.1449 13.5689 27.4466 13.7443C27.7482 13.9167 28.1006 14.0028 28.5037 14.0028C28.7653 14.0028 29.0038 13.9659 29.2193 13.892C29.4347 13.8151 29.6209 13.7012 29.7779 13.5504C29.9348 13.3996 30.0549 13.2134 30.138 12.9918L31.4444 13.2273C31.3398 13.612 31.152 13.949 30.8812 14.2383C30.6135 14.5245 30.2765 14.7476 29.8702 14.9077C29.467 15.0646 29.0069 15.1431 28.4899 15.1431ZM33.0637 17.6591V7.90909H34.4117V9.05859H34.5271C34.6071 8.91087 34.7225 8.74006 34.8733 8.54616C35.0241 8.35227 35.2334 8.183 35.5012 8.03835C35.7689 7.89062 36.1228 7.81676 36.5629 7.81676C37.1354 7.81676 37.6463 7.96141 38.0956 8.25071C38.545 8.54001 38.8973 8.95703 39.1528 9.50178C39.4113 10.0465 39.5406 10.7021 39.5406 11.4684C39.5406 12.2347 39.4128 12.8918 39.1574 13.4396C38.902 13.9844 38.5511 14.4045 38.1048 14.6999C37.6586 14.9923 37.1492 15.1385 36.5768 15.1385C36.1459 15.1385 35.7935 15.0662 35.5196 14.9215C35.2488 14.7769 35.0364 14.6076 34.8825 14.4137C34.7287 14.2198 34.6102 14.0475 34.5271 13.8967H34.444V17.6591H33.0637ZM34.4163 11.4545C34.4163 11.9531 34.4886 12.3902 34.6333 12.7656C34.7779 13.1411 34.9872 13.435 35.2611 13.6474C35.535 13.8567 35.8705 13.9613 36.2675 13.9613C36.6799 13.9613 37.0246 13.852 37.3016 13.6335C37.5786 13.4119 37.7878 13.1119 37.9294 12.7333C38.0741 12.3548 38.1464 11.9285 38.1464 11.4545C38.1464 10.9867 38.0756 10.5666 37.934 10.1942C37.7955 9.82185 37.5863 9.52794 37.3062 9.3125C37.0292 9.09706 36.683 8.98935 36.2675 8.98935C35.8674 8.98935 35.5289 9.09245 35.2519 9.29865C34.978 9.50485 34.7702 9.79261 34.6286 10.1619C34.4871 10.5312 34.4163 10.9621 34.4163 11.4545ZM44.074 15.1431C43.3876 15.1431 42.7967 14.9877 42.3012 14.6768C41.8088 14.3629 41.4302 13.9305 41.1656 13.3796C40.9009 12.8287 40.7686 12.1978 40.7686 11.4869C40.7686 10.7667 40.904 10.1312 41.1748 9.58026C41.4456 9.02628 41.8273 8.59387 42.3197 8.28303C42.8121 7.97218 43.3923 7.81676 44.0601 7.81676C44.5987 7.81676 45.0788 7.91679 45.5004 8.11683C45.9221 8.3138 46.2622 8.59079 46.5207 8.9478C46.7823 9.30481 46.9377 9.72183 46.9869 10.1989H45.6436C45.5697 9.86648 45.4004 9.58026 45.1357 9.3402C44.8741 9.10014 44.5233 8.98011 44.0832 8.98011C43.6985 8.98011 43.3615 9.08168 43.0722 9.2848C42.786 9.48485 42.5628 9.77107 42.4028 10.1435C42.2427 10.5128 42.1627 10.9498 42.1627 11.4545C42.1627 11.9716 42.2412 12.4179 42.3982 12.7933C42.5551 13.1688 42.7767 13.4596 43.0629 13.6658C43.3522 13.872 43.6923 13.9751 44.0832 13.9751C44.3448 13.9751 44.5818 13.9274 44.7941 13.832C45.0096 13.7335 45.1896 13.5935 45.3343 13.4119C45.482 13.2304 45.5851 13.0118 45.6436 12.7564H46.9869C46.9377 13.215 46.7884 13.6243 46.5392 13.9844C46.2899 14.3445 45.9559 14.6276 45.5374 14.8338C45.1219 15.04 44.6341 15.1431 44.074 15.1431ZM49.8157 13.0657L52.9411 7.90909H54.4276V15H53.0749V9.83878L49.9634 15H48.4631V7.90909H49.8157V13.0657ZM60.5121 15V9.08629H58.8132C58.41 9.08629 58.0961 9.18016 57.8714 9.3679C57.6468 9.55563 57.5344 9.80185 57.5344 10.1065C57.5344 10.4081 57.6375 10.6513 57.8438 10.8359C58.053 11.0175 58.3454 11.1083 58.7209 11.1083H60.9137V12.2255H58.7209C58.1977 12.2255 57.7453 12.1393 57.3636 11.967C56.9851 11.7915 56.6927 11.5438 56.4865 11.2237C56.2834 10.9036 56.1818 10.5251 56.1818 10.0881C56.1818 9.64181 56.2865 9.2571 56.4957 8.93395C56.7081 8.60772 57.0112 8.35535 57.4052 8.17685C57.8022 7.99834 58.2715 7.90909 58.8132 7.90909H61.8093V15H60.5121ZM55.8587 15L57.8576 11.4176H59.2702L57.2713 15H55.8587ZM74.5889 5.54545V15H73.167V6.7642H68.7167V15H67.2948V5.54545H74.5889ZM84.9829 10.2727C84.9829 11.2822 84.7982 12.1501 84.4289 12.8764C84.0596 13.5997 83.5533 14.1567 82.9101 14.5476C82.2699 14.9354 81.5421 15.1293 80.7265 15.1293C79.9078 15.1293 79.1769 14.9354 78.5336 14.5476C77.8935 14.1567 77.3888 13.5981 77.0194 12.8718C76.6501 12.1455 76.4655 11.2791 76.4655 10.2727C76.4655 9.26326 76.6501 8.3969 77.0194 7.67365C77.3888 6.94732 77.8935 6.39027 78.5336 6.00249C79.1769 5.61162 79.9078 5.41619 80.7265 5.41619C81.5421 5.41619 82.2699 5.61162 82.9101 6.00249C83.5533 6.39027 84.0596 6.94732 84.4289 7.67365C84.7982 8.3969 84.9829 9.26326 84.9829 10.2727ZM83.5702 10.2727C83.5702 9.50331 83.4456 8.85547 83.1963 8.32919C82.9501 7.79983 82.6115 7.39974 82.1807 7.12891C81.7529 6.855 81.2681 6.71804 80.7265 6.71804C80.1817 6.71804 79.6955 6.855 79.2677 7.12891C78.8399 7.39974 78.5013 7.79983 78.252 8.32919C78.0058 8.85547 77.8827 9.50331 77.8827 10.2727C77.8827 11.0421 78.0058 11.6915 78.252 12.2209C78.5013 12.7472 78.8399 13.1473 79.2677 13.4212C79.6955 13.692 80.1817 13.8274 80.7265 13.8274C81.2681 13.8274 81.7529 13.692 82.1807 13.4212C82.6115 13.1473 82.9501 12.7472 83.1963 12.2209C83.4456 11.6915 83.5702 11.0421 83.5702 10.2727Z" fill="#676767" style="fill:#676767;fill:color(display-p3 0.4039 0.4039 0.4039);fill-opacity:1;"/>
<rect x="86.25" y="17.25" width="154.5" height="0.5" stroke="#ADABAB" style="stroke:#ADABAB;stroke:color(display-p3 0.6784 0.6706 0.6706);stroke-opacity:1;" stroke-width="0.5" stroke-dasharray="1 1"/>
<path d="M247.195 8.02912C247.146 7.59209 246.943 7.25355 246.586 7.01349C246.229 6.77036 245.78 6.64879 245.238 6.64879C244.85 6.64879 244.515 6.71035 244.232 6.83345C243.948 6.95348 243.728 7.11967 243.571 7.33203C243.417 7.54131 243.341 7.77983 243.341 8.04759C243.341 8.27225 243.393 8.46615 243.498 8.62926C243.605 8.79238 243.745 8.92933 243.918 9.04013C244.093 9.14785 244.281 9.23864 244.481 9.3125C244.681 9.38329 244.873 9.44176 245.058 9.48793L245.981 9.72798C246.283 9.80185 246.592 9.90187 246.909 10.0281C247.226 10.1542 247.52 10.3204 247.791 10.5266C248.062 10.7328 248.28 10.9883 248.446 11.293C248.616 11.5977 248.7 11.9624 248.7 12.3871C248.7 12.9226 248.562 13.3981 248.285 13.8136C248.011 14.229 247.612 14.5568 247.089 14.7969C246.569 15.0369 245.94 15.157 245.201 15.157C244.493 15.157 243.881 15.0446 243.364 14.82C242.847 14.5953 242.442 14.2768 242.15 13.8643C241.857 13.4489 241.696 12.9564 241.665 12.3871H243.096C243.124 12.7287 243.234 13.0134 243.428 13.2411C243.625 13.4658 243.876 13.6335 244.181 13.7443C244.489 13.852 244.826 13.9059 245.192 13.9059C245.595 13.9059 245.953 13.8428 246.267 13.7166C246.584 13.5874 246.834 13.4089 247.015 13.1811C247.197 12.9503 247.288 12.681 247.288 12.3732C247.288 12.0932 247.208 11.8639 247.048 11.6854C246.891 11.5069 246.677 11.3591 246.406 11.2422C246.138 11.1252 245.835 11.0221 245.496 10.9329L244.379 10.6282C243.622 10.422 243.022 10.1188 242.579 9.71875C242.139 9.31866 241.919 8.7893 241.919 8.13068C241.919 7.58594 242.066 7.11044 242.362 6.70419C242.657 6.29794 243.057 5.98248 243.562 5.75781C244.067 5.53007 244.636 5.41619 245.27 5.41619C245.91 5.41619 246.475 5.52853 246.964 5.7532C247.457 5.97786 247.845 6.28717 248.128 6.68111C248.411 7.07197 248.559 7.52131 248.571 8.02912H247.195ZM252.256 15L249.634 5.54545H251.134L252.976 12.8672H253.064L254.98 5.54545H256.466L258.382 12.8718H258.47L260.307 5.54545H261.812L259.185 15H257.75L255.76 7.91832H255.686L253.696 15H252.256ZM262.341 13.1534V11.9993L266.426 5.54545H267.336V7.24432H266.759L263.837 11.87V11.9439H269.436V13.1534H262.341ZM266.823 15V12.8026L266.833 12.2763V5.54545H268.185V15H266.823ZM274.24 15.1293C273.578 15.1293 272.993 15.0154 272.486 14.7876C271.981 14.5599 271.585 14.246 271.299 13.8459C271.013 13.4458 270.871 12.9903 270.874 12.4794C270.871 12.0793 270.953 11.7115 271.119 11.3761C271.288 11.0375 271.518 10.7559 271.807 10.5312C272.096 10.3035 272.419 10.1589 272.776 10.0973V10.0419C272.305 9.92803 271.928 9.67566 271.645 9.2848C271.362 8.89394 271.222 8.4446 271.225 7.93679C271.222 7.4536 271.35 7.02273 271.608 6.64418C271.87 6.26255 272.229 5.96248 272.684 5.74396C273.14 5.52545 273.658 5.41619 274.24 5.41619C274.815 5.41619 275.329 5.52699 275.782 5.74858C276.237 5.96709 276.596 6.26716 276.857 6.64879C277.119 7.02734 277.251 7.45668 277.254 7.93679C277.251 8.4446 277.107 8.89394 276.82 9.2848C276.534 9.67566 276.162 9.92803 275.703 10.0419V10.0973C276.057 10.1589 276.376 10.3035 276.659 10.5312C276.945 10.7559 277.173 11.0375 277.342 11.3761C277.514 11.7115 277.602 12.0793 277.605 12.4794C277.602 12.9903 277.457 13.4458 277.171 13.8459C276.885 14.246 276.488 14.5599 275.98 14.7876C275.475 15.0154 274.895 15.1293 274.24 15.1293ZM274.24 13.9613C274.631 13.9613 274.969 13.8967 275.255 13.7674C275.542 13.6351 275.763 13.4519 275.92 13.218C276.077 12.9811 276.157 12.7041 276.16 12.3871C276.157 12.0578 276.071 11.7669 275.902 11.5146C275.736 11.2622 275.509 11.0637 275.223 10.919C274.937 10.7744 274.609 10.7021 274.24 10.7021C273.867 10.7021 273.537 10.7744 273.247 10.919C272.958 11.0637 272.73 11.2622 272.564 11.5146C272.398 11.7669 272.316 12.0578 272.319 12.3871C272.316 12.7041 272.392 12.9811 272.546 13.218C272.703 13.4519 272.926 13.6351 273.215 13.7674C273.504 13.8967 273.846 13.9613 274.24 13.9613ZM274.24 9.56179C274.554 9.56179 274.832 9.4987 275.075 9.37251C275.319 9.24633 275.509 9.0709 275.648 8.84624C275.789 8.62157 275.862 8.35843 275.865 8.05682C275.862 7.76136 275.791 7.50284 275.652 7.28125C275.517 7.05966 275.328 6.88885 275.085 6.76882C274.841 6.64571 274.56 6.58416 274.24 6.58416C273.914 6.58416 273.627 6.64571 273.381 6.76882C273.138 6.88885 272.949 7.05966 272.813 7.28125C272.678 7.50284 272.612 7.76136 272.615 8.05682C272.612 8.35843 272.679 8.62157 272.818 8.84624C272.956 9.0709 273.147 9.24633 273.39 9.37251C273.637 9.4987 273.92 9.56179 274.24 9.56179ZM279.259 15V13.9659L282.458 10.6513C282.8 10.2912 283.081 9.97573 283.303 9.7049C283.528 9.43099 283.695 9.17093 283.806 8.92472C283.917 8.6785 283.972 8.4169 283.972 8.13991C283.972 7.82599 283.899 7.55516 283.751 7.32741C283.603 7.09659 283.402 6.91963 283.146 6.79652C282.891 6.67034 282.603 6.60724 282.283 6.60724C281.944 6.60724 281.649 6.67649 281.396 6.81499C281.144 6.95348 280.95 7.14891 280.815 7.40128C280.679 7.65365 280.612 7.9491 280.612 8.28764H279.25C279.25 7.71212 279.382 7.20893 279.647 6.77805C279.912 6.34718 280.275 6.01326 280.736 5.77628C281.198 5.53622 281.723 5.41619 282.311 5.41619C282.905 5.41619 283.428 5.53468 283.88 5.77166C284.336 6.00556 284.691 6.32564 284.947 6.73189C285.202 7.13506 285.33 7.59055 285.33 8.09837C285.33 8.44922 285.264 8.79238 285.131 9.12784C285.002 9.4633 284.776 9.83724 284.453 10.2496C284.129 10.659 283.68 11.156 283.105 11.7408L281.226 13.7074V13.7766H285.482V15H279.259ZM290.523 15.157C289.794 15.1539 289.171 14.9615 288.654 14.5799C288.137 14.1983 287.741 13.6428 287.467 12.9134C287.193 12.1839 287.056 11.3053 287.056 10.2773C287.056 9.25249 287.193 8.37689 287.467 7.65057C287.744 6.92424 288.141 6.37026 288.658 5.98864C289.178 5.60701 289.8 5.41619 290.523 5.41619C291.247 5.41619 291.867 5.60855 292.384 5.99325C292.901 6.37488 293.296 6.92886 293.57 7.65518C293.847 8.37843 293.986 9.25249 293.986 10.2773C293.986 11.3084 293.849 12.1886 293.575 12.918C293.301 13.6443 292.905 14.1998 292.388 14.5845C291.871 14.9661 291.25 15.157 290.523 15.157ZM290.523 13.9244C291.163 13.9244 291.664 13.612 292.024 12.9872C292.387 12.3625 292.568 11.4592 292.568 10.2773C292.568 9.49254 292.485 8.82931 292.319 8.28764C292.156 7.7429 291.921 7.33049 291.613 7.05043C291.308 6.76728 290.945 6.62571 290.523 6.62571C289.886 6.62571 289.386 6.93963 289.023 7.56747C288.66 8.19531 288.477 9.0986 288.474 10.2773C288.474 11.0652 288.555 11.7315 288.718 12.2763C288.884 12.8179 289.12 13.2288 289.425 13.5089C289.729 13.7859 290.095 13.9244 290.523 13.9244ZM299.82 9.67258V10.8729H295.628V9.67258H299.82ZM301.77 15V5.54545H305.14C305.873 5.54545 306.48 5.67164 306.964 5.92401C307.45 6.17637 307.813 6.52569 308.053 6.97195C308.293 7.41513 308.413 7.92756 308.413 8.50923C308.413 9.08783 308.292 9.59718 308.049 10.0373C307.809 10.4743 307.445 10.8144 306.959 11.0575C306.476 11.3007 305.868 11.4222 305.136 11.4222H302.583V10.1942H305.006C305.468 10.1942 305.843 10.1281 306.133 9.99574C306.425 9.8634 306.639 9.67105 306.774 9.41868C306.91 9.16631 306.978 8.86316 306.978 8.50923C306.978 8.15222 306.908 7.84292 306.77 7.58132C306.634 7.31972 306.42 7.11967 306.128 6.98118C305.839 6.83961 305.459 6.76882 304.988 6.76882H303.197V15H301.77ZM306.437 10.7344L308.773 15H307.148L304.859 10.7344H306.437ZM313.607 5.54545V15H312.176V6.97656H312.12L309.858 8.45384V7.08736L312.217 5.54545H313.607ZM316.483 15L320.61 6.83807V6.76882H315.837V5.54545H322.087V6.81037L317.974 15H316.483ZM322.996 15.0877C322.743 15.0877 322.526 14.9985 322.345 14.82C322.163 14.6384 322.072 14.4199 322.072 14.1644C322.072 13.9121 322.163 13.6966 322.345 13.5181C322.526 13.3365 322.743 13.2457 322.996 13.2457C323.248 13.2457 323.465 13.3365 323.646 13.5181C323.828 13.6966 323.919 13.9121 323.919 14.1644C323.919 14.3337 323.876 14.4891 323.79 14.6307C323.706 14.7692 323.596 14.88 323.457 14.9631C323.319 15.0462 323.165 15.0877 322.996 15.0877ZM328.718 15.1293C328.139 15.1293 327.619 15.0185 327.157 14.7969C326.699 14.5722 326.333 14.2644 326.059 13.8736C325.785 13.4827 325.638 13.0365 325.62 12.5348H327.005C327.039 12.9411 327.219 13.275 327.545 13.5366C327.871 13.7982 328.262 13.929 328.718 13.929C329.081 13.929 329.402 13.8459 329.683 13.6797C329.966 13.5104 330.187 13.2781 330.347 12.9826C330.51 12.6871 330.592 12.3501 330.592 11.9716C330.592 11.5869 330.509 11.2437 330.343 10.9421C330.176 10.6405 329.947 10.4035 329.655 10.2312C329.366 10.0588 329.033 9.97112 328.658 9.96804C328.371 9.96804 328.084 10.0173 327.794 10.1158C327.505 10.2143 327.271 10.3435 327.093 10.5036L325.786 10.3097L326.317 5.54545H331.515V6.76882H327.504L327.203 9.41406H327.259C327.444 9.23556 327.688 9.08629 327.993 8.96626C328.301 8.84624 328.63 8.78622 328.981 8.78622C329.556 8.78622 330.069 8.92318 330.518 9.19709C330.971 9.471 331.326 9.84493 331.585 10.3189C331.846 10.7898 331.975 11.3314 331.972 11.9439C331.975 12.5563 331.837 13.1026 331.557 13.5827C331.28 14.0629 330.895 14.4414 330.403 14.7184C329.913 14.9923 329.352 15.1293 328.718 15.1293ZM334.244 15.0877C333.991 15.0877 333.774 14.9985 333.593 14.82C333.411 14.6384 333.32 14.4199 333.32 14.1644C333.32 13.9121 333.411 13.6966 333.593 13.5181C333.774 13.3365 333.991 13.2457 334.244 13.2457C334.496 13.2457 334.713 13.3365 334.895 13.5181C335.076 13.6966 335.167 13.9121 335.167 14.1644C335.167 14.3337 335.124 14.4891 335.038 14.6307C334.955 14.7692 334.844 14.88 334.705 14.9631C334.567 15.0462 334.413 15.0877 334.244 15.0877ZM336.997 15V13.9659L340.197 10.6513C340.538 10.2912 340.82 9.97573 341.041 9.7049C341.266 9.43099 341.434 9.17093 341.545 8.92472C341.655 8.6785 341.711 8.4169 341.711 8.13991C341.711 7.82599 341.637 7.55516 341.489 7.32741C341.341 7.09659 341.14 6.91963 340.884 6.79652C340.629 6.67034 340.341 6.60724 340.021 6.60724C339.683 6.60724 339.387 6.67649 339.135 6.81499C338.882 6.95348 338.689 7.14891 338.553 7.40128C338.418 7.65365 338.35 7.9491 338.35 8.28764H336.988C336.988 7.71212 337.12 7.20893 337.385 6.77805C337.65 6.34718 338.013 6.01326 338.475 5.77628C338.936 5.53622 339.461 5.41619 340.049 5.41619C340.643 5.41619 341.166 5.53468 341.618 5.77166C342.074 6.00556 342.429 6.32564 342.685 6.73189C342.94 7.13506 343.068 7.59055 343.068 8.09837C343.068 8.44922 343.002 8.79238 342.869 9.12784C342.74 9.4633 342.514 9.83724 342.191 10.2496C341.868 10.659 341.418 11.156 340.843 11.7408L338.964 13.7074V13.7766H343.22V15H336.997ZM348.262 15.157C347.532 15.1539 346.909 14.9615 346.392 14.5799C345.875 14.1983 345.479 13.6428 345.205 12.9134C344.932 12.1839 344.795 11.3053 344.795 10.2773C344.795 9.25249 344.932 8.37689 345.205 7.65057C345.482 6.92424 345.879 6.37026 346.396 5.98864C346.917 5.60701 347.538 5.41619 348.262 5.41619C348.985 5.41619 349.605 5.60855 350.122 5.99325C350.639 6.37488 351.035 6.92886 351.308 7.65518C351.585 8.37843 351.724 9.25249 351.724 10.2773C351.724 11.3084 351.587 12.1886 351.313 12.918C351.039 13.6443 350.644 14.1998 350.127 14.5845C349.61 14.9661 348.988 15.157 348.262 15.157ZM348.262 13.9244C348.902 13.9244 349.402 13.612 349.762 12.9872C350.125 12.3625 350.307 11.4592 350.307 10.2773C350.307 9.49254 350.224 8.82931 350.057 8.28764C349.894 7.7429 349.659 7.33049 349.351 7.05043C349.046 6.76728 348.683 6.62571 348.262 6.62571C347.624 6.62571 347.124 6.93963 346.761 7.56747C346.398 8.19531 346.215 9.0986 346.212 10.2773C346.212 11.0652 346.293 11.7315 346.456 12.2763C346.623 12.8179 346.858 13.2288 347.163 13.5089C347.468 13.7859 347.834 13.9244 348.262 13.9244ZM356.653 15.1293C356.019 15.1293 355.453 15.02 354.954 14.8015C354.459 14.583 354.066 14.2798 353.777 13.892C353.491 13.5012 353.337 13.0488 353.315 12.5348H354.765C354.783 12.8149 354.877 13.058 355.047 13.2642C355.219 13.4673 355.444 13.6243 355.721 13.7351C355.998 13.8459 356.305 13.9013 356.644 13.9013C357.016 13.9013 357.346 13.8366 357.632 13.7074C357.921 13.5781 358.147 13.3981 358.31 13.1673C358.474 12.9334 358.555 12.6641 358.555 12.3594C358.555 12.0424 358.474 11.7638 358.31 11.5238C358.15 11.2807 357.915 11.0898 357.604 10.9513C357.296 10.8129 356.924 10.7436 356.487 10.7436H355.688V9.58026H356.487C356.838 9.58026 357.146 9.51716 357.41 9.39098C357.678 9.2648 357.887 9.08937 358.038 8.8647C358.189 8.63696 358.264 8.37074 358.264 8.06605C358.264 7.77367 358.198 7.51977 358.066 7.30433C357.937 7.08582 357.752 6.91501 357.512 6.7919C357.275 6.6688 356.995 6.60724 356.672 6.60724C356.364 6.60724 356.076 6.66418 355.808 6.77805C355.544 6.88885 355.328 7.04889 355.162 7.25817C354.996 7.46437 354.907 7.71212 354.894 8.00142H353.514C353.529 7.49053 353.68 7.04119 353.966 6.65341C354.256 6.26562 354.637 5.96248 355.111 5.74396C355.585 5.52545 356.111 5.41619 356.69 5.41619C357.296 5.41619 357.82 5.53468 358.26 5.77166C358.703 6.00556 359.044 6.31794 359.285 6.70881C359.528 7.09967 359.648 7.52746 359.645 7.99219C359.648 8.52154 359.5 8.97088 359.201 9.3402C358.906 9.70952 358.512 9.95727 358.02 10.0835V10.1573C358.647 10.2527 359.134 10.502 359.478 10.9052C359.826 11.3084 359.999 11.8085 359.995 12.4055C359.999 12.9257 359.854 13.3919 359.562 13.8043C359.272 14.2167 358.877 14.5414 358.375 14.7784C357.873 15.0123 357.299 15.1293 356.653 15.1293ZM361.542 13.1534V11.9993L365.628 5.54545H366.537V7.24432H365.96L363.038 11.87V11.9439H368.638V13.1534H361.542ZM366.025 15V12.8026L366.034 12.2763V5.54545H367.386V15H366.025Z" fill="#221E1E" style="fill:#221E1E;fill:color(display-p3 0.1333 0.1183 0.1183);fill-opacity:1;"/>
</svg>
