<svg width="386" height="20" viewBox="0 0 386 20" fill="none" xmlns="http://www.w3.org/2000/svg">
<path d="M22.2415 9.64027L20.9904 9.86186C20.9381 9.70182 20.855 9.54948 20.7411 9.40483C20.6303 9.26018 20.4795 9.14169 20.2887 9.04936C20.0979 8.95703 19.8594 8.91087 19.5732 8.91087C19.1823 8.91087 18.8561 8.99858 18.5945 9.17401C18.3329 9.34635 18.2021 9.56948 18.2021 9.84339C18.2021 10.0804 18.2898 10.2712 18.4652 10.4158C18.6406 10.5605 18.9238 10.679 19.3146 10.7713L20.4411 11.0298C21.0935 11.1806 21.5798 11.413 21.8999 11.7269C22.2199 12.0408 22.38 12.4486 22.38 12.9503C22.38 13.375 22.2569 13.7536 22.0107 14.0859C21.7675 14.4152 21.4274 14.6738 20.9904 14.8615C20.5565 15.0492 20.0533 15.1431 19.4808 15.1431C18.6868 15.1431 18.0389 14.9738 17.5373 14.6353C17.0356 14.2937 16.7279 13.8089 16.614 13.1811L17.9482 12.978C18.0313 13.3258 18.2021 13.5889 18.4606 13.7674C18.7191 13.9428 19.0561 14.0305 19.4716 14.0305C19.924 14.0305 20.2856 13.9367 20.5565 13.7489C20.8273 13.5581 20.9627 13.3258 20.9627 13.0518C20.9627 12.8303 20.8796 12.6441 20.7134 12.4933C20.5503 12.3424 20.2995 12.2286 19.9609 12.1516L18.7607 11.8885C18.099 11.7377 17.6096 11.4976 17.2926 11.1683C16.9787 10.839 16.8217 10.422 16.8217 9.91726C16.8217 9.4987 16.9387 9.13246 17.1726 8.81854C17.4065 8.50462 17.7296 8.25994 18.142 8.08452C18.5545 7.90601 19.0269 7.81676 19.5593 7.81676C20.3256 7.81676 20.9289 7.98295 21.369 8.31534C21.8091 8.64465 22.0999 9.08629 22.2415 9.64027ZM24.7702 17.6591C24.564 17.6591 24.3762 17.6422 24.2069 17.6083C24.0377 17.5775 23.9115 17.5437 23.8284 17.5067L24.1608 16.3757C24.4131 16.4434 24.6378 16.4727 24.8348 16.4634C25.0318 16.4542 25.2056 16.3803 25.3564 16.2418C25.5103 16.1033 25.6457 15.8771 25.7627 15.5632L25.9335 15.0923L23.339 7.90909H24.8163L26.6121 13.4119H26.686L28.4818 7.90909H29.9637L27.0415 15.9464C26.906 16.3157 26.7337 16.6281 26.5244 16.8835C26.3151 17.142 26.0658 17.3359 25.7765 17.4652C25.4872 17.5945 25.1518 17.6591 24.7702 17.6591ZM36.5745 9.64027L35.3234 9.86186C35.2711 9.70182 35.188 9.54948 35.0741 9.40483C34.9633 9.26018 34.8125 9.14169 34.6217 9.04936C34.4309 8.95703 34.1924 8.91087 33.9062 8.91087C33.5153 8.91087 33.1891 8.99858 32.9275 9.17401C32.6659 9.34635 32.5351 9.56948 32.5351 9.84339C32.5351 10.0804 32.6228 10.2712 32.7982 10.4158C32.9736 10.5605 33.2568 10.679 33.6476 10.7713L34.7741 11.0298C35.4265 11.1806 35.9128 11.413 36.2329 11.7269C36.5529 12.0408 36.713 12.4486 36.713 12.9503C36.713 13.375 36.5899 13.7536 36.3437 14.0859C36.1005 14.4152 35.7604 14.6738 35.3234 14.8615C34.8895 15.0492 34.3863 15.1431 33.8138 15.1431C33.0198 15.1431 32.372 14.9738 31.8703 14.6353C31.3686 14.2937 31.0609 13.8089 30.947 13.1811L32.2812 12.978C32.3643 13.3258 32.5351 13.5889 32.7936 13.7674C33.0521 13.9428 33.3891 14.0305 33.8046 14.0305C34.257 14.0305 34.6186 13.9367 34.8895 13.7489C35.1603 13.5581 35.2957 13.3258 35.2957 13.0518C35.2957 12.8303 35.2126 12.6441 35.0464 12.4933C34.8833 12.3424 34.6325 12.2286 34.2939 12.1516L33.0937 11.8885C32.432 11.7377 31.9426 11.4976 31.6256 11.1683C31.3117 10.839 31.1547 10.422 31.1547 9.91726C31.1547 9.4987 31.2717 9.13246 31.5056 8.81854C31.7395 8.50462 32.0626 8.25994 32.4751 8.08452C32.8875 7.90601 33.3599 7.81676 33.8923 7.81676C34.6586 7.81676 35.2619 7.98295 35.702 8.31534C36.1421 8.64465 36.4329 9.08629 36.5745 9.64027ZM45.9725 5.54545V15H44.6614L39.8556 8.06605H39.7679V15H38.3414V5.54545H39.6618L44.4721 12.4886H44.5598V5.54545H45.9725ZM50.0061 15.157C49.5568 15.157 49.1505 15.0739 48.7874 14.9077C48.4242 14.7384 48.1365 14.4937 47.9241 14.1737C47.7148 13.8536 47.6102 13.4612 47.6102 12.9964C47.6102 12.5964 47.6871 12.267 47.841 12.0085C47.9949 11.75 48.2026 11.5453 48.4642 11.3945C48.7258 11.2437 49.0182 11.1299 49.3414 11.0529C49.6645 10.976 49.9938 10.9175 50.3293 10.8775C50.754 10.8282 51.0987 10.7882 51.3634 10.7575C51.628 10.7236 51.8204 10.6697 51.9404 10.5959C52.0605 10.522 52.1205 10.402 52.1205 10.2358V10.2035C52.1205 9.80031 52.0066 9.48793 51.7789 9.26633C51.5542 9.04474 51.2187 8.93395 50.7725 8.93395C50.3077 8.93395 49.9415 9.03705 49.6737 9.24325C49.4091 9.44638 49.2259 9.67259 49.1244 9.92188L47.8271 9.62642C47.981 9.19555 48.2057 8.84777 48.5012 8.5831C48.7997 8.31534 49.1428 8.12145 49.5306 8.00142C49.9184 7.87831 50.3262 7.81676 50.754 7.81676C51.0371 7.81676 51.3372 7.85062 51.6542 7.91832C51.9743 7.98295 52.2728 8.10298 52.5498 8.27841C52.8299 8.45383 53.0592 8.70466 53.2377 9.03089C53.4162 9.35405 53.5054 9.77415 53.5054 10.2912V15H52.1574V14.0305H52.102C52.0128 14.209 51.8789 14.3845 51.7004 14.5568C51.5219 14.7292 51.2926 14.8723 51.0125 14.9862C50.7325 15.1 50.397 15.157 50.0061 15.157ZM50.3062 14.049C50.6878 14.049 51.0141 13.9736 51.2849 13.8228C51.5588 13.672 51.7665 13.475 51.9081 13.2319C52.0528 12.9857 52.1251 12.7225 52.1251 12.4425V11.5284C52.0758 11.5777 51.9804 11.6238 51.8389 11.6669C51.7004 11.7069 51.5419 11.7423 51.3634 11.7731C51.1849 11.8008 51.011 11.8269 50.8417 11.8516C50.6724 11.8731 50.5309 11.8916 50.417 11.907C50.1492 11.9408 49.9046 11.9978 49.683 12.0778C49.4645 12.1578 49.289 12.2732 49.1567 12.424C49.0274 12.5717 48.9628 12.7687 48.9628 13.0149C48.9628 13.3565 49.089 13.6151 49.3414 13.7905C49.5937 13.9628 49.9153 14.049 50.3062 14.049ZM55.3439 15V7.90909H56.6689V9.06321H56.7566C56.9043 8.67235 57.1459 8.36766 57.4814 8.14915C57.8168 7.92756 58.2185 7.81676 58.6863 7.81676C59.1602 7.81676 59.5572 7.92756 59.8773 8.14915C60.2005 8.37074 60.439 8.67543 60.5929 9.06321H60.6667C60.836 8.68466 61.1053 8.38305 61.4746 8.15838C61.8439 7.93063 62.284 7.81676 62.7949 7.81676C63.4382 7.81676 63.9629 8.01835 64.3691 8.42152C64.7785 8.82469 64.9831 9.43253 64.9831 10.245V15H63.6028V10.3743C63.6028 9.89418 63.472 9.5464 63.2104 9.33097C62.9488 9.11553 62.6364 9.00781 62.2733 9.00781C61.8239 9.00781 61.4746 9.14631 61.2253 9.4233C60.976 9.69721 60.8514 10.0496 60.8514 10.4805V15H59.4757V10.2866C59.4757 9.90187 59.3556 9.59257 59.1156 9.35866C58.8755 9.12476 58.5632 9.00781 58.1784 9.00781C57.9168 9.00781 57.6752 9.07706 57.4537 9.21555C57.2351 9.35097 57.0582 9.54025 56.9228 9.78338C56.7904 10.0265 56.7243 10.3081 56.7243 10.6282V15H55.3439ZM69.8893 15.1431C69.1907 15.1431 68.589 14.9938 68.0843 14.6953C67.5826 14.3937 67.1948 13.9705 66.9209 13.4258C66.6501 12.878 66.5146 12.2363 66.5146 11.5007C66.5146 10.7744 66.6501 10.1342 66.9209 9.58026C67.1948 9.02628 67.5764 8.59387 68.0658 8.28303C68.5582 7.97218 69.1337 7.81676 69.7923 7.81676C70.1924 7.81676 70.5802 7.88293 70.9557 8.01527C71.3312 8.14761 71.6682 8.35535 71.9667 8.63849C72.2652 8.92164 72.5007 9.28942 72.673 9.74183C72.8454 10.1912 72.9316 10.7375 72.9316 11.3807V11.87H67.2948V10.8359H71.5789C71.5789 10.4728 71.5051 10.1512 71.3573 9.87109C71.2096 9.58795 71.0019 9.36482 70.7341 9.2017C70.4694 9.03859 70.1586 8.95703 69.8016 8.95703C69.4138 8.95703 69.0753 9.05244 68.786 9.24325C68.4997 9.43099 68.2781 9.6772 68.1212 9.98189C67.9673 10.2835 67.8904 10.6113 67.8904 10.9652V11.7731C67.8904 12.247 67.9735 12.6502 68.1396 12.9826C68.3089 13.315 68.5444 13.5689 68.846 13.7443C69.1476 13.9167 69.5 14.0028 69.9031 14.0028C70.1647 14.0028 70.4033 13.9659 70.6187 13.892C70.8341 13.8151 71.0203 13.7012 71.1773 13.5504C71.3343 13.3996 71.4543 13.2134 71.5374 12.9918L72.8438 13.2273C72.7392 13.612 72.5515 13.949 72.2806 14.2383C72.0129 14.5245 71.6759 14.7476 71.2696 14.9077C70.8664 15.0646 70.4063 15.1431 69.8893 15.1431Z" fill="#676767" style="fill:#676767;fill:color(display-p3 0.4039 0.4039 0.4039);fill-opacity:1;"/>
<rect x="74.25" y="17.25" width="158.5" height="0.5" stroke="#ADABAB" style="stroke:#ADABAB;stroke:color(display-p3 0.6784 0.6706 0.6706);stroke-opacity:1;" stroke-width="0.5" stroke-dasharray="1 1"/>
<path d="M233.572 6.77344V5.54545H240.89V6.77344H237.94V15H236.518V6.77344H233.572ZM247.649 7.90909L245.078 15H243.601L241.025 7.90909H242.506L244.302 13.3658H244.376L246.167 7.90909H247.649ZM251.761 15.1431C251.063 15.1431 250.461 14.9938 249.956 14.6953C249.455 14.3937 249.067 13.9705 248.793 13.4258C248.522 12.878 248.387 12.2363 248.387 11.5007C248.387 10.7744 248.522 10.1342 248.793 9.58026C249.067 9.02628 249.449 8.59387 249.938 8.28303C250.43 7.97218 251.006 7.81676 251.664 7.81676C252.065 7.81676 252.452 7.88293 252.828 8.01527C253.203 8.14761 253.54 8.35535 253.839 8.63849C254.137 8.92164 254.373 9.28942 254.545 9.74183C254.717 10.1912 254.804 10.7375 254.804 11.3807V11.87H249.167V10.8359H253.451C253.451 10.4728 253.377 10.1512 253.229 9.87109C253.082 9.58795 252.874 9.36482 252.606 9.2017C252.342 9.03859 252.031 8.95703 251.674 8.95703C251.286 8.95703 250.947 9.05244 250.658 9.24325C250.372 9.43099 250.15 9.6772 249.993 9.98189C249.839 10.2835 249.762 10.6113 249.762 10.9652V11.7731C249.762 12.247 249.846 12.6502 250.012 12.9826C250.181 13.315 250.416 13.5689 250.718 13.7443C251.02 13.9167 251.372 14.0028 251.775 14.0028C252.037 14.0028 252.275 13.9659 252.491 13.892C252.706 13.8151 252.892 13.7012 253.049 13.5504C253.206 13.3996 253.326 13.2134 253.409 12.9918L254.716 13.2273C254.611 13.612 254.424 13.949 254.153 14.2383C253.885 14.5245 253.548 14.7476 253.142 14.9077C252.739 15.0646 252.278 15.1431 251.761 15.1431ZM256.335 15V7.90909H257.669V9.03551H257.743C257.872 8.65388 258.1 8.35381 258.426 8.1353C258.756 7.91371 259.128 7.80291 259.544 7.80291C259.63 7.80291 259.731 7.80599 259.848 7.81214C259.968 7.8183 260.062 7.82599 260.13 7.83523V9.15554C260.074 9.14015 259.976 9.12322 259.834 9.10476C259.693 9.08321 259.551 9.07244 259.41 9.07244C259.083 9.07244 258.793 9.14169 258.537 9.28018C258.285 9.4156 258.085 9.60488 257.937 9.84801C257.789 10.0881 257.715 10.362 257.715 10.6697V15H256.335ZM266.638 9.64027L265.387 9.86186C265.335 9.70182 265.251 9.54948 265.138 9.40483C265.027 9.26018 264.876 9.14169 264.685 9.04936C264.494 8.95703 264.256 8.91087 263.97 8.91087C263.579 8.91087 263.253 8.99858 262.991 9.17401C262.729 9.34635 262.599 9.56948 262.599 9.84339C262.599 10.0804 262.686 10.2712 262.862 10.4158C263.037 10.5605 263.32 10.679 263.711 10.7713L264.838 11.0298C265.49 11.1806 265.976 11.413 266.296 11.7269C266.616 12.0408 266.776 12.4486 266.776 12.9503C266.776 13.375 266.653 13.7536 266.407 14.0859C266.164 14.4152 265.824 14.6738 265.387 14.8615C264.953 15.0492 264.45 15.1431 263.877 15.1431C263.083 15.1431 262.435 14.9738 261.934 14.6353C261.432 14.2937 261.124 13.8089 261.01 13.1811L262.345 12.978C262.428 13.3258 262.599 13.5889 262.857 13.7674C263.116 13.9428 263.453 14.0305 263.868 14.0305C264.32 14.0305 264.682 13.9367 264.953 13.7489C265.224 13.5581 265.359 13.3258 265.359 13.0518C265.359 12.8303 265.276 12.6441 265.11 12.4933C264.947 12.3424 264.696 12.2286 264.357 12.1516L263.157 11.8885C262.495 11.7377 262.006 11.4976 261.689 11.1683C261.375 10.839 261.218 10.422 261.218 9.91726C261.218 9.4987 261.335 9.13246 261.569 8.81854C261.803 8.50462 262.126 8.25994 262.539 8.08452C262.951 7.90601 263.423 7.81676 263.956 7.81676C264.722 7.81676 265.325 7.98295 265.765 8.31534C266.206 8.64465 266.496 9.08629 266.638 9.64027ZM269.564 12.5948L269.554 10.9098H269.794L272.62 7.90909H274.272L271.05 11.3253H270.833L269.564 12.5948ZM268.294 15V5.54545H269.674V15H268.294ZM272.772 15L270.233 11.63L271.184 10.6651L274.466 15H272.772ZM277.594 15.157C277.145 15.157 276.738 15.0739 276.375 14.9077C276.012 14.7384 275.724 14.4937 275.512 14.1737C275.303 13.8536 275.198 13.4612 275.198 12.9964C275.198 12.5964 275.275 12.267 275.429 12.0085C275.583 11.75 275.791 11.5453 276.052 11.3945C276.314 11.2437 276.606 11.1299 276.929 11.0529C277.252 10.976 277.582 10.9175 277.917 10.8775C278.342 10.8282 278.687 10.7882 278.951 10.7575C279.216 10.7236 279.408 10.6697 279.528 10.5959C279.648 10.522 279.708 10.402 279.708 10.2358V10.2035C279.708 9.80031 279.594 9.48793 279.367 9.26633C279.142 9.04474 278.807 8.93395 278.36 8.93395C277.896 8.93395 277.529 9.03705 277.262 9.24325C276.997 9.44638 276.814 9.67259 276.712 9.92188L275.415 9.62642C275.569 9.19555 275.794 8.84777 276.089 8.5831C276.388 8.31534 276.731 8.12145 277.119 8.00142C277.506 7.87831 277.914 7.81676 278.342 7.81676C278.625 7.81676 278.925 7.85062 279.242 7.91832C279.562 7.98295 279.861 8.10298 280.138 8.27841C280.418 8.45383 280.647 8.70466 280.826 9.03089C281.004 9.35405 281.093 9.77415 281.093 10.2912V15H279.745V14.0305H279.69C279.601 14.209 279.467 14.3845 279.288 14.5568C279.11 14.7292 278.88 14.8723 278.6 14.9862C278.32 15.1 277.985 15.157 277.594 15.157ZM277.894 14.049C278.276 14.049 278.602 13.9736 278.873 13.8228C279.147 13.672 279.354 13.475 279.496 13.2319C279.641 12.9857 279.713 12.7225 279.713 12.4425V11.5284C279.664 11.5777 279.568 11.6238 279.427 11.6669C279.288 11.7069 279.13 11.7423 278.951 11.7731C278.773 11.8008 278.599 11.8269 278.43 11.8516C278.26 11.8731 278.119 11.8916 278.005 11.907C277.737 11.9408 277.492 11.9978 277.271 12.0778C277.052 12.1578 276.877 12.2732 276.745 12.424C276.615 12.5717 276.551 12.7687 276.551 13.0149C276.551 13.3565 276.677 13.6151 276.929 13.7905C277.182 13.9628 277.503 14.049 277.894 14.049ZM283.55 17.6591C283.344 17.6591 283.156 17.6422 282.987 17.6083C282.818 17.5775 282.692 17.5437 282.609 17.5067L282.941 16.3757C283.193 16.4434 283.418 16.4727 283.615 16.4634C283.812 16.4542 283.986 16.3803 284.137 16.2418C284.291 16.1033 284.426 15.8771 284.543 15.5632L284.714 15.0923L282.119 7.90909H283.597L285.392 13.4119H285.466L287.262 7.90909H288.744L285.822 15.9464C285.686 16.3157 285.514 16.6281 285.305 16.8835C285.095 17.142 284.846 17.3359 284.557 17.4652C284.268 17.5945 283.932 17.6591 283.55 17.6591ZM291.902 15.157C291.452 15.157 291.046 15.0739 290.683 14.9077C290.32 14.7384 290.032 14.4937 289.82 14.1737C289.61 13.8536 289.506 13.4612 289.506 12.9964C289.506 12.5964 289.583 12.267 289.737 12.0085C289.89 11.75 290.098 11.5453 290.36 11.3945C290.621 11.2437 290.914 11.1299 291.237 11.0529C291.56 10.976 291.889 10.9175 292.225 10.8775C292.65 10.8282 292.994 10.7882 293.259 10.7575C293.524 10.7236 293.716 10.6697 293.836 10.5959C293.956 10.522 294.016 10.402 294.016 10.2358V10.2035C294.016 9.80031 293.902 9.48793 293.674 9.26633C293.45 9.04474 293.114 8.93395 292.668 8.93395C292.203 8.93395 291.837 9.03705 291.569 9.24325C291.305 9.44638 291.121 9.67259 291.02 9.92188L289.723 9.62642C289.877 9.19555 290.101 8.84777 290.397 8.5831C290.695 8.31534 291.038 8.12145 291.426 8.00142C291.814 7.87831 292.222 7.81676 292.65 7.81676C292.933 7.81676 293.233 7.85062 293.55 7.91832C293.87 7.98295 294.168 8.10298 294.445 8.27841C294.725 8.45383 294.955 8.70466 295.133 9.03089C295.312 9.35405 295.401 9.77415 295.401 10.2912V15H294.053V14.0305H293.998C293.908 14.209 293.774 14.3845 293.596 14.5568C293.417 14.7292 293.188 14.8723 292.908 14.9862C292.628 15.1 292.292 15.157 291.902 15.157ZM292.202 14.049C292.583 14.049 292.91 13.9736 293.18 13.8228C293.454 13.672 293.662 13.475 293.804 13.2319C293.948 12.9857 294.021 12.7225 294.021 12.4425V11.5284C293.971 11.5777 293.876 11.6238 293.734 11.6669C293.596 11.7069 293.437 11.7423 293.259 11.7731C293.08 11.8008 292.906 11.8269 292.737 11.8516C292.568 11.8731 292.426 11.8916 292.312 11.907C292.045 11.9408 291.8 11.9978 291.578 12.0778C291.36 12.1578 291.185 12.2732 291.052 12.424C290.923 12.5717 290.858 12.7687 290.858 13.0149C290.858 13.3565 290.984 13.6151 291.237 13.7905C291.489 13.9628 291.811 14.049 292.202 14.049ZM301.417 10.4066V11.6023H297.226V10.4066H301.417ZM306.244 15.1431C305.558 15.1431 304.967 14.9877 304.471 14.6768C303.979 14.3629 303.6 13.9305 303.335 13.3796C303.071 12.8287 302.938 12.1978 302.938 11.4869C302.938 10.7667 303.074 10.1312 303.345 9.58026C303.616 9.02628 303.997 8.59387 304.49 8.28303C304.982 7.97218 305.562 7.81676 306.23 7.81676C306.769 7.81676 307.249 7.91679 307.67 8.11683C308.092 8.3138 308.432 8.59079 308.691 8.9478C308.952 9.30481 309.108 9.72183 309.157 10.1989H307.813C307.74 9.86648 307.57 9.58026 307.306 9.3402C307.044 9.10014 306.693 8.98011 306.253 8.98011C305.868 8.98011 305.531 9.08168 305.242 9.2848C304.956 9.48485 304.733 9.77107 304.573 10.1435C304.413 10.5128 304.333 10.9498 304.333 11.4545C304.333 11.9716 304.411 12.4179 304.568 12.7933C304.725 13.1688 304.947 13.4596 305.233 13.6658C305.522 13.872 305.862 13.9751 306.253 13.9751C306.515 13.9751 306.752 13.9274 306.964 13.832C307.179 13.7335 307.36 13.5935 307.504 13.4119C307.652 13.2304 307.755 13.0118 307.813 12.7564H309.157C309.108 13.215 308.958 13.6243 308.709 13.9844C308.46 14.3445 308.126 14.6276 307.707 14.8338C307.292 15.04 306.804 15.1431 306.244 15.1431ZM313.62 15.1431C312.955 15.1431 312.375 14.9908 311.879 14.6861C311.384 14.3814 310.999 13.9551 310.725 13.4073C310.451 12.8595 310.314 12.2193 310.314 11.4869C310.314 10.7513 310.451 10.1081 310.725 9.55717C310.999 9.00627 311.384 8.57848 311.879 8.27379C312.375 7.96911 312.955 7.81676 313.62 7.81676C314.285 7.81676 314.865 7.96911 315.36 8.27379C315.856 8.57848 316.24 9.00627 316.514 9.55717C316.788 10.1081 316.925 10.7513 316.925 11.4869C316.925 12.2193 316.788 12.8595 316.514 13.4073C316.24 13.9551 315.856 14.3814 315.36 14.6861C314.865 14.9908 314.285 15.1431 313.62 15.1431ZM313.624 13.9844C314.055 13.9844 314.412 13.8705 314.695 13.6428C314.979 13.415 315.188 13.1119 315.323 12.7333C315.462 12.3548 315.531 11.9377 315.531 11.4822C315.531 11.0298 315.462 10.6143 315.323 10.2358C315.188 9.85417 314.979 9.54794 314.695 9.31712C314.412 9.08629 314.055 8.97088 313.624 8.97088C313.191 8.97088 312.83 9.08629 312.544 9.31712C312.261 9.54794 312.05 9.85417 311.912 10.2358C311.776 10.6143 311.709 11.0298 311.709 11.4822C311.709 11.9377 311.776 12.3548 311.912 12.7333C312.05 13.1119 312.261 13.415 312.544 13.6428C312.83 13.8705 313.191 13.9844 313.624 13.9844ZM318.466 15V7.90909H319.8V9.03551H319.874C320.003 8.65388 320.231 8.35381 320.557 8.1353C320.887 7.91371 321.259 7.80291 321.674 7.80291C321.761 7.80291 321.862 7.80599 321.979 7.81214C322.099 7.8183 322.193 7.82599 322.261 7.83523V9.15554C322.205 9.14015 322.107 9.12322 321.965 9.10476C321.824 9.08321 321.682 9.07244 321.541 9.07244C321.214 9.07244 320.924 9.14169 320.668 9.28018C320.416 9.4156 320.216 9.60488 320.068 9.84801C319.92 10.0881 319.846 10.362 319.846 10.6697V15H318.466ZM326.257 15.1431C325.559 15.1431 324.957 14.9938 324.452 14.6953C323.951 14.3937 323.563 13.9705 323.289 13.4258C323.018 12.878 322.883 12.2363 322.883 11.5007C322.883 10.7744 323.018 10.1342 323.289 9.58026C323.563 9.02628 323.945 8.59387 324.434 8.28303C324.926 7.97218 325.502 7.81676 326.161 7.81676C326.561 7.81676 326.948 7.88293 327.324 8.01527C327.699 8.14761 328.036 8.35535 328.335 8.63849C328.633 8.92164 328.869 9.28942 329.041 9.74183C329.214 10.1912 329.3 10.7375 329.3 11.3807V11.87H323.663V10.8359H327.947C327.947 10.4728 327.873 10.1512 327.725 9.87109C327.578 9.58795 327.37 9.36482 327.102 9.2017C326.838 9.03859 326.527 8.95703 326.17 8.95703C325.782 8.95703 325.443 9.05244 325.154 9.24325C324.868 9.43099 324.646 9.6772 324.489 9.98189C324.335 10.2835 324.259 10.6113 324.259 10.9652V11.7731C324.259 12.247 324.342 12.6502 324.508 12.9826C324.677 13.315 324.913 13.5689 325.214 13.7443C325.516 13.9167 325.868 14.0028 326.271 14.0028C326.533 14.0028 326.771 13.9659 326.987 13.892C327.202 13.8151 327.388 13.7012 327.545 13.5504C327.702 13.3996 327.822 13.2134 327.906 12.9918L329.212 13.2273C329.107 13.612 328.92 13.949 328.649 14.2383C328.381 14.5245 328.044 14.7476 327.638 14.9077C327.235 15.0646 326.775 15.1431 326.257 15.1431ZM335.009 10.4066V11.6023H330.817V10.4066H335.009ZM342.162 9.64027L340.911 9.86186C340.859 9.70182 340.776 9.54948 340.662 9.40483C340.551 9.26018 340.4 9.14169 340.21 9.04936C340.019 8.95703 339.78 8.91087 339.494 8.91087C339.103 8.91087 338.777 8.99858 338.515 9.17401C338.254 9.34635 338.123 9.56948 338.123 9.84339C338.123 10.0804 338.211 10.2712 338.386 10.4158C338.562 10.5605 338.845 10.679 339.236 10.7713L340.362 11.0298C341.014 11.1806 341.501 11.413 341.821 11.7269C342.141 12.0408 342.301 12.4486 342.301 12.9503C342.301 13.375 342.178 13.7536 341.932 14.0859C341.688 14.4152 341.348 14.6738 340.911 14.8615C340.477 15.0492 339.974 15.1431 339.402 15.1431C338.608 15.1431 337.96 14.9738 337.458 14.6353C336.957 14.2937 336.649 13.8089 336.535 13.1811L337.869 12.978C337.952 13.3258 338.123 13.5889 338.381 13.7674C338.64 13.9428 338.977 14.0305 339.392 14.0305C339.845 14.0305 340.207 13.9367 340.477 13.7489C340.748 13.5581 340.884 13.3258 340.884 13.0518C340.884 12.8303 340.801 12.6441 340.634 12.4933C340.471 12.3424 340.22 12.2286 339.882 12.1516L338.682 11.8885C338.02 11.7377 337.531 11.4976 337.214 11.1683C336.9 10.839 336.743 10.422 336.743 9.91726C336.743 9.4987 336.86 9.13246 337.093 8.81854C337.327 8.50462 337.651 8.25994 338.063 8.08452C338.475 7.90601 338.948 7.81676 339.48 7.81676C340.247 7.81676 340.85 7.98295 341.29 8.31534C341.73 8.64465 342.021 9.08629 342.162 9.64027ZM345.356 15L343.269 7.90909H344.696L346.085 13.1165H346.154L347.549 7.90909H348.975L350.36 13.0934H350.429L351.81 7.90909H353.236L351.154 15H349.746L348.306 9.88033H348.2L346.759 15H345.356ZM357.819 15.157C357.09 15.1539 356.467 14.9615 355.949 14.5799C355.432 14.1983 355.037 13.6428 354.763 12.9134C354.489 12.1839 354.352 11.3053 354.352 10.2773C354.352 9.25249 354.489 8.37689 354.763 7.65057C355.04 6.92424 355.437 6.37026 355.954 5.98864C356.474 5.60701 357.096 5.41619 357.819 5.41619C358.542 5.41619 359.163 5.60855 359.68 5.99325C360.197 6.37488 360.592 6.92886 360.866 7.65518C361.143 8.37843 361.282 9.25249 361.282 10.2773C361.282 11.3084 361.145 12.1886 360.871 12.918C360.597 13.6443 360.201 14.1998 359.684 14.5845C359.167 14.9661 358.545 15.157 357.819 15.157ZM357.819 13.9244C358.459 13.9244 358.959 13.612 359.32 12.9872C359.683 12.3625 359.864 11.4592 359.864 10.2773C359.864 9.49254 359.781 8.82931 359.615 8.28764C359.452 7.7429 359.216 7.33049 358.909 7.05043C358.604 6.76728 358.241 6.62571 357.819 6.62571C357.182 6.62571 356.682 6.93963 356.319 7.56747C355.956 8.19531 355.773 9.0986 355.769 10.2773C355.769 11.0652 355.851 11.7315 356.014 12.2763C356.18 12.8179 356.416 13.2288 356.72 13.5089C357.025 13.7859 357.391 13.9244 357.819 13.9244ZM362.984 15L367.111 6.83807V6.76882H362.338V5.54545H368.588V6.81037L364.475 15H362.984Z" fill="#221E1E" style="fill:#221E1E;fill:color(display-p3 0.1333 0.1183 0.1183);fill-opacity:1;"/>
</svg>
