<svg width="386" height="20" viewBox="0 0 386 20" fill="none" xmlns="http://www.w3.org/2000/svg">
<path d="M22.2415 9.64027L20.9904 9.86186C20.9381 9.70182 20.855 9.54948 20.7411 9.40483C20.6303 9.26018 20.4795 9.14169 20.2887 9.04936C20.0979 8.95703 19.8594 8.91087 19.5732 8.91087C19.1823 8.91087 18.8561 8.99858 18.5945 9.17401C18.3329 9.34635 18.2021 9.56948 18.2021 9.84339C18.2021 10.0804 18.2898 10.2712 18.4652 10.4158C18.6406 10.5605 18.9238 10.679 19.3146 10.7713L20.4411 11.0298C21.0935 11.1806 21.5798 11.413 21.8999 11.7269C22.2199 12.0408 22.38 12.4486 22.38 12.9503C22.38 13.375 22.2569 13.7536 22.0107 14.0859C21.7675 14.4152 21.4274 14.6738 20.9904 14.8615C20.5565 15.0492 20.0533 15.1431 19.4808 15.1431C18.6868 15.1431 18.0389 14.9738 17.5373 14.6353C17.0356 14.2937 16.7279 13.8089 16.614 13.1811L17.9482 12.978C18.0313 13.3258 18.2021 13.5889 18.4606 13.7674C18.7191 13.9428 19.0561 14.0305 19.4716 14.0305C19.924 14.0305 20.2856 13.9367 20.5565 13.7489C20.8273 13.5581 20.9627 13.3258 20.9627 13.0518C20.9627 12.8303 20.8796 12.6441 20.7134 12.4933C20.5503 12.3424 20.2995 12.2286 19.9609 12.1516L18.7607 11.8885C18.099 11.7377 17.6096 11.4976 17.2926 11.1683C16.9787 10.839 16.8217 10.422 16.8217 9.91726C16.8217 9.4987 16.9387 9.13246 17.1726 8.81854C17.4065 8.50462 17.7296 8.25994 18.142 8.08452C18.5545 7.90601 19.0269 7.81676 19.5593 7.81676C20.3256 7.81676 20.9289 7.98295 21.369 8.31534C21.8091 8.64465 22.0999 9.08629 22.2415 9.64027ZM26.9537 15.1431C26.2551 15.1431 25.6534 14.9938 25.1487 14.6953C24.647 14.3937 24.2593 13.9705 23.9854 13.4258C23.7145 12.878 23.5791 12.2363 23.5791 11.5007C23.5791 10.7744 23.7145 10.1342 23.9854 9.58026C24.2593 9.02628 24.6409 8.59387 25.1302 8.28303C25.6227 7.97218 26.1982 7.81676 26.8568 7.81676C27.2569 7.81676 27.6447 7.88293 28.0202 8.01527C28.3956 8.14761 28.7326 8.35535 29.0312 8.63849C29.3297 8.92164 29.5651 9.28942 29.7375 9.74183C29.9098 10.1912 29.996 10.7375 29.996 11.3807V11.87H24.3593V10.8359H28.6434C28.6434 10.4728 28.5695 10.1512 28.4218 9.87109C28.2741 9.58795 28.0663 9.36482 27.7986 9.2017C27.5339 9.03859 27.223 8.95703 26.866 8.95703C26.4782 8.95703 26.1397 9.05244 25.8504 9.24325C25.5642 9.43099 25.3426 9.6772 25.1856 9.98189C25.0318 10.2835 24.9548 10.6113 24.9548 10.9652V11.7731C24.9548 12.247 25.0379 12.6502 25.2041 12.9826C25.3734 13.315 25.6088 13.5689 25.9104 13.7443C26.212 13.9167 26.5644 14.0028 26.9676 14.0028C27.2292 14.0028 27.4677 13.9659 27.6831 13.892C27.8986 13.8151 28.0848 13.7012 28.2417 13.5504C28.3987 13.3996 28.5187 13.2134 28.6018 12.9918L29.9083 13.2273C29.8037 13.612 29.6159 13.949 29.3451 14.2383C29.0773 14.5245 28.7403 14.7476 28.3341 14.9077C27.9309 15.0646 27.4708 15.1431 26.9537 15.1431ZM31.5275 15V7.90909H32.8617V9.03551H32.9355C33.0648 8.65388 33.2926 8.35381 33.6188 8.1353C33.9481 7.91371 34.3205 7.80291 34.736 7.80291C34.8221 7.80291 34.9237 7.80599 35.0407 7.81214C35.1607 7.8183 35.2546 7.82599 35.3223 7.83523V9.15554C35.2669 9.14015 35.1684 9.12322 35.0268 9.10476C34.8852 9.08321 34.7437 9.07244 34.6021 9.07244C34.2759 9.07244 33.985 9.14169 33.7296 9.28018C33.4772 9.4156 33.2772 9.60488 33.1294 9.84801C32.9817 10.0881 32.9078 10.362 32.9078 10.6697V15H31.5275ZM36.5168 15V7.90909H37.8971V15H36.5168ZM37.2139 6.81499C36.9738 6.81499 36.7676 6.73497 36.5953 6.57493C36.426 6.41181 36.3414 6.21792 36.3414 5.99325C36.3414 5.76551 36.426 5.57161 36.5953 5.41158C36.7676 5.24846 36.9738 5.1669 37.2139 5.1669C37.4539 5.1669 37.6586 5.24846 37.8279 5.41158C38.0002 5.57161 38.0864 5.76551 38.0864 5.99325C38.0864 6.21792 38.0002 6.41181 37.8279 6.57493C37.6586 6.73497 37.4539 6.81499 37.2139 6.81499ZM41.8176 15.157C41.3683 15.157 40.9621 15.0739 40.5989 14.9077C40.2357 14.7384 39.948 14.4937 39.7356 14.1737C39.5263 13.8536 39.4217 13.4612 39.4217 12.9964C39.4217 12.5964 39.4986 12.267 39.6525 12.0085C39.8064 11.75 40.0141 11.5453 40.2757 11.3945C40.5373 11.2437 40.8297 11.1299 41.1529 11.0529C41.476 10.976 41.8053 10.9175 42.1408 10.8775C42.5655 10.8282 42.9102 10.7882 43.1749 10.7575C43.4396 10.7236 43.6319 10.6697 43.752 10.5959C43.872 10.522 43.932 10.402 43.932 10.2358V10.2035C43.932 9.80031 43.8181 9.48793 43.5904 9.26633C43.3657 9.04474 43.0302 8.93395 42.584 8.93395C42.1193 8.93395 41.753 9.03705 41.4853 9.24325C41.2206 9.44638 41.0375 9.67259 40.9359 9.92188L39.6387 9.62642C39.7926 9.19555 40.0172 8.84777 40.3127 8.5831C40.6112 8.31534 40.9544 8.12145 41.3422 8.00142C41.7299 7.87831 42.1377 7.81676 42.5655 7.81676C42.8487 7.81676 43.1487 7.85062 43.4657 7.91832C43.7858 7.98295 44.0843 8.10298 44.3613 8.27841C44.6414 8.45383 44.8707 8.70466 45.0492 9.03089C45.2277 9.35405 45.3169 9.77415 45.3169 10.2912V15H43.9689V14.0305H43.9135C43.8243 14.209 43.6904 14.3845 43.5119 14.5568C43.3334 14.7292 43.1041 14.8723 42.824 14.9862C42.544 15.1 42.2085 15.157 41.8176 15.157ZM42.1177 14.049C42.4993 14.049 42.8256 13.9736 43.0964 13.8228C43.3703 13.672 43.5781 13.475 43.7196 13.2319C43.8643 12.9857 43.9366 12.7225 43.9366 12.4425V11.5284C43.8874 11.5777 43.792 11.6238 43.6504 11.6669C43.5119 11.7069 43.3534 11.7423 43.1749 11.7731C42.9964 11.8008 42.8225 11.8269 42.6532 11.8516C42.484 11.8731 42.3424 11.8916 42.2285 11.907C41.9608 11.9408 41.7161 11.9978 41.4945 12.0778C41.276 12.1578 41.1006 12.2732 40.9682 12.424C40.839 12.5717 40.7743 12.7687 40.7743 13.0149C40.7743 13.3565 40.9005 13.6151 41.1529 13.7905C41.4052 13.9628 41.7269 14.049 42.1177 14.049ZM48.5358 5.54545V15H47.1555V5.54545H48.5358ZM58.1346 5.54545V15H56.8235L52.0178 8.06605H51.93V15H50.5036V5.54545H51.8239L56.6342 12.4886H56.7219V5.54545H58.1346ZM64.5965 12.0593V7.90909H65.9814V15H64.6242V13.772H64.5503C64.3872 14.1506 64.1256 14.466 63.7655 14.7184C63.4085 14.9677 62.9638 15.0923 62.4314 15.0923C61.9759 15.0923 61.5727 14.9923 61.2219 14.7923C60.8741 14.5891 60.6002 14.2891 60.4001 13.892C60.2032 13.495 60.1047 13.0041 60.1047 12.4194V7.90909H61.485V12.2532C61.485 12.7364 61.6189 13.1211 61.8866 13.4073C62.1544 13.6935 62.5022 13.8366 62.93 13.8366C63.1885 13.8366 63.4455 13.772 63.7009 13.6428C63.9594 13.5135 64.1733 13.3181 64.3426 13.0565C64.5149 12.7949 64.5996 12.4625 64.5965 12.0593ZM67.8361 15V7.90909H69.161V9.06321H69.2488C69.3965 8.67235 69.6381 8.36766 69.9735 8.14915C70.309 7.92756 70.7106 7.81676 71.1784 7.81676C71.6524 7.81676 72.0494 7.92756 72.3695 8.14915C72.6926 8.37074 72.9312 8.67543 73.085 9.06321H73.1589C73.3282 8.68466 73.5975 8.38305 73.9668 8.15838C74.3361 7.93063 74.7762 7.81676 75.2871 7.81676C75.9303 7.81676 76.4551 8.01835 76.8613 8.42152C77.2707 8.82469 77.4753 9.43253 77.4753 10.245V15H76.095V10.3743C76.095 9.89418 75.9642 9.5464 75.7026 9.33097C75.441 9.11553 75.1286 9.00781 74.7654 9.00781C74.3161 9.00781 73.9668 9.14631 73.7175 9.4233C73.4682 9.69721 73.3436 10.0496 73.3436 10.4805V15H71.9679V10.2866C71.9679 9.90187 71.8478 9.59257 71.6078 9.35866C71.3677 9.12476 71.0553 9.00781 70.6706 9.00781C70.409 9.00781 70.1674 9.07706 69.9458 9.21555C69.7273 9.35097 69.5504 9.54025 69.415 9.78338C69.2826 10.0265 69.2164 10.3081 69.2164 10.6282V15H67.8361ZM79.4362 15V5.54545H80.8165V9.05859H80.8996C80.9796 8.91087 81.095 8.74006 81.2458 8.54616C81.3966 8.35227 81.6059 8.183 81.8737 8.03835C82.1414 7.89062 82.4954 7.81676 82.9355 7.81676C83.5079 7.81676 84.0188 7.96141 84.4681 8.25071C84.9175 8.54001 85.2699 8.95703 85.5253 9.50178C85.7838 10.0465 85.9131 10.7021 85.9131 11.4684C85.9131 12.2347 85.7854 12.8918 85.5299 13.4396C85.2745 13.9844 84.9236 14.4045 84.4774 14.6999C84.0311 14.9923 83.5218 15.1385 82.9493 15.1385C82.5184 15.1385 82.166 15.0662 81.8921 14.9215C81.6213 14.7769 81.4089 14.6076 81.2551 14.4137C81.1012 14.2198 80.9827 14.0475 80.8996 13.8967H80.7842V15H79.4362ZM80.7888 11.4545C80.7888 11.9531 80.8611 12.3902 81.0058 12.7656C81.1504 13.1411 81.3597 13.435 81.6336 13.6474C81.9075 13.8567 82.243 13.9613 82.64 13.9613C83.0524 13.9613 83.3971 13.852 83.6741 13.6335C83.9511 13.4119 84.1604 13.1119 84.3019 12.7333C84.4466 12.3548 84.5189 11.9285 84.5189 11.4545C84.5189 10.9867 84.4481 10.5666 84.3066 10.1942C84.1681 9.82185 83.9588 9.52794 83.6787 9.3125C83.4017 9.09706 83.0555 8.98935 82.64 8.98935C82.2399 8.98935 81.9014 9.09245 81.6244 9.29865C81.3505 9.50485 81.1427 9.79261 81.0012 10.1619C80.8596 10.5312 80.7888 10.9621 80.7888 11.4545ZM90.5192 15.1431C89.8205 15.1431 89.2189 14.9938 88.7141 14.6953C88.2125 14.3937 87.8247 13.9705 87.5508 13.4258C87.2799 12.878 87.1445 12.2363 87.1445 11.5007C87.1445 10.7744 87.2799 10.1342 87.5508 9.58026C87.8247 9.02628 88.2063 8.59387 88.6957 8.28303C89.1881 7.97218 89.7636 7.81676 90.4222 7.81676C90.8223 7.81676 91.2101 7.88293 91.5856 8.01527C91.9611 8.14761 92.2981 8.35535 92.5966 8.63849C92.8951 8.92164 93.1306 9.28942 93.3029 9.74183C93.4753 10.1912 93.5614 10.7375 93.5614 11.3807V11.87H87.9247V10.8359H92.2088C92.2088 10.4728 92.1349 10.1512 91.9872 9.87109C91.8395 9.58795 91.6317 9.36482 91.364 9.2017C91.0993 9.03859 90.7885 8.95703 90.4315 8.95703C90.0437 8.95703 89.7051 9.05244 89.4158 9.24325C89.1296 9.43099 88.908 9.6772 88.7511 9.98189C88.5972 10.2835 88.5202 10.6113 88.5202 10.9652V11.7731C88.5202 12.247 88.6033 12.6502 88.7695 12.9826C88.9388 13.315 89.1742 13.5689 89.4759 13.7443C89.7775 13.9167 90.1299 14.0028 90.533 14.0028C90.7946 14.0028 91.0331 13.9659 91.2486 13.892C91.464 13.8151 91.6502 13.7012 91.8072 13.5504C91.9641 13.3996 92.0842 13.2134 92.1673 12.9918L93.4737 13.2273C93.3691 13.612 93.1813 13.949 92.9105 14.2383C92.6428 14.5245 92.3058 14.7476 91.8995 14.9077C91.4963 15.0646 91.0362 15.1431 90.5192 15.1431ZM95.093 15V7.90909H96.4271V9.03551H96.501C96.6302 8.65388 96.858 8.35381 97.1842 8.1353C97.5135 7.91371 97.8859 7.80291 98.3014 7.80291C98.3876 7.80291 98.4891 7.80599 98.6061 7.81214C98.7261 7.8183 98.82 7.82599 98.8877 7.83523V9.15554C98.8323 9.14015 98.7338 9.12322 98.5922 9.10476C98.4507 9.08321 98.3091 9.07244 98.1675 9.07244C97.8413 9.07244 97.5505 9.14169 97.295 9.28018C97.0426 9.4156 96.8426 9.60488 96.6949 9.84801C96.5471 10.0881 96.4733 10.362 96.4733 10.6697V15H95.093Z" fill="#676767" style="fill:#676767;fill:color(display-p3 0.4039 0.4039 0.4039);fill-opacity:1;"/>
<rect x="100.25" y="17.25" width="174.5" height="0.5" stroke="#ADABAB" style="stroke:#ADABAB;stroke:color(display-p3 0.6784 0.6706 0.6706);stroke-opacity:1;" stroke-width="0.5" stroke-dasharray="1 1"/>
<path d="M275.794 15V14.049L280.766 6.77344H275.752V5.54545H282.511V6.49645L277.539 13.772H282.553V15H275.794ZM285.334 5.54545L287.596 9.24325H287.67L289.932 5.54545H291.585L288.639 10.2727L291.603 15H289.941L287.67 11.353H287.596L285.325 15H283.663L286.677 10.2727L283.681 5.54545H285.334ZM293 15V5.54545H294.426V13.772H298.71V15H293ZM300.527 15L304.654 6.83807V6.76882H299.881V5.54545H306.131V6.81037L302.018 15H300.527ZM315.718 8.62003H314.278C314.223 8.31226 314.12 8.04143 313.969 7.80753C313.818 7.57363 313.633 7.37512 313.415 7.212C313.196 7.04889 312.952 6.92578 312.681 6.84268C312.413 6.75959 312.128 6.71804 311.827 6.71804C311.282 6.71804 310.794 6.855 310.363 7.12891C309.936 7.40282 309.597 7.80445 309.348 8.33381C309.102 8.86316 308.978 9.50947 308.978 10.2727C308.978 11.0421 309.102 11.6915 309.348 12.2209C309.597 12.7502 309.937 13.1503 310.368 13.4212C310.799 13.692 311.284 13.8274 311.822 13.8274C312.121 13.8274 312.404 13.7874 312.672 13.7074C312.942 13.6243 313.187 13.5027 313.406 13.3427C313.624 13.1826 313.809 12.9872 313.96 12.7564C314.113 12.5225 314.22 12.2547 314.278 11.9531L315.718 11.9577C315.642 12.4225 315.492 12.8503 315.271 13.2411C315.052 13.6289 314.771 13.9644 314.426 14.2475C314.084 14.5276 313.693 14.7446 313.253 14.8984C312.813 15.0523 312.333 15.1293 311.813 15.1293C310.994 15.1293 310.265 14.9354 309.625 14.5476C308.985 14.1567 308.48 13.5981 308.111 12.8718C307.744 12.1455 307.561 11.2791 307.561 10.2727C307.561 9.26326 307.746 8.3969 308.115 7.67365C308.484 6.94732 308.989 6.39027 309.629 6.00249C310.27 5.61162 310.997 5.41619 311.813 5.41619C312.315 5.41619 312.782 5.48852 313.216 5.63317C313.653 5.77474 314.046 5.98402 314.394 6.26101C314.741 6.53492 315.029 6.87038 315.257 7.2674C315.485 7.66134 315.638 8.11222 315.718 8.62003ZM320.44 5.41619C320.862 5.41927 321.277 5.49621 321.686 5.64702C322.096 5.79782 322.465 6.04403 322.794 6.38565C323.127 6.72727 323.391 7.18892 323.588 7.7706C323.788 8.34919 323.89 9.06937 323.893 9.93111C323.893 10.759 323.81 11.4961 323.644 12.1424C323.478 12.7856 323.239 13.3288 322.928 13.772C322.621 14.2152 322.247 14.5522 321.806 14.783C321.366 15.0138 320.871 15.1293 320.32 15.1293C319.757 15.1293 319.257 15.0185 318.82 14.7969C318.383 14.5753 318.027 14.2691 317.753 13.8782C317.479 13.4843 317.308 13.0318 317.241 12.521H318.649C318.741 12.9272 318.929 13.2565 319.212 13.5089C319.498 13.7582 319.868 13.8828 320.32 13.8828C321.012 13.8828 321.553 13.5812 321.94 12.978C322.328 12.3717 322.524 11.5253 322.527 10.4389H322.453C322.293 10.7036 322.093 10.9313 321.853 11.1222C321.616 11.313 321.349 11.4607 321.054 11.5653C320.759 11.67 320.443 11.7223 320.108 11.7223C319.563 11.7223 319.067 11.5884 318.621 11.3207C318.175 11.0529 317.819 10.6851 317.555 10.2173C317.29 9.74953 317.158 9.21555 317.158 8.61541C317.158 8.01835 317.293 7.47668 317.564 6.99041C317.838 6.50414 318.219 6.11944 318.709 5.83629C319.201 5.55007 319.778 5.41004 320.44 5.41619ZM320.445 6.61648C320.085 6.61648 319.76 6.70573 319.471 6.88423C319.184 7.05966 318.958 7.29818 318.792 7.59979C318.626 7.89832 318.543 8.23071 318.543 8.59695C318.543 8.96319 318.623 9.29557 318.783 9.5941C318.946 9.88956 319.167 10.125 319.447 10.3004C319.731 10.4728 320.054 10.5589 320.417 10.5589C320.688 10.5589 320.94 10.5066 321.174 10.402C321.408 10.2973 321.613 10.1527 321.788 9.96804C321.963 9.7803 322.1 9.56794 322.199 9.33097C322.297 9.09399 322.347 8.8447 322.347 8.5831C322.347 8.23532 322.263 7.91217 322.097 7.61364C321.934 7.3151 321.71 7.07505 321.423 6.89347C321.137 6.70881 320.811 6.61648 320.445 6.61648ZM328.852 15.157C328.123 15.1539 327.5 14.9615 326.983 14.5799C326.466 14.1983 326.07 13.6428 325.796 12.9134C325.522 12.1839 325.385 11.3053 325.385 10.2773C325.385 9.25249 325.522 8.37689 325.796 7.65057C326.073 6.92424 326.47 6.37026 326.987 5.98864C327.507 5.60701 328.129 5.41619 328.852 5.41619C329.576 5.41619 330.196 5.60855 330.713 5.99325C331.23 6.37488 331.625 6.92886 331.899 7.65518C332.176 8.37843 332.315 9.25249 332.315 10.2773C332.315 11.3084 332.178 12.1886 331.904 12.918C331.63 13.6443 331.234 14.1998 330.717 14.5845C330.2 14.9661 329.579 15.157 328.852 15.157ZM328.852 13.9244C329.493 13.9244 329.993 13.612 330.353 12.9872C330.716 12.3625 330.897 11.4592 330.897 10.2773C330.897 9.49254 330.814 8.82931 330.648 8.28764C330.485 7.7429 330.25 7.33049 329.942 7.05043C329.637 6.76728 329.274 6.62571 328.852 6.62571C328.215 6.62571 327.715 6.93963 327.352 7.56747C326.989 8.19531 326.806 9.0986 326.803 10.2773C326.803 11.0652 326.884 11.7315 327.047 12.2763C327.214 12.8179 327.449 13.2288 327.754 13.5089C328.058 13.7859 328.425 13.9244 328.852 13.9244ZM333.952 15V13.9659L337.152 10.6513C337.493 10.2912 337.775 9.97573 337.996 9.7049C338.221 9.43099 338.389 9.17093 338.5 8.92472C338.61 8.6785 338.666 8.4169 338.666 8.13991C338.666 7.82599 338.592 7.55516 338.444 7.32741C338.297 7.09659 338.095 6.91963 337.839 6.79652C337.584 6.67034 337.296 6.60724 336.976 6.60724C336.638 6.60724 336.342 6.67649 336.09 6.81499C335.837 6.95348 335.644 7.14891 335.508 7.40128C335.373 7.65365 335.305 7.9491 335.305 8.28764H333.943C333.943 7.71212 334.076 7.20893 334.34 6.77805C334.605 6.34718 334.968 6.01326 335.43 5.77628C335.891 5.53622 336.416 5.41619 337.004 5.41619C337.598 5.41619 338.121 5.53468 338.574 5.77166C339.029 6.00556 339.384 6.32564 339.64 6.73189C339.895 7.13506 340.023 7.59055 340.023 8.09837C340.023 8.44922 339.957 8.79238 339.825 9.12784C339.695 9.4633 339.469 9.83724 339.146 10.2496C338.823 10.659 338.373 11.156 337.798 11.7408L335.919 13.7074V13.7766H340.175V15H333.952ZM345.512 5.54545V15H344.081V6.97656H344.026L341.763 8.45384V7.08736L344.123 5.54545H345.512ZM351.657 5.54545V15H350.225V6.97656H350.17L347.908 8.45384V7.08736L350.267 5.54545H351.657ZM354.016 13.1534V11.9993L358.101 5.54545H359.011V7.24432H358.434L355.511 11.87V11.9439H361.111V13.1534H354.016ZM358.498 15V12.8026L358.507 12.2763V5.54545H359.86V15H358.498ZM365.841 15.1293C365.262 15.1293 364.742 15.0185 364.28 14.7969C363.822 14.5722 363.456 14.2644 363.182 13.8736C362.908 13.4827 362.762 13.0365 362.743 12.5348H364.128C364.162 12.9411 364.342 13.275 364.668 13.5366C364.994 13.7982 365.385 13.929 365.841 13.929C366.204 13.929 366.526 13.8459 366.806 13.6797C367.089 13.5104 367.31 13.2781 367.47 12.9826C367.633 12.6871 367.715 12.3501 367.715 11.9716C367.715 11.5869 367.632 11.2437 367.466 10.9421C367.3 10.6405 367.07 10.4035 366.778 10.2312C366.489 10.0588 366.156 9.97112 365.781 9.96804C365.494 9.96804 365.207 10.0173 364.917 10.1158C364.628 10.2143 364.394 10.3435 364.216 10.5036L362.909 10.3097L363.44 5.54545H368.638V6.76882H364.627L364.327 9.41406H364.382C364.567 9.23556 364.811 9.08629 365.116 8.96626C365.424 8.84624 365.753 8.78622 366.104 8.78622C366.679 8.78622 367.192 8.92318 367.641 9.19709C368.094 9.471 368.449 9.84493 368.708 10.3189C368.969 10.7898 369.098 11.3314 369.095 11.9439C369.098 12.5563 368.96 13.1026 368.68 13.5827C368.403 14.0629 368.018 14.4414 367.526 14.7184C367.036 14.9923 366.475 15.1293 365.841 15.1293Z" fill="#221E1E" style="fill:#221E1E;fill:color(display-p3 0.1333 0.1183 0.1183);fill-opacity:1;"/>
</svg>
