<svg width="386" height="64" viewBox="0 0 386 64" fill="none" xmlns="http://www.w3.org/2000/svg">
<path d="M22.2415 15.6403L20.9904 15.8619C20.9381 15.7018 20.855 15.5495 20.7411 15.4048C20.6303 15.2602 20.4795 15.1417 20.2887 15.0494C20.0979 14.957 19.8594 14.9109 19.5732 14.9109C19.1823 14.9109 18.8561 14.9986 18.5945 15.174C18.3329 15.3464 18.2021 15.5695 18.2021 15.8434C18.2021 16.0804 18.2898 16.2712 18.4652 16.4158C18.6406 16.5605 18.9238 16.679 19.3146 16.7713L20.4411 17.0298C21.0935 17.1806 21.5798 17.413 21.8999 17.7269C22.2199 18.0408 22.38 18.4486 22.38 18.9503C22.38 19.375 22.2569 19.7536 22.0107 20.0859C21.7675 20.4152 21.4274 20.6738 20.9904 20.8615C20.5565 21.0492 20.0533 21.1431 19.4808 21.1431C18.6868 21.1431 18.0389 20.9738 17.5373 20.6353C17.0356 20.2937 16.7279 19.8089 16.614 19.1811L17.9482 18.978C18.0313 19.3258 18.2021 19.5889 18.4606 19.7674C18.7191 19.9428 19.0561 20.0305 19.4716 20.0305C19.924 20.0305 20.2856 19.9367 20.5565 19.7489C20.8273 19.5581 20.9627 19.3258 20.9627 19.0518C20.9627 18.8303 20.8796 18.6441 20.7134 18.4933C20.5503 18.3424 20.2995 18.2286 19.9609 18.1516L18.7607 17.8885C18.099 17.7377 17.6096 17.4976 17.2926 17.1683C16.9787 16.839 16.8217 16.422 16.8217 15.9173C16.8217 15.4987 16.9387 15.1325 17.1726 14.8185C17.4065 14.5046 17.7296 14.2599 18.142 14.0845C18.5545 13.906 19.0269 13.8168 19.5593 13.8168C20.3256 13.8168 20.9289 13.983 21.369 14.3153C21.8091 14.6446 22.0999 15.0863 22.2415 15.6403ZM24.7702 23.6591C24.564 23.6591 24.3762 23.6422 24.2069 23.6083C24.0377 23.5775 23.9115 23.5437 23.8284 23.5067L24.1608 22.3757C24.4131 22.4434 24.6378 22.4727 24.8348 22.4634C25.0318 22.4542 25.2056 22.3803 25.3564 22.2418C25.5103 22.1033 25.6457 21.8771 25.7627 21.5632L25.9335 21.0923L23.339 13.9091H24.8163L26.6121 19.4119H26.686L28.4818 13.9091H29.9637L27.0415 21.9464C26.906 22.3157 26.7337 22.6281 26.5244 22.8835C26.3151 23.142 26.0658 23.3359 25.7765 23.4652C25.4872 23.5945 25.1518 23.6591 24.7702 23.6591ZM36.5745 15.6403L35.3234 15.8619C35.2711 15.7018 35.188 15.5495 35.0741 15.4048C34.9633 15.2602 34.8125 15.1417 34.6217 15.0494C34.4309 14.957 34.1924 14.9109 33.9062 14.9109C33.5153 14.9109 33.1891 14.9986 32.9275 15.174C32.6659 15.3464 32.5351 15.5695 32.5351 15.8434C32.5351 16.0804 32.6228 16.2712 32.7982 16.4158C32.9736 16.5605 33.2568 16.679 33.6476 16.7713L34.7741 17.0298C35.4265 17.1806 35.9128 17.413 36.2329 17.7269C36.5529 18.0408 36.713 18.4486 36.713 18.9503C36.713 19.375 36.5899 19.7536 36.3437 20.0859C36.1005 20.4152 35.7604 20.6738 35.3234 20.8615C34.8895 21.0492 34.3863 21.1431 33.8138 21.1431C33.0198 21.1431 32.372 20.9738 31.8703 20.6353C31.3686 20.2937 31.0609 19.8089 30.947 19.1811L32.2812 18.978C32.3643 19.3258 32.5351 19.5889 32.7936 19.7674C33.0521 19.9428 33.3891 20.0305 33.8046 20.0305C34.257 20.0305 34.6186 19.9367 34.8895 19.7489C35.1603 19.5581 35.2957 19.3258 35.2957 19.0518C35.2957 18.8303 35.2126 18.6441 35.0464 18.4933C34.8833 18.3424 34.6325 18.2286 34.2939 18.1516L33.0937 17.8885C32.432 17.7377 31.9426 17.4976 31.6256 17.1683C31.3117 16.839 31.1547 16.422 31.1547 15.9173C31.1547 15.4987 31.2717 15.1325 31.5056 14.8185C31.7395 14.5046 32.0626 14.2599 32.4751 14.0845C32.8875 13.906 33.3599 13.8168 33.8923 13.8168C34.6586 13.8168 35.2619 13.983 35.702 14.3153C36.1421 14.6446 36.4329 15.0863 36.5745 15.6403ZM41.4022 21H38.3414V11.5455H41.4991C42.4255 11.5455 43.2211 11.7347 43.8858 12.1133C44.5506 12.4888 45.06 13.0289 45.4139 13.7337C45.7709 14.4354 45.9494 15.2771 45.9494 16.2589C45.9494 17.2437 45.7694 18.0901 45.4093 18.7979C45.0523 19.5058 44.5352 20.0505 43.8581 20.4322C43.181 20.8107 42.3624 21 41.4022 21ZM39.7679 19.7536H41.3237C42.0439 19.7536 42.6425 19.6181 43.1195 19.3473C43.5965 19.0734 43.9535 18.6779 44.1905 18.1609C44.4275 17.6407 44.546 17.0067 44.546 16.2589C44.546 15.5172 44.4275 14.8878 44.1905 14.3707C43.9566 13.8537 43.6073 13.4613 43.1426 13.1935C42.6779 12.9258 42.1008 12.7919 41.4114 12.7919H39.7679V19.7536ZM50.6686 21.1431C49.97 21.1431 49.3683 20.9938 48.8635 20.6953C48.3619 20.3937 47.9741 19.9705 47.7002 19.4258C47.4294 18.878 47.2939 18.2363 47.2939 17.5007C47.2939 16.7744 47.4294 16.1342 47.7002 15.5803C47.9741 15.0263 48.3557 14.5939 48.8451 14.283C49.3375 13.9722 49.913 13.8168 50.5716 13.8168C50.9717 13.8168 51.3595 13.8829 51.735 14.0153C52.1105 14.1476 52.4475 14.3554 52.746 14.6385C53.0445 14.9216 53.28 15.2894 53.4523 15.7418C53.6247 16.1912 53.7108 16.7375 53.7108 17.3807V17.87H48.0741V16.8359H52.3582C52.3582 16.4728 52.2844 16.1512 52.1366 15.8711C51.9889 15.5879 51.7812 15.3648 51.5134 15.2017C51.2487 15.0386 50.9379 14.957 50.5809 14.957C50.1931 14.957 49.8546 15.0524 49.5653 15.2433C49.279 15.431 49.0574 15.6772 48.9005 15.9819C48.7466 16.2835 48.6697 16.6113 48.6697 16.9652V17.7731C48.6697 18.247 48.7528 18.6502 48.9189 18.9826C49.0882 19.315 49.3237 19.5689 49.6253 19.7443C49.9269 19.9167 50.2793 20.0028 50.6824 20.0028C50.944 20.0028 51.1826 19.9659 51.398 19.892C51.6134 19.8151 51.7996 19.7012 51.9566 19.5504C52.1135 19.3996 52.2336 19.2134 52.3167 18.9918L53.6231 19.2273C53.5185 19.612 53.3308 19.949 53.0599 20.2383C52.7922 20.5245 52.4552 20.7476 52.0489 20.9077C51.6457 21.0646 51.1856 21.1431 50.6686 21.1431ZM60.5559 15.6403L59.3049 15.8619C59.2525 15.7018 59.1694 15.5495 59.0556 15.4048C58.9448 15.2602 58.794 15.1417 58.6032 15.0494C58.4123 14.957 58.1738 14.9109 57.8876 14.9109C57.4967 14.9109 57.1705 14.9986 56.9089 15.174C56.6473 15.3464 56.5165 15.5695 56.5165 15.8434C56.5165 16.0804 56.6042 16.2712 56.7797 16.4158C56.9551 16.5605 57.2382 16.679 57.6291 16.7713L58.7555 17.0298C59.408 17.1806 59.8942 17.413 60.2143 17.7269C60.5344 18.0408 60.6944 18.4486 60.6944 18.9503C60.6944 19.375 60.5713 19.7536 60.3251 20.0859C60.082 20.4152 59.7419 20.6738 59.3049 20.8615C58.8709 21.0492 58.3677 21.1431 57.7953 21.1431C57.0012 21.1431 56.3534 20.9738 55.8517 20.6353C55.3501 20.2937 55.0423 19.8089 54.9284 19.1811L56.2626 18.978C56.3457 19.3258 56.5165 19.5889 56.775 19.7674C57.0336 19.9428 57.3706 20.0305 57.786 20.0305C58.2385 20.0305 58.6001 19.9367 58.8709 19.7489C59.1417 19.5581 59.2772 19.3258 59.2772 19.0518C59.2772 18.8303 59.1941 18.6441 59.0279 18.4933C58.8648 18.3424 58.6139 18.2286 58.2754 18.1516L57.0751 17.8885C56.4134 17.7377 55.9241 17.4976 55.6071 17.1683C55.2931 16.839 55.1362 16.422 55.1362 15.9173C55.1362 15.4987 55.2531 15.1325 55.487 14.8185C55.7209 14.5046 56.0441 14.2599 56.4565 14.0845C56.8689 13.906 57.3413 13.8168 57.8738 13.8168C58.6401 13.8168 59.2433 13.983 59.6834 14.3153C60.1235 14.6446 60.4144 15.0863 60.5559 15.6403ZM65.199 21.1431C64.5126 21.1431 63.9217 20.9877 63.4262 20.6768C62.9338 20.3629 62.5552 19.9305 62.2906 19.3796C62.0259 18.8287 61.8936 18.1978 61.8936 17.4869C61.8936 16.7667 62.029 16.1312 62.2998 15.5803C62.5706 15.0263 62.9523 14.5939 63.4447 14.283C63.9371 13.9722 64.5173 13.8168 65.1851 13.8168C65.7237 13.8168 66.2038 13.9168 66.6254 14.1168C67.0471 14.3138 67.3872 14.5908 67.6457 14.9478C67.9073 15.3048 68.0627 15.7218 68.1119 16.1989H66.7686C66.6947 15.8665 66.5254 15.5803 66.2607 15.3402C65.9991 15.1001 65.6483 14.9801 65.2082 14.9801C64.8235 14.9801 64.4865 15.0817 64.1972 15.2848C63.911 15.4848 63.6878 15.7711 63.5278 16.1435C63.3677 16.5128 63.2877 16.9498 63.2877 17.4545C63.2877 17.9716 63.3662 18.4179 63.5232 18.7933C63.6801 19.1688 63.9017 19.4596 64.1879 19.6658C64.4772 19.872 64.8173 19.9751 65.2082 19.9751C65.4698 19.9751 65.7068 19.9274 65.9191 19.832C66.1346 19.7335 66.3146 19.5935 66.4593 19.4119C66.607 19.2304 66.7101 19.0118 66.7686 18.7564H68.1119C68.0627 19.215 67.9134 19.6243 67.6642 19.9844C67.4149 20.3445 67.0809 20.6276 66.6624 20.8338C66.2469 21.04 65.7591 21.1431 65.199 21.1431ZM69.5881 21V13.9091H70.9222V15.0355H70.9961C71.1254 14.6539 71.3531 14.3538 71.6793 14.1353C72.0086 13.9137 72.381 13.8029 72.7965 13.8029C72.8827 13.8029 72.9843 13.806 73.1012 13.8121C73.2212 13.8183 73.3151 13.826 73.3828 13.8352V15.1555C73.3274 15.1402 73.2289 15.1232 73.0874 15.1048C72.9458 15.0832 72.8042 15.0724 72.6626 15.0724C72.3364 15.0724 72.0456 15.1417 71.7901 15.2802C71.5378 15.4156 71.3377 15.6049 71.19 15.848C71.0423 16.0881 70.9684 16.362 70.9684 16.6697V21H69.5881ZM74.5773 21V13.9091H75.9577V21H74.5773ZM75.2744 12.815C75.0344 12.815 74.8282 12.735 74.6558 12.5749C74.4865 12.4118 74.4019 12.2179 74.4019 11.9933C74.4019 11.7655 74.4865 11.5716 74.6558 11.4116C74.8282 11.2485 75.0344 11.1669 75.2744 11.1669C75.5145 11.1669 75.7191 11.2485 75.8884 11.4116C76.0608 11.5716 76.1469 11.7655 76.1469 11.9933C76.1469 12.2179 76.0608 12.4118 75.8884 12.5749C75.7191 12.735 75.5145 12.815 75.2744 12.815ZM77.8146 23.6591V13.9091H79.1626V15.0586H79.2781C79.3581 14.9109 79.4735 14.7401 79.6243 14.5462C79.7751 14.3523 79.9844 14.183 80.2521 14.0384C80.5199 13.8906 80.8738 13.8168 81.3139 13.8168C81.8864 13.8168 82.3973 13.9614 82.8466 14.2507C83.2959 14.54 83.6483 14.957 83.9038 15.5018C84.1623 16.0465 84.2915 16.7021 84.2915 17.4684C84.2915 18.2347 84.1638 18.8918 83.9084 19.4396C83.6529 19.9844 83.3021 20.4045 82.8558 20.6999C82.4096 20.9923 81.9002 21.1385 81.3278 21.1385C80.8969 21.1385 80.5445 21.0662 80.2706 20.9215C79.9998 20.7769 79.7874 20.6076 79.6335 20.4137C79.4796 20.2198 79.3612 20.0475 79.2781 19.8967H79.195V23.6591H77.8146ZM79.1673 17.4545C79.1673 17.9531 79.2396 18.3902 79.3842 18.7656C79.5289 19.1411 79.7382 19.435 80.0121 19.6474C80.286 19.8567 80.6214 19.9613 81.0185 19.9613C81.4309 19.9613 81.7756 19.852 82.0526 19.6335C82.3295 19.4119 82.5388 19.1119 82.6804 18.7333C82.825 18.3548 82.8974 17.9285 82.8974 17.4545C82.8974 16.9867 82.8266 16.5666 82.685 16.1942C82.5465 15.8219 82.3372 15.5279 82.0572 15.3125C81.7802 15.0971 81.4339 14.9893 81.0185 14.9893C80.6184 14.9893 80.2798 15.0924 80.0028 15.2987C79.7289 15.5049 79.5212 15.7926 79.3796 16.1619C79.238 16.5312 79.1673 16.9621 79.1673 17.4545ZM89.1481 13.9091V15.017H85.2749V13.9091H89.1481ZM86.3136 12.2102H87.6939V18.918C87.6939 19.1857 87.7339 19.3873 87.8139 19.5227C87.8939 19.6551 87.997 19.7459 88.1232 19.7951C88.2525 19.8413 88.3925 19.8643 88.5433 19.8643C88.6541 19.8643 88.7511 19.8567 88.8342 19.8413C88.9173 19.8259 88.9819 19.8136 89.0281 19.8043L89.2773 20.9446C89.1973 20.9754 89.0835 21.0062 88.9357 21.0369C88.788 21.0708 88.6033 21.0893 88.3817 21.0923C88.0186 21.0985 87.68 21.0339 87.3661 20.8984C87.0522 20.763 86.7983 20.5537 86.6044 20.2706C86.4105 19.9875 86.3136 19.632 86.3136 19.2042V12.2102ZM90.675 21V13.9091H92.0553V21H90.675ZM91.3721 12.815C91.132 12.815 90.9258 12.735 90.7535 12.5749C90.5842 12.4118 90.4996 12.2179 90.4996 11.9933C90.4996 11.7655 90.5842 11.5716 90.7535 11.4116C90.9258 11.2485 91.132 11.1669 91.3721 11.1669C91.6121 11.1669 91.8168 11.2485 91.9861 11.4116C92.1584 11.5716 92.2446 11.7655 92.2446 11.9933C92.2446 12.2179 92.1584 12.4118 91.9861 12.5749C91.8168 12.735 91.6121 12.815 91.3721 12.815ZM96.8991 21.1431C96.2344 21.1431 95.6542 20.9908 95.1587 20.6861C94.6632 20.3814 94.2785 19.9551 94.0046 19.4073C93.7307 18.8595 93.5938 18.2193 93.5938 17.4869C93.5938 16.7513 93.7307 16.1081 94.0046 15.5572C94.2785 15.0063 94.6632 14.5785 95.1587 14.2738C95.6542 13.9691 96.2344 13.8168 96.8991 13.8168C97.5639 13.8168 98.1441 13.9691 98.6396 14.2738C99.1351 14.5785 99.5198 15.0063 99.7937 15.5572C100.068 16.1081 100.205 16.7513 100.205 17.4869C100.205 18.2193 100.068 18.8595 99.7937 19.4073C99.5198 19.9551 99.1351 20.3814 98.6396 20.6861C98.1441 20.9908 97.5639 21.1431 96.8991 21.1431ZM96.9038 19.9844C97.3346 19.9844 97.6916 19.8705 97.9748 19.6428C98.2579 19.415 98.4672 19.1119 98.6026 18.7333C98.7411 18.3548 98.8104 17.9377 98.8104 17.4822C98.8104 17.0298 98.7411 16.6143 98.6026 16.2358C98.4672 15.8542 98.2579 15.5479 97.9748 15.3171C97.6916 15.0863 97.3346 14.9709 96.9038 14.9709C96.4698 14.9709 96.1097 15.0863 95.8235 15.3171C95.5404 15.5479 95.3295 15.8542 95.1911 16.2358C95.0556 16.6143 94.9879 17.0298 94.9879 17.4822C94.9879 17.9377 95.0556 18.3548 95.1911 18.7333C95.3295 19.1119 95.5404 19.415 95.8235 19.6428C96.1097 19.8705 96.4698 19.9844 96.9038 19.9844ZM103.126 16.7898V21H101.745V13.9091H103.07V15.0632H103.158C103.321 14.6877 103.576 14.3861 103.924 14.1584C104.275 13.9306 104.717 13.8168 105.249 13.8168C105.732 13.8168 106.156 13.9183 106.519 14.1214C106.882 14.3215 107.164 14.62 107.364 15.017C107.564 15.4141 107.664 15.9049 107.664 16.4897V21H106.283V16.6559C106.283 16.1419 106.149 15.7403 105.882 15.451C105.614 15.1586 105.246 15.0124 104.778 15.0124C104.458 15.0124 104.174 15.0817 103.924 15.2202C103.678 15.3587 103.483 15.5618 103.338 15.8295C103.196 16.0942 103.126 16.4143 103.126 16.7898ZM110.424 21.0877C110.172 21.0877 109.955 20.9985 109.773 20.82C109.592 20.6384 109.501 20.4199 109.501 20.1644C109.501 19.9121 109.592 19.6966 109.773 19.5181C109.955 19.3365 110.172 19.2457 110.424 19.2457C110.677 19.2457 110.894 19.3365 111.075 19.5181C111.257 19.6966 111.348 19.9121 111.348 20.1644C111.348 20.3337 111.304 20.4891 111.218 20.6307C111.135 20.7692 111.024 20.88 110.886 20.9631C110.747 21.0462 110.594 21.0877 110.424 21.0877ZM110.424 15.9265C110.172 15.9265 109.955 15.8357 109.773 15.6541C109.592 15.4725 109.501 15.2556 109.501 15.0032C109.501 14.7508 109.592 14.5354 109.773 14.3569C109.955 14.1753 110.172 14.0845 110.424 14.0845C110.677 14.0845 110.894 14.1753 111.075 14.3569C111.257 14.5354 111.348 14.7508 111.348 15.0032C111.348 15.1725 111.304 15.3279 111.218 15.4695C111.135 15.608 111.024 15.7187 110.886 15.8018C110.747 15.8849 110.594 15.9265 110.424 15.9265Z" fill="#918F8F" style="fill:#918F8F;fill:color(display-p3 0.5686 0.5608 0.5608);fill-opacity:1;"/>
<path d="M16.767 38V37.233L21.4716 30.2102H16.7159V29.2727H22.733V30.0398L18.0284 37.0625H22.7841V38H16.767ZM25.0682 40.4545C24.8977 40.4545 24.7457 40.4403 24.6122 40.4119C24.4787 40.3864 24.3864 40.3608 24.3352 40.3352L24.5909 39.4489C24.8352 39.5114 25.0511 39.5341 25.2386 39.517C25.4261 39.5 25.5923 39.4162 25.7372 39.2656C25.8849 39.1179 26.0199 38.8778 26.142 38.5455L26.3295 38.0341L23.9091 31.4545H25L26.8068 36.6705H26.875L28.6818 31.4545H29.7727L26.9943 38.9545C26.8693 39.2926 26.7145 39.5724 26.5298 39.794C26.3452 40.0185 26.1307 40.1847 25.8864 40.2926C25.6449 40.4006 25.3722 40.4545 25.0682 40.4545ZM31.8501 31.4545L33.4183 34.1307L34.9865 31.4545H36.1456L34.032 34.7273L36.1456 38H34.9865L33.4183 35.4602L31.8501 38H30.6911L32.7706 34.7273L30.6911 31.4545H31.8501ZM40.0554 38.1364C39.4247 38.1364 38.8807 37.9972 38.4233 37.7188C37.9688 37.4375 37.6179 37.0455 37.3707 36.5426C37.1264 36.0369 37.0043 35.4489 37.0043 34.7784C37.0043 34.108 37.1264 33.517 37.3707 33.0057C37.6179 32.4915 37.9616 32.0909 38.402 31.804C38.8452 31.5142 39.3622 31.3693 39.9531 31.3693C40.294 31.3693 40.6307 31.4261 40.9631 31.5398C41.2955 31.6534 41.598 31.8381 41.8707 32.0938C42.1435 32.3466 42.3608 32.6818 42.5227 33.0994C42.6847 33.517 42.7656 34.0312 42.7656 34.642V35.0682H37.7202V34.1989H41.7429C41.7429 33.8295 41.669 33.5 41.5213 33.2102C41.3764 32.9205 41.169 32.6918 40.8991 32.5241C40.6321 32.3565 40.3168 32.2727 39.9531 32.2727C39.5526 32.2727 39.206 32.3722 38.9134 32.571C38.6236 32.767 38.4006 33.0227 38.2443 33.3381C38.0881 33.6534 38.0099 33.9915 38.0099 34.3523V34.9318C38.0099 35.4261 38.0952 35.8452 38.2656 36.1889C38.4389 36.5298 38.679 36.7898 38.9858 36.9688C39.2926 37.1449 39.6491 37.233 40.0554 37.233C40.3196 37.233 40.5582 37.196 40.7713 37.1222C40.9872 37.0455 41.1733 36.9318 41.3295 36.7812C41.4858 36.6278 41.6065 36.4375 41.6918 36.2102L42.6634 36.483C42.5611 36.8125 42.3892 37.1023 42.1477 37.3523C41.9063 37.5994 41.608 37.7926 41.2528 37.9318C40.8977 38.0682 40.4986 38.1364 40.0554 38.1364ZM45.3011 29.2727V38H44.2955V29.2727H45.3011ZM51.1658 29.2727L53.4158 32.9034H53.484L55.734 29.2727H56.9783L54.234 33.6364L56.9783 38H55.734L53.484 34.4375H53.4158L51.1658 38H49.9215L52.734 33.6364L49.9215 29.2727H51.1658ZM63.1264 31.4545C63.0753 31.0227 62.8679 30.6875 62.5043 30.4489C62.1406 30.2102 61.6946 30.0909 61.1662 30.0909C60.7798 30.0909 60.4418 30.1534 60.152 30.2784C59.8651 30.4034 59.6406 30.5753 59.4787 30.794C59.3196 31.0128 59.2401 31.2614 59.2401 31.5398C59.2401 31.7727 59.2955 31.973 59.4062 32.1406C59.5199 32.3054 59.6648 32.4432 59.8409 32.554C60.017 32.6619 60.2017 32.7514 60.3949 32.8224C60.5881 32.8906 60.7656 32.946 60.9276 32.9886L61.8139 33.2273C62.0412 33.2869 62.294 33.3693 62.5724 33.4744C62.8537 33.5795 63.1222 33.723 63.3778 33.9048C63.6364 34.0838 63.8494 34.3139 64.017 34.5952C64.1847 34.8764 64.2685 35.2216 64.2685 35.6307C64.2685 36.1023 64.1449 36.5284 63.8977 36.9091C63.6534 37.2898 63.2955 37.5923 62.8239 37.8168C62.3551 38.0412 61.7855 38.1534 61.1151 38.1534C60.4901 38.1534 59.9489 38.0526 59.4915 37.8509C59.0369 37.6491 58.679 37.3679 58.4176 37.0071C58.1591 36.6463 58.0128 36.2273 57.9787 35.75H59.0696C59.098 36.0795 59.2088 36.3523 59.402 36.5682C59.598 36.7812 59.8452 36.9403 60.1435 37.0455C60.4446 37.1477 60.7685 37.1989 61.1151 37.1989C61.5185 37.1989 61.8807 37.1335 62.2017 37.0028C62.5227 36.8693 62.777 36.6847 62.9645 36.4489C63.152 36.2102 63.2457 35.9318 63.2457 35.6136C63.2457 35.3239 63.1648 35.0881 63.0028 34.9062C62.8409 34.7244 62.6278 34.5767 62.3636 34.4631C62.0994 34.3494 61.8139 34.25 61.5071 34.1648L60.4332 33.858C59.7514 33.6619 59.2116 33.3821 58.8139 33.0185C58.4162 32.6548 58.2173 32.179 58.2173 31.5909C58.2173 31.1023 58.3494 30.6761 58.6136 30.3125C58.8807 29.946 59.2386 29.6619 59.6875 29.4602C60.1392 29.2557 60.6435 29.1534 61.2003 29.1534C61.7628 29.1534 62.2628 29.2543 62.7003 29.456C63.1378 29.6548 63.4844 29.9276 63.7401 30.2741C63.9986 30.6207 64.1349 31.0142 64.1491 31.4545H63.1264ZM69.6197 33.1676V34.1051H65.8015V33.1676H69.6197ZM74.1804 38.1193C73.6179 38.1193 73.1165 38.0227 72.6761 37.8295C72.2386 37.6364 71.8906 37.3679 71.6321 37.0241C71.3764 36.6776 71.2372 36.2756 71.2145 35.8182H72.2884C72.3111 36.0994 72.4077 36.3423 72.5781 36.5469C72.7486 36.7486 72.9716 36.9048 73.2472 37.0156C73.5227 37.1264 73.8281 37.1818 74.1634 37.1818C74.5384 37.1818 74.8707 37.1165 75.1605 36.9858C75.4503 36.8551 75.6776 36.6733 75.8423 36.4403C76.0071 36.2074 76.0895 35.9375 76.0895 35.6307C76.0895 35.3097 76.0099 35.027 75.8509 34.7827C75.6918 34.5355 75.4588 34.3423 75.152 34.2031C74.8452 34.0639 74.4702 33.9943 74.027 33.9943H73.3281V33.0568H74.027C74.3736 33.0568 74.6776 32.9943 74.9389 32.8693C75.2031 32.7443 75.4091 32.5682 75.5568 32.3409C75.7074 32.1136 75.7827 31.8466 75.7827 31.5398C75.7827 31.2443 75.7173 30.9872 75.5866 30.7685C75.456 30.5497 75.2713 30.3793 75.0327 30.2571C74.7969 30.1349 74.5185 30.0739 74.1974 30.0739C73.8963 30.0739 73.6122 30.1293 73.3452 30.2401C73.081 30.348 72.8651 30.5057 72.6974 30.7131C72.5298 30.9176 72.4389 31.1648 72.4247 31.4545H71.402C71.419 30.9972 71.5568 30.5966 71.8153 30.2528C72.0739 29.9062 72.4119 29.6364 72.8295 29.4432C73.25 29.25 73.7116 29.1534 74.2145 29.1534C74.7543 29.1534 75.2173 29.2628 75.6037 29.4815C75.9901 29.6974 76.2869 29.983 76.4943 30.3381C76.7017 30.6932 76.8054 31.0767 76.8054 31.4886C76.8054 31.9801 76.6761 32.3991 76.4176 32.7457C76.1619 33.0923 75.8139 33.3324 75.3736 33.4659V33.5341C75.9247 33.625 76.3551 33.8594 76.6648 34.2372C76.9744 34.6122 77.1293 35.0767 77.1293 35.6307C77.1293 36.1051 77 36.5312 76.7415 36.9091C76.4858 37.2841 76.1364 37.5795 75.6932 37.7955C75.25 38.0114 74.7457 38.1193 74.1804 38.1193ZM79.1449 38L83.0483 30.2784V30.2102H78.5483V29.2727H84.1392V30.2614L80.2528 38H79.1449ZM88.3867 38.1193C87.7447 38.1193 87.1978 37.9446 86.7461 37.5952C86.2944 37.2429 85.9492 36.733 85.7106 36.0653C85.4719 35.3949 85.3526 34.5852 85.3526 33.6364C85.3526 32.6932 85.4719 31.8878 85.7106 31.2202C85.9521 30.5497 86.2987 30.0384 86.7504 29.6861C87.2049 29.331 87.7504 29.1534 88.3867 29.1534C89.0231 29.1534 89.5671 29.331 90.0188 29.6861C90.4734 30.0384 90.82 30.5497 91.0586 31.2202C91.3001 31.8878 91.4208 32.6932 91.4208 33.6364C91.4208 34.5852 91.3015 35.3949 91.0629 36.0653C90.8242 36.733 90.479 37.2429 90.0273 37.5952C89.5756 37.9446 89.0288 38.1193 88.3867 38.1193ZM88.3867 37.1818C89.0231 37.1818 89.5174 36.875 89.8697 36.2614C90.2219 35.6477 90.3981 34.7727 90.3981 33.6364C90.3981 32.8807 90.3171 32.2372 90.1552 31.706C89.9961 31.1747 89.766 30.7699 89.4648 30.4915C89.1665 30.2131 88.8072 30.0739 88.3867 30.0739C87.756 30.0739 87.2631 30.3849 86.908 31.0071C86.5529 31.6264 86.3754 32.5028 86.3754 33.6364C86.3754 34.392 86.4549 35.0341 86.614 35.5625C86.7731 36.0909 87.0018 36.4929 87.3001 36.7685C87.6012 37.044 87.9634 37.1818 88.3867 37.1818ZM95.8867 38.1193C95.2447 38.1193 94.6978 37.9446 94.2461 37.5952C93.7944 37.2429 93.4492 36.733 93.2106 36.0653C92.9719 35.3949 92.8526 34.5852 92.8526 33.6364C92.8526 32.6932 92.9719 31.8878 93.2106 31.2202C93.4521 30.5497 93.7987 30.0384 94.2504 29.6861C94.7049 29.331 95.2504 29.1534 95.8867 29.1534C96.5231 29.1534 97.0671 29.331 97.5188 29.6861C97.9734 30.0384 98.32 30.5497 98.5586 31.2202C98.8001 31.8878 98.9208 32.6932 98.9208 33.6364C98.9208 34.5852 98.8015 35.3949 98.5629 36.0653C98.3242 36.733 97.979 37.2429 97.5273 37.5952C97.0756 37.9446 96.5288 38.1193 95.8867 38.1193ZM95.8867 37.1818C96.5231 37.1818 97.0174 36.875 97.3697 36.2614C97.7219 35.6477 97.8981 34.7727 97.8981 33.6364C97.8981 32.8807 97.8171 32.2372 97.6552 31.706C97.4961 31.1747 97.266 30.7699 96.9648 30.4915C96.6665 30.2131 96.3072 30.0739 95.8867 30.0739C95.256 30.0739 94.7631 30.3849 94.408 31.0071C94.0529 31.6264 93.8754 32.5028 93.8754 33.6364C93.8754 34.392 93.9549 35.0341 94.114 35.5625C94.2731 36.0909 94.5018 36.4929 94.8001 36.7685C95.1012 37.044 95.4634 37.1818 95.8867 37.1818ZM104.307 33.1676V34.1051H100.489V33.1676H104.307ZM105.65 38V37.233L108.53 34.0795C108.868 33.7102 109.147 33.3892 109.365 33.1165C109.584 32.8409 109.746 32.5824 109.851 32.3409C109.959 32.0966 110.013 31.8409 110.013 31.5739C110.013 31.267 109.939 31.0014 109.792 30.777C109.647 30.5526 109.448 30.3793 109.195 30.2571C108.942 30.1349 108.658 30.0739 108.343 30.0739C108.007 30.0739 107.715 30.1435 107.465 30.2827C107.218 30.419 107.026 30.6108 106.89 30.858C106.756 31.1051 106.689 31.3949 106.689 31.7273H105.684C105.684 31.2159 105.801 30.767 106.037 30.3807C106.273 29.9943 106.594 29.6932 107 29.4773C107.409 29.2614 107.868 29.1534 108.377 29.1534C108.888 29.1534 109.341 29.2614 109.736 29.4773C110.131 29.6932 110.441 29.9844 110.665 30.3509C110.89 30.7173 111.002 31.125 111.002 31.5739C111.002 31.8949 110.944 32.2088 110.827 32.5156C110.713 32.8196 110.515 33.1591 110.23 33.5341C109.949 33.9062 109.559 34.3608 109.059 34.8977L107.098 36.9943V37.0625H111.155V38H105.65ZM112.523 36.2102V35.3409L116.358 29.2727H116.989V30.6193H116.563L113.665 35.2045V35.2727H118.83V36.2102H112.523ZM116.631 38V35.946V35.5412V29.2727H117.637V38H116.631ZM120.58 38V29.2727H125.813V30.2102H121.637V33.1591H125.421V34.0966H121.637V38H120.58ZM131.356 38H130.248L133.453 29.2727H134.544L137.748 38H136.64L134.032 30.6534H133.964L131.356 38ZM131.765 34.5909H136.231V35.5284H131.765V34.5909ZM141.613 40.5909C141.127 40.5909 140.71 40.5284 140.36 40.4034C140.011 40.2812 139.72 40.1193 139.487 39.9176C139.257 39.7188 139.074 39.5057 138.937 39.2784L139.738 38.7159C139.829 38.8352 139.944 38.9716 140.083 39.125C140.223 39.2812 140.413 39.4162 140.654 39.5298C140.899 39.6463 141.218 39.7045 141.613 39.7045C142.142 39.7045 142.578 39.5767 142.922 39.321C143.265 39.0653 143.437 38.6648 143.437 38.1193V36.7898H143.352C143.278 36.9091 143.173 37.0568 143.037 37.233C142.903 37.4062 142.71 37.5611 142.457 37.6974C142.207 37.831 141.869 37.8977 141.443 37.8977C140.914 37.8977 140.44 37.7727 140.02 37.5227C139.602 37.2727 139.271 36.9091 139.027 36.4318C138.785 35.9545 138.664 35.375 138.664 34.6932C138.664 34.0227 138.782 33.4389 139.018 32.9418C139.254 32.4418 139.582 32.0554 140.002 31.7827C140.423 31.5071 140.909 31.3693 141.46 31.3693C141.886 31.3693 142.224 31.4403 142.474 31.5824C142.727 31.7216 142.92 31.8807 143.054 32.0597C143.19 32.2358 143.295 32.3807 143.369 32.4943H143.471V31.4545H144.443V38.1875C144.443 38.75 144.315 39.2074 144.059 39.5597C143.806 39.9148 143.466 40.1747 143.037 40.3395C142.61 40.5071 142.136 40.5909 141.613 40.5909ZM141.579 36.9943C141.983 36.9943 142.324 36.902 142.602 36.7173C142.88 36.5327 143.092 36.267 143.237 35.9205C143.382 35.5739 143.454 35.1591 143.454 34.6761C143.454 34.2045 143.383 33.7884 143.241 33.4276C143.099 33.0668 142.889 32.7841 142.61 32.5795C142.332 32.375 141.988 32.2727 141.579 32.2727C141.153 32.2727 140.798 32.3807 140.514 32.5966C140.233 32.8125 140.021 33.1023 139.879 33.4659C139.74 33.8295 139.67 34.233 139.67 34.6761C139.67 35.1307 139.741 35.5327 139.883 35.8821C140.028 36.2287 140.241 36.5014 140.522 36.7003C140.806 36.8963 141.159 36.9943 141.579 36.9943ZM148.926 40.5909C148.44 40.5909 148.022 40.5284 147.673 40.4034C147.324 40.2812 147.032 40.1193 146.799 39.9176C146.569 39.7188 146.386 39.5057 146.25 39.2784L147.051 38.7159C147.142 38.8352 147.257 38.9716 147.396 39.125C147.535 39.2812 147.725 39.4162 147.967 39.5298C148.211 39.6463 148.531 39.7045 148.926 39.7045C149.454 39.7045 149.89 39.5767 150.234 39.321C150.578 39.0653 150.75 38.6648 150.75 38.1193V36.7898H150.664C150.591 36.9091 150.485 37.0568 150.349 37.233C150.216 37.4062 150.022 37.5611 149.77 37.6974C149.52 37.831 149.181 37.8977 148.755 37.8977C148.227 37.8977 147.752 37.7727 147.332 37.5227C146.914 37.2727 146.583 36.9091 146.339 36.4318C146.098 35.9545 145.977 35.375 145.977 34.6932C145.977 34.0227 146.095 33.4389 146.331 32.9418C146.566 32.4418 146.895 32.0554 147.315 31.7827C147.735 31.5071 148.221 31.3693 148.772 31.3693C149.199 31.3693 149.537 31.4403 149.787 31.5824C150.039 31.7216 150.233 31.8807 150.366 32.0597C150.502 32.2358 150.608 32.3807 150.681 32.4943H150.784V31.4545H151.755V38.1875C151.755 38.75 151.627 39.2074 151.372 39.5597C151.119 39.9148 150.778 40.1747 150.349 40.3395C149.923 40.5071 149.449 40.5909 148.926 40.5909ZM148.892 36.9943C149.295 36.9943 149.636 36.902 149.914 36.7173C150.193 36.5327 150.404 36.267 150.549 35.9205C150.694 35.5739 150.767 35.1591 150.767 34.6761C150.767 34.2045 150.696 33.7884 150.554 33.4276C150.412 33.0668 150.201 32.7841 149.923 32.5795C149.645 32.375 149.301 32.2727 148.892 32.2727C148.466 32.2727 148.11 32.3807 147.826 32.5966C147.545 32.8125 147.333 33.1023 147.191 33.4659C147.052 33.8295 146.983 34.233 146.983 34.6761C146.983 35.1307 147.054 35.5327 147.196 35.8821C147.341 36.2287 147.554 36.5014 147.835 36.7003C148.119 36.8963 148.471 36.9943 148.892 36.9943ZM153.596 38V31.4545H154.568V32.4432H154.636C154.755 32.1193 154.971 31.8565 155.284 31.6548C155.596 31.4531 155.949 31.3523 156.341 31.3523C156.414 31.3523 156.507 31.3537 156.618 31.3565C156.728 31.3594 156.812 31.3636 156.869 31.3693V32.392C156.835 32.3835 156.757 32.3707 156.635 32.3537C156.515 32.3338 156.389 32.3239 156.255 32.3239C155.937 32.3239 155.653 32.3906 155.403 32.5241C155.156 32.6548 154.96 32.8366 154.815 33.0696C154.673 33.2997 154.602 33.5625 154.602 33.858V38H153.596ZM160.606 38.1364C159.975 38.1364 159.431 37.9972 158.974 37.7188C158.52 37.4375 158.169 37.0455 157.922 36.5426C157.677 36.0369 157.555 35.4489 157.555 34.7784C157.555 34.108 157.677 33.517 157.922 33.0057C158.169 32.4915 158.512 32.0909 158.953 31.804C159.396 31.5142 159.913 31.3693 160.504 31.3693C160.845 31.3693 161.181 31.4261 161.514 31.5398C161.846 31.6534 162.149 31.8381 162.422 32.0938C162.694 32.3466 162.912 32.6818 163.074 33.0994C163.235 33.517 163.316 34.0312 163.316 34.642V35.0682H158.271V34.1989H162.294C162.294 33.8295 162.22 33.5 162.072 33.2102C161.927 32.9205 161.72 32.6918 161.45 32.5241C161.183 32.3565 160.868 32.2727 160.504 32.2727C160.103 32.2727 159.757 32.3722 159.464 32.571C159.174 32.767 158.951 33.0227 158.795 33.3381C158.639 33.6534 158.561 33.9915 158.561 34.3523V34.9318C158.561 35.4261 158.646 35.8452 158.816 36.1889C158.99 36.5298 159.23 36.7898 159.537 36.9688C159.843 37.1449 160.2 37.233 160.606 37.233C160.87 37.233 161.109 37.196 161.322 37.1222C161.538 37.0455 161.724 36.9318 161.88 36.7812C162.037 36.6278 162.157 36.4375 162.243 36.2102L163.214 36.483C163.112 36.8125 162.94 37.1023 162.699 37.3523C162.457 37.5994 162.159 37.7926 161.804 37.9318C161.449 38.0682 161.049 38.1364 160.606 38.1364ZM167.488 40.5909C167.002 40.5909 166.585 40.5284 166.235 40.4034C165.886 40.2812 165.595 40.1193 165.362 39.9176C165.132 39.7188 164.949 39.5057 164.812 39.2784L165.613 38.7159C165.704 38.8352 165.819 38.9716 165.958 39.125C166.098 39.2812 166.288 39.4162 166.529 39.5298C166.774 39.6463 167.093 39.7045 167.488 39.7045C168.017 39.7045 168.453 39.5767 168.797 39.321C169.14 39.0653 169.312 38.6648 169.312 38.1193V36.7898H169.227C169.153 36.9091 169.048 37.0568 168.912 37.233C168.778 37.4062 168.585 37.5611 168.332 37.6974C168.082 37.831 167.744 37.8977 167.318 37.8977C166.789 37.8977 166.315 37.7727 165.895 37.5227C165.477 37.2727 165.146 36.9091 164.902 36.4318C164.66 35.9545 164.539 35.375 164.539 34.6932C164.539 34.0227 164.657 33.4389 164.893 32.9418C165.129 32.4418 165.457 32.0554 165.877 31.7827C166.298 31.5071 166.784 31.3693 167.335 31.3693C167.761 31.3693 168.099 31.4403 168.349 31.5824C168.602 31.7216 168.795 31.8807 168.929 32.0597C169.065 32.2358 169.17 32.3807 169.244 32.4943H169.346V31.4545H170.318V38.1875C170.318 38.75 170.19 39.2074 169.934 39.5597C169.681 39.9148 169.341 40.1747 168.912 40.3395C168.485 40.5071 168.011 40.5909 167.488 40.5909ZM167.454 36.9943C167.858 36.9943 168.199 36.902 168.477 36.7173C168.755 36.5327 168.967 36.267 169.112 35.9205C169.257 35.5739 169.329 35.1591 169.329 34.6761C169.329 34.2045 169.258 33.7884 169.116 33.4276C168.974 33.0668 168.764 32.7841 168.485 32.5795C168.207 32.375 167.863 32.2727 167.454 32.2727C167.028 32.2727 166.673 32.3807 166.389 32.5966C166.108 32.8125 165.896 33.1023 165.754 33.4659C165.615 33.8295 165.545 34.233 165.545 34.6761C165.545 35.1307 165.616 35.5327 165.758 35.8821C165.903 36.2287 166.116 36.5014 166.397 36.7003C166.681 36.8963 167.034 36.9943 167.454 36.9943ZM174.085 38.1534C173.67 38.1534 173.294 38.0753 172.956 37.919C172.618 37.7599 172.349 37.5312 172.15 37.233C171.951 36.9318 171.852 36.5682 171.852 36.142C171.852 35.767 171.926 35.4631 172.074 35.2301C172.221 34.9943 172.419 34.8097 172.666 34.6761C172.913 34.5426 173.186 34.4432 173.484 34.3778C173.785 34.3097 174.088 34.2557 174.392 34.2159C174.789 34.1648 175.112 34.1264 175.359 34.1009C175.609 34.0724 175.791 34.0256 175.904 33.9602C176.021 33.8949 176.079 33.7812 176.079 33.6193V33.5852C176.079 33.1648 175.964 32.8381 175.734 32.6051C175.507 32.3722 175.162 32.2557 174.699 32.2557C174.218 32.2557 173.842 32.3608 173.569 32.571C173.297 32.7812 173.105 33.0057 172.994 33.2443L172.039 32.9034C172.21 32.5057 172.437 32.196 172.721 31.9744C173.008 31.75 173.321 31.5937 173.659 31.5057C174 31.4148 174.335 31.3693 174.664 31.3693C174.875 31.3693 175.116 31.3949 175.389 31.446C175.664 31.4943 175.93 31.5952 176.186 31.7486C176.444 31.902 176.659 32.1335 176.829 32.4432C177 32.7528 177.085 33.1676 177.085 33.6875V38H176.079V37.1136H176.028C175.96 37.2557 175.846 37.4077 175.687 37.5696C175.528 37.7315 175.316 37.8693 175.052 37.983C174.788 38.0966 174.466 38.1534 174.085 38.1534ZM174.238 37.25C174.636 37.25 174.971 37.1719 175.244 37.0156C175.52 36.8594 175.727 36.6577 175.866 36.4105C176.008 36.1634 176.079 35.9034 176.079 35.6307V34.7102C176.037 34.7614 175.943 34.8082 175.798 34.8509C175.656 34.8906 175.491 34.9261 175.304 34.9574C175.119 34.9858 174.939 35.0114 174.762 35.0341C174.589 35.054 174.449 35.071 174.341 35.0852C174.079 35.1193 173.835 35.1747 173.608 35.2514C173.383 35.3253 173.201 35.4375 173.062 35.5881C172.926 35.7358 172.858 35.9375 172.858 36.1932C172.858 36.5426 172.987 36.8068 173.245 36.9858C173.507 37.1619 173.838 37.25 174.238 37.25ZM181.767 31.4545V32.3068H178.375V31.4545H181.767ZM179.364 29.8864H180.369V36.125C180.369 36.4091 180.411 36.6222 180.493 36.7642C180.578 36.9034 180.686 36.9972 180.817 37.0455C180.95 37.0909 181.091 37.1136 181.239 37.1136C181.349 37.1136 181.44 37.108 181.511 37.0966C181.582 37.0824 181.639 37.071 181.682 37.0625L181.886 37.9659C181.818 37.9915 181.723 38.017 181.601 38.0426C181.479 38.071 181.324 38.0852 181.136 38.0852C180.852 38.0852 180.574 38.0241 180.301 37.902C180.031 37.7798 179.807 37.5938 179.628 37.3438C179.452 37.0938 179.364 36.7784 179.364 36.3977V29.8864ZM183.28 38V31.4545H184.286V38H183.28ZM183.791 30.3636C183.595 30.3636 183.426 30.2969 183.284 30.1634C183.145 30.0298 183.075 29.8693 183.075 29.6818C183.075 29.4943 183.145 29.3338 183.284 29.2003C183.426 29.0668 183.595 29 183.791 29C183.987 29 184.155 29.0668 184.294 29.2003C184.436 29.3338 184.507 29.4943 184.507 29.6818C184.507 29.8693 184.436 30.0298 184.294 30.1634C184.155 30.2969 183.987 30.3636 183.791 30.3636ZM188.787 38.1364C188.196 38.1364 187.677 37.9957 187.231 37.7145C186.788 37.4332 186.441 37.0398 186.191 36.5341C185.944 36.0284 185.821 35.4375 185.821 34.7614C185.821 34.0795 185.944 33.4844 186.191 32.9759C186.441 32.4673 186.788 32.0724 187.231 31.7912C187.677 31.5099 188.196 31.3693 188.787 31.3693C189.377 31.3693 189.895 31.5099 190.338 31.7912C190.784 32.0724 191.13 32.4673 191.377 32.9759C191.627 33.4844 191.752 34.0795 191.752 34.7614C191.752 35.4375 191.627 36.0284 191.377 36.5341C191.13 37.0398 190.784 37.4332 190.338 37.7145C189.895 37.9957 189.377 38.1364 188.787 38.1364ZM188.787 37.233C189.235 37.233 189.605 37.1179 189.895 36.8878C190.184 36.6577 190.399 36.3551 190.538 35.9801C190.677 35.6051 190.747 35.1989 190.747 34.7614C190.747 34.3239 190.677 33.9162 190.538 33.5384C190.399 33.1605 190.184 32.8551 189.895 32.6222C189.605 32.3892 189.235 32.2727 188.787 32.2727C188.338 32.2727 187.968 32.3892 187.679 32.6222C187.389 32.8551 187.174 33.1605 187.035 33.5384C186.896 33.9162 186.826 34.3239 186.826 34.7614C186.826 35.1989 186.896 35.6051 187.035 35.9801C187.174 36.3551 187.389 36.6577 187.679 36.8878C187.968 37.1179 188.338 37.233 188.787 37.233ZM194.293 34.0625V38H193.288V31.4545H194.259V32.4773H194.344C194.498 32.1449 194.731 31.8778 195.043 31.6761C195.356 31.4716 195.759 31.3693 196.254 31.3693C196.697 31.3693 197.085 31.4602 197.417 31.642C197.749 31.821 198.008 32.0938 198.192 32.4602C198.377 32.8239 198.469 33.2841 198.469 33.8409V38H197.464V33.9091C197.464 33.3949 197.33 32.9943 197.063 32.7074C196.796 32.4176 196.43 32.2727 195.964 32.2727C195.643 32.2727 195.356 32.3423 195.103 32.4815C194.853 32.6207 194.656 32.8239 194.511 33.0909C194.366 33.358 194.293 33.6818 194.293 34.0625ZM208.591 31.4545C208.54 31.0227 208.333 30.6875 207.969 30.4489C207.605 30.2102 207.159 30.0909 206.631 30.0909C206.245 30.0909 205.907 30.1534 205.617 30.2784C205.33 30.4034 205.105 30.5753 204.944 30.794C204.784 31.0128 204.705 31.2614 204.705 31.5398C204.705 31.7727 204.76 31.973 204.871 32.1406C204.985 32.3054 205.13 32.4432 205.306 32.554C205.482 32.6619 205.667 32.7514 205.86 32.8224C206.053 32.8906 206.23 32.946 206.392 32.9886L207.279 33.2273C207.506 33.2869 207.759 33.3693 208.037 33.4744C208.319 33.5795 208.587 33.723 208.843 33.9048C209.101 34.0838 209.314 34.3139 209.482 34.5952C209.65 34.8764 209.733 35.2216 209.733 35.6307C209.733 36.1023 209.61 36.5284 209.363 36.9091C209.118 37.2898 208.76 37.5923 208.289 37.8168C207.82 38.0412 207.25 38.1534 206.58 38.1534C205.955 38.1534 205.414 38.0526 204.956 37.8509C204.502 37.6491 204.144 37.3679 203.882 37.0071C203.624 36.6463 203.478 36.2273 203.444 35.75H204.534C204.563 36.0795 204.674 36.3523 204.867 36.5682C205.063 36.7812 205.31 36.9403 205.608 37.0455C205.909 37.1477 206.233 37.1989 206.58 37.1989C206.983 37.1989 207.346 37.1335 207.667 37.0028C207.988 36.8693 208.242 36.6847 208.429 36.4489C208.617 36.2102 208.711 35.9318 208.711 35.6136C208.711 35.3239 208.63 35.0881 208.468 34.9062C208.306 34.7244 208.093 34.5767 207.828 34.4631C207.564 34.3494 207.279 34.25 206.972 34.1648L205.898 33.858C205.216 33.6619 204.676 33.3821 204.279 33.0185C203.881 32.6548 203.682 32.179 203.682 31.5909C203.682 31.1023 203.814 30.6761 204.078 30.3125C204.346 29.946 204.703 29.6619 205.152 29.4602C205.604 29.2557 206.108 29.1534 206.665 29.1534C207.228 29.1534 207.728 29.2543 208.165 29.456C208.603 29.6548 208.949 29.9276 209.205 30.2741C209.463 30.6207 209.6 31.0142 209.614 31.4545H208.591ZM212.817 38L210.823 31.4545H211.88L213.295 36.4659H213.363L214.761 31.4545H215.835L217.215 36.4489H217.283L218.698 31.4545H219.755L217.761 38H216.772L215.34 32.9716H215.238L213.806 38H212.817ZM221.085 38V31.4545H222.09V38H221.085ZM221.596 30.3636C221.4 30.3636 221.231 30.2969 221.089 30.1634C220.95 30.0298 220.88 29.8693 220.88 29.6818C220.88 29.4943 220.95 29.3338 221.089 29.2003C221.231 29.0668 221.4 29 221.596 29C221.792 29 221.96 29.0668 222.099 29.2003C222.241 29.3338 222.312 29.4943 222.312 29.6818C222.312 29.8693 222.241 30.0298 222.099 30.1634C221.96 30.2969 221.792 30.3636 221.596 30.3636ZM226.779 31.4545V32.3068H223.387V31.4545H226.779ZM224.375 29.8864H225.381V36.125C225.381 36.4091 225.422 36.6222 225.505 36.7642C225.59 36.9034 225.698 36.9972 225.828 37.0455C225.962 37.0909 226.103 37.1136 226.25 37.1136C226.361 37.1136 226.452 37.108 226.523 37.0966C226.594 37.0824 226.651 37.071 226.694 37.0625L226.898 37.9659C226.83 37.9915 226.735 38.017 226.613 38.0426C226.49 38.071 226.336 38.0852 226.148 38.0852C225.864 38.0852 225.586 38.0241 225.313 37.902C225.043 37.7798 224.819 37.5938 224.64 37.3438C224.463 37.0938 224.375 36.7784 224.375 36.3977V29.8864ZM230.88 38.1364C230.267 38.1364 229.738 37.9915 229.295 37.7017C228.852 37.4119 228.511 37.0128 228.272 36.5043C228.034 35.9957 227.914 35.4148 227.914 34.7614C227.914 34.0966 228.037 33.5099 228.281 33.0014C228.528 32.4901 228.872 32.0909 229.312 31.804C229.755 31.5142 230.272 31.3693 230.863 31.3693C231.324 31.3693 231.738 31.4545 232.108 31.625C232.477 31.7955 232.779 32.0341 233.015 32.3409C233.251 32.6477 233.397 33.0057 233.454 33.4148H232.449C232.372 33.1165 232.201 32.8523 231.937 32.6222C231.676 32.3892 231.324 32.2727 230.88 32.2727C230.488 32.2727 230.145 32.375 229.849 32.5795C229.556 32.7812 229.328 33.0668 229.163 33.4361C229.001 33.8026 228.92 34.233 228.92 34.7273C228.92 35.233 229 35.6733 229.159 36.0483C229.321 36.4233 229.548 36.7145 229.841 36.9219C230.136 37.1293 230.483 37.233 230.88 37.233C231.142 37.233 231.379 37.1875 231.592 37.0966C231.805 37.0057 231.985 36.875 232.133 36.7045C232.281 36.5341 232.386 36.3295 232.449 36.0909H233.454C233.397 36.4773 233.257 36.8253 233.032 37.1349C232.811 37.4418 232.517 37.6861 232.15 37.8679C231.787 38.0469 231.363 38.1364 230.88 38.1364ZM235.93 34.0625V38H234.924V29.2727H235.93V32.4773H236.015C236.169 32.1392 236.399 31.8707 236.706 31.6719C237.015 31.4702 237.427 31.3693 237.941 31.3693C238.387 31.3693 238.778 31.4588 239.113 31.6378C239.449 31.8139 239.708 32.0852 239.893 32.4517C240.081 32.8153 240.174 33.2784 240.174 33.8409V38H239.169V33.9091C239.169 33.3892 239.034 32.9872 238.764 32.7031C238.497 32.4162 238.126 32.2727 237.652 32.2727C237.322 32.2727 237.027 32.3423 236.765 32.4815C236.507 32.6207 236.302 32.8239 236.152 33.0909C236.004 33.358 235.93 33.6818 235.93 34.0625ZM245.526 38V29.2727H248.577C249.185 29.2727 249.686 29.3778 250.081 29.5881C250.476 29.7955 250.77 30.0753 250.963 30.4276C251.156 30.777 251.253 31.1648 251.253 31.5909C251.253 31.9659 251.186 32.2756 251.053 32.5199C250.922 32.7642 250.749 32.9574 250.533 33.0994C250.32 33.2415 250.088 33.3466 249.838 33.4148V33.5C250.105 33.517 250.374 33.6108 250.643 33.7812C250.913 33.9517 251.139 34.196 251.321 34.5142C251.503 34.8324 251.594 35.2216 251.594 35.6818C251.594 36.1193 251.494 36.5128 251.295 36.8622C251.097 37.2116 250.783 37.4886 250.354 37.6932C249.925 37.8977 249.366 38 248.679 38H245.526ZM246.582 37.0625H248.679C249.369 37.0625 249.859 36.929 250.149 36.6619C250.442 36.392 250.588 36.0653 250.588 35.6818C250.588 35.3864 250.513 35.1136 250.362 34.8636C250.212 34.6108 249.997 34.4091 249.719 34.2585C249.44 34.1051 249.111 34.0284 248.73 34.0284H246.582V37.0625ZM246.582 33.108H248.543C248.861 33.108 249.148 33.0455 249.403 32.9205C249.662 32.7955 249.866 32.6193 250.017 32.392C250.17 32.1648 250.247 31.8977 250.247 31.5909C250.247 31.2074 250.114 30.8821 249.847 30.6151C249.58 30.3452 249.156 30.2102 248.577 30.2102H246.582V33.108ZM255.853 38.1364C255.262 38.1364 254.744 37.9957 254.298 37.7145C253.854 37.4332 253.508 37.0398 253.258 36.5341C253.011 36.0284 252.887 35.4375 252.887 34.7614C252.887 34.0795 253.011 33.4844 253.258 32.9759C253.508 32.4673 253.854 32.0724 254.298 31.7912C254.744 31.5099 255.262 31.3693 255.853 31.3693C256.444 31.3693 256.961 31.5099 257.404 31.7912C257.85 32.0724 258.197 32.4673 258.444 32.9759C258.694 33.4844 258.819 34.0795 258.819 34.7614C258.819 35.4375 258.694 36.0284 258.444 36.5341C258.197 37.0398 257.85 37.4332 257.404 37.7145C256.961 37.9957 256.444 38.1364 255.853 38.1364ZM255.853 37.233C256.302 37.233 256.671 37.1179 256.961 36.8878C257.251 36.6577 257.465 36.3551 257.604 35.9801C257.744 35.6051 257.813 35.1989 257.813 34.7614C257.813 34.3239 257.744 33.9162 257.604 33.5384C257.465 33.1605 257.251 32.8551 256.961 32.6222C256.671 32.3892 256.302 32.2727 255.853 32.2727C255.404 32.2727 255.035 32.3892 254.745 32.6222C254.455 32.8551 254.241 33.1605 254.102 33.5384C253.962 33.9162 253.893 34.3239 253.893 34.7614C253.893 35.1989 253.962 35.6051 254.102 35.9801C254.241 36.3551 254.455 36.6577 254.745 36.8878C255.035 37.1179 255.404 37.233 255.853 37.233ZM263.013 38.1364C262.422 38.1364 261.904 37.9957 261.458 37.7145C261.015 37.4332 260.668 37.0398 260.418 36.5341C260.171 36.0284 260.047 35.4375 260.047 34.7614C260.047 34.0795 260.171 33.4844 260.418 32.9759C260.668 32.4673 261.015 32.0724 261.458 31.7912C261.904 31.5099 262.422 31.3693 263.013 31.3693C263.604 31.3693 264.121 31.5099 264.564 31.7912C265.01 32.0724 265.357 32.4673 265.604 32.9759C265.854 33.4844 265.979 34.0795 265.979 34.7614C265.979 35.4375 265.854 36.0284 265.604 36.5341C265.357 37.0398 265.01 37.4332 264.564 37.7145C264.121 37.9957 263.604 38.1364 263.013 38.1364ZM263.013 37.233C263.462 37.233 263.831 37.1179 264.121 36.8878C264.411 36.6577 264.625 36.3551 264.765 35.9801C264.904 35.6051 264.973 35.1989 264.973 34.7614C264.973 34.3239 264.904 33.9162 264.765 33.5384C264.625 33.1605 264.411 32.8551 264.121 32.6222C263.831 32.3892 263.462 32.2727 263.013 32.2727C262.564 32.2727 262.195 32.3892 261.905 32.6222C261.615 32.8551 261.401 33.1605 261.262 33.5384C261.123 33.9162 261.053 34.3239 261.053 34.7614C261.053 35.1989 261.123 35.6051 261.262 35.9801C261.401 36.3551 261.615 36.6577 261.905 36.8878C262.195 37.1179 262.564 37.233 263.013 37.233ZM270.361 31.4545V32.3068H266.969V31.4545H270.361ZM267.957 29.8864H268.963V36.125C268.963 36.4091 269.004 36.6222 269.087 36.7642C269.172 36.9034 269.28 36.9972 269.411 37.0455C269.544 37.0909 269.685 37.1136 269.832 37.1136C269.943 37.1136 270.034 37.108 270.105 37.0966C270.176 37.0824 270.233 37.071 270.276 37.0625L270.48 37.9659C270.412 37.9915 270.317 38.017 270.195 38.0426C270.072 38.071 269.918 38.0852 269.73 38.0852C269.446 38.0852 269.168 38.0241 268.895 37.902C268.625 37.7798 268.401 37.5938 268.222 37.3438C268.045 37.0938 267.957 36.7784 267.957 36.3977V29.8864ZM275.743 29.2727L278.334 36.6193H278.436L281.027 29.2727H282.135L278.93 38H277.839L274.635 29.2727H275.743ZM285.493 38.1364C284.862 38.1364 284.318 37.9972 283.861 37.7188C283.406 37.4375 283.055 37.0455 282.808 36.5426C282.564 36.0369 282.442 35.4489 282.442 34.7784C282.442 34.108 282.564 33.517 282.808 33.0057C283.055 32.4915 283.399 32.0909 283.839 31.804C284.283 31.5142 284.8 31.3693 285.391 31.3693C285.732 31.3693 286.068 31.4261 286.401 31.5398C286.733 31.6534 287.036 31.8381 287.308 32.0938C287.581 32.3466 287.798 32.6818 287.96 33.0994C288.122 33.517 288.203 34.0312 288.203 34.642V35.0682H283.158V34.1989H287.18C287.18 33.8295 287.107 33.5 286.959 33.2102C286.814 32.9205 286.607 32.6918 286.337 32.5241C286.07 32.3565 285.754 32.2727 285.391 32.2727C284.99 32.2727 284.643 32.3722 284.351 32.571C284.061 32.767 283.838 33.0227 283.682 33.3381C283.526 33.6534 283.447 33.9915 283.447 34.3523V34.9318C283.447 35.4261 283.533 35.8452 283.703 36.1889C283.876 36.5298 284.116 36.7898 284.423 36.9688C284.73 37.1449 285.087 37.233 285.493 37.233C285.757 37.233 285.996 37.196 286.209 37.1222C286.425 37.0455 286.611 36.9318 286.767 36.7812C286.923 36.6278 287.044 36.4375 287.129 36.2102L288.101 36.483C287.999 36.8125 287.827 37.1023 287.585 37.3523C287.344 37.5994 287.045 37.7926 286.69 37.9318C286.335 38.0682 285.936 38.1364 285.493 38.1364ZM289.733 38V31.4545H290.705V32.4432H290.773C290.892 32.1193 291.108 31.8565 291.42 31.6548C291.733 31.4531 292.085 31.3523 292.477 31.3523C292.551 31.3523 292.643 31.3537 292.754 31.3565C292.865 31.3594 292.949 31.3636 293.006 31.3693V32.392C292.972 32.3835 292.893 32.3707 292.771 32.3537C292.652 32.3338 292.526 32.3239 292.392 32.3239C292.074 32.3239 291.79 32.3906 291.54 32.5241C291.293 32.6548 291.097 32.8366 290.952 33.0696C290.81 33.2997 290.739 33.5625 290.739 33.858V38H289.733ZM297.556 38V37.233L300.436 34.0795C300.775 33.7102 301.053 33.3892 301.272 33.1165C301.49 32.8409 301.652 32.5824 301.757 32.3409C301.865 32.0966 301.919 31.8409 301.919 31.5739C301.919 31.267 301.846 31.0014 301.698 30.777C301.553 30.5526 301.354 30.3793 301.101 30.2571C300.848 30.1349 300.564 30.0739 300.249 30.0739C299.914 30.0739 299.621 30.1435 299.371 30.2827C299.124 30.419 298.932 30.6108 298.796 30.858C298.662 31.1051 298.596 31.3949 298.596 31.7273H297.59C297.59 31.2159 297.708 30.767 297.944 30.3807C298.179 29.9943 298.5 29.6932 298.907 29.4773C299.316 29.2614 299.775 29.1534 300.283 29.1534C300.794 29.1534 301.248 29.2614 301.642 29.4773C302.037 29.6932 302.347 29.9844 302.571 30.3509C302.796 30.7173 302.908 31.125 302.908 31.5739C302.908 31.8949 302.85 32.2088 302.733 32.5156C302.62 32.8196 302.421 33.1591 302.137 33.5341C301.855 33.9062 301.465 34.3608 300.965 34.8977L299.005 36.9943V37.0625H303.061V38H297.556ZM305.571 38.0682C305.361 38.0682 305.181 37.9929 305.03 37.8423C304.88 37.6918 304.804 37.5114 304.804 37.3011C304.804 37.0909 304.88 36.9105 305.03 36.7599C305.181 36.6094 305.361 36.5341 305.571 36.5341C305.782 36.5341 305.962 36.6094 306.113 36.7599C306.263 36.9105 306.338 37.0909 306.338 37.3011C306.338 37.4403 306.303 37.5682 306.232 37.6847C306.164 37.8011 306.071 37.8949 305.955 37.9659C305.841 38.0341 305.713 38.0682 305.571 38.0682ZM310.151 29.2727V38H309.094V30.3807H309.043L306.913 31.7955V30.7216L309.094 29.2727H310.151ZM312.457 36.2102V35.3409L316.292 29.2727H316.923V30.6193H316.496L313.599 35.2045V35.2727H318.763V36.2102H312.457ZM316.565 38V35.946V35.5412V29.2727H317.57V38H316.565ZM321.467 36.8068L321.399 37.267C321.351 37.5909 321.277 37.9375 321.178 38.3068C321.081 38.6761 320.98 39.0241 320.875 39.3509C320.77 39.6776 320.683 39.9375 320.615 40.1307H319.848C319.885 39.9489 319.933 39.7088 319.993 39.4105C320.053 39.1122 320.112 38.7784 320.172 38.4091C320.234 38.0426 320.286 37.6676 320.325 37.2841L320.376 36.8068H321.467ZM17.0568 53V44.2727H22.2898V45.2102H18.1136V48.1591H21.8977V49.0966H18.1136V53H17.0568ZM23.9634 53V46.4545H24.9691V53H23.9634ZM24.4748 45.3636C24.2788 45.3636 24.1097 45.2969 23.9677 45.1634C23.8285 45.0298 23.7589 44.8693 23.7589 44.6818C23.7589 44.4943 23.8285 44.3338 23.9677 44.2003C24.1097 44.0668 24.2788 44 24.4748 44C24.6708 44 24.8384 44.0668 24.9776 44.2003C25.1197 44.3338 25.1907 44.4943 25.1907 44.6818C25.1907 44.8693 25.1197 45.0298 24.9776 45.1634C24.8384 45.2969 24.6708 45.3636 24.4748 45.3636ZM26.8111 53V46.4545H27.7827V47.4432H27.8509C27.9702 47.1193 28.1861 46.8565 28.4986 46.6548C28.8111 46.4531 29.1634 46.3523 29.5554 46.3523C29.6293 46.3523 29.7216 46.3537 29.8324 46.3565C29.9432 46.3594 30.027 46.3636 30.0838 46.3693V47.392C30.0497 47.3835 29.9716 47.3707 29.8494 47.3537C29.7301 47.3338 29.6037 47.3239 29.4702 47.3239C29.152 47.3239 28.8679 47.3906 28.6179 47.5241C28.3707 47.6548 28.1747 47.8366 28.0298 48.0696C27.8878 48.2997 27.8168 48.5625 27.8168 48.858V53H26.8111ZM31.2759 53V46.4545H32.2475V47.4773H32.3327C32.4691 47.1278 32.6893 46.8565 32.9933 46.6634C33.2972 46.4673 33.6623 46.3693 34.0884 46.3693C34.5202 46.3693 34.8796 46.4673 35.1665 46.6634C35.4563 46.8565 35.6822 47.1278 35.8441 47.4773H35.9123C36.0799 47.1392 36.3313 46.8707 36.6665 46.6719C37.0018 46.4702 37.4038 46.3693 37.8725 46.3693C38.4577 46.3693 38.9364 46.5526 39.3086 46.919C39.6808 47.2827 39.8668 47.8494 39.8668 48.6193V53H38.8612V48.6193C38.8612 48.1364 38.729 47.7912 38.4648 47.5838C38.2006 47.3764 37.8896 47.2727 37.5316 47.2727C37.0714 47.2727 36.7148 47.4119 36.462 47.6903C36.2092 47.9659 36.0827 48.3153 36.0827 48.7386V53H35.06V48.517C35.06 48.1449 34.9393 47.8452 34.6978 47.6179C34.4563 47.3878 34.1452 47.2727 33.7646 47.2727C33.5032 47.2727 33.2589 47.3423 33.0316 47.4815C32.8072 47.6207 32.6254 47.8139 32.4862 48.0611C32.3498 48.3054 32.2816 48.5881 32.2816 48.9091V53H31.2759ZM43.1886 53L41.1942 46.4545H42.2511L43.6658 51.4659H43.734L45.1317 46.4545H46.2056L47.5863 51.4489H47.6545L49.0692 46.4545H50.1261L48.1317 53H47.1431L45.7113 47.9716H45.609L44.1772 53H43.1886ZM53.3817 53.1534C52.967 53.1534 52.5906 53.0753 52.2525 52.919C51.9144 52.7599 51.646 52.5312 51.4471 52.233C51.2482 51.9318 51.1488 51.5682 51.1488 51.142C51.1488 50.767 51.2227 50.4631 51.3704 50.2301C51.5181 49.9943 51.7156 49.8097 51.9627 49.6761C52.2099 49.5426 52.4826 49.4432 52.7809 49.3778C53.082 49.3097 53.3846 49.2557 53.6886 49.2159C54.0863 49.1648 54.4087 49.1264 54.6559 49.1009C54.9059 49.0724 55.0877 49.0256 55.2013 48.9602C55.3178 48.8949 55.3761 48.7812 55.3761 48.6193V48.5852C55.3761 48.1648 55.261 47.8381 55.0309 47.6051C54.8036 47.3722 54.4585 47.2557 53.9954 47.2557C53.5153 47.2557 53.1388 47.3608 52.8661 47.571C52.5934 47.7812 52.4016 48.0057 52.2908 48.2443L51.3363 47.9034C51.5067 47.5057 51.734 47.196 52.0181 46.9744C52.305 46.75 52.6175 46.5937 52.9556 46.5057C53.2965 46.4148 53.6317 46.3693 53.9613 46.3693C54.1715 46.3693 54.413 46.3949 54.6857 46.446C54.9613 46.4943 55.2269 46.5952 55.4826 46.7486C55.7411 46.902 55.9556 47.1335 56.1261 47.4432C56.2965 47.7528 56.3817 48.1676 56.3817 48.6875V53H55.3761V52.1136H55.3249C55.2567 52.2557 55.1431 52.4077 54.984 52.5696C54.8249 52.7315 54.6133 52.8693 54.3491 52.983C54.0849 53.0966 53.7624 53.1534 53.3817 53.1534ZM53.5352 52.25C53.9329 52.25 54.2681 52.1719 54.5408 52.0156C54.8164 51.8594 55.0238 51.6577 55.163 51.4105C55.305 51.1634 55.3761 50.9034 55.3761 50.6307V49.7102C55.3335 49.7614 55.2397 49.8082 55.0948 49.8509C54.9528 49.8906 54.788 49.9261 54.6005 49.9574C54.4158 49.9858 54.2354 50.0114 54.0593 50.0341C53.886 50.054 53.7454 50.071 53.6374 50.0852C53.3761 50.1193 53.1317 50.1747 52.9045 50.2514C52.68 50.3253 52.4982 50.4375 52.359 50.5881C52.2227 50.7358 52.1545 50.9375 52.1545 51.1932C52.1545 51.5426 52.2837 51.8068 52.5423 51.9858C52.8036 52.1619 53.1346 52.25 53.5352 52.25ZM58.2173 53V46.4545H59.1889V47.4432H59.2571C59.3764 47.1193 59.5923 46.8565 59.9048 46.6548C60.2173 46.4531 60.5696 46.3523 60.9616 46.3523C61.0355 46.3523 61.1278 46.3537 61.2386 46.3565C61.3494 46.3594 61.4332 46.3636 61.4901 46.3693V47.392C61.456 47.3835 61.3778 47.3707 61.2557 47.3537C61.1364 47.3338 61.0099 47.3239 60.8764 47.3239C60.5582 47.3239 60.2741 47.3906 60.0241 47.5241C59.777 47.6548 59.581 47.8366 59.4361 48.0696C59.294 48.2997 59.223 48.5625 59.223 48.858V53H58.2173ZM65.2273 53.1364C64.5966 53.1364 64.0526 52.9972 63.5952 52.7188C63.1406 52.4375 62.7898 52.0455 62.5426 51.5426C62.2983 51.0369 62.1761 50.4489 62.1761 49.7784C62.1761 49.108 62.2983 48.517 62.5426 48.0057C62.7898 47.4915 63.1335 47.0909 63.5739 46.804C64.017 46.5142 64.5341 46.3693 65.125 46.3693C65.4659 46.3693 65.8026 46.4261 66.1349 46.5398C66.4673 46.6534 66.7699 46.8381 67.0426 47.0938C67.3153 47.3466 67.5327 47.6818 67.6946 48.0994C67.8565 48.517 67.9375 49.0312 67.9375 49.642V50.0682H62.892V49.1989H66.9148C66.9148 48.8295 66.8409 48.5 66.6932 48.2102C66.5483 47.9205 66.3409 47.6918 66.071 47.5241C65.804 47.3565 65.4886 47.2727 65.125 47.2727C64.7244 47.2727 64.3778 47.3722 64.0852 47.571C63.7955 47.767 63.5724 48.0227 63.4162 48.3381C63.2599 48.6534 63.1818 48.9915 63.1818 49.3523V49.9318C63.1818 50.4261 63.267 50.8452 63.4375 51.1889C63.6108 51.5298 63.8509 51.7898 64.1577 51.9688C64.4645 52.1449 64.821 52.233 65.2273 52.233C65.4915 52.233 65.7301 52.196 65.9432 52.1222C66.1591 52.0455 66.3452 51.9318 66.5014 51.7812C66.6577 51.6278 66.7784 51.4375 66.8636 51.2102L67.8352 51.483C67.733 51.8125 67.5611 52.1023 67.3196 52.3523C67.0781 52.5994 66.7798 52.7926 66.4247 52.9318C66.0696 53.0682 65.6705 53.1364 65.2273 53.1364ZM73.3366 44.2727L75.9276 51.6193H76.0298L78.6207 44.2727H79.7287L76.5241 53H75.4332L72.2287 44.2727H73.3366ZM83.0866 53.1364C82.456 53.1364 81.9119 52.9972 81.4545 52.7188C81 52.4375 80.6491 52.0455 80.402 51.5426C80.1577 51.0369 80.0355 50.4489 80.0355 49.7784C80.0355 49.108 80.1577 48.517 80.402 48.0057C80.6491 47.4915 80.9929 47.0909 81.4332 46.804C81.8764 46.5142 82.3935 46.3693 82.9844 46.3693C83.3253 46.3693 83.6619 46.4261 83.9943 46.5398C84.3267 46.6534 84.6293 46.8381 84.902 47.0938C85.1747 47.3466 85.392 47.6818 85.554 48.0994C85.7159 48.517 85.7969 49.0312 85.7969 49.642V50.0682H80.7514V49.1989H84.7741C84.7741 48.8295 84.7003 48.5 84.5526 48.2102C84.4077 47.9205 84.2003 47.6918 83.9304 47.5241C83.6634 47.3565 83.348 47.2727 82.9844 47.2727C82.5838 47.2727 82.2372 47.3722 81.9446 47.571C81.6548 47.767 81.4318 48.0227 81.2756 48.3381C81.1193 48.6534 81.0412 48.9915 81.0412 49.3523V49.9318C81.0412 50.4261 81.1264 50.8452 81.2969 51.1889C81.4702 51.5298 81.7102 51.7898 82.017 51.9688C82.3239 52.1449 82.6804 52.233 83.0866 52.233C83.3509 52.233 83.5895 52.196 83.8026 52.1222C84.0185 52.0455 84.2045 51.9318 84.3608 51.7812C84.517 51.6278 84.6378 51.4375 84.723 51.2102L85.6946 51.483C85.5923 51.8125 85.4205 52.1023 85.179 52.3523C84.9375 52.5994 84.6392 52.7926 84.2841 52.9318C83.929 53.0682 83.5298 53.1364 83.0866 53.1364ZM87.3267 53V46.4545H88.2983V47.4432H88.3665C88.4858 47.1193 88.7017 46.8565 89.0142 46.6548C89.3267 46.4531 89.679 46.3523 90.071 46.3523C90.1449 46.3523 90.2372 46.3537 90.348 46.3565C90.4588 46.3594 90.5426 46.3636 90.5994 46.3693V47.392C90.5653 47.3835 90.4872 47.3707 90.3651 47.3537C90.2457 47.3338 90.1193 47.3239 89.9858 47.3239C89.6676 47.3239 89.3835 47.3906 89.1335 47.5241C88.8864 47.6548 88.6903 47.8366 88.5455 48.0696C88.4034 48.2997 88.3324 48.5625 88.3324 48.858V53H87.3267ZM94.945 51.2102V50.3409L98.7802 44.2727H99.4109V45.6193H98.9847L96.087 50.2045V50.2727H101.252V51.2102H94.945ZM99.0529 53V50.946V50.5412V44.2727H100.059V53H99.0529ZM103.189 53.0682C102.978 53.0682 102.798 52.9929 102.647 52.8423C102.497 52.6918 102.422 52.5114 102.422 52.3011C102.422 52.0909 102.497 51.9105 102.647 51.7599C102.798 51.6094 102.978 51.5341 103.189 51.5341C103.399 51.5341 103.579 51.6094 103.73 51.7599C103.88 51.9105 103.956 52.0909 103.956 52.3011C103.956 52.4403 103.92 52.5682 103.849 52.6847C103.781 52.8011 103.689 52.8949 103.572 52.9659C103.458 53.0341 103.331 53.0682 103.189 53.0682ZM105.84 53L109.744 45.2784V45.2102H105.244V44.2727H110.835V45.2614L106.948 53H105.84ZM115.082 53.1193C114.44 53.1193 113.893 52.9446 113.441 52.5952C112.99 52.2429 112.645 51.733 112.406 51.0653C112.167 50.3949 112.048 49.5852 112.048 48.6364C112.048 47.6932 112.167 46.8878 112.406 46.2202C112.647 45.5497 112.994 45.0384 113.446 44.6861C113.9 44.331 114.446 44.1534 115.082 44.1534C115.718 44.1534 116.262 44.331 116.714 44.6861C117.169 45.0384 117.515 45.5497 117.754 46.2202C117.995 46.8878 118.116 47.6932 118.116 48.6364C118.116 49.5852 117.997 50.3949 117.758 51.0653C117.52 51.733 117.174 52.2429 116.723 52.5952C116.271 52.9446 115.724 53.1193 115.082 53.1193ZM115.082 52.1818C115.718 52.1818 116.213 51.875 116.565 51.2614C116.917 50.6477 117.093 49.7727 117.093 48.6364C117.093 47.8807 117.012 47.2372 116.85 46.706C116.691 46.1747 116.461 45.7699 116.16 45.4915C115.862 45.2131 115.502 45.0739 115.082 45.0739C114.451 45.0739 113.958 45.3849 113.603 46.0071C113.248 46.6264 113.071 47.5028 113.071 48.6364C113.071 49.392 113.15 50.0341 113.309 50.5625C113.468 51.0909 113.697 51.4929 113.995 51.7685C114.297 52.044 114.659 52.1818 115.082 52.1818ZM120.11 48.6364C120.11 47.5625 120.25 46.5753 120.528 45.6747C120.809 44.7713 121.21 43.9403 121.73 43.1818H122.616C122.412 43.4631 122.22 43.8097 122.041 44.2216C121.865 44.6307 121.71 45.081 121.576 45.5724C121.443 46.0611 121.338 46.5668 121.261 47.0895C121.187 47.6122 121.15 48.1278 121.15 48.6364C121.15 49.3125 121.216 49.9986 121.346 50.6946C121.477 51.3906 121.653 52.0369 121.875 52.6335C122.096 53.2301 122.343 53.7159 122.616 54.0909H121.73C121.21 53.3324 120.809 52.5028 120.528 51.6023C120.25 50.6989 120.11 49.7102 120.11 48.6364ZM124.594 53H123.487L126.691 44.2727H127.782L130.987 53H129.879L127.271 45.6534H127.202L124.594 53ZM125.004 49.5909H129.469V50.5284H125.004V49.5909ZM132.346 53V44.2727H135.397C136.005 44.2727 136.506 44.3778 136.901 44.5881C137.296 44.7955 137.59 45.0753 137.783 45.4276C137.977 45.777 138.073 46.1648 138.073 46.5909C138.073 46.9659 138.006 47.2756 137.873 47.5199C137.742 47.7642 137.569 47.9574 137.353 48.0994C137.14 48.2415 136.908 48.3466 136.658 48.4148V48.5C136.925 48.517 137.194 48.6108 137.464 48.7812C137.734 48.9517 137.96 49.196 138.141 49.5142C138.323 49.8324 138.414 50.2216 138.414 50.6818C138.414 51.1193 138.315 51.5128 138.116 51.8622C137.917 52.2116 137.603 52.4886 137.174 52.6932C136.745 52.8977 136.187 53 135.499 53H132.346ZM133.403 52.0625H135.499C136.19 52.0625 136.68 51.929 136.969 51.6619C137.262 51.392 137.408 51.0653 137.408 50.6818C137.408 50.3864 137.333 50.1136 137.183 49.8636C137.032 49.6108 136.817 49.4091 136.539 49.2585C136.261 49.1051 135.931 49.0284 135.55 49.0284H133.403V52.0625ZM133.403 48.108H135.363C135.681 48.108 135.968 48.0455 136.224 47.9205C136.482 47.7955 136.687 47.6193 136.837 47.392C136.991 47.1648 137.067 46.8977 137.067 46.5909C137.067 46.2074 136.934 45.8821 136.667 45.6151C136.4 45.3452 135.977 45.2102 135.397 45.2102H133.403V48.108ZM139.673 45.2102V44.2727H146.219V45.2102H143.474V53H142.418V45.2102H139.673ZM147.85 53V44.2727H150.799C151.483 44.2727 152.043 44.3963 152.478 44.6435C152.915 44.8878 153.239 45.2188 153.449 45.6364C153.659 46.054 153.765 46.5199 153.765 47.0341C153.765 47.5483 153.659 48.0156 153.449 48.4361C153.242 48.8565 152.921 49.1918 152.486 49.4418C152.051 49.6889 151.495 49.8125 150.816 49.8125H148.702V48.875H150.782C151.25 48.875 151.627 48.794 151.911 48.6321C152.195 48.4702 152.401 48.2514 152.529 47.9759C152.659 47.6974 152.725 47.3835 152.725 47.0341C152.725 46.6847 152.659 46.3722 152.529 46.0966C152.401 45.821 152.194 45.6051 151.907 45.4489C151.62 45.2898 151.239 45.2102 150.765 45.2102H148.907V53H147.85ZM155.653 53.0682C155.443 53.0682 155.263 52.9929 155.112 52.8423C154.962 52.6918 154.886 52.5114 154.886 52.3011C154.886 52.0909 154.962 51.9105 155.112 51.7599C155.263 51.6094 155.443 51.5341 155.653 51.5341C155.864 51.5341 156.044 51.6094 156.195 51.7599C156.345 51.9105 156.42 52.0909 156.42 52.3011C156.42 52.4403 156.385 52.5682 156.314 52.6847C156.246 52.8011 156.153 52.8949 156.037 52.9659C155.923 53.0341 155.795 53.0682 155.653 53.0682ZM160.76 53.1193C160.26 53.1193 159.809 53.0199 159.409 52.821C159.008 52.6222 158.687 52.3494 158.446 52.0028C158.204 51.6562 158.072 51.2614 158.049 50.8182H159.072C159.112 51.2131 159.291 51.5398 159.609 51.7983C159.93 52.054 160.314 52.1818 160.76 52.1818C161.118 52.1818 161.436 52.098 161.714 51.9304C161.995 51.7628 162.216 51.5327 162.375 51.2401C162.537 50.9446 162.618 50.6108 162.618 50.2386C162.618 49.858 162.534 49.5185 162.366 49.2202C162.201 48.919 161.974 48.6818 161.684 48.5085C161.395 48.3352 161.064 48.2472 160.691 48.2443C160.424 48.2415 160.15 48.2827 159.869 48.3679C159.588 48.4503 159.356 48.5568 159.174 48.6875L158.186 48.5682L158.714 44.2727H163.248V45.2102H159.6L159.294 47.7841H159.345C159.524 47.642 159.748 47.5241 160.018 47.4304C160.288 47.3366 160.569 47.2898 160.862 47.2898C161.396 47.2898 161.872 47.4176 162.289 47.6733C162.71 47.9261 163.039 48.2727 163.278 48.7131C163.52 49.1534 163.64 49.6562 163.64 50.2216C163.64 50.7784 163.515 51.2756 163.265 51.7131C163.018 52.1477 162.677 52.4915 162.243 52.7443C161.808 52.9943 161.314 53.1193 160.76 53.1193ZM167.498 48.6364C167.498 49.7102 167.357 50.6989 167.076 51.6023C166.798 52.5028 166.398 53.3324 165.879 54.0909H164.992C165.197 53.8097 165.387 53.4631 165.563 53.0511C165.742 52.642 165.898 52.1932 166.032 51.7045C166.165 51.2131 166.269 50.706 166.343 50.1832C166.42 49.6577 166.458 49.142 166.458 48.6364C166.458 47.9602 166.393 47.2741 166.262 46.5781C166.131 45.8821 165.955 45.2358 165.734 44.6392C165.512 44.0426 165.265 43.5568 164.992 43.1818H165.879C166.398 43.9403 166.798 44.7713 167.076 45.6747C167.357 46.5753 167.498 47.5625 167.498 48.6364ZM171.198 51.8068L171.13 52.267C171.081 52.5909 171.007 52.9375 170.908 53.3068C170.811 53.6761 170.711 54.0241 170.605 54.3509C170.5 54.6776 170.414 54.9375 170.346 55.1307H169.578C169.615 54.9489 169.664 54.7088 169.723 54.4105C169.783 54.1122 169.843 53.7784 169.902 53.4091C169.965 53.0426 170.016 52.6676 170.056 52.2841L170.107 51.8068H171.198ZM176.572 44.2727H177.834L180.8 51.517H180.902L183.868 44.2727H185.129V53H184.141V46.3693H184.055L181.328 53H180.374L177.646 46.3693H177.561V53H176.572V44.2727ZM187.606 53H186.498L189.703 44.2727H190.794L193.998 53H192.89L190.282 45.6534H190.214L187.606 53ZM188.015 49.5909H192.481V50.5284H188.015V49.5909ZM201.97 47H200.913C200.851 46.696 200.741 46.429 200.585 46.1989C200.432 45.9688 200.244 45.7756 200.023 45.6193C199.804 45.4602 199.561 45.3409 199.294 45.2614C199.027 45.1818 198.749 45.142 198.459 45.142C197.93 45.142 197.452 45.2756 197.023 45.5426C196.597 45.8097 196.257 46.2031 196.004 46.723C195.754 47.2429 195.629 47.8807 195.629 48.6364C195.629 49.392 195.754 50.0298 196.004 50.5497C196.257 51.0696 196.597 51.4631 197.023 51.7301C197.452 51.9972 197.93 52.1307 198.459 52.1307C198.749 52.1307 199.027 52.0909 199.294 52.0114C199.561 51.9318 199.804 51.8139 200.023 51.6577C200.244 51.4986 200.432 51.304 200.585 51.0739C200.741 50.8409 200.851 50.5739 200.913 50.2727H201.97C201.891 50.7187 201.746 51.1179 201.536 51.4702C201.325 51.8224 201.064 52.1222 200.751 52.3693C200.439 52.6136 200.088 52.7997 199.699 52.9276C199.313 53.0554 198.899 53.1193 198.459 53.1193C197.714 53.1193 197.053 52.9375 196.473 52.5739C195.893 52.2102 195.438 51.6932 195.105 51.0227C194.773 50.3523 194.607 49.5568 194.607 48.6364C194.607 47.7159 194.773 46.9205 195.105 46.25C195.438 45.5795 195.893 45.0625 196.473 44.6989C197.053 44.3352 197.714 44.1534 198.459 44.1534C198.899 44.1534 199.313 44.2173 199.699 44.3452C200.088 44.473 200.439 44.6605 200.751 44.9077C201.064 45.152 201.325 45.4503 201.536 45.8026C201.746 46.152 201.891 46.5511 201.97 47ZM209.746 53.1193C209.104 53.1193 208.557 52.9446 208.105 52.5952C207.654 52.2429 207.309 51.733 207.07 51.0653C206.831 50.3949 206.712 49.5852 206.712 48.6364C206.712 47.6932 206.831 46.8878 207.07 46.2202C207.311 45.5497 207.658 45.0384 208.11 44.6861C208.564 44.331 209.11 44.1534 209.746 44.1534C210.382 44.1534 210.926 44.331 211.378 44.6861C211.833 45.0384 212.179 45.5497 212.418 46.2202C212.659 46.8878 212.78 47.6932 212.78 48.6364C212.78 49.5852 212.661 50.3949 212.422 51.0653C212.184 51.733 211.838 52.2429 211.387 52.5952C210.935 52.9446 210.388 53.1193 209.746 53.1193ZM209.746 52.1818C210.382 52.1818 210.877 51.875 211.229 51.2614C211.581 50.6477 211.757 49.7727 211.757 48.6364C211.757 47.8807 211.676 47.2372 211.515 46.706C211.355 46.1747 211.125 45.7699 210.824 45.4915C210.526 45.2131 210.167 45.0739 209.746 45.0739C209.115 45.0739 208.623 45.3849 208.267 46.0071C207.912 46.6264 207.735 47.5028 207.735 48.6364C207.735 49.392 207.814 50.0341 207.973 50.5625C208.132 51.0909 208.361 51.4929 208.659 51.7685C208.961 52.044 209.323 52.1818 209.746 52.1818ZM217.246 53.1193C216.604 53.1193 216.057 52.9446 215.605 52.5952C215.154 52.2429 214.809 51.733 214.57 51.0653C214.331 50.3949 214.212 49.5852 214.212 48.6364C214.212 47.6932 214.331 46.8878 214.57 46.2202C214.811 45.5497 215.158 45.0384 215.61 44.6861C216.064 44.331 216.61 44.1534 217.246 44.1534C217.882 44.1534 218.426 44.331 218.878 44.6861C219.333 45.0384 219.679 45.5497 219.918 46.2202C220.159 46.8878 220.28 47.6932 220.28 48.6364C220.28 49.5852 220.161 50.3949 219.922 51.0653C219.684 51.733 219.338 52.2429 218.887 52.5952C218.435 52.9446 217.888 53.1193 217.246 53.1193ZM217.246 52.1818C217.882 52.1818 218.377 51.875 218.729 51.2614C219.081 50.6477 219.257 49.7727 219.257 48.6364C219.257 47.8807 219.176 47.2372 219.015 46.706C218.855 46.1747 218.625 45.7699 218.324 45.4915C218.026 45.2131 217.667 45.0739 217.246 45.0739C216.615 45.0739 216.123 45.3849 215.767 46.0071C215.412 46.6264 215.235 47.5028 215.235 48.6364C215.235 49.392 215.314 50.0341 215.473 50.5625C215.632 51.0909 215.861 51.4929 216.159 51.7685C216.461 52.044 216.823 52.1818 217.246 52.1818ZM222.65 51.8835C222.439 51.8835 222.259 51.8082 222.108 51.6577C221.958 51.5071 221.882 51.3267 221.882 51.1165C221.882 50.9062 221.958 50.7259 222.108 50.5753C222.259 50.4247 222.439 50.3494 222.65 50.3494C222.86 50.3494 223.04 50.4247 223.191 50.5753C223.341 50.7259 223.417 50.9062 223.417 51.1165C223.417 51.2557 223.381 51.3835 223.31 51.5C223.242 51.6165 223.15 51.7102 223.033 51.7812C222.919 51.8494 222.792 51.8835 222.65 51.8835ZM222.65 47.4688C222.439 47.4688 222.259 47.3935 222.108 47.2429C221.958 47.0923 221.882 46.9119 221.882 46.7017C221.882 46.4915 221.958 46.3111 222.108 46.1605C222.259 46.0099 222.439 45.9347 222.65 45.9347C222.86 45.9347 223.04 46.0099 223.191 46.1605C223.341 46.3111 223.417 46.4915 223.417 46.7017C223.417 46.8409 223.381 46.9688 223.31 47.0852C223.242 47.2017 223.15 47.2955 223.033 47.3665C222.919 47.4347 222.792 47.4688 222.65 47.4688ZM228.272 44.2727V53H227.216V45.3807H227.164L225.034 46.7955V45.7216L227.216 44.2727H228.272ZM230.782 53V52.233L233.663 49.0795C234.001 48.7102 234.279 48.3892 234.498 48.1165C234.717 47.8409 234.879 47.5824 234.984 47.3409C235.092 47.0966 235.146 46.8409 235.146 46.5739C235.146 46.267 235.072 46.0014 234.924 45.777C234.779 45.5526 234.581 45.3793 234.328 45.2571C234.075 45.1349 233.791 45.0739 233.475 45.0739C233.14 45.0739 232.848 45.1435 232.598 45.2827C232.35 45.419 232.159 45.6108 232.022 45.858C231.889 46.1051 231.822 46.3949 231.822 46.7273H230.816C230.816 46.2159 230.934 45.767 231.17 45.3807C231.406 44.9943 231.727 44.6932 232.133 44.4773C232.542 44.2614 233.001 44.1534 233.51 44.1534C234.021 44.1534 234.474 44.2614 234.869 44.4773C235.264 44.6932 235.574 44.9844 235.798 45.3509C236.022 45.7173 236.135 46.125 236.135 46.5739C236.135 46.8949 236.076 47.2088 235.96 47.5156C235.846 47.8196 235.647 48.1591 235.363 48.5341C235.082 48.9062 234.691 49.3608 234.191 49.8977L232.231 51.9943V52.0625H236.288V53H230.782ZM238.798 51.8835C238.588 51.8835 238.407 51.8082 238.257 51.6577C238.106 51.5071 238.031 51.3267 238.031 51.1165C238.031 50.9062 238.106 50.7259 238.257 50.5753C238.407 50.4247 238.588 50.3494 238.798 50.3494C239.008 50.3494 239.189 50.4247 239.339 50.5753C239.49 50.7259 239.565 50.9062 239.565 51.1165C239.565 51.2557 239.529 51.3835 239.458 51.5C239.39 51.6165 239.298 51.7102 239.181 51.7812C239.068 51.8494 238.94 51.8835 238.798 51.8835ZM238.798 47.4688C238.588 47.4688 238.407 47.3935 238.257 47.2429C238.106 47.0923 238.031 46.9119 238.031 46.7017C238.031 46.4915 238.106 46.3111 238.257 46.1605C238.407 46.0099 238.588 45.9347 238.798 45.9347C239.008 45.9347 239.189 46.0099 239.339 46.1605C239.49 46.3111 239.565 46.4915 239.565 46.7017C239.565 46.8409 239.529 46.9688 239.458 47.0852C239.39 47.2017 239.298 47.2955 239.181 47.3665C239.068 47.4347 238.94 47.4688 238.798 47.4688ZM244.131 44.1534C244.489 44.1562 244.847 44.2244 245.205 44.358C245.563 44.4915 245.89 44.7131 246.185 45.0227C246.48 45.3295 246.718 45.7486 246.897 46.2798C247.076 46.8111 247.165 47.4773 247.165 48.2784C247.165 49.054 247.091 49.7429 246.944 50.3452C246.799 50.9446 246.588 51.4503 246.313 51.8622C246.04 52.2741 245.708 52.5866 245.316 52.7997C244.926 53.0128 244.486 53.1193 243.995 53.1193C243.506 53.1193 243.07 53.0227 242.686 52.8295C242.306 52.6335 241.993 52.3622 241.749 52.0156C241.507 51.6662 241.353 51.2614 241.284 50.8011H242.324C242.418 51.2017 242.604 51.5327 242.882 51.794C243.164 52.0526 243.534 52.1818 243.995 52.1818C244.668 52.1818 245.199 51.8878 245.588 51.2997C245.98 50.7116 246.176 49.8807 246.176 48.8068H246.108C245.949 49.0455 245.76 49.2514 245.542 49.4247C245.323 49.598 245.08 49.7315 244.813 49.8253C244.546 49.919 244.262 49.9659 243.961 49.9659C243.461 49.9659 243.002 49.8423 242.584 49.5952C242.169 49.3452 241.837 49.0028 241.587 48.5682C241.34 48.1307 241.216 47.6307 241.216 47.0682C241.216 46.5341 241.336 46.0455 241.574 45.6023C241.816 45.1562 242.154 44.8011 242.588 44.5369C243.026 44.2727 243.54 44.1449 244.131 44.1534ZM244.131 45.0909C243.773 45.0909 243.451 45.1804 243.164 45.3594C242.88 45.5355 242.654 45.7741 242.486 46.0753C242.321 46.3736 242.239 46.7045 242.239 47.0682C242.239 47.4318 242.319 47.7628 242.478 48.0611C242.64 48.3565 242.86 48.5923 243.138 48.7685C243.419 48.9418 243.739 49.0284 244.097 49.0284C244.367 49.0284 244.618 48.9759 244.851 48.8707C245.084 48.7628 245.287 48.6165 245.461 48.4318C245.637 48.2443 245.775 48.0327 245.874 47.7969C245.973 47.5582 246.023 47.3097 246.023 47.0511C246.023 46.7102 245.941 46.3906 245.776 46.0923C245.614 45.794 245.39 45.5526 245.103 45.3679C244.819 45.1832 244.495 45.0909 244.131 45.0909ZM248.994 53V44.2727H254.227V45.2102H250.051V48.1591H253.835V49.0966H250.051V53H248.994ZM256.634 51.8835C256.424 51.8835 256.243 51.8082 256.093 51.6577C255.942 51.5071 255.867 51.3267 255.867 51.1165C255.867 50.9062 255.942 50.7259 256.093 50.5753C256.243 50.4247 256.424 50.3494 256.634 50.3494C256.844 50.3494 257.025 50.4247 257.175 50.5753C257.326 50.7259 257.401 50.9062 257.401 51.1165C257.401 51.2557 257.365 51.3835 257.294 51.5C257.226 51.6165 257.134 51.7102 257.017 51.7812C256.904 51.8494 256.776 51.8835 256.634 51.8835ZM256.634 47.4688C256.424 47.4688 256.243 47.3935 256.093 47.2429C255.942 47.0923 255.867 46.9119 255.867 46.7017C255.867 46.4915 255.942 46.3111 256.093 46.1605C256.243 46.0099 256.424 45.9347 256.634 45.9347C256.844 45.9347 257.025 46.0099 257.175 46.1605C257.326 46.3111 257.401 46.4915 257.401 46.7017C257.401 46.8409 257.365 46.9688 257.294 47.0852C257.226 47.2017 257.134 47.2955 257.017 47.3665C256.904 47.4347 256.776 47.4688 256.634 47.4688ZM258.984 51.2102V50.3409L262.819 44.2727H263.45V45.6193H263.024L260.126 50.2045V50.2727H265.291V51.2102H258.984ZM263.092 53V50.946V50.5412V44.2727H264.098V53H263.092ZM267.161 53L271.064 45.2784V45.2102H266.564V44.2727H272.155V45.2614L268.268 53H267.161ZM274.083 51.8835C273.873 51.8835 273.692 51.8082 273.542 51.6577C273.391 51.5071 273.316 51.3267 273.316 51.1165C273.316 50.9062 273.391 50.7259 273.542 50.5753C273.692 50.4247 273.873 50.3494 274.083 50.3494C274.293 50.3494 274.474 50.4247 274.624 50.5753C274.775 50.7259 274.85 50.9062 274.85 51.1165C274.85 51.2557 274.815 51.3835 274.744 51.5C274.675 51.6165 274.583 51.7102 274.467 51.7812C274.353 51.8494 274.225 51.8835 274.083 51.8835ZM274.083 47.4688C273.873 47.4688 273.692 47.3935 273.542 47.2429C273.391 47.0923 273.316 46.9119 273.316 46.7017C273.316 46.4915 273.391 46.3111 273.542 46.1605C273.692 46.0099 273.873 45.9347 274.083 45.9347C274.293 45.9347 274.474 46.0099 274.624 46.1605C274.775 46.3111 274.85 46.4915 274.85 46.7017C274.85 46.8409 274.815 46.9688 274.744 47.0852C274.675 47.2017 274.583 47.2955 274.467 47.3665C274.353 47.4347 274.225 47.4688 274.083 47.4688ZM279.706 44.2727V53H278.649V45.3807H278.598L276.467 46.7955V45.7216L278.649 44.2727H279.706ZM282.369 53V44.2727H285.42C286.028 44.2727 286.53 44.3778 286.925 44.5881C287.32 44.7955 287.614 45.0753 287.807 45.4276C288 45.777 288.097 46.1648 288.097 46.5909C288.097 46.9659 288.03 47.2756 287.896 47.5199C287.766 47.7642 287.592 47.9574 287.376 48.0994C287.163 48.2415 286.932 48.3466 286.682 48.4148V48.5C286.949 48.517 287.217 48.6108 287.487 48.7812C287.757 48.9517 287.983 49.196 288.165 49.5142C288.347 49.8324 288.438 50.2216 288.438 50.6818C288.438 51.1193 288.338 51.5128 288.139 51.8622C287.94 52.2116 287.626 52.4886 287.197 52.6932C286.768 52.8977 286.21 53 285.523 53H282.369ZM283.426 52.0625H285.523C286.213 52.0625 286.703 51.929 286.993 51.6619C287.286 51.392 287.432 51.0653 287.432 50.6818C287.432 50.3864 287.357 50.1136 287.206 49.8636C287.055 49.6108 286.841 49.4091 286.562 49.2585C286.284 49.1051 285.955 49.0284 285.574 49.0284H283.426V52.0625ZM283.426 48.108H285.386C285.705 48.108 285.991 48.0455 286.247 47.9205C286.506 47.7955 286.71 47.6193 286.861 47.392C287.014 47.1648 287.091 46.8977 287.091 46.5909C287.091 46.2074 286.957 45.8821 286.69 45.6151C286.423 45.3452 286 45.2102 285.42 45.2102H283.426V48.108ZM290.771 51.8835C290.56 51.8835 290.38 51.8082 290.229 51.6577C290.079 51.5071 290.004 51.3267 290.004 51.1165C290.004 50.9062 290.079 50.7259 290.229 50.5753C290.38 50.4247 290.56 50.3494 290.771 50.3494C290.981 50.3494 291.161 50.4247 291.312 50.5753C291.462 50.7259 291.538 50.9062 291.538 51.1165C291.538 51.2557 291.502 51.3835 291.431 51.5C291.363 51.6165 291.271 51.7102 291.154 51.7812C291.04 51.8494 290.913 51.8835 290.771 51.8835ZM290.771 47.4688C290.56 47.4688 290.38 47.3935 290.229 47.2429C290.079 47.0923 290.004 46.9119 290.004 46.7017C290.004 46.4915 290.079 46.3111 290.229 46.1605C290.38 46.0099 290.56 45.9347 290.771 45.9347C290.981 45.9347 291.161 46.0099 291.312 46.1605C291.462 46.3111 291.538 46.4915 291.538 46.7017C291.538 46.8409 291.502 46.9688 291.431 47.0852C291.363 47.2017 291.271 47.2955 291.154 47.3665C291.04 47.4347 290.913 47.4688 290.771 47.4688ZM300.501 47H299.445C299.382 46.696 299.273 46.429 299.116 46.1989C298.963 45.9688 298.776 45.7756 298.554 45.6193C298.335 45.4602 298.092 45.3409 297.825 45.2614C297.558 45.1818 297.28 45.142 296.99 45.142C296.462 45.142 295.983 45.2756 295.554 45.5426C295.128 45.8097 294.788 46.2031 294.536 46.723C294.286 47.2429 294.161 47.8807 294.161 48.6364C294.161 49.392 294.286 50.0298 294.536 50.5497C294.788 51.0696 295.128 51.4631 295.554 51.7301C295.983 51.9972 296.462 52.1307 296.99 52.1307C297.28 52.1307 297.558 52.0909 297.825 52.0114C298.092 51.9318 298.335 51.8139 298.554 51.6577C298.776 51.4986 298.963 51.304 299.116 51.0739C299.273 50.8409 299.382 50.5739 299.445 50.2727H300.501C300.422 50.7187 300.277 51.1179 300.067 51.4702C299.857 51.8224 299.595 52.1222 299.283 52.3693C298.97 52.6136 298.619 52.7997 298.23 52.9276C297.844 53.0554 297.43 53.1193 296.99 53.1193C296.246 53.1193 295.584 52.9375 295.004 52.5739C294.425 52.2102 293.969 51.6932 293.636 51.0227C293.304 50.3523 293.138 49.5568 293.138 48.6364C293.138 47.7159 293.304 46.9205 293.636 46.25C293.969 45.5795 294.425 45.0625 295.004 44.6989C295.584 44.3352 296.246 44.1534 296.99 44.1534C297.43 44.1534 297.844 44.2173 298.23 44.3452C298.619 44.473 298.97 44.6605 299.283 44.9077C299.595 45.152 299.857 45.4503 300.067 45.8026C300.277 46.152 300.422 46.5511 300.501 47ZM309.232 47H308.175C308.113 46.696 308.003 46.429 307.847 46.1989C307.694 45.9688 307.506 45.7756 307.284 45.6193C307.066 45.4602 306.823 45.3409 306.556 45.2614C306.289 45.1818 306.01 45.142 305.721 45.142C305.192 45.142 304.713 45.2756 304.284 45.5426C303.858 45.8097 303.519 46.2031 303.266 46.723C303.016 47.2429 302.891 47.8807 302.891 48.6364C302.891 49.392 303.016 50.0298 303.266 50.5497C303.519 51.0696 303.858 51.4631 304.284 51.7301C304.713 51.9972 305.192 52.1307 305.721 52.1307C306.01 52.1307 306.289 52.0909 306.556 52.0114C306.823 51.9318 307.066 51.8139 307.284 51.6577C307.506 51.4986 307.694 51.304 307.847 51.0739C308.003 50.8409 308.113 50.5739 308.175 50.2727H309.232C309.152 50.7187 309.007 51.1179 308.797 51.4702C308.587 51.8224 308.326 52.1222 308.013 52.3693C307.701 52.6136 307.35 52.7997 306.961 52.9276C306.574 53.0554 306.161 53.1193 305.721 53.1193C304.976 53.1193 304.314 52.9375 303.735 52.5739C303.155 52.2102 302.699 51.6932 302.367 51.0227C302.034 50.3523 301.868 49.5568 301.868 48.6364C301.868 47.7159 302.034 46.9205 302.367 46.25C302.699 45.5795 303.155 45.0625 303.735 44.6989C304.314 44.3352 304.976 44.1534 305.721 44.1534C306.161 44.1534 306.574 44.2173 306.961 44.3452C307.35 44.473 307.701 44.6605 308.013 44.9077C308.326 45.152 308.587 45.4503 308.797 45.8026C309.007 46.152 309.152 46.5511 309.232 47Z" fill="#221E1E" style="fill:#221E1E;fill:color(display-p3 0.1333 0.1183 0.1183);fill-opacity:1;"/>
</svg>
