<svg width="386" height="44" viewBox="0 0 386 44" fill="none" xmlns="http://www.w3.org/2000/svg">
<mask id="mask0_1304_237681" style="mask-type:alpha" maskUnits="userSpaceOnUse" x="16" y="10" width="24" height="24">
<rect x="16" y="10" width="24" height="24" fill="#D9D9D9" style="fill:#D9D9D9;fill:color(display-p3 0.8510 0.8510 0.8510);fill-opacity:1;"/>
</mask>
<g mask="url(#mask0_1304_237681)">
<path d="M33.5 24.5V23.5H36C36.15 23.5 36.271 23.55 36.363 23.65C36.4543 23.75 36.5 23.8667 36.5 24C36.5 24.15 36.4543 24.271 36.363 24.363C36.271 24.4543 36.15 24.5 36 24.5H33.5ZM33.5 28.5V27.5H36C36.15 27.5 36.271 27.55 36.363 27.65C36.4543 27.75 36.5 27.8667 36.5 28C36.5 28.15 36.4543 28.271 36.363 28.363C36.271 28.4543 36.15 28.5 36 28.5H33.5ZM30 29.5C29.5833 29.5 29.2293 29.3043 28.938 28.913C28.646 28.521 28.5 28.05 28.5 27.5H26.5V24.5H28.5C28.5 23.95 28.646 23.479 28.938 23.087C29.2293 22.6957 29.5833 22.5 30 22.5H32.5V29.5H30ZM23 26.5C22.0333 26.5 21.2083 26.1583 20.525 25.475C19.8417 24.7917 19.5 23.9667 19.5 23C19.5 22.0333 19.8417 21.2083 20.525 20.525C21.2083 19.8417 22.0333 19.5 23 19.5H24.5C25.05 19.5 25.521 19.304 25.913 18.912C26.3043 18.5207 26.5 18.05 26.5 17.5C26.5 16.95 26.3043 16.4793 25.913 16.088C25.521 15.696 25.05 15.5 24.5 15.5H21C20.85 15.5 20.7293 15.45 20.638 15.35C20.546 15.25 20.5 15.1333 20.5 15C20.5 14.85 20.546 14.729 20.638 14.637C20.7293 14.5457 20.85 14.5 21 14.5H24.5C25.3333 14.5 26.0417 14.7917 26.625 15.375C27.2083 15.9583 27.5 16.6667 27.5 17.5C27.5 18.3333 27.2083 19.0417 26.625 19.625C26.0417 20.2083 25.3333 20.5 24.5 20.5H23C22.3167 20.5 21.7293 20.746 21.238 21.238C20.746 21.7293 20.5 22.3167 20.5 23C20.5 23.6833 20.746 24.2707 21.238 24.762C21.7293 25.254 22.3167 25.5 23 25.5H25.5V26.5H23Z" fill="black" fill-opacity="0.76" style="fill:black;fill-opacity:0.76;"/>
</g>
<path d="M57.7266 16.0909V27H56.0859V17.4972H50.951V27H49.3104V16.0909H57.7266ZM63.4919 27.1651C62.6858 27.1651 61.9915 26.9929 61.4091 26.6484C60.8303 26.3004 60.3828 25.8121 60.0668 25.1836C59.7543 24.5515 59.598 23.8111 59.598 22.9624C59.598 22.1243 59.7543 21.3857 60.0668 20.7464C60.3828 20.1072 60.8232 19.6083 61.3878 19.2496C61.956 18.891 62.6201 18.7116 63.38 18.7116C63.8417 18.7116 64.2891 18.788 64.7223 18.9407C65.1556 19.0934 65.5444 19.3331 65.8889 19.6598C66.2333 19.9865 66.505 20.4109 66.7039 20.9329C66.9027 21.4513 67.0022 22.0817 67.0022 22.8239V23.3885H60.4983V22.1953H65.4414C65.4414 21.7763 65.3562 21.4052 65.1858 21.082C65.0153 20.7553 64.7756 20.4979 64.4667 20.3097C64.1613 20.1214 63.8026 20.0273 63.3907 20.0273C62.9432 20.0273 62.5526 20.1374 62.2188 20.3576C61.8885 20.5742 61.6328 20.8583 61.4517 21.2099C61.2742 21.5579 61.1854 21.9361 61.1854 22.3445V23.2766C61.1854 23.8235 61.2813 24.2887 61.473 24.6722C61.6684 25.0558 61.94 25.3487 62.288 25.5511C62.636 25.75 63.0426 25.8494 63.5078 25.8494C63.8097 25.8494 64.0849 25.8068 64.3335 25.7216C64.5821 25.6328 64.7969 25.5014 64.978 25.3274C65.1591 25.1534 65.2976 24.9386 65.3935 24.6829L66.901 24.9545C66.7802 25.3984 66.5636 25.7873 66.2511 26.1211C65.9422 26.4513 65.5533 26.7088 65.0846 26.8935C64.6194 27.0746 64.0885 27.1651 63.4919 27.1651ZM68.6193 30.0682V18.8182H70.1747V20.1445H70.3079C70.4002 19.9741 70.5334 19.777 70.7074 19.5533C70.8814 19.3295 71.1229 19.1342 71.4318 18.9673C71.7408 18.7969 72.1491 18.7116 72.6569 18.7116C73.3175 18.7116 73.9069 18.8786 74.4254 19.2124C74.9439 19.5462 75.3505 20.0273 75.6452 20.6559C75.9435 21.2844 76.0927 22.0408 76.0927 22.9251C76.0927 23.8093 75.9453 24.5675 75.6506 25.1996C75.3558 25.8281 74.951 26.3129 74.4361 26.6538C73.9211 26.9911 73.3334 27.1598 72.6729 27.1598C72.1758 27.1598 71.7692 27.0763 71.4531 26.9094C71.1406 26.7425 70.8956 26.5472 70.718 26.3235C70.5405 26.0998 70.4037 25.9009 70.3079 25.7269H70.212V30.0682H68.6193ZM70.18 22.9091C70.18 23.4844 70.2635 23.9886 70.4304 24.4219C70.5973 24.8551 70.8388 25.1942 71.1548 25.4393C71.4709 25.6808 71.8579 25.8015 72.316 25.8015C72.7919 25.8015 73.1896 25.6754 73.5092 25.4233C73.8288 25.1676 74.0703 24.8214 74.2336 24.3846C74.4006 23.9478 74.484 23.456 74.484 22.9091C74.484 22.3693 74.4023 21.8846 74.239 21.4549C74.0792 21.0252 73.8377 20.6861 73.5145 20.4375C73.1949 20.1889 72.7954 20.0646 72.316 20.0646C71.8544 20.0646 71.4638 20.1836 71.1442 20.4215C70.8281 20.6594 70.5884 20.9915 70.4251 21.4176C70.2617 21.8437 70.18 22.3409 70.18 22.9091ZM81.2534 27.1651C80.4473 27.1651 79.753 26.9929 79.1706 26.6484C78.5918 26.3004 78.1444 25.8121 77.8283 25.1836C77.5158 24.5515 77.3596 23.8111 77.3596 22.9624C77.3596 22.1243 77.5158 21.3857 77.8283 20.7464C78.1444 20.1072 78.5847 19.6083 79.1493 19.2496C79.7175 18.891 80.3816 18.7116 81.1415 18.7116C81.6032 18.7116 82.0506 18.788 82.4839 18.9407C82.9171 19.0934 83.3059 19.3331 83.6504 19.6598C83.9949 19.9865 84.2665 20.4109 84.4654 20.9329C84.6643 21.4513 84.7637 22.0817 84.7637 22.8239V23.3885H78.2598V22.1953H83.203C83.203 21.7763 83.1177 21.4052 82.9473 21.082C82.7768 20.7553 82.5371 20.4979 82.2282 20.3097C81.9228 20.1214 81.5641 20.0273 81.1522 20.0273C80.7047 20.0273 80.3141 20.1374 79.9803 20.3576C79.6501 20.5742 79.3944 20.8583 79.2133 21.2099C79.0357 21.5579 78.9469 21.9361 78.9469 22.3445V23.2766C78.9469 23.8235 79.0428 24.2887 79.2346 24.6722C79.4299 25.0558 79.7015 25.3487 80.0496 25.5511C80.3976 25.75 80.8042 25.8494 81.2694 25.8494C81.5712 25.8494 81.8464 25.8068 82.095 25.7216C82.3436 25.6328 82.5584 25.5014 82.7395 25.3274C82.9206 25.1534 83.0591 24.9386 83.155 24.6829L84.6625 24.9545C84.5417 25.3984 84.3251 25.7873 84.0126 26.1211C83.7037 26.4513 83.3148 26.7088 82.8461 26.8935C82.3809 27.0746 81.85 27.1651 81.2534 27.1651ZM85.8961 24.8374H87.5261C87.5474 25.1712 87.6983 25.4286 87.9788 25.6097C88.2629 25.7908 88.6305 25.8814 89.0815 25.8814C89.5396 25.8814 89.9302 25.7837 90.2533 25.5884C90.5765 25.3896 90.7381 25.0824 90.7381 24.6669C90.7381 24.4183 90.6759 24.2017 90.5516 24.017C90.4309 23.8288 90.2587 23.6832 90.0349 23.5803C89.8148 23.4773 89.5538 23.4258 89.2519 23.4258H87.9202V22.174H89.2519C89.7029 22.174 90.0403 22.071 90.264 21.8651C90.4877 21.6591 90.5996 21.4016 90.5996 21.0927C90.5996 20.7589 90.4788 20.4908 90.2374 20.2884C89.9994 20.0824 89.6674 19.9794 89.2413 19.9794C88.808 19.9794 88.4476 20.0771 88.1599 20.2724C87.8723 20.4641 87.7214 20.7127 87.7072 21.0181H86.0985C86.1092 20.56 86.2477 20.1587 86.514 19.8143C86.7839 19.4663 87.1461 19.1964 87.6006 19.0046C88.0587 18.8093 88.579 18.7116 89.1614 18.7116C89.7686 18.7116 90.2942 18.8093 90.7381 19.0046C91.182 19.1999 91.5246 19.4698 91.7661 19.8143C92.0112 20.1587 92.1337 20.5547 92.1337 21.0021C92.1337 21.4531 91.9987 21.8224 91.7288 22.1101C91.4625 22.3942 91.1145 22.5984 90.6848 22.7227V22.8079C91.0009 22.8292 91.2814 22.9251 91.5264 23.0955C91.7715 23.266 91.9632 23.4915 92.1017 23.772C92.2402 24.0526 92.3094 24.3704 92.3094 24.7255C92.3094 25.2262 92.171 25.6594 91.894 26.0252C91.6205 26.391 91.2406 26.6733 90.7541 26.8722C90.2711 27.0675 89.7189 27.1651 89.0974 27.1651C88.4938 27.1651 87.9522 27.071 87.4728 26.8828C86.9969 26.6911 86.6188 26.4212 86.3382 26.0732C86.0612 25.7251 85.9139 25.3132 85.8961 24.8374ZM96.1851 27.1811C95.6666 27.1811 95.1979 27.0852 94.7789 26.8935C94.3598 26.6982 94.0278 26.4158 93.7828 26.0465C93.5413 25.6772 93.4205 25.2244 93.4205 24.6882C93.4205 24.2266 93.5093 23.8466 93.6869 23.5483C93.8644 23.25 94.1041 23.0138 94.406 22.8398C94.7078 22.6658 95.0452 22.5344 95.4181 22.4457C95.7909 22.3569 96.1709 22.2894 96.558 22.2433C97.048 22.1864 97.4458 22.1403 97.7512 22.1048C98.0566 22.0657 98.2785 22.0036 98.417 21.9183C98.5555 21.8331 98.6247 21.6946 98.6247 21.5028V21.4656C98.6247 21.0004 98.4933 20.6399 98.2306 20.3842C97.9713 20.1286 97.5843 20.0007 97.0693 20.0007C96.5331 20.0007 96.1105 20.1197 95.8016 20.3576C95.4962 20.592 95.2849 20.853 95.1677 21.1406L93.6709 20.7997C93.8485 20.3026 94.1077 19.9013 94.4486 19.5959C94.7931 19.2869 95.189 19.0632 95.6365 18.9247C96.0839 18.7827 96.5544 18.7116 97.048 18.7116C97.3747 18.7116 97.721 18.7507 98.0867 18.8288C98.4561 18.9034 98.8005 19.0419 99.1201 19.2443C99.4433 19.4467 99.7078 19.7362 99.9138 20.1126C100.12 20.4854 100.223 20.9702 100.223 21.5668V27H98.6673V25.8814H98.6034C98.5004 26.0874 98.346 26.2898 98.14 26.4886C97.934 26.6875 97.6695 26.8526 97.3463 26.984C97.0232 27.1154 96.6361 27.1811 96.1851 27.1811ZM96.5313 25.9027C96.9717 25.9027 97.3481 25.8157 97.6606 25.6417C97.9767 25.4677 98.2164 25.2404 98.3797 24.9599C98.5466 24.6758 98.6301 24.3722 98.6301 24.049V22.9943C98.5732 23.0511 98.4632 23.1044 98.2998 23.1541C98.14 23.2003 97.9571 23.2411 97.7512 23.2766C97.5452 23.3086 97.3445 23.3388 97.1492 23.3672C96.9539 23.392 96.7906 23.4134 96.6592 23.4311C96.3502 23.4702 96.0679 23.5359 95.8122 23.6282C95.5601 23.7205 95.3577 23.8537 95.205 24.0277C95.0558 24.1982 94.9813 24.4254 94.9813 24.7095C94.9813 25.1037 95.1269 25.402 95.4181 25.6044C95.7093 25.8033 96.0803 25.9027 96.5313 25.9027ZM107.425 18.8182V20.1925H103.765V27H102.194V18.8182H107.425ZM108.958 30.0682V18.8182H110.514V20.1445H110.647C110.739 19.9741 110.872 19.777 111.046 19.5533C111.22 19.3295 111.462 19.1342 111.771 18.9673C112.08 18.7969 112.488 18.7116 112.996 18.7116C113.656 18.7116 114.246 18.8786 114.764 19.2124C115.283 19.5462 115.689 20.0273 115.984 20.6559C116.282 21.2844 116.432 22.0408 116.432 22.9251C116.432 23.8093 116.284 24.5675 115.989 25.1996C115.695 25.8281 115.29 26.3129 114.775 26.6538C114.26 26.9911 113.672 27.1598 113.012 27.1598C112.515 27.1598 112.108 27.0763 111.792 26.9094C111.479 26.7425 111.234 26.5472 111.057 26.3235C110.879 26.0998 110.743 25.9009 110.647 25.7269H110.551V30.0682H108.958ZM110.519 22.9091C110.519 23.4844 110.602 23.9886 110.769 24.4219C110.936 24.8551 111.178 25.1942 111.494 25.4393C111.81 25.6808 112.197 25.8015 112.655 25.8015C113.131 25.8015 113.528 25.6754 113.848 25.4233C114.168 25.1676 114.409 24.8214 114.573 24.3846C114.739 23.9478 114.823 23.456 114.823 22.9091C114.823 22.3693 114.741 21.8846 114.578 21.4549C114.418 21.0252 114.177 20.6861 113.853 20.4375C113.534 20.1889 113.134 20.0646 112.655 20.0646C112.193 20.0646 111.803 20.1836 111.483 20.4215C111.167 20.6594 110.927 20.9915 110.764 21.4176C110.601 21.8437 110.519 22.3409 110.519 22.9091ZM118.794 30.0682C118.556 30.0682 118.34 30.0487 118.145 30.0096C117.949 29.9741 117.804 29.935 117.708 29.8924L118.091 28.5874C118.382 28.6655 118.642 28.6992 118.869 28.6886C119.096 28.6779 119.297 28.5927 119.471 28.4329C119.648 28.2731 119.805 28.0121 119.94 27.6499L120.137 27.1065L117.143 18.8182H118.848L120.92 25.1676H121.005L123.077 18.8182H124.787L121.415 28.092C121.259 28.5181 121.06 28.8786 120.819 29.1733C120.577 29.4716 120.289 29.6953 119.956 29.8445C119.622 29.9936 119.235 30.0682 118.794 30.0682ZM125.649 24.8374H127.279C127.3 25.1712 127.451 25.4286 127.732 25.6097C128.016 25.7908 128.383 25.8814 128.834 25.8814C129.292 25.8814 129.683 25.7837 130.006 25.5884C130.329 25.3896 130.491 25.0824 130.491 24.6669C130.491 24.4183 130.429 24.2017 130.305 24.017C130.184 23.8288 130.012 23.6832 129.788 23.5803C129.568 23.4773 129.307 23.4258 129.005 23.4258H127.673V22.174H129.005C129.456 22.174 129.793 22.071 130.017 21.8651C130.241 21.6591 130.353 21.4016 130.353 21.0927C130.353 20.7589 130.232 20.4908 129.99 20.2884C129.752 20.0824 129.42 19.9794 128.994 19.9794C128.561 19.9794 128.201 20.0771 127.913 20.2724C127.625 20.4641 127.474 20.7127 127.46 21.0181H125.851C125.862 20.56 126.001 20.1587 126.267 19.8143C126.537 19.4663 126.899 19.1964 127.354 19.0046C127.812 18.8093 128.332 18.7116 128.914 18.7116C129.522 18.7116 130.047 18.8093 130.491 19.0046C130.935 19.1999 131.278 19.4698 131.519 19.8143C131.764 20.1587 131.887 20.5547 131.887 21.0021C131.887 21.4531 131.752 21.8224 131.482 22.1101C131.215 22.3942 130.867 22.5984 130.438 22.7227V22.8079C130.754 22.8292 131.034 22.9251 131.279 23.0955C131.524 23.266 131.716 23.4915 131.855 23.772C131.993 24.0526 132.062 24.3704 132.062 24.7255C132.062 25.2262 131.924 25.6594 131.647 26.0252C131.373 26.391 130.993 26.6733 130.507 26.8722C130.024 27.0675 129.472 27.1651 128.85 27.1651C128.247 27.1651 127.705 27.071 127.226 26.8828C126.75 26.6911 126.372 26.4212 126.091 26.0732C125.814 25.7251 125.667 25.3132 125.649 24.8374ZM135.118 24.7681L138.724 18.8182H140.439V27H138.878V21.0447L135.288 27H133.557V18.8182H135.118V24.7681ZM141.416 20.1925V18.8182H148.319V20.1925H145.65V27H144.095V20.1925H141.416ZM151.052 21.6307H153.428C154.429 21.6307 155.2 21.8793 155.74 22.3764C156.279 22.8736 156.549 23.5146 156.549 24.2994C156.549 24.8107 156.429 25.2706 156.187 25.679C155.946 26.0874 155.592 26.4105 155.127 26.6484C154.662 26.8828 154.096 27 153.428 27H149.854V18.8182H151.414V25.6257H153.428C153.886 25.6257 154.262 25.5067 154.557 25.2688C154.852 25.0273 154.999 24.7202 154.999 24.3473C154.999 23.9531 154.852 23.6317 154.557 23.3832C154.262 23.131 153.886 23.005 153.428 23.005H151.052V21.6307ZM162.005 27V18.8182H163.598V22.2486H164.365L167.065 18.8182H169.036L165.867 22.7972L169.073 27H167.097L164.631 23.7294H163.598V27H162.005ZM173.27 27.1651C172.503 27.1651 171.834 26.9893 171.262 26.6378C170.69 26.2862 170.246 25.7944 169.93 25.1623C169.614 24.5302 169.456 23.7915 169.456 22.9464C169.456 22.0977 169.614 21.3555 169.93 20.7198C170.246 20.0842 170.69 19.5906 171.262 19.239C171.834 18.8874 172.503 18.7116 173.27 18.7116C174.037 18.7116 174.706 18.8874 175.278 19.239C175.85 19.5906 176.294 20.0842 176.61 20.7198C176.926 21.3555 177.084 22.0977 177.084 22.9464C177.084 23.7915 176.926 24.5302 176.61 25.1623C176.294 25.7944 175.85 26.2862 175.278 26.6378C174.706 26.9893 174.037 27.1651 173.27 27.1651ZM173.275 25.8281C173.772 25.8281 174.184 25.6967 174.511 25.4339C174.838 25.1712 175.079 24.8214 175.236 24.3846C175.395 23.9478 175.475 23.4666 175.475 22.9411C175.475 22.419 175.395 21.9396 175.236 21.5028C175.079 21.0625 174.838 20.7092 174.511 20.4428C174.184 20.1765 173.772 20.0433 173.275 20.0433C172.775 20.0433 172.359 20.1765 172.029 20.4428C171.702 20.7092 171.459 21.0625 171.299 21.5028C171.143 21.9396 171.065 22.419 171.065 22.9411C171.065 23.4666 171.143 23.9478 171.299 24.3846C171.459 24.8214 171.702 25.1712 172.029 25.4339C172.359 25.6967 172.775 25.8281 173.275 25.8281ZM183.303 25.0291L185.945 18.8182H187.32L183.895 27H182.712L179.356 18.8182H180.715L183.303 25.0291ZM180.272 18.8182V27H178.712V18.8182H180.272ZM186.377 27V18.8182H187.927V27H186.377ZM194.491 25.0291L197.133 18.8182H198.508L195.082 27H193.9L190.544 18.8182H191.902L194.491 25.0291ZM191.46 18.8182V27H189.9V18.8182H191.46ZM197.565 27V18.8182H199.115V27H197.565ZM201.801 30.0682C201.563 30.0682 201.347 30.0487 201.151 30.0096C200.956 29.9741 200.81 29.935 200.715 29.8924L201.098 28.5874C201.389 28.6655 201.649 28.6992 201.876 28.6886C202.103 28.6779 202.304 28.5927 202.478 28.4329C202.655 28.2731 202.812 28.0121 202.946 27.6499L203.144 27.1065L200.15 18.8182H201.855L203.927 25.1676H204.012L206.084 18.8182H207.794L204.422 28.092C204.266 28.5181 204.067 28.8786 203.825 29.1733C203.584 29.4716 203.296 29.6953 202.962 29.8445C202.629 29.9936 202.242 30.0682 201.801 30.0682ZM208.682 20.1925V18.8182H215.586V20.1925H212.917V27H211.362V20.1925H208.682ZM219.121 27.1811C218.602 27.1811 218.133 27.0852 217.714 26.8935C217.295 26.6982 216.963 26.4158 216.718 26.0465C216.477 25.6772 216.356 25.2244 216.356 24.6882C216.356 24.2266 216.445 23.8466 216.622 23.5483C216.8 23.25 217.04 23.0138 217.342 22.8398C217.643 22.6658 217.981 22.5344 218.354 22.4457C218.726 22.3569 219.106 22.2894 219.494 22.2433C219.984 22.1864 220.381 22.1403 220.687 22.1048C220.992 22.0657 221.214 22.0036 221.353 21.9183C221.491 21.8331 221.56 21.6946 221.56 21.5028V21.4656C221.56 21.0004 221.429 20.6399 221.166 20.3842C220.907 20.1286 220.52 20.0007 220.005 20.0007C219.469 20.0007 219.046 20.1197 218.737 20.3576C218.432 20.592 218.22 20.853 218.103 21.1406L216.606 20.7997C216.784 20.3026 217.043 19.9013 217.384 19.5959C217.729 19.2869 218.125 19.0632 218.572 18.9247C219.019 18.7827 219.49 18.7116 219.984 18.7116C220.31 18.7116 220.657 18.7507 221.022 18.8288C221.392 18.9034 221.736 19.0419 222.056 19.2443C222.379 19.4467 222.643 19.7362 222.849 20.1126C223.055 20.4854 223.158 20.9702 223.158 21.5668V27H221.603V25.8814H221.539C221.436 26.0874 221.282 26.2898 221.076 26.4886C220.87 26.6875 220.605 26.8526 220.282 26.984C219.959 27.1154 219.572 27.1811 219.121 27.1811ZM219.467 25.9027C219.907 25.9027 220.284 25.8157 220.596 25.6417C220.912 25.4677 221.152 25.2404 221.315 24.9599C221.482 24.6758 221.566 24.3722 221.566 24.049V22.9943C221.509 23.0511 221.399 23.1044 221.235 23.1541C221.076 23.2003 220.893 23.2411 220.687 23.2766C220.481 23.3086 220.28 23.3388 220.085 23.3672C219.889 23.392 219.726 23.4134 219.595 23.4311C219.286 23.4702 219.003 23.5359 218.748 23.6282C218.496 23.7205 218.293 23.8537 218.141 24.0277C217.991 24.1982 217.917 24.4254 217.917 24.7095C217.917 25.1037 218.062 25.402 218.354 25.6044C218.645 25.8033 219.016 25.9027 219.467 25.9027ZM224.115 20.1925V18.8182H231.018V20.1925H228.35V27H226.794V20.1925H224.115ZM235.618 27.1651C234.851 27.1651 234.182 26.9893 233.61 26.6378C233.039 26.2862 232.595 25.7944 232.279 25.1623C231.963 24.5302 231.804 23.7915 231.804 22.9464C231.804 22.0977 231.963 21.3555 232.279 20.7198C232.595 20.0842 233.039 19.5906 233.61 19.239C234.182 18.8874 234.851 18.7116 235.618 18.7116C236.385 18.7116 237.055 18.8874 237.627 19.239C238.198 19.5906 238.642 20.0842 238.958 20.7198C239.274 21.3555 239.432 22.0977 239.432 22.9464C239.432 23.7915 239.274 24.5302 238.958 25.1623C238.642 25.7944 238.198 26.2862 237.627 26.6378C237.055 26.9893 236.385 27.1651 235.618 27.1651ZM235.624 25.8281C236.121 25.8281 236.533 25.6967 236.86 25.4339C237.186 25.1712 237.428 24.8214 237.584 24.3846C237.744 23.9478 237.824 23.4666 237.824 22.9411C237.824 22.419 237.744 21.9396 237.584 21.5028C237.428 21.0625 237.186 20.7092 236.86 20.4428C236.533 20.1765 236.121 20.0433 235.624 20.0433C235.123 20.0433 234.708 20.1765 234.377 20.4428C234.051 20.7092 233.807 21.0625 233.648 21.5028C233.491 21.9396 233.413 22.419 233.413 22.9411C233.413 23.4666 233.491 23.9478 233.648 24.3846C233.807 24.8214 234.051 25.1712 234.377 25.4339C234.708 25.6967 235.123 25.8281 235.624 25.8281ZM241.06 30.0682V18.8182H242.616V20.1445H242.749C242.841 19.9741 242.974 19.777 243.148 19.5533C243.322 19.3295 243.564 19.1342 243.873 18.9673C244.182 18.7969 244.59 18.7116 245.098 18.7116C245.758 18.7116 246.348 18.8786 246.866 19.2124C247.385 19.5462 247.791 20.0273 248.086 20.6559C248.384 21.2844 248.533 22.0408 248.533 22.9251C248.533 23.8093 248.386 24.5675 248.091 25.1996C247.797 25.8281 247.392 26.3129 246.877 26.6538C246.362 26.9911 245.774 27.1598 245.114 27.1598C244.617 27.1598 244.21 27.0763 243.894 26.9094C243.581 26.7425 243.336 26.5472 243.159 26.3235C242.981 26.0998 242.845 25.9009 242.749 25.7269H242.653V30.0682H241.06ZM242.621 22.9091C242.621 23.4844 242.704 23.9886 242.871 24.4219C243.038 24.8551 243.28 25.1942 243.596 25.4393C243.912 25.6808 244.299 25.8015 244.757 25.8015C245.233 25.8015 245.63 25.6754 245.95 25.4233C246.27 25.1676 246.511 24.8214 246.674 24.3846C246.841 23.9478 246.925 23.456 246.925 22.9091C246.925 22.3693 246.843 21.8846 246.68 21.4549C246.52 21.0252 246.279 20.6861 245.955 20.4375C245.636 20.1889 245.236 20.0646 244.757 20.0646C244.295 20.0646 243.905 20.1836 243.585 20.4215C243.269 20.6594 243.029 20.9915 242.866 21.4176C242.703 21.8437 242.621 22.3409 242.621 22.9091Z" fill="#221E1E" style="fill:#221E1E;fill:color(display-p3 0.1333 0.1183 0.1183);fill-opacity:1;"/>
<mask id="mask1_1304_237681" style="mask-type:alpha" maskUnits="userSpaceOnUse" x="352" y="10" width="24" height="24">
<rect x="352" y="10" width="24" height="24" fill="#D9D9D9" style="fill:#D9D9D9;fill:color(display-p3 0.8510 0.8510 0.8510);fill-opacity:1;"/>
</mask>
<g mask="url(#mask1_1304_237681)">
<path d="M363 29.9C361.267 29.6667 359.833 28.8957 358.7 27.587C357.567 26.279 357 24.75 357 23C357 22.0667 357.183 21.1707 357.55 20.312C357.917 19.454 358.425 18.7 359.075 18.05L359.8 18.75C359.2 19.3167 358.75 19.9627 358.45 20.688C358.15 21.4127 358 22.1833 358 23C358 24.4667 358.471 25.754 359.413 26.862C360.354 27.9707 361.55 28.65 363 28.9V29.9ZM365 29.95V28.95C366.433 28.6333 367.625 27.925 368.575 26.825C369.525 25.725 370 24.45 370 23C370 21.3333 369.417 19.9167 368.25 18.75C367.083 17.5833 365.667 17 364 17H363.375L364.975 18.6L364.25 19.3L361.45 16.5L364.25 13.7L364.975 14.4L363.375 16H364C365.95 16 367.604 16.679 368.962 18.037C370.321 19.3957 371 21.05 371 23C371 24.75 370.429 26.2707 369.288 27.562C368.146 28.854 366.717 29.65 365 29.95Z" fill="black" fill-opacity="0.76" style="fill:black;fill-opacity:0.76;"/>
</g>
</svg>
