<svg width="386" height="44" viewBox="0 0 386 44" fill="none" xmlns="http://www.w3.org/2000/svg">
<mask id="mask0_1304_237683" style="mask-type:alpha" maskUnits="userSpaceOnUse" x="16" y="10" width="24" height="24">
<rect x="16" y="10" width="24" height="24" fill="#D9D9D9" style="fill:#D9D9D9;fill:color(display-p3 0.8510 0.8510 0.8510);fill-opacity:1;"/>
</mask>
<g mask="url(#mask0_1304_237683)">
<path d="M26.6258 26.075H23.0008C21.8674 26.075 20.9051 25.679 20.1138 24.887C19.3218 24.0957 18.9258 23.1333 18.9258 22C18.9258 20.8667 19.3218 19.9043 20.1138 19.113C20.9051 18.321 21.8674 17.925 23.0008 17.925H26.6258V18.925H23.0008C22.1508 18.925 21.4258 19.225 20.8258 19.825C20.2258 20.425 19.9258 21.15 19.9258 22C19.9258 22.85 20.2258 23.575 20.8258 24.175C21.4258 24.775 22.1508 25.075 23.0008 25.075H26.6258V26.075ZM24.5008 22.5V21.5H31.5008V22.5H24.5008ZM29.3758 26.075V25.075H33.0008C33.8508 25.075 34.5758 24.775 35.1758 24.175C35.7758 23.575 36.0758 22.85 36.0758 22C36.0758 21.15 35.7758 20.425 35.1758 19.825C34.5758 19.225 33.8508 18.925 33.0008 18.925H29.3758V17.925H33.0008C34.1341 17.925 35.0968 18.321 35.8888 19.113C36.6801 19.9043 37.0758 20.8667 37.0758 22C37.0758 23.1333 36.6801 24.0957 35.8888 24.887C35.0968 25.679 34.1341 26.075 33.0008 26.075H29.3758Z" fill="black" fill-opacity="0.76" style="fill:black;fill-opacity:0.76;"/>
</g>
<path d="M57.7266 16.0909V27H56.0859V17.4972H50.951V27H49.3104V16.0909H57.7266ZM63.4919 27.1651C62.6858 27.1651 61.9915 26.9929 61.4091 26.6484C60.8303 26.3004 60.3828 25.8121 60.0668 25.1836C59.7543 24.5515 59.598 23.8111 59.598 22.9624C59.598 22.1243 59.7543 21.3857 60.0668 20.7464C60.3828 20.1072 60.8232 19.6083 61.3878 19.2496C61.956 18.891 62.6201 18.7116 63.38 18.7116C63.8417 18.7116 64.2891 18.788 64.7223 18.9407C65.1556 19.0934 65.5444 19.3331 65.8889 19.6598C66.2333 19.9865 66.505 20.4109 66.7039 20.9329C66.9027 21.4513 67.0022 22.0817 67.0022 22.8239V23.3885H60.4983V22.1953H65.4414C65.4414 21.7763 65.3562 21.4052 65.1858 21.082C65.0153 20.7553 64.7756 20.4979 64.4667 20.3097C64.1613 20.1214 63.8026 20.0273 63.3907 20.0273C62.9432 20.0273 62.5526 20.1374 62.2188 20.3576C61.8885 20.5742 61.6328 20.8583 61.4517 21.2099C61.2742 21.5579 61.1854 21.9361 61.1854 22.3445V23.2766C61.1854 23.8235 61.2813 24.2887 61.473 24.6722C61.6684 25.0558 61.94 25.3487 62.288 25.5511C62.636 25.75 63.0426 25.8494 63.5078 25.8494C63.8097 25.8494 64.0849 25.8068 64.3335 25.7216C64.5821 25.6328 64.7969 25.5014 64.978 25.3274C65.1591 25.1534 65.2976 24.9386 65.3935 24.6829L66.901 24.9545C66.7802 25.3984 66.5636 25.7873 66.2511 26.1211C65.9422 26.4513 65.5533 26.7088 65.0846 26.8935C64.6194 27.0746 64.0885 27.1651 63.4919 27.1651ZM68.6193 30.0682V18.8182H70.1747V20.1445H70.3079C70.4002 19.9741 70.5334 19.777 70.7074 19.5533C70.8814 19.3295 71.1229 19.1342 71.4318 18.9673C71.7408 18.7969 72.1491 18.7116 72.6569 18.7116C73.3175 18.7116 73.9069 18.8786 74.4254 19.2124C74.9439 19.5462 75.3505 20.0273 75.6452 20.6559C75.9435 21.2844 76.0927 22.0408 76.0927 22.9251C76.0927 23.8093 75.9453 24.5675 75.6506 25.1996C75.3558 25.8281 74.951 26.3129 74.4361 26.6538C73.9211 26.9911 73.3334 27.1598 72.6729 27.1598C72.1758 27.1598 71.7692 27.0763 71.4531 26.9094C71.1406 26.7425 70.8956 26.5472 70.718 26.3235C70.5405 26.0998 70.4037 25.9009 70.3079 25.7269H70.212V30.0682H68.6193ZM70.18 22.9091C70.18 23.4844 70.2635 23.9886 70.4304 24.4219C70.5973 24.8551 70.8388 25.1942 71.1548 25.4393C71.4709 25.6808 71.8579 25.8015 72.316 25.8015C72.7919 25.8015 73.1896 25.6754 73.5092 25.4233C73.8288 25.1676 74.0703 24.8214 74.2336 24.3846C74.4006 23.9478 74.484 23.456 74.484 22.9091C74.484 22.3693 74.4023 21.8846 74.239 21.4549C74.0792 21.0252 73.8377 20.6861 73.5145 20.4375C73.1949 20.1889 72.7954 20.0646 72.316 20.0646C71.8544 20.0646 71.4638 20.1836 71.1442 20.4215C70.8281 20.6594 70.5884 20.9915 70.4251 21.4176C70.2617 21.8437 70.18 22.3409 70.18 22.9091ZM81.2534 27.1651C80.4473 27.1651 79.753 26.9929 79.1706 26.6484C78.5918 26.3004 78.1444 25.8121 77.8283 25.1836C77.5158 24.5515 77.3596 23.8111 77.3596 22.9624C77.3596 22.1243 77.5158 21.3857 77.8283 20.7464C78.1444 20.1072 78.5847 19.6083 79.1493 19.2496C79.7175 18.891 80.3816 18.7116 81.1415 18.7116C81.6032 18.7116 82.0506 18.788 82.4839 18.9407C82.9171 19.0934 83.3059 19.3331 83.6504 19.6598C83.9949 19.9865 84.2665 20.4109 84.4654 20.9329C84.6643 21.4513 84.7637 22.0817 84.7637 22.8239V23.3885H78.2598V22.1953H83.203C83.203 21.7763 83.1177 21.4052 82.9473 21.082C82.7768 20.7553 82.5371 20.4979 82.2282 20.3097C81.9228 20.1214 81.5641 20.0273 81.1522 20.0273C80.7047 20.0273 80.3141 20.1374 79.9803 20.3576C79.6501 20.5742 79.3944 20.8583 79.2133 21.2099C79.0357 21.5579 78.9469 21.9361 78.9469 22.3445V23.2766C78.9469 23.8235 79.0428 24.2887 79.2346 24.6722C79.4299 25.0558 79.7015 25.3487 80.0496 25.5511C80.3976 25.75 80.8042 25.8494 81.2694 25.8494C81.5712 25.8494 81.8464 25.8068 82.095 25.7216C82.3436 25.6328 82.5584 25.5014 82.7395 25.3274C82.9206 25.1534 83.0591 24.9386 83.155 24.6829L84.6625 24.9545C84.5417 25.3984 84.3251 25.7873 84.0126 26.1211C83.7037 26.4513 83.3148 26.7088 82.8461 26.8935C82.3809 27.0746 81.85 27.1651 81.2534 27.1651ZM91.9259 22.2219V23.6016H87.4941V22.2219H91.9259ZM87.9415 18.8182V27H86.3808V18.8182H87.9415ZM93.0392 18.8182V27H91.4838V18.8182H93.0392ZM98.5462 27.1651C97.7401 27.1651 97.0458 26.9929 96.4634 26.6484C95.8846 26.3004 95.4371 25.8121 95.1211 25.1836C94.8086 24.5515 94.6523 23.8111 94.6523 22.9624C94.6523 22.1243 94.8086 21.3857 95.1211 20.7464C95.4371 20.1072 95.8775 19.6083 96.4421 19.2496C97.0103 18.891 97.6744 18.7116 98.4343 18.7116C98.896 18.7116 99.3434 18.788 99.7766 18.9407C100.21 19.0934 100.599 19.3331 100.943 19.6598C101.288 19.9865 101.559 20.4109 101.758 20.9329C101.957 21.4513 102.056 22.0817 102.056 22.8239V23.3885H95.5526V22.1953H100.496C100.496 21.7763 100.411 21.4052 100.24 21.082C100.07 20.7553 99.8299 20.4979 99.521 20.3097C99.2156 20.1214 98.8569 20.0273 98.445 20.0273C97.9975 20.0273 97.6069 20.1374 97.2731 20.3576C96.9428 20.5742 96.6871 20.8583 96.506 21.2099C96.3285 21.5579 96.2397 21.9361 96.2397 22.3445V23.2766C96.2397 23.8235 96.3356 24.2887 96.5273 24.6722C96.7227 25.0558 96.9943 25.3487 97.3423 25.5511C97.6903 25.75 98.0969 25.8494 98.5621 25.8494C98.864 25.8494 99.1392 25.8068 99.3878 25.7216C99.6364 25.6328 99.8512 25.5014 100.032 25.3274C100.213 25.1534 100.352 24.9386 100.448 24.6829L101.955 24.9545C101.835 25.3984 101.618 25.7873 101.305 26.1211C100.996 26.4513 100.608 26.7088 100.139 26.8935C99.6737 27.0746 99.1428 27.1651 98.5462 27.1651ZM107.12 27.1651C106.328 27.1651 105.646 26.9858 105.075 26.6271C104.506 26.2649 104.07 25.766 103.764 25.1303C103.459 24.4947 103.306 23.7667 103.306 22.9464C103.306 22.1154 103.462 21.3821 103.775 20.7464C104.087 20.1072 104.528 19.6083 105.096 19.2496C105.664 18.891 106.333 18.7116 107.104 18.7116C107.725 18.7116 108.279 18.8271 108.766 19.0579C109.252 19.2852 109.645 19.6048 109.943 20.0167C110.245 20.4286 110.424 20.9098 110.481 21.4602H108.931C108.846 21.0767 108.651 20.7464 108.345 20.4695C108.043 20.1925 107.638 20.054 107.131 20.054C106.687 20.054 106.298 20.1712 105.964 20.4055C105.634 20.6364 105.376 20.9666 105.192 21.3963C105.007 21.8224 104.915 22.3267 104.915 22.9091C104.915 23.5057 105.005 24.0206 105.186 24.4538C105.367 24.8871 105.623 25.2227 105.953 25.4606C106.287 25.6985 106.68 25.8175 107.131 25.8175C107.432 25.8175 107.706 25.7624 107.951 25.6523C108.2 25.5387 108.407 25.3771 108.574 25.1676C108.745 24.9581 108.864 24.706 108.931 24.4112H110.481C110.424 24.9403 110.252 25.4126 109.964 25.8281C109.677 26.2436 109.291 26.5703 108.809 26.8082C108.329 27.0462 107.766 27.1651 107.12 27.1651ZM111.415 20.1925V18.8182H118.319V20.1925H115.65V27H114.094V20.1925H111.415ZM121.414 24.7681L125.02 18.8182H126.735V27H125.174V21.0447L121.584 27H119.853V18.8182H121.414V24.7681ZM131.747 29.3597V25.6204H132.413C132.584 25.4641 132.727 25.2777 132.845 25.0611C132.965 24.8445 133.066 24.587 133.148 24.2887C133.233 23.9904 133.304 23.6424 133.361 23.2447C133.418 22.8434 133.468 22.3853 133.51 21.8704L133.766 18.8182H139.327V25.6204H140.584V29.3597H139.029V27H133.324V29.3597H131.747ZM134.118 25.6204H137.772V20.1818H135.194L135.023 21.8704C134.941 22.7298 134.839 23.4755 134.714 24.1076C134.59 24.7362 134.391 25.2404 134.118 25.6204ZM144.372 27.1811C143.854 27.1811 143.385 27.0852 142.966 26.8935C142.547 26.6982 142.215 26.4158 141.97 26.0465C141.728 25.6772 141.607 25.2244 141.607 24.6882C141.607 24.2266 141.696 23.8466 141.874 23.5483C142.051 23.25 142.291 23.0138 142.593 22.8398C142.895 22.6658 143.232 22.5344 143.605 22.4457C143.978 22.3569 144.358 22.2894 144.745 22.2433C145.235 22.1864 145.633 22.1403 145.938 22.1048C146.243 22.0657 146.465 22.0036 146.604 21.9183C146.742 21.8331 146.812 21.6946 146.812 21.5028V21.4656C146.812 21.0004 146.68 20.6399 146.417 20.3842C146.158 20.1286 145.771 20.0007 145.256 20.0007C144.72 20.0007 144.297 20.1197 143.988 20.3576C143.683 20.592 143.472 20.853 143.355 21.1406L141.858 20.7997C142.035 20.3026 142.295 19.9013 142.636 19.5959C142.98 19.2869 143.376 19.0632 143.823 18.9247C144.271 18.7827 144.741 18.7116 145.235 18.7116C145.562 18.7116 145.908 18.7507 146.274 18.8288C146.643 18.9034 146.987 19.0419 147.307 19.2443C147.63 19.4467 147.895 19.7362 148.101 20.1126C148.307 20.4854 148.41 20.9702 148.41 21.5668V27H146.854V25.8814H146.79C146.687 26.0874 146.533 26.2898 146.327 26.4886C146.121 26.6875 145.856 26.8526 145.533 26.984C145.21 27.1154 144.823 27.1811 144.372 27.1811ZM144.718 25.9027C145.159 25.9027 145.535 25.8157 145.848 25.6417C146.164 25.4677 146.403 25.2404 146.567 24.9599C146.734 24.6758 146.817 24.3722 146.817 24.049V22.9943C146.76 23.0511 146.65 23.1044 146.487 23.1541C146.327 23.2003 146.144 23.2411 145.938 23.2766C145.732 23.3086 145.531 23.3388 145.336 23.3672C145.141 23.392 144.977 23.4134 144.846 23.4311C144.537 23.4702 144.255 23.5359 143.999 23.6282C143.747 23.7205 143.545 23.8537 143.392 24.0277C143.243 24.1982 143.168 24.4254 143.168 24.7095C143.168 25.1037 143.314 25.402 143.605 25.6044C143.896 25.8033 144.267 25.9027 144.718 25.9027ZM155.926 22.2219V23.6016H151.494V22.2219H155.926ZM151.942 18.8182V27H150.381V18.8182H151.942ZM157.039 18.8182V27H155.484V18.8182H157.039ZM164.565 22.2219V23.6016H160.133V22.2219H164.565ZM160.581 18.8182V27H159.02V18.8182H160.581ZM165.678 18.8182V27H164.123V18.8182H165.678ZM168.858 21.6307H171.233C172.235 21.6307 173.005 21.8793 173.545 22.3764C174.085 22.8736 174.355 23.5146 174.355 24.2994C174.355 24.8107 174.234 25.2706 173.993 25.679C173.751 26.0874 173.398 26.4105 172.933 26.6484C172.467 26.8828 171.901 27 171.233 27H167.659V18.8182H169.22V25.6257H171.233C171.691 25.6257 172.068 25.5067 172.363 25.2688C172.657 25.0273 172.805 24.7202 172.805 24.3473C172.805 23.9531 172.657 23.6317 172.363 23.3832C172.068 23.131 171.691 23.005 171.233 23.005H168.858V21.6307ZM175.516 27V18.8182H177.109V27H175.516ZM182.622 27.1651C181.816 27.1651 181.122 26.9929 180.54 26.6484C179.961 26.3004 179.513 25.8121 179.197 25.1836C178.885 24.5515 178.729 23.8111 178.729 22.9624C178.729 22.1243 178.885 21.3857 179.197 20.7464C179.513 20.1072 179.954 19.6083 180.518 19.2496C181.086 18.891 181.751 18.7116 182.51 18.7116C182.972 18.7116 183.42 18.788 183.853 18.9407C184.286 19.0934 184.675 19.3331 185.019 19.6598C185.364 19.9865 185.635 20.4109 185.834 20.9329C186.033 21.4513 186.133 22.0817 186.133 22.8239V23.3885H179.629V22.1953H184.572C184.572 21.7763 184.487 21.4052 184.316 21.082C184.146 20.7553 183.906 20.4979 183.597 20.3097C183.292 20.1214 182.933 20.0273 182.521 20.0273C182.074 20.0273 181.683 20.1374 181.349 20.3576C181.019 20.5742 180.763 20.8583 180.582 21.2099C180.405 21.5579 180.316 21.9361 180.316 22.3445V23.2766C180.316 23.8235 180.412 24.2887 180.604 24.6722C180.799 25.0558 181.07 25.3487 181.419 25.5511C181.767 25.75 182.173 25.8494 182.638 25.8494C182.94 25.8494 183.215 25.8068 183.464 25.7216C183.713 25.6328 183.927 25.5014 184.108 25.3274C184.29 25.1534 184.428 24.9386 184.524 24.6829L186.031 24.9545C185.911 25.3984 185.694 25.7873 185.382 26.1211C185.073 26.4513 184.684 26.7088 184.215 26.8935C183.75 27.0746 183.219 27.1651 182.622 27.1651Z" fill="#221E1E" style="fill:#221E1E;fill:color(display-p3 0.1333 0.1183 0.1183);fill-opacity:1;"/>
<mask id="mask1_1304_237683" style="mask-type:alpha" maskUnits="userSpaceOnUse" x="352" y="10" width="24" height="24">
<rect x="352" y="10" width="24" height="24" fill="#D9D9D9" style="fill:#D9D9D9;fill:color(display-p3 0.8510 0.8510 0.8510);fill-opacity:1;"/>
</mask>
<g mask="url(#mask1_1304_237683)">
<path d="M366.792 20L366 19.2075L370.075 15.1321H366.34V14H372V19.6604H370.868V15.9245L366.792 20Z" fill="black" fill-opacity="0.76" style="fill:black;fill-opacity:0.76;"/>
<path d="M356 30V24.3396H357.132V28.0755L361.208 24L362 24.7925L357.925 28.8679H361.66V30H356Z" fill="black" fill-opacity="0.76" style="fill:black;fill-opacity:0.76;"/>
</g>
</svg>
