<svg width="386" height="44" viewBox="0 0 386 44" fill="none" xmlns="http://www.w3.org/2000/svg">
<mask id="mask0_1304_237684" style="mask-type:alpha" maskUnits="userSpaceOnUse" x="16" y="10" width="24" height="24">
<rect x="16" y="10" width="24" height="24" fill="#D9D9D9" style="fill:#D9D9D9;fill:color(display-p3 0.8510 0.8510 0.8510);fill-opacity:1;"/>
</mask>
<g mask="url(#mask0_1304_237684)">
<path d="M21 30.5C20.85 30.5 20.7293 30.4543 20.638 30.363C20.546 30.271 20.5 30.15 20.5 30V28.875H19.5V25.375C19.5 25.2417 19.546 25.125 19.638 25.025C19.7293 24.925 19.85 24.875 20 24.875H21.5V17C21.5 16.0333 21.8417 15.2083 22.525 14.525C23.2083 13.8417 24.0333 13.5 25 13.5C25.9667 13.5 26.7917 13.8417 27.475 14.525C28.1583 15.2083 28.5 16.0333 28.5 17V27C28.5 27.7 28.7417 28.2917 29.225 28.775C29.7083 29.2583 30.3 29.5 31 29.5C31.7 29.5 32.2917 29.2583 32.775 28.775C33.2583 28.2917 33.5 27.7 33.5 27V19.125H32C31.85 19.125 31.729 19.075 31.637 18.975C31.5457 18.875 31.5 18.7583 31.5 18.625V15.125H32.5V14C32.5 13.85 32.546 13.729 32.638 13.637C32.7293 13.5457 32.85 13.5 33 13.5H35C35.15 13.5 35.271 13.5457 35.363 13.637C35.4543 13.729 35.5 13.85 35.5 14V15.125H36.5V18.625C36.5 18.7583 36.4543 18.875 36.363 18.975C36.271 19.075 36.15 19.125 36 19.125H34.5V27C34.5 27.9667 34.1583 28.7917 33.475 29.475C32.7917 30.1583 31.9667 30.5 31 30.5C30.0333 30.5 29.2083 30.1583 28.525 29.475C27.8417 28.7917 27.5 27.9667 27.5 27V17C27.5 16.3 27.2583 15.7083 26.775 15.225C26.2917 14.7417 25.7 14.5 25 14.5C24.3 14.5 23.7083 14.7417 23.225 15.225C22.7417 15.7083 22.5 16.3 22.5 17V24.875H24C24.15 24.875 24.271 24.925 24.363 25.025C24.4543 25.125 24.5 25.2417 24.5 25.375V28.875H23.5V30C23.5 30.15 23.4543 30.271 23.363 30.363C23.271 30.4543 23.15 30.5 23 30.5H21Z" fill="black" fill-opacity="0.76" style="fill:black;fill-opacity:0.76;"/>
</g>
<path d="M55.6705 27L52.0057 22.1101H50.8445V27H49.1985V16.0909H50.8445V20.6985H51.3825L55.5053 16.0909H57.5135L53.1509 20.9755L57.6786 27H55.6705ZM61.3066 27.1811C60.7881 27.1811 60.3194 27.0852 59.9003 26.8935C59.4813 26.6982 59.1493 26.4158 58.9042 26.0465C58.6628 25.6772 58.542 25.2244 58.542 24.6882C58.542 24.2266 58.6308 23.8466 58.8084 23.5483C58.9859 23.25 59.2256 23.0138 59.5275 22.8398C59.8293 22.6658 60.1667 22.5344 60.5395 22.4457C60.9124 22.3569 61.2924 22.2894 61.6795 22.2433C62.1695 22.1864 62.5672 22.1403 62.8726 22.1048C63.178 22.0657 63.4 22.0036 63.5385 21.9183C63.677 21.8331 63.7462 21.6946 63.7462 21.5028V21.4656C63.7462 21.0004 63.6148 20.6399 63.352 20.3842C63.0928 20.1286 62.7057 20.0007 62.1908 20.0007C61.6546 20.0007 61.232 20.1197 60.9231 20.3576C60.6177 20.592 60.4064 20.853 60.2892 21.1406L58.7924 20.7997C58.9699 20.3026 59.2292 19.9013 59.5701 19.5959C59.9145 19.2869 60.3105 19.0632 60.7579 18.9247C61.2054 18.7827 61.6759 18.7116 62.1695 18.7116C62.4962 18.7116 62.8425 18.7507 63.2082 18.8288C63.5775 18.9034 63.922 19.0419 64.2416 19.2443C64.5648 19.4467 64.8293 19.7362 65.0353 20.1126C65.2412 20.4854 65.3442 20.9702 65.3442 21.5668V27H63.7888V25.8814H63.7249C63.6219 26.0874 63.4675 26.2898 63.2615 26.4886C63.0555 26.6875 62.791 26.8526 62.4678 26.984C62.1447 27.1154 61.7576 27.1811 61.3066 27.1811ZM61.6528 25.9027C62.0932 25.9027 62.4696 25.8157 62.7821 25.6417C63.0981 25.4677 63.3378 25.2404 63.5012 24.9599C63.6681 24.6758 63.7515 24.3722 63.7515 24.049V22.9943C63.6947 23.0511 63.5846 23.1044 63.4213 23.1541C63.2615 23.2003 63.0786 23.2411 62.8726 23.2766C62.6667 23.3086 62.466 23.3388 62.2707 23.3672C62.0754 23.392 61.9121 23.4134 61.7807 23.4311C61.4717 23.4702 61.1894 23.5359 60.9337 23.6282C60.6816 23.7205 60.4792 23.8537 60.3265 24.0277C60.1773 24.1982 60.1028 24.4254 60.1028 24.7095C60.1028 25.1037 60.2483 25.402 60.5395 25.6044C60.8307 25.8033 61.2018 25.9027 61.6528 25.9027ZM73.6277 15.7713L74.2882 16.7781C74.0432 17.0018 73.7645 17.1616 73.452 17.2575C73.143 17.3498 72.7861 17.4084 72.3813 17.4332C71.9765 17.4545 71.513 17.4741 70.991 17.4918C70.4015 17.5096 69.9168 17.6374 69.5368 17.8754C69.1569 18.1097 68.8639 18.4577 68.6579 18.9194C68.4555 19.3775 68.3241 19.9528 68.2637 20.6452H68.365C68.6313 20.1374 69.0006 19.7575 69.4729 19.5053C69.9488 19.2532 70.4832 19.1271 71.0762 19.1271C71.7368 19.1271 72.3245 19.2781 72.8394 19.5799C73.3543 19.8817 73.7591 20.3239 74.0539 20.9062C74.3522 21.4851 74.5013 22.1935 74.5013 23.0316C74.5013 23.8803 74.3451 24.6136 74.0326 25.2315C73.7236 25.8494 73.2868 26.3271 72.7222 26.6644C72.1611 26.9982 71.4988 27.1651 70.7353 27.1651C69.9718 27.1651 69.306 26.9929 68.7378 26.6484C68.1732 26.3004 67.7346 25.7855 67.4221 25.1037C67.1132 24.4219 66.9587 23.5803 66.9587 22.5788V21.7692C66.9587 19.8977 67.2925 18.4897 67.9601 17.5451C68.6277 16.6005 69.6256 16.1158 70.9537 16.0909C71.3834 16.0803 71.7669 16.0785 72.1043 16.0856C72.4417 16.0891 72.7364 16.0732 72.9885 16.0376C73.2442 15.9986 73.4573 15.9098 73.6277 15.7713ZM70.7407 25.8281C71.1846 25.8281 71.5663 25.7163 71.8859 25.4925C72.2091 25.2653 72.4576 24.9439 72.6316 24.5284C72.8056 24.1129 72.8927 23.6229 72.8927 23.0582C72.8927 22.5043 72.8056 22.0337 72.6316 21.6467C72.4576 21.2596 72.2091 20.9648 71.8859 20.7624C71.5627 20.5565 71.1757 20.4535 70.7247 20.4535C70.3909 20.4535 70.0926 20.5121 69.8298 20.6293C69.567 20.7429 69.3415 20.9116 69.1533 21.1353C68.9686 21.359 68.8248 21.6325 68.7218 21.9556C68.6224 22.2752 68.5691 22.6428 68.562 23.0582C68.562 23.9034 68.7556 24.5763 69.1427 25.0771C69.5333 25.5778 70.0659 25.8281 70.7407 25.8281ZM79.6567 27.1651C78.8506 27.1651 78.1564 26.9929 77.574 26.6484C76.9951 26.3004 76.5477 25.8121 76.2316 25.1836C75.9191 24.5515 75.7629 23.8111 75.7629 22.9624C75.7629 22.1243 75.9191 21.3857 76.2316 20.7464C76.5477 20.1072 76.988 19.6083 77.5527 19.2496C78.1208 18.891 78.7849 18.7116 79.5449 18.7116C80.0065 18.7116 80.4539 18.788 80.8872 18.9407C81.3204 19.0934 81.7093 19.3331 82.0537 19.6598C82.3982 19.9865 82.6699 20.4109 82.8687 20.9329C83.0676 21.4513 83.167 22.0817 83.167 22.8239V23.3885H76.6631V22.1953H81.6063C81.6063 21.7763 81.5211 21.4052 81.3506 21.082C81.1801 20.7553 80.9404 20.4979 80.6315 20.3097C80.3261 20.1214 79.9674 20.0273 79.5555 20.0273C79.1081 20.0273 78.7174 20.1374 78.3836 20.3576C78.0534 20.5742 77.7977 20.8583 77.6166 21.2099C77.439 21.5579 77.3502 21.9361 77.3502 22.3445V23.2766C77.3502 23.8235 77.4461 24.2887 77.6379 24.6722C77.8332 25.0558 78.1049 25.3487 78.4529 25.5511C78.8009 25.75 79.2075 25.8494 79.6727 25.8494C79.9745 25.8494 80.2498 25.8068 80.4983 25.7216C80.7469 25.6328 80.9618 25.5014 81.1429 25.3274C81.324 25.1534 81.4625 24.9386 81.5583 24.6829L83.0658 24.9545C82.9451 25.3984 82.7284 25.7873 82.4159 26.1211C82.107 26.4513 81.7181 26.7088 81.2494 26.8935C80.7842 27.0746 80.2533 27.1651 79.6567 27.1651ZM84.1396 27L84.1343 25.6204H84.4273C84.6545 25.6204 84.8445 25.5724 84.9972 25.4766C85.1535 25.3771 85.2813 25.2102 85.3807 24.9759C85.4802 24.7415 85.5565 24.4183 85.6098 24.0064C85.6631 23.5909 85.7021 23.0689 85.727 22.4403L85.8708 18.8182H91.581V27H90.0203V20.1925H87.3463L87.2184 22.973C87.1865 23.6477 87.1172 24.2372 87.0107 24.7415C86.9077 25.2457 86.7568 25.6665 86.5579 26.0039C86.3591 26.3377 86.1034 26.5881 85.7909 26.755C85.4784 26.9183 85.0984 27 84.651 27H84.1396ZM94.7536 21.6307H97.1293C98.1307 21.6307 98.9013 21.8793 99.4411 22.3764C99.9808 22.8736 100.251 23.5146 100.251 24.2994C100.251 24.8107 100.13 25.2706 99.8885 25.679C99.647 26.0874 99.2937 26.4105 98.8285 26.6484C98.3633 26.8828 97.7969 27 97.1293 27H93.555V18.8182H95.1158V25.6257H97.1293C97.5874 25.6257 97.9638 25.5067 98.2585 25.2688C98.5533 25.0273 98.7006 24.7202 98.7006 24.3473C98.7006 23.9531 98.5533 23.6317 98.2585 23.3832C97.9638 23.131 97.5874 23.005 97.1293 23.005H94.7536V21.6307ZM105.248 20.1925V18.8182H112.152V20.1925H109.483V27H107.927V20.1925H105.248ZM116.832 27.1651C116.025 27.1651 115.331 26.9929 114.749 26.6484C114.17 26.3004 113.722 25.8121 113.406 25.1836C113.094 24.5515 112.938 23.8111 112.938 22.9624C112.938 22.1243 113.094 21.3857 113.406 20.7464C113.722 20.1072 114.163 19.6083 114.727 19.2496C115.296 18.891 115.96 18.7116 116.72 18.7116C117.181 18.7116 117.629 18.788 118.062 18.9407C118.495 19.0934 118.884 19.3331 119.229 19.6598C119.573 19.9865 119.845 20.4109 120.044 20.9329C120.242 21.4513 120.342 22.0817 120.342 22.8239V23.3885H113.838V22.1953H118.781C118.781 21.7763 118.696 21.4052 118.525 21.082C118.355 20.7553 118.115 20.4979 117.806 20.3097C117.501 20.1214 117.142 20.0273 116.73 20.0273C116.283 20.0273 115.892 20.1374 115.558 20.3576C115.228 20.5742 114.972 20.8583 114.791 21.2099C114.614 21.5579 114.525 21.9361 114.525 22.3445V23.2766C114.525 23.8235 114.621 24.2887 114.813 24.6722C115.008 25.0558 115.28 25.3487 115.628 25.5511C115.976 25.75 116.382 25.8494 116.847 25.8494C117.149 25.8494 117.425 25.8068 117.673 25.7216C117.922 25.6328 118.137 25.5014 118.318 25.3274C118.499 25.1534 118.637 24.9386 118.733 24.6829L120.241 24.9545C120.12 25.3984 119.903 25.7873 119.591 26.1211C119.282 26.4513 118.893 26.7088 118.424 26.8935C117.959 27.0746 117.428 27.1651 116.832 27.1651ZM125.405 27.1651C124.613 27.1651 123.932 26.9858 123.36 26.6271C122.792 26.2649 122.355 25.766 122.05 25.1303C121.744 24.4947 121.591 23.7667 121.591 22.9464C121.591 22.1154 121.748 21.3821 122.06 20.7464C122.373 20.1072 122.813 19.6083 123.381 19.2496C123.949 18.891 124.619 18.7116 125.389 18.7116C126.011 18.7116 126.565 18.8271 127.051 19.0579C127.538 19.2852 127.93 19.6048 128.228 20.0167C128.53 20.4286 128.71 20.9098 128.766 21.4602H127.216C127.131 21.0767 126.936 20.7464 126.63 20.4695C126.329 20.1925 125.924 20.054 125.416 20.054C124.972 20.054 124.583 20.1712 124.249 20.4055C123.919 20.6364 123.662 20.9666 123.477 21.3963C123.292 21.8224 123.2 22.3267 123.2 22.9091C123.2 23.5057 123.291 24.0206 123.472 24.4538C123.653 24.8871 123.909 25.2227 124.239 25.4606C124.573 25.6985 124.965 25.8175 125.416 25.8175C125.718 25.8175 125.991 25.7624 126.236 25.6523C126.485 25.5387 126.693 25.3771 126.86 25.1676C127.03 24.9581 127.149 24.706 127.216 24.4112H128.766C128.71 24.9403 128.537 25.4126 128.25 25.8281C127.962 26.2436 127.577 26.5703 127.094 26.8082C126.614 27.0462 126.052 27.1651 125.405 27.1651ZM129.7 20.1925V18.8182H136.604V20.1925H133.935V27H132.38V20.1925H129.7Z" fill="#221E1E" style="fill:#221E1E;fill:color(display-p3 0.1333 0.1183 0.1183);fill-opacity:1;"/>
<mask id="mask1_1304_237684" style="mask-type:alpha" maskUnits="userSpaceOnUse" x="352" y="10" width="24" height="24">
<rect x="352" y="10" width="24" height="24" fill="#D9D9D9" style="fill:#D9D9D9;fill:color(display-p3 0.8510 0.8510 0.8510);fill-opacity:1;"/>
</mask>
<g mask="url(#mask1_1304_237684)">
<path d="M366.792 20L366 19.2075L370.075 15.1321H366.34V14H372V19.6604H370.868V15.9245L366.792 20Z" fill="black" fill-opacity="0.76" style="fill:black;fill-opacity:0.76;"/>
<path d="M356 30V24.3396H357.132V28.0755L361.208 24L362 24.7925L357.925 28.8679H361.66V30H356Z" fill="black" fill-opacity="0.76" style="fill:black;fill-opacity:0.76;"/>
</g>
</svg>
