<svg width="386" height="44" viewBox="0 0 386 44" fill="none" xmlns="http://www.w3.org/2000/svg">
<mask id="mask0_1304_237685" style="mask-type:alpha" maskUnits="userSpaceOnUse" x="16" y="10" width="24" height="24">
<rect x="16" y="10" width="24" height="24" fill="#D9D9D9" style="fill:#D9D9D9;fill:color(display-p3 0.8510 0.8510 0.8510);fill-opacity:1;"/>
</mask>
<g mask="url(#mask0_1304_237685)">
<path d="M26.7504 31.775L26.0504 31.05L28.3754 28.725H23.7004C23.6004 29.1583 23.3714 29.5167 23.0134 29.8C22.6547 30.0833 22.2421 30.225 21.7754 30.225C21.2087 30.225 20.7337 30.0333 20.3504 29.65C19.9671 29.2667 19.7754 28.7917 19.7754 28.225C19.7754 27.7583 19.9171 27.3457 20.2004 26.987C20.4837 26.629 20.8421 26.4 21.2754 26.3V17.7C20.8421 17.6 20.4837 17.3707 20.2004 17.012C19.9171 16.654 19.7754 16.2417 19.7754 15.775C19.7754 15.2083 19.9671 14.7333 20.3504 14.35C20.7337 13.9667 21.2087 13.775 21.7754 13.775C22.2421 13.775 22.6547 13.9167 23.0134 14.2C23.3714 14.4833 23.6004 14.8417 23.7004 15.275H28.3754L26.0504 12.95L26.7504 12.225L30.3004 15.775L26.7504 19.3L26.0504 18.6L28.3754 16.275H23.7004C23.6004 16.625 23.4254 16.925 23.1754 17.175C22.9254 17.425 22.6254 17.6 22.2754 17.7V26.3C22.6254 26.4 22.9254 26.575 23.1754 26.825C23.4254 27.075 23.6004 27.375 23.7004 27.725H28.3754L26.0504 25.4L26.7504 24.7L30.3004 28.225L26.7504 31.775ZM34.2254 30.225C33.6754 30.225 33.2044 30.0333 32.8124 29.65C32.4211 29.2667 32.2254 28.7917 32.2254 28.225C32.2254 27.7583 32.3671 27.3457 32.6504 26.987C32.9337 26.629 33.2921 26.4 33.7254 26.3V17.7C33.2921 17.6 32.9337 17.3707 32.6504 17.012C32.3671 16.654 32.2254 16.2417 32.2254 15.775C32.2254 15.2083 32.4211 14.7333 32.8124 14.35C33.2044 13.9667 33.6754 13.775 34.2254 13.775C34.7754 13.775 35.2464 13.9667 35.6384 14.35C36.0297 14.7333 36.2254 15.2083 36.2254 15.775C36.2254 16.2417 36.0837 16.654 35.8004 17.012C35.5171 17.3707 35.1587 17.6 34.7254 17.7V26.3C35.1587 26.4 35.5171 26.629 35.8004 26.987C36.0837 27.3457 36.2254 27.7583 36.2254 28.225C36.2254 28.7917 36.0337 29.2667 35.6504 29.65C35.2671 30.0333 34.7921 30.225 34.2254 30.225ZM21.7754 29.225C22.0587 29.225 22.2964 29.1293 22.4884 28.938C22.6797 28.746 22.7754 28.5083 22.7754 28.225C22.7754 27.9417 22.6797 27.7043 22.4884 27.513C22.2964 27.321 22.0587 27.225 21.7754 27.225C21.4921 27.225 21.2544 27.321 21.0624 27.513C20.8711 27.7043 20.7754 27.9417 20.7754 28.225C20.7754 28.5083 20.8711 28.746 21.0624 28.938C21.2544 29.1293 21.4921 29.225 21.7754 29.225ZM34.2254 29.225C34.5087 29.225 34.7464 29.1293 34.9384 28.938C35.1297 28.746 35.2254 28.5083 35.2254 28.225C35.2254 27.9417 35.1297 27.7043 34.9384 27.513C34.7464 27.321 34.5087 27.225 34.2254 27.225C33.9421 27.225 33.7047 27.321 33.5134 27.513C33.3214 27.7043 33.2254 27.9417 33.2254 28.225C33.2254 28.5083 33.3214 28.746 33.5134 28.938C33.7047 29.1293 33.9421 29.225 34.2254 29.225ZM21.7754 16.775C22.0587 16.775 22.2964 16.679 22.4884 16.487C22.6797 16.2957 22.7754 16.0583 22.7754 15.775C22.7754 15.4917 22.6797 15.254 22.4884 15.062C22.2964 14.8707 22.0587 14.775 21.7754 14.775C21.4921 14.775 21.2544 14.8707 21.0624 15.062C20.8711 15.254 20.7754 15.4917 20.7754 15.775C20.7754 16.0583 20.8711 16.2957 21.0624 16.487C21.2544 16.679 21.4921 16.775 21.7754 16.775ZM34.2254 16.775C34.5087 16.775 34.7464 16.679 34.9384 16.487C35.1297 16.2957 35.2254 16.0583 35.2254 15.775C35.2254 15.4917 35.1297 15.254 34.9384 15.062C34.7464 14.8707 34.5087 14.775 34.2254 14.775C33.9421 14.775 33.7047 14.8707 33.5134 15.062C33.3214 15.254 33.2254 15.4917 33.2254 15.775C33.2254 16.0583 33.3214 16.2957 33.5134 16.487C33.7047 16.679 33.9421 16.775 34.2254 16.775Z" fill="black" fill-opacity="0.76" style="fill:black;fill-opacity:0.76;"/>
</g>
<path d="M58.6747 21.5455C58.6747 22.7102 58.4616 23.7116 58.0355 24.5497C57.6094 25.3842 57.0252 26.027 56.283 26.478C55.5444 26.9254 54.7045 27.1491 53.7635 27.1491C52.8189 27.1491 51.9755 26.9254 51.2333 26.478C50.4947 26.027 49.9123 25.3825 49.4862 24.5444C49.06 23.7063 48.8469 22.7067 48.8469 21.5455C48.8469 20.3807 49.06 19.381 49.4862 18.5465C49.9123 17.7085 50.4947 17.0657 51.2333 16.6183C51.9755 16.1673 52.8189 15.9418 53.7635 15.9418C54.7045 15.9418 55.5444 16.1673 56.283 16.6183C57.0252 17.0657 57.6094 17.7085 58.0355 18.5465C58.4616 19.381 58.6747 20.3807 58.6747 21.5455ZM57.0447 21.5455C57.0447 20.6577 56.9009 19.9102 56.6133 19.3029C56.3292 18.6921 55.9386 18.2305 55.4414 17.918C54.9478 17.6019 54.3885 17.4439 53.7635 17.4439C53.1349 17.4439 52.5739 17.6019 52.0803 17.918C51.5866 18.2305 51.196 18.6921 50.9084 19.3029C50.6243 19.9102 50.4822 20.6577 50.4822 21.5455C50.4822 22.4332 50.6243 23.1825 50.9084 23.7933C51.196 24.4006 51.5866 24.8622 52.0803 25.1783C52.5739 25.4908 53.1349 25.647 53.7635 25.647C54.3885 25.647 54.9478 25.4908 55.4414 25.1783C55.9386 24.8622 56.3292 24.4006 56.6133 23.7933C56.9009 23.1825 57.0447 22.4332 57.0447 21.5455ZM67.0168 18.8182V27H65.4614V18.8182H67.0168ZM66.3403 22.6161V23.9904C66.0953 24.0898 65.8361 24.1786 65.5626 24.2567C65.2892 24.3313 65.0015 24.3899 64.6997 24.4325C64.3979 24.4751 64.0836 24.4964 63.7569 24.4964C62.7448 24.4964 61.9405 24.2496 61.3439 23.756C60.7473 23.2589 60.449 22.4989 60.449 21.4762V18.8022H61.9991V21.4762C61.9991 21.8633 62.0701 22.1776 62.2121 22.419C62.3542 22.6605 62.5566 22.8381 62.8194 22.9517C63.0822 23.0653 63.3947 23.1222 63.7569 23.1222C64.2363 23.1222 64.6784 23.0778 65.0832 22.989C65.4916 22.8967 65.9106 22.7724 66.3403 22.6161ZM70.5462 24.7681L74.1524 18.8182H75.8676V27H74.3069V21.0447L70.7167 27H68.9855V18.8182H70.5462V24.7681ZM81.3053 27.1651C80.5134 27.1651 79.8316 26.9858 79.2599 26.6271C78.6917 26.2649 78.2549 25.766 77.9495 25.1303C77.6441 24.4947 77.4914 23.7667 77.4914 22.9464C77.4914 22.1154 77.6477 21.3821 77.9602 20.7464C78.2727 20.1072 78.713 19.6083 79.2812 19.2496C79.8494 18.891 80.5187 18.7116 81.2893 18.7116C81.9108 18.7116 82.4648 18.8271 82.9513 19.0579C83.4378 19.2852 83.8302 19.6048 84.1285 20.0167C84.4303 20.4286 84.6097 20.9098 84.6665 21.4602H83.1164C83.0312 21.0767 82.8359 20.7464 82.5305 20.4695C82.2286 20.1925 81.8238 20.054 81.316 20.054C80.8721 20.054 80.4832 20.1712 80.1494 20.4055C79.8192 20.6364 79.5617 20.9666 79.3771 21.3963C79.1924 21.8224 79.1001 22.3267 79.1001 22.9091C79.1001 23.5057 79.1906 24.0206 79.3717 24.4538C79.5528 24.8871 79.8085 25.2227 80.1388 25.4606C80.4726 25.6985 80.865 25.8175 81.316 25.8175C81.6178 25.8175 81.8913 25.7624 82.1363 25.6523C82.3849 25.5387 82.5926 25.3771 82.7595 25.1676C82.93 24.9581 83.0489 24.706 83.1164 24.4112H84.6665C84.6097 24.9403 84.4374 25.4126 84.1498 25.8281C83.8621 26.2436 83.4768 26.5703 82.9939 26.8082C82.5145 27.0462 81.9516 27.1651 81.3053 27.1651ZM85.6005 20.1925V18.8182H92.5039V20.1925H89.8352V27H88.2798V20.1925H85.6005ZM95.5992 24.7681L99.2053 18.8182H100.921V27H99.3598V21.0447L95.7696 27H94.0384V18.8182H95.5992V24.7681ZM101.897 20.1925V18.8182H108.801V20.1925H106.132V27H104.576V20.1925H101.897ZM111.534 21.6307H113.909C114.911 21.6307 115.681 21.8793 116.221 22.3764C116.761 22.8736 117.031 23.5146 117.031 24.2994C117.031 24.8107 116.91 25.2706 116.669 25.679C116.427 26.0874 116.074 26.4105 115.609 26.6484C115.143 26.8828 114.577 27 113.909 27H110.335V18.8182H111.896V25.6257H113.909C114.367 25.6257 114.744 25.5067 115.039 25.2688C115.333 25.0273 115.481 24.7202 115.481 24.3473C115.481 23.9531 115.333 23.6317 115.039 23.3832C114.744 23.131 114.367 23.005 113.909 23.005H111.534V21.6307ZM125.933 27.1651C125.141 27.1651 124.459 26.9858 123.887 26.6271C123.319 26.2649 122.882 25.766 122.577 25.1303C122.271 24.4947 122.119 23.7667 122.119 22.9464C122.119 22.1154 122.275 21.3821 122.588 20.7464C122.9 20.1072 123.34 19.6083 123.909 19.2496C124.477 18.891 125.146 18.7116 125.917 18.7116C126.538 18.7116 127.092 18.8271 127.579 19.0579C128.065 19.2852 128.458 19.6048 128.756 20.0167C129.058 20.4286 129.237 20.9098 129.294 21.4602H127.744C127.659 21.0767 127.463 20.7464 127.158 20.4695C126.856 20.1925 126.451 20.054 125.943 20.054C125.499 20.054 125.111 20.1712 124.777 20.4055C124.447 20.6364 124.189 20.9666 124.004 21.3963C123.82 21.8224 123.727 22.3267 123.727 22.9091C123.727 23.5057 123.818 24.0206 123.999 24.4538C124.18 24.8871 124.436 25.2227 124.766 25.4606C125.1 25.6985 125.492 25.8175 125.943 25.8175C126.245 25.8175 126.519 25.7624 126.764 25.6523C127.012 25.5387 127.22 25.3771 127.387 25.1676C127.557 24.9581 127.676 24.706 127.744 24.4112H129.294C129.237 24.9403 129.065 25.4126 128.777 25.8281C128.489 26.2436 128.104 26.5703 127.621 26.8082C127.142 27.0462 126.579 27.1651 125.933 27.1651ZM130.228 20.1925V18.8182H137.131V20.1925H134.463V27H132.907V20.1925H130.228ZM140.666 27.1811C140.147 27.1811 139.679 27.0852 139.26 26.8935C138.841 26.6982 138.509 26.4158 138.264 26.0465C138.022 25.6772 137.901 25.2244 137.901 24.6882C137.901 24.2266 137.99 23.8466 138.168 23.5483C138.345 23.25 138.585 23.0138 138.887 22.8398C139.189 22.6658 139.526 22.5344 139.899 22.4457C140.272 22.3569 140.652 22.2894 141.039 22.2433C141.529 22.1864 141.927 22.1403 142.232 22.1048C142.537 22.0657 142.759 22.0036 142.898 21.9183C143.036 21.8331 143.106 21.6946 143.106 21.5028V21.4656C143.106 21.0004 142.974 20.6399 142.711 20.3842C142.452 20.1286 142.065 20.0007 141.55 20.0007C141.014 20.0007 140.591 20.1197 140.282 20.3576C139.977 20.592 139.766 20.853 139.649 21.1406L138.152 20.7997C138.329 20.3026 138.589 19.9013 138.929 19.5959C139.274 19.2869 139.67 19.0632 140.117 18.9247C140.565 18.7827 141.035 18.7116 141.529 18.7116C141.856 18.7116 142.202 18.7507 142.568 18.8288C142.937 18.9034 143.281 19.0419 143.601 19.2443C143.924 19.4467 144.189 19.7362 144.395 20.1126C144.601 20.4854 144.704 20.9702 144.704 21.5668V27H143.148V25.8814H143.084C142.981 26.0874 142.827 26.2898 142.621 26.4886C142.415 26.6875 142.15 26.8526 141.827 26.984C141.504 27.1154 141.117 27.1811 140.666 27.1811ZM141.012 25.9027C141.453 25.9027 141.829 25.8157 142.141 25.6417C142.458 25.4677 142.697 25.2404 142.861 24.9599C143.027 24.6758 143.111 24.3722 143.111 24.049V22.9943C143.054 23.0511 142.944 23.1044 142.781 23.1541C142.621 23.2003 142.438 23.2411 142.232 23.2766C142.026 23.3086 141.825 23.3388 141.63 23.3672C141.435 23.392 141.271 23.4134 141.14 23.4311C140.831 23.4702 140.549 23.5359 140.293 23.6282C140.041 23.7205 139.839 23.8537 139.686 24.0277C139.537 24.1982 139.462 24.4254 139.462 24.7095C139.462 25.1037 139.608 25.402 139.899 25.6044C140.19 25.8033 140.561 25.9027 141.012 25.9027ZM145.66 20.1925V18.8182H152.564V20.1925H149.895V27H148.34V20.1925H145.66ZM155.659 24.7681L159.265 18.8182H160.98V27H159.42V21.0447L155.829 27H154.098V18.8182H155.659V24.7681ZM166.418 27.1651C165.626 27.1651 164.944 26.9858 164.373 26.6271C163.804 26.2649 163.368 25.766 163.062 25.1303C162.757 24.4947 162.604 23.7667 162.604 22.9464C162.604 22.1154 162.76 21.3821 163.073 20.7464C163.385 20.1072 163.826 19.6083 164.394 19.2496C164.962 18.891 165.631 18.7116 166.402 18.7116C167.023 18.7116 167.577 18.8271 168.064 19.0579C168.55 19.2852 168.943 19.6048 169.241 20.0167C169.543 20.4286 169.722 20.9098 169.779 21.4602H168.229C168.144 21.0767 167.949 20.7464 167.643 20.4695C167.341 20.1925 166.936 20.054 166.429 20.054C165.985 20.054 165.596 20.1712 165.262 20.4055C164.932 20.6364 164.674 20.9666 164.49 21.3963C164.305 21.8224 164.213 22.3267 164.213 22.9091C164.213 23.5057 164.303 24.0206 164.484 24.4538C164.666 24.8871 164.921 25.2227 165.251 25.4606C165.585 25.6985 165.978 25.8175 166.429 25.8175C166.731 25.8175 167.004 25.7624 167.249 25.6523C167.498 25.5387 167.705 25.3771 167.872 25.1676C168.043 24.9581 168.162 24.706 168.229 24.4112H169.779C169.722 24.9403 169.55 25.4126 169.262 25.8281C168.975 26.2436 168.59 26.5703 168.107 26.8082C167.627 27.0462 167.064 27.1651 166.418 27.1651ZM170.713 20.1925V18.8182H177.617V20.1925H174.948V27H173.392V20.1925H170.713ZM180.712 24.7681L184.318 18.8182H186.033V27H184.473V21.0447L180.882 27H179.151V18.8182H180.712V24.7681ZM188.025 27V18.8182H189.617V22.2486H190.384L193.085 18.8182H195.056L191.886 22.7972L195.093 27H193.117L190.651 23.7294H189.617V27H188.025ZM197.231 30.0682C196.993 30.0682 196.776 30.0487 196.581 30.0096C196.386 29.9741 196.24 29.935 196.144 29.8924L196.528 28.5874C196.819 28.6655 197.078 28.6992 197.306 28.6886C197.533 28.6779 197.733 28.5927 197.907 28.4329C198.085 28.2731 198.241 28.0121 198.376 27.6499L198.573 27.1065L195.58 18.8182H197.284L199.356 25.1676H199.442L201.514 18.8182H203.223L199.852 28.092C199.695 28.5181 199.497 28.8786 199.255 29.1733C199.014 29.4716 198.726 29.6953 198.392 29.8445C198.058 29.9936 197.671 30.0682 197.231 30.0682ZM208.39 27V18.8182H215.064V27H213.504V20.1925H209.94V27H208.39ZM220.49 27.1651C219.723 27.1651 219.054 26.9893 218.482 26.6378C217.91 26.2862 217.466 25.7944 217.15 25.1623C216.834 24.5302 216.676 23.7915 216.676 22.9464C216.676 22.0977 216.834 21.3555 217.15 20.7198C217.466 20.0842 217.91 19.5906 218.482 19.239C219.054 18.8874 219.723 18.7116 220.49 18.7116C221.257 18.7116 221.927 18.8874 222.498 19.239C223.07 19.5906 223.514 20.0842 223.83 20.7198C224.146 21.3555 224.304 22.0977 224.304 22.9464C224.304 23.7915 224.146 24.5302 223.83 25.1623C223.514 25.7944 223.07 26.2862 222.498 26.6378C221.927 26.9893 221.257 27.1651 220.49 27.1651ZM220.495 25.8281C220.993 25.8281 221.405 25.6967 221.731 25.4339C222.058 25.1712 222.299 24.8214 222.456 24.3846C222.615 23.9478 222.695 23.4666 222.695 22.9411C222.695 22.419 222.615 21.9396 222.456 21.5028C222.299 21.0625 222.058 20.7092 221.731 20.4428C221.405 20.1765 220.993 20.0433 220.495 20.0433C219.995 20.0433 219.579 20.1765 219.249 20.4428C218.922 20.7092 218.679 21.0625 218.519 21.5028C218.363 21.9396 218.285 22.419 218.285 22.9411C218.285 23.4666 218.363 23.9478 218.519 24.3846C218.679 24.8214 218.922 25.1712 219.249 25.4339C219.579 25.6967 219.995 25.8281 220.495 25.8281ZM225.932 30.0682V18.8182H227.487V20.1445H227.62C227.713 19.9741 227.846 19.777 228.02 19.5533C228.194 19.3295 228.435 19.1342 228.744 18.9673C229.053 18.7969 229.462 18.7116 229.969 18.7116C230.63 18.7116 231.219 18.8786 231.738 19.2124C232.256 19.5462 232.663 20.0273 232.958 20.6559C233.256 21.2844 233.405 22.0408 233.405 22.9251C233.405 23.8093 233.258 24.5675 232.963 25.1996C232.668 25.8281 232.263 26.3129 231.749 26.6538C231.234 26.9911 230.646 27.1598 229.985 27.1598C229.488 27.1598 229.082 27.0763 228.766 26.9094C228.453 26.7425 228.208 26.5472 228.031 26.3235C227.853 26.0998 227.716 25.9009 227.62 25.7269H227.524V30.0682H225.932ZM227.493 22.9091C227.493 23.4844 227.576 23.9886 227.743 24.4219C227.91 24.8551 228.151 25.1942 228.467 25.4393C228.783 25.6808 229.17 25.8015 229.629 25.8015C230.104 25.8015 230.502 25.6754 230.822 25.4233C231.141 25.1676 231.383 24.8214 231.546 24.3846C231.713 23.9478 231.796 23.456 231.796 22.9091C231.796 22.3693 231.715 21.8846 231.551 21.4549C231.392 21.0252 231.15 20.6861 230.827 20.4375C230.507 20.1889 230.108 20.0646 229.629 20.0646C229.167 20.0646 228.776 20.1836 228.457 20.4215C228.141 20.6594 227.901 20.9915 227.738 21.4176C227.574 21.8437 227.493 22.3409 227.493 22.9091ZM234.054 20.1925V18.8182H240.958V20.1925H238.289V27H236.734V20.1925H234.054ZM244.492 27.1811C243.974 27.1811 243.505 27.0852 243.086 26.8935C242.667 26.6982 242.335 26.4158 242.09 26.0465C241.849 25.6772 241.728 25.2244 241.728 24.6882C241.728 24.2266 241.817 23.8466 241.994 23.5483C242.172 23.25 242.411 23.0138 242.713 22.8398C243.015 22.6658 243.352 22.5344 243.725 22.4457C244.098 22.3569 244.478 22.2894 244.865 22.2433C245.355 22.1864 245.753 22.1403 246.058 22.1048C246.364 22.0657 246.586 22.0036 246.724 21.9183C246.863 21.8331 246.932 21.6946 246.932 21.5028V21.4656C246.932 21.0004 246.801 20.6399 246.538 20.3842C246.279 20.1286 245.891 20.0007 245.377 20.0007C244.84 20.0007 244.418 20.1197 244.109 20.3576C243.803 20.592 243.592 20.853 243.475 21.1406L241.978 20.7997C242.156 20.3026 242.415 19.9013 242.756 19.5959C243.1 19.2869 243.496 19.0632 243.944 18.9247C244.391 18.7827 244.862 18.7116 245.355 18.7116C245.682 18.7116 246.028 18.7507 246.394 18.8288C246.763 18.9034 247.108 19.0419 247.427 19.2443C247.75 19.4467 248.015 19.7362 248.221 20.1126C248.427 20.4854 248.53 20.9702 248.53 21.5668V27H246.975V25.8814H246.911C246.808 26.0874 246.653 26.2898 246.447 26.4886C246.241 26.6875 245.977 26.8526 245.654 26.984C245.33 27.1154 244.943 27.1811 244.492 27.1811ZM244.839 25.9027C245.279 25.9027 245.655 25.8157 245.968 25.6417C246.284 25.4677 246.524 25.2404 246.687 24.9599C246.854 24.6758 246.937 24.3722 246.937 24.049V22.9943C246.88 23.0511 246.77 23.1044 246.607 23.1541C246.447 23.2003 246.264 23.2411 246.058 23.2766C245.852 23.3086 245.652 23.3388 245.456 23.3672C245.261 23.392 245.098 23.4134 244.966 23.4311C244.657 23.4702 244.375 23.5359 244.119 23.6282C243.867 23.7205 243.665 23.8537 243.512 24.0277C243.363 24.1982 243.288 24.4254 243.288 24.7095C243.288 25.1037 243.434 25.402 243.725 25.6044C244.016 25.8033 244.388 25.9027 244.839 25.9027Z" fill="#221E1E" style="fill:#221E1E;fill:color(display-p3 0.1333 0.1183 0.1183);fill-opacity:1;"/>
<mask id="mask1_1304_237685" style="mask-type:alpha" maskUnits="userSpaceOnUse" x="352" y="10" width="24" height="24">
<rect x="352" y="10" width="24" height="24" fill="#D9D9D9" style="fill:#D9D9D9;fill:color(display-p3 0.8510 0.8510 0.8510);fill-opacity:1;"/>
</mask>
<g mask="url(#mask1_1304_237685)">
<path d="M361 27.2V16.8L369.15 22L361 27.2ZM362 25.35L367.3 22L362 18.65V25.35Z" fill="black" fill-opacity="0.76" style="fill:black;fill-opacity:0.76;"/>
</g>
</svg>
