<svg width="386" height="44" viewBox="0 0 386 44" fill="none" xmlns="http://www.w3.org/2000/svg">
<mask id="mask0_1304_237686" style="mask-type:alpha" maskUnits="userSpaceOnUse" x="16" y="10" width="24" height="24">
<rect x="16" y="10" width="24" height="24" fill="#D9D9D9" style="fill:#D9D9D9;fill:color(display-p3 0.8510 0.8510 0.8510);fill-opacity:1;"/>
</mask>
<g mask="url(#mask0_1304_237686)">
<path d="M27.5 25.3H28.5V20.625L30.6 22.7L31.3 22L28 18.7L24.7 22L25.4 22.7L27.5 20.625V25.3ZM23.625 30C23.1583 30 22.771 29.846 22.463 29.538C22.1543 29.2293 22 28.8417 22 28.375V16H21V15H25V14.225H31V15H35V16H34V28.375C34 28.8417 33.846 29.2293 33.538 29.538C33.2293 29.846 32.8417 30 32.375 30H23.625ZM33 16H23V28.375C23 28.5417 23.0627 28.6873 23.188 28.812C23.3127 28.9373 23.4583 29 23.625 29H32.375C32.5417 29 32.6873 28.9373 32.812 28.812C32.9373 28.6873 33 28.5417 33 28.375V16ZM23 16V29V28.375V16Z" fill="black" fill-opacity="0.76" style="fill:black;fill-opacity:0.76;"/>
</g>
<path d="M58.2592 19.6385H56.5973C56.5334 19.2834 56.4144 18.9709 56.2404 18.701C56.0664 18.4311 55.8533 18.2021 55.6012 18.0138C55.3491 17.8256 55.0668 17.6836 54.7543 17.5877C54.4453 17.4918 54.1168 17.4439 53.7688 17.4439C53.1403 17.4439 52.5774 17.6019 52.0803 17.918C51.5866 18.234 51.196 18.6974 50.9084 19.3082C50.6243 19.919 50.4822 20.6648 50.4822 21.5455C50.4822 22.4332 50.6243 23.1825 50.9084 23.7933C51.196 24.4041 51.5884 24.8658 52.0856 25.1783C52.5827 25.4908 53.142 25.647 53.7635 25.647C54.108 25.647 54.4347 25.6009 54.7436 25.5085C55.0561 25.4126 55.3384 25.2724 55.5906 25.0877C55.8427 24.9031 56.0558 24.6776 56.2298 24.4112C56.4073 24.1413 56.5298 23.8324 56.5973 23.4844L58.2592 23.4897C58.1705 24.0259 57.9982 24.5195 57.7425 24.9705C57.4904 25.418 57.1655 25.805 56.7678 26.1317C56.3736 26.4549 55.9226 26.7053 55.4148 26.8828C54.907 27.0604 54.353 27.1491 53.7528 27.1491C52.8082 27.1491 51.9666 26.9254 51.228 26.478C50.4893 26.027 49.907 25.3825 49.4808 24.5444C49.0582 23.7063 48.8469 22.7067 48.8469 21.5455C48.8469 20.3807 49.06 19.381 49.4862 18.5465C49.9123 17.7085 50.4947 17.0657 51.2333 16.6183C51.9719 16.1673 52.8118 15.9418 53.7528 15.9418C54.3317 15.9418 54.8714 16.0252 55.3722 16.1921C55.8764 16.3555 56.3292 16.5969 56.7305 16.9165C57.1317 17.2326 57.4638 17.6197 57.7266 18.0778C57.9893 18.5323 58.1669 19.0526 58.2592 19.6385ZM66.2631 15.7713L66.9236 16.7781C66.6786 17.0018 66.3998 17.1616 66.0873 17.2575C65.7784 17.3498 65.4215 17.4084 65.0166 17.4332C64.6118 17.4545 64.1484 17.4741 63.6264 17.4918C63.0369 17.5096 62.5521 17.6374 62.1722 17.8754C61.7922 18.1097 61.4992 18.4577 61.2933 18.9194C61.0909 19.3775 60.9595 19.9528 60.8991 20.6452H61.0003C61.2666 20.1374 61.636 19.7575 62.1083 19.5053C62.5841 19.2532 63.1186 19.1271 63.7116 19.1271C64.3721 19.1271 64.9598 19.2781 65.4747 19.5799C65.9896 19.8817 66.3945 20.3239 66.6892 20.9062C66.9875 21.4851 67.1367 22.1935 67.1367 23.0316C67.1367 23.8803 66.9804 24.6136 66.6679 25.2315C66.359 25.8494 65.9222 26.3271 65.3575 26.6644C64.7965 26.9982 64.1342 27.1651 63.3707 27.1651C62.6072 27.1651 61.9414 26.9929 61.3732 26.6484C60.8085 26.3004 60.37 25.7855 60.0575 25.1037C59.7485 24.4219 59.5941 23.5803 59.5941 22.5788V21.7692C59.5941 19.8977 59.9279 18.4897 60.5955 17.5451C61.2631 16.6005 62.261 16.1158 63.5891 16.0909C64.0188 16.0803 64.4023 16.0785 64.7396 16.0856C65.077 16.0891 65.3718 16.0732 65.6239 16.0376C65.8796 15.9986 66.0926 15.9098 66.2631 15.7713ZM63.376 25.8281C63.8199 25.8281 64.2017 25.7163 64.5213 25.4925C64.8444 25.2653 65.093 24.9439 65.267 24.5284C65.441 24.1129 65.528 23.6229 65.528 23.0582C65.528 22.5043 65.441 22.0337 65.267 21.6467C65.093 21.2596 64.8444 20.9648 64.5213 20.7624C64.1981 20.5565 63.811 20.4535 63.36 20.4535C63.0262 20.4535 62.7279 20.5121 62.4651 20.6293C62.2024 20.7429 61.9769 20.9116 61.7887 21.1353C61.604 21.359 61.4602 21.6325 61.3572 21.9556C61.2578 22.2752 61.2045 22.6428 61.1974 23.0582C61.1974 23.9034 61.3909 24.5763 61.778 25.0771C62.1686 25.5778 62.7013 25.8281 63.376 25.8281ZM68.7658 30.0682V18.8182H70.3212V20.1445H70.4544C70.5467 19.9741 70.6798 19.777 70.8539 19.5533C71.0279 19.3295 71.2693 19.1342 71.5783 18.9673C71.8872 18.7969 72.2956 18.7116 72.8034 18.7116C73.4639 18.7116 74.0534 18.8786 74.5719 19.2124C75.0904 19.5462 75.497 20.0273 75.7917 20.6559C76.09 21.2844 76.2392 22.0408 76.2392 22.9251C76.2392 23.8093 76.0918 24.5675 75.797 25.1996C75.5023 25.8281 75.0975 26.3129 74.5825 26.6538C74.0676 26.9911 73.4799 27.1598 72.8194 27.1598C72.3222 27.1598 71.9156 27.0763 71.5996 26.9094C71.2871 26.7425 71.0421 26.5472 70.8645 26.3235C70.687 26.0998 70.5502 25.9009 70.4544 25.7269H70.3585V30.0682H68.7658ZM70.3265 22.9091C70.3265 23.4844 70.41 23.9886 70.5769 24.4219C70.7438 24.8551 70.9852 25.1942 71.3013 25.4393C71.6173 25.6808 72.0044 25.8015 72.4625 25.8015C72.9384 25.8015 73.3361 25.6754 73.6557 25.4233C73.9753 25.1676 74.2168 24.8214 74.3801 24.3846C74.547 23.9478 74.6305 23.456 74.6305 22.9091C74.6305 22.3693 74.5488 21.8846 74.3855 21.4549C74.2257 21.0252 73.9842 20.6861 73.661 20.4375C73.3414 20.1889 72.9419 20.0646 72.4625 20.0646C72.0009 20.0646 71.6102 20.1836 71.2906 20.4215C70.9746 20.6594 70.7349 20.9915 70.5715 21.4176C70.4082 21.8437 70.3265 22.3409 70.3265 22.9091ZM81.32 27.1651C80.5529 27.1651 79.8835 26.9893 79.3118 26.6378C78.7401 26.2862 78.2962 25.7944 77.9801 25.1623C77.6641 24.5302 77.5061 23.7915 77.5061 22.9464C77.5061 22.0977 77.6641 21.3555 77.9801 20.7198C78.2962 20.0842 78.7401 19.5906 79.3118 19.239C79.8835 18.8874 80.5529 18.7116 81.32 18.7116C82.087 18.7116 82.7564 18.8874 83.3281 19.239C83.8999 19.5906 84.3438 20.0842 84.6598 20.7198C84.9759 21.3555 85.1339 22.0977 85.1339 22.9464C85.1339 23.7915 84.9759 24.5302 84.6598 25.1623C84.3438 25.7944 83.8999 26.2862 83.3281 26.6378C82.7564 26.9893 82.087 27.1651 81.32 27.1651ZM81.3253 25.8281C81.8225 25.8281 82.2344 25.6967 82.5611 25.4339C82.8878 25.1712 83.1293 24.8214 83.2855 24.3846C83.4453 23.9478 83.5252 23.4666 83.5252 22.9411C83.5252 22.419 83.4453 21.9396 83.2855 21.5028C83.1293 21.0625 82.8878 20.7092 82.5611 20.4428C82.2344 20.1765 81.8225 20.0433 81.3253 20.0433C80.8246 20.0433 80.4091 20.1765 80.0789 20.4428C79.7521 20.7092 79.5089 21.0625 79.3491 21.5028C79.1928 21.9396 79.1147 22.419 79.1147 22.9411C79.1147 23.4666 79.1928 23.9478 79.3491 24.3846C79.5089 24.8214 79.7521 25.1712 80.0789 25.4339C80.4091 25.6967 80.8246 25.8281 81.3253 25.8281ZM90.2081 27.1651C89.4162 27.1651 88.7343 26.9858 88.1626 26.6271C87.5944 26.2649 87.1576 25.766 86.8522 25.1303C86.5468 24.4947 86.3941 23.7667 86.3941 22.9464C86.3941 22.1154 86.5504 21.3821 86.8629 20.7464C87.1754 20.1072 87.6157 19.6083 88.1839 19.2496C88.7521 18.891 89.4215 18.7116 90.1921 18.7116C90.8135 18.7116 91.3675 18.8271 91.854 19.0579C92.3405 19.2852 92.7329 19.6048 93.0312 20.0167C93.3331 20.4286 93.5124 20.9098 93.5692 21.4602H92.0191C91.9339 21.0767 91.7386 20.7464 91.4332 20.4695C91.1314 20.1925 90.7265 20.054 90.2187 20.054C89.7748 20.054 89.386 20.1712 89.0522 20.4055C88.7219 20.6364 88.4645 20.9666 88.2798 21.3963C88.0951 21.8224 88.0028 22.3267 88.0028 22.9091C88.0028 23.5057 88.0934 24.0206 88.2745 24.4538C88.4556 24.8871 88.7113 25.2227 89.0415 25.4606C89.3753 25.6985 89.7677 25.8175 90.2187 25.8175C90.5206 25.8175 90.794 25.7624 91.039 25.6523C91.2876 25.5387 91.4953 25.3771 91.6623 25.1676C91.8327 24.9581 91.9517 24.706 92.0191 24.4112H93.5692C93.5124 24.9403 93.3402 25.4126 93.0525 25.8281C92.7649 26.2436 92.3796 26.5703 91.8966 26.8082C91.4172 27.0462 90.8544 27.1651 90.2081 27.1651ZM96.6831 24.7681L100.289 18.8182H102.005V27H100.444V21.0447L96.8536 27H95.1224V18.8182H96.6831V24.7681ZM102.981 20.1925V18.8182H109.885V20.1925H107.216V27H105.66V20.1925H102.981ZM112.618 21.6307H114.993C115.995 21.6307 116.765 21.8793 117.305 22.3764C117.845 22.8736 118.115 23.5146 118.115 24.2994C118.115 24.8107 117.994 25.2706 117.753 25.679C117.511 26.0874 117.158 26.4105 116.693 26.6484C116.227 26.8828 115.661 27 114.993 27H111.419V18.8182H112.98V25.6257H114.993C115.451 25.6257 115.828 25.5067 116.123 25.2688C116.417 25.0273 116.565 24.7202 116.565 24.3473C116.565 23.9531 116.417 23.6317 116.123 23.3832C115.828 23.131 115.451 23.005 114.993 23.005H112.618V21.6307ZM127.017 27.1651C126.25 27.1651 125.58 26.9893 125.008 26.6378C124.437 26.2862 123.993 25.7944 123.677 25.1623C123.361 24.5302 123.203 23.7915 123.203 22.9464C123.203 22.0977 123.361 21.3555 123.677 20.7198C123.993 20.0842 124.437 19.5906 125.008 19.239C125.58 18.8874 126.25 18.7116 127.017 18.7116C127.784 18.7116 128.453 18.8874 129.025 19.239C129.597 19.5906 130.04 20.0842 130.357 20.7198C130.673 21.3555 130.831 22.0977 130.831 22.9464C130.831 23.7915 130.673 24.5302 130.357 25.1623C130.04 25.7944 129.597 26.2862 129.025 26.6378C128.453 26.9893 127.784 27.1651 127.017 27.1651ZM127.022 25.8281C127.519 25.8281 127.931 25.6967 128.258 25.4339C128.584 25.1712 128.826 24.8214 128.982 24.3846C129.142 23.9478 129.222 23.4666 129.222 22.9411C129.222 22.419 129.142 21.9396 128.982 21.5028C128.826 21.0625 128.584 20.7092 128.258 20.4428C127.931 20.1765 127.519 20.0433 127.022 20.0433C126.521 20.0433 126.106 20.1765 125.776 20.4428C125.449 20.7092 125.206 21.0625 125.046 21.5028C124.89 21.9396 124.811 22.419 124.811 22.9411C124.811 23.4666 124.89 23.9478 125.046 24.3846C125.206 24.8214 125.449 25.1712 125.776 25.4339C126.106 25.6967 126.521 25.8281 127.022 25.8281ZM132.458 18.8182H134.019V25.6204H136.848V18.8182H138.408V25.6204H141.237V18.8182H142.797V27H132.458V18.8182ZM146.335 24.7681L149.941 18.8182H151.656V27H150.096V21.0447L146.505 27H144.774V18.8182H146.335V24.7681ZM159.96 15.7713L160.62 16.7781C160.375 17.0018 160.096 17.1616 159.784 17.2575C159.475 17.3498 159.118 17.4084 158.713 17.4332C158.308 17.4545 157.845 17.4741 157.323 17.4918C156.734 17.5096 156.249 17.6374 155.869 17.8754C155.489 18.1097 155.196 18.4577 154.99 18.9194C154.788 19.3775 154.656 19.9528 154.596 20.6452H154.697C154.963 20.1374 155.333 19.7575 155.805 19.5053C156.281 19.2532 156.815 19.1271 157.408 19.1271C158.069 19.1271 158.656 19.2781 159.171 19.5799C159.686 19.8817 160.091 20.3239 160.386 20.9062C160.684 21.4851 160.833 22.1935 160.833 23.0316C160.833 23.8803 160.677 24.6136 160.365 25.2315C160.056 25.8494 159.619 26.3271 159.054 26.6644C158.493 26.9982 157.831 27.1651 157.067 27.1651C156.304 27.1651 155.638 26.9929 155.07 26.6484C154.505 26.3004 154.067 25.7855 153.754 25.1037C153.445 24.4219 153.291 23.5803 153.291 22.5788V21.7692C153.291 19.8977 153.625 18.4897 154.292 17.5451C154.96 16.6005 155.958 16.1158 157.286 16.0909C157.715 16.0803 158.099 16.0785 158.436 16.0856C158.774 16.0891 159.068 16.0732 159.321 16.0376C159.576 15.9986 159.789 15.9098 159.96 15.7713ZM157.073 25.8281C157.517 25.8281 157.898 25.7163 158.218 25.4925C158.541 25.2653 158.79 24.9439 158.964 24.5284C159.138 24.1129 159.225 23.6229 159.225 23.0582C159.225 22.5043 159.138 22.0337 158.964 21.6467C158.79 21.2596 158.541 20.9648 158.218 20.7624C157.895 20.5565 157.508 20.4535 157.057 20.4535C156.723 20.4535 156.425 20.5121 156.162 20.6293C155.899 20.7429 155.674 20.9116 155.485 21.1353C155.301 21.359 155.157 21.6325 155.054 21.9556C154.954 22.2752 154.901 22.6428 154.894 23.0582C154.894 23.9034 155.088 24.5763 155.475 25.0771C155.865 25.5778 156.398 25.8281 157.073 25.8281ZM165.909 27.1651C165.142 27.1651 164.472 26.9893 163.901 26.6378C163.329 26.2862 162.885 25.7944 162.569 25.1623C162.253 24.5302 162.095 23.7915 162.095 22.9464C162.095 22.0977 162.253 21.3555 162.569 20.7198C162.885 20.0842 163.329 19.5906 163.901 19.239C164.472 18.8874 165.142 18.7116 165.909 18.7116C166.676 18.7116 167.345 18.8874 167.917 19.239C168.489 19.5906 168.933 20.0842 169.249 20.7198C169.565 21.3555 169.723 22.0977 169.723 22.9464C169.723 23.7915 169.565 24.5302 169.249 25.1623C168.933 25.7944 168.489 26.2862 167.917 26.6378C167.345 26.9893 166.676 27.1651 165.909 27.1651ZM165.914 25.8281C166.411 25.8281 166.823 25.6967 167.15 25.4339C167.477 25.1712 167.718 24.8214 167.874 24.3846C168.034 23.9478 168.114 23.4666 168.114 22.9411C168.114 22.419 168.034 21.9396 167.874 21.5028C167.718 21.0625 167.477 20.7092 167.15 20.4428C166.823 20.1765 166.411 20.0433 165.914 20.0433C165.413 20.0433 164.998 20.1765 164.668 20.4428C164.341 20.7092 164.098 21.0625 163.938 21.5028C163.782 21.9396 163.704 22.419 163.704 22.9411C163.704 23.4666 163.782 23.9478 163.938 24.3846C164.098 24.8214 164.341 25.1712 164.668 25.4339C164.998 25.6967 165.413 25.8281 165.914 25.8281ZM177.918 18.8182V27H176.363V18.8182H177.918ZM177.242 22.6161V23.9904C176.997 24.0898 176.738 24.1786 176.464 24.2567C176.191 24.3313 175.903 24.3899 175.601 24.4325C175.299 24.4751 174.985 24.4964 174.658 24.4964C173.646 24.4964 172.842 24.2496 172.245 23.756C171.649 23.2589 171.351 22.4989 171.351 21.4762V18.8022H172.901V21.4762C172.901 21.8633 172.972 22.1776 173.114 22.419C173.256 22.6605 173.458 22.8381 173.721 22.9517C173.984 23.0653 174.296 23.1222 174.658 23.1222C175.138 23.1222 175.58 23.0778 175.985 22.989C176.393 22.8967 176.812 22.7724 177.242 22.6161ZM185.432 22.2219V23.6016H181V22.2219H185.432ZM181.448 18.8182V27H179.887V18.8182H181.448ZM186.545 18.8182V27H184.99V18.8182H186.545ZM189.725 21.6307H192.1C193.102 21.6307 193.872 21.8793 194.412 22.3764C194.952 22.8736 195.222 23.5146 195.222 24.2994C195.222 24.8107 195.101 25.2706 194.86 25.679C194.618 26.0874 194.265 26.4105 193.8 26.6484C193.334 26.8828 192.768 27 192.1 27H188.526V18.8182H190.087V25.6257H192.1C192.558 25.6257 192.935 25.5067 193.23 25.2688C193.524 25.0273 193.672 24.7202 193.672 24.3473C193.672 23.9531 193.524 23.6317 193.23 23.3832C192.935 23.131 192.558 23.005 192.1 23.005H189.725V21.6307ZM196.383 27V18.8182H197.976V27H196.383ZM203.489 27.1651C202.683 27.1651 201.989 26.9929 201.407 26.6484C200.828 26.3004 200.38 25.8121 200.064 25.1836C199.752 24.5515 199.596 23.8111 199.596 22.9624C199.596 22.1243 199.752 21.3857 200.064 20.7464C200.38 20.1072 200.821 19.6083 201.385 19.2496C201.953 18.891 202.618 18.7116 203.377 18.7116C203.839 18.7116 204.287 18.788 204.72 18.9407C205.153 19.0934 205.542 19.3331 205.886 19.6598C206.231 19.9865 206.502 20.4109 206.701 20.9329C206.9 21.4513 207 22.0817 207 22.8239V23.3885H200.496V22.1953H205.439C205.439 21.7763 205.354 21.4052 205.183 21.082C205.013 20.7553 204.773 20.4979 204.464 20.3097C204.159 20.1214 203.8 20.0273 203.388 20.0273C202.941 20.0273 202.55 20.1374 202.216 20.3576C201.886 20.5742 201.63 20.8583 201.449 21.2099C201.272 21.5579 201.183 21.9361 201.183 22.3445V23.2766C201.183 23.8235 201.279 24.2887 201.471 24.6722C201.666 25.0558 201.937 25.3487 202.285 25.5511C202.634 25.75 203.04 25.8494 203.505 25.8494C203.807 25.8494 204.082 25.8068 204.331 25.7216C204.58 25.6328 204.794 25.5014 204.975 25.3274C205.157 25.1534 205.295 24.9386 205.391 24.6829L206.898 24.9545C206.778 25.3984 206.561 25.7873 206.249 26.1211C205.94 26.4513 205.551 26.7088 205.082 26.8935C204.617 27.0746 204.086 27.1651 203.489 27.1651ZM215.883 27.1651C215.091 27.1651 214.409 26.9858 213.837 26.6271C213.269 26.2649 212.832 25.766 212.527 25.1303C212.222 24.4947 212.069 23.7667 212.069 22.9464C212.069 22.1154 212.225 21.3821 212.538 20.7464C212.85 20.1072 213.291 19.6083 213.859 19.2496C214.427 18.891 215.096 18.7116 215.867 18.7116C216.488 18.7116 217.042 18.8271 217.529 19.0579C218.015 19.2852 218.408 19.6048 218.706 20.0167C219.008 20.4286 219.187 20.9098 219.244 21.4602H217.694C217.609 21.0767 217.413 20.7464 217.108 20.4695C216.806 20.1925 216.401 20.054 215.894 20.054C215.45 20.054 215.061 20.1712 214.727 20.4055C214.397 20.6364 214.139 20.9666 213.955 21.3963C213.77 21.8224 213.678 22.3267 213.678 22.9091C213.678 23.5057 213.768 24.0206 213.949 24.4538C214.13 24.8871 214.386 25.2227 214.716 25.4606C215.05 25.6985 215.443 25.8175 215.894 25.8175C216.195 25.8175 216.469 25.7624 216.714 25.6523C216.962 25.5387 217.17 25.3771 217.337 25.1676C217.508 24.9581 217.626 24.706 217.694 24.4112H219.244C219.187 24.9403 219.015 25.4126 218.727 25.8281C218.44 26.2436 218.054 26.5703 217.571 26.8082C217.092 27.0462 216.529 27.1651 215.883 27.1651ZM224.244 27.1651C223.477 27.1651 222.807 26.9893 222.235 26.6378C221.664 26.2862 221.22 25.7944 220.904 25.1623C220.588 24.5302 220.43 23.7915 220.43 22.9464C220.43 22.0977 220.588 21.3555 220.904 20.7198C221.22 20.0842 221.664 19.5906 222.235 19.239C222.807 18.8874 223.477 18.7116 224.244 18.7116C225.011 18.7116 225.68 18.8874 226.252 19.239C226.824 19.5906 227.267 20.0842 227.583 20.7198C227.9 21.3555 228.058 22.0977 228.058 22.9464C228.058 23.7915 227.9 24.5302 227.583 25.1623C227.267 25.7944 226.824 26.2862 226.252 26.6378C225.68 26.9893 225.011 27.1651 224.244 27.1651ZM224.249 25.8281C224.746 25.8281 225.158 25.6967 225.485 25.4339C225.811 25.1712 226.053 24.8214 226.209 24.3846C226.369 23.9478 226.449 23.4666 226.449 22.9411C226.449 22.419 226.369 21.9396 226.209 21.5028C226.053 21.0625 225.811 20.7092 225.485 20.4428C225.158 20.1765 224.746 20.0433 224.249 20.0433C223.748 20.0433 223.333 20.1765 223.002 20.4428C222.676 20.7092 222.433 21.0625 222.273 21.5028C222.116 21.9396 222.038 22.419 222.038 22.9411C222.038 23.4666 222.116 23.9478 222.273 24.3846C222.433 24.8214 222.676 25.1712 223.002 25.4339C223.333 25.6967 223.748 25.8281 224.249 25.8281ZM233.132 27.1651C232.34 27.1651 231.658 26.9858 231.086 26.6271C230.518 26.2649 230.081 25.766 229.776 25.1303C229.47 24.4947 229.318 23.7667 229.318 22.9464C229.318 22.1154 229.474 21.3821 229.787 20.7464C230.099 20.1072 230.539 19.6083 231.108 19.2496C231.676 18.891 232.345 18.7116 233.116 18.7116C233.737 18.7116 234.291 18.8271 234.778 19.0579C235.264 19.2852 235.657 19.6048 235.955 20.0167C236.257 20.4286 236.436 20.9098 236.493 21.4602H234.943C234.858 21.0767 234.662 20.7464 234.357 20.4695C234.055 20.1925 233.65 20.054 233.142 20.054C232.698 20.054 232.31 20.1712 231.976 20.4055C231.646 20.6364 231.388 20.9666 231.203 21.3963C231.019 21.8224 230.926 22.3267 230.926 22.9091C230.926 23.5057 231.017 24.0206 231.198 24.4538C231.379 24.8871 231.635 25.2227 231.965 25.4606C232.299 25.6985 232.691 25.8175 233.142 25.8175C233.444 25.8175 233.718 25.7624 233.963 25.6523C234.211 25.5387 234.419 25.3771 234.586 25.1676C234.756 24.9581 234.875 24.706 234.943 24.4112H236.493C236.436 24.9403 236.264 25.4126 235.976 25.8281C235.689 26.2436 235.303 26.5703 234.82 26.8082C234.341 27.0462 233.778 27.1651 233.132 27.1651ZM237.427 20.1925V18.8182H244.33V20.1925H241.662V27H240.106V20.1925H237.427ZM248.93 27.1651C248.163 27.1651 247.494 26.9893 246.922 26.6378C246.35 26.2862 245.907 25.7944 245.59 25.1623C245.274 24.5302 245.116 23.7915 245.116 22.9464C245.116 22.0977 245.274 21.3555 245.59 20.7198C245.907 20.0842 246.35 19.5906 246.922 19.239C247.494 18.8874 248.163 18.7116 248.93 18.7116C249.697 18.7116 250.367 18.8874 250.938 19.239C251.51 19.5906 251.954 20.0842 252.27 20.7198C252.586 21.3555 252.744 22.0977 252.744 22.9464C252.744 23.7915 252.586 24.5302 252.27 25.1623C251.954 25.7944 251.51 26.2862 250.938 26.6378C250.367 26.9893 249.697 27.1651 248.93 27.1651ZM248.936 25.8281C249.433 25.8281 249.845 25.6967 250.171 25.4339C250.498 25.1712 250.74 24.8214 250.896 24.3846C251.056 23.9478 251.136 23.4666 251.136 22.9411C251.136 22.419 251.056 21.9396 250.896 21.5028C250.74 21.0625 250.498 20.7092 250.171 20.4428C249.845 20.1765 249.433 20.0433 248.936 20.0433C248.435 20.0433 248.019 20.1765 247.689 20.4428C247.363 20.7092 247.119 21.0625 246.959 21.5028C246.803 21.9396 246.725 22.419 246.725 22.9411C246.725 23.4666 246.803 23.9478 246.959 24.3846C247.119 24.8214 247.363 25.1712 247.689 25.4339C248.019 25.6967 248.435 25.8281 248.936 25.8281ZM259.251 27V20.1765H257.291C256.826 20.1765 256.464 20.2848 256.204 20.5014C255.945 20.718 255.816 21.0021 255.816 21.3537C255.816 21.7017 255.935 21.9822 256.172 22.1953C256.414 22.4048 256.751 22.5096 257.185 22.5096H259.715V23.7987H257.185C256.581 23.7987 256.059 23.6992 255.618 23.5004C255.182 23.2979 254.844 23.0121 254.606 22.6428C254.372 22.2734 254.255 21.8366 254.255 21.3324C254.255 20.8175 254.376 20.3736 254.617 20.0007C254.862 19.6243 255.212 19.3331 255.666 19.1271C256.125 18.9212 256.666 18.8182 257.291 18.8182H260.748V27H259.251ZM253.882 27L256.188 22.8665H257.818L255.512 27H253.882ZM268.263 22.2219V23.6016H263.831V22.2219H268.263ZM264.279 18.8182V27H262.718V18.8182H264.279ZM269.377 18.8182V27H267.821V18.8182H269.377ZM272.918 24.7681L276.524 18.8182H278.239V27H276.679V21.0447L273.088 27H271.357V18.8182H272.918V24.7681ZM285.11 27V20.1765H283.15C282.684 20.1765 282.322 20.2848 282.063 20.5014C281.804 20.718 281.674 21.0021 281.674 21.3537C281.674 21.7017 281.793 21.9822 282.031 22.1953C282.273 22.4048 282.61 22.5096 283.043 22.5096H285.573V23.7987H283.043C282.439 23.7987 281.917 23.6992 281.477 23.5004C281.04 23.2979 280.703 23.0121 280.465 22.6428C280.231 22.2734 280.113 21.8366 280.113 21.3324C280.113 20.8175 280.234 20.3736 280.476 20.0007C280.721 19.6243 281.07 19.3331 281.525 19.1271C281.983 18.9212 282.525 18.8182 283.15 18.8182H286.607V27H285.11ZM279.741 27L282.047 22.8665H283.677L281.371 27H279.741Z" fill="#221E1E" style="fill:#221E1E;fill:color(display-p3 0.1333 0.1183 0.1183);fill-opacity:1;"/>
<mask id="mask1_1304_237686" style="mask-type:alpha" maskUnits="userSpaceOnUse" x="352" y="10" width="24" height="24">
<rect x="352" y="10" width="24" height="24" fill="#D9D9D9" style="fill:#D9D9D9;fill:color(display-p3 0.8510 0.8510 0.8510);fill-opacity:1;"/>
</mask>
<g mask="url(#mask1_1304_237686)">
<path d="M361 27.2V16.8L369.15 22L361 27.2ZM362 25.35L367.3 22L362 18.65V25.35Z" fill="black" fill-opacity="0.76" style="fill:black;fill-opacity:0.76;"/>
</g>
</svg>
